<?xml version="1.0" encoding="UTF-8" standalone="no"?>
<!-- Created with Inkscape (http://www.inkscape.org/) -->

<svg
   version="1.1"
   id="svg1"
   width="415.74933"
   height="464.62668"
   viewBox="0 0 415.74933 464.62668"
   sodipodi:docname="06098954.svg"
   inkscape:version="1.4 (86a8ad7, 2024-10-11)"
   xmlns:inkscape="http://www.inkscape.org/namespaces/inkscape"
   xmlns:sodipodi="http://sodipodi.sourceforge.net/DTD/sodipodi-0.dtd"
   xmlns="http://www.w3.org/2000/svg"
   xmlns:svg="http://www.w3.org/2000/svg">
  <defs
     id="defs1">
    <clipPath
       clipPathUnits="userSpaceOnUse"
       id="clipPath4">
      <path
         d="M 0,348.47 H 311.812 V 0 H 0 Z"
         transform="translate(-215.77441,-330.15921)"
         id="path4" />
    </clipPath>
    <clipPath
       clipPathUnits="userSpaceOnUse"
       id="clipPath6">
      <path
         d="M 0,348.47 H 311.812 V 0 H 0 Z"
         transform="translate(-123.29691,-191.9844)"
         id="path6" />
    </clipPath>
    <clipPath
       clipPathUnits="userSpaceOnUse"
       id="clipPath8">
      <path
         d="M 0,348.47 H 311.812 V 0 H 0 Z"
         transform="translate(-208.60641,-145.42091)"
         id="path8" />
    </clipPath>
    <clipPath
       clipPathUnits="userSpaceOnUse"
       id="clipPath10">
      <path
         d="M 0,348.47 H 311.812 V 0 H 0 Z"
         transform="translate(-52.438001,-58.625001)"
         id="path10" />
    </clipPath>
    <clipPath
       clipPathUnits="userSpaceOnUse"
       id="clipPath12">
      <path
         d="M 0,348.47 H 311.812 V 0 H 0 Z"
         id="path12" />
    </clipPath>
    <clipPath
       clipPathUnits="userSpaceOnUse"
       id="clipPath14">
      <path
         d="M 0,348.47 H 311.812 V 0 H 0 Z"
         transform="translate(-126.03171,-87)"
         id="path14" />
    </clipPath>
    <clipPath
       clipPathUnits="userSpaceOnUse"
       id="clipPath16">
      <path
         d="M 0,348.47 H 311.812 V 0 H 0 Z"
         transform="translate(-142.9302,-80.4609)"
         id="path16" />
    </clipPath>
    <clipPath
       clipPathUnits="userSpaceOnUse"
       id="clipPath18">
      <path
         d="M 0,348.47 H 311.812 V 0 H 0 Z"
         transform="translate(-165.2119,-87)"
         id="path18" />
    </clipPath>
    <clipPath
       clipPathUnits="userSpaceOnUse"
       id="clipPath20">
      <path
         d="M 0,348.47 H 311.812 V 0 H 0 Z"
         transform="translate(-205.93071,-80.4609)"
         id="path20" />
    </clipPath>
    <clipPath
       clipPathUnits="userSpaceOnUse"
       id="clipPath22">
      <path
         d="M 0,348.47 H 311.812 V 0 H 0 Z"
         transform="translate(-228.001,-58.406301)"
         id="path22" />
    </clipPath>
    <clipPath
       clipPathUnits="userSpaceOnUse"
       id="clipPath24">
      <path
         d="M 0,348.47 H 311.812 V 0 H 0 Z"
         id="path24" />
    </clipPath>
  </defs>
  <sodipodi:namedview
     id="namedview1"
     pagecolor="#ffffff"
     bordercolor="#000000"
     borderopacity="0.25"
     inkscape:showpageshadow="2"
     inkscape:pageopacity="0.0"
     inkscape:pagecheckerboard="0"
     inkscape:deskcolor="#d1d1d1"
     inkscape:zoom="1.904755"
     inkscape:cx="207.63825"
     inkscape:cy="231.26334"
     inkscape:window-width="1920"
     inkscape:window-height="1009"
     inkscape:window-x="-8"
     inkscape:window-y="-8"
     inkscape:window-maximized="1"
     inkscape:current-layer="group-MC0">
    <inkscape:page
       x="0"
       y="0"
       inkscape:label="1"
       id="page1"
       width="415.74933"
       height="464.62668"
       margin="0"
       bleed="0" />
  </sodipodi:namedview>
  <g
     id="g1"
     inkscape:groupmode="layer"
     inkscape:label="1">
    <g
       id="group-MC0">
      <path
         id="path2"
         d="M 0,0 H 311.811 V 311.811 H 0 Z"
         style="fill:#ffffff;fill-opacity:1;fill-rule:nonzero;stroke:none"
         transform="matrix(1.3333333,0,0,-1.3333333,0,464.62667)" />
      <path
         id="path3"
         d="m 0,0 v 0.813 c -1.256,0.039 -2.344,0.692 -3.258,1.953 l -5.227,7.181 3.871,5.132 c 0.913,1.248 2.06,1.866 3.431,1.875 h 0.517 v 0.817 h -6.933 v -0.817 h 0.787 c 0.806,-0.009 1.224,-0.357 1.285,-1.062 -0.01,-0.282 -0.183,-0.726 -0.519,-1.304 l -2.909,-3.976 -3.036,4.763 c -0.309,0.422 -0.456,0.752 -0.444,0.987 -0.012,0.383 0.405,0.583 1.231,0.592 h 0.84 v 0.817 h -8.365 v -0.817 c 1.505,-0.009 2.553,-0.457 3.159,-1.357 l 4.789,-7.281 -4.345,-5.354 c -1.11,-1.396 -2.494,-2.11 -4.171,-2.149 V 0 h 7.306 v 0.813 h -0.617 c -1.197,-0.008 -1.788,0.383 -1.78,1.161 -0.008,0.357 0.213,0.827 0.645,1.41 l 3.43,4.219 3.429,-4.446 C -6.61,2.775 -6.429,2.331 -6.315,1.827 -6.39,1.148 -6.92,0.805 -7.895,0.813 H -8.39 L -8.39,0 H 0 M -23.017,9.429 H -40.145 V 7.824 h 17.128 z m -24.039,-5.01 c -0.008,1.887 -0.76,3.257 -2.269,4.119 -0.801,0.469 -1.91,0.804 -3.332,0.987 1.517,0.222 2.726,0.604 3.627,1.161 0.952,0.814 1.423,1.914 1.436,3.306 -0.013,1.422 -0.671,2.531 -1.975,3.336 -1.161,0.652 -2.483,0.974 -3.976,0.983 -1.456,-0.009 -2.714,-0.405 -3.774,-1.183 -0.962,-0.727 -1.445,-1.618 -1.432,-2.64 -0.013,-0.557 0.121,-1.001 0.396,-1.357 0.309,-0.357 0.713,-0.531 1.23,-0.518 0.458,-0.013 0.806,0.109 1.062,0.37 0.334,0.356 0.508,0.713 0.517,1.087 -0.009,0.331 -0.108,0.678 -0.316,1.035 -0.261,0.37 -0.384,0.692 -0.37,0.961 -0.014,0.335 0.157,0.631 0.491,0.888 0.37,0.308 0.953,0.456 1.753,0.469 2.171,-0.013 3.245,-1.331 3.258,-3.997 -0.013,-1.122 -0.322,-2 -0.941,-2.618 -0.825,-0.613 -1.787,-0.922 -2.86,-0.909 h -1.385 V 8.933 h 1.385 c 1.248,-0.013 2.243,-0.33 3.009,-0.987 0.805,-0.774 1.201,-1.948 1.209,-3.527 -0.008,-1.27 -0.343,-2.297 -1.009,-3.062 -0.531,-0.605 -1.445,-0.927 -2.741,-0.987 -1.012,0.06 -1.766,0.321 -2.27,0.791 -0.209,0.183 -0.309,0.457 -0.296,0.787 -0.013,0.287 0.087,0.618 0.296,0.988 0.175,0.409 0.258,0.743 0.27,1.013 -0.035,0.431 -0.196,0.826 -0.469,1.161 -0.257,0.257 -0.64,0.383 -1.157,0.396 -0.557,-0.013 -0.987,-0.226 -1.309,-0.644 -0.335,-0.408 -0.505,-0.874 -0.492,-1.431 -0.013,-1.209 0.678,-2.196 2.049,-2.961 1.157,-0.666 2.391,-0.975 3.701,-0.988 1.948,0.013 3.513,0.383 4.71,1.183 1.309,0.892 1.966,2.136 1.974,3.754 M -64.31,0 v 0.813 c -1.357,0.039 -2.27,0.631 -2.739,1.779 L -73.712,18.311 -76.3,17.08 -81.437,3.827 C -81.758,2.975 -82.176,2.235 -82.693,1.579 -83.324,1.061 -83.93,0.805 -84.521,0.813 h -0.543 V 0 h 6.616 v 0.813 h -0.618 c -0.719,-0.008 -1.248,0.148 -1.58,0.47 -0.187,0.174 -0.282,0.509 -0.273,0.987 -0.009,0.235 0.025,0.47 0.1,0.692 0.073,0.369 0.457,1.492 1.161,3.379 h 7.972 l 1.505,-3.675 c 0.121,-0.335 0.182,-0.57 0.196,-0.692 -0.014,-0.282 -0.108,-0.543 -0.295,-0.791 -0.309,-0.257 -0.727,-0.378 -1.283,-0.37 h -0.915 V 0 Z m -23.381,16.954 v 0.817 h -6.589 v -0.817 h 0.886 c 0.915,-0.009 1.396,-0.331 1.457,-0.962 0.014,-0.269 -0.147,-0.665 -0.469,-1.183 l -4.072,-6.245 -4.096,6.515 c -0.334,0.531 -0.505,0.926 -0.491,1.187 -0.014,0.457 0.443,0.679 1.357,0.688 h 0.712 v 0.817 h -8.093 v -0.817 c 0.705,-0.009 1.248,-0.096 1.652,-0.27 0.422,-0.335 0.853,-0.779 1.31,-1.309 l 5.206,-8.268 V 2.47 c -0.014,-1.113 -0.591,-1.665 -1.774,-1.657 h -0.792 V 0 h 8.168 v 0.813 h -0.862 c -1.209,-0.008 -1.814,0.583 -1.8,1.779 v 5.28 l 4.763,7.207 c 0.478,0.731 1.048,1.27 1.678,1.605 0.331,0.174 0.949,0.261 1.849,0.27 M -110.586,0 v 0.813 c -1.27,0.039 -2.296,0.596 -3.062,1.657 l -6.589,8.982 3.927,3.627 c 0.701,0.657 1.392,1.1 2.071,1.357 0.813,0.335 1.666,0.509 2.566,0.518 v 0.817 h -7.503 v -0.817 h 0.617 c 0.927,-0.009 1.418,-0.309 1.457,-0.888 -0.039,-0.269 -0.309,-0.691 -0.792,-1.257 l -7.08,-6.515 v 6.985 c -0.012,1.109 0.483,1.666 1.478,1.675 h 1.015 v 0.817 h -7.995 v -0.817 h 0.983 c 1.039,-0.009 1.545,-0.566 1.557,-1.675 V 2.592 c -0.012,-1.196 -0.557,-1.787 -1.652,-1.779 h -0.888 V 0 h 8.069 v 0.813 h -0.989 c -1.061,-0.008 -1.59,0.583 -1.578,1.779 v 4.541 l 2.666,2.444 4.836,-6.515 c 0.431,-0.618 0.654,-1.114 0.666,-1.483 -0.073,-0.518 -0.556,-0.774 -1.43,-0.766 h -0.814 V 0 Z m 38.605,7.133 h -7.381 l 3.58,9.059 z"
         style="fill:#231f20;fill-opacity:1;fill-rule:nonzero;stroke:none"
         transform="matrix(1.3333333,0,0,-1.3333333,287.6992,24.4144)"
         clip-path="url(#clipPath4)" />
      <g
         id="g3">
        <path
           id="path5"
           d="m 0,0 c -1.423,0.054 -2.762,-0.164 -4.02,-0.656 -1.312,-0.383 -2.543,-0.821 -3.691,-1.313 -1.368,-0.547 -2.625,-1.203 -3.773,-1.969 0.546,-1.915 1.858,-3.035 3.937,-3.363 1.313,0.275 2.652,0.492 4.02,0.656 1.476,1.969 2.734,4.102 3.773,6.399 z m 22.805,31.541 c -1.641,0.628 -3.255,0.889 -4.84,0.779 -2.352,-1.094 -4.485,-2.515 -6.399,-4.265 -0.766,0.382 -1.504,0.765 -2.214,1.148 -0.821,1.149 -0.903,2.406 -0.247,3.774 2.515,2.461 5.386,4.511 8.614,6.152 -0.548,0.054 -1.067,0.136 -1.559,0.246 C 9.05,38.828 2.104,37.57 -4.676,35.602 c -2.297,-0.275 -4.567,-0.575 -6.808,-0.903 -2.079,-0.656 -4.157,-1.23 -6.235,-1.722 -2.352,0.164 -4.265,1.038 -5.742,2.625 1.421,2.296 3.554,3.472 6.398,3.527 2.734,0.109 5.168,1.012 7.301,2.707 -1.915,1.914 -3.691,3.965 -5.332,6.152 -1.476,1.859 -2.215,4.02 -2.215,6.481 -0.055,2.133 0.411,4.183 1.395,6.152 0,2.242 1.175,3.145 3.527,2.707 0.874,0.656 1.832,0.574 2.871,-0.246 1.149,-0.711 2.242,-1.531 3.282,-2.461 0.82,-0.875 1.722,-1.613 2.707,-2.215 1.038,-0.383 1.585,-1.094 1.64,-2.133 0.054,-1.039 0.464,-1.859 1.231,-2.46 -0.384,-1.149 -0.246,-2.229 0.41,-3.241 0.656,-1.012 0.956,-2.092 0.902,-3.24 0.657,-1.039 1.34,-2.051 2.051,-3.035 0.054,-0.656 0.273,-1.259 0.656,-1.805 0.437,-0.164 0.874,-0.301 1.313,-0.41 1.969,0.438 3.964,0.656 5.988,0.656 h 6.152 c 2.078,-0.054 4.02,-0.656 5.825,-1.804 0.984,-1.259 2.022,-2.434 3.117,-3.528 0.382,-1.64 0.874,-3.199 1.476,-4.676 -1.312,-1.422 -2.789,-1.818 -4.429,-1.189 M 13.781,-4.43 C 12.03,-4.156 10.308,-3.992 8.613,-3.938 7.629,-5.36 6.753,-6.78 5.988,-8.203 c -0.711,-1.586 -1.312,-3.199 -1.804,-4.84 -1.313,0.492 -2.625,0.492 -3.938,0 -1.368,1.531 -3.008,1.969 -4.922,1.313 -1.64,-0.874 -3.172,-1.833 -4.594,-2.872 -3.063,0.547 -5.879,1.641 -8.449,3.282 -0.711,0.656 -1.367,1.394 -1.969,2.215 -0.656,1.094 -1.613,1.833 -2.871,2.214 -1.531,3.719 -2.571,7.575 -3.117,11.567 3.117,0.273 6.124,-0.164 9.024,-1.313 1.913,1.366 3.773,2.899 5.578,4.594 0.71,1.094 1.53,2.133 2.461,3.117 -2.625,0.164 -4.922,1.176 -6.891,3.035 -2.024,0.93 -3.418,2.407 -4.184,4.43 -1.312,1.75 -1.997,3.745 -2.05,5.988 -0.055,0.382 -0.111,0.766 -0.164,1.149 -0.164,0.328 -0.328,0.683 -0.493,1.066 0.165,0.328 0.329,0.71 0.493,1.149 1.749,-0.275 3.499,-0.739 5.25,-1.395 1.038,-0.219 2.022,-0.574 2.953,-1.066 1.694,-1.751 3.007,-3.828 3.937,-6.235 0.382,-0.984 1.067,-1.64 2.051,-1.968 1.257,0.545 2.351,1.421 3.281,2.625 0.765,1.914 1.641,3.855 2.625,5.824 -1.915,0.71 -3.828,0.847 -5.742,0.41 -0.602,-0.383 -1.177,-0.767 -1.723,-1.148 -1.695,0.328 -3.172,1.093 -4.429,2.296 1.421,2.023 3.417,3.335 5.988,3.938 1.366,0.164 2.761,0.328 4.184,0.492 1.64,-0.274 3.335,-0.356 5.086,-0.246 2.022,-0.875 3.882,-1.997 5.578,-3.363 0.874,-1.532 1.53,-3.146 1.968,-4.84 C 8.613,21.355 7.492,20.754 5.742,21.41 3.007,20.754 0.874,19.141 -0.656,16.57 0.82,15.914 2.16,15.012 3.363,13.863 3.199,12.988 3.117,12.141 3.117,11.32 1.914,11.046 0.792,10.664 -0.246,10.172 c -0.164,0.109 -0.301,0.273 -0.41,0.492 -2.133,-1.148 -4.13,-2.407 -5.989,-3.773 -2.023,-1.203 -3.637,-2.762 -4.839,-4.676 1.804,0.71 3.718,1.23 5.742,1.558 1.969,0.218 3.964,0.52 5.988,0.903 C 1.23,6.534 2.707,7.711 4.676,8.203 5.605,7.601 6.645,7.164 7.793,6.891 9.926,5.468 12.194,4.348 14.602,3.527 16.187,2.16 17.227,0.464 17.719,-1.559 17.171,-3.474 15.859,-4.43 13.781,-4.43 m -38.144,26.332 c -0.548,-0.328 -1.067,-0.629 -1.559,-0.902 -0.984,-0.055 -1.805,0.3 -2.461,1.066 -3.336,0.766 -6.289,2.243 -8.859,4.43 -1.751,-0.219 -3.228,0.3 -4.43,1.559 -0.383,0.601 -0.738,1.202 -1.066,1.804 -0.876,1.914 -1.04,3.91 -0.492,5.989 0.709,2.022 2.05,2.898 4.019,2.625 2.734,-0.055 5.031,-1.149 6.891,-3.282 1.585,-1.587 3.281,-3.007 5.086,-4.265 0.273,0.546 0.71,1.012 1.312,1.394 0.382,-0.492 0.82,-0.957 1.313,-1.394 -0.22,-0.439 -0.439,-0.875 -0.657,-1.313 0.382,-1.039 0.766,-2.079 1.149,-3.117 0.382,-0.656 0.519,-1.312 0.41,-1.969 -0.164,-0.93 -0.383,-1.804 -0.656,-2.625"
           style="fill:#231f20;fill-opacity:1;fill-rule:nonzero;stroke:none"
           transform="matrix(1.3333333,0,0,-1.3333333,164.39587,208.64747)"
           clip-path="url(#clipPath6)"
           inkscape:label="path5" />
        <path
           id="path7"
           d="M 0,0 C 0.273,1.148 0.545,2.324 0.82,3.527 1.094,5.058 1.176,6.616 1.066,8.203 H 0.82 0.656 C 0.545,8.805 0.463,9.405 0.41,10.008 -2.051,9.789 -4.484,9.569 -6.891,9.352 -7.986,8.203 -8.643,6.862 -8.859,5.332 -9.242,3.965 -9.463,2.57 -9.516,1.148 c 0.274,-1.367 0.545,-2.707 0.821,-4.019 0.052,-0.11 0.134,-0.192 0.246,-0.246 h 0.41 c 0.217,0.601 0.519,1.202 0.902,1.804 0.274,0.493 0.574,1.012 0.903,1.559 -0.112,-0.547 0.109,-0.711 0.656,-0.492 -0.328,-1.313 -0.111,-2.407 0.656,-3.281 1.477,0.164 2.953,0.381 4.43,0.656 C -0.328,-1.941 -0.164,-0.984 0,0 m -3.773,-10.828 c -1.26,-0.931 -2.68,-1.367 -4.266,-1.313 -1.641,-1.203 -3.393,-2.187 -5.25,-2.953 -0.932,-0.656 -1.834,-1.312 -2.707,-1.969 -0.604,0.546 -1.26,0.985 -1.969,1.313 -1.588,0.546 -2.926,1.448 -4.019,2.707 -0.493,-2.571 -0.629,-5.141 -0.411,-7.711 v -2.461 c 0.438,0.985 1.094,1.887 1.969,2.707 h 0.492 c 1.858,-0.11 3.334,-0.848 4.43,-2.215 0.217,0.054 0.438,0.136 0.656,0.246 1.037,-1.312 2.133,-2.571 3.282,-3.773 -0.219,0 -0.301,-0.082 -0.247,-0.246 v -0.246 c 0.657,-1.039 1.422,-1.997 2.297,-2.871 1.75,0.492 3.498,1.011 5.25,1.558 0.217,1.914 0.217,3.827 0,5.742 -0.492,0.382 -1.013,0.464 -1.558,0.247 h -4.184 c -2.244,-0.931 -3.582,-0.219 -4.019,2.132 0.601,1.859 2.021,2.899 4.265,3.118 2.133,0.273 4.266,0.71 6.399,1.312 1.857,-0.492 3.773,-0.931 5.742,-1.312 0.164,-0.603 0.545,-1.039 1.148,-1.313 0.274,-0.219 0.575,-0.438 0.903,-0.656 0.328,2.843 0.683,5.714 1.066,8.613 -3.172,0.328 -6.264,0.109 -9.269,-0.656 m 17.964,9.515 c 2.186,-0.274 4.102,-1.148 5.743,-2.625 1.257,-0.82 2.214,-1.941 2.871,-3.363 -0.821,-0.766 -1.26,-1.722 -1.313,-2.871 -2.789,-0.274 -5.525,-0.055 -8.203,0.656 0,-2.023 -0.383,-3.937 -1.148,-5.742 -1.039,-0.602 -1.614,-1.505 -1.723,-2.707 -0.656,-3.445 -0.82,-6.89 -0.492,-10.336 -0.328,-1.64 -0.383,-3.254 -0.164,-4.84 0.217,-3.773 0.791,-7.464 1.722,-11.074 -0.546,-1.805 -1.588,-3.144 -3.117,-4.019 -0.984,0.82 -1.941,1.64 -2.871,2.461 -0.875,2.023 -1.178,4.156 -0.902,6.398 v 9.352 c -0.164,3.006 -0.164,6.015 0,9.023 -1.313,-0.875 -1.969,-2.105 -1.969,-3.691 0,-1.696 -0.521,-3.336 -1.559,-4.922 -0.164,-1.313 -0.738,-2.408 -1.722,-3.282 -0.821,-1.148 -1.86,-1.833 -3.117,-2.05 -0.219,-0.328 -0.383,-0.629 -0.493,-0.903 -2.132,-0.218 -3.746,-1.23 -4.839,-3.035 h -1.559 c -1.859,1.038 -3.557,2.297 -5.086,3.774 -1.641,2.296 -3.336,4.565 -5.086,6.808 -0.82,1.477 -1.26,3.035 -1.312,4.676 -0.44,-0.875 -0.739,-1.751 -0.903,-2.625 -0.164,-1.039 -0.629,-1.859 -1.394,-2.461 -1.86,-0.164 -3.475,0.356 -4.84,1.559 -2.352,-2.9 -5.168,-5.279 -8.449,-7.137 -0.875,-0.82 -1.752,-1.613 -2.625,-2.379 -0.547,-2.187 -1.67,-3.827 -3.364,-4.922 -1.968,0.219 -3.582,1.039 -4.84,2.461 -1.968,1.422 -3.445,3.253 -4.43,5.496 0.054,0.985 0.136,1.969 0.246,2.953 -0.328,1.477 -0.629,3.007 -0.902,4.594 -1.696,7.929 -2.598,15.968 -2.707,24.117 0,1.641 0.136,3.391 0.41,5.25 0.273,1.859 1.34,3.063 3.199,3.61 1.366,-0.328 2.462,-1.067 3.282,-2.215 1.365,-3.117 1.668,-6.289 0.902,-9.516 0.602,-4.922 0.903,-9.816 0.903,-14.683 0.053,-2.68 0.574,-5.223 1.558,-7.629 1.366,0.053 2.625,0.492 3.774,1.312 1.094,0.766 2.267,1.422 3.527,1.969 0.93,0.328 1.887,0.71 2.871,1.148 -1.531,0.438 -2.925,1.094 -4.183,1.969 -1.096,4.758 -1.696,9.625 -1.805,14.602 -0.328,4.811 -0.629,9.679 -0.902,14.601 0.216,0.218 0.299,0.52 0.246,0.903 -1.367,3.554 -1.588,7.246 -0.656,11.074 0.492,2.133 1.667,3.007 3.527,2.625 0.437,1.258 1.189,1.735 2.256,1.435 1.066,-0.3 2.092,-0.397 3.076,-0.287 1.586,-1.476 2.98,-3.117 4.183,-4.922 1.75,-3.063 2.79,-6.316 3.118,-9.761 -0.547,-1.86 -1.285,-3.61 -2.215,-5.25 -2.024,-4.869 -3.418,-9.899 -4.184,-15.094 -0.547,-2.571 -0.492,-5.086 0.164,-7.547 -0.383,-0.767 -0.875,-1.641 -1.476,-2.625 -0.604,-0.984 -0.164,-1.341 1.312,-1.066 h 0.164 c 0.657,1.148 1.641,1.996 2.953,2.543 -0.111,1.476 0.028,2.953 0.411,4.429 v 0.739 c 0.052,1.804 0.492,3.554 1.312,5.25 0.164,3.17 1.559,5.385 4.184,6.644 1.365,-0.274 2.349,-1.066 2.953,-2.379 0.381,-1.367 1.258,-2.187 2.625,-2.461 1.914,0.438 3.826,1.038 5.742,1.805 -1.641,2.57 -2.297,5.359 -1.969,8.367 0.053,2.078 0.656,4.02 1.805,5.824 -1.695,0.11 -3.035,-0.492 -4.02,-1.804 -1.804,0.601 -3.064,1.776 -3.773,3.527 -0.82,0.766 -1.424,1.668 -1.805,2.707 -0.111,1.094 0.41,1.75 1.559,1.969 3.006,-1.313 6.123,-1.696 9.351,-1.149 1.805,0.274 3.637,0.575 5.497,0.903 -2.409,1.148 -3.938,3.006 -4.594,5.578 -1.367,2.406 -2.051,5.057 -2.051,7.957 1.037,2.133 2.816,2.871 5.332,2.215 2.406,-0.055 4.539,-0.931 6.398,-2.625 1.422,-0.931 2.243,-2.215 2.461,-3.856 0.217,-1.64 0.821,-3.09 1.805,-4.347 -0.328,-1.751 -0.492,-3.474 -0.492,-5.168 2.297,0.217 4.594,0.463 6.891,0.738 2.46,0.218 4.375,-0.685 5.742,-2.707 C 13.48,11.594 11.783,11.156 9.926,11.32 8.121,11.374 6.508,10.992 5.086,10.172 7.164,9.461 8.256,8.066 8.367,5.988 7.271,5.168 6.615,4.129 6.398,2.871 6.07,1.559 5.77,0.246 5.496,-1.066 5.385,-1.505 5.25,-1.969 5.086,-2.461 c 3.117,-0.055 6.152,0.328 9.105,1.148"
           style="fill:#231f20;fill-opacity:1;fill-rule:nonzero;stroke:none"
           transform="matrix(1.3333333,0,0,-1.3333333,278.14187,270.73213)"
           clip-path="url(#clipPath8)"
           inkscape:label="path7" />
      </g>
      <g
         id="g2">
        <path
           id="path9"
           d="M 0,0 H -3.438 L 0,29.375 11.172,9.102 22.383,29.375 25.781,0 H 22.383 L 20.313,18.906 11.172,2.578 2.07,18.906 Z"
           style="fill:#231f20;fill-opacity:1;fill-rule:nonzero;stroke:none"
           transform="matrix(1.3333333,0,0,-1.3333333,69.917333,386.46)"
           clip-path="url(#clipPath10)"
           inkscape:label="path9" />
        <path
           id="path11"
           d="m 90,87 h 3.398 V 58.406 H 90 Z"
           style="fill:#231f20;fill-opacity:1;fill-rule:nonzero;stroke:none"
           transform="matrix(1.3333333,0,0,-1.3333333,0,464.62667)"
           clip-path="url(#clipPath12)"
           inkscape:label="path11" />
        <path
           id="path13"
           d="m 0,0 -9.336,-16.289 v -12.344 h -3.398 v 12.305 L -22.031,0 h 3.789 L -11.055,-13.242 -3.789,0 Z"
           style="fill:#231f20;fill-opacity:1;fill-rule:nonzero;stroke:none"
           transform="matrix(1.3333333,0,0,-1.3333333,168.04227,348.62667)"
           clip-path="url(#clipPath14)"
           inkscape:label="path13" />
        <path
           id="path15"
           d="M 0,0 -4.531,-10.352 H 4.57 Z M 0,7.539 13.008,-22.188 H 9.336 l -3.711,8.594 H -5.547 l -3.711,-8.594 h -3.672 z"
           style="fill:#231f20;fill-opacity:1;fill-rule:nonzero;stroke:none"
           transform="matrix(1.3333333,0,0,-1.3333333,190.5736,357.34547)"
           clip-path="url(#clipPath16)"
           inkscape:label="path15" />
        <path
           id="path17"
           d="M 0,0 H 18.984 L 4.375,-25.43 h 14.297 v -3.203 H -1.211 l 14.57,25.352 -13.359,0 z"
           style="fill:#231f20;fill-opacity:1;fill-rule:nonzero;stroke:none"
           transform="matrix(1.3333333,0,0,-1.3333333,220.28253,348.62667)"
           clip-path="url(#clipPath18)"
           inkscape:label="path17" />
        <path
           id="path19"
           d="M 0,0 -4.531,-10.352 H 4.57 Z M 0,7.539 13.008,-22.188 H 9.336 l -3.711,8.594 H -5.547 l -3.711,-8.594 h -3.672 z"
           style="fill:#231f20;fill-opacity:1;fill-rule:nonzero;stroke:none"
           transform="matrix(1.3333333,0,0,-1.3333333,274.57427,357.34547)"
           clip-path="url(#clipPath20)"
           inkscape:label="path19" />
        <path
           id="path21"
           d="M 0,0 V 28.594 H 3.359 V 16.016 l 11.368,12.578 h 4.062 L 7.148,15.703 20,0 H 15.625 L 3.359,15.234 V 0 Z"
           style="fill:#231f20;fill-opacity:1;fill-rule:nonzero;stroke:none"
           transform="matrix(1.3333333,0,0,-1.3333333,304.00133,386.7516)"
           clip-path="url(#clipPath22)"
           inkscape:label="path21" />
        <path
           id="path23"
           d="m 258.001,87 h 3.398 V 58.406 h -3.398 z"
           style="fill:#231f20;fill-opacity:1;fill-rule:nonzero;stroke:none"
           transform="matrix(1.3333333,0,0,-1.3333333,0,464.62667)"
           clip-path="url(#clipPath24)"
           inkscape:label="path23" />
      </g>
    </g>
  </g>
</svg>
