<?xml version="1.0" encoding="UTF-8" standalone="no"?>
<!-- Created with Inkscape (http://www.inkscape.org/) -->

<svg
   version="1.1"
   id="svg1"
   width="415.74799"
   height="464.62799"
   viewBox="0 0 415.74799 464.62799"
   sodipodi:docname="06099293.svg"
   inkscape:version="1.4 (86a8ad7, 2024-10-11)"
   xmlns:inkscape="http://www.inkscape.org/namespaces/inkscape"
   xmlns:sodipodi="http://sodipodi.sourceforge.net/DTD/sodipodi-0.dtd"
   xmlns="http://www.w3.org/2000/svg"
   xmlns:svg="http://www.w3.org/2000/svg">
  <defs
     id="defs1">
    <clipPath
       clipPathUnits="userSpaceOnUse"
       id="clipPath4">
      <path
         d="M 0,348.471 H 311.811 V 0 H 0 Z"
         transform="translate(-167.3379,-169.1191)"
         id="path4" />
    </clipPath>
    <clipPath
       clipPathUnits="userSpaceOnUse"
       id="clipPath6">
      <path
         d="M 0,348.471 H 311.811 V 0 H 0 Z"
         transform="translate(-116.5938,-81.750002)"
         id="path6" />
    </clipPath>
    <clipPath
       clipPathUnits="userSpaceOnUse"
       id="clipPath8">
      <path
         d="M 0,348.471 H 311.811 V 0 H 0 Z"
         transform="translate(-144,-92.5684)"
         id="path8" />
    </clipPath>
    <clipPath
       clipPathUnits="userSpaceOnUse"
       id="clipPath10">
      <path
         d="M 0,348.471 H 311.811 V 0 H 0 Z"
         transform="translate(-184.7109,-107.76561)"
         id="path10" />
    </clipPath>
    <clipPath
       clipPathUnits="userSpaceOnUse"
       id="clipPath12">
      <path
         d="M 0,348.471 H 311.811 V 0 H 0 Z"
         transform="translate(-206.00001,-92.5684)"
         id="path12" />
    </clipPath>
    <clipPath
       clipPathUnits="userSpaceOnUse"
       id="clipPath14">
      <path
         d="M 0,348.471 H 311.811 V 0 H 0 Z"
         transform="translate(-268.9531,-127.3057)"
         id="path14" />
    </clipPath>
    <clipPath
       clipPathUnits="userSpaceOnUse"
       id="clipPath16">
      <path
         d="M 0,348.471 H 311.811 V 0 H 0 Z"
         transform="translate(-215.77341,-330.16021)"
         id="path16" />
    </clipPath>
  </defs>
  <sodipodi:namedview
     id="namedview1"
     pagecolor="#ffffff"
     bordercolor="#000000"
     borderopacity="0.25"
     inkscape:showpageshadow="2"
     inkscape:pageopacity="0.0"
     inkscape:pagecheckerboard="0"
     inkscape:deskcolor="#d1d1d1"
     inkscape:zoom="1.9047496"
     inkscape:cx="207.63884"
     inkscape:cy="231.789"
     inkscape:window-width="1920"
     inkscape:window-height="1009"
     inkscape:window-x="-8"
     inkscape:window-y="-8"
     inkscape:window-maximized="1"
     inkscape:current-layer="g1">
    <inkscape:page
       x="0"
       y="0"
       inkscape:label="1"
       id="page1"
       width="415.74799"
       height="464.62799"
       margin="0"
       bleed="0" />
  </sodipodi:namedview>
  <g
     id="g1"
     inkscape:groupmode="layer"
     inkscape:label="1">
    <g
       id="group-MC0">
      <path
         id="path2"
         d="M 0,0 H 311.81 V 311.81 H 0 Z"
         style="fill:#ffffff;fill-opacity:1;fill-rule:nonzero;stroke:none"
         transform="matrix(1.3333333,0,0,-1.3333333,0,464.628)" />
      <g
         id="g3">
        <path
           id="path3"
           d="m 0,0 c 5.824,-3.282 11.854,-5.374 18.088,-6.275 l 0.123,-0.985 c -0.574,-1.067 -1.6,-2.421 -3.076,-4.06 -1.559,-1.969 -3.035,-3.775 -4.43,-5.414 -0.82,-1.642 -1.846,-2.461 -3.076,-2.461 -0.412,0 -0.904,0.532 -1.477,1.599 -0.738,0.902 -1.476,2.173 -2.214,3.815 C 1.969,-9.763 0.123,-5.497 -1.6,-0.984 -1.6,-0.329 -1.066,0 0,0 m -19.564,35.561 c 0.901,0 1.722,0.163 2.46,0.492 2.296,0 4.84,0.286 7.629,0.861 -2.051,1.723 -4.06,3.076 -6.029,4.061 h -1.6 c -0.738,-1.723 -1.559,-3.529 -2.46,-5.414 m 13.043,-6.399 c -4.513,-0.411 -8.533,-0.944 -12.059,-1.599 -1.723,-0.33 -3.568,-0.658 -5.537,-0.985 -2.298,-3.61 -4.635,-6.89 -7.014,-9.844 5.168,1.723 9.884,3.692 14.151,5.907 5.085,2.624 8.57,4.798 10.459,6.521 M -32.73,14.889 c -2.627,-3.036 -5.374,-5.702 -8.245,-7.998 h 0.493 c 2.132,0 4.347,0.163 6.644,0.492 5.824,0.409 10.54,0.942 14.15,1.599 -0.246,2.542 -0.615,4.511 -1.107,5.907 -5.58,-0.329 -9.025,-0.493 -10.336,-0.493 -0.575,0 -1.107,0.164 -1.599,0.493 m 19.564,0.861 c 2.132,-0.329 3.199,-1.107 3.199,-2.338 -0.246,-1.067 -0.412,-2.257 -0.492,-3.568 2.871,0.327 6.07,0.655 9.598,0.984 6.398,0.985 9.966,1.477 10.705,1.477 0.902,-0.329 1.394,-1.969 1.476,-4.922 0.246,-1.969 0.573,-3.775 0.985,-5.414 0,-0.657 -0.123,-1.15 -0.369,-1.477 C 10.951,0.819 9.678,1.147 8.121,1.477 5.002,1.147 1.764,0.984 -1.6,0.984 -4.635,0.655 -7.465,0.492 -10.09,0.492 c 0.492,-8.45 0.738,-17.145 0.738,-26.086 0,-0.984 -0.451,-1.476 -1.353,-1.476 -0.575,0 -2.215,0.821 -4.922,2.461 -2.461,1.395 -4.964,2.544 -7.506,3.445 -3.857,1.313 -6.604,2.665 -8.244,4.06 -0.492,0.247 -0.738,0.697 -0.738,1.354 2.87,-0.329 5.947,-0.492 9.228,-0.492 2.379,0 3.649,2.296 3.815,6.89 0,3.609 -0.043,6.726 -0.123,9.352 -2.953,-0.329 -6.03,-0.657 -9.229,-0.984 -0.165,-1.642 -0.821,-4.43 -1.969,-8.368 -1.396,-3.937 -2.626,-6.686 -3.691,-8.244 -0.738,-2.05 -1.6,-3.076 -2.584,-3.076 -0.738,0 -2.38,1.314 -4.922,3.938 -2.872,2.378 -4.512,3.731 -4.922,4.06 v 0.492 c 0.492,0.328 1.927,1.108 4.307,2.338 1.557,0.656 3.199,1.681 4.922,3.076 2.049,1.558 3.895,3.035 5.537,4.43 0.41,0.655 0.779,1.108 1.107,1.354 -1.23,-0.246 -2.503,-0.37 -3.814,-0.37 -4.841,-0.657 -7.548,-0.984 -8.121,-0.984 -0.575,0 -0.944,0.615 -1.108,1.846 -0.492,2.05 -0.861,3.568 -1.107,4.553 -6.152,-4.676 -12.551,-7.179 -19.195,-7.506 -0.904,0 -1.354,0.369 -1.354,1.107 12.305,6.891 21.943,15.913 28.916,27.07 -2.789,-0.657 -5.66,-1.353 -8.613,-2.091 -7.795,-1.888 -12.101,-2.83 -12.92,-2.83 -0.575,0 -1.027,0.778 -1.354,2.337 -0.657,2.624 -1.149,4.593 -1.476,5.907 -0.575,1.065 -0.861,2.049 -0.861,2.953 h 8.121 c 3.116,0.327 6.602,0.819 10.459,1.476 4.347,0.328 8.324,0.656 11.935,0.985 0.819,1.722 1.6,3.362 2.338,4.922 -1.805,-0.329 -3.691,-0.822 -5.66,-1.477 -4.676,-1.23 -7.302,-1.846 -7.875,-1.846 -0.492,0 -0.904,0.779 -1.231,2.338 -0.574,2.378 -1.026,4.019 -1.353,4.922 -0.575,1.312 -0.861,2.338 -0.861,3.076 h 5.168 c 2.049,0.327 4.224,0.656 6.521,0.985 3.034,0.246 5.824,0.532 8.367,0.861 0.081,0 0.123,0.163 0.123,0.492 0.573,1.723 1.065,3.362 1.477,4.922 -4.512,-0.575 -9.352,-1.353 -14.52,-2.338 -5.66,-1.722 -8.819,-2.584 -9.474,-2.584 -0.658,0 -1.108,0.862 -1.354,2.584 -0.575,2.215 -1.027,4.019 -1.353,5.414 -0.575,0.985 -0.862,1.927 -0.862,2.83 h 6.03 c 2.461,0.327 5.085,0.656 7.875,0.985 5.986,0.738 10.991,1.434 15.011,2.091 0.246,2.625 0.41,5.538 0.493,8.737 0,2.624 -0.329,4.962 -0.985,7.013 0.164,0.656 0.492,0.985 0.985,0.985 1.886,-0.985 3.814,-1.846 5.783,-2.584 1.64,-0.329 3.445,-0.657 5.414,-0.984 1.886,0 2.83,-0.493 2.83,-1.477 0,-1.231 -0.615,-4.349 -1.846,-9.352 3.117,0.328 6.563,0.862 10.336,1.6 7.629,1.558 11.813,2.501 12.551,2.83 0.902,-0.575 1.433,-2.503 1.599,-5.783 0.327,-2.052 0.696,-3.857 1.108,-5.414 0,-0.657 -0.082,-1.15 -0.246,-1.477 -1.231,0 -2.627,0.163 -4.184,0.492 -3.611,0 -7.383,-0.165 -11.32,-0.492 -4.512,-0.329 -8.572,-0.698 -12.182,-1.107 -0.411,-1.888 -0.944,-3.857 -1.599,-5.906 3.445,0.738 7.423,1.434 11.935,2.091 6.399,1.231 9.924,1.846 10.582,1.846 0.819,-0.329 1.272,-1.806 1.354,-4.43 0.246,-1.559 0.533,-3.036 0.861,-4.429 0,-0.658 -0.082,-0.985 -0.246,-0.985 -0.984,0 -2.092,0.163 -3.322,0.493 -3.119,-0.33 -6.319,-0.658 -9.598,-0.985 -1.723,0 -3.365,-0.165 -4.922,-0.492 1.803,-1.231 3.569,-2.544 5.291,-3.938 3.117,0.328 6.44,0.862 9.967,1.6 10.17,1.886 15.75,2.993 16.734,3.322 1.065,-0.657 1.641,-2.461 1.723,-5.414 0.246,-1.887 0.572,-3.691 0.984,-5.414 0,-0.657 -0.123,-1.107 -0.369,-1.353 -1.066,0 -2.381,0.123 -3.937,0.369 -4.596,0 -9.352,-0.123 -14.274,-0.369 1.557,-0.985 3.077,-2.011 4.553,-3.076 C 23.133,21.41 32.977,16.488 42.82,12.797 42.82,11.813 42.492,11.32 41.836,11.32 37.732,10.336 33.18,9.392 28.178,8.49 25.717,7.752 23.297,7.054 20.918,6.398 19.521,6.069 18.291,5.906 17.227,5.906 c -1.067,0 -2.913,2.296 -5.538,6.891 -2.873,4.018 -6.972,9.474 -12.304,16.365 -0.246,0 -0.535,0.163 -0.862,0.492 h -1.722 c 0.08,-0.738 0.203,-1.599 0.369,-2.584 0.246,-0.657 0.572,-1.764 0.984,-3.322 1.311,-2.626 1.969,-4.267 1.969,-4.922 0,-1.067 -0.369,-1.599 -1.107,-1.599 -2.954,-0.33 -7.014,-0.822 -12.182,-1.477"
           style="fill:#231f20;fill-opacity:1;fill-rule:nonzero;stroke:none"
           transform="matrix(1.3333333,0,0,-1.3333333,223.1172,239.13587)"
           clip-path="url(#clipPath4)"
           inkscape:label="path3" />
      </g>
      <g
         id="g2">
        <path
           id="path5"
           d="m 0,0 c 0,-0.313 -0.222,-0.469 -0.664,-0.469 -0.078,0 -0.326,0.026 -0.742,0.078 -0.391,0.052 -0.703,0.078 -0.938,0.078 -0.26,0 -0.612,-0.013 -1.054,-0.039 -0.391,-0.052 -0.639,-0.078 -0.743,-0.078 -0.521,0 -0.781,0.169 -0.781,0.508 l 0.156,1.524 c 0.182,1.25 0.299,2.551 0.352,3.906 0.156,2.005 0.234,4.18 0.234,6.523 -1.901,0.208 -4.01,0.313 -6.328,0.313 -2.734,0 -4.857,-0.144 -6.367,-0.43 0,-3.178 0.104,-6.042 0.312,-8.594 0.235,-2.526 0.352,-3.593 0.352,-3.203 0,-0.39 -0.143,-0.586 -0.43,-0.586 -0.26,0 -0.612,0.026 -1.054,0.078 -0.444,0.052 -0.795,0.078 -1.055,0.078 -0.209,0 -0.482,-0.026 -0.82,-0.078 -0.391,-0.052 -0.652,-0.078 -0.782,-0.078 -0.495,0 -0.742,0.117 -0.742,0.352 0,0.025 0.091,0.52 0.274,1.484 0.13,1.041 0.259,2.305 0.39,3.789 0.104,2.213 0.157,4.869 0.157,7.969 0,2.525 -0.04,4.856 -0.118,6.992 -0.026,1.458 -0.104,2.786 -0.234,3.985 -0.078,1.093 -0.117,1.614 -0.117,1.562 0,0.364 0.247,0.547 0.742,0.547 0.078,0 0.312,-0.026 0.703,-0.078 0.364,-0.027 0.677,-0.039 0.938,-0.039 0.181,0 0.481,0.012 0.898,0.039 0.364,0.052 0.611,0.078 0.742,0.078 0.416,0 0.625,-0.209 0.625,-0.625 0,0.364 -0.131,-0.639 -0.39,-3.008 -0.261,-2.344 -0.391,-4.896 -0.391,-7.656 1.641,-0.287 3.711,-0.43 6.211,-0.43 2.5,0 4.648,0.143 6.445,0.43 0,2.213 -0.117,4.622 -0.351,7.226 -0.261,2.63 -0.391,3.802 -0.391,3.516 0,0.391 0.26,0.586 0.781,0.586 0.078,0 0.352,-0.026 0.821,-0.078 0.52,-0.053 0.872,-0.078 1.054,-0.078 0.26,0 0.56,0.012 0.899,0.039 0.364,0.052 0.586,0.078 0.664,0.078 0.39,0 0.586,-0.183 0.586,-0.547 0,0.052 -0.053,-0.391 -0.157,-1.328 -0.13,-1.12 -0.234,-2.436 -0.312,-3.945 -0.131,-2.11 -0.195,-4.519 -0.195,-7.227 0,-2.604 0.064,-5.053 0.195,-7.344 C -0.521,4.283 -0.391,2.877 -0.234,1.602 -0.078,0.481 0,-0.053 0,0"
           style="fill:#231f20;fill-opacity:1;fill-rule:nonzero;stroke:none"
           transform="matrix(1.3333333,0,0,-1.3333333,155.4584,355.628)"
           clip-path="url(#clipPath6)"
           inkscape:label="path5" />
        <path
           id="path7"
           d="M 0,0 C -0.261,1.197 -0.781,2.799 -1.563,4.805 -2.292,6.81 -2.969,8.294 -3.594,9.258 -5.026,7.278 -6.745,4.322 -8.75,0.391 c 1.354,-0.287 3.008,-0.43 4.961,-0.43 1.744,0 3.008,0.013 3.789,0.039 m 9.57,-10.977 c 0,-0.209 -0.091,-0.312 -0.273,-0.312 0.103,0 -0.105,0.052 -0.625,0.156 -0.522,0.104 -1.081,0.156 -1.68,0.156 -0.521,0 -1.029,-0.039 -1.523,-0.117 L 4.648,-11.25 c -0.443,0 -0.716,0.195 -0.82,0.586 -1.042,3.775 -1.901,6.484 -2.578,8.125 -1.953,0.208 -3.711,0.312 -5.273,0.312 -1.485,0 -2.709,-0.065 -3.672,-0.195 -0.964,-0.104 -1.342,-0.156 -1.133,-0.156 -0.261,0 -0.508,0.533 -0.742,1.601 -1.016,-1.953 -2.241,-5.143 -3.672,-9.57 -0.105,-0.391 -0.365,-0.586 -0.781,-0.586 -0.027,0 -0.222,0.026 -0.586,0.078 -0.391,0.052 -0.691,0.078 -0.899,0.078 -0.312,0 -0.651,-0.039 -1.015,-0.117 l -0.547,-0.117 c -0.287,0 -0.43,0.13 -0.43,0.391 0,0.181 0.091,0.403 0.273,0.664 1.224,1.588 2.669,4.023 4.336,7.304 1.016,1.875 2.33,4.388 3.946,7.54 2.422,4.712 3.75,8.072 3.984,10.078 0.052,0.468 0.313,0.689 0.781,0.664 0.729,-0.027 1.263,-0.027 1.602,0 0.442,0.025 0.689,-0.209 0.742,-0.703 0.104,-1.667 1.354,-4.988 3.75,-9.961 0.781,-1.797 2.031,-4.532 3.75,-8.204 1.432,-3.073 2.643,-5.365 3.633,-6.875 0.182,-0.26 0.273,-0.482 0.273,-0.664"
           style="fill:#231f20;fill-opacity:1;fill-rule:nonzero;stroke:none"
           transform="matrix(1.3333333,0,0,-1.3333333,192,341.20347)"
           clip-path="url(#clipPath8)"
           inkscape:label="path7" />
        <path
           id="path9"
           d="m 0,0 c 0,-0.104 -0.104,-0.547 -0.313,-1.328 -0.26,-0.756 -0.39,-1.342 -0.39,-1.758 -0.026,-0.443 -0.3,-0.664 -0.82,-0.664 0.181,0 -0.743,0.13 -2.774,0.391 -2.031,0.286 -4.297,0.429 -6.797,0.429 -0.131,-2.057 -0.195,-6.328 -0.195,-12.812 0,-2.527 0.117,-5.014 0.351,-7.461 0.26,-2.475 0.391,-3.568 0.391,-3.281 0,-0.261 -0.195,-0.391 -0.586,-0.391 -0.156,0 -0.443,0.025 -0.859,0.078 -0.391,0.052 -0.717,0.078 -0.977,0.078 -0.287,0 -0.69,-0.026 -1.211,-0.078 -0.521,-0.053 -0.873,-0.078 -1.054,-0.078 -0.339,0 -0.508,0.182 -0.508,0.547 0,0.025 0.078,0.39 0.234,1.094 0.104,0.806 0.195,1.836 0.274,3.086 0.13,1.718 0.195,3.84 0.195,6.367 0,0.13 0.013,1.562 0.039,4.297 0,1.796 -0.014,3.267 -0.039,4.414 -0.026,1.536 -0.131,2.942 -0.313,4.218 -2.474,0 -4.687,-0.195 -6.64,-0.586 -1.98,-0.39 -2.852,-0.585 -2.617,-0.585 -0.235,0 -0.405,0.259 -0.508,0.781 -0.027,0.208 -0.222,0.794 -0.586,1.758 -0.339,0.963 -0.508,1.458 -0.508,1.484 0,0.156 0.169,0.234 0.508,0.234 -0.026,0 0.586,-0.039 1.836,-0.117 1.38,-0.104 2.786,-0.195 4.219,-0.273 2.187,-0.105 4.414,-0.157 6.679,-0.157 3.021,0 5.573,0.052 7.656,0.157 1.407,0.052 2.604,0.13 3.594,0.234 l 1.25,0.156 C -0.156,0.234 0,0.156 0,0"
           style="fill:#231f20;fill-opacity:1;fill-rule:nonzero;stroke:none"
           transform="matrix(1.3333333,0,0,-1.3333333,246.2812,320.94053)"
           clip-path="url(#clipPath10)"
           inkscape:label="path9" />
        <path
           id="path11"
           d="M 0,0 C -0.261,1.197 -0.781,2.799 -1.563,4.805 -2.292,6.81 -2.969,8.294 -3.594,9.258 -5.026,7.278 -6.745,4.322 -8.75,0.391 c 1.354,-0.287 3.008,-0.43 4.961,-0.43 1.744,0 3.008,0.013 3.789,0.039 m 9.57,-10.977 c 0,-0.209 -0.091,-0.312 -0.273,-0.312 0.103,0 -0.105,0.052 -0.625,0.156 -0.522,0.104 -1.081,0.156 -1.68,0.156 -0.521,0 -1.029,-0.039 -1.523,-0.117 L 4.648,-11.25 c -0.443,0 -0.716,0.195 -0.82,0.586 -1.042,3.775 -1.901,6.484 -2.578,8.125 -1.953,0.208 -3.711,0.312 -5.273,0.312 -1.485,0 -2.709,-0.065 -3.672,-0.195 -0.964,-0.104 -1.342,-0.156 -1.133,-0.156 -0.261,0 -0.508,0.533 -0.742,1.601 -1.016,-1.953 -2.241,-5.143 -3.672,-9.57 -0.105,-0.391 -0.365,-0.586 -0.781,-0.586 -0.027,0 -0.222,0.026 -0.586,0.078 -0.391,0.052 -0.691,0.078 -0.899,0.078 -0.312,0 -0.651,-0.039 -1.015,-0.117 l -0.547,-0.117 c -0.287,0 -0.43,0.13 -0.43,0.391 0,0.181 0.091,0.403 0.273,0.664 1.224,1.588 2.669,4.023 4.336,7.304 1.016,1.875 2.33,4.388 3.946,7.54 2.422,4.712 3.75,8.072 3.984,10.078 0.052,0.468 0.313,0.689 0.781,0.664 0.729,-0.027 1.263,-0.027 1.602,0 0.442,0.025 0.689,-0.209 0.742,-0.703 0.104,-1.667 1.354,-4.988 3.75,-9.961 0.781,-1.797 2.031,-4.532 3.75,-8.204 1.432,-3.073 2.643,-5.365 3.633,-6.875 0.182,-0.26 0.273,-0.482 0.273,-0.664"
           style="fill:#231f20;fill-opacity:1;fill-rule:nonzero;stroke:none"
           transform="matrix(1.3333333,0,0,-1.3333333,274.66667,341.20347)"
           clip-path="url(#clipPath12)"
           inkscape:label="path11" />
      </g>
      <path
         id="path13"
         d="m 0,0 c -6.345,1.6 -6.959,-3.57 -10.568,-1.277 -1.444,-0.777 -2.67,0.906 -3.09,2.794 0.879,1.833 2.363,0.889 3.201,0.55 2.383,0.705 5.309,1.283 7.728,1.426 C -0.475,4.339 1.746,1.972 3.895,1.697 6.346,-0.388 6.346,-1.589 0,0 m 17.844,-0.205 c -2.702,0 -5.937,0.142 -6.727,-1.392 -1.263,0.356 -2.724,1.73 -4,2.081 1.797,3.964 8.629,1.619 11.173,0.862 3.157,-1.289 2.262,-1.551 -0.446,-1.551 M 6.652,5.836 C 1.219,5.647 -9.377,5.842 -14.815,5.77 -19.762,5.674 -20.467,4.711 -25.402,4.646 c -5.544,-0.055 -11.19,-0.93 -16.332,-0.373 -8.471,0.923 -5.623,0.299 -14.245,-0.29 -2.305,0 -4.041,-0.242 -8.483,-0.242 14.212,-0.79 18.912,-1.692 33.297,-1.658 3.866,-0.35 7.755,1.14 11.561,0 6.389,-0.335 -1.931,-3.629 -2.743,-2.572 -74.141,-1.34 -150.152,0.907 -224.177,-3.99 1.259,4.612 -1.823,9.7 -2.429,14.173 C -169.791,8.344 -84.939,7.272 -5.717,8.13 0.9,7.31 6.961,7.434 14.531,7.763 19.053,7.255 22.124,5.928 25.111,5.025 17.547,5.393 12.383,6.034 6.652,5.836"
         style="fill:#231f20;fill-opacity:1;fill-rule:nonzero;stroke:none"
         transform="matrix(1.3333333,0,0,-1.3333333,358.60413,294.88707)"
         clip-path="url(#clipPath14)" />
      <path
         id="path15"
         d="m 0,0 v 0.813 c -1.256,0.039 -2.344,0.692 -3.258,1.953 l -5.227,7.181 3.871,5.132 c 0.913,1.248 2.06,1.866 3.431,1.875 h 0.517 v 0.817 h -6.933 v -0.817 h 0.787 c 0.806,-0.009 1.224,-0.357 1.285,-1.062 -0.01,-0.282 -0.183,-0.726 -0.519,-1.304 l -2.909,-3.976 -3.036,4.763 c -0.309,0.422 -0.456,0.752 -0.444,0.987 -0.012,0.383 0.405,0.583 1.231,0.592 h 0.84 v 0.817 h -8.365 v -0.817 c 1.505,-0.009 2.553,-0.457 3.159,-1.357 l 4.789,-7.281 -4.345,-5.354 c -1.11,-1.396 -2.494,-2.11 -4.171,-2.149 V 0 h 7.306 v 0.813 h -0.617 c -1.197,-0.008 -1.788,0.383 -1.78,1.161 -0.008,0.357 0.213,0.827 0.645,1.41 l 3.43,4.219 3.429,-4.446 C -6.61,2.775 -6.429,2.331 -6.315,1.827 -6.39,1.148 -6.92,0.805 -7.895,0.813 H -8.39 L -8.39,0 H 0 M -23.017,9.429 H -40.145 V 7.824 h 17.128 z m -24.039,-5.01 c -0.008,1.887 -0.76,3.257 -2.269,4.119 -0.801,0.469 -1.91,0.804 -3.332,0.987 1.517,0.222 2.726,0.604 3.627,1.161 0.952,0.814 1.423,1.914 1.436,3.306 -0.013,1.422 -0.671,2.531 -1.975,3.336 -1.161,0.652 -2.483,0.974 -3.976,0.983 -1.456,-0.009 -2.714,-0.405 -3.774,-1.183 -0.962,-0.727 -1.445,-1.618 -1.432,-2.64 -0.013,-0.557 0.121,-1.001 0.396,-1.357 0.309,-0.357 0.713,-0.531 1.23,-0.518 0.458,-0.013 0.806,0.109 1.062,0.37 0.334,0.356 0.508,0.713 0.517,1.087 -0.009,0.331 -0.108,0.678 -0.316,1.035 -0.261,0.37 -0.384,0.692 -0.37,0.961 -0.014,0.335 0.157,0.631 0.491,0.888 0.37,0.308 0.953,0.456 1.753,0.469 2.171,-0.013 3.245,-1.331 3.258,-3.997 -0.013,-1.122 -0.322,-2 -0.941,-2.618 -0.825,-0.613 -1.787,-0.922 -2.86,-0.909 h -1.385 V 8.933 h 1.385 c 1.248,-0.013 2.243,-0.33 3.009,-0.987 0.805,-0.774 1.201,-1.948 1.209,-3.527 -0.008,-1.27 -0.343,-2.297 -1.009,-3.062 -0.531,-0.605 -1.445,-0.927 -2.741,-0.987 -1.012,0.06 -1.766,0.321 -2.27,0.791 -0.209,0.183 -0.309,0.457 -0.296,0.787 -0.013,0.287 0.087,0.618 0.296,0.988 0.175,0.409 0.258,0.743 0.27,1.013 -0.035,0.431 -0.196,0.826 -0.469,1.161 -0.257,0.257 -0.64,0.383 -1.157,0.396 -0.557,-0.013 -0.987,-0.226 -1.309,-0.644 -0.335,-0.408 -0.505,-0.874 -0.492,-1.431 -0.013,-1.209 0.678,-2.196 2.049,-2.961 1.157,-0.666 2.391,-0.975 3.701,-0.988 1.948,0.013 3.513,0.383 4.71,1.183 1.309,0.892 1.966,2.136 1.974,3.754 M -64.31,0 v 0.813 c -1.357,0.039 -2.27,0.631 -2.739,1.779 L -73.712,18.311 -76.3,17.08 -81.437,3.827 C -81.758,2.975 -82.176,2.235 -82.693,1.579 -83.324,1.061 -83.93,0.805 -84.521,0.813 h -0.543 V 0 h 6.616 v 0.813 h -0.618 c -0.719,-0.008 -1.248,0.148 -1.58,0.47 -0.187,0.174 -0.282,0.509 -0.273,0.987 -0.009,0.235 0.025,0.47 0.1,0.692 0.073,0.369 0.457,1.492 1.161,3.379 h 7.972 l 1.505,-3.675 c 0.121,-0.335 0.182,-0.57 0.196,-0.692 -0.014,-0.282 -0.108,-0.543 -0.295,-0.791 -0.309,-0.257 -0.727,-0.378 -1.283,-0.37 h -0.915 V 0 Z m -23.381,16.954 v 0.817 h -6.589 v -0.817 h 0.886 c 0.915,-0.009 1.396,-0.331 1.457,-0.962 0.014,-0.269 -0.147,-0.665 -0.469,-1.183 l -4.072,-6.245 -4.096,6.515 c -0.334,0.531 -0.505,0.926 -0.491,1.187 -0.014,0.457 0.443,0.679 1.357,0.688 h 0.712 v 0.817 h -8.093 v -0.817 c 0.705,-0.009 1.248,-0.096 1.652,-0.27 0.422,-0.335 0.853,-0.779 1.31,-1.309 l 5.206,-8.268 V 2.47 c -0.014,-1.113 -0.591,-1.665 -1.774,-1.657 h -0.792 V 0 h 8.168 v 0.813 h -0.862 c -1.209,-0.008 -1.814,0.583 -1.8,1.779 v 5.28 l 4.763,7.207 c 0.478,0.731 1.048,1.27 1.678,1.605 0.331,0.174 0.949,0.261 1.849,0.27 M -110.586,0 v 0.813 c -1.27,0.039 -2.296,0.596 -3.062,1.657 l -6.589,8.982 3.927,3.627 c 0.701,0.657 1.392,1.1 2.071,1.357 0.813,0.335 1.666,0.509 2.566,0.518 v 0.817 h -7.503 v -0.817 h 0.617 c 0.927,-0.009 1.418,-0.309 1.457,-0.888 -0.039,-0.269 -0.309,-0.691 -0.792,-1.257 l -7.08,-6.515 v 6.985 c -0.012,1.109 0.483,1.666 1.478,1.675 h 1.015 v 0.817 h -7.995 v -0.817 h 0.983 c 1.039,-0.009 1.545,-0.566 1.557,-1.675 V 2.592 c -0.012,-1.196 -0.557,-1.787 -1.652,-1.779 h -0.888 V 0 h 8.069 v 0.813 h -0.989 c -1.061,-0.008 -1.59,0.583 -1.578,1.779 v 4.541 l 2.666,2.444 4.836,-6.515 c 0.431,-0.618 0.654,-1.114 0.666,-1.483 -0.073,-0.518 -0.556,-0.774 -1.43,-0.766 h -0.814 V 0 Z m 38.605,7.133 h -7.381 l 3.58,9.059 z"
         style="fill:#231f20;fill-opacity:1;fill-rule:nonzero;stroke:none"
         transform="matrix(1.3333333,0,0,-1.3333333,287.69787,24.4144)"
         clip-path="url(#clipPath16)" />
    </g>
  </g>
</svg>
