<?xml version="1.0" encoding="UTF-8" standalone="no"?>
<!-- Created with Inkscape (http://www.inkscape.org/) -->

<svg
   version="1.1"
   id="svg1"
   width="415.74933"
   height="475.17068"
   viewBox="0 0 415.74933 475.17068"
   sodipodi:docname="06098876.svg"
   inkscape:version="1.4 (86a8ad7, 2024-10-11)"
   xmlns:inkscape="http://www.inkscape.org/namespaces/inkscape"
   xmlns:sodipodi="http://sodipodi.sourceforge.net/DTD/sodipodi-0.dtd"
   xmlns="http://www.w3.org/2000/svg"
   xmlns:svg="http://www.w3.org/2000/svg">
  <defs
     id="defs1">
    <clipPath
       clipPathUnits="userSpaceOnUse"
       id="clipPath4">
      <path
         d="M 0,356.378 H 311.812 V 0 H 0 Z"
         transform="translate(-215.00881,-338.06791)"
         id="path4" />
    </clipPath>
    <clipPath
       clipPathUnits="userSpaceOnUse"
       id="clipPath6">
      <path
         d="M 0,356.378 H 311.812 V 0 H 0 Z"
         transform="translate(-92.457505,-212.00001)"
         id="path6" />
    </clipPath>
    <clipPath
       clipPathUnits="userSpaceOnUse"
       id="clipPath8">
      <path
         d="M 0,356.378 H 311.812 V 0 H 0 Z"
         transform="translate(-217.9072,-202.7148)"
         id="path8" />
    </clipPath>
    <clipPath
       clipPathUnits="userSpaceOnUse"
       id="clipPath10">
      <path
         d="M 0,356.378 H 311.812 V 0 H 0 Z"
         transform="translate(-52.500502,-91.906305)"
         id="path10" />
    </clipPath>
    <clipPath
       clipPathUnits="userSpaceOnUse"
       id="clipPath12">
      <path
         d="M 0,356.378 H 311.812 V 0 H 0 Z"
         transform="translate(-92.430205,-113.9609)"
         id="path12" />
    </clipPath>
    <clipPath
       clipPathUnits="userSpaceOnUse"
       id="clipPath14">
      <path
         d="M 0,356.378 H 311.812 V 0 H 0 Z"
         transform="translate(-110.5005,-120.5)"
         id="path14" />
    </clipPath>
    <clipPath
       clipPathUnits="userSpaceOnUse"
       id="clipPath16">
      <path
         d="M 0,356.378 H 311.812 V 0 H 0 Z"
         transform="translate(-147.4302,-113.9609)"
         id="path16" />
    </clipPath>
    <clipPath
       clipPathUnits="userSpaceOnUse"
       id="clipPath18">
      <path
         d="M 0,356.378 H 311.812 V 0 H 0 Z"
         transform="translate(-172.6572,-100.5234)"
         id="path18" />
    </clipPath>
    <clipPath
       clipPathUnits="userSpaceOnUse"
       id="clipPath20">
      <path
         d="M 0,356.378 H 311.812 V 0 H 0 Z"
         transform="translate(-206.50101,-91.906305)"
         id="path20" />
    </clipPath>
    <clipPath
       clipPathUnits="userSpaceOnUse"
       id="clipPath22">
      <path
         d="M 0,356.378 H 311.812 V 0 H 0 Z"
         transform="translate(-246.43071,-113.9609)"
         id="path22" />
    </clipPath>
    <clipPath
       clipPathUnits="userSpaceOnUse"
       id="clipPath24">
      <path
         d="M 0,356.378 H 311.812 V 0 H 0 Z"
         id="path24" />
    </clipPath>
  </defs>
  <sodipodi:namedview
     id="namedview1"
     pagecolor="#ffffff"
     bordercolor="#000000"
     borderopacity="0.25"
     inkscape:showpageshadow="2"
     inkscape:pageopacity="0.0"
     inkscape:pagecheckerboard="0"
     inkscape:deskcolor="#d1d1d1"
     inkscape:zoom="1.8624886"
     inkscape:cx="208.05496"
     inkscape:cy="237.58535"
     inkscape:window-width="1920"
     inkscape:window-height="1009"
     inkscape:window-x="-8"
     inkscape:window-y="-8"
     inkscape:window-maximized="1"
     inkscape:current-layer="g1">
    <inkscape:page
       x="0"
       y="0"
       inkscape:label="1"
       id="page1"
       width="415.74933"
       height="475.17068"
       margin="0"
       bleed="0" />
  </sodipodi:namedview>
  <g
     id="g1"
     inkscape:groupmode="layer"
     inkscape:label="1">
    <g
       id="group-MC0">
      <path
         id="path2"
         d="M 0,0 H 311.811 V 311.811 H 0 Z"
         style="fill:#ffffff;fill-opacity:1;fill-rule:nonzero;stroke:none"
         transform="matrix(1.3333333,0,0,-1.3333333,0,475.17067)" />
      <path
         id="path3"
         d="m 0,0 v 0.812 c -1.41,0.039 -2.481,0.593 -3.234,1.656 l -4.519,6.291 c 1.829,0.039 3.223,0.472 4.22,1.284 0.817,0.718 1.271,1.777 1.385,3.187 -0.114,1.552 -0.728,2.702 -1.878,3.429 -1.197,0.726 -2.602,1.098 -4.245,1.111 h -9.945 v -0.813 h 0.865 c 1.133,-0.013 1.691,-0.705 1.704,-2.075 V 2.667 C -15.66,1.418 -16.253,0.804 -17.451,0.812 h -0.765 V 0 h 7.899 v 0.812 h -0.817 c -1.11,-0.008 -1.664,0.606 -1.651,1.855 v 6.045 h 1.725 L -5.31,0 H 0 M -22.25,9.429 H -39.38 V 7.825 h 17.13 z M -46.289,4.418 c -0.013,1.89 -0.766,3.256 -2.27,4.121 -0.8,0.471 -1.911,0.804 -3.33,0.986 1.518,0.224 2.724,0.605 3.628,1.163 0.947,0.812 1.418,1.911 1.431,3.307 -0.013,1.418 -0.666,2.53 -1.976,3.329 -1.159,0.653 -2.482,0.978 -3.973,0.986 -1.456,-0.008 -2.715,-0.406 -3.775,-1.18 -0.964,-0.731 -1.444,-1.617 -1.431,-2.642 -0.013,-0.558 0.121,-0.999 0.393,-1.358 0.307,-0.358 0.718,-0.531 1.233,-0.518 0.458,-0.013 0.804,0.112 1.063,0.371 0.333,0.355 0.506,0.714 0.52,1.086 -0.014,0.333 -0.113,0.679 -0.321,1.033 -0.258,0.372 -0.384,0.692 -0.372,0.964 -0.012,0.333 0.16,0.632 0.493,0.891 0.372,0.307 0.951,0.454 1.751,0.467 2.175,-0.013 3.247,-1.332 3.26,-4 -0.013,-1.119 -0.32,-1.997 -0.937,-2.615 -0.827,-0.614 -1.791,-0.926 -2.863,-0.913 h -1.383 V 8.932 h 1.383 c 1.245,-0.008 2.244,-0.333 3.009,-0.986 0.805,-0.778 1.198,-1.95 1.211,-3.528 -0.013,-1.271 -0.346,-2.296 -1.012,-3.061 -0.532,-0.605 -1.444,-0.925 -2.741,-0.986 -1.012,0.061 -1.765,0.32 -2.27,0.787 -0.208,0.186 -0.307,0.459 -0.293,0.791 -0.014,0.286 0.085,0.619 0.293,0.986 0.173,0.411 0.259,0.744 0.272,1.012 -0.039,0.432 -0.198,0.83 -0.471,1.163 -0.259,0.26 -0.639,0.381 -1.159,0.394 -0.553,-0.013 -0.984,-0.221 -1.304,-0.64 -0.334,-0.411 -0.507,-0.878 -0.499,-1.431 -0.008,-1.211 0.679,-2.197 2.05,-2.962 1.163,-0.67 2.395,-0.977 3.701,-0.99 1.951,0.013 3.519,0.384 4.717,1.184 1.306,0.891 1.959,2.136 1.972,3.753 M -63.541,0 v 0.812 c -1.358,0.039 -2.274,0.632 -2.741,1.777 l -6.663,15.721 -2.594,-1.232 -5.132,-13.252 c -0.32,-0.852 -0.74,-1.591 -1.258,-2.248 -0.627,-0.515 -1.233,-0.774 -1.825,-0.766 h -0.545 V 0 h 6.615 v 0.812 h -0.618 c -0.713,-0.008 -1.245,0.152 -1.578,0.472 -0.186,0.173 -0.285,0.506 -0.272,0.985 -0.013,0.234 0.026,0.472 0.099,0.692 0.074,0.372 0.458,1.492 1.159,3.381 h 7.973 l 1.504,-3.675 c 0.126,-0.333 0.186,-0.571 0.199,-0.692 C -69.231,1.69 -69.33,1.431 -69.516,1.184 -69.823,0.925 -70.243,0.804 -70.8,0.812 h -0.913 V 0 Z m -23.382,16.957 v 0.813 h -6.594 v -0.813 h 0.891 c 0.912,-0.013 1.392,-0.337 1.457,-0.964 0.013,-0.273 -0.151,-0.666 -0.471,-1.185 l -4.073,-6.243 -4.095,6.515 c -0.333,0.528 -0.506,0.926 -0.493,1.185 -0.013,0.454 0.441,0.679 1.358,0.692 h 0.713 v 0.813 h -8.094 v -0.813 c 0.705,-0.013 1.246,-0.099 1.652,-0.272 0.419,-0.333 0.852,-0.779 1.31,-1.311 l 5.206,-8.266 v -4.64 c -0.013,-1.111 -0.593,-1.664 -1.777,-1.656 h -0.787 V 0 h 8.167 v 0.812 h -0.864 c -1.207,-0.008 -1.812,0.584 -1.799,1.777 v 5.284 l 4.76,7.207 c 0.485,0.727 1.051,1.272 1.678,1.605 0.333,0.173 0.951,0.259 1.855,0.272 M -109.821,0 v 0.812 c -1.272,0.039 -2.296,0.593 -3.062,1.656 l -6.589,8.985 3.926,3.627 c 0.705,0.653 1.392,1.099 2.071,1.358 0.817,0.333 1.669,0.506 2.568,0.519 v 0.813 h -7.501 v -0.813 h 0.614 c 0.929,-0.013 1.422,-0.311 1.457,-0.891 -0.035,-0.272 -0.307,-0.692 -0.787,-1.258 l -7.087,-6.516 v 6.983 c -0.008,1.111 0.485,1.669 1.483,1.682 h 1.012 v 0.813 h -7.994 v -0.813 h 0.985 c 1.038,-0.013 1.544,-0.571 1.553,-1.682 V 2.589 c -0.009,-1.193 -0.554,-1.785 -1.652,-1.777 h -0.886 V 0 h 8.068 v 0.812 h -0.986 c -1.064,-0.008 -1.591,0.584 -1.583,1.777 v 4.545 l 2.668,2.442 4.838,-6.515 c 0.433,-0.619 0.653,-1.112 0.666,-1.483 -0.073,-0.515 -0.558,-0.774 -1.431,-0.766 h -0.817 V 0 Z M -5.31,12.932 C -5.418,11.833 -5.776,10.956 -6.395,10.29 -7.061,9.762 -8.047,9.49 -9.356,9.503 h -3.429 v 5.577 c -0.013,1.246 0.541,1.864 1.651,1.877 h 1.678 c 1.224,-0.013 2.248,-0.337 3.061,-0.964 0.619,-0.532 0.977,-1.557 1.085,-3.061 M -71.22,7.134 h -7.376 l 3.576,9.058 z"
         style="fill:#231f20;fill-opacity:1;fill-rule:nonzero;stroke:none"
         transform="matrix(1.3333333,0,0,-1.3333333,286.6784,24.413467)"
         clip-path="url(#clipPath4)" />
      <g
         id="g3">
        <path
           id="path5"
           d="M 0,0 C 2.187,0 3.281,-0.849 3.281,-2.543 3.007,-3.966 2.871,-5.771 2.871,-7.957 v -7.383 c 6.124,0.164 11.593,0.246 16.406,0.246 h 4.594 l -0.328,12.223 c 0,1.914 0.874,2.871 2.625,2.871 2.242,0 3.363,-0.957 3.363,-2.871 l -0.902,-12.305 c 2.789,-0.11 5.496,-0.219 8.121,-0.328 4.43,-0.11 7.272,-0.164 8.531,-0.164 2.679,0 5.195,0.218 7.547,0.656 0.765,0.164 1.395,0.246 1.887,0.246 0.71,0 1.066,-0.52 1.066,-1.558 0,-1.587 -0.547,-3.392 -1.64,-5.414 -0.985,-1.696 -1.887,-2.543 -2.707,-2.543 -1.313,0 -2.9,0.41 -4.758,1.23 -3.009,1.149 -6.263,2.051 -9.762,2.707 -5.852,0.93 -11.73,1.395 -17.637,1.395 -5.578,0 -10.992,-0.41 -16.242,-1.231 v -0.984 c 0,-3.008 -0.137,-5.797 -0.41,-8.367 h 0.984 c 9.844,0 17.937,-0.193 24.282,-0.574 1.038,0 1.995,0.191 2.871,0.574 1.968,0 2.953,-0.985 2.953,-2.953 -1.04,-3.556 -1.559,-8.258 -1.559,-14.11 0,-2.351 0.109,-4.868 0.328,-7.547 0,-3.007 -0.793,-4.511 -2.379,-4.511 -1.367,0 -2.161,0.874 -2.378,2.625 -0.384,1.914 -0.575,4.183 -0.575,6.808 0,0.821 0.246,5.414 0.739,13.781 0,0.766 -0.384,1.203 -1.149,1.313 -2.407,0.273 -6.098,0.41 -11.074,0.41 -3.773,0 -8.34,-0.219 -13.699,-0.656 -0.328,-1.641 -0.685,-3.172 -1.067,-4.594 -1.751,-4.922 -4.294,-9.324 -7.629,-13.207 -2.132,-2.133 -3.855,-3.199 -5.168,-3.199 -1.312,0 -2.871,0.738 -4.675,2.215 -1.259,1.038 -1.887,2.022 -1.887,2.953 0,0.93 0.574,1.476 1.723,1.64 2.241,0.329 4.21,1.094 5.906,2.297 3.007,1.859 5.359,5.332 7.055,10.418 1.366,4.484 2.05,10.09 2.05,16.817 0,3.991 -0.192,9.487 -0.574,16.488 C -2.297,-0.849 -1.532,0 0,0"
           style="fill:#231f20;fill-opacity:1;fill-rule:nonzero;stroke:none"
           transform="matrix(1.3333333,0,0,-1.3333333,123.27667,192.504)"
           clip-path="url(#clipPath6)"
           inkscape:label="path5" />
        <path
           id="path7"
           d="m 0,0 c 1.693,-0.055 2.596,-0.793 2.707,-2.215 0,-0.438 -0.164,-0.902 -0.492,-1.394 -1.096,-1.641 -1.916,-2.954 -2.461,-3.938 -0.492,-0.82 -0.932,-1.23 -1.313,-1.23 -0.931,0 -1.505,0.41 -1.722,1.23 0.052,0.438 0.519,2.515 1.394,6.234 C -1.613,-0.438 -0.984,0 0,0 m -17.719,0 c 1.313,-0.219 2.104,-0.849 2.379,-1.887 0.217,-3.008 0.328,-4.894 0.328,-5.66 -0.054,-0.82 -0.521,-1.23 -1.394,-1.23 -0.492,0 -0.985,0.437 -1.477,1.312 -0.547,1.258 -1.096,2.488 -1.64,3.692 -0.329,0.656 -0.493,1.284 -0.493,1.886 0,1.202 0.766,1.832 2.297,1.887 m -8.121,-11.156 c 0.545,0 1.067,-0.111 1.559,-0.328 5.031,0.656 9.543,0.984 13.535,0.984 2.461,0 6.287,-0.192 11.484,-0.574 0.873,-0.055 1.641,-0.082 2.297,-0.082 0.709,0 1.832,0.135 3.363,0.41 1.366,0.437 2.215,0.656 2.543,0.656 0.657,0 0.985,-0.246 0.985,-0.738 0,-1.313 -0.656,-2.762 -1.969,-4.348 -1.203,-1.695 -2.434,-2.543 -3.691,-2.543 -0.604,0 -1.67,0.356 -3.2,1.067 -2.461,0.984 -5.332,1.586 -8.613,1.804 l -0.246,-19.277 c 2.022,0 4.211,-0.082 6.563,-0.246 1.037,0 1.558,0.41 1.558,1.23 C 0.109,-31.446 0,-29.039 0,-25.922 c 0,2.625 0.791,3.938 2.379,3.938 1.476,0 2.215,-0.875 2.215,-2.625 -0.44,-2.461 -0.656,-4.731 -0.656,-6.809 0.216,-2.133 0.328,-3.582 0.328,-4.348 0,-1.751 -0.739,-2.625 -2.215,-2.625 -2.461,0.493 -6.182,0.739 -11.156,0.739 -4.541,0 -9.024,-0.465 -13.454,-1.395 -1.531,0 -2.296,0.874 -2.296,2.625 0.38,1.422 0.574,2.789 0.574,4.102 0,1.858 -0.301,4.675 -0.903,8.449 0,1.258 0.657,1.887 1.969,1.887 1.75,0 2.707,-0.739 2.871,-2.215 v -9.27 c 0,-0.82 0.463,-1.23 1.395,-1.23 2.297,0.273 4.594,0.464 6.89,0.574 l -0.328,19.359 c -5.525,-0.054 -9.406,-0.464 -11.648,-1.23 -1.096,-0.439 -2.051,-0.656 -2.871,-0.656 -1.26,0 -1.887,0.628 -1.887,1.886 0,0.874 0.328,1.723 0.984,2.543 0.545,0.71 1.202,1.067 1.969,1.067 m -9.844,19.441 c 1.149,0 1.996,-0.219 2.543,-0.656 L 11.895,7.301 c 0.765,0 2.078,0.328 3.937,0.984 2.186,0 3.281,-0.793 3.281,-2.379 -1.095,-6.289 -1.64,-14.055 -1.64,-23.297 0,-6.398 0.298,-15.558 0.902,-27.48 0,-2.188 -0.957,-3.281 -2.871,-3.281 -0.82,0 -1.449,0.41 -1.887,1.23 -0.275,1.149 -0.41,2.57 -0.41,4.266 0,19.413 0.217,34.507 0.656,45.281 0,0.656 -0.793,0.984 -2.379,0.984 -16.132,0 -30.816,-0.082 -44.05,-0.246 V -22.23 c 0,-5.033 -0.358,-9.38 -1.067,-13.043 -0.767,-3.61 -2.051,-6.673 -3.855,-9.188 -1.588,-2.243 -2.983,-3.363 -4.184,-3.363 -1.096,0 -2.351,0.519 -3.773,1.558 -1.641,1.313 -2.461,2.297 -2.461,2.953 0,0.546 0.463,0.985 1.394,1.313 2.899,1.477 5.139,4.047 6.727,7.711 1.586,3.609 2.379,11.21 2.379,22.805 0,5.414 -0.328,11.32 -0.985,17.718 0,1.367 0.903,2.051 2.707,2.051"
           style="fill:#231f20;fill-opacity:1;fill-rule:nonzero;stroke:none"
           transform="matrix(1.3333333,0,0,-1.3333333,290.54293,204.88427)"
           clip-path="url(#clipPath8)"
           inkscape:label="path7" />
      </g>
      <g
         id="g2">
        <path
           id="path9"
           d="M 0,0 V 28.594 H 3.359 V 16.016 l 11.368,12.578 h 4.062 L 7.148,15.703 20,0 H 15.625 L 3.359,15.234 V 0 Z"
           style="fill:#231f20;fill-opacity:1;fill-rule:nonzero;stroke:none"
           transform="matrix(1.3333333,0,0,-1.3333333,70.000667,352.62893)"
           clip-path="url(#clipPath10)"
           inkscape:label="path9" />
        <path
           id="path11"
           d="M 0,0 -4.531,-10.352 H 4.57 Z M 0,7.539 13.008,-22.188 H 9.336 l -3.711,8.594 H -5.547 l -3.711,-8.594 h -3.672 z"
           style="fill:#231f20;fill-opacity:1;fill-rule:nonzero;stroke:none"
           transform="matrix(1.3333333,0,0,-1.3333333,123.24027,323.2228)"
           clip-path="url(#clipPath12)"
           inkscape:label="path11" />
        <path
           id="path13"
           d="M 0,0 H 18.711 V -3.32 H 11.133 V -28.672 H 7.539 V -3.32 L 0,-3.32 Z"
           style="fill:#231f20;fill-opacity:1;fill-rule:nonzero;stroke:none"
           transform="matrix(1.3333333,0,0,-1.3333333,147.334,314.504)"
           clip-path="url(#clipPath14)"
           inkscape:label="path13" />
        <path
           id="path15"
           d="M 0,0 -4.531,-10.352 H 4.57 Z M 0,7.539 13.008,-22.188 H 9.336 l -3.711,8.594 H -5.547 l -3.711,-8.594 h -3.672 z"
           style="fill:#231f20;fill-opacity:1;fill-rule:nonzero;stroke:none"
           transform="matrix(1.3333333,0,0,-1.3333333,196.5736,323.2228)"
           clip-path="url(#clipPath16)"
           inkscape:label="path15" />
        <path
           id="path17"
           d="m 0,0 c 0.938,-1.719 2.246,-3.073 3.926,-4.063 1.679,-0.99 3.586,-1.484 5.722,-1.484 2.135,0 4.03,0.494 5.684,1.484 1.652,0.99 2.949,2.344 3.887,4.063 0.937,1.719 1.406,3.685 1.406,5.898 0,2.213 -0.469,4.18 -1.406,5.899 -0.938,1.719 -2.235,3.072 -3.887,4.062 -1.654,0.99 -3.549,1.485 -5.684,1.485 -2.136,0 -4.043,-0.495 -5.722,-1.485 C 2.246,14.869 0.938,13.516 0,11.797 -0.938,10.078 -1.406,8.111 -1.406,5.898 -1.406,3.685 -0.938,1.719 0,0 m -4.063,11.855 c 0.729,1.836 1.758,3.412 3.086,4.727 1.329,1.314 2.897,2.376 4.707,3.184 1.809,0.806 3.782,1.211 5.918,1.211 2.135,0 4.094,-0.405 5.879,-1.211 1.784,-0.808 3.34,-1.87 4.668,-3.184 1.328,-1.315 2.375,-2.891 3.145,-4.727 0.767,-1.835 1.152,-3.822 1.152,-5.957 0,-2.109 -0.385,-4.082 -1.152,-5.918 -0.77,-1.835 -1.817,-3.418 -3.145,-4.746 -1.328,-1.328 -2.884,-2.37 -4.668,-3.125 -1.785,-0.755 -3.744,-1.132 -5.879,-1.132 -2.136,0 -4.109,0.377 -5.918,1.132 -1.81,0.755 -3.378,1.797 -4.707,3.125 -1.328,1.328 -2.357,2.911 -3.086,4.746 -0.73,1.836 -1.093,3.809 -1.093,5.918 0,2.135 0.363,4.122 1.093,5.957"
           style="fill:#231f20;fill-opacity:1;fill-rule:nonzero;stroke:none"
           transform="matrix(1.3333333,0,0,-1.3333333,230.2096,341.13947)"
           clip-path="url(#clipPath18)"
           inkscape:label="path17" />
        <path
           id="path19"
           d="M 0,0 V 28.594 H 3.359 V 16.016 l 11.368,12.578 h 4.062 L 7.148,15.703 20,0 H 15.625 L 3.359,15.234 V 0 Z"
           style="fill:#231f20;fill-opacity:1;fill-rule:nonzero;stroke:none"
           transform="matrix(1.3333333,0,0,-1.3333333,275.33467,352.62893)"
           clip-path="url(#clipPath20)"
           inkscape:label="path19" />
        <path
           id="path21"
           d="M 0,0 -4.531,-10.352 H 4.57 Z M 0,7.539 13.008,-22.188 H 9.336 l -3.711,8.594 H -5.547 l -3.711,-8.594 h -3.672 z"
           style="fill:#231f20;fill-opacity:1;fill-rule:nonzero;stroke:none"
           transform="matrix(1.3333333,0,0,-1.3333333,328.57427,323.2228)"
           clip-path="url(#clipPath22)"
           inkscape:label="path21" />
      </g>
      <path
         id="path23"
         d="M 270.606,134.164 H 41 V 137 h 229.606 z"
         style="fill:#231f20;fill-opacity:1;fill-rule:nonzero;stroke:none"
         transform="matrix(1.3333333,0,0,-1.3333333,0,475.17067)"
         clip-path="url(#clipPath24)" />
    </g>
  </g>
</svg>
