<?xml version="1.0" encoding="UTF-8" standalone="no"?>
<!-- Created with Inkscape (http://www.inkscape.org/) -->

<svg
   version="1.1"
   id="svg1"
   onload="addBBoxes(evt)"
   width="415.74933"
   height="464.62668"
   viewBox="0 0 415.74933 464.62668"
   sodipodi:docname="06099095.svg"
   inkscape:version="1.4 (86a8ad7, 2024-10-11)"
   xmlns:inkscape="http://www.inkscape.org/namespaces/inkscape"
   xmlns:sodipodi="http://sodipodi.sourceforge.net/DTD/sodipodi-0.dtd"
   xmlns="http://www.w3.org/2000/svg"
   xmlns:svg="http://www.w3.org/2000/svg">
  <defs
     id="defs1">
    <clipPath
       clipPathUnits="userSpaceOnUse"
       id="clipPath4">
      <path
         d="M 0,348.47 H 311.812 V 0 H 0 Z"
         transform="translate(-215.77441,-330.15921)"
         id="path4" />
    </clipPath>
    <clipPath
       clipPathUnits="userSpaceOnUse"
       id="clipPath6">
      <path
         d="M 0,348.47 H 311.812 V 0 H 0 Z"
         transform="translate(-90.992702,-182.6445)"
         id="path6" />
    </clipPath>
    <clipPath
       clipPathUnits="userSpaceOnUse"
       id="clipPath8">
      <path
         d="M 0,348.47 H 311.812 V 0 H 0 Z"
         transform="translate(-232.75101,-203.6484)"
         id="path8" />
    </clipPath>
    <clipPath
       clipPathUnits="userSpaceOnUse"
       id="clipPath10">
      <path
         d="M 0,348.47 H 311.812 V 0 H 0 Z"
         transform="translate(-46.500501,-80.289105)"
         id="path10" />
    </clipPath>
    <clipPath
       clipPathUnits="userSpaceOnUse"
       id="clipPath12">
      <path
         d="M 0,348.47 H 311.812 V 0 H 0 Z"
         transform="translate(-79.477104,-102.3203)"
         id="path12" />
    </clipPath>
    <clipPath
       clipPathUnits="userSpaceOnUse"
       id="clipPath14">
      <path
         d="M 0,348.47 H 311.812 V 0 H 0 Z"
         transform="translate(-109.563,-91.187505)"
         id="path14" />
    </clipPath>
    <clipPath
       clipPathUnits="userSpaceOnUse"
       id="clipPath16">
      <path
         d="M 0,348.47 H 311.812 V 0 H 0 Z"
         transform="translate(-146.4771,-102.3203)"
         id="path16" />
    </clipPath>
    <clipPath
       clipPathUnits="userSpaceOnUse"
       id="clipPath18">
      <path
         d="M 0,348.47 H 311.812 V 0 H 0 Z"
         transform="translate(-187.96191,-98.140605)"
         id="path18" />
    </clipPath>
    <clipPath
       clipPathUnits="userSpaceOnUse"
       id="clipPath20">
      <path
         d="M 0,348.47 H 311.812 V 0 H 0 Z"
         transform="translate(-206.4775,-102.3203)"
         id="path20" />
    </clipPath>
    <clipPath
       clipPathUnits="userSpaceOnUse"
       id="clipPath22">
      <path
         d="M 0,348.47 H 311.812 V 0 H 0 Z"
         transform="translate(-237.50101,-80.289105)"
         id="path22" />
    </clipPath>
    <clipPath
       clipPathUnits="userSpaceOnUse"
       id="clipPath24">
      <path
         d="M 0,348.47 H 311.812 V 0 H 0 Z"
         transform="translate(-261.50101,-108.9609)"
         id="path24" />
    </clipPath>
    <clipPath
       clipPathUnits="userSpaceOnUse"
       id="clipPath26">
      <path
         d="M 0,348.47 H 311.812 V 0 H 0 Z"
         transform="translate(-268.95411,-127.30571)"
         id="path26" />
    </clipPath>
  </defs>
  <sodipodi:namedview
     id="namedview1"
     pagecolor="#ffffff"
     bordercolor="#000000"
     borderopacity="0.25"
     inkscape:showpageshadow="2"
     inkscape:pageopacity="0.0"
     inkscape:pagecheckerboard="0"
     inkscape:deskcolor="#d1d1d1"
     inkscape:zoom="1.904755"
     inkscape:cx="207.63825"
     inkscape:cy="231.26334"
     inkscape:window-width="1920"
     inkscape:window-height="1009"
     inkscape:window-x="-8"
     inkscape:window-y="-8"
     inkscape:window-maximized="1"
     inkscape:current-layer="group-MC0">
    <inkscape:page
       x="0"
       y="0"
       inkscape:label="1"
       id="page1"
       width="415.74933"
       height="464.62668"
       margin="0"
       bleed="0" />
  </sodipodi:namedview>
  <g
     id="g1"
     inkscape:groupmode="layer"
     inkscape:label="1">
    <g
       id="group-MC0">
      <path
         id="path2"
         d="M 0,0 H 311.811 V 311.811 H 0 Z"
         style="fill:#ffffff;fill-opacity:1;fill-rule:nonzero;stroke:none"
         transform="matrix(1.3333333,0,0,-1.3333333,0,464.62667)" />
      <path
         id="path3"
         d="m 0,0 v 0.813 c -1.256,0.039 -2.344,0.692 -3.258,1.953 l -5.227,7.181 3.871,5.132 c 0.913,1.248 2.06,1.866 3.431,1.875 h 0.517 v 0.817 h -6.933 v -0.817 h 0.787 c 0.806,-0.009 1.224,-0.357 1.285,-1.062 -0.01,-0.282 -0.183,-0.726 -0.519,-1.304 l -2.909,-3.976 -3.036,4.763 c -0.309,0.422 -0.456,0.752 -0.444,0.987 -0.012,0.383 0.405,0.583 1.231,0.592 h 0.84 v 0.817 h -8.365 v -0.817 c 1.505,-0.009 2.553,-0.457 3.159,-1.357 l 4.789,-7.281 -4.345,-5.354 c -1.11,-1.396 -2.494,-2.11 -4.171,-2.149 V 0 h 7.306 v 0.813 h -0.617 c -1.197,-0.008 -1.788,0.383 -1.78,1.161 -0.008,0.357 0.213,0.827 0.645,1.41 l 3.43,4.219 3.429,-4.446 C -6.61,2.775 -6.429,2.331 -6.315,1.827 -6.39,1.148 -6.92,0.805 -7.895,0.813 H -8.39 L -8.39,0 H 0 M -23.017,9.429 H -40.145 V 7.824 h 17.128 z m -24.039,-5.01 c -0.008,1.887 -0.76,3.257 -2.269,4.119 -0.801,0.469 -1.91,0.804 -3.332,0.987 1.517,0.222 2.726,0.604 3.627,1.161 0.952,0.814 1.423,1.914 1.436,3.306 -0.013,1.422 -0.671,2.531 -1.975,3.336 -1.161,0.652 -2.483,0.974 -3.976,0.983 -1.456,-0.009 -2.714,-0.405 -3.774,-1.183 -0.962,-0.727 -1.445,-1.618 -1.432,-2.64 -0.013,-0.557 0.121,-1.001 0.396,-1.357 0.309,-0.357 0.713,-0.531 1.23,-0.518 0.458,-0.013 0.806,0.109 1.062,0.37 0.334,0.356 0.508,0.713 0.517,1.087 -0.009,0.331 -0.108,0.678 -0.316,1.035 -0.261,0.37 -0.384,0.692 -0.37,0.961 -0.014,0.335 0.157,0.631 0.491,0.888 0.37,0.308 0.953,0.456 1.753,0.469 2.171,-0.013 3.245,-1.331 3.258,-3.997 -0.013,-1.122 -0.322,-2 -0.941,-2.618 -0.825,-0.613 -1.787,-0.922 -2.86,-0.909 h -1.385 V 8.933 h 1.385 c 1.248,-0.013 2.243,-0.33 3.009,-0.987 0.805,-0.774 1.201,-1.948 1.209,-3.527 -0.008,-1.27 -0.343,-2.297 -1.009,-3.062 -0.531,-0.605 -1.445,-0.927 -2.741,-0.987 -1.012,0.06 -1.766,0.321 -2.27,0.791 -0.209,0.183 -0.309,0.457 -0.296,0.787 -0.013,0.287 0.087,0.618 0.296,0.988 0.175,0.409 0.258,0.743 0.27,1.013 -0.035,0.431 -0.196,0.826 -0.469,1.161 -0.257,0.257 -0.64,0.383 -1.157,0.396 -0.557,-0.013 -0.987,-0.226 -1.309,-0.644 -0.335,-0.408 -0.505,-0.874 -0.492,-1.431 -0.013,-1.209 0.678,-2.196 2.049,-2.961 1.157,-0.666 2.391,-0.975 3.701,-0.988 1.948,0.013 3.513,0.383 4.71,1.183 1.309,0.892 1.966,2.136 1.974,3.754 M -64.31,0 v 0.813 c -1.357,0.039 -2.27,0.631 -2.739,1.779 L -73.712,18.311 -76.3,17.08 -81.437,3.827 C -81.758,2.975 -82.176,2.235 -82.693,1.579 -83.324,1.061 -83.93,0.805 -84.521,0.813 h -0.543 V 0 h 6.616 v 0.813 h -0.618 c -0.719,-0.008 -1.248,0.148 -1.58,0.47 -0.187,0.174 -0.282,0.509 -0.273,0.987 -0.009,0.235 0.025,0.47 0.1,0.692 0.073,0.369 0.457,1.492 1.161,3.379 h 7.972 l 1.505,-3.675 c 0.121,-0.335 0.182,-0.57 0.196,-0.692 -0.014,-0.282 -0.108,-0.543 -0.295,-0.791 -0.309,-0.257 -0.727,-0.378 -1.283,-0.37 h -0.915 V 0 Z m -23.381,16.954 v 0.817 h -6.589 v -0.817 h 0.886 c 0.915,-0.009 1.396,-0.331 1.457,-0.962 0.014,-0.269 -0.147,-0.665 -0.469,-1.183 l -4.072,-6.245 -4.096,6.515 c -0.334,0.531 -0.505,0.926 -0.491,1.187 -0.014,0.457 0.443,0.679 1.357,0.688 h 0.712 v 0.817 h -8.093 v -0.817 c 0.705,-0.009 1.248,-0.096 1.652,-0.27 0.422,-0.335 0.853,-0.779 1.31,-1.309 l 5.206,-8.268 V 2.47 c -0.014,-1.113 -0.591,-1.665 -1.774,-1.657 h -0.792 V 0 h 8.168 v 0.813 h -0.862 c -1.209,-0.008 -1.814,0.583 -1.8,1.779 v 5.28 l 4.763,7.207 c 0.478,0.731 1.048,1.27 1.678,1.605 0.331,0.174 0.949,0.261 1.849,0.27 M -110.586,0 v 0.813 c -1.27,0.039 -2.296,0.596 -3.062,1.657 l -6.589,8.982 3.927,3.627 c 0.701,0.657 1.392,1.1 2.071,1.357 0.813,0.335 1.666,0.509 2.566,0.518 v 0.817 h -7.503 v -0.817 h 0.617 c 0.927,-0.009 1.418,-0.309 1.457,-0.888 -0.039,-0.269 -0.309,-0.691 -0.792,-1.257 l -7.08,-6.515 v 6.985 c -0.012,1.109 0.483,1.666 1.478,1.675 h 1.015 v 0.817 h -7.995 v -0.817 h 0.983 c 1.039,-0.009 1.545,-0.566 1.557,-1.675 V 2.592 c -0.012,-1.196 -0.557,-1.787 -1.652,-1.779 h -0.888 V 0 h 8.069 v 0.813 h -0.989 c -1.061,-0.008 -1.59,0.583 -1.578,1.779 v 4.541 l 2.666,2.444 4.836,-6.515 c 0.431,-0.618 0.654,-1.114 0.666,-1.483 -0.073,-0.518 -0.556,-0.774 -1.43,-0.766 h -0.814 V 0 Z m 38.605,7.133 h -7.381 l 3.58,9.059 z"
         style="fill:#231f20;fill-opacity:1;fill-rule:nonzero;stroke:none"
         transform="matrix(1.3333333,0,0,-1.3333333,287.6992,24.4144)"
         clip-path="url(#clipPath4)" />
      <g
         id="g3">
        <path
           id="path5"
           d="m 0,0 c -0.079,0.469 0.077,0.897 0.469,1.289 -0.938,0.858 -1.212,1.796 -0.821,2.813 -0.937,0.389 -1.523,1.054 -1.757,1.992 0.703,1.796 0.117,2.733 -1.758,2.812 -2.188,0.312 -4.336,0.156 -6.446,-0.468 -0.86,-0.469 -1.719,-0.626 -2.578,-0.469 -1.719,0.311 -3.125,-0.157 -4.218,-1.406 -1.251,-0.938 -2.657,-1.251 -4.219,-0.938 -3.516,0.703 -6.485,2.461 -8.906,5.273 -0.469,-2.109 -0.352,-4.141 0.351,-6.093 0.077,-1.954 -0.117,-3.867 -0.586,-5.743 4.219,0.469 8.476,0.312 12.774,-0.468 1.483,-0.782 3.085,-1.289 4.804,-1.524 2.11,0.156 4.219,0.117 6.328,-0.117 1.25,0.155 2.539,0.155 3.868,0 0.546,-0.079 1.093,0.077 1.64,0.469 0.859,-0.469 1.367,-0.196 1.524,0.82 C 0.234,-1.212 0.077,-0.626 0,0 m -40.195,-0.234 c 0.077,0.937 -0.313,1.757 -1.172,2.461 0,0.468 0.117,0.937 0.351,1.406 -0.468,0.703 -0.82,1.523 -1.054,2.461 0.39,0.624 0.624,1.327 0.703,2.109 -0.938,1.015 -1.524,2.227 -1.758,3.633 -0.234,0.937 -0.313,1.952 -0.234,3.047 0.155,0.389 0.155,0.82 0,1.289 -0.704,0.234 -0.821,0.663 -0.352,1.289 0.546,0.469 0.938,1.055 1.172,1.758 0,0.469 -0.157,0.858 -0.469,1.172 -0.626,0.78 -0.664,1.64 -0.117,2.578 0.39,0.624 0.82,1.249 1.289,1.875 1.015,0.311 2.069,0.428 3.164,0.351 -0.078,0.312 -0.04,0.624 0.117,0.938 2.187,-0.626 4.413,-1.212 6.68,-1.758 -0.626,-0.548 -0.626,-1.055 0,-1.523 0.937,-1.095 1.835,-2.267 2.695,-3.516 3.047,2.499 6.563,4.219 10.547,5.156 1.015,0 2.031,0.038 3.047,0.117 3.516,-0.313 7.07,-0.703 10.664,-1.171 0.625,0.234 1.289,0.585 1.992,1.054 -0.86,0.312 -1.054,0.821 -0.586,1.524 0.703,1.249 1.562,2.499 2.578,3.75 0.859,0.858 1.914,1.366 3.165,1.523 1.171,0.155 2.303,0.038 3.398,-0.351 0.39,-0.548 0.82,-1.095 1.289,-1.641 0.077,-0.626 0.234,-1.212 0.469,-1.758 0.311,-0.157 0.663,-0.234 1.055,-0.234 0.077,-0.626 0.272,-1.172 0.585,-1.641 0.312,-0.469 0.742,-0.86 1.29,-1.172 0.077,-0.86 0.155,-1.72 0.234,-2.578 -0.157,-0.937 0.038,-1.72 0.586,-2.344 2.655,-1.485 5.468,-2.54 8.437,-3.164 2.265,-0.391 4.531,-0.937 6.797,-1.64 1.875,0.468 3.827,0.546 5.86,0.234 -0.313,-0.392 -0.352,-0.743 -0.118,-1.055 3.828,-0.157 7.5,-1.133 11.016,-2.929 2.031,-1.095 4.14,-2.11 6.328,-3.047 C 50.156,7.5 50.664,6.874 50.977,6.094 51.445,5.312 51.328,4.608 50.625,3.984 50.312,3.516 50.233,3.047 50.391,2.578 49.688,1.796 48.906,1.172 48.047,0.703 c -1.719,-1.095 -3.556,-1.837 -5.508,-2.226 -0.469,0.468 -0.937,0.858 -1.406,1.171 -0.938,0.235 -1.719,0.039 -2.344,-0.586 -0.157,0.546 -0.469,0.742 -0.937,0.586 1.875,0.781 4.023,0.976 6.445,0.586 1.172,1.093 2.148,2.421 2.93,3.985 0.624,0.624 0.428,1.132 -0.586,1.523 -4.922,2.813 -10.157,4.726 -15.703,5.742 -3.908,0.938 -7.813,1.445 -11.719,1.524 C 15.625,13.554 13.008,12.422 11.367,9.609 10.741,9.844 10.155,9.921 9.609,9.844 8.749,8.906 7.929,8.007 7.148,7.148 6.522,5.194 6.015,3.241 5.625,1.289 5.702,0.976 5.859,0.703 6.094,0.469 5.546,-2.267 6.718,-3.243 9.609,-2.461 h 3.047 c 0.703,0.312 1.484,0.469 2.344,0.469 0.78,0.234 1.562,0.077 2.344,-0.469 0.39,0 0.78,0.117 1.172,0.352 0.78,0.311 1.6,0.272 2.461,-0.118 2.499,-0.313 5.039,-0.157 7.617,0.469 0.624,0 1.289,0.077 1.992,0.235 0.859,1.249 2.148,1.875 3.867,1.875 1.249,-0.314 2.031,-1.055 2.344,-2.227 C 36.563,-3.438 35.702,-4.336 34.219,-4.57 24.765,-5.039 15.39,-5.899 6.094,-7.148 5.156,-8.789 4.765,-10.547 4.922,-12.422 4.843,-16.72 4.726,-20.938 4.57,-25.078 c 0.235,-0.782 0.429,-1.485 0.586,-2.11 -0.313,-1.171 -0.43,-2.343 -0.351,-3.515 -1.095,0.546 -2.071,1.249 -2.93,2.109 -0.626,0.703 -1.016,1.524 -1.172,2.461 0.235,0.938 0.625,1.875 1.172,2.813 0.234,2.812 0.429,5.663 0.586,8.554 0.156,1.562 0.156,3.164 0,4.805 0.077,1.406 -0.547,2.109 -1.875,2.109 -5.391,-0.157 -10.626,-0.899 -15.703,-2.226 -1.719,0 -3.36,-0.275 -4.922,-0.82 -2.735,-1.251 -5.469,-2.423 -8.203,-3.516 -0.938,-1.017 -1.602,-2.109 -1.992,-3.281 -1.329,0 -2.071,-0.509 -2.227,-1.524 -0.547,-0.391 -1.095,-0.586 -1.641,-0.586 -1.719,0.077 -3.008,0.938 -3.867,2.578 -1.094,1.407 -1.798,3.047 -2.109,4.922 -0.547,1.796 -0.626,3.633 -0.235,5.508 0,1.641 -0.157,3.319 -0.468,5.039 0.156,0.469 0.351,0.976 0.586,1.524"
           style="fill:#231f20;fill-opacity:1;fill-rule:nonzero;stroke:none"
           transform="matrix(1.3333333,0,0,-1.3333333,121.3236,221.10067)"
           clip-path="url(#clipPath6)"
           inkscape:label="path5" />
        <path
           id="path7"
           d="M 0,0 C -2.268,-0.469 -4.531,-0.782 -6.797,-0.938 -7.5,-0.782 -8.164,-0.548 -8.789,-0.234 -9.182,0 -9.375,0.39 -9.375,0.938 c -0.469,0.077 -0.938,0.117 -1.406,0.117 -0.703,1.014 -1.133,2.147 -1.289,3.398 -1.25,4.374 0.31,7.149 4.687,8.32 1.641,0.235 3.006,-0.351 4.102,-1.757 0.779,-0.626 1.64,-1.212 2.578,-1.758 C 0.391,8.632 0.779,7.734 0.469,6.563 0.076,6.328 -0.041,6.054 0.117,5.742 0.273,5.116 0.508,4.53 0.82,3.984 0.428,2.655 0.156,1.327 0,0 m -9.375,-33.164 c -3.908,0.858 -7.852,1.366 -11.836,1.523 -3.828,0 -7.578,-0.391 -11.25,-1.172 -1.953,-0.547 -3.75,-1.329 -5.391,-2.343 -1.64,-0.782 -2.853,-1.875 -3.632,-3.282 0.859,0.156 1.562,-0.234 2.109,-1.171 1.172,-0.548 2.461,-0.665 3.867,-0.352 3.358,-0.469 6.797,-0.703 10.313,-0.703 5.547,0.39 11.091,0.469 16.64,0.234 0.703,-0.703 1.483,-1.172 2.344,-1.406 1.797,1.249 3.75,2.344 5.859,3.281 -2.187,3.124 -5.197,4.922 -9.023,5.391 m 14.883,-6.094 c 0.234,-1.406 -0.158,-2.461 -1.172,-3.164 -2.344,-1.329 -4.766,-2.149 -7.266,-2.461 -1.875,-0.313 -3.593,-0.899 -5.156,-1.758 -1.25,0 -2.422,0.195 -3.516,0.586 -5.39,0.546 -10.781,0.507 -16.171,-0.117 -2.891,-0.469 -5.743,-1.055 -8.555,-1.758 -3.75,-2.423 -7.658,-4.376 -11.719,-5.859 -0.861,0.78 -1.799,1.406 -2.812,1.875 -1.25,0.077 -1.875,0.703 -1.875,1.875 -0.079,1.093 -0.235,2.186 -0.469,3.281 -0.547,0.546 -0.82,1.21 -0.82,1.992 0.39,1.015 0.625,2.07 0.703,3.164 -0.469,2.579 -0.862,5.195 -1.172,7.852 -0.313,0.624 -0.313,1.249 0,1.875 0.31,0.546 0.351,1.132 0.117,1.758 -0.078,0.546 0.193,0.975 0.82,1.289 -0.627,1.093 -0.744,2.304 -0.351,3.633 0.31,1.249 1.131,2.147 2.461,2.695 1.328,0.78 2.771,1.132 4.336,1.055 0.625,-1.095 1.482,-1.993 2.578,-2.696 0.468,0.938 1.328,1.328 2.578,1.172 1.172,-0.313 2.344,-0.117 3.515,0.586 0.938,-0.079 1.797,-0.43 2.579,-1.055 0.39,0.625 1.013,0.898 1.875,0.821 2.265,-0.392 4.529,-0.782 6.796,-1.172 3.672,-0.782 7.422,-1.485 11.25,-2.109 4.295,-1.017 8.514,-2.306 12.657,-3.868 3.515,-1.954 6.484,-4.532 8.906,-7.734 -0.158,-0.626 -0.195,-1.212 -0.117,-1.758 M -44.063,1.758 c 0,-0.782 -0.275,-1.446 -0.82,-1.992 -0.392,-1.329 -0.82,-2.54 -1.289,-3.633 -1.564,-0.548 -3.088,-0.782 -4.57,-0.703 -0.781,0.077 -1.524,0.234 -2.227,0.468 -0.703,-0.157 -1.367,-0.196 -1.992,-0.117 -5.08,1.406 -7.695,4.765 -7.852,10.078 -0.312,2.579 0.352,4.843 1.993,6.797 0.625,0.469 1.328,0.938 2.109,1.407 0.859,0.389 1.797,0.741 2.813,1.054 0.544,0.077 1.13,0.155 1.757,0.235 0.469,0 0.977,-0.08 1.524,-0.235 1.013,0.155 2.068,0.155 3.164,0 -0.078,-1.485 0.703,-2.54 2.344,-3.164 1.171,-1.251 2.343,-2.461 3.515,-3.633 -1.564,-1.094 -1.564,-2.149 0,-3.164 -0.392,-1.172 -0.547,-2.305 -0.469,-3.398 m 74.766,-34.571 c -0.627,-0.234 -1.172,-0.468 -1.64,-0.703 -1.016,1.249 -2.188,2.344 -3.516,3.282 -1.719,1.014 -3.516,1.796 -5.391,2.343 -5.703,2.031 -11.367,4.023 -16.992,5.977 -4.219,1.093 -8.478,1.952 -12.773,2.578 -3.594,0.703 -7.149,1.444 -10.664,2.227 -0.862,0 -1.641,-0.118 -2.344,-0.352 -1.33,0.39 -2.539,0.39 -3.633,0 -0.078,0.234 -0.078,0.546 0,0.938 -1.25,-0.626 -2.539,-0.9 -3.867,-0.821 -1.096,-0.157 -1.799,0.273 -2.11,1.289 -1.015,1.407 -2.421,2.031 -4.218,1.875 -3.909,-1.094 -7.578,-2.657 -11.016,-4.687 -1.799,-0.861 -3.557,-1.603 -5.273,-2.227 -3.125,-1.954 -6.094,-3.984 -8.907,-6.094 -1.406,-0.937 -2.89,-1.563 -4.453,-1.875 -0.158,-0.625 -0.275,-1.211 -0.351,-1.757 -0.782,-0.469 -1.524,-0.861 -2.227,-1.172 -2.502,-1.486 -4.728,-3.164 -6.68,-5.039 -1.719,-1.875 -2.853,-1.837 -3.398,0.117 0.703,1.249 1.014,2.616 0.937,4.101 0.703,0.469 1.523,0.625 2.461,0.469 1.014,0.39 2.032,0.938 3.047,1.641 0.391,0.311 0.78,0.703 1.172,1.172 h 0.469 c 0.625,0.78 1.445,1.366 2.461,1.758 3.203,1.327 5.859,3.475 7.969,6.445 3.281,2.655 6.484,5.508 9.609,8.555 0.234,0.155 0.545,0.272 0.937,0.351 0.235,0.469 0.428,0.976 0.586,1.524 0.235,0.468 0.625,0.858 1.172,1.171 1.328,1.407 2.772,2.773 4.336,4.102 0.545,0.312 1.131,0.586 1.758,0.82 0.076,0.156 0.039,0.352 -0.117,0.586 0.39,0.235 0.742,0.586 1.055,1.055 -0.159,0.311 -0.159,0.624 0,0.937 0.468,0.859 1.248,1.445 2.343,1.758 0.625,-0.234 0.977,0.038 1.055,0.821 0.234,0.389 0.545,0.82 0.937,1.289 0.545,-0.235 1.014,-0.04 1.407,0.586 1.64,1.483 3.592,2.42 5.859,2.812 0.779,0.234 1.524,0.155 2.227,-0.234 0.625,-0.938 1.365,-1.758 2.226,-2.461 0.469,-0.703 0.703,-1.486 0.703,-2.344 0.391,-0.703 0.625,-1.446 0.703,-2.227 -0.078,-2.032 0.469,-3.867 1.641,-5.507 1.875,-2.579 4.295,-4.494 7.266,-5.743 3.357,-1.094 6.797,-2.032 10.312,-2.812 7.735,-1.954 15.428,-4.142 23.086,-6.563 5.625,-0.626 9.61,-3.321 11.953,-8.086 0,-0.703 -0.041,-1.329 -0.117,-1.875"
           style="fill:#231f20;fill-opacity:1;fill-rule:nonzero;stroke:none"
           transform="matrix(1.3333333,0,0,-1.3333333,310.33467,193.09547)"
           clip-path="url(#clipPath8)"
           inkscape:label="path7" />
      </g>
      <g
         id="g2">
        <path
           id="path9"
           d="M 0,0 H -0.078 -9.961 -10 v 0.039 1.797 0.078 h 0.039 c 2.838,0.625 4.232,2.447 4.18,5.469 v 13.984 c 0.26,3.125 -1.108,4.947 -4.102,5.469 v 1.836 0.039 h 0.078 8.828 0.039 c 3.646,-5.417 7.331,-10.808 11.055,-16.172 0.364,-0.6 0.768,-1.185 1.211,-1.758 0,4.557 0.013,9.115 0.039,13.672 -0.469,1.693 -1.654,2.447 -3.554,2.266 v 0.117 1.836 0.039 h 0.039 9.609 0.078 V 28.672 26.914 C 14.778,26.055 13.463,24.141 13.594,21.172 V 0.039 0 H 13.477 11.836 11.758 V 0.039 C 7.174,6.68 2.591,13.32 -1.992,19.961 c -0.573,0.755 -1.12,1.536 -1.641,2.344 -0.131,-5.235 -0.131,-10.456 0,-15.664 C -3.789,3.932 -2.578,2.317 0,1.797 V 0.039 Z"
           style="fill:#231f20;fill-opacity:1;fill-rule:nonzero;stroke:none"
           transform="matrix(1.3333333,0,0,-1.3333333,62.000667,357.57453)"
           clip-path="url(#clipPath10)"
           inkscape:label="path9" />
        <path
           id="path11"
           d="M 0,0 C -1.198,-3.933 -2.357,-7.839 -3.477,-11.719 H 3.359 C 2.213,-7.839 1.094,-3.933 0,0 m -3.984,-13.594 c -0.313,-1.068 -0.62,-2.168 -0.918,-3.301 -0.3,-1.132 -0.085,-2.168 0.644,-3.105 0.521,-0.443 1.119,-0.639 1.797,-0.586 v -1.719 h -8.516 v 1.758 c 0.625,0.026 1.198,0.26 1.719,0.703 0.494,0.521 0.872,1.158 1.133,1.914 2.422,7.135 4.844,14.297 7.266,21.485 0.338,1.015 0.689,2.056 1.054,3.125 h 1.993 c 2.656,-7.5 5.337,-14.975 8.046,-22.422 0.365,-1.069 0.743,-2.136 1.133,-3.203 0.416,-1.042 1.172,-1.589 2.266,-1.641 v -1.719 H 3.008 v 1.758 c 1.431,-0.209 2.239,0.391 2.422,1.797 -0.391,1.719 -0.86,3.411 -1.407,5.078 v 0.039 c -2.682,0 -5.351,0.013 -8.007,0.039"
           style="fill:#231f20;fill-opacity:1;fill-rule:nonzero;stroke:none"
           transform="matrix(1.3333333,0,0,-1.3333333,105.96947,328.1996)"
           clip-path="url(#clipPath12)"
           inkscape:label="path11" />
        <path
           id="path13"
           d="M 0,0 V -4.883 C -0.026,-5.69 0.013,-6.472 0.117,-7.227 0.169,-8.061 0.56,-8.568 1.289,-8.75 2.018,-8.933 2.734,-9.011 3.438,-8.984 v -1.758 H 3.359 -9.023 -9.063 v 1.797 c 2.526,-0.105 3.685,1.236 3.477,4.023 v 16.758 c -0.026,0.781 -0.078,1.575 -0.156,2.383 -0.027,0.13 -0.053,0.273 -0.078,0.429 -0.078,0.182 -0.144,0.365 -0.196,0.547 -0.078,0.026 -0.13,0.091 -0.156,0.196 -0.078,0 -0.131,0.012 -0.156,0.039 -0.131,0.051 -0.248,0.117 -0.352,0.195 -0.781,0.104 -1.562,0.169 -2.343,0.195 h -0.04 v 0.118 1.835 0.04 h 0.04 12.382 0.079 v -0.04 -1.757 -0.078 C 1.666,16.172 0.547,15.508 0.078,13.945 0,13.216 -0.026,12.486 0,11.758 0,9.049 0.013,6.354 0.039,3.672 2.643,6.666 5.26,9.674 7.891,12.695 8.697,14.778 7.93,15.82 5.586,15.82 H 5.508 v 0.118 1.835 0.04 h 0.078 10.742 0.039 v -0.04 -1.757 -0.078 C 14.648,15.599 13.164,14.83 11.914,13.633 10.039,11.627 8.229,9.596 6.484,7.539 c 2.344,-4.245 4.74,-8.477 7.188,-12.695 0.65,-2.266 2.07,-3.516 4.258,-3.75 h 0.078 v -0.078 -1.758 H 17.93 5.586 5.508 v 1.797 c 0.833,0 1.666,0.012 2.5,0.039 0.469,0.806 0.377,1.653 -0.274,2.539 L 2.695,3.086 C 1.783,2.044 0.885,1.016 0,0"
           style="fill:#231f20;fill-opacity:1;fill-rule:nonzero;stroke:none"
           transform="matrix(1.3333333,0,0,-1.3333333,146.084,343.04333)"
           clip-path="url(#clipPath14)"
           inkscape:label="path13" />
        <path
           id="path15"
           d="M 0,0 C -1.198,-3.933 -2.357,-7.839 -3.477,-11.719 H 3.359 C 2.213,-7.839 1.094,-3.933 0,0 m -3.984,-13.594 c -0.313,-1.068 -0.62,-2.168 -0.918,-3.301 -0.3,-1.132 -0.085,-2.168 0.644,-3.105 0.521,-0.443 1.119,-0.639 1.797,-0.586 v -1.719 h -8.516 v 1.758 c 0.625,0.026 1.198,0.26 1.719,0.703 0.494,0.521 0.872,1.158 1.133,1.914 2.422,7.135 4.844,14.297 7.266,21.485 0.338,1.015 0.689,2.056 1.054,3.125 h 1.993 c 2.656,-7.5 5.337,-14.975 8.047,-22.422 0.363,-1.069 0.742,-2.136 1.133,-3.203 0.416,-1.042 1.172,-1.589 2.265,-1.641 v -1.719 H 3.008 v 1.758 c 1.431,-0.209 2.239,0.391 2.422,1.797 -0.391,1.719 -0.86,3.411 -1.407,5.078 v 0.039 c -2.682,0 -5.351,0.013 -8.007,0.039"
           style="fill:#231f20;fill-opacity:1;fill-rule:nonzero;stroke:none"
           transform="matrix(1.3333333,0,0,-1.3333333,195.3028,328.1996)"
           clip-path="url(#clipPath16)"
           inkscape:label="path15" />
        <path
           id="path17"
           d="M 0,0 C -0.027,0 -0.039,0.013 -0.039,0.039 -0.17,0.43 -0.273,0.833 -0.352,1.25 -0.508,1.692 -0.639,2.148 -0.742,2.617 -1.211,4.153 -1.863,5.625 -2.695,7.031 -3.582,8.307 -4.805,8.958 -6.367,8.984 H -6.719 C -6.875,8.932 -7.02,8.893 -7.148,8.867 -7.227,8.814 -7.279,8.775 -7.305,8.75 L -7.422,8.633 C -7.5,8.528 -7.539,8.438 -7.539,8.359 -7.617,8.177 -7.656,7.994 -7.656,7.813 -7.684,7.552 -7.695,7.291 -7.695,7.031 v -18.945 c 0,-0.781 0.05,-1.55 0.156,-2.305 v -0.039 c 0,-0.312 0.078,-0.599 0.234,-0.859 0.026,-0.078 0.065,-0.144 0.117,-0.196 0.051,-0.078 0.129,-0.143 0.235,-0.195 0.103,-0.053 0.207,-0.104 0.312,-0.156 0.129,-0.053 0.286,-0.078 0.469,-0.078 0.651,-0.156 1.315,-0.222 1.992,-0.196 0.26,0 0.534,0.013 0.821,0.04 h 0.078 v -0.079 -1.796 -0.04 h -0.078 -14.258 -0.078 v 0.04 1.796 0.079 h 0.078 1.211 c 0.597,-0.027 1.197,0.025 1.797,0.156 0.078,-0.027 0.156,-0.014 0.234,0.039 0.156,0.025 0.299,0.103 0.43,0.234 0.078,0 0.142,0.039 0.195,0.117 0.025,0.052 0.051,0.118 0.078,0.196 0.051,0.103 0.104,0.234 0.156,0.39 0.026,0.157 0.065,0.338 0.118,0.547 0.05,0.729 0.089,1.485 0.117,2.266 V 7.031 c -0.028,0.235 -0.039,0.469 -0.039,0.703 -0.028,0.157 -0.053,0.326 -0.078,0.508 -0.053,0.13 -0.106,0.26 -0.157,0.391 v 0.039 c -0.078,0.025 -0.131,0.064 -0.156,0.117 -0.105,0.025 -0.195,0.065 -0.273,0.117 -0.209,0.052 -0.418,0.078 -0.625,0.078 -1.59,0 -2.813,-0.651 -3.672,-1.953 -0.86,-1.406 -1.524,-2.878 -1.992,-4.414 -0.131,-0.469 -0.248,-0.925 -0.352,-1.367 -0.131,-0.417 -0.234,-0.82 -0.313,-1.211 v -0.078 h -0.039 c -0.468,0 -0.937,0.013 -1.406,0.039 h -0.078 v 0.039 c 0.156,3.567 0.313,7.161 0.469,10.781 v 0.039 h 0.078 22.852 0.078 V 10.82 C 1.172,7.227 1.34,3.633 1.523,0.039 V 0 H 1.445 0.039 Z"
           style="fill:#231f20;fill-opacity:1;fill-rule:nonzero;stroke:none"
           transform="matrix(1.3333333,0,0,-1.3333333,250.61587,333.77253)"
           clip-path="url(#clipPath18)"
           inkscape:label="path17" />
        <path
           id="path19"
           d="M 0,0 C -1.199,-3.933 -2.357,-7.839 -3.477,-11.719 H 3.359 C 2.213,-7.839 1.094,-3.933 0,0 m -3.984,-13.594 c -0.313,-1.068 -0.62,-2.168 -0.918,-3.301 -0.301,-1.132 -0.086,-2.168 0.644,-3.105 0.52,-0.443 1.119,-0.639 1.797,-0.586 v -1.719 h -8.516 v 1.758 c 0.625,0.026 1.198,0.26 1.719,0.703 0.494,0.521 0.871,1.158 1.133,1.914 2.422,7.135 4.844,14.297 7.266,21.485 0.338,1.015 0.689,2.056 1.054,3.125 h 1.993 c 2.656,-7.5 5.337,-14.975 8.046,-22.422 0.364,-1.069 0.743,-2.136 1.133,-3.203 0.416,-1.042 1.172,-1.589 2.266,-1.641 v -1.719 H 3.008 v 1.758 c 1.431,-0.209 2.238,0.391 2.422,1.797 -0.391,1.719 -0.86,3.411 -1.407,5.078 v 0.039 c -2.683,0 -5.351,0.013 -8.007,0.039"
           style="fill:#231f20;fill-opacity:1;fill-rule:nonzero;stroke:none"
           transform="matrix(1.3333333,0,0,-1.3333333,275.30333,328.1996)"
           clip-path="url(#clipPath20)"
           inkscape:label="path19" />
        <path
           id="path21"
           d="M 0,0 H -0.078 -9.961 -10 v 0.039 1.797 0.078 h 0.039 c 2.838,0.625 4.231,2.447 4.18,5.469 v 13.984 c 0.26,3.125 -1.108,4.947 -4.102,5.469 v 1.836 0.039 h 0.078 8.828 0.039 c 3.645,-5.417 7.331,-10.808 11.055,-16.172 0.363,-0.6 0.768,-1.185 1.211,-1.758 0,4.557 0.012,9.115 0.039,13.672 -0.469,1.693 -1.654,2.447 -3.554,2.266 v 0.117 1.836 0.039 h 0.039 9.609 0.078 V 28.672 26.914 C 14.777,26.055 13.463,24.141 13.594,21.172 V 0.039 0 H 13.477 11.836 11.758 V 0.039 C 7.174,6.68 2.59,13.32 -1.992,19.961 -2.566,20.716 -3.113,21.497 -3.633,22.305 -3.764,17.07 -3.764,11.849 -3.633,6.641 -3.789,3.932 -2.578,2.317 0,1.797 V 0.039 Z"
           style="fill:#231f20;fill-opacity:1;fill-rule:nonzero;stroke:none"
           transform="matrix(1.3333333,0,0,-1.3333333,316.668,357.57453)"
           clip-path="url(#clipPath22)"
           inkscape:label="path21" />
        <path
           id="path23"
           d="m 0,0 v 0.039 h 0.078 12.656 0.079 V 0 -1.758 -1.836 c -0.028,-0.026 -0.053,-0.039 -0.079,-0.039 -0.078,0 -0.144,-0.014 -0.195,-0.039 H 12.383 12.07 C 11.992,-1.94 11.939,-1.953 11.914,-1.953 h -0.195 -0.352 -0.273 c -0.156,-0.053 -0.313,-0.078 -0.469,-0.078 -0.156,-0.027 -0.301,-0.066 -0.43,-0.117 L 10.039,-2.227 C 9.934,-2.305 9.844,-2.37 9.766,-2.422 9.713,-2.5 9.66,-2.565 9.609,-2.617 V -2.695 C 9.531,-2.852 9.479,-3.008 9.453,-3.164 9.4,-3.373 9.361,-3.581 9.336,-3.789 9.309,-4.519 9.297,-5.248 9.297,-5.977 v -16.757 c -0.027,-0.808 0.012,-1.602 0.117,-2.383 0,-0.156 0.039,-0.3 0.117,-0.43 0.026,-0.209 0.09,-0.391 0.196,-0.547 0.025,-0.078 0.064,-0.143 0.117,-0.195 0.078,-0.053 0.156,-0.092 0.234,-0.117 0.078,-0.078 0.182,-0.131 0.313,-0.157 0.129,-0.026 0.273,-0.052 0.429,-0.078 0.625,-0.104 1.262,-0.143 1.914,-0.117 h 0.079 v -0.078 -1.758 -0.039 H 12.734 0.078 0 v 0.039 1.797 0.078 h 0.078 c 0.651,-0.052 1.315,-0.013 1.992,0.117 0.078,0.026 0.182,0.039 0.313,0.039 0.156,0.052 0.324,0.13 0.508,0.235 0.025,0.052 0.078,0.103 0.156,0.156 0.051,0.052 0.103,0.117 0.156,0.195 0.026,0.13 0.065,0.274 0.117,0.43 0.026,0.156 0.065,0.325 0.118,0.508 0.078,0.728 0.117,1.484 0.117,2.266 v 16.875 c -0.028,0.703 -0.053,1.406 -0.078,2.109 -0.028,0.156 -0.053,0.325 -0.079,0.508 -0.027,0.103 -0.066,0.22 -0.117,0.351 -0.027,0.104 -0.052,0.208 -0.078,0.313 -0.027,0 -0.039,0.013 -0.039,0.039 L 2.93,-2.344 c -0.106,0.052 -0.209,0.117 -0.313,0.196 -0.053,0 -0.078,0.012 -0.078,0.039 -0.184,0.051 -0.351,0.078 -0.508,0.078 -0.209,0.025 -0.404,0.052 -0.586,0.078 H 1.133 0.938 c -0.079,0 -0.131,0.013 -0.157,0.039 H 0.43 0.078 0 v 0.078 0.078 z"
           style="fill:#231f20;fill-opacity:1;fill-rule:nonzero;stroke:none"
           transform="matrix(1.3333333,0,0,-1.3333333,348.668,319.34547)"
           clip-path="url(#clipPath24)"
           inkscape:label="path23" />
      </g>
      <path
         id="path25"
         d="m 0,0 c -6.346,1.6 -6.959,-3.57 -10.568,-1.277 -1.444,-0.777 -2.67,0.906 -3.09,2.794 0.879,1.833 2.363,0.889 3.201,0.55 2.383,0.705 5.309,1.283 7.727,1.426 C -0.475,4.339 1.746,1.972 3.895,1.697 6.346,-0.388 6.346,-1.589 0,0 m 17.844,-0.205 c -2.703,0 -5.938,0.142 -6.727,-1.392 -1.263,0.356 -2.724,1.73 -4,2.081 1.797,3.964 8.629,1.619 11.172,0.862 3.158,-1.289 2.262,-1.551 -0.445,-1.551 M 6.652,5.836 C 1.219,5.647 -9.377,5.842 -14.816,5.77 -19.762,5.674 -20.467,4.711 -25.402,4.646 c -5.545,-0.055 -11.19,-0.93 -16.332,-0.373 -8.471,0.923 -5.623,0.299 -14.246,-0.29 -2.305,0 -4.04,-0.242 -8.483,-0.242 14.213,-0.79 18.912,-1.692 33.297,-1.658 3.867,-0.35 7.756,1.14 11.562,0 6.389,-0.335 -1.931,-3.629 -2.744,-2.572 -74.14,-1.34 -150.152,0.907 -224.177,-3.99 1.26,4.612 -1.823,9.7 -2.429,14.173 C -169.792,8.344 -84.939,7.272 -5.717,8.13 0.9,7.31 6.961,7.434 14.531,7.763 19.053,7.255 22.123,5.928 25.111,5.025 17.547,5.393 12.383,6.034 6.652,5.836"
         style="fill:#231f20;fill-opacity:1;fill-rule:nonzero;stroke:none"
         transform="matrix(1.3333333,0,0,-1.3333333,358.60547,294.88573)"
         clip-path="url(#clipPath26)" />
    </g>
  </g>
  <script
     type="application/ecmascript"
     id="script1"><![CDATA[
    function addBBoxes(evt){
      var svg = evt.target;
      var nodes = svg.querySelectorAll('g[id^="path"]');
      for (var i = 0; i < nodes.length; i++) {
        var el = nodes[i];
        var b = el.getBBox();
        var rect = document.createElementNS("http://www.w3.org/2000/svg","rect");
        rect.setAttribute("x", b.x);
        rect.setAttribute("y", b.y);
        rect.setAttribute("width", b.width);
        rect.setAttribute("height", b.height);
        rect.setAttribute("fill", "none");
        rect.setAttribute("stroke", "red");
        rect.setAttribute("stroke-width", "1");
        rect.setAttribute("pointer-events", "none");
        svg.appendChild(rect);
      }
    }
  ]]></script>
</svg>
