<?xml version="1.0" encoding="UTF-8" standalone="no"?>
<!-- Created with Inkscape (http://www.inkscape.org/) -->

<svg
   version="1.1"
   id="svg1"
   width="415.74933"
   height="464.62668"
   viewBox="0 0 415.74933 464.62668"
   sodipodi:docname="06099822.svg"
   inkscape:version="1.4 (86a8ad7, 2024-10-11)"
   xmlns:inkscape="http://www.inkscape.org/namespaces/inkscape"
   xmlns:sodipodi="http://sodipodi.sourceforge.net/DTD/sodipodi-0.dtd"
   xmlns="http://www.w3.org/2000/svg"
   xmlns:svg="http://www.w3.org/2000/svg">
  <defs
     id="defs1">
    <clipPath
       clipPathUnits="userSpaceOnUse"
       id="clipPath4">
      <path
         d="M 0,348.47 H 311.812 V 0 H 0 Z"
         transform="translate(-215.77441,-330.15921)"
         id="path4" />
    </clipPath>
    <clipPath
       clipPathUnits="userSpaceOnUse"
       id="clipPath6">
      <path
         d="M 0,348.47 H 311.812 V 0 H 0 Z"
         transform="translate(-62.061002,-206.52731)"
         id="path6" />
    </clipPath>
    <clipPath
       clipPathUnits="userSpaceOnUse"
       id="clipPath8">
      <path
         d="M 0,348.47 H 311.812 V 0 H 0 Z"
         transform="translate(-146.854,-197.6406)"
         id="path8" />
    </clipPath>
    <clipPath
       clipPathUnits="userSpaceOnUse"
       id="clipPath10">
      <path
         d="M 0,348.47 H 311.812 V 0 H 0 Z"
         transform="translate(-49.371601,-234.9531)"
         id="path10" />
    </clipPath>
    <clipPath
       clipPathUnits="userSpaceOnUse"
       id="clipPath12">
      <path
         d="M 0,348.47 H 311.812 V 0 H 0 Z"
         transform="translate(-76.914602,-230.38281)"
         id="path12" />
    </clipPath>
    <clipPath
       clipPathUnits="userSpaceOnUse"
       id="clipPath14">
      <path
         d="M 0,348.47 H 311.812 V 0 H 0 Z"
         transform="translate(-98.699702,-232.2813)"
         id="path14" />
    </clipPath>
    <clipPath
       clipPathUnits="userSpaceOnUse"
       id="clipPath16">
      <path
         d="M 0,348.47 H 311.812 V 0 H 0 Z"
         transform="translate(-132.3013,-226.5156)"
         id="path16" />
    </clipPath>
    <clipPath
       clipPathUnits="userSpaceOnUse"
       id="clipPath18">
      <path
         d="M 0,348.47 H 311.812 V 0 H 0 Z"
         transform="translate(-154.69971,-232.2813)"
         id="path18" />
    </clipPath>
    <clipPath
       clipPathUnits="userSpaceOnUse"
       id="clipPath20">
      <path
         d="M 0,348.47 H 311.812 V 0 H 0 Z"
         transform="translate(-187.999,-126.252)"
         id="path20" />
    </clipPath>
    <clipPath
       clipPathUnits="userSpaceOnUse"
       id="clipPath22">
      <path
         d="M 0,348.47 H 311.812 V 0 H 0 Z"
         transform="translate(-263.04981,-141.1035)"
         id="path22" />
    </clipPath>
    <clipPath
       clipPathUnits="userSpaceOnUse"
       id="clipPath24">
      <path
         d="M 0,348.47 H 311.812 V 0 H 0 Z"
         transform="translate(-151.3716,-74.953102)"
         id="path24" />
    </clipPath>
    <clipPath
       clipPathUnits="userSpaceOnUse"
       id="clipPath26">
      <path
         d="M 0,348.47 H 311.812 V 0 H 0 Z"
         transform="translate(-181.3564,-67.132799)"
         id="path26" />
    </clipPath>
    <clipPath
       clipPathUnits="userSpaceOnUse"
       id="clipPath28">
      <path
         d="M 0,348.47 H 311.812 V 0 H 0 Z"
         transform="translate(-207.70021,-72.281302)"
         id="path28" />
    </clipPath>
    <clipPath
       clipPathUnits="userSpaceOnUse"
       id="clipPath30">
      <path
         d="M 0,348.47 H 311.812 V 0 H 0 Z"
         transform="translate(-251.60641,-83.882805)"
         id="path30" />
    </clipPath>
    <clipPath
       clipPathUnits="userSpaceOnUse"
       id="clipPath32">
      <path
         d="M 0,348.47 H 311.812 V 0 H 0 Z"
         transform="translate(-272.70021,-72.281302)"
         id="path32" />
    </clipPath>
    <clipPath
       clipPathUnits="userSpaceOnUse"
       id="clipPath34">
      <path
         d="M 0,348.47 H 311.812 V 0 H 0 Z"
         id="path34" />
    </clipPath>
  </defs>
  <sodipodi:namedview
     id="namedview1"
     pagecolor="#ffffff"
     bordercolor="#000000"
     borderopacity="0.25"
     inkscape:showpageshadow="2"
     inkscape:pageopacity="0.0"
     inkscape:pagecheckerboard="0"
     inkscape:deskcolor="#d1d1d1"
     inkscape:zoom="1.904755"
     inkscape:cx="207.63825"
     inkscape:cy="231.26334"
     inkscape:window-width="1920"
     inkscape:window-height="1009"
     inkscape:window-x="-8"
     inkscape:window-y="-8"
     inkscape:window-maximized="1"
     inkscape:current-layer="g1">
    <inkscape:page
       x="0"
       y="0"
       inkscape:label="1"
       id="page1"
       width="415.74933"
       height="464.62668"
       margin="0"
       bleed="0" />
  </sodipodi:namedview>
  <g
     id="g1"
     inkscape:groupmode="layer"
     inkscape:label="1">
    <g
       id="group-MC0">
      <path
         id="path2"
         d="M 0,0 H 311.811 V 311.811 H 0 Z"
         style="fill:#ffffff;fill-opacity:1;fill-rule:nonzero;stroke:none"
         transform="matrix(1.3333333,0,0,-1.3333333,0,464.62667)" />
      <path
         id="path3"
         d="m 0,0 v 0.813 c -1.256,0.039 -2.344,0.692 -3.258,1.953 l -5.227,7.181 3.871,5.132 c 0.913,1.248 2.06,1.866 3.431,1.875 h 0.517 v 0.817 h -6.933 v -0.817 h 0.787 c 0.806,-0.009 1.224,-0.357 1.285,-1.062 -0.01,-0.282 -0.183,-0.726 -0.519,-1.304 l -2.909,-3.976 -3.036,4.763 c -0.309,0.422 -0.456,0.752 -0.444,0.987 -0.012,0.383 0.405,0.583 1.231,0.592 h 0.84 v 0.817 h -8.365 v -0.817 c 1.505,-0.009 2.553,-0.457 3.159,-1.357 l 4.789,-7.281 -4.345,-5.354 c -1.11,-1.396 -2.494,-2.11 -4.171,-2.149 V 0 h 7.306 v 0.813 h -0.617 c -1.197,-0.008 -1.788,0.383 -1.78,1.161 -0.008,0.357 0.213,0.827 0.645,1.41 l 3.43,4.219 3.429,-4.446 C -6.61,2.775 -6.429,2.331 -6.315,1.827 -6.39,1.148 -6.92,0.805 -7.895,0.813 H -8.39 L -8.39,0 H 0 M -23.017,9.429 H -40.145 V 7.824 h 17.128 z m -24.039,-5.01 c -0.008,1.887 -0.76,3.257 -2.269,4.119 -0.801,0.469 -1.91,0.804 -3.332,0.987 1.517,0.222 2.726,0.604 3.627,1.161 0.952,0.814 1.423,1.914 1.436,3.306 -0.013,1.422 -0.671,2.531 -1.975,3.336 -1.161,0.652 -2.483,0.974 -3.976,0.983 -1.456,-0.009 -2.714,-0.405 -3.774,-1.183 -0.962,-0.727 -1.445,-1.618 -1.432,-2.64 -0.013,-0.557 0.121,-1.001 0.396,-1.357 0.309,-0.357 0.713,-0.531 1.23,-0.518 0.458,-0.013 0.806,0.109 1.062,0.37 0.334,0.356 0.508,0.713 0.517,1.087 -0.009,0.331 -0.108,0.678 -0.316,1.035 -0.261,0.37 -0.384,0.692 -0.37,0.961 -0.014,0.335 0.157,0.631 0.491,0.888 0.37,0.308 0.953,0.456 1.753,0.469 2.171,-0.013 3.245,-1.331 3.258,-3.997 -0.013,-1.122 -0.322,-2 -0.941,-2.618 -0.825,-0.613 -1.787,-0.922 -2.86,-0.909 h -1.385 V 8.933 h 1.385 c 1.248,-0.013 2.243,-0.33 3.009,-0.987 0.805,-0.774 1.201,-1.948 1.209,-3.527 -0.008,-1.27 -0.343,-2.297 -1.009,-3.062 -0.531,-0.605 -1.445,-0.927 -2.741,-0.987 -1.012,0.06 -1.766,0.321 -2.27,0.791 -0.209,0.183 -0.309,0.457 -0.296,0.787 -0.013,0.287 0.087,0.618 0.296,0.988 0.175,0.409 0.258,0.743 0.27,1.013 -0.035,0.431 -0.196,0.826 -0.469,1.161 -0.257,0.257 -0.64,0.383 -1.157,0.396 -0.557,-0.013 -0.987,-0.226 -1.309,-0.644 -0.335,-0.408 -0.505,-0.874 -0.492,-1.431 -0.013,-1.209 0.678,-2.196 2.049,-2.961 1.157,-0.666 2.391,-0.975 3.701,-0.988 1.948,0.013 3.513,0.383 4.71,1.183 1.309,0.892 1.966,2.136 1.974,3.754 M -64.31,0 v 0.813 c -1.357,0.039 -2.27,0.631 -2.739,1.779 L -73.712,18.311 -76.3,17.08 -81.437,3.827 C -81.758,2.975 -82.176,2.235 -82.693,1.579 -83.324,1.061 -83.93,0.805 -84.521,0.813 h -0.543 V 0 h 6.616 v 0.813 h -0.618 c -0.719,-0.008 -1.248,0.148 -1.58,0.47 -0.187,0.174 -0.282,0.509 -0.273,0.987 -0.009,0.235 0.025,0.47 0.1,0.692 0.073,0.369 0.457,1.492 1.161,3.379 h 7.972 l 1.505,-3.675 c 0.121,-0.335 0.182,-0.57 0.196,-0.692 -0.014,-0.282 -0.108,-0.543 -0.295,-0.791 -0.309,-0.257 -0.727,-0.378 -1.283,-0.37 h -0.915 V 0 Z m -23.381,16.954 v 0.817 h -6.589 v -0.817 h 0.886 c 0.915,-0.009 1.396,-0.331 1.457,-0.962 0.014,-0.269 -0.147,-0.665 -0.469,-1.183 l -4.072,-6.245 -4.096,6.515 c -0.334,0.531 -0.505,0.926 -0.491,1.187 -0.014,0.457 0.443,0.679 1.357,0.688 h 0.712 v 0.817 h -8.093 v -0.817 c 0.705,-0.009 1.248,-0.096 1.652,-0.27 0.422,-0.335 0.853,-0.779 1.31,-1.309 l 5.206,-8.268 V 2.47 c -0.014,-1.113 -0.591,-1.665 -1.774,-1.657 h -0.792 V 0 h 8.168 v 0.813 h -0.862 c -1.209,-0.008 -1.814,0.583 -1.8,1.779 v 5.28 l 4.763,7.207 c 0.478,0.731 1.048,1.27 1.678,1.605 0.331,0.174 0.949,0.261 1.849,0.27 M -110.586,0 v 0.813 c -1.27,0.039 -2.296,0.596 -3.062,1.657 l -6.589,8.982 3.927,3.627 c 0.701,0.657 1.392,1.1 2.071,1.357 0.813,0.335 1.666,0.509 2.566,0.518 v 0.817 h -7.503 v -0.817 h 0.617 c 0.927,-0.009 1.418,-0.309 1.457,-0.888 -0.039,-0.269 -0.309,-0.691 -0.792,-1.257 l -7.08,-6.515 v 6.985 c -0.012,1.109 0.483,1.666 1.478,1.675 h 1.015 v 0.817 h -7.995 v -0.817 h 0.983 c 1.039,-0.009 1.545,-0.566 1.557,-1.675 V 2.592 c -0.012,-1.196 -0.557,-1.787 -1.652,-1.779 h -0.888 V 0 h 8.069 v 0.813 h -0.989 c -1.061,-0.008 -1.59,0.583 -1.578,1.779 v 4.541 l 2.666,2.444 4.836,-6.515 c 0.431,-0.618 0.654,-1.114 0.666,-1.483 -0.073,-0.518 -0.556,-0.774 -1.43,-0.766 h -0.814 V 0 Z m 38.605,7.133 h -7.381 l 3.58,9.059 z"
         style="fill:#231f20;fill-opacity:1;fill-rule:nonzero;stroke:none"
         transform="matrix(1.3333333,0,0,-1.3333333,287.6992,24.4144)"
         clip-path="url(#clipPath4)" />
      <g
         id="g5">
        <path
           id="path5"
           d="m 0,0 c 0.501,-0.183 1.048,-0.434 1.641,-0.752 1.914,-0.729 3.668,-1.391 5.263,-1.982 1.686,1.184 3.372,2.505 5.059,3.964 0,0.411 -0.205,0.616 -0.615,0.616 C 8.248,1.846 5.24,1.731 2.324,1.504 1.504,0.957 0.729,0.455 0,0 M 5.059,6.973 C 6.197,6.973 6.768,6.448 6.768,5.4 6.722,5.172 6.539,4.898 6.221,4.58 h 6.562 c 0.364,0 0.797,0.137 1.299,0.41 0.547,0.274 1.116,0.41 1.709,0.41 1.641,0 2.461,-0.752 2.461,-2.255 0,-0.137 -0.251,-0.388 -0.752,-0.752 -1.094,-0.867 -2.302,-1.914 -3.623,-3.145 -1.186,-1.186 -2.37,-2.233 -3.555,-3.144 5.514,-2.006 9.183,-3.191 11.006,-3.555 1.686,-0.274 3.668,-0.479 5.947,-0.615 0.866,0 1.299,-0.342 1.299,-1.026 0,-0.912 -0.683,-1.823 -2.051,-2.734 -1.413,-0.957 -2.894,-1.436 -4.443,-1.436 -1.049,0 -2.051,0.387 -3.008,1.162 -3.554,1.959 -7.451,3.965 -11.689,6.016 -0.912,-0.639 -1.846,-1.208 -2.803,-1.709 -2.689,-1.686 -5.629,-3.076 -8.818,-4.17 -2.28,-0.866 -4.011,-1.299 -5.196,-1.299 -0.912,0 -1.869,0.342 -2.871,1.026 -0.775,0.591 -1.162,1.162 -1.162,1.709 0,0.364 0.159,0.66 0.479,0.888 5.742,1.002 10.003,2.096 12.783,3.282 1.367,0.455 2.757,1.07 4.17,1.845 -2.37,1.002 -4.512,1.754 -6.426,2.256 -0.41,0.091 -0.752,0.205 -1.025,0.342 -2.507,-1.094 -4.194,-1.664 -5.059,-1.709 -0.957,0 -1.777,0.364 -2.461,1.094 -0.547,0.547 -0.82,1.184 -0.82,1.914 0,0.501 0.273,0.752 0.82,0.752 3.965,0.82 6.813,1.64 8.545,2.461 1.732,0.547 3.987,1.914 6.768,4.101 0.41,0.182 0.66,0.274 0.752,0.274 M -26.045,5.4 l 8.75,-4.443 c 0.729,-0.319 1.094,-0.844 1.094,-1.572 0,-0.593 -0.456,-0.889 -1.367,-0.889 l -8.75,1.914 c -1.459,0.319 -2.188,1.412 -2.188,3.281 0,1.139 0.82,1.709 2.461,1.709 m 23.516,-18.662 h 6.357 c -0.046,0.319 -0.068,0.616 -0.068,0.889 0,1.641 0.728,2.461 2.187,2.461 1.231,0 1.846,-0.82 1.846,-2.461 v -0.889 h 7.998 c 0.501,0 0.752,-0.365 0.752,-1.093 0,-0.457 -0.205,-0.867 -0.615,-1.231 -0.547,-0.639 -1.162,-0.957 -1.846,-0.957 -1.504,0.228 -3.646,0.387 -6.426,0.479 -0.046,-1.003 -0.068,-1.96 -0.068,-2.872 v -0.615 h 8.476 c 0.501,0 0.752,-0.365 0.752,-1.094 0,-0.456 -0.205,-0.888 -0.615,-1.298 -0.547,-0.593 -1.139,-0.889 -1.777,-0.889 -1.596,0.273 -3.828,0.433 -6.699,0.478 l 0.136,-3.486 h 12.578 c 0.684,0 1.048,-0.342 1.094,-1.025 0,-0.821 -0.273,-1.528 -0.82,-2.119 -0.684,-0.593 -1.504,-0.889 -2.461,-0.889 -0.639,0 -2.188,0.25 -4.648,0.752 -1.778,0.137 -3.647,0.227 -5.606,0.273 l 0.068,-1.914 c 0,-1.322 -0.182,-2.347 -0.546,-3.076 6.79,-0.683 11.802,-1.025 15.039,-1.025 1.685,0 3.098,0.068 4.238,0.205 0.728,0.045 1.23,0.068 1.504,0.068 0.364,0 0.547,-0.342 0.547,-1.025 0,-1.277 -0.547,-2.712 -1.641,-4.307 -1.094,-1.55 -2.074,-2.324 -2.939,-2.324 -1.231,0 -2.439,0.182 -3.623,0.547 -16.042,3.554 -27.071,5.833 -33.086,6.836 -5.059,0.911 -8.318,1.367 -9.776,1.367 -1.732,0 -3.691,-1.436 -5.879,-4.307 -0.547,-0.729 -1.254,-1.093 -2.119,-1.093 -1.23,0 -1.846,0.523 -1.846,1.572 0,0.592 1.504,2.415 4.512,5.469 0.547,0.683 1.231,1.162 2.051,1.435 1.185,5.377 2.711,10.003 4.58,13.877 0,0.455 -0.046,0.706 -0.137,0.752 -0.136,0.091 -0.273,0.137 -0.41,0.137 -1.914,0 -3.669,-0.115 -5.264,-0.342 -0.638,-0.137 -1.322,-0.319 -2.05,-0.547 -1.14,0 -1.709,0.569 -1.709,1.709 0,1.641 1.389,2.461 4.17,2.461 2.369,0 4.739,-0.183 7.109,-0.547 0.729,0.364 1.458,0.547 2.188,0.547 1.64,0 2.46,-0.752 2.46,-2.256 0,-0.502 -0.365,-1.071 -1.093,-1.709 -1.596,-2.097 -2.781,-4.307 -3.555,-6.631 -0.866,-2.233 -1.55,-4.694 -2.051,-7.383 2.506,-0.319 6.608,-0.82 12.305,-1.503 4.922,-0.639 9.365,-1.186 13.33,-1.641 -0.229,0.683 -0.342,1.595 -0.342,2.734 v 1.914 c -4.101,-0.046 -7.133,-0.273 -9.092,-0.683 -1.276,-0.41 -2.074,-0.615 -2.392,-0.615 -1.367,0.044 -2.119,0.66 -2.256,1.845 0.091,0.684 0.478,1.322 1.162,1.914 0.592,0.365 1.39,0.547 2.393,0.547 H 4.033 v 3.555 H 3.486 c -1.549,0 -3.646,-0.274 -6.289,-0.82 -1.276,0 -1.914,0.478 -1.914,1.435 0,0.501 0.25,1.002 0.752,1.504 0.501,0.41 1.07,0.615 1.709,0.615 h 6.289 v 0.615 c 0,0.957 -0.023,1.937 -0.068,2.94 H 3.213 c -1.55,0 -3.647,-0.274 -6.289,-0.82 -1.277,0 -1.914,0.478 -1.914,1.435 0,0.501 0.25,0.98 0.752,1.436 0.501,0.455 1.07,0.683 1.709,0.683"
           style="fill:#231f20;fill-opacity:1;fill-rule:nonzero;stroke:none"
           transform="matrix(1.3333333,0,0,-1.3333333,82.748,189.25693)"
           clip-path="url(#clipPath6)"
           inkscape:label="path5" />
        <path
           id="path7"
           d="m 0,0 c 4.192,0 7.952,-0.16 11.28,-0.479 0.592,0.182 1.138,0.274 1.64,0.274 1.231,0 1.846,-0.752 1.846,-2.256 0,-0.273 -0.183,-0.639 -0.547,-1.094 -0.365,-0.775 -1.39,-2.712 -3.076,-5.81 -1.596,-2.917 -3.328,-5.606 -5.196,-8.067 3.829,-3.053 7.042,-5.172 9.639,-6.357 2.278,-1.186 4.215,-1.823 5.811,-1.914 0.547,0 0.82,-0.274 0.82,-0.82 0,-1.323 -0.775,-2.712 -2.324,-4.17 -0.912,-0.867 -1.869,-1.299 -2.871,-1.299 -0.639,0 -1.322,0.227 -2.051,0.683 -1.004,0.729 -3.533,3.145 -7.588,7.246 -1.413,1.368 -2.69,2.621 -3.828,3.76 -0.73,-0.866 -1.459,-1.709 -2.188,-2.529 -2.734,-2.963 -5.127,-5.127 -7.178,-6.494 -1.777,-1.231 -3.099,-1.846 -3.964,-1.846 -0.821,0 -1.733,0.41 -2.735,1.231 -1.139,0.774 -1.709,1.663 -1.709,2.666 0,0.546 0.479,0.888 1.436,1.025 1.321,0.137 3.098,0.684 5.332,1.641 3.372,1.685 6.197,3.896 8.476,6.63 l 0.069,0.069 c -1.277,1.184 -2.348,2.141 -3.213,2.871 -1.367,1.002 -2.735,1.754 -4.102,2.256 -1.322,0.227 -1.982,0.843 -1.982,1.845 0.045,1.368 0.706,2.096 1.982,2.188 0.41,0 0.98,-0.273 1.709,-0.82 2.916,-1.914 5.491,-3.784 7.725,-5.606 1.959,2.735 3.941,6.061 5.947,9.981 0.501,0.728 0.753,1.207 0.753,1.435 0,0.364 -0.229,0.547 -0.684,0.547 -0.73,0.137 -1.504,0.205 -2.325,0.205 -5.424,0 -8.978,-0.16 -10.664,-0.478 -1.094,-0.183 -1.845,-0.274 -2.256,-0.274 -1.048,0 -1.572,0.433 -1.572,1.299 0,0.911 0.479,1.572 1.436,1.982 C -5.332,-0.16 -3.281,0 0,0 m -9.229,13.467 h 26.524 c 0.684,-0.046 1.047,-0.342 1.094,-0.889 0,-0.866 -0.297,-1.618 -0.889,-2.256 -0.593,-0.683 -1.414,-1.025 -2.46,-1.025 -0.594,0 -2.12,0.205 -4.581,0.615 -2.507,0.137 -5.241,0.205 -8.203,0.205 -4.831,0 -8.34,-0.182 -10.527,-0.547 C -9.184,9.297 -9.844,9.137 -10.254,9.092 -10.3,8.772 -10.322,8.431 -10.322,8.066 l 0.136,-9.228 c 0,-5.014 -0.478,-9.16 -1.435,-12.442 -1.049,-3.417 -2.644,-6.494 -4.785,-9.228 -1.367,-1.55 -2.439,-2.324 -3.213,-2.324 -1.094,0 -2.348,0.615 -3.76,1.845 -0.957,0.729 -1.435,1.504 -1.435,2.325 0,0.728 0.432,1.162 1.298,1.298 1.458,0.228 2.711,0.775 3.76,1.641 1.914,1.231 3.418,3.577 4.512,7.041 0.865,3.099 1.299,6.949 1.299,11.553 0,2.734 -0.183,6.471 -0.547,11.211 0,1.504 0.66,2.256 1.982,2.256 0.865,0 1.527,-0.229 1.983,-0.684 0.364,0.091 0.797,0.137 1.298,0.137 M -36.299,3.281 h 6.016 l -0.274,10.459 c 0,1.412 0.729,2.119 2.188,2.119 1.595,0 2.392,-0.707 2.392,-2.119 L -26.045,3.281 h 7.246 c 0.501,0 0.752,-0.251 0.752,-0.752 0,-0.775 -0.228,-1.435 -0.683,-1.982 -0.593,-0.502 -1.345,-0.752 -2.256,-0.752 -0.41,0 -1.391,0.045 -2.94,0.137 C -24.609,-0.023 -25.339,0 -26.113,0 l -0.069,-11.963 c 2.78,0.638 4.967,1.07 6.563,1.299 0.728,0 1.094,-0.365 1.094,-1.094 0,-1.049 -0.479,-1.686 -1.436,-1.914 -6.381,-1.869 -12.305,-4.057 -17.773,-6.562 -1.413,0 -2.12,0.569 -2.12,1.709 0,1.002 0.182,1.799 0.547,2.392 0.182,0.547 0.729,0.957 1.641,1.231 2.962,0.774 5.582,1.48 7.861,2.119 L -30.146,0 c -2.69,-0.046 -4.672,-0.229 -5.948,-0.547 -0.866,-0.319 -1.413,-0.478 -1.64,-0.478 -1.277,0.045 -1.983,0.66 -2.12,1.845 0.045,0.684 0.411,1.322 1.094,1.914 0.592,0.365 1.412,0.547 2.461,0.547"
           style="fill:#231f20;fill-opacity:1;fill-rule:nonzero;stroke:none"
           transform="matrix(1.3333333,0,0,-1.3333333,195.80533,201.10587)"
           clip-path="url(#clipPath8)"
           inkscape:label="path7" />
      </g>
      <g
         id="g4">
        <path
           id="path9"
           d="M 0,0 C 0,3 -1.219,5.473 -3.656,7.418 -3.82,7.324 -4.008,7.277 -4.219,7.277 c 0.071,0 -0.316,0.094 -1.16,0.282 -0.844,0.164 -1.723,0.246 -2.637,0.246 -2.601,0 -4.711,-0.739 -6.328,-2.215 -1.687,-1.594 -2.531,-3.656 -2.531,-6.188 0,-2.297 0.761,-4.218 2.285,-5.765 1.524,-1.571 3.433,-2.356 5.731,-2.356 2.461,0 4.558,0.821 6.293,2.461 C -0.856,-4.547 0,-2.461 0,0 m 2.496,-0.773 c 0,-2.79 -1.183,-5.18 -3.551,-7.172 -2.203,-1.899 -4.723,-2.848 -7.558,-2.848 -3.001,0 -5.532,1.043 -7.594,3.129 -2.109,2.109 -3.164,4.676 -3.164,7.699 0,3.492 1.23,6.153 3.691,7.981 2.227,1.687 5.156,2.531 8.789,2.531 2.578,0 3.926,-0.633 4.043,-1.899 L -2.918,8.262 C -1.324,7.512 -0.023,6.258 0.984,4.5 1.992,2.766 2.496,1.008 2.496,-0.773"
           style="fill:#231f20;fill-opacity:1;fill-rule:nonzero;stroke:none"
           transform="matrix(1.3333333,0,0,-1.3333333,65.8288,151.35587)"
           clip-path="url(#clipPath10)"
           inkscape:label="path9" />
        <path
           id="path11"
           d="m 0,0 c 0,-1.594 -0.727,-3 -2.18,-4.219 -1.64,-1.336 -4.031,-2.004 -7.172,-2.004 -3.304,0 -5.871,0.481 -7.699,1.442 -0.61,0.304 -1.078,0.914 -1.406,1.828 -0.305,0.797 -0.457,1.582 -0.457,2.355 0,0.539 0.187,0.797 0.562,0.774 0.094,-0.047 0.223,-0.141 0.387,-0.281 3.07,-2.672 6.469,-4.008 10.195,-4.008 1.313,0 2.508,0.293 3.586,0.879 1.243,0.726 1.864,1.711 1.864,2.953 0,1.734 -1.313,2.965 -3.938,3.691 -2.344,0.563 -4.723,1.125 -7.137,1.688 -2.554,0.914 -3.832,2.379 -3.832,4.394 0,2.016 0.762,3.492 2.286,4.43 1.288,0.797 3.011,1.195 5.168,1.195 1.851,0 3.608,-0.281 5.273,-0.844 0.609,-0.234 1.336,-0.574 2.18,-1.019 0.422,-0.563 0.632,-1.16 0.632,-1.793 0,-0.938 -0.41,-1.406 -1.23,-1.406 -0.188,0 -0.61,0.281 -1.266,0.843 -2.086,1.594 -4.359,2.391 -6.82,2.391 -2.789,0 -4.184,-1.125 -4.184,-3.375 0,-1.383 1.324,-2.391 3.973,-3.023 C -8.824,6.234 -6.411,5.602 -3.973,4.992 -1.324,3.961 0,2.297 0,0"
           style="fill:#231f20;fill-opacity:1;fill-rule:nonzero;stroke:none"
           transform="matrix(1.3333333,0,0,-1.3333333,102.5528,157.4496)"
           clip-path="url(#clipPath12)"
           inkscape:label="path11" />
        <path
           id="path13"
           d="M 0,0 C -1.5,3.07 -2.895,6.34 -4.184,9.809 -4.84,7.652 -6.094,4.406 -7.945,0.07 -6.352,0.117 -5.075,0.141 -4.113,0.141 -3.293,0.141 -1.922,0.094 0,0 m 6.75,-6.926 c 0,-0.797 -0.399,-1.195 -1.195,-1.195 -0.68,0 -1.301,0.469 -1.864,1.406 -1.054,1.711 -1.91,3.223 -2.566,4.535 -1.922,0.282 -3.656,0.422 -5.203,0.422 -1.055,0 -2.719,-0.082 -4.992,-0.246 -0.633,-1.125 -1.36,-2.285 -2.18,-3.48 -1.243,-1.758 -2.145,-2.637 -2.707,-2.637 -0.329,0 -0.867,0.246 -1.617,0.738 -0.751,0.539 -1.125,0.926 -1.125,1.16 0,0.211 0.187,0.457 0.562,0.739 0.352,0.257 0.891,0.656 1.617,1.195 1.781,1.594 3.609,3.984 5.485,7.172 1.734,3.047 2.93,6.07 3.586,9.07 0.187,0.844 0.656,1.266 1.406,1.266 0.585,0 1.09,-0.492 1.512,-1.477 C 0.047,4.922 2.93,-0.867 6.117,-5.625 6.539,-6.281 6.75,-6.715 6.75,-6.926"
           style="fill:#231f20;fill-opacity:1;fill-rule:nonzero;stroke:none"
           transform="matrix(1.3333333,0,0,-1.3333333,131.5996,154.91827)"
           clip-path="url(#clipPath14)"
           inkscape:label="path13" />
        <path
           id="path15"
           d="m 0,0 c -0.211,-0.352 -0.797,-0.844 -1.758,-1.477 -0.984,-0.586 -1.687,-0.878 -2.109,-0.878 -0.563,0 -1.419,0.867 -2.567,2.601 -1.781,2.649 -2.941,4.313 -3.48,4.992 -1.617,1.875 -3.164,2.918 -4.641,3.129 L -16.699,6.75 v -7.594 c 0,-1.008 -0.492,-1.511 -1.477,-1.511 -0.75,0 -1.125,0.468 -1.125,1.406 0,0.164 0.058,0.738 0.176,1.722 0.093,0.61 0.141,2.485 0.141,5.625 v 3.973 c 0,0.774 -0.036,1.899 -0.106,3.375 -0.047,1.477 -0.07,2.59 -0.07,3.34 0,0.68 0.035,1.113 0.105,1.301 0.141,0.398 0.492,0.597 1.055,0.597 0.398,0 0.715,-0.14 0.949,-0.421 0.258,-0.282 0.387,-0.622 0.387,-1.02 l -0.035,-8.789 11.566,9.422 c 0.656,0.539 1.195,0.808 1.617,0.808 0.258,0 0.528,-0.14 0.809,-0.421 0.258,-0.258 0.422,-0.563 0.492,-0.915 -0.07,-0.281 -0.399,-0.621 -0.984,-1.019 l -9.739,-7.102 c 1.313,-0.468 2.73,-1.312 4.254,-2.531 0.399,-0.305 1.629,-1.43 3.692,-3.375 0.867,-0.844 1.523,-1.441 1.969,-1.793 0.89,-0.633 1.71,-1.055 2.46,-1.265 C -0.234,0.469 -0.047,0.281 0,0"
           style="fill:#231f20;fill-opacity:1;fill-rule:nonzero;stroke:none"
           transform="matrix(1.3333333,0,0,-1.3333333,176.40173,162.60587)"
           clip-path="url(#clipPath16)"
           inkscape:label="path15" />
        <path
           id="path17"
           d="M 0,0 C -1.5,3.07 -2.895,6.34 -4.184,9.809 -4.84,7.652 -6.094,4.406 -7.945,0.07 -6.352,0.117 -5.075,0.141 -4.113,0.141 -3.293,0.141 -1.922,0.094 0,0 m 6.75,-6.926 c 0,-0.797 -0.398,-1.195 -1.195,-1.195 -0.68,0 -1.301,0.469 -1.863,1.406 -1.055,1.711 -1.911,3.223 -2.567,4.535 -1.922,0.282 -3.656,0.422 -5.203,0.422 -1.055,0 -2.719,-0.082 -4.992,-0.246 -0.633,-1.125 -1.36,-2.285 -2.18,-3.48 -1.243,-1.758 -2.145,-2.637 -2.707,-2.637 -0.329,0 -0.867,0.246 -1.617,0.738 -0.751,0.539 -1.125,0.926 -1.125,1.16 0,0.211 0.187,0.457 0.562,0.739 0.352,0.257 0.891,0.656 1.617,1.195 1.781,1.594 3.609,3.984 5.485,7.172 1.734,3.047 2.93,6.07 3.586,9.07 0.187,0.844 0.656,1.266 1.406,1.266 0.585,0 1.09,-0.492 1.512,-1.477 C 0.047,4.922 2.93,-0.867 6.118,-5.625 6.54,-6.281 6.75,-6.715 6.75,-6.926"
           style="fill:#231f20;fill-opacity:1;fill-rule:nonzero;stroke:none"
           transform="matrix(1.3333333,0,0,-1.3333333,206.26627,154.91827)"
           clip-path="url(#clipPath18)"
           inkscape:label="path17" />
      </g>
      <g
         id="g3">
        <path
           id="path19"
           d="m 0,0 c 0.045,0 0.205,-0.114 0.479,-0.342 2.96,-2.963 5.353,-4.945 7.177,-5.947 1.231,-0.775 2.848,-1.231 4.854,-1.367 0.592,0 0.888,-0.365 0.888,-1.094 0,-0.957 -0.57,-1.846 -1.709,-2.666 -2.097,-1.322 -3.738,-1.982 -4.921,-1.982 -0.502,0 -0.957,0.295 -1.368,0.888 -0.867,0.957 -2.918,4.352 -6.152,10.186 -0.228,0.455 -0.342,0.888 -0.342,1.299 C -1.049,-0.342 -0.684,0 0,0 m -14.492,16.748 c 1.457,0 2.187,-1.003 2.187,-3.008 -0.183,-4.603 -0.273,-8.75 -0.273,-12.441 l 0.547,-25.567 c 0,-3.327 -0.912,-4.99 -2.735,-4.99 -1.504,0 -2.255,1.663 -2.255,4.99 0.226,10.892 0.341,19.414 0.341,25.567 0,3.691 -0.115,7.838 -0.341,12.441 0,2.005 0.841,3.008 2.529,3.008 M -42.11,-6.494 c 1.412,-0.183 2.506,-0.274 3.281,-0.274 2.598,0 5.879,2.096 9.845,6.289 0.5,0 0.752,-0.387 0.752,-1.162 0,-1.185 -1.299,-3.486 -3.897,-6.904 -2.553,-3.601 -4.786,-5.4 -6.7,-5.4 -1.093,0 -2.005,0.523 -2.734,1.572 -0.957,1.23 -1.436,2.711 -1.436,4.443 0,0.957 0.296,1.436 0.889,1.436"
           style="fill:#231f20;fill-opacity:1;fill-rule:nonzero;stroke:none"
           transform="matrix(1.3333333,0,0,-1.3333333,250.66533,296.29067)"
           clip-path="url(#clipPath20)"
           inkscape:label="path19" />
        <path
           id="path21"
           d="m 0,0 -0.205,-4.922 c 2.096,-0.046 4.26,-0.114 6.494,-0.205 0.774,0 1.162,0.273 1.162,0.82 v 3.623 c 0,0.365 -0.205,0.547 -0.615,0.547 C 4.875,-0.092 2.598,-0.046 0,0 m -7.314,-4.854 h 4.101 v 4.922 h -6.289 v -4.922 z m -3.624,-20.644 c 1.641,0.091 3.03,0.137 4.17,0.137 1.457,0 3.03,-0.046 4.717,-0.137 l 0.615,5.264 c -1.824,0.045 -3.738,0.068 -5.742,0.068 h -4.17 z m -1.64,20.576 -0.137,5.059 h -5.537 c -0.775,0 -1.162,-0.366 -1.162,-1.094 0,-1.094 -0.184,-2.097 -0.547,-3.008 0,-0.775 0.479,-1.162 1.436,-1.162 1.822,0.091 3.804,0.159 5.947,0.205 m -9.229,7.998 c 0.592,0 1.162,-0.023 1.709,-0.068 0.592,-0.092 1.481,-0.137 2.666,-0.137 h 13.809 c 3.053,0 6.744,-0.092 11.074,-0.273 0.592,0 1.299,0.09 2.119,0.273 1.321,0 1.983,-0.57 1.983,-1.709 L 11.416,0.889 C 11.188,0.615 11.027,0.113 10.938,-0.615 10.801,-1.618 10.732,-2.666 10.732,-3.76 c 0,-0.547 0.09,-1.254 0.274,-2.119 0,-1.322 -0.57,-1.982 -1.709,-1.982 -6.152,0.364 -11.69,0.547 -16.611,0.547 -5.379,0 -8.819,-0.092 -10.323,-0.274 -1.23,-0.046 -2.734,-0.228 -4.511,-0.547 -1.049,0 -1.573,0.57 -1.573,1.709 0.319,1.641 0.479,3.053 0.479,4.238 0,0.958 -0.16,2.074 -0.479,3.35 0,1.276 0.637,1.914 1.914,1.914 m 3.282,-14.219 h 9.843 v 0.821 c 0,1.275 0.637,1.914 1.914,1.914 1.413,0 2.12,-0.73 2.12,-2.188 v -0.547 H 6.836 c 0.592,0 0.889,-0.341 0.889,-1.025 0,-0.502 -0.252,-0.957 -0.752,-1.367 -0.502,-0.593 -1.073,-0.889 -1.709,-0.889 -2.416,0.228 -5.789,0.387 -10.118,0.479 l -0.205,-3.487 h 16.338 c 0.5,0 0.774,-0.251 0.821,-0.752 0,-0.775 -0.252,-1.435 -0.752,-1.982 -0.594,-0.502 -1.346,-0.752 -2.256,-0.752 -0.821,0 -2.781,0.182 -5.879,0.547 -0.457,0.045 -0.912,0.068 -1.367,0.068 l -1.367,-5.332 c 1.046,-0.046 2.095,-0.114 3.144,-0.205 3.008,-0.228 5.832,-0.342 8.477,-0.342 1.002,0 2.004,0.091 3.007,0.274 0.137,0 0.206,-0.251 0.206,-0.752 0,-1.231 -0.297,-2.416 -0.889,-3.555 -0.684,-1.322 -1.391,-1.982 -2.119,-1.982 -0.776,0 -1.573,0.227 -2.393,0.683 -3.144,1.412 -6.107,2.301 -8.887,2.666 -1.595,0.228 -3.486,0.387 -5.673,0.479 v -0.547 c -0.137,-1.504 -0.229,-2.849 -0.274,-4.033 5.651,0.045 9.776,0.136 12.373,0.273 0.547,0 0.82,-0.387 0.82,-1.162 0,-0.502 -0.251,-0.98 -0.751,-1.435 -0.639,-0.684 -1.299,-1.026 -1.983,-1.026 -2.461,0.274 -5.902,0.455 -10.322,0.547 l 0.137,-4.648 c 0,-2.871 -0.799,-4.307 -2.393,-4.307 -1.277,0 -1.914,1.436 -1.914,4.307 0.09,1.822 0.158,3.372 0.205,4.648 -1.004,0.045 -2.074,0.068 -3.213,0.068 -1.641,0 -3.92,-0.296 -6.836,-0.888 -1.277,0 -1.914,0.455 -1.914,1.367 0,0.592 0.25,1.162 0.752,1.709 0.5,0.547 1.07,0.82 1.709,0.82 l 2.461,-0.273 h 7.041 c 0,1.23 -0.068,2.574 -0.205,4.033 v 0.547 c -2.645,-0.092 -4.99,-0.297 -7.041,-0.615 -2.826,-0.547 -5.561,-1.277 -8.203,-2.188 -0.867,-0.319 -1.528,-0.478 -1.983,-0.478 -1.277,0.09 -1.937,0.752 -1.982,1.982 0,0.684 0.342,1.321 1.025,1.914 0.547,0.592 1.207,0.957 1.983,1.094 4.648,0.455 8.521,0.797 11.621,1.025 l -1.162,5.332 c -2.188,-0.136 -3.965,-0.319 -5.332,-0.547 -1.504,-0.41 -2.485,-0.615 -2.94,-0.615 -1.14,0.045 -1.756,0.66 -1.845,1.846 0.044,0.638 0.386,1.207 1.025,1.709 0.547,0.318 1.299,0.478 2.256,0.478 h 13.056 l -0.136,3.555 h -4.17 c -1.551,0 -3.67,-0.251 -6.358,-0.752 -1.23,0 -1.845,0.433 -1.845,1.299 0,0.547 0.25,1.07 0.752,1.572 0.5,0.41 1.07,0.615 1.709,0.615 m -13.467,-22.421 c 0.728,0 1.094,-0.366 1.094,-1.094 0,-0.456 -0.184,-1.003 -0.547,-1.641 -3.647,-4.922 -5.743,-7.383 -6.289,-7.383 -2.006,0 -3.008,0.57 -3.008,1.709 0,1.504 0.363,2.506 1.094,3.008 0,0.364 2.55,2.164 7.656,5.401 m -6.494,37.46 c 0.226,0 0.752,-0.182 1.572,-0.546 1.777,-1.504 3.941,-3.168 6.494,-4.991 0.274,-0.228 0.41,-0.478 0.41,-0.752 0,-0.683 -0.478,-1.025 -1.435,-1.025 -0.184,0 -0.547,0.091 -1.094,0.273 -3.602,1.139 -5.857,1.869 -6.768,2.188 -1.277,0.774 -1.914,1.777 -1.914,3.008 0,1.23 0.91,1.845 2.735,1.845 m 6.494,-20.507 c 0.728,0 1.094,-0.274 1.094,-0.821 0,-0.957 -0.274,-1.504 -0.821,-1.64 l -10.937,-4.102 c -1.596,0 -2.393,0.752 -2.393,2.256 0,1.777 0.615,2.779 1.846,3.008 z"
           style="fill:#231f20;fill-opacity:1;fill-rule:nonzero;stroke:none"
           transform="matrix(1.3333333,0,0,-1.3333333,350.73307,276.48867)"
           clip-path="url(#clipPath22)"
           inkscape:label="path21" />
      </g>
      <g
         id="g2">
        <path
           id="path23"
           d="M 0,0 C 0,3 -1.219,5.473 -3.656,7.418 -3.82,7.324 -4.008,7.277 -4.219,7.277 c 0.071,0 -0.316,0.094 -1.16,0.282 -0.844,0.164 -1.723,0.246 -2.637,0.246 -2.601,0 -4.711,-0.739 -6.328,-2.215 -1.687,-1.594 -2.531,-3.656 -2.531,-6.188 0,-2.297 0.761,-4.218 2.285,-5.765 1.524,-1.571 3.433,-2.356 5.731,-2.356 2.461,0 4.558,0.821 6.293,2.461 C -0.856,-4.547 0,-2.461 0,0 m 2.496,-0.773 c 0,-2.79 -1.183,-5.18 -3.551,-7.172 -2.203,-1.899 -4.723,-2.848 -7.558,-2.848 -3.001,0 -5.532,1.043 -7.594,3.129 -2.109,2.109 -3.164,4.676 -3.164,7.699 0,3.492 1.23,6.153 3.691,7.981 2.227,1.687 5.156,2.531 8.789,2.531 2.578,0 3.926,-0.633 4.043,-1.899 L -2.918,8.262 C -1.324,7.512 -0.023,6.258 0.984,4.5 1.992,2.766 2.496,1.008 2.496,-0.773"
           style="fill:#231f20;fill-opacity:1;fill-rule:nonzero;stroke:none"
           transform="matrix(1.3333333,0,0,-1.3333333,201.8288,364.6892)"
           clip-path="url(#clipPath24)"
           inkscape:label="path23" />
        <path
           id="path25"
           d="m 0,0 c -0.094,-0.703 -0.398,-1.453 -0.914,-2.25 -0.563,-0.961 -1.16,-1.441 -1.793,-1.441 -0.117,0 -0.656,0.211 -1.617,0.632 -2.016,0.891 -4.278,1.336 -6.785,1.336 -2.954,0 -5.297,-0.304 -7.032,-0.914 -0.867,-0.304 -1.277,-0.457 -1.23,-0.457 -0.656,0 -0.984,0.27 -0.984,0.809 0,0.609 2.308,3.539 6.925,8.789 3.047,3.492 5.742,6.504 8.086,9.035 -4.125,0 -7.676,-0.187 -10.652,-0.562 -1.453,-0.188 -2.145,-0.282 -2.074,-0.282 -0.469,0 -0.703,0.282 -0.703,0.844 0,0.586 0.14,1.008 0.421,1.266 0.375,0.375 2.731,0.562 7.067,0.562 h 8.508 c 0.75,0 1.125,-0.304 1.125,-0.914 0,-0.211 -0.293,-0.574 -0.879,-1.09 C -4.5,13.582 -7.535,10.324 -11.637,5.59 l -4.746,-5.485 c 2.719,0.211 5.121,0.317 7.207,0.317 0.774,0 1.969,-0.047 3.586,-0.141 1.617,-0.14 2.801,-0.211 3.551,-0.211 0.258,0 0.574,0.035 0.949,0.106 0.375,0.117 0.668,0.176 0.879,0.176 z"
           style="fill:#231f20;fill-opacity:1;fill-rule:nonzero;stroke:none"
           transform="matrix(1.3333333,0,0,-1.3333333,241.80853,375.11627)"
           clip-path="url(#clipPath26)"
           inkscape:label="path25" />
        <path
           id="path27"
           d="M 0,0 C -1.5,3.07 -2.895,6.34 -4.184,9.809 -4.84,7.652 -6.094,4.406 -7.945,0.07 -6.352,0.117 -5.074,0.141 -4.113,0.141 -3.293,0.141 -1.922,0.094 0,0 m 6.75,-6.926 c 0,-0.797 -0.398,-1.195 -1.195,-1.195 -0.68,0 -1.301,0.469 -1.864,1.406 -1.054,1.711 -1.91,3.223 -2.566,4.535 -1.922,0.282 -3.656,0.422 -5.203,0.422 -1.055,0 -2.719,-0.082 -4.992,-0.246 -0.633,-1.125 -1.36,-2.285 -2.18,-3.48 -1.242,-1.758 -2.145,-2.637 -2.707,-2.637 -0.328,0 -0.867,0.246 -1.617,0.738 -0.75,0.539 -1.125,0.926 -1.125,1.16 0,0.211 0.187,0.457 0.562,0.739 0.352,0.257 0.891,0.656 1.617,1.195 1.782,1.594 3.61,3.984 5.485,7.172 1.734,3.047 2.93,6.07 3.586,9.07 0.187,0.844 0.656,1.266 1.406,1.266 0.586,0 1.09,-0.492 1.512,-1.477 C 0.047,4.922 2.93,-0.867 6.117,-5.625 6.539,-6.281 6.75,-6.715 6.75,-6.926"
           style="fill:#231f20;fill-opacity:1;fill-rule:nonzero;stroke:none"
           transform="matrix(1.3333333,0,0,-1.3333333,276.9336,368.2516)"
           clip-path="url(#clipPath28)"
           inkscape:label="path27" />
        <path
           id="path29"
           d="m 0,0 c 0,-0.703 -1.055,-3.445 -3.164,-8.227 -1.992,-4.593 -3.352,-7.476 -4.078,-8.648 -0.305,-0.563 -0.563,-1.066 -0.774,-1.512 -0.304,-0.89 -0.726,-1.336 -1.265,-1.336 -0.774,0 -1.629,1.254 -2.567,3.762 -0.093,0.234 -0.597,1.852 -1.511,4.852 l -2.286,7.418 c -1.664,-4.524 -3.375,-8.649 -5.132,-12.375 -0.375,-0.797 -0.633,-1.594 -0.774,-2.391 -0.094,-0.844 -0.504,-1.266 -1.23,-1.266 -0.305,0 -0.668,0.211 -1.09,0.633 -0.305,0.352 -1.277,2.789 -2.918,7.313 -0.938,2.625 -1.863,5.226 -2.777,7.804 -0.282,0.844 -0.504,1.383 -0.668,1.618 -0.282,0.703 -0.575,1.207 -0.879,1.511 -0.328,0.375 -0.492,0.785 -0.492,1.231 0,0.82 0.468,1.23 1.406,1.23 0.726,0 1.347,-0.562 1.863,-1.687 0.727,-1.571 1.547,-3.879 2.461,-6.926 1.406,-4.664 2.121,-7.043 2.145,-7.137 0.187,-0.539 0.316,-0.914 0.386,-1.125 0.235,-0.539 0.481,-0.82 0.739,-0.844 2.32,5.391 4.066,10.852 5.238,16.383 0.187,0.891 0.679,1.336 1.476,1.336 0.75,0 1.418,-0.996 2.004,-2.988 0.891,-3.141 2.11,-7.488 3.657,-13.043 0.187,-0.609 0.339,-1.031 0.457,-1.266 0.257,-0.703 0.527,-1.054 0.808,-1.054 1.031,2.156 2.168,4.898 3.41,8.226 1.383,3.82 2.192,6.61 2.426,8.367 0.188,1.172 0.738,1.758 1.652,1.758 C -0.492,1.617 0,1.078 0,0"
           style="fill:#231f20;fill-opacity:1;fill-rule:nonzero;stroke:none"
           transform="matrix(1.3333333,0,0,-1.3333333,335.4752,352.78293)"
           clip-path="url(#clipPath30)"
           inkscape:label="path29" />
        <path
           id="path31"
           d="M 0,0 C -1.5,3.07 -2.895,6.34 -4.184,9.809 -4.84,7.652 -6.094,4.406 -7.945,0.07 -6.352,0.117 -5.074,0.141 -4.113,0.141 -3.293,0.141 -1.922,0.094 0,0 m 6.75,-6.926 c 0,-0.797 -0.398,-1.195 -1.195,-1.195 -0.68,0 -1.301,0.469 -1.864,1.406 -1.054,1.711 -1.91,3.223 -2.566,4.535 -1.922,0.282 -3.656,0.422 -5.203,0.422 -1.055,0 -2.719,-0.082 -4.992,-0.246 -0.633,-1.125 -1.36,-2.285 -2.18,-3.48 -1.242,-1.758 -2.145,-2.637 -2.707,-2.637 -0.328,0 -0.867,0.246 -1.617,0.738 -0.75,0.539 -1.125,0.926 -1.125,1.16 0,0.211 0.187,0.457 0.562,0.739 0.352,0.257 0.891,0.656 1.617,1.195 1.782,1.594 3.61,3.984 5.485,7.172 1.734,3.047 2.93,6.07 3.586,9.07 0.187,0.844 0.656,1.266 1.406,1.266 0.586,0 1.09,-0.492 1.512,-1.477 C 0.047,4.922 2.93,-0.867 6.117,-5.625 6.539,-6.281 6.75,-6.715 6.75,-6.926"
           style="fill:#231f20;fill-opacity:1;fill-rule:nonzero;stroke:none"
           transform="matrix(1.3333333,0,0,-1.3333333,363.60027,368.2516)"
           clip-path="url(#clipPath32)"
           inkscape:label="path31" />
      </g>
      <path
         id="path33"
         d="M 290.292,154.164 H 21 V 157 h 269.292 z"
         style="fill:#231f20;fill-opacity:1;fill-rule:nonzero;stroke:none"
         transform="matrix(1.3333333,0,0,-1.3333333,0,464.62667)"
         clip-path="url(#clipPath34)" />
    </g>
  </g>
</svg>
