<?xml version="1.0" encoding="UTF-8" standalone="no"?>
<!-- Created with Inkscape (http://www.inkscape.org/) -->

<svg
   version="1.1"
   id="svg1"
   width="415.74933"
   height="464.62668"
   viewBox="0 0 415.74933 464.62668"
   sodipodi:docname="06098137.svg"
   inkscape:version="1.4 (86a8ad7, 2024-10-11)"
   xmlns:inkscape="http://www.inkscape.org/namespaces/inkscape"
   xmlns:sodipodi="http://sodipodi.sourceforge.net/DTD/sodipodi-0.dtd"
   xmlns="http://www.w3.org/2000/svg"
   xmlns:svg="http://www.w3.org/2000/svg">
  <defs
     id="defs1">
    <clipPath
       clipPathUnits="userSpaceOnUse"
       id="clipPath4">
      <path
         d="M 0,348.47 H 311.812 V 0 H 0 Z"
         transform="translate(-215.77441,-330.15921)"
         id="path4" />
    </clipPath>
    <clipPath
       clipPathUnits="userSpaceOnUse"
       id="clipPath6">
      <path
         d="M 0,348.47 H 311.812 V 0 H 0 Z"
         transform="translate(-258.71391,-169.88381)"
         id="path6" />
    </clipPath>
    <clipPath
       clipPathUnits="userSpaceOnUse"
       id="clipPath8">
      <path
         d="M 0,348.47 H 311.812 V 0 H 0 Z"
         transform="translate(-165.126,-101.2529)"
         id="path8" />
    </clipPath>
    <clipPath
       clipPathUnits="userSpaceOnUse"
       id="clipPath10">
      <path
         d="M 0,348.47 H 311.812 V 0 H 0 Z"
         transform="translate(-188.12601,-101.2529)"
         id="path10" />
    </clipPath>
    <clipPath
       clipPathUnits="userSpaceOnUse"
       id="clipPath12">
      <path
         d="M 0,348.47 H 311.812 V 0 H 0 Z"
         transform="translate(-213.9346,-114.69431)"
         id="path12" />
    </clipPath>
    <clipPath
       clipPathUnits="userSpaceOnUse"
       id="clipPath14">
      <path
         d="M 0,348.47 H 311.812 V 0 H 0 Z"
         transform="translate(-236.93461,-114.69431)"
         id="path14" />
    </clipPath>
    <clipPath
       clipPathUnits="userSpaceOnUse"
       id="clipPath16">
      <path
         d="M 0,348.47 H 311.812 V 0 H 0 Z"
         transform="translate(-259.08691,-112.16801)"
         id="path16" />
    </clipPath>
    <clipPath
       clipPathUnits="userSpaceOnUse"
       id="clipPath18">
      <path
         d="M 0,348.47 H 311.812 V 0 H 0 Z"
         transform="translate(-286.126,-101.2529)"
         id="path18" />
    </clipPath>
  </defs>
  <sodipodi:namedview
     id="namedview1"
     pagecolor="#ffffff"
     bordercolor="#000000"
     borderopacity="0.25"
     inkscape:showpageshadow="2"
     inkscape:pageopacity="0.0"
     inkscape:pagecheckerboard="0"
     inkscape:deskcolor="#d1d1d1"
     inkscape:zoom="1.904755"
     inkscape:cx="207.63825"
     inkscape:cy="231.26334"
     inkscape:window-width="1920"
     inkscape:window-height="1009"
     inkscape:window-x="-8"
     inkscape:window-y="-8"
     inkscape:window-maximized="1"
     inkscape:current-layer="g1">
    <inkscape:page
       x="0"
       y="0"
       inkscape:label="1"
       id="page1"
       width="415.74933"
       height="464.62668"
       margin="0"
       bleed="0" />
  </sodipodi:namedview>
  <g
     id="g1"
     inkscape:groupmode="layer"
     inkscape:label="1">
    <g
       id="group-MC0">
      <path
         id="path2"
         d="M 0,0 H 311.811 V 311.811 H 0 Z"
         style="fill:#ffffff;fill-opacity:1;fill-rule:nonzero;stroke:none"
         transform="matrix(1.3333333,0,0,-1.3333333,0,464.62667)" />
      <path
         id="path3"
         d="m 0,0 v 0.813 c -1.256,0.039 -2.344,0.692 -3.258,1.953 l -5.227,7.181 3.871,5.132 c 0.913,1.248 2.06,1.866 3.431,1.875 h 0.517 v 0.817 h -6.933 v -0.817 h 0.787 c 0.806,-0.009 1.224,-0.357 1.285,-1.062 -0.01,-0.282 -0.183,-0.726 -0.519,-1.304 l -2.909,-3.976 -3.036,4.763 c -0.309,0.422 -0.456,0.752 -0.444,0.987 -0.012,0.383 0.405,0.583 1.231,0.592 h 0.84 v 0.817 h -8.365 v -0.817 c 1.505,-0.009 2.553,-0.457 3.159,-1.357 l 4.789,-7.281 -4.345,-5.354 c -1.11,-1.396 -2.494,-2.11 -4.171,-2.149 V 0 h 7.306 v 0.813 h -0.617 c -1.197,-0.008 -1.788,0.383 -1.78,1.161 -0.008,0.357 0.213,0.827 0.645,1.41 l 3.43,4.219 3.429,-4.446 C -6.61,2.775 -6.429,2.331 -6.315,1.827 -6.39,1.148 -6.92,0.805 -7.895,0.813 H -8.39 L -8.39,0 H 0 M -23.017,9.429 H -40.145 V 7.824 h 17.128 z m -24.039,-5.01 c -0.008,1.887 -0.76,3.257 -2.269,4.119 -0.801,0.469 -1.91,0.804 -3.332,0.987 1.517,0.222 2.726,0.604 3.627,1.161 0.952,0.814 1.423,1.914 1.436,3.306 -0.013,1.422 -0.671,2.531 -1.975,3.336 -1.161,0.652 -2.483,0.974 -3.976,0.983 -1.456,-0.009 -2.714,-0.405 -3.774,-1.183 -0.962,-0.727 -1.445,-1.618 -1.432,-2.64 -0.013,-0.557 0.121,-1.001 0.396,-1.357 0.309,-0.357 0.713,-0.531 1.23,-0.518 0.458,-0.013 0.806,0.109 1.062,0.37 0.334,0.356 0.508,0.713 0.517,1.087 -0.009,0.331 -0.108,0.678 -0.316,1.035 -0.261,0.37 -0.384,0.692 -0.37,0.961 -0.014,0.335 0.157,0.631 0.491,0.888 0.37,0.308 0.953,0.456 1.753,0.469 2.171,-0.013 3.245,-1.331 3.258,-3.997 -0.013,-1.122 -0.322,-2 -0.941,-2.618 -0.825,-0.613 -1.787,-0.922 -2.86,-0.909 h -1.385 V 8.933 h 1.385 c 1.248,-0.013 2.243,-0.33 3.009,-0.987 0.805,-0.774 1.201,-1.948 1.209,-3.527 -0.008,-1.27 -0.343,-2.297 -1.009,-3.062 -0.531,-0.605 -1.445,-0.927 -2.741,-0.987 -1.012,0.06 -1.766,0.321 -2.27,0.791 -0.209,0.183 -0.309,0.457 -0.296,0.787 -0.013,0.287 0.087,0.618 0.296,0.988 0.175,0.409 0.258,0.743 0.27,1.013 -0.035,0.431 -0.196,0.826 -0.469,1.161 -0.257,0.257 -0.64,0.383 -1.157,0.396 -0.557,-0.013 -0.987,-0.226 -1.309,-0.644 -0.335,-0.408 -0.505,-0.874 -0.492,-1.431 -0.013,-1.209 0.678,-2.196 2.049,-2.961 1.157,-0.666 2.391,-0.975 3.701,-0.988 1.948,0.013 3.513,0.383 4.71,1.183 1.309,0.892 1.966,2.136 1.974,3.754 M -64.31,0 v 0.813 c -1.357,0.039 -2.27,0.631 -2.739,1.779 L -73.712,18.311 -76.3,17.08 -81.437,3.827 C -81.758,2.975 -82.176,2.235 -82.693,1.579 -83.324,1.061 -83.93,0.805 -84.521,0.813 h -0.543 V 0 h 6.616 v 0.813 h -0.618 c -0.719,-0.008 -1.248,0.148 -1.58,0.47 -0.187,0.174 -0.282,0.509 -0.273,0.987 -0.009,0.235 0.025,0.47 0.1,0.692 0.073,0.369 0.457,1.492 1.161,3.379 h 7.972 l 1.505,-3.675 c 0.121,-0.335 0.182,-0.57 0.196,-0.692 -0.014,-0.282 -0.108,-0.543 -0.295,-0.791 -0.309,-0.257 -0.727,-0.378 -1.283,-0.37 h -0.915 V 0 Z m -23.381,16.954 v 0.817 h -6.589 v -0.817 h 0.886 c 0.915,-0.009 1.396,-0.331 1.457,-0.962 0.014,-0.269 -0.147,-0.665 -0.469,-1.183 l -4.072,-6.245 -4.096,6.515 c -0.334,0.531 -0.505,0.926 -0.491,1.187 -0.014,0.457 0.443,0.679 1.357,0.688 h 0.712 v 0.817 h -8.093 v -0.817 c 0.705,-0.009 1.248,-0.096 1.652,-0.27 0.422,-0.335 0.853,-0.779 1.31,-1.309 l 5.206,-8.268 V 2.47 c -0.014,-1.113 -0.591,-1.665 -1.774,-1.657 h -0.792 V 0 h 8.168 v 0.813 h -0.862 c -1.209,-0.008 -1.814,0.583 -1.8,1.779 v 5.28 l 4.763,7.207 c 0.478,0.731 1.048,1.27 1.678,1.605 0.331,0.174 0.949,0.261 1.849,0.27 M -110.586,0 v 0.813 c -1.27,0.039 -2.296,0.596 -3.062,1.657 l -6.589,8.982 3.927,3.627 c 0.701,0.657 1.392,1.1 2.071,1.357 0.813,0.335 1.666,0.509 2.566,0.518 v 0.817 h -7.503 v -0.817 h 0.617 c 0.927,-0.009 1.418,-0.309 1.457,-0.888 -0.039,-0.269 -0.309,-0.691 -0.792,-1.257 l -7.08,-6.515 v 6.985 c -0.012,1.109 0.483,1.666 1.478,1.675 h 1.015 v 0.817 h -7.995 v -0.817 h 0.983 c 1.039,-0.009 1.545,-0.566 1.557,-1.675 V 2.592 c -0.012,-1.196 -0.557,-1.787 -1.652,-1.779 h -0.888 V 0 h 8.069 v 0.813 h -0.989 c -1.061,-0.008 -1.59,0.583 -1.578,1.779 v 4.541 l 2.666,2.444 4.836,-6.515 c 0.431,-0.618 0.654,-1.114 0.666,-1.483 -0.073,-0.518 -0.556,-0.774 -1.43,-0.766 h -0.814 V 0 Z m 38.605,7.133 h -7.381 l 3.58,9.059 z"
         style="fill:#231f20;fill-opacity:1;fill-rule:nonzero;stroke:none"
         transform="matrix(1.3333333,0,0,-1.3333333,287.6992,24.4144)"
         clip-path="url(#clipPath4)" />
      <path
         id="path5"
         d="M 0,0 C 0.314,0.188 0.629,0.313 0.943,0.377 1.068,0.313 1.227,0.282 1.416,0.282 2.484,-0.85 2.797,-2.17 2.359,-3.68 2.107,-4.687 1.51,-5.315 0.566,-5.566 0.063,-5.693 -0.346,-5.63 -0.66,-5.378 -1.164,-4.75 -1.414,-4.026 -1.414,-3.208 -1.479,-1.825 -1.006,-0.755 0,0 m -31.131,-3.68 c -0.252,-1.007 -0.849,-1.635 -1.793,-1.886 -0.504,-0.127 -0.912,-0.064 -1.226,0.188 -0.504,0.628 -0.754,1.352 -0.754,2.17 -0.065,1.383 0.408,2.453 1.414,3.208 0.314,0.188 0.629,0.313 0.943,0.377 0.125,-0.064 0.283,-0.095 0.473,-0.095 1.068,-1.132 1.383,-2.452 0.943,-3.962 m -98.731,-9.472 c -0.692,-0.126 -1.226,0.062 -1.603,0.566 -0.064,0.125 -0.064,0.251 0,0.377 1.32,1.069 2.736,1.981 4.245,2.736 0.062,-0.252 0.094,-0.471 0.094,-0.66 0,-1.762 -0.912,-2.768 -2.736,-3.019 m -20.133,8.825 c -0.504,-0.504 -1.038,-0.693 -1.604,-0.567 -0.126,0.251 -0.157,0.503 -0.094,0.755 0.251,1.76 1.227,2.862 2.924,3.302 0.251,0.063 0.472,0.095 0.661,0.095 0.189,0 0.408,-0.032 0.66,-0.095 0.189,-0.44 0.22,-0.818 0.094,-1.132 0,-0.315 0.032,-0.566 0.095,-0.755 -1.132,-0.252 -2.045,-0.787 -2.736,-1.603 m -41.476,-10.646 c -2.202,-3.271 -4.953,-6.038 -8.255,-8.301 -3.301,-2.264 -6.997,-3.177 -11.084,-2.736 -1.636,0.125 -2.769,0.91 -3.397,2.359 -0.376,3.395 0.661,6.414 3.114,9.055 6.351,6.855 14.118,11.288 23.301,13.302 1.509,0.189 3.019,0.377 4.528,0.565 -2.264,-5.032 -5,-9.779 -8.207,-14.244 M 19.938,14.85 C 8.807,14.346 -2.199,13.088 -13.08,11.076 c 0.504,2.703 1.351,5.345 2.547,7.925 0.314,0.69 0.156,1.257 -0.471,1.697 -0.693,0.378 -1.26,0.251 -1.699,-0.377 -1.572,-3.082 -2.61,-6.32 -3.111,-9.717 -4.153,-0.88 -8.239,-1.824 -12.264,-2.83 -0.818,-0.252 -1.133,-0.754 -0.943,-1.508 0.187,-0.694 0.628,-1.038 1.32,-1.038 h 0.283 c 3.648,0.943 7.357,1.792 11.131,2.546 -0.407,-2.961 -0.533,-5.923 -0.402,-8.885 -2.362,0.084 -4.723,0.355 -7.084,0.828 -2.454,0.565 -4.811,1.476 -7.075,2.735 0,0.063 -0.033,0.095 -0.095,0.095 -1.321,0.565 -2.578,0.472 -3.774,-0.283 -1.6,-1.12 -2.514,-2.608 -2.758,-4.452 -0.185,-0.113 -0.339,-0.239 -0.441,-0.392 -1.699,-1.07 -3.43,-1.919 -5.189,-2.547 -0.127,0 -0.221,-0.032 -0.284,-0.095 -1.447,-0.315 -2.674,0.032 -3.677,1.038 -0.567,0.44 -1.039,0.944 -1.416,1.51 -1.321,1.887 -3.082,3.08 -5.284,3.584 -2.83,-0.565 -5.377,-1.73 -7.64,-3.49 -0.694,-0.441 -1.321,-0.881 -1.887,-1.32 -0.881,-0.504 -1.73,-0.976 -2.547,-1.415 -0.504,-0.252 -0.976,-0.378 -1.414,-0.378 v 0.094 c -0.064,0.314 -0.064,0.661 0,1.038 0.313,2.137 -0.473,3.647 -2.359,4.528 -2.893,-0.316 -5.442,-1.479 -7.641,-3.49 -0.064,0.754 -0.127,1.54 -0.189,2.358 -0.188,0.816 -0.661,1.227 -1.414,1.227 -0.883,-0.189 -1.291,-0.693 -1.227,-1.51 0.028,-0.179 0.046,-0.356 0.069,-0.534 -0.131,-0.036 -0.265,-0.077 -0.405,-0.153 -0.252,-0.127 -0.441,-0.22 -0.566,-0.283 -1.573,-1.259 -3.302,-2.013 -5.189,-2.264 -1.825,-0.377 -3.27,0.125 -4.339,1.51 -0.252,5.219 1.162,10.124 4.244,14.716 0.251,0.503 0.19,1.006 -0.187,1.51 0.377,0.061 0.816,0.156 1.32,0.283 0.754,0.25 1.1,0.785 1.037,1.603 -0.252,0.755 -0.754,1.069 -1.508,0.944 -1.259,-0.316 -2.486,-0.567 -3.679,-0.755 -0.818,-0.252 -1.165,-0.755 -1.038,-1.51 0.125,-0.692 0.565,-1.037 1.32,-1.037 h 0.189 l 0.094,0.094 c -2.915,-4.476 -4.384,-9.213 -4.456,-14.205 -0.1,-0.034 -0.198,-0.058 -0.304,-0.117 -0.189,-0.126 -0.346,-0.22 -0.472,-0.283 -1.636,-1.258 -3.429,-2.011 -5.377,-2.263 -1.761,-0.315 -2.894,0.408 -3.396,2.17 -0.818,1.759 -2.139,2.892 -3.962,3.396 -1.196,0.063 -2.264,-0.158 -3.207,-0.66 2.075,4.4 4.118,8.867 6.131,13.394 0.88,1.95 1.792,3.93 2.736,5.944 0.189,0.756 -0.033,1.351 -0.66,1.793 -0.755,0.189 -1.321,-0.033 -1.699,-0.66 -1.006,-2.014 -1.886,-3.995 -2.641,-5.944 -2.568,-5.712 -5.217,-11.315 -7.915,-16.852 -4.232,-1.289 -8.407,-2.805 -12.521,-4.56 -2.769,2.892 -5.882,5.25 -9.34,7.075 -1.447,0.817 -2.044,1.981 -1.792,3.491 0.502,1.509 1.603,2.137 3.302,1.886 0.816,0 1.32,0.408 1.509,1.227 0,0.755 -0.378,1.193 -1.132,1.32 -3.207,0.44 -5.221,-0.881 -6.038,-3.962 -0.502,-2.705 0.409,-4.749 2.736,-6.132 0.609,-0.336 1.199,-0.695 1.785,-1.058 -0.01,-0.005 -0.023,-0.017 -0.032,-0.022 -1.573,-1.133 -3.302,-1.856 -5.189,-2.17 -1.636,-0.188 -3.176,0.189 -4.622,1.132 0.189,0.189 0.345,0.44 0.472,0.755 0.25,1.257 0,2.42 -0.755,3.49 -1.07,1.005 -2.296,1.288 -3.679,0.849 -1.132,-0.315 -2.17,-0.881 -3.113,-1.697 -0.583,-0.518 -1.035,-1.105 -1.368,-1.755 -3.245,0.993 -6.489,1.805 -9.733,2.429 2.453,7.861 5.503,15.627 9.151,23.301 0.314,0.754 0.062,1.352 -0.755,1.792 -0.755,0.314 -1.32,0.062 -1.698,-0.755 -3.584,-7.798 -6.667,-15.722 -9.244,-23.772 -4.403,0.691 -8.774,1.038 -13.113,1.038 2.011,5.597 3.71,11.382 5.094,17.357 -0.127,0.692 -0.472,1.195 -1.038,1.51 -0.818,0.125 -1.384,-0.253 -1.698,-1.133 -1.195,-6.164 -2.957,-12.137 -5.283,-17.923 -2.139,-0.189 -4.277,-0.504 -6.415,-0.944 -9.749,-2.012 -17.956,-6.761 -24.621,-14.244 -2.894,-3.334 -4.12,-7.17 -3.679,-11.509 0.943,-2.391 2.703,-3.712 5.282,-3.963 1.006,-0.063 1.949,-0.093 2.83,-0.093 3.396,0 6.54,0.816 9.434,2.452 3.962,2.514 7.264,5.786 9.905,9.811 3.458,5.031 6.477,10.377 9.056,16.037 4.402,0.062 8.868,-0.221 13.396,-0.849 -1.509,-5.094 -2.83,-10.157 -3.962,-15.188 -0.126,-0.755 0.22,-1.226 1.038,-1.415 h 0.189 c 0.627,0 1.037,0.314 1.226,0.944 1.257,4.966 2.609,10.03 4.056,15.187 3.208,-0.565 6.415,-1.447 9.623,-2.641 0.137,-0.034 0.261,-0.038 0.385,-0.042 0.038,-0.515 0.107,-1.002 0.244,-1.434 0.188,-0.599 0.66,-1.055 1.415,-1.368 0.314,-0.127 0.755,-0.189 1.321,-0.189 1.257,0 2.325,0.44 3.207,1.321 0.377,0.378 0.816,0.628 1.32,0.754 0.881,-0.692 1.887,-1.195 3.019,-1.509 1.132,-0.316 2.265,-0.409 3.396,-0.283 2.39,0.439 4.496,1.352 6.321,2.736 0.125,0 0.251,0.061 0.377,0.188 0.176,0.113 0.316,0.236 0.423,0.368 1.559,-1.107 3.041,-2.309 4.428,-3.626 -1.572,-0.755 -3.019,-1.699 -4.34,-2.831 -1.006,-1.07 -1.195,-2.202 -0.565,-3.396 0.691,-1.447 1.823,-2.202 3.396,-2.264 0.25,0.062 0.566,0.125 0.943,0.189 3.269,0.566 4.906,2.514 4.906,5.848 -0.064,0.503 -0.189,0.975 -0.378,1.415 3.031,1.37 6.16,2.582 9.381,3.646 -0.025,-0.052 -0.05,-0.105 -0.076,-0.156 -0.377,-0.756 -0.252,-1.354 0.377,-1.793 0.189,-0.252 0.44,-0.346 0.755,-0.283 0.378,0 0.692,0.189 0.944,0.566 1.571,2.453 3.71,4.182 6.415,5.189 0.943,-0.254 1.571,-0.849 1.886,-1.793 1.194,-2.83 3.302,-4.121 6.321,-3.867 2.033,0.451 3.96,1.251 5.792,2.364 0.004,-0.041 0.003,-0.079 0.006,-0.119 1.382,-2.013 3.364,-2.957 5.943,-2.83 0.378,0 0.786,0.032 1.226,0.095 2.131,0.413 4.145,1.262 6.054,2.512 -0.008,-0.391 -0.026,-0.779 -0.058,-1.165 -0.315,-0.693 -0.188,-1.227 0.378,-1.604 0.565,-0.441 1.131,-0.41 1.698,0.094 2.136,2.326 4.716,3.993 7.736,5 0.125,-0.629 0.188,-1.259 0.188,-1.887 -0.063,-0.755 0.031,-1.478 0.283,-2.17 0.25,-0.817 0.785,-1.352 1.603,-1.603 h 0.85 c 1.887,0.251 3.646,0.974 5.283,2.17 0.627,0.377 1.256,0.816 1.887,1.32 1.822,1.383 3.834,2.358 6.037,2.925 1.445,-0.441 2.609,-1.321 3.49,-2.642 0.502,-0.504 0.975,-1.037 1.414,-1.603 1.699,-2.014 3.774,-2.579 6.227,-1.699 0.062,0 0.125,0.032 0.189,0.095 1.934,0.552 3.737,1.413 5.428,2.548 0.278,-0.78 0.717,-1.498 1.357,-2.139 0.754,-0.629 1.635,-0.943 2.641,-0.943 h 0.473 c 2.074,0.439 3.425,1.666 4.056,3.68 0.313,1.005 0.408,2.011 0.283,3.018 1.887,-0.818 3.868,-1.353 5.942,-1.603 2.014,-0.316 4.057,-0.472 6.133,-0.472 0.003,0 0.005,10e-4 0.007,10e-4 0.365,-1.049 0.999,-1.95 1.913,-2.697 0.88,-0.63 1.853,-0.913 2.923,-0.85 0.756,0 1.51,0.095 2.266,0.283 1.861,0.454 3.642,1.202 5.346,2.221 0.245,-0.979 0.733,-1.863 1.508,-2.638 0.753,-0.629 1.634,-0.943 2.64,-0.943 h 0.471 c 2.076,0.439 3.428,1.666 4.057,3.68 0.314,1.005 0.408,2.011 0.283,3.018 1.886,-0.818 3.869,-1.353 5.943,-1.603 2.012,-0.316 4.057,-0.472 6.133,-0.472 0.816,0 1.287,0.408 1.414,1.227 -0.063,0.816 -0.504,1.225 -1.32,1.225 -2.516,0.063 -5.034,0.346 -7.547,0.85 -2.453,0.565 -4.811,1.476 -7.076,2.735 0,0.063 -0.032,0.095 -0.094,0.095 -1.32,0.565 -2.58,0.472 -3.774,-0.283 -1.429,-1.001 -2.315,-2.293 -2.662,-3.872 -0.045,-0.022 -0.089,-0.026 -0.134,-0.051 -1.825,-1.195 -3.774,-2.075 -5.85,-2.642 -1.068,-0.315 -2.043,-0.188 -2.924,0.378 -0.754,0.566 -1.164,1.352 -1.226,2.359 -0.252,3.269 -0.094,6.571 0.472,9.905 11.069,2.075 22.264,3.363 33.584,3.867 0.754,0.063 1.162,0.503 1.225,1.321 -0.063,0.817 -0.504,1.257 -1.32,1.321"
         style="fill:#231f20;fill-opacity:1;fill-rule:nonzero;stroke:none"
         transform="matrix(1.3333333,0,0,-1.3333333,344.95187,238.11493)"
         clip-path="url(#clipPath6)"
         inkscape:label="path5" />
      <g
         id="g2">
        <path
           id="path7"
           d="M 0,0 C -1.806,-0.305 -3.551,-0.188 -5.238,0.352 -6.481,0.305 -7.699,0.164 -8.895,-0.07 c -0.422,0.117 -0.832,0.234 -1.23,0.351 0.468,0.938 1.207,1.442 2.215,1.512 1.007,0.07 1.98,0.059 2.918,-0.035 0.258,0.82 0.409,1.664 0.457,2.531 -0.048,1.031 -0.048,2.086 0,3.164 -0.07,3.961 0.246,7.899 0.949,11.813 -0.914,-0.024 -1.816,-0.141 -2.707,-0.352 -0.399,0.024 -0.727,0.176 -0.984,0.457 0.585,0.516 1.305,0.856 2.162,1.02 0.855,0.164 1.4,0.691 1.635,1.582 0.421,0.445 0.949,0.703 1.582,0.773 1.217,0.024 2.156,-0.48 2.812,-1.512 C 0.633,20.039 0.188,18.938 -0.422,17.93 -0.892,15.82 -1.09,13.688 -1.02,11.531 -0.809,9.914 -0.821,8.297 -1.055,6.68 -1.289,5.063 -1.243,3.457 -0.914,1.863 0.796,2.566 2.578,3.094 4.43,3.445 4.733,3.422 4.944,3.27 5.063,2.988 3.352,1.98 1.664,0.984 0,0"
           style="fill:#231f20;fill-opacity:1;fill-rule:nonzero;stroke:none"
           transform="matrix(1.3333333,0,0,-1.3333333,220.168,329.6228)"
           clip-path="url(#clipPath8)" />
        <path
           id="path9"
           d="M 0,0 C -1.805,-0.305 -3.551,-0.188 -5.238,0.352 -6.48,0.305 -7.699,0.164 -8.895,-0.07 c -0.421,0.117 -0.832,0.234 -1.23,0.351 0.469,0.938 1.207,1.442 2.215,1.512 1.008,0.07 1.98,0.059 2.918,-0.035 0.258,0.82 0.41,1.664 0.457,2.531 -0.047,1.031 -0.047,2.086 0,3.164 -0.07,3.961 0.246,7.899 0.949,11.813 -0.914,-0.024 -1.816,-0.141 -2.707,-0.352 -0.398,0.024 -0.727,0.176 -0.984,0.457 0.586,0.516 1.306,0.856 2.162,1.02 0.855,0.164 1.4,0.691 1.635,1.582 0.421,0.445 0.949,0.703 1.582,0.773 1.218,0.024 2.156,-0.48 2.812,-1.512 C 0.633,20.039 0.188,18.938 -0.422,17.93 -0.891,15.82 -1.09,13.688 -1.02,11.531 -0.809,9.914 -0.82,8.297 -1.055,6.68 -1.289,5.063 -1.242,3.457 -0.914,1.863 0.797,2.566 2.578,3.094 4.43,3.445 4.734,3.422 4.945,3.27 5.063,2.988 3.352,1.98 1.664,0.984 0,0"
           style="fill:#231f20;fill-opacity:1;fill-rule:nonzero;stroke:none"
           transform="matrix(1.3333333,0,0,-1.3333333,250.83467,329.6228)"
           clip-path="url(#clipPath10)" />
        <path
           id="path11"
           d="m 0,0 c -1.125,-1.266 -2.285,-2.461 -3.48,-3.586 -0.961,-0.797 -1.911,-1.652 -2.848,-2.566 -0.938,-0.914 -1.348,-2.051 -1.231,-3.411 0.235,-0.117 0.469,-0.222 0.704,-0.316 2.132,0.024 4.277,0.07 6.433,0.141 0.164,0.375 0.363,0.797 0.598,1.265 0.234,0.469 0.621,0.586 1.16,0.352 0.047,-0.422 0.199,-0.785 0.457,-1.09 -0.422,-0.984 -0.75,-2.004 -0.984,-3.059 -3.61,-0.07 -7.196,-0.175 -10.758,-0.316 -0.961,0.75 -1.102,1.734 -0.422,2.953 0.891,0.867 1.547,1.91 1.969,3.129 0.609,1.195 1.429,2.25 2.461,3.164 1.125,0.891 2.261,1.817 3.41,2.777 0.984,0.68 1.816,1.536 2.496,2.567 0.797,2.625 -0.235,3.914 -3.094,3.867 -1.5,0.094 -2.373,-0.568 -2.619,-1.986 -0.246,-1.418 -1.014,-2.256 -2.303,-2.514 -1.148,0.141 -2.109,0.645 -2.883,1.512 0,1.219 0.211,2.414 0.633,3.586 0.539,1.148 1.442,1.91 2.707,2.285 0.774,0.234 1.582,0.375 2.426,0.422 C -2.941,9.598 -1.09,8.988 0.387,7.348 1.16,6.293 1.699,5.156 2.004,3.938 2.355,3.047 2.332,2.355 1.934,1.863 1.395,1.113 0.75,0.492 0,0"
           style="fill:#231f20;fill-opacity:1;fill-rule:nonzero;stroke:none"
           transform="matrix(1.3333333,0,0,-1.3333333,285.24613,311.70093)"
           clip-path="url(#clipPath12)" />
        <path
           id="path13"
           d="m 0,0 c -1.125,-1.266 -2.285,-2.461 -3.48,-3.586 -0.961,-0.797 -1.911,-1.652 -2.848,-2.566 -0.938,-0.914 -1.348,-2.051 -1.231,-3.411 0.235,-0.117 0.469,-0.222 0.704,-0.316 2.132,0.024 4.277,0.07 6.433,0.141 0.164,0.375 0.363,0.797 0.598,1.265 0.234,0.469 0.621,0.586 1.16,0.352 0.047,-0.422 0.199,-0.785 0.457,-1.09 -0.422,-0.984 -0.75,-2.004 -0.984,-3.059 -3.61,-0.07 -7.196,-0.175 -10.758,-0.316 -0.961,0.75 -1.102,1.734 -0.422,2.953 0.891,0.867 1.547,1.91 1.969,3.129 0.609,1.195 1.429,2.25 2.461,3.164 1.125,0.891 2.261,1.817 3.41,2.777 0.984,0.68 1.816,1.536 2.496,2.567 0.797,2.625 -0.235,3.914 -3.094,3.867 -1.5,0.094 -2.373,-0.568 -2.619,-1.986 -0.246,-1.418 -1.014,-2.256 -2.303,-2.514 -1.148,0.141 -2.109,0.645 -2.883,1.512 0,1.219 0.211,2.414 0.633,3.586 0.539,1.148 1.442,1.91 2.707,2.285 0.774,0.234 1.582,0.375 2.426,0.422 C -2.941,9.598 -1.09,8.988 0.387,7.348 1.16,6.293 1.699,5.156 2.004,3.938 2.355,3.047 2.332,2.355 1.934,1.863 1.395,1.113 0.75,0.492 0,0"
           style="fill:#231f20;fill-opacity:1;fill-rule:nonzero;stroke:none"
           transform="matrix(1.3333333,0,0,-1.3333333,315.9128,311.70093)"
           clip-path="url(#clipPath14)" />
        <path
           id="path15"
           d="m 0,0 c -1.219,-0.211 -2.426,-0.246 -3.621,-0.105 -1.242,0.093 -2.402,-0.141 -3.481,-0.704 -0.984,1.172 -1.23,2.497 -0.738,3.973 0.891,0.516 1.852,0.691 2.883,0.527 C -1.23,3.527 2.508,3.574 6.258,3.832 6.352,3.34 6.434,2.859 6.504,2.391 6.504,1.852 6.539,1.336 6.609,0.844 6.656,0.398 6.504,0.094 6.152,-0.07 4.09,0.141 2.039,0.164 0,0"
           style="fill:#231f20;fill-opacity:1;fill-rule:nonzero;stroke:none"
           transform="matrix(1.3333333,0,0,-1.3333333,345.4492,315.06933)"
           clip-path="url(#clipPath16)" />
        <path
           id="path17"
           d="M 0,0 C -1.805,-0.305 -3.551,-0.188 -5.238,0.352 -6.48,0.305 -7.699,0.164 -8.895,-0.07 c -0.421,0.117 -0.832,0.234 -1.23,0.351 0.469,0.938 1.207,1.442 2.215,1.512 1.008,0.07 1.98,0.059 2.918,-0.035 0.258,0.82 0.41,1.664 0.457,2.531 -0.047,1.031 -0.047,2.086 0,3.164 -0.07,3.961 0.246,7.899 0.949,11.813 -0.914,-0.024 -1.816,-0.141 -2.707,-0.352 -0.398,0.024 -0.727,0.176 -0.984,0.457 0.586,0.516 1.306,0.856 2.162,1.02 0.855,0.164 1.4,0.691 1.635,1.582 0.421,0.445 0.949,0.703 1.582,0.773 1.218,0.024 2.156,-0.48 2.812,-1.512 C 0.633,20.039 0.188,18.938 -0.422,17.93 -0.891,15.82 -1.09,13.688 -1.02,11.531 -0.809,9.914 -0.82,8.297 -1.055,6.68 -1.289,5.063 -1.242,3.457 -0.914,1.863 0.797,2.566 2.578,3.094 4.43,3.445 4.734,3.422 4.945,3.27 5.063,2.988 3.352,1.98 1.664,0.984 0,0"
           style="fill:#231f20;fill-opacity:1;fill-rule:nonzero;stroke:none"
           transform="matrix(1.3333333,0,0,-1.3333333,381.50133,329.6228)"
           clip-path="url(#clipPath18)" />
      </g>
    </g>
  </g>
</svg>
