<?xml version="1.0" encoding="UTF-8" standalone="no"?>
<!-- Created with Inkscape (http://www.inkscape.org/) -->

<svg
   version="1.1"
   id="svg1"
   width="415.74933"
   height="464.62668"
   viewBox="0 0 415.74933 464.62668"
   sodipodi:docname="06100288.svg"
   inkscape:version="1.4 (86a8ad7, 2024-10-11)"
   xmlns:inkscape="http://www.inkscape.org/namespaces/inkscape"
   xmlns:sodipodi="http://sodipodi.sourceforge.net/DTD/sodipodi-0.dtd"
   xmlns="http://www.w3.org/2000/svg"
   xmlns:svg="http://www.w3.org/2000/svg">
  <defs
     id="defs1">
    <clipPath
       clipPathUnits="userSpaceOnUse"
       id="clipPath4">
      <path
         d="M 0,348.47 H 311.812 V 0 H 0 Z"
         transform="translate(-215.77441,-330.15921)"
         id="path4" />
    </clipPath>
    <clipPath
       clipPathUnits="userSpaceOnUse"
       id="clipPath6">
      <path
         d="M 0,348.47 H 311.812 V 0 H 0 Z"
         transform="translate(-49.177701,-143.4014)"
         id="path6" />
    </clipPath>
    <clipPath
       clipPathUnits="userSpaceOnUse"
       id="clipPath8">
      <path
         d="M 0,348.47 H 311.812 V 0 H 0 Z"
         transform="translate(-88.794902,-172.6563)"
         id="path8" />
    </clipPath>
    <clipPath
       clipPathUnits="userSpaceOnUse"
       id="clipPath10">
      <path
         d="M 0,348.47 H 311.812 V 0 H 0 Z"
         transform="translate(-133.0771,-178.54301)"
         id="path10" />
    </clipPath>
    <clipPath
       clipPathUnits="userSpaceOnUse"
       id="clipPath12">
      <path
         d="M 0,348.47 H 311.812 V 0 H 0 Z"
         transform="translate(-171.79491,-172.6563)"
         id="path12" />
    </clipPath>
    <clipPath
       clipPathUnits="userSpaceOnUse"
       id="clipPath14">
      <path
         d="M 0,348.47 H 311.812 V 0 H 0 Z"
         transform="translate(-214.81251,-155.42381)"
         id="path14" />
    </clipPath>
    <clipPath
       clipPathUnits="userSpaceOnUse"
       id="clipPath16">
      <path
         d="M 0,348.47 H 311.812 V 0 H 0 Z"
         transform="translate(-272.59861,-178.2266)"
         id="path16" />
    </clipPath>
  </defs>
  <sodipodi:namedview
     id="namedview1"
     pagecolor="#ffffff"
     bordercolor="#000000"
     borderopacity="0.25"
     inkscape:showpageshadow="2"
     inkscape:pageopacity="0.0"
     inkscape:pagecheckerboard="0"
     inkscape:deskcolor="#d1d1d1"
     inkscape:zoom="1.904755"
     inkscape:cx="207.63825"
     inkscape:cy="231.26334"
     inkscape:window-width="1920"
     inkscape:window-height="1009"
     inkscape:window-x="-8"
     inkscape:window-y="-8"
     inkscape:window-maximized="1"
     inkscape:current-layer="g1">
    <inkscape:page
       x="0"
       y="0"
       inkscape:label="1"
       id="page1"
       width="415.74933"
       height="464.62668"
       margin="0"
       bleed="0" />
  </sodipodi:namedview>
  <g
     id="g1"
     inkscape:groupmode="layer"
     inkscape:label="1">
    <g
       id="group-MC0">
      <path
         id="path2"
         d="M 0,0 H 311.811 V 311.811 H 0 Z"
         style="fill:#ffffff;fill-opacity:1;fill-rule:nonzero;stroke:none"
         transform="matrix(1.3333333,0,0,-1.3333333,0,464.62667)" />
      <path
         id="path3"
         d="m 0,0 v 0.813 c -1.256,0.039 -2.344,0.692 -3.258,1.953 l -5.227,7.181 3.871,5.132 c 0.913,1.248 2.06,1.866 3.431,1.875 h 0.517 v 0.817 h -6.933 v -0.817 h 0.787 c 0.806,-0.009 1.224,-0.357 1.285,-1.062 -0.01,-0.282 -0.183,-0.726 -0.519,-1.304 l -2.909,-3.976 -3.036,4.763 c -0.309,0.422 -0.456,0.752 -0.444,0.987 -0.012,0.383 0.405,0.583 1.231,0.592 h 0.84 v 0.817 h -8.365 v -0.817 c 1.505,-0.009 2.553,-0.457 3.159,-1.357 l 4.789,-7.281 -4.345,-5.354 c -1.11,-1.396 -2.494,-2.11 -4.171,-2.149 V 0 h 7.306 v 0.813 h -0.617 c -1.197,-0.008 -1.788,0.383 -1.78,1.161 -0.008,0.357 0.213,0.827 0.645,1.41 l 3.43,4.219 3.429,-4.446 C -6.61,2.775 -6.429,2.331 -6.315,1.827 -6.39,1.148 -6.92,0.805 -7.895,0.813 H -8.39 L -8.39,0 H 0 M -23.017,9.429 H -40.145 V 7.824 h 17.128 z m -24.039,-5.01 c -0.008,1.887 -0.76,3.257 -2.269,4.119 -0.801,0.469 -1.91,0.804 -3.332,0.987 1.517,0.222 2.726,0.604 3.627,1.161 0.952,0.814 1.423,1.914 1.436,3.306 -0.013,1.422 -0.671,2.531 -1.975,3.336 -1.161,0.652 -2.483,0.974 -3.976,0.983 -1.456,-0.009 -2.714,-0.405 -3.774,-1.183 -0.962,-0.727 -1.445,-1.618 -1.432,-2.64 -0.013,-0.557 0.121,-1.001 0.396,-1.357 0.309,-0.357 0.713,-0.531 1.23,-0.518 0.458,-0.013 0.806,0.109 1.062,0.37 0.334,0.356 0.508,0.713 0.517,1.087 -0.009,0.331 -0.108,0.678 -0.316,1.035 -0.261,0.37 -0.384,0.692 -0.37,0.961 -0.014,0.335 0.157,0.631 0.491,0.888 0.37,0.308 0.953,0.456 1.753,0.469 2.171,-0.013 3.245,-1.331 3.258,-3.997 -0.013,-1.122 -0.322,-2 -0.941,-2.618 -0.825,-0.613 -1.787,-0.922 -2.86,-0.909 h -1.385 V 8.933 h 1.385 c 1.248,-0.013 2.243,-0.33 3.009,-0.987 0.805,-0.774 1.201,-1.948 1.209,-3.527 -0.008,-1.27 -0.343,-2.297 -1.009,-3.062 -0.531,-0.605 -1.445,-0.927 -2.741,-0.987 -1.012,0.06 -1.766,0.321 -2.27,0.791 -0.209,0.183 -0.309,0.457 -0.296,0.787 -0.013,0.287 0.087,0.618 0.296,0.988 0.175,0.409 0.258,0.743 0.27,1.013 -0.035,0.431 -0.196,0.826 -0.469,1.161 -0.257,0.257 -0.64,0.383 -1.157,0.396 -0.557,-0.013 -0.987,-0.226 -1.309,-0.644 -0.335,-0.408 -0.505,-0.874 -0.492,-1.431 -0.013,-1.209 0.678,-2.196 2.049,-2.961 1.157,-0.666 2.391,-0.975 3.701,-0.988 1.948,0.013 3.513,0.383 4.71,1.183 1.309,0.892 1.966,2.136 1.974,3.754 M -64.31,0 v 0.813 c -1.357,0.039 -2.27,0.631 -2.739,1.779 L -73.712,18.311 -76.3,17.08 -81.437,3.827 C -81.758,2.975 -82.176,2.235 -82.693,1.579 -83.324,1.061 -83.93,0.805 -84.521,0.813 h -0.543 V 0 h 6.616 v 0.813 h -0.618 c -0.719,-0.008 -1.248,0.148 -1.58,0.47 -0.187,0.174 -0.282,0.509 -0.273,0.987 -0.009,0.235 0.025,0.47 0.1,0.692 0.073,0.369 0.457,1.492 1.161,3.379 h 7.972 l 1.505,-3.675 c 0.121,-0.335 0.182,-0.57 0.196,-0.692 -0.014,-0.282 -0.108,-0.543 -0.295,-0.791 -0.309,-0.257 -0.727,-0.378 -1.283,-0.37 h -0.915 V 0 Z m -23.381,16.954 v 0.817 h -6.589 v -0.817 h 0.886 c 0.915,-0.009 1.396,-0.331 1.457,-0.962 0.014,-0.269 -0.147,-0.665 -0.469,-1.183 l -4.072,-6.245 -4.096,6.515 c -0.334,0.531 -0.505,0.926 -0.491,1.187 -0.014,0.457 0.443,0.679 1.357,0.688 h 0.712 v 0.817 h -8.093 v -0.817 c 0.705,-0.009 1.248,-0.096 1.652,-0.27 0.422,-0.335 0.853,-0.779 1.31,-1.309 l 5.206,-8.268 V 2.47 c -0.014,-1.113 -0.591,-1.665 -1.774,-1.657 h -0.792 V 0 h 8.168 v 0.813 h -0.862 c -1.209,-0.008 -1.814,0.583 -1.8,1.779 v 5.28 l 4.763,7.207 c 0.478,0.731 1.048,1.27 1.678,1.605 0.331,0.174 0.949,0.261 1.849,0.27 M -110.586,0 v 0.813 c -1.27,0.039 -2.296,0.596 -3.062,1.657 l -6.589,8.982 3.927,3.627 c 0.701,0.657 1.392,1.1 2.071,1.357 0.813,0.335 1.666,0.509 2.566,0.518 v 0.817 h -7.503 v -0.817 h 0.617 c 0.927,-0.009 1.418,-0.309 1.457,-0.888 -0.039,-0.269 -0.309,-0.691 -0.792,-1.257 l -7.08,-6.515 v 6.985 c -0.012,1.109 0.483,1.666 1.478,1.675 h 1.015 v 0.817 h -7.995 v -0.817 h 0.983 c 1.039,-0.009 1.545,-0.566 1.557,-1.675 V 2.592 c -0.012,-1.196 -0.557,-1.787 -1.652,-1.779 h -0.888 V 0 h 8.069 v 0.813 h -0.989 c -1.061,-0.008 -1.59,0.583 -1.578,1.779 v 4.541 l 2.666,2.444 4.836,-6.515 c 0.431,-0.618 0.654,-1.114 0.666,-1.483 -0.073,-0.518 -0.556,-0.774 -1.43,-0.766 h -0.814 V 0 Z m 38.605,7.133 h -7.381 l 3.58,9.059 z"
         style="fill:#231f20;fill-opacity:1;fill-rule:nonzero;stroke:none"
         transform="matrix(1.3333333,0,0,-1.3333333,287.6992,24.4144)"
         clip-path="url(#clipPath4)" />
      <g
         id="g2">
        <path
           id="path5"
           d="m 0,0 c 5.24,-1.094 9.388,0.501 12.441,4.785 0.775,2.278 0.57,4.466 -0.615,6.563 -2.461,2.278 -5.013,4.465 -7.656,6.562 -3.281,4.785 -2.666,9.183 1.846,13.194 1.914,1.868 4.192,3.303 6.836,4.306 2.642,1.002 5.286,0.911 7.929,-0.273 1.185,-1.003 1.8,-2.28 1.846,-3.828 0,-0.092 -0.023,-0.137 -0.068,-0.137 -1.277,-0.957 -2.53,-1.892 -3.76,-2.803 -0.137,-0.092 -0.205,-0.046 -0.205,0.137 -0.547,2.825 -2.211,4.329 -4.99,4.512 C 10.367,32.242 8.34,30.26 7.52,27.07 7.063,23.834 8.226,21.328 11.006,19.551 14.742,17.227 17.203,14.036 18.389,9.98 17.34,4.01 13.899,0 8.066,-2.051 1.139,-4.785 -5.264,-3.988 -11.143,0.342 c -0.045,0.045 -0.045,0.113 0,0.205 0.775,2.232 1.686,4.443 2.735,6.631 0.181,0.273 0.432,0.523 0.752,0.752 0.136,0.091 0.25,0.068 0.342,-0.069 C -6.357,3.76 -3.92,1.139 0,0"
           style="fill:#231f20;fill-opacity:1;fill-rule:nonzero;stroke:none"
           transform="matrix(1.3333333,0,0,-1.3333333,65.570267,273.4248)"
           clip-path="url(#clipPath6)"
           inkscape:label="path5" />
        <path
           id="path7"
           d="m 0,0 c -3.418,1.504 -6.677,1.275 -9.775,-0.684 -2.827,-2.918 -2.986,-5.994 -0.479,-9.228 0.045,-0.092 0.045,-0.184 0,-0.274 -0.957,-1.322 -1.914,-2.597 -2.871,-3.828 -0.137,-0.091 -0.251,-0.091 -0.342,0 -1.823,2.233 -2.575,4.785 -2.256,7.657 0.638,2.232 1.823,4.214 3.555,5.947 1.412,1.457 2.848,2.916 4.307,4.375 3.599,1.094 7.314,1.275 11.142,0.547 L 3.35,4.58 4.58,5.811 c 0.091,0.044 0.182,0.044 0.274,0 C 5.081,5.537 5.332,5.285 5.605,5.059 5.696,5.012 5.719,4.967 5.674,4.922 2.62,0.182 0.113,-4.785 -1.846,-9.98 c -1.093,-2.69 -1.823,-5.549 -2.187,-8.581 -0.365,-3.031 0.523,-5.685 2.666,-7.962 2.324,-1.278 4.671,-1.391 7.041,-0.342 2.369,1.047 4.58,2.277 6.631,3.691 l 0.068,0.069 c 1.868,8.203 3.782,16.406 5.742,24.609 0,0.137 -0.068,0.226 -0.205,0.273 h -2.461 c -0.182,0 -0.228,0.069 -0.136,0.205 0.227,0.364 0.478,0.752 0.751,1.163 0.045,0.136 0.16,0.205 0.342,0.205 2.324,0.363 4.649,0.752 6.973,1.162 0.091,0 0.159,-0.047 0.205,-0.137 -0.73,-3.145 -1.459,-6.268 -2.188,-9.365 -1.139,-4.877 -2.255,-9.754 -3.349,-14.629 -0.547,-1.869 -0.912,-3.738 -1.094,-5.606 -0.137,-0.775 0,-1.459 0.41,-2.05 1.641,-0.913 3.418,-1.141 5.332,-0.684 0.365,0.045 0.752,0.068 1.162,0.068 0.137,-0.047 0.206,-0.136 0.206,-0.273 -0.32,-0.365 -0.593,-0.731 -0.821,-1.094 -2.051,-0.594 -4.101,-1.025 -6.152,-1.299 -1.914,-0.683 -3.623,-0.457 -5.127,0.684 -0.365,1.457 -0.251,2.916 0.342,4.375 -0.046,0.137 -0.137,0.205 -0.274,0.205 -3.783,-2.645 -7.885,-4.422 -12.304,-5.332 -4.194,-0.684 -6.882,0.957 -8.067,4.922 -0.41,4.601 0.319,9.023 2.188,13.262 1.868,4.238 3.964,8.316 6.289,12.236 0.045,0.09 0,0.158 -0.137,0.205"
           style="fill:#231f20;fill-opacity:1;fill-rule:nonzero;stroke:none"
           transform="matrix(1.3333333,0,0,-1.3333333,118.3932,234.41827)"
           clip-path="url(#clipPath8)"
           inkscape:label="path7" />
        <path
           id="path9"
           d="m 0,0 c 3.919,-0.41 7.861,-0.798 11.826,-1.162 2.461,0 4.739,0.706 6.836,2.119 0.137,0 0.228,-0.068 0.274,-0.205 v -1.367 c 0,-0.137 -0.024,-0.229 -0.069,-0.274 -8.295,-8.112 -16.589,-16.201 -24.883,-24.267 -1.185,-1.14 -2.347,-2.28 -3.486,-3.418 -0.183,-0.32 -0.092,-0.502 0.273,-0.547 4.466,-0.092 8.887,-0.661 13.262,-1.709 2.871,-1.094 5.811,-1.391 8.819,-0.889 3.098,0.775 4.078,2.735 2.939,5.879 -0.639,1.367 -1.391,2.666 -2.256,3.897 -0.092,0.045 -0.068,0.113 0.069,0.205 1.458,0.774 2.961,1.594 4.511,2.461 0.091,0 0.182,-0.046 0.274,-0.137 1.367,-2.416 1.845,-4.968 1.435,-7.656 -0.41,-1.186 -1.049,-2.211 -1.914,-3.076 -1.596,-1.824 -3.19,-3.601 -4.785,-5.333 -1.14,-0.912 -2.438,-1.322 -3.896,-1.23 -3.692,0.364 -7.27,1.139 -10.733,2.324 -4.922,1.231 -9.684,1.139 -14.287,-0.273 -0.183,-0.092 -0.273,-0.046 -0.273,0.137 v 2.119 c -0.046,0.227 0.044,0.41 0.273,0.547 8.841,8.75 17.796,17.431 26.865,26.044 0.547,0.411 0.57,0.752 0.069,1.026 -4.239,-0.776 -8.432,-0.707 -12.579,0.205 -2.005,0.091 -3.646,-0.661 -4.921,-2.256 -1.687,-1.914 -3.054,-4.011 -4.102,-6.289 -0.137,-0.183 -0.229,-0.183 -0.273,0 -0.274,0.501 -0.525,1.025 -0.752,1.572 -0.046,0.091 -0.024,0.205 0.068,0.342 1.139,3.372 2.574,6.607 4.307,9.707 C -5.059,0.045 -2.689,0.547 0,0"
           style="fill:#231f20;fill-opacity:1;fill-rule:nonzero;stroke:none"
           transform="matrix(1.3333333,0,0,-1.3333333,177.43613,226.56933)"
           clip-path="url(#clipPath10)"
           inkscape:label="path9" />
        <path
           id="path11"
           d="m 0,0 c -3.418,1.504 -6.677,1.275 -9.775,-0.684 -2.827,-2.918 -2.986,-5.994 -0.479,-9.228 0.045,-0.092 0.045,-0.184 0,-0.274 -0.957,-1.322 -1.914,-2.597 -2.871,-3.828 -0.137,-0.091 -0.251,-0.091 -0.342,0 -1.823,2.233 -2.575,4.785 -2.256,7.657 0.638,2.232 1.823,4.214 3.555,5.947 1.412,1.457 2.848,2.916 4.307,4.375 3.599,1.094 7.314,1.275 11.142,0.547 L 3.35,4.58 4.58,5.811 c 0.091,0.044 0.182,0.044 0.274,0 C 5.081,5.537 5.332,5.285 5.605,5.059 5.696,5.012 5.719,4.967 5.674,4.922 2.62,0.182 0.113,-4.785 -1.846,-9.98 c -1.093,-2.69 -1.823,-5.549 -2.187,-8.581 -0.365,-3.031 0.523,-5.685 2.666,-7.962 2.324,-1.278 4.671,-1.391 7.041,-0.342 2.369,1.047 4.58,2.277 6.631,3.691 l 0.068,0.069 c 1.868,8.203 3.782,16.406 5.742,24.609 0,0.137 -0.068,0.226 -0.205,0.273 h -2.461 c -0.182,0 -0.228,0.069 -0.136,0.205 0.227,0.364 0.478,0.752 0.751,1.163 0.045,0.136 0.16,0.205 0.342,0.205 2.324,0.363 4.649,0.752 6.973,1.162 0.091,0 0.159,-0.047 0.205,-0.137 -0.73,-3.145 -1.459,-6.268 -2.188,-9.365 -1.139,-4.877 -2.255,-9.754 -3.349,-14.629 -0.547,-1.869 -0.912,-3.738 -1.094,-5.606 -0.137,-0.775 0,-1.459 0.41,-2.05 1.641,-0.913 3.418,-1.141 5.332,-0.684 0.365,0.045 0.752,0.068 1.162,0.068 0.137,-0.047 0.206,-0.136 0.206,-0.273 -0.32,-0.365 -0.593,-0.731 -0.821,-1.094 -2.051,-0.594 -4.101,-1.025 -6.152,-1.299 -1.914,-0.683 -3.623,-0.457 -5.127,0.684 -0.365,1.457 -0.251,2.916 0.342,4.375 -0.046,0.137 -0.137,0.205 -0.274,0.205 -3.783,-2.645 -7.885,-4.422 -12.304,-5.332 -4.194,-0.684 -6.882,0.957 -8.067,4.922 -0.41,4.601 0.319,9.023 2.188,13.262 1.868,4.238 3.964,8.316 6.289,12.236 0.045,0.09 0,0.158 -0.137,0.205"
           style="fill:#231f20;fill-opacity:1;fill-rule:nonzero;stroke:none"
           transform="matrix(1.3333333,0,0,-1.3333333,229.05987,234.41827)"
           clip-path="url(#clipPath12)"
           inkscape:label="path11" />
        <path
           id="path13"
           d="m 0,0 c 1.549,6.744 3.167,13.512 4.854,20.303 -0.046,0.091 -0.115,0.136 -0.206,0.136 -2.689,0.228 -5.172,-0.296 -7.451,-1.572 -2.78,-3.19 -3.168,-6.722 -1.162,-10.596 0,-0.136 -0.046,-0.205 -0.137,-0.205 -1.595,-0.592 -3.19,-1.185 -4.785,-1.777 -0.092,-0.046 -0.136,-0.023 -0.136,0.068 -2.188,5.287 -1.094,9.821 3.281,13.604 2.916,2.005 6.175,3.03 9.775,3.076 2.825,0.091 5.651,0.023 8.477,-0.205 0.091,-0.046 0.113,-0.114 0.068,-0.205 C 11.985,21.396 11.051,20.667 9.775,20.439 9.684,20.394 9.639,20.348 9.639,20.303 8.682,16.383 7.725,12.464 6.768,8.545 c 0,-0.183 0.09,-0.251 0.273,-0.205 2.825,2.096 5.65,4.238 8.477,6.426 2.734,2.415 5.742,4.488 9.023,6.22 2.232,1.002 4.557,1.231 6.973,0.684 0.09,-0.046 0.136,-0.114 0.136,-0.205 -0.912,-1.413 -1.823,-2.78 -2.734,-4.102 -0.092,-0.182 -0.205,-0.228 -0.342,-0.136 -2.597,0.546 -5.036,0.159 -7.314,-1.163 C 17.477,13.512 13.922,10.732 10.596,7.725 10.367,7.451 10.322,7.178 10.459,6.904 c 2.643,-5.97 5.377,-11.894 8.203,-17.773 1.231,-3.1 3.441,-4.877 6.631,-5.332 2.415,0.137 4.215,1.275 5.4,3.418 0.091,0.137 0.182,0.113 0.274,-0.069 0.41,-1.549 0.843,-3.076 1.299,-4.58 0,-0.136 -0.046,-0.205 -0.137,-0.205 -5.515,-2.006 -10.596,-1.276 -15.244,2.188 -2.234,1.777 -3.783,4.055 -4.649,6.836 C 10.23,-3.92 8.271,0.82 6.357,5.605 6.221,5.742 6.106,5.742 6.016,5.605 5.286,2.871 4.283,0.296 3.008,-2.119 1.458,-4.99 -0.57,-7.406 -3.076,-9.365 c -0.137,-0.183 -0.092,-0.274 0.137,-0.274 2.004,0.045 4.033,0.069 6.084,0.069 0.09,-0.046 0.136,-0.137 0.136,-0.274 -1.595,-1.823 -3.623,-2.734 -6.084,-2.734 -3.965,0 -7.907,0.022 -11.826,0.068 -0.183,0.045 -0.228,0.159 -0.137,0.342 0.912,0.82 1.869,1.641 2.871,2.461 0.091,0.045 0.228,0.091 0.411,0.137 2.505,-0.502 4.876,-0.069 7.109,1.299 C -2.097,-6.039 -0.639,-3.281 0,0"
           style="fill:#231f20;fill-opacity:1;fill-rule:nonzero;stroke:none"
           transform="matrix(1.3333333,0,0,-1.3333333,286.41667,257.39493)"
           clip-path="url(#clipPath14)"
           inkscape:label="path13" />
        <path
           id="path15"
           d="m 0,0 c -0.41,-0.593 -0.82,-1.14 -1.23,-1.641 -0.045,-0.091 -0.092,-0.114 -0.137,-0.068 -1.186,-0.137 -2.324,-0.273 -3.418,-0.41 -0.092,-0.046 -0.137,-0.092 -0.137,-0.137 -2.096,-8.978 -4.17,-17.956 -6.221,-26.933 -0.273,-1.277 -0.546,-2.553 -0.82,-3.829 -0.045,-0.136 0,-0.205 0.137,-0.205 1.596,-0.319 3.189,-0.592 4.785,-0.82 0.137,-0.092 0.16,-0.183 0.068,-0.273 -0.41,-0.411 -0.797,-0.798 -1.162,-1.163 -0.045,-0.091 -0.092,-0.114 -0.136,-0.068 h -14.083 c -0.228,0 -0.296,0.091 -0.205,0.274 0.229,0.364 0.479,0.752 0.752,1.162 h 0.069 c 1.367,0.273 2.758,0.591 4.17,0.957 0.045,0 0.091,0.022 0.136,0.068 2.051,8.932 4.125,17.864 6.221,26.797 0.318,1.275 0.639,2.574 0.957,3.896 0,0.091 -0.045,0.182 -0.137,0.274 -1.275,0.091 -2.529,0.205 -3.759,0.342 -0.182,0 -0.229,0.09 -0.137,0.273 0.365,0.547 0.775,1.116 1.23,1.709 0.045,0 0.092,0.023 0.137,0.068 H -0.205 C -0.023,0.228 0.045,0.137 0,0"
           style="fill:#231f20;fill-opacity:1;fill-rule:nonzero;stroke:none"
           transform="matrix(1.3333333,0,0,-1.3333333,363.4648,226.9912)"
           clip-path="url(#clipPath16)"
           inkscape:label="path15" />
      </g>
    </g>
  </g>
</svg>
