<?xml version="1.0" encoding="UTF-8" standalone="no"?>
<!-- Created with Inkscape (http://www.inkscape.org/) -->

<svg
   version="1.1"
   id="svg1"
   width="492.67334"
   height="492.672"
   viewBox="0 0 492.67334 492.672"
   sodipodi:docname="12038616.svg"
   inkscape:version="1.4 (86a8ad7, 2024-10-11)"
   xmlns:inkscape="http://www.inkscape.org/namespaces/inkscape"
   xmlns:sodipodi="http://sodipodi.sourceforge.net/DTD/sodipodi-0.dtd"
   xmlns="http://www.w3.org/2000/svg"
   xmlns:svg="http://www.w3.org/2000/svg">
  <defs
     id="defs1">
    <clipPath
       clipPathUnits="userSpaceOnUse"
       id="clipPath3">
      <path
         d="M 0,369.504 H 369.505 V 0 H 0 Z"
         id="path3" />
    </clipPath>
    <clipPath
       clipPathUnits="userSpaceOnUse"
       id="clipPath5">
      <path
         d="M 0,369.504 H 369.505 V 0 H 0 Z"
         id="path5" />
    </clipPath>
    <clipPath
       clipPathUnits="userSpaceOnUse"
       id="clipPath7">
      <path
         d="M 0,369.504 H 369.505 V 0 H 0 Z"
         transform="translate(-266.0479,-194.0938)"
         id="path7" />
    </clipPath>
    <clipPath
       clipPathUnits="userSpaceOnUse"
       id="clipPath9">
      <path
         d="M 0,369.504 H 369.505 V 0 H 0 Z"
         transform="translate(-74.451702,-130.6572)"
         id="path9" />
    </clipPath>
    <clipPath
       clipPathUnits="userSpaceOnUse"
       id="clipPath11">
      <path
         d="M 0,369.504 H 369.505 V 0 H 0 Z"
         transform="translate(-111.00051,-143.36721)"
         id="path11" />
    </clipPath>
    <clipPath
       clipPathUnits="userSpaceOnUse"
       id="clipPath13">
      <path
         d="M 0,369.504 H 369.505 V 0 H 0 Z"
         transform="translate(-137.4888,-133.5322)"
         id="path13" />
    </clipPath>
    <clipPath
       clipPathUnits="userSpaceOnUse"
       id="clipPath15">
      <path
         d="M 0,369.504 H 369.505 V 0 H 0 Z"
         transform="translate(-177.2251,-125.26461)"
         id="path15" />
    </clipPath>
    <clipPath
       clipPathUnits="userSpaceOnUse"
       id="clipPath17">
      <path
         d="M 0,369.504 H 369.505 V 0 H 0 Z"
         transform="translate(-218.70411,-145.88961)"
         id="path17" />
    </clipPath>
    <clipPath
       clipPathUnits="userSpaceOnUse"
       id="clipPath19">
      <path
         d="M 0,369.504 H 369.505 V 0 H 0 Z"
         transform="translate(-249.34081,-140.9922)"
         id="path19" />
    </clipPath>
    <clipPath
       clipPathUnits="userSpaceOnUse"
       id="clipPath21">
      <path
         d="M 0,369.504 H 369.505 V 0 H 0 Z"
         transform="translate(-329.19041,-184.23441)"
         id="path21" />
    </clipPath>
    <clipPath
       clipPathUnits="userSpaceOnUse"
       id="clipPath23">
      <path
         d="M 0,369.504 H 369.505 V 0 H 0 Z"
         transform="translate(-136.36911,-187.4004)"
         id="path23" />
    </clipPath>
  </defs>
  <sodipodi:namedview
     id="namedview1"
     pagecolor="#ffffff"
     bordercolor="#000000"
     borderopacity="0.25"
     inkscape:showpageshadow="2"
     inkscape:pageopacity="0.0"
     inkscape:pagecheckerboard="0"
     inkscape:deskcolor="#d1d1d1"
     inkscape:zoom="1.796327"
     inkscape:cx="246.89269"
     inkscape:cy="246.89269"
     inkscape:window-width="1920"
     inkscape:window-height="1009"
     inkscape:window-x="-8"
     inkscape:window-y="-8"
     inkscape:window-maximized="1"
     inkscape:current-layer="group-MC0">
    <inkscape:page
       x="0"
       y="0"
       inkscape:label="1"
       id="page1"
       width="492.67334"
       height="492.672"
       margin="0"
       bleed="0" />
  </sodipodi:namedview>
  <g
     id="g1"
     inkscape:groupmode="layer"
     inkscape:label="1">
    <g
       id="group-MC0">
      <path
         id="path2"
         d="M 369.004,0.5 H 0.501 v 368.504 h 368.503 z"
         style="fill:none;stroke:#221815;stroke-width:1;stroke-linecap:butt;stroke-linejoin:miter;stroke-miterlimit:4;stroke-dasharray:none;stroke-opacity:1"
         transform="matrix(1.3333333,0,0,-1.3333333,0,492.672)"
         clip-path="url(#clipPath3)" />
      <path
         id="path4"
         d="M 369.005,0.5 H 0.5 v 368.504 h 368.505 z"
         style="fill:none;stroke:#221815;stroke-width:1;stroke-linecap:butt;stroke-linejoin:miter;stroke-miterlimit:4;stroke-dasharray:none;stroke-opacity:1"
         transform="matrix(1.3333333,0,0,-1.3333333,0,492.672)"
         clip-path="url(#clipPath5)" />
      <g
         id="g3">
        <path
           id="path8"
           d="m 0,0 v -10.65 c -0.099,-1.163 -0.668,-1.733 -1.707,-1.707 -1.039,0.024 -1.62,0.593 -1.744,1.707 v 23.267 c 0.074,1.039 0.618,1.596 1.633,1.67 1.014,0.074 1.62,-0.408 1.818,-1.447 V 3.191 h 14.139 v 9.649 c 0.124,0.989 0.68,1.49 1.67,1.503 0.989,0.011 1.558,-0.477 1.707,-1.466 V -10.91 c -0.173,-0.99 -0.743,-1.473 -1.707,-1.447 -0.965,0.024 -1.535,0.519 -1.707,1.484 l 0,10.873 z"
           style="fill:#000000;fill-opacity:1;fill-rule:nonzero;stroke:none"
           transform="matrix(1.3333333,0,0,-1.3333333,99.268933,318.4624)"
           clip-path="url(#clipPath9)"
           inkscape:label="path8" />
        <path
           id="path10"
           d="M 0,0 C 0.148,1.088 0.755,1.633 1.818,1.633 2.882,1.633 3.488,1.088 3.637,0 v -23.639 c -0.173,-1.089 -0.792,-1.632 -1.856,-1.632 -1.063,0 -1.657,0.556 -1.781,1.669 z"
           style="fill:#000000;fill-opacity:1;fill-rule:nonzero;stroke:none"
           transform="matrix(1.3333333,0,0,-1.3333333,148.00067,301.51573)"
           clip-path="url(#clipPath11)"
           inkscape:label="path10" />
        <path
           id="path12"
           d="m 0,0 h 9.686 c 2.894,-0.297 4.687,0.928 5.38,3.674 0.372,2.721 -0.767,4.267 -3.414,4.639 H 0.816 C 0.321,8.213 0.049,7.929 0,7.459 Z m 0.074,-13.693 c -0.174,-1.039 -0.767,-1.572 -1.781,-1.596 -1.015,-0.025 -1.608,0.482 -1.781,1.521 V 9.277 c 0.42,1.485 1.459,2.214 3.117,2.19 H 10.91 c 5.294,-0.1 7.83,-2.759 7.608,-7.979 -0.223,-2.573 -1.522,-4.304 -3.897,-5.195 1.756,-0.792 2.795,-2.06 3.117,-3.804 0.322,-1.744 0.532,-3.458 0.631,-5.139 0.223,-0.743 0.488,-1.522 0.798,-2.338 0.31,-0.817 0.043,-1.46 -0.798,-1.93 -2.202,-0.495 -3.39,0.507 -3.562,3.006 -0.05,2.498 -0.582,4.886 -1.596,7.162 -1.213,1.212 -2.685,1.769 -4.416,1.67 H 0.074 Z"
           style="fill:#000000;fill-opacity:1;fill-rule:nonzero;stroke:none"
           transform="matrix(1.3333333,0,0,-1.3333333,183.3184,314.62907)"
           clip-path="url(#clipPath13)"
           inkscape:label="path12" />
        <path
           id="path14"
           d="m 0,0 c 4.206,-4.058 8.424,-4.058 12.655,0 3.513,4.873 3.513,9.771 0,14.695 C 8.424,18.678 4.206,18.666 0,14.658 -3.513,9.76 -3.513,4.873 0,0 M 15.178,16.773 C 20.002,10.365 19.965,4.008 15.067,-2.301 9.129,-7.57 3.241,-7.533 -2.598,-2.189 c -4.848,6.258 -4.836,12.517 0.037,18.777 5.864,5.467 11.776,5.529 17.739,0.185"
           style="fill:#000000;fill-opacity:1;fill-rule:nonzero;stroke:none"
           transform="matrix(1.3333333,0,0,-1.3333333,236.30013,325.65253)"
           clip-path="url(#clipPath15)"
           inkscape:label="path14" />
        <path
           id="path16"
           d="m 0,0 c 4.898,0.544 9.041,-0.916 12.432,-4.379 1.41,-1.534 1.384,-2.833 -0.075,-3.896 -0.941,-0.297 -1.669,-0.026 -2.189,0.816 -2.449,3.266 -5.74,4.663 -9.871,4.193 -2.549,-0.074 -4.156,-1.287 -4.824,-3.636 0.023,-2.03 1.05,-3.254 3.08,-3.674 3.76,-0.471 7.482,-1.2 11.17,-2.19 3.908,-2.152 4.947,-5.295 3.117,-9.425 -2.152,-3.019 -5.11,-4.565 -8.869,-4.639 -3.414,-0.396 -6.582,0.26 -9.5,1.967 -1.733,1.212 -3.006,2.795 -3.823,4.75 -0.619,1.088 -0.421,1.978 0.594,2.672 1.137,0.519 2.016,0.222 2.635,-0.891 0.816,-1.534 1.893,-2.833 3.228,-3.897 2.424,-1.261 4.997,-1.632 7.719,-1.113 1.93,0.173 3.506,1.076 4.731,2.709 1.224,1.633 0.859,3.179 -1.094,4.639 -1.856,0.766 -3.791,1.23 -5.809,1.391 -2.015,0.161 -3.976,0.539 -5.881,1.132 -3.414,0.99 -4.949,3.241 -4.601,6.754 C -6.891,-2.685 -4.281,-0.445 0,0"
           style="fill:#000000;fill-opacity:1;fill-rule:nonzero;stroke:none"
           transform="matrix(1.3333333,0,0,-1.3333333,291.60547,298.15253)"
           clip-path="url(#clipPath17)"
           inkscape:label="path16" />
        <path
           id="path18"
           d="m 0,0 v -6.902 h 15.029 c 1.063,-0.05 1.627,-0.57 1.688,-1.559 0.062,-0.99 -0.426,-1.559 -1.465,-1.707 H 0 v -7.941 c 0.049,-0.52 0.334,-0.805 0.854,-0.854 h 15.177 c 1.114,-0.1 1.67,-0.656 1.67,-1.67 0,-1.014 -0.556,-1.558 -1.67,-1.633 H -0.52 c -1.658,0 -2.597,0.804 -2.82,2.412 v 21.45 c 0.272,1.508 1.199,2.312 2.783,2.412 h 16.18 C 16.76,3.982 17.361,3.463 17.422,2.449 17.484,1.435 16.934,0.902 15.771,0.854 H 0.854 C 0.334,0.779 0.049,0.494 0,0"
           style="fill:#000000;fill-opacity:1;fill-rule:nonzero;stroke:none"
           transform="matrix(1.3333333,0,0,-1.3333333,332.4544,304.6824)"
           clip-path="url(#clipPath19)"
           inkscape:label="path18" />
      </g>
      <path
         id="path20"
         d="M 0,0 C -3.326,0.572 -7.238,2.732 -9.775,4.833 -9.822,4.791 -9.877,4.729 -9.938,4.688 c 2.303,-2.377 4.741,-6.127 5.575,-9.398 1.037,-4.155 -2.467,-7.449 -5.5,-5.805 -1.84,1.006 -1.957,0.804 -3.283,-0.027 -2.92,-1.812 -6.625,0.859 -5.864,5.088 0.276,1.491 0.899,3.373 1.557,4.904 -2.158,-3.892 -6.971,-6.901 -9.701,-7.513 -62.707,-13.773 -180.922,8.225 -277.045,-10.257 -0.071,-0.012 -0.144,-0.028 -0.202,-0.042 -2.116,-0.496 -1.253,1.283 -0.062,1.967 95.934,18.503 213.565,-2.569 276.842,9.997 2.363,0.466 6.535,3.426 8.422,6.93 -1.231,-0.659 -3.332,-1.112 -4.512,-1.417 -4.174,-1.053 -7.473,2.467 -5.822,5.486 1.008,1.839 0.803,1.954 -0.014,3.283 -1.066,1.74 -0.568,3.706 0.875,4.917 2.127,1.588 3.926,1.239 5.065,0.772 3.003,-0.699 6.212,-2.218 8.712,-4.128 -2.308,2.582 -4.189,6.023 -5.005,9.209 -0.426,1.606 -0.149,3.035 0.492,4.082 2.451,3.256 4.627,0.309 7.08,0.267 1.43,0.187 4.654,2.317 6.158,0.216 0.77,-1.049 1.193,-2.522 0.916,-4.198 -0.568,-3.229 -2.625,-7.034 -4.684,-9.589 0.032,-0.028 0.043,-0.044 0.075,-0.074 2.595,2.437 6.199,4.433 9.498,5.298 C 3.809,15.745 6.74,12.247 5.146,9.198 4.436,7.813 4.244,7.664 5.395,5.928 7.236,3.023 4.23,-0.725 0,0"
         style="fill:#59b224;fill-opacity:1;fill-rule:nonzero;stroke:none"
         transform="matrix(1.3333333,0,0,-1.3333333,438.92053,247.02613)"
         clip-path="url(#clipPath21)" />
      <g
         id="g2">
        <path
           id="path6"
           d="m 0,0 c 2.754,-1.857 3.383,-4.043 1.887,-6.559 -1.678,-2.574 -3.864,-2.964 -6.559,-1.168 -1.918,1.079 -3.863,2.457 -5.84,4.133 -2.515,1.977 -2.816,4.162 -0.898,6.559 1.736,2.215 3.803,2.336 6.199,0.359 C -3.355,1.945 -1.617,0.838 0,0 m -20.934,16.441 h 11.5 v 6.02 h -11.5 z m 0,13.836 h 11.5 v 5.93 h -11.5 z m 0,13.746 h 11.5 v 5.84 h -11.5 z m -4.402,-39.89 c 2.934,1.976 5.15,1.617 6.648,-1.078 1.557,-2.576 0.989,-4.672 -1.707,-6.289 -2.457,-2.036 -5.21,-3.774 -8.265,-5.211 -2.996,-1.198 -5.121,-0.479 -6.379,2.156 -1.258,2.816 -0.359,4.82 2.695,6.019 2.516,1.137 4.852,2.606 7.008,4.403 m -18.957,31.445 h 4.582 v 11.41 h -4.582 z m -12.398,0 h 4.582 v 11.41 h -4.582 z m 26.054,30.727 c 0.239,-1.379 -0.045,-2.666 -0.853,-3.864 -0.809,-1.199 -2.201,-1.796 -4.178,-1.796 h -8.625 v -4.493 h 4.941 c 4.971,0 7.457,-2.486 7.457,-7.457 V 33.871 c 0,-4.973 -2.486,-7.457 -7.457,-7.457 h -4.941 V 22.73 c 1.797,-1.019 3.773,-2.486 5.93,-4.402 2.156,-1.918 3.863,-3.715 5.121,-5.39 2.035,-2.817 1.945,-5.153 -0.27,-7.008 -2.576,-1.858 -4.672,-1.469 -6.289,1.168 -0.48,1.136 -1.004,2.185 -1.572,3.144 -0.57,0.957 -1.543,2.606 -2.92,4.942 V -4.941 c 0,-2.934 -1.318,-4.403 -3.953,-4.403 -2.576,0 -3.863,1.469 -3.863,4.403 v 19.586 c -1.139,-3.055 -2.412,-5.84 -3.819,-8.356 -1.408,-2.516 -2.801,-4.883 -4.177,-7.098 -1.977,-2.754 -4.313,-3.173 -7.008,-1.257 -2.037,1.976 -1.977,4.252 0.179,6.828 2.875,3.773 5.539,7.515 7.996,11.23 2.456,3.713 4.403,7.188 5.84,10.422 h -3.953 c -5.031,0 -7.547,2.484 -7.547,7.457 v 14.824 c 0,4.971 2.516,7.457 7.547,7.457 h 4.942 v 4.493 h -8.176 c -2.637,0 -4.164,0.687 -4.582,2.066 -0.18,-0.359 -0.42,-0.719 -0.719,-1.078 -2.098,-2.637 -4.402,-2.756 -6.918,-0.36 -1.498,1.618 -3.475,3.293 -5.93,5.032 -2.875,2.095 -3.384,4.461 -1.527,7.097 2.096,2.575 4.582,2.696 7.457,0.36 2.156,-1.617 4.162,-3.324 6.02,-5.121 0.658,-0.661 1.078,-1.168 1.257,-1.528 0.539,1.856 2.186,2.785 4.942,2.785 h 8.176 v 2.606 c 0,2.934 1.287,4.402 3.863,4.402 2.635,0 3.953,-1.468 3.953,-4.402 v -2.606 h 8.715 c 1.316,0 2.574,-0.419 3.773,-1.257 -0.06,3.652 1.647,5.48 5.121,5.48 h 23.989 c 3.472,0 5.211,-1.527 5.211,-4.582 0,-3.055 -1.739,-4.582 -5.211,-4.582 h -7.368 c -0.359,-2.098 -0.929,-4.074 -1.707,-5.93 h 4.043 c 4.971,0 7.457,-2.486 7.457,-7.457 V 14.645 c 0,-4.973 -2.486,-7.457 -7.457,-7.457 h -13.566 c -4.973,0 -7.457,2.484 -7.457,7.457 V 51.57 c 0,4.971 2.484,7.457 7.457,7.457 h 0.629 c 0.719,1.916 1.316,3.893 1.797,5.93 h -7.547 c -1.797,0 -3.205,0.449 -4.223,1.348 M -75.109,39.172 c -1.797,1.676 -3.834,3.443 -6.11,5.301 -2.756,2.156 -3.295,4.461 -1.617,6.918 1.676,2.455 3.982,2.664 6.918,0.629 2.275,-1.559 4.402,-3.415 6.379,-5.571 2.394,-2.217 2.725,-4.492 0.988,-6.828 -2.097,-2.516 -4.283,-2.666 -6.558,-0.449 m 8.265,-15.274 c -0.898,-5.39 -2.082,-10.767 -3.549,-16.127 -1.468,-5.361 -3.041,-9.988 -4.716,-13.88 -1.498,-3.174 -3.625,-4.133 -6.379,-2.875 -2.637,1.257 -3.235,3.504 -1.797,6.738 1.676,4.432 3.189,9.088 4.537,13.971 1.348,4.88 2.439,9.658 3.279,14.33 0.539,3.353 2.336,4.73 5.391,4.133 2.933,-0.6 4.012,-2.696 3.234,-6.29"
           style="fill:#000000;fill-opacity:1;fill-rule:nonzero;stroke:none"
           transform="matrix(1.3333333,0,0,-1.3333333,354.73053,233.88027)"
           clip-path="url(#clipPath7)"
           inkscape:label="path6" />
        <path
           id="path22"
           d="m 0,0 c 2.471,-0.542 7.777,-2.14 11.719,-2.814 2.036,-0.347 3.596,-0.277 4.639,1.142 1.43,1.957 0.922,4.779 -0.99,6.013 C 13.044,5.837 10.633,6.057 7.381,6.775 2.978,7.748 -1.408,8.788 -5.784,9.59 -7.663,9.935 -9.065,10.296 -10.65,9.285 -12.077,8.375 -12.751,6.698 -12.397,5.176 -12.072,3.779 -10.584,2.494 -9.28,2.133 -6.328,1.315 -3.265,0.802 0,0 m -39.563,7.293 c -2.784,-0.483 -5.639,-1.367 -9.206,-1.823 -1.414,-0.18 -3.446,-0.271 -4.866,-1.294 -0.458,-0.327 -0.867,-0.733 -1.141,-1.214 -0.828,-1.446 -0.523,-3.583 0.683,-4.798 0.391,-0.395 0.907,-0.684 1.443,-0.837 2.048,-0.589 5.402,0.255 6.851,0.531 7.044,1.363 11.962,1.985 17.042,4.338 0.931,0.434 1.868,1.136 2.28,2.133 0.877,2.077 -0.148,4.525 -2.127,5.247 -1.718,0.63 -3.521,-0.123 -5.176,-0.68 -1.892,-0.647 -3.839,-1.122 -5.783,-1.603 m -7.594,26.686 -0.059,-17.095 c -0.003,-0.737 0.119,-1.468 0.379,-2.127 0.555,-1.414 1.709,-2.567 3.118,-3.122 0.662,-0.262 1.398,-0.377 2.134,-0.377 H 2.924 c 0.731,0.06 1.469,0.115 2.13,0.377 1.41,0.555 2.563,1.715 3.118,3.122 0.259,0.659 0.376,1.392 0.378,2.127 l 0.075,17.095 c -0.164,1.275 -0.632,3.074 -1.748,4.158 -1.1,1.075 -2.78,1.677 -3.953,1.677 h -18.34 l -0.017,3.753 23.916,0.003 c 0.464,0 0.926,0.042 1.369,0.155 0.479,0.12 0.937,0.352 1.297,0.684 1.078,1 1.484,2.833 0.837,4.109 -0.446,0.869 -1.248,1.533 -2.207,1.825 -0.461,0.14 -0.952,0.151 -1.444,0.154 l -10.518,0.045 v 5.227 l 6.816,0.032 c 0.467,-0.004 0.932,0.016 1.37,0.147 1.859,0.584 2.838,2.755 1.979,4.643 -0.377,0.826 -1.085,1.548 -1.979,1.831 -0.438,0.131 -0.903,0.147 -1.37,0.147 l -6.816,-0.003 0.082,5.293 h 15.368 c 0.817,0 2.176,0.37 3.046,1.143 1.334,1.188 1.659,3.117 0.984,4.64 -0.215,0.494 -0.569,0.924 -0.984,1.295 -0.87,0.772 -2.229,1.141 -3.046,1.141 h -32.031 v 3.267 c 0,0.86 -0.413,2.326 -1.293,3.2 -1.25,1.241 -3.159,1.615 -4.867,0.984 -0.591,-0.214 -1.145,-0.544 -1.6,-0.984 -0.885,-0.859 -1.289,-2.325 -1.289,-3.2 v -3.267 h -25.868 c -1.353,0 -4.029,-0.736 -5.554,-2.286 -1.503,-1.516 -2.205,-4.145 -2.205,-5.474 V 32.94 c -0.086,-2.545 -0.164,-5.091 -0.461,-7.612 -0.289,-2.497 -0.792,-4.968 -1.291,-7.453 -0.712,-3.55 -2.92,-8.484 -4.642,-13.542 -0.563,-1.652 -0.9,-3.481 0.305,-4.948 1.128,-1.359 3.369,-1.672 4.792,-1.139 1.119,0.423 1.894,1.44 2.435,2.433 2.487,4.544 3.696,9.013 5.021,14.761 1.42,6.15 1.979,13.971 1.979,18.181 v 32.187 c 0.025,0.285 0.053,0.57 0.153,0.836 0.189,0.506 0.604,0.964 1.141,1.141 0.259,0.082 0.548,0.074 0.834,0.074 h 13.089 l -0.009,-5.293 -5.202,0.07 c -0.413,-0.003 -0.818,-0.099 -1.206,-0.219 -0.904,-0.275 -1.595,-1.005 -1.977,-1.83 -0.413,-0.879 -0.361,-1.75 0,-2.656 0.167,-0.426 0.374,-0.831 0.683,-1.146 0.639,-0.648 1.626,-0.842 2.436,-0.988 l 5.266,-0.028 v -5.227 l -8.375,-0.052 c -0.458,0.035 -0.921,-0.035 -1.371,-0.153 -0.955,-0.242 -1.763,-1.076 -2.126,-1.978 -0.385,-0.94 -0.385,-1.743 0,-2.662 0.369,-0.89 1.174,-1.733 2.126,-1.976 0.45,-0.116 0.913,-0.154 1.371,-0.154 h 23.366 l 0.003,-3.753 h -18.485 c -1.172,0 -2.855,-0.602 -3.958,-1.677 -1.113,-1.084 -1.673,-2.936 -1.614,-4.158 M -15.424,23.335 H 1.239 V 19.92 C 1.17,19.419 1.087,18.862 0.86,18.46 0.607,18.009 0.209,17.854 -0.131,17.727 h -15.293 z m 0,10.389 H -0.131 C 0.222,33.566 0.61,33.499 0.86,33.095 1.108,32.689 1.142,32.054 1.239,31.474 v -2.998 h -16.663 z m -14.65,16.818 0.053,5.268 h 19.704 l -0.059,-5.268 z m 19.698,12.024 h -19.698 l 0.053,5.293 h 19.704 z M -23.108,17.727 h -15.137 c -0.343,0.127 -0.738,0.282 -0.989,0.733 -0.231,0.402 -0.309,0.959 -0.384,1.46 v 3.415 h 16.51 z m 0,15.997 v -5.248 h -16.51 v 2.998 c 0.098,0.58 0.137,1.215 0.384,1.621 0.248,0.404 0.635,0.471 0.989,0.629 z"
           style="fill:#000000;fill-opacity:1;fill-rule:nonzero;stroke:none"
           transform="matrix(1.3333333,0,0,-1.3333333,181.82547,242.8048)"
           clip-path="url(#clipPath23)"
           inkscape:label="path22" />
      </g>
    </g>
  </g>
</svg>
