<?xml version="1.0" encoding="UTF-8" standalone="no"?>
<!-- Created with Inkscape (http://www.inkscape.org/) -->

<svg
   version="1.1"
   id="svg1"
   width="453.36533"
   height="453.34799"
   viewBox="0 0 453.36533 453.34799"
   sodipodi:docname="12166430.svg"
   inkscape:version="1.4 (86a8ad7, 2024-10-11)"
   xmlns:inkscape="http://www.inkscape.org/namespaces/inkscape"
   xmlns:sodipodi="http://sodipodi.sourceforge.net/DTD/sodipodi-0.dtd"
   xmlns="http://www.w3.org/2000/svg"
   xmlns:svg="http://www.w3.org/2000/svg">
  <defs
     id="defs1">
    <clipPath
       clipPathUnits="userSpaceOnUse"
       id="clipPath3">
      <path
         d="M 0,340.011 H 340.024 V 0 H 0 Z"
         id="path3" />
    </clipPath>
    <clipPath
       clipPathUnits="userSpaceOnUse"
       id="clipPath5">
      <path
         d="M 0,340.011 H 340.024 V 0 H 0 Z"
         transform="translate(-138.0835,-138.3457)"
         id="path5" />
    </clipPath>
    <clipPath
       clipPathUnits="userSpaceOnUse"
       id="clipPath7">
      <path
         d="M 0,340.011 H 340.024 V 0 H 0 Z"
         transform="translate(-216.9448,-98.257802)"
         id="path7" />
    </clipPath>
    <clipPath
       clipPathUnits="userSpaceOnUse"
       id="clipPath9">
      <path
         d="M 0,340.011 H 340.024 V 0 H 0 Z"
         transform="translate(-72.718802,-42.881799)"
         id="path9" />
    </clipPath>
    <clipPath
       clipPathUnits="userSpaceOnUse"
       id="clipPath11">
      <path
         d="M 0,340.011 H 340.024 V 0 H 0 Z"
         transform="translate(-94.7173,-47.381799)"
         id="path11" />
    </clipPath>
    <clipPath
       clipPathUnits="userSpaceOnUse"
       id="clipPath13">
      <path
         d="M 0,340.011 H 340.024 V 0 H 0 Z"
         transform="translate(-123.1323,-41.179704)"
         id="path13" />
    </clipPath>
    <clipPath
       clipPathUnits="userSpaceOnUse"
       id="clipPath15">
      <path
         d="M 0,340.011 H 340.024 V 0 H 0 Z"
         transform="translate(-143.9092,-62.308599)"
         id="path15" />
    </clipPath>
    <clipPath
       clipPathUnits="userSpaceOnUse"
       id="clipPath17">
      <path
         d="M 0,340.011 H 340.024 V 0 H 0 Z"
         transform="translate(-164.84571,-47.356404)"
         id="path17" />
    </clipPath>
    <clipPath
       clipPathUnits="userSpaceOnUse"
       id="clipPath19">
      <path
         d="M 0,340.011 H 340.024 V 0 H 0 Z"
         transform="translate(-196.3999,-42.881799)"
         id="path19" />
    </clipPath>
    <clipPath
       clipPathUnits="userSpaceOnUse"
       id="clipPath21">
      <path
         d="M 0,340.011 H 340.024 V 0 H 0 Z"
         transform="translate(-223.48681,-60.786099)"
         id="path21" />
    </clipPath>
    <clipPath
       clipPathUnits="userSpaceOnUse"
       id="clipPath23">
      <path
         d="M 0,340.011 H 340.024 V 0 H 0 Z"
         transform="translate(-247.8403,-41.179704)"
         id="path23" />
    </clipPath>
    <clipPath
       clipPathUnits="userSpaceOnUse"
       id="clipPath25">
      <path
         d="M 0,340.011 H 340.024 V 0 H 0 Z"
         transform="translate(-267.81591,-60.786099)"
         id="path25" />
    </clipPath>
  </defs>
  <sodipodi:namedview
     id="namedview1"
     pagecolor="#ffffff"
     bordercolor="#000000"
     borderopacity="0.25"
     inkscape:showpageshadow="2"
     inkscape:pageopacity="0.0"
     inkscape:pagecheckerboard="0"
     inkscape:deskcolor="#d1d1d1"
     inkscape:zoom="1.9521428"
     inkscape:cx="227.18625"
     inkscape:cy="226.67399"
     inkscape:window-width="1920"
     inkscape:window-height="1009"
     inkscape:window-x="-8"
     inkscape:window-y="-8"
     inkscape:window-maximized="1"
     inkscape:current-layer="g1">
    <inkscape:page
       x="0"
       y="0"
       inkscape:label="1"
       id="page1"
       width="453.36533"
       height="453.34799"
       margin="0"
       bleed="0" />
  </sodipodi:namedview>
  <g
     id="g1"
     inkscape:groupmode="layer"
     inkscape:label="1">
    <g
       id="group-MC0">
      <path
         id="path2"
         d="M 339.524,0.5 H 0.5 v 339.011 h 339.024 z"
         style="fill:none;stroke:#363639;stroke-width:1;stroke-linecap:butt;stroke-linejoin:miter;stroke-miterlimit:4;stroke-dasharray:none;stroke-opacity:1"
         transform="matrix(1.3333333,0,0,-1.3333333,0,453.348)"
         clip-path="url(#clipPath3)" />
      <g
         id="g3">
        <path
           id="path4"
           d="m 0,0 c -0.308,0 -0.703,0.075 -1.186,0.229 -0.483,0.154 -0.724,0.582 -0.724,1.285 0,0.703 0.251,1.142 0.757,1.317 0.505,0.175 0.889,0.265 1.153,0.265 h 7.441 c 0.965,0 1.733,-0.145 2.304,-0.428 0.57,-0.286 1.009,-0.682 1.318,-1.188 0.305,-0.504 0.526,-1.064 0.658,-1.678 0.131,-0.615 0.24,-1.251 0.329,-1.911 0.438,-2.985 1.031,-5.575 1.778,-7.769 0.746,-2.196 1.536,-4.095 2.37,-5.697 0.834,-1.601 1.678,-2.952 2.535,-4.049 0.856,-1.099 1.614,-1.998 2.272,-2.7 0.306,-0.307 0.461,-0.703 0.461,-1.185 0,-0.483 -0.155,-0.856 -0.461,-1.12 -0.308,-0.262 -0.658,-0.394 -1.053,-0.394 -0.308,0 -1.011,0.394 -2.107,1.185 -1.098,0.79 -2.349,1.932 -3.754,3.424 -1.405,1.492 -2.821,3.314 -4.248,5.465 -1.427,2.15 -2.623,4.566 -3.588,7.244 -0.308,0.921 -0.658,2.084 -1.053,3.49 C 4.807,-2.811 4.454,-1.581 4.148,-0.527 4.059,-0.177 3.687,0 3.029,0 Z m -3.095,-3.408 c 0,-0.354 -0.22,-1.219 -0.659,-2.603 -0.439,-1.382 -1.174,-3.061 -2.206,-5.036 -1.032,-1.974 -2.36,-4.117 -3.983,-6.422 -1.625,-2.303 -3.645,-4.533 -6.058,-6.681 -0.221,-0.221 -0.439,-0.396 -0.659,-0.528 -0.22,-0.133 -0.484,-0.198 -0.79,-0.198 -0.439,0 -0.813,0.153 -1.119,0.462 -0.308,0.307 -0.461,0.658 -0.461,1.054 0,0.304 0.053,0.569 0.163,0.79 0.111,0.218 0.298,0.461 0.561,0.724 1.096,1.491 2.041,3.017 2.831,4.575 0.79,1.56 1.471,3.117 2.041,4.675 0.57,1.56 1.031,3.096 1.384,4.61 0.35,1.514 0.635,2.931 0.856,4.248 0.087,0.439 0.174,0.887 0.263,1.349 0.087,0.461 0.275,0.889 0.558,1.285 0.286,0.395 0.66,0.711 1.12,0.954 0.461,0.242 1.087,0.363 1.878,0.363 1.316,0 2.358,-0.395 3.126,-1.185 0.77,-0.79 1.154,-1.603 1.154,-2.436 m -5.992,-44.054 c 1.843,0.175 3.687,0.372 5.531,0.594 1.844,0.218 3.621,0.437 5.333,0.658 1.713,0.219 3.304,0.449 4.774,0.69 1.47,0.242 2.756,0.451 3.852,0.626 -0.175,0.438 -0.406,0.966 -0.692,1.581 -0.284,0.615 -0.636,1.371 -1.053,2.271 -0.416,0.9 -0.932,1.954 -1.547,3.161 -0.615,1.207 -1.361,2.623 -2.239,4.246 -0.131,0.221 -0.23,0.418 -0.297,0.595 -0.066,0.175 -0.097,0.371 -0.097,0.593 0,0.437 0.152,0.801 0.46,1.085 0.307,0.284 0.659,0.428 1.054,0.428 0.306,0 0.559,-0.054 0.757,-0.164 0.197,-0.112 0.428,-0.341 0.692,-0.692 1.536,-1.624 3.071,-3.446 4.609,-5.464 1.536,-2.02 2.941,-3.964 4.214,-5.829 1.273,-1.865 2.305,-3.534 3.095,-5.005 0.79,-1.47 1.185,-2.514 1.185,-3.127 0,-0.878 -0.384,-1.723 -1.153,-2.535 -0.768,-0.812 -1.788,-1.218 -3.061,-1.218 -0.834,0 -1.527,0.197 -2.075,0.592 -0.548,0.396 -0.932,0.88 -1.151,1.449 -0.045,0.176 -0.155,0.517 -0.33,1.021 -0.175,0.506 -0.352,1.031 -0.527,1.579 -0.176,0.55 -0.341,1.088 -0.494,1.614 -0.153,0.526 -0.274,0.899 -0.362,1.12 -1.316,-0.395 -2.92,-0.855 -4.807,-1.384 -1.888,-0.526 -3.852,-1.052 -5.894,-1.58 -2.041,-0.526 -4.093,-1.031 -6.156,-1.513 -2.064,-0.484 -3.951,-0.923 -5.662,-1.318 -1.712,-0.396 -3.162,-0.724 -4.347,-0.988 -1.185,-0.263 -1.932,-0.395 -2.238,-0.395 -0.704,0 -1.351,0.308 -1.943,0.923 -0.594,0.615 -0.888,1.448 -0.888,2.501 0,0.702 0.119,1.262 0.361,1.68 0.242,0.415 0.614,0.745 1.119,0.987 0.506,0.242 1.13,0.407 1.877,0.493 0.747,0.089 1.647,0.176 2.7,0.265 0.791,2.063 1.47,3.841 2.042,5.333 0.57,1.492 1.074,2.874 1.514,4.15 0.437,1.271 0.856,2.489 1.251,3.652 0.395,1.164 0.778,2.392 1.152,3.689 0.373,1.294 0.779,2.764 1.219,4.41 0.437,1.647 0.943,3.59 1.514,5.83 0.351,1.359 0.822,2.314 1.416,2.862 0.591,0.549 1.371,0.826 2.337,0.826 0.527,0 1.075,-0.079 1.646,-0.231 0.57,-0.156 1.107,-0.408 1.613,-0.758 0.506,-0.353 0.911,-0.769 1.22,-1.251 0.305,-0.484 0.46,-1.076 0.46,-1.778 0,-0.396 -0.055,-0.791 -0.165,-1.185 -0.11,-0.395 -0.319,-0.945 -0.625,-1.647 -0.966,-2.064 -1.933,-4.16 -2.898,-6.289 -0.965,-2.129 -1.932,-4.203 -2.897,-6.221 -0.966,-2.021 -1.91,-3.951 -2.832,-5.796 -0.922,-1.844 -1.777,-3.555 -2.567,-5.136 m -15.093,-5.183 c 0,-0.263 -0.023,-0.636 -0.067,-1.119 -0.043,-0.483 -0.164,-0.954 -0.363,-1.417 -0.199,-0.46 -0.531,-0.855 -0.994,-1.184 -0.461,-0.328 -1.135,-0.494 -2.017,-0.494 -0.837,0 -1.499,0.166 -1.984,0.494 -0.485,0.329 -0.827,0.715 -1.025,1.153 -0.199,0.439 -0.321,0.91 -0.365,1.414 -0.044,0.507 -0.066,0.89 -0.066,1.153 v 24.561 c -0.878,-1.975 -1.8,-3.807 -2.765,-5.499 -0.966,-1.69 -1.888,-3.139 -2.766,-4.345 -0.879,-1.207 -1.669,-2.152 -2.37,-2.832 -0.704,-0.679 -1.229,-1.02 -1.581,-1.02 -0.439,0 -0.812,0.133 -1.119,0.395 -0.308,0.264 -0.461,0.636 -0.461,1.12 0,0.306 0.043,0.536 0.131,0.69 0.088,0.154 0.198,0.341 0.33,0.561 0.702,0.922 1.514,2.184 2.436,3.786 0.922,1.601 1.855,3.534 2.799,5.794 0.943,2.26 1.854,4.829 2.733,7.705 0.877,2.875 1.602,6.047 2.173,9.514 h -7.639 c -0.352,0 -0.757,0.102 -1.219,0.299 -0.46,0.199 -0.691,0.63 -0.691,1.293 0,0.662 0.241,1.094 0.725,1.294 0.482,0.198 0.877,0.298 1.185,0.298 h 8.099 V 1.174 c 0,0.264 0.022,0.637 0.066,1.121 0.044,0.482 0.166,0.953 0.365,1.414 0.198,0.461 0.529,0.866 0.991,1.219 0.463,0.351 1.114,0.527 1.953,0.527 0.926,0 1.621,-0.176 2.082,-0.527 0.463,-0.353 0.795,-0.758 0.994,-1.219 0.199,-0.461 0.32,-0.932 0.363,-1.414 0.044,-0.484 0.067,-0.857 0.067,-1.121 V -9.031 h 5.795 c 0.262,0 0.635,-0.089 1.119,-0.267 0.482,-0.177 0.724,-0.618 0.724,-1.325 0,-0.705 -0.242,-1.149 -0.724,-1.326 -0.484,-0.177 -0.857,-0.266 -1.119,-0.266 h -5.795 v -0.394 c 0.438,-2.196 0.965,-4.238 1.58,-6.124 0.614,-1.887 1.273,-3.611 1.976,-5.17 0.701,-1.558 1.415,-2.951 2.139,-4.181 0.725,-1.229 1.372,-2.304 1.943,-3.227 0.087,-0.175 0.175,-0.373 0.264,-0.591 0.087,-0.22 0.132,-0.396 0.132,-0.527 0,-0.484 -0.155,-0.856 -0.461,-1.12 -0.308,-0.264 -0.659,-0.395 -1.054,-0.395 -0.395,0 -0.89,0.296 -1.482,0.889 -0.593,0.592 -1.207,1.305 -1.844,2.141 -0.637,0.833 -1.23,1.678 -1.778,2.534 -0.548,0.857 -1.02,1.526 -1.415,2.009 z"
           style="fill:#231f20;fill-opacity:1;fill-rule:nonzero;stroke:none"
           transform="matrix(1.3333333,0,0,-1.3333333,184.11133,268.88707)"
           clip-path="url(#clipPath5)"
           inkscape:label="path4" />
        <path
           id="path6"
           d="m 0,0 h 10.831 c 0.302,0 0.682,-0.086 1.134,-0.259 0.454,-0.173 0.682,-0.584 0.682,-1.233 0,-0.693 -0.228,-1.125 -0.682,-1.297 -0.452,-0.174 -0.832,-0.26 -1.134,-0.26 L 0,-3.049 v -8.691 c 0,-0.389 -0.021,-0.855 -0.064,-1.395 -0.044,-0.539 -0.184,-1.036 -0.421,-1.492 -0.237,-0.453 -0.583,-0.831 -1.036,-1.134 -0.452,-0.302 -1.131,-0.454 -2.037,-0.454 -0.862,0 -1.541,0.152 -2.038,0.454 -0.495,0.303 -0.851,0.681 -1.066,1.134 -0.216,0.456 -0.346,0.953 -0.388,1.492 -0.045,0.54 -0.065,1.006 -0.065,1.395 v 8.691 H -18.01 c -0.303,0 -0.682,0.086 -1.136,0.26 -0.454,0.172 -0.68,0.604 -0.68,1.297 0,0.691 0.237,1.114 0.714,1.264 C -18.637,-0.077 -18.27,0 -18.01,0 h 10.895 v 19.614 c -1.774,-3.237 -3.621,-6.138 -5.546,-8.706 -1.925,-2.568 -3.837,-4.844 -5.737,-6.829 -1.905,-1.987 -3.721,-3.691 -5.45,-5.118 -1.729,-1.428 -3.265,-2.593 -4.604,-3.5 -1.341,-0.909 -2.443,-1.568 -3.308,-1.979 -0.866,-0.412 -1.361,-0.616 -1.492,-0.616 -0.347,0 -0.692,0.131 -1.036,0.39 -0.347,0.26 -0.52,0.625 -0.52,1.101 0,0.39 0.085,0.691 0.259,0.909 0.173,0.215 0.454,0.431 0.843,0.648 0.951,0.649 2.076,1.502 3.373,2.563 1.298,1.057 2.712,2.364 4.246,3.918 1.536,1.553 3.124,3.376 4.77,5.469 1.64,2.094 3.284,4.566 4.927,7.412 0.606,1.036 1.503,2.709 2.693,5.017 1.187,2.308 2.343,5.06 3.469,8.255 h -21.92 c -0.347,0 -0.748,0.073 -1.202,0.223 -0.453,0.153 -0.68,0.549 -0.68,1.193 0,0.73 0.237,1.171 0.713,1.321 0.476,0.152 0.865,0.227 1.169,0.227 h 25.033 v 8.884 c 0,0.39 0.02,0.844 0.065,1.364 0.042,0.517 0.172,1.004 0.388,1.458 0.215,0.454 0.559,0.844 1.034,1.167 0.476,0.323 1.144,0.487 2.006,0.487 0.905,0 1.595,-0.164 2.07,-0.487 0.474,-0.323 0.83,-0.703 1.067,-1.135 0.237,-0.433 0.377,-0.919 0.421,-1.46 C -0.021,41.25 0,40.786 0,40.396 v -8.884 h 25.358 c 0.303,0 0.692,-0.075 1.168,-0.227 0.476,-0.15 0.714,-0.591 0.714,-1.321 0,-0.687 -0.238,-1.096 -0.714,-1.224 -0.476,-0.129 -0.865,-0.192 -1.168,-0.192 H 3.113 c 1.558,-4.317 3.319,-8.201 5.285,-11.653 1.968,-3.452 4,-6.528 6.097,-9.225 2.097,-2.697 4.194,-5.005 6.29,-6.928 2.097,-1.921 4.033,-3.51 5.805,-4.763 0.261,-0.173 0.508,-0.378 0.746,-0.617 0.239,-0.238 0.358,-0.55 0.358,-0.939 0,-0.434 -0.152,-0.801 -0.454,-1.102 -0.302,-0.304 -0.65,-0.455 -1.039,-0.455 -0.173,0 -0.747,0.27 -1.718,0.811 -0.973,0.54 -2.195,1.34 -3.664,2.398 -1.47,1.06 -3.103,2.357 -4.898,3.89 C 14.126,1.498 12.279,3.258 10.377,5.244 8.474,7.228 6.637,9.44 4.864,11.878 3.091,14.316 1.471,16.961 0,19.809 Z"
           style="fill:#231f20;fill-opacity:1;fill-rule:nonzero;stroke:none"
           transform="matrix(1.3333333,0,0,-1.3333333,289.25973,322.3376)"
           clip-path="url(#clipPath7)"
           inkscape:label="path6" />
      </g>
      <g
         id="g2">
        <path
           id="path8"
           d="m 0,0 c 0.055,-0.182 0.095,-0.303 0.122,-0.366 0.028,-0.065 0.095,-0.096 0.204,-0.096 0.054,0 0.104,0.026 0.15,0.082 0.045,0.053 0.094,0.182 0.149,0.38 l 5.16,17.743 c 0.109,0.434 0.281,0.76 0.516,0.977 0.236,0.218 0.474,0.381 0.719,0.49 0.245,0.108 0.471,0.172 0.68,0.19 0.208,0.018 0.348,0.027 0.42,0.027 0.706,0 1.29,-0.181 1.753,-0.543 0.46,-0.364 0.692,-0.861 0.692,-1.494 V -1.686 c 0,-0.417 -0.082,-0.733 -0.245,-0.951 C 10.158,-2.853 9.973,-3.012 9.766,-3.11 9.557,-3.211 9.372,-3.27 9.21,-3.287 9.047,-3.306 8.957,-3.315 8.939,-3.315 c -0.036,0 -0.145,0.009 -0.326,0.028 -0.18,0.017 -0.369,0.076 -0.568,0.177 -0.2,0.098 -0.384,0.257 -0.555,0.473 -0.172,0.218 -0.258,0.534 -0.258,0.951 V 15.27 c 0,0.037 -0.005,0.09 -0.014,0.163 -0.01,0.072 -0.059,0.109 -0.149,0.109 -0.091,0 -0.164,-0.117 -0.217,-0.354 L 1.903,-1.712 C 1.813,-2.039 1.672,-2.301 1.481,-2.5 1.292,-2.697 1.087,-2.861 0.87,-2.988 0.652,-3.115 0.43,-3.202 0.204,-3.247 c -0.226,-0.046 -0.431,-0.068 -0.612,-0.068 -0.072,0 -0.217,0.009 -0.434,0.028 -0.218,0.017 -0.445,0.076 -0.679,0.177 -0.236,0.098 -0.468,0.257 -0.694,0.473 -0.227,0.218 -0.403,0.534 -0.531,0.951 L -7.884,15.27 c -0.055,0.145 -0.117,0.216 -0.19,0.216 -0.073,0 -0.118,-0.025 -0.136,-0.08 -0.019,-0.055 -0.027,-0.099 -0.027,-0.136 V -2.473 c 0,-0.255 -0.082,-0.457 -0.243,-0.612 -0.163,-0.152 -0.36,-0.23 -0.595,-0.23 -0.289,0 -0.505,0.091 -0.649,0.272 -0.144,0.182 -0.216,0.37 -0.216,0.57 V 17.39 c 0,0.38 0.072,0.697 0.217,0.95 0.145,0.252 0.335,0.461 0.571,0.626 0.235,0.162 0.488,0.28 0.76,0.352 0.271,0.074 0.535,0.109 0.788,0.109 0.435,0 0.787,-0.07 1.059,-0.203 0.271,-0.136 0.487,-0.295 0.651,-0.476 0.163,-0.182 0.285,-0.367 0.367,-0.557 0.082,-0.192 0.141,-0.339 0.177,-0.448 z"
           style="fill:#231f20;fill-opacity:1;fill-rule:nonzero;stroke:none"
           transform="matrix(1.3333333,0,0,-1.3333333,96.9584,396.17227)"
           clip-path="url(#clipPath9)"
           inkscape:label="path8" />
        <path
           id="path10"
           d="M 0,0 H 8.749 L 4.945,10.761 C 4.836,11.105 4.741,11.336 4.659,11.453 4.578,11.57 4.474,11.63 4.347,11.63 4.201,11.63 4.088,11.549 4.007,11.387 3.926,11.224 3.839,11.005 3.75,10.732 Z m -2.528,-7.245 c -0.054,-0.181 -0.158,-0.32 -0.311,-0.421 -0.155,-0.1 -0.322,-0.149 -0.503,-0.149 -0.2,0 -0.399,0.073 -0.598,0.218 -0.199,0.145 -0.299,0.363 -0.299,0.652 0,0.072 0.027,0.163 0.082,0.271 l 6.955,19.917 c 0.199,0.616 0.516,1.049 0.952,1.303 0.434,0.254 0.896,0.381 1.385,0.381 1.141,0 1.91,-0.561 2.309,-1.684 l 6.82,-18.884 c 0.091,-0.181 0.136,-0.354 0.136,-0.515 0,-0.4 -0.15,-0.772 -0.449,-1.115 -0.298,-0.344 -0.747,-0.516 -1.344,-0.516 -0.273,0 -0.494,0.035 -0.667,0.108 -0.171,0.073 -0.311,0.164 -0.42,0.273 -0.108,0.108 -0.195,0.224 -0.258,0.352 -0.064,0.126 -0.113,0.244 -0.15,0.354 l -1.847,5.217 h -9.782 z"
           style="fill:#231f20;fill-opacity:1;fill-rule:nonzero;stroke:none"
           transform="matrix(1.3333333,0,0,-1.3333333,126.28973,390.17227)"
           clip-path="url(#clipPath11)"
           inkscape:label="path10" />
        <path
           id="path12"
           d="m 0,0 c 0,-0.526 -0.159,-0.93 -0.475,-1.209 -0.316,-0.282 -0.708,-0.421 -1.178,-0.421 -0.054,0 -0.167,0.009 -0.34,0.026 -0.171,0.019 -0.36,0.078 -0.568,0.177 -0.209,0.1 -0.388,0.259 -0.541,0.475 -0.154,0.218 -0.231,0.535 -0.231,0.952 v 19.21 h -5.869 c -0.235,0 -0.425,0.075 -0.57,0.232 -0.145,0.157 -0.218,0.334 -0.218,0.537 0,0.202 0.076,0.371 0.231,0.51 0.154,0.137 0.34,0.205 0.557,0.205 H 5.869 c 0.235,0 0.425,-0.072 0.57,-0.218 0.145,-0.149 0.218,-0.314 0.218,-0.497 0,-0.184 -0.069,-0.357 -0.205,-0.523 C 6.316,19.29 6.122,19.21 5.869,19.21 H 0 Z"
           style="fill:#231f20;fill-opacity:1;fill-rule:nonzero;stroke:none"
           transform="matrix(1.3333333,0,0,-1.3333333,164.1764,398.44173)"
           clip-path="url(#clipPath13)"
           inkscape:label="path12" />
        <path
           id="path14"
           d="M 0,0 C 1.178,0 2.178,-0.136 3.002,-0.408 3.826,-0.679 4.515,-1.01 5.067,-1.398 5.62,-1.789 6.062,-2.201 6.397,-2.636 6.733,-3.069 7.001,-3.468 7.2,-3.832 7.398,-4.157 7.517,-4.447 7.553,-4.7 7.589,-4.953 7.607,-5.117 7.607,-5.19 7.607,-5.606 7.44,-5.95 7.104,-6.223 6.77,-6.494 6.375,-6.629 5.923,-6.629 c -0.345,0 -0.63,0.054 -0.856,0.162 -0.227,0.11 -0.4,0.25 -0.516,0.422 -0.118,0.173 -0.2,0.357 -0.245,0.558 -0.045,0.199 -0.086,0.388 -0.122,0.569 -0.109,0.635 -0.294,1.169 -0.557,1.604 -0.263,0.435 -0.585,0.783 -0.965,1.045 -0.379,0.262 -0.81,0.453 -1.29,0.571 -0.48,0.117 -1.002,0.176 -1.562,0.176 -0.744,0 -1.373,-0.099 -1.889,-0.297 -0.517,-0.201 -0.942,-0.467 -1.277,-0.803 -0.334,-0.335 -0.576,-0.715 -0.72,-1.142 -0.145,-0.424 -0.217,-0.866 -0.217,-1.32 0,-0.56 0.09,-1.041 0.272,-1.438 0.18,-0.4 0.47,-0.749 0.87,-1.047 0.4,-0.299 0.902,-0.58 1.51,-0.841 0.608,-0.264 1.329,-0.553 2.163,-0.861 1.162,-0.451 2.223,-0.891 3.184,-1.317 0.961,-0.425 1.777,-0.901 2.449,-1.426 0.671,-0.525 1.192,-1.145 1.564,-1.861 0.373,-0.714 0.559,-1.584 0.559,-2.596 0,-1.342 -0.279,-2.425 -0.834,-3.249 -0.556,-0.826 -1.243,-1.458 -2.061,-1.903 -0.819,-0.443 -1.675,-0.744 -2.571,-0.898 -0.896,-0.153 -1.698,-0.229 -2.405,-0.229 -1.702,0 -3.084,0.249 -4.143,0.742 -1.06,0.493 -1.893,1.078 -2.501,1.747 -0.606,0.671 -1.018,1.328 -1.235,1.971 -0.217,0.644 -0.327,1.101 -0.327,1.372 0,0.452 0.169,0.819 0.503,1.101 0.335,0.282 0.738,0.42 1.209,0.42 0.417,0 0.738,-0.067 0.965,-0.204 0.226,-0.134 0.398,-0.297 0.516,-0.489 0.118,-0.189 0.199,-0.391 0.244,-0.61 0.046,-0.218 0.077,-0.407 0.095,-0.571 0.038,-0.273 0.114,-0.639 0.231,-1.101 0.118,-0.462 0.346,-0.906 0.68,-1.331 0.335,-0.426 0.801,-0.793 1.399,-1.101 0.598,-0.308 1.395,-0.462 2.391,-0.462 0.834,0 1.536,0.118 2.106,0.354 0.571,0.235 1.032,0.534 1.385,0.896 0.354,0.363 0.612,0.772 0.775,1.227 0.163,0.452 0.244,0.914 0.244,1.388 0,0.668 -0.122,1.231 -0.367,1.683 -0.244,0.452 -0.597,0.851 -1.057,1.195 -0.462,0.345 -1.019,0.655 -1.671,0.927 -0.652,0.273 -1.386,0.562 -2.198,0.867 -0.961,0.365 -1.87,0.727 -2.73,1.091 -0.859,0.363 -1.611,0.798 -2.254,1.303 -0.642,0.508 -1.147,1.11 -1.519,1.811 -0.371,0.697 -0.557,1.572 -0.557,2.625 0,0.941 0.176,1.779 0.527,2.515 0.354,0.734 0.858,1.348 1.518,1.848 0.658,0.499 1.442,0.88 2.348,1.142 C -2.111,-0.13 -1.105,0 0,0"
           style="fill:#231f20;fill-opacity:1;fill-rule:nonzero;stroke:none"
           transform="matrix(1.3333333,0,0,-1.3333333,191.87893,370.26987)"
           clip-path="url(#clipPath15)"
           inkscape:label="path14" />
        <path
           id="path16"
           d="m 0,0 c 0,-1.269 0.145,-2.31 0.434,-3.126 0.29,-0.813 0.673,-1.462 1.152,-1.941 0.479,-0.481 1.043,-0.817 1.696,-1.006 0.648,-0.19 1.345,-0.284 2.086,-0.284 0.941,0 1.802,0.134 2.59,0.406 0.785,0.272 1.453,0.666 2.005,1.183 0.55,0.517 0.984,1.154 1.3,1.914 0.317,0.761 0.475,1.64 0.475,2.637 v 14.262 c 0,0.256 0.086,0.463 0.259,0.626 0.171,0.163 0.367,0.246 0.584,0.246 0.307,0 0.535,-0.095 0.679,-0.286 0.146,-0.19 0.216,-0.386 0.216,-0.586 v -14.1 c 0,-1.25 -0.202,-2.355 -0.611,-3.316 C 12.459,-4.33 11.888,-5.145 11.155,-5.816 10.422,-6.49 9.54,-6.997 8.507,-7.334 7.476,-7.675 6.344,-7.844 5.112,-7.844 c -0.469,0 -1.004,0.032 -1.603,0.095 -0.597,0.067 -1.207,0.204 -1.83,0.415 -0.625,0.211 -1.237,0.511 -1.835,0.902 -0.597,0.392 -1.131,0.907 -1.602,1.541 -0.471,0.633 -0.85,1.409 -1.139,2.324 -0.291,0.913 -0.436,2.004 -0.436,3.273 v 12.553 c 0,0.417 0.086,0.734 0.26,0.95 0.173,0.218 0.354,0.381 0.547,0.49 0.19,0.11 0.377,0.172 0.558,0.19 0.184,0.018 0.283,0.028 0.302,0.028 0.037,0 0.141,-0.01 0.315,-0.028 0.172,-0.018 0.364,-0.08 0.572,-0.19 0.211,-0.109 0.392,-0.272 0.547,-0.49 C -0.076,13.993 0,13.676 0,13.259 Z"
           style="fill:#231f20;fill-opacity:1;fill-rule:nonzero;stroke:none"
           transform="matrix(1.3333333,0,0,-1.3333333,219.79427,390.20613)"
           clip-path="url(#clipPath17)"
           inkscape:label="path16" />
        <path
           id="path18"
           d="m 0,0 c 0.054,-0.182 0.094,-0.303 0.121,-0.366 0.029,-0.065 0.096,-0.096 0.205,-0.096 0.054,0 0.103,0.026 0.149,0.082 0.046,0.053 0.095,0.182 0.15,0.38 l 5.159,17.743 c 0.109,0.434 0.282,0.76 0.518,0.977 0.233,0.218 0.474,0.381 0.718,0.49 0.243,0.108 0.47,0.172 0.679,0.19 0.207,0.018 0.348,0.027 0.42,0.027 0.706,0 1.29,-0.181 1.753,-0.543 0.463,-0.364 0.692,-0.861 0.692,-1.494 V -1.686 c 0,-0.417 -0.082,-0.733 -0.245,-0.951 C 10.157,-2.853 9.972,-3.012 9.764,-3.11 9.557,-3.211 9.371,-3.27 9.209,-3.287 9.047,-3.306 8.956,-3.315 8.938,-3.315 8.902,-3.315 8.793,-3.306 8.611,-3.287 8.433,-3.27 8.244,-3.211 8.044,-3.11 7.845,-3.012 7.661,-2.853 7.489,-2.637 7.317,-2.419 7.231,-2.103 7.231,-1.686 V 15.27 c 0,0.037 -0.004,0.09 -0.014,0.163 -0.009,0.072 -0.059,0.109 -0.148,0.109 -0.091,0 -0.163,-0.117 -0.219,-0.354 L 1.902,-1.712 C 1.812,-2.039 1.672,-2.301 1.481,-2.5 1.291,-2.697 1.085,-2.861 0.867,-2.988 0.651,-3.115 0.429,-3.202 0.203,-3.247 c -0.225,-0.046 -0.43,-0.068 -0.61,-0.068 -0.075,0 -0.219,0.009 -0.436,0.028 -0.219,0.017 -0.443,0.076 -0.679,0.177 -0.236,0.098 -0.467,0.257 -0.695,0.473 -0.224,0.218 -0.401,0.534 -0.529,0.951 l -5.14,16.956 c -0.052,0.145 -0.116,0.216 -0.189,0.216 -0.072,0 -0.116,-0.025 -0.136,-0.08 -0.018,-0.055 -0.026,-0.099 -0.026,-0.136 V -2.473 c 0,-0.255 -0.082,-0.457 -0.243,-0.612 -0.164,-0.152 -0.362,-0.23 -0.595,-0.23 -0.29,0 -0.506,0.091 -0.65,0.272 -0.142,0.182 -0.214,0.37 -0.214,0.57 V 17.39 c 0,0.38 0.072,0.697 0.216,0.95 0.144,0.252 0.333,0.461 0.57,0.626 0.236,0.162 0.489,0.28 0.76,0.352 0.273,0.074 0.535,0.109 0.787,0.109 0.436,0 0.789,-0.07 1.06,-0.203 0.273,-0.136 0.488,-0.295 0.652,-0.476 0.163,-0.182 0.286,-0.367 0.367,-0.557 0.083,-0.192 0.14,-0.339 0.176,-0.448 z"
           style="fill:#231f20;fill-opacity:1;fill-rule:nonzero;stroke:none"
           transform="matrix(1.3333333,0,0,-1.3333333,261.86653,396.17227)"
           clip-path="url(#clipPath19)"
           inkscape:label="path18" />
        <path
           id="path20"
           d="m 0,0 c -0.87,0 -1.662,-0.161 -2.376,-0.488 -0.717,-0.326 -1.341,-0.873 -1.875,-1.632 -0.534,-0.761 -0.946,-1.778 -1.236,-3.045 -0.29,-1.27 -0.436,-2.838 -0.436,-4.706 0,-3.464 0.512,-5.972 1.536,-7.533 1.023,-1.56 2.486,-2.339 4.387,-2.339 0.852,0 1.631,0.163 2.338,0.491 0.706,0.325 1.327,0.867 1.861,1.631 0.534,0.76 0.95,1.778 1.249,3.045 0.299,1.267 0.449,2.837 0.449,4.705 0,1.722 -0.131,3.208 -0.395,4.461 C 5.24,-4.16 4.86,-3.137 4.36,-2.337 3.862,-1.541 3.247,-0.951 2.513,-0.57 1.779,-0.188 0.941,0 0,0 m 0,1.522 c 1.739,0 3.211,-0.326 4.416,-0.978 1.203,-0.652 2.177,-1.513 2.921,-2.583 0.743,-1.068 1.28,-2.282 1.617,-3.642 0.334,-1.36 0.501,-2.755 0.501,-4.186 0,-1.503 -0.176,-2.95 -0.529,-4.335 -0.354,-1.385 -0.91,-2.599 -1.671,-3.63 -0.762,-1.032 -1.739,-1.857 -2.934,-2.472 -1.196,-0.615 -2.635,-0.924 -4.321,-0.924 -1.737,0 -3.21,0.312 -4.414,0.938 -1.205,0.624 -2.184,1.467 -2.935,2.527 -0.752,1.06 -1.299,2.275 -1.643,3.644 -0.345,1.366 -0.517,2.785 -0.517,4.252 0,1.486 0.172,2.911 0.517,4.282 0.344,1.368 0.895,2.577 1.657,3.629 0.76,1.052 1.739,1.893 2.934,2.527 1.197,0.634 2.664,0.951 4.401,0.951"
           style="fill:#231f20;fill-opacity:1;fill-rule:nonzero;stroke:none"
           transform="matrix(1.3333333,0,0,-1.3333333,297.9824,372.29987)"
           clip-path="url(#clipPath21)"
           inkscape:label="path20" />
        <path
           id="path22"
           d="M 0,0 C 0,-0.526 -0.158,-0.93 -0.476,-1.209 -0.789,-1.491 -1.18,-1.63 -1.652,-1.63 c -0.054,0 -0.166,0.009 -0.339,0.026 -0.172,0.019 -0.36,0.078 -0.569,0.177 -0.209,0.1 -0.386,0.259 -0.541,0.475 -0.154,0.218 -0.231,0.535 -0.231,0.952 v 19.21 h -5.869 c -0.234,0 -0.425,0.075 -0.57,0.232 -0.145,0.157 -0.217,0.334 -0.217,0.537 0,0.202 0.076,0.371 0.23,0.51 0.154,0.137 0.339,0.205 0.557,0.205 H 5.871 c 0.233,0 0.425,-0.072 0.57,-0.218 0.145,-0.149 0.217,-0.314 0.217,-0.497 0,-0.184 -0.069,-0.357 -0.203,-0.523 C 6.318,19.29 6.123,19.21 5.871,19.21 H 0 Z"
           style="fill:#231f20;fill-opacity:1;fill-rule:nonzero;stroke:none"
           transform="matrix(1.3333333,0,0,-1.3333333,330.45373,398.44173)"
           clip-path="url(#clipPath23)"
           inkscape:label="path22" />
        <path
           id="path24"
           d="m 0,0 c -0.87,0 -1.662,-0.161 -2.377,-0.488 -0.717,-0.326 -1.343,-0.873 -1.876,-1.632 -0.534,-0.761 -0.946,-1.778 -1.235,-3.045 -0.29,-1.27 -0.436,-2.838 -0.436,-4.706 0,-3.464 0.512,-5.972 1.537,-7.533 1.022,-1.56 2.486,-2.339 4.387,-2.339 0.853,0 1.631,0.163 2.336,0.491 0.707,0.325 1.326,0.867 1.862,1.631 0.534,0.76 0.951,1.778 1.249,3.045 0.301,1.267 0.449,2.837 0.449,4.705 0,1.722 -0.132,3.208 -0.394,4.461 C 5.24,-4.16 4.858,-3.137 4.36,-2.337 3.862,-1.541 3.247,-0.951 2.513,-0.57 1.778,-0.188 0.94,0 0,0 m 0,1.522 c 1.739,0 3.21,-0.326 4.415,-0.978 1.205,-0.652 2.179,-1.513 2.922,-2.583 0.742,-1.068 1.28,-2.282 1.614,-3.642 0.337,-1.36 0.504,-2.755 0.504,-4.186 0,-1.503 -0.176,-2.95 -0.529,-4.335 -0.354,-1.385 -0.91,-2.599 -1.672,-3.63 -0.76,-1.032 -1.738,-1.857 -2.934,-2.472 -1.195,-0.615 -2.635,-0.924 -4.32,-0.924 -1.739,0 -3.211,0.312 -4.415,0.938 -1.205,0.624 -2.183,1.467 -2.935,2.527 -0.752,1.06 -1.298,2.275 -1.643,3.644 -0.345,1.366 -0.517,2.785 -0.517,4.252 0,1.486 0.172,2.911 0.517,4.282 0.345,1.368 0.895,2.577 1.657,3.629 0.761,1.052 1.739,1.893 2.935,2.527 1.195,0.634 2.662,0.951 4.401,0.951"
           style="fill:#231f20;fill-opacity:1;fill-rule:nonzero;stroke:none"
           transform="matrix(1.3333333,0,0,-1.3333333,357.08787,372.29987)"
           clip-path="url(#clipPath25)"
           inkscape:label="path24" />
      </g>
    </g>
  </g>
</svg>
