<?xml version="1.0" encoding="UTF-8" standalone="no"?>
<!-- Created with Inkscape (http://www.inkscape.org/) -->

<svg
   version="1.1"
   id="svg1"
   width="749.67999"
   height="315.03333"
   viewBox="0 0 749.67999 315.03333"
   sodipodi:docname="12641935.svg"
   inkscape:version="1.4 (86a8ad7, 2024-10-11)"
   xmlns:inkscape="http://www.inkscape.org/namespaces/inkscape"
   xmlns:sodipodi="http://sodipodi.sourceforge.net/DTD/sodipodi-0.dtd"
   xmlns="http://www.w3.org/2000/svg"
   xmlns:svg="http://www.w3.org/2000/svg">
  <defs
     id="defs1">
    <clipPath
       clipPathUnits="userSpaceOnUse"
       id="clipPath3">
      <path
         d="M 0,236.275 H 562.26 V 0 H 0 Z"
         transform="translate(-221.20561,-150.5342)"
         id="path3" />
    </clipPath>
    <clipPath
       clipPathUnits="userSpaceOnUse"
       id="clipPath5">
      <path
         d="M 0,236.275 H 562.26 V 0 H 0 Z"
         transform="translate(-354.47851,-105.0508)"
         id="path5" />
    </clipPath>
    <clipPath
       clipPathUnits="userSpaceOnUse"
       id="clipPath7">
      <path
         d="M 0,236.275 H 562.26 V 0 H 0 Z"
         id="path7" />
    </clipPath>
    <clipPath
       clipPathUnits="userSpaceOnUse"
       id="clipPath9">
      <path
         d="M 0,236.275 H 562.26 V 0 H 0 Z"
         transform="translate(-355.90041,-37.003901)"
         id="path9" />
    </clipPath>
    <clipPath
       clipPathUnits="userSpaceOnUse"
       id="clipPath11">
      <path
         d="M 0,236.275 H 562.26 V 0 H 0 Z"
         transform="translate(-373.92191,-44.031304)"
         id="path11" />
    </clipPath>
    <clipPath
       clipPathUnits="userSpaceOnUse"
       id="clipPath13">
      <path
         d="M 0,236.275 H 562.26 V 0 H 0 Z"
         transform="translate(-431.90041,-37.003901)"
         id="path13" />
    </clipPath>
    <clipPath
       clipPathUnits="userSpaceOnUse"
       id="clipPath15">
      <path
         d="M 0,236.275 H 562.26 V 0 H 0 Z"
         transform="translate(-473.05471,-33.794898)"
         id="path15" />
    </clipPath>
    <clipPath
       clipPathUnits="userSpaceOnUse"
       id="clipPath17">
      <path
         d="M 0,236.275 H 562.26 V 0 H 0 Z"
         id="path17" />
    </clipPath>
    <clipPath
       clipPathUnits="userSpaceOnUse"
       id="clipPath19">
      <path
         d="M 0,236.275 H 562.26 V 0 H 0 Z"
         id="path19" />
    </clipPath>
  </defs>
  <sodipodi:namedview
     id="namedview1"
     pagecolor="#ffffff"
     bordercolor="#000000"
     borderopacity="0.25"
     inkscape:showpageshadow="2"
     inkscape:pageopacity="0.0"
     inkscape:pagecheckerboard="0"
     inkscape:deskcolor="#d1d1d1"
     inkscape:zoom="1.2151852"
     inkscape:cx="294.19385"
     inkscape:cy="277.73545"
     inkscape:window-width="1920"
     inkscape:window-height="1009"
     inkscape:window-x="-8"
     inkscape:window-y="-8"
     inkscape:window-maximized="1"
     inkscape:current-layer="g1">
    <inkscape:page
       x="0"
       y="0"
       inkscape:label="1"
       id="page1"
       width="749.67999"
       height="315.03333"
       margin="0"
       bleed="0" />
  </sodipodi:namedview>
  <g
     id="g1"
     inkscape:groupmode="layer"
     inkscape:label="1">
    <g
       id="group-MC0">
      <g
         id="g2">
        <path
           id="path2"
           d="m 0,0 c -0.708,-0.283 -1.432,-0.336 -2.174,-0.159 -0.741,0.176 -1.29,0.618 -1.642,1.325 -0.496,1.201 -1.238,2.685 -2.226,4.452 -0.991,1.766 -1.874,3.356 -2.65,4.77 -0.355,0.706 -0.408,1.431 -0.16,2.174 0.248,0.741 0.724,1.252 1.432,1.536 0.776,0.353 1.553,0.424 2.332,0.213 0.776,-0.213 1.341,-0.708 1.695,-1.485 C -2.615,11.554 -1.768,9.98 -0.849,8.109 0.069,6.236 0.776,4.733 1.271,3.604 1.553,2.896 1.606,2.208 1.431,1.537 1.254,0.864 0.776,0.353 0,0 m 4.664,-42.929 c -0.92,0 -1.68,0.301 -2.279,0.901 -0.602,0.601 -0.902,1.361 -0.902,2.279 v 18.867 h -11.765 c -0.779,0 -1.449,0.281 -2.014,0.848 -0.567,0.565 -0.849,1.236 -0.849,2.014 0,0.777 0.282,1.448 0.849,2.014 0.565,0.565 1.235,0.848 2.014,0.848 H 1.483 v 8.586 h -11.765 c -0.779,0 -1.449,0.3 -2.014,0.901 -0.567,0.6 -0.849,1.289 -0.849,2.067 0,0.777 0.282,1.448 0.849,2.014 0.565,0.565 1.235,0.848 2.014,0.848 H 6.254 C 6.747,0.53 7.33,2.014 8.003,3.71 c 0.671,1.696 1.325,3.355 1.961,4.982 0.636,1.625 1.129,2.968 1.483,4.028 0.282,0.777 0.795,1.342 1.537,1.696 0.743,0.353 1.501,0.388 2.28,0.106 0.776,-0.283 1.359,-0.778 1.749,-1.484 0.387,-0.707 0.405,-1.449 0.052,-2.225 C 16.499,9.257 15.723,7.402 14.733,5.247 13.743,3.091 12.825,1.095 11.978,-0.742 h 7.738 c 0.776,0 1.466,-0.283 2.066,-0.848 0.6,-0.566 0.902,-1.237 0.902,-2.014 0,-0.778 -0.302,-1.467 -0.902,-2.067 -0.6,-0.601 -1.29,-0.901 -2.066,-0.901 H 7.737 v -8.586 h 11.979 c 0.776,0 1.466,-0.283 2.066,-0.848 0.6,-0.566 0.902,-1.237 0.902,-2.014 0,-0.778 -0.302,-1.449 -0.902,-2.014 -0.6,-0.567 -1.29,-0.848 -2.066,-0.848 H 7.737 v -18.867 c 0,-0.918 -0.3,-1.678 -0.9,-2.279 -0.602,-0.6 -1.325,-0.901 -2.173,-0.901 m -23.532,-2.439 c -0.848,0 -1.573,0.303 -2.173,0.902 -0.601,0.602 -0.901,1.362 -0.901,2.279 V 5.618 c 0,4.31 0.53,7.649 1.59,10.017 1.06,2.367 2.896,4.028 5.512,4.982 2.613,0.954 6.254,1.431 10.918,1.431 H 1.166 V 32.542 H -23.85 c -0.778,0 -1.467,0.3 -2.067,0.901 -0.602,0.6 -0.901,1.288 -0.901,2.067 0,0.848 0.299,1.572 0.901,2.174 0.6,0.598 1.289,0.9 2.067,0.9 H 1.166 v 10.812 c 0,0.989 0.317,1.784 0.954,2.385 0.636,0.6 1.412,0.901 2.331,0.901 0.918,0 1.696,-0.301 2.332,-0.901 C 7.42,51.18 7.737,50.385 7.737,49.396 V 38.584 h 26.607 c 0.847,0 1.553,-0.302 2.12,-0.9 0.564,-0.602 0.848,-1.326 0.848,-2.174 0,-0.779 -0.284,-1.467 -0.848,-2.067 -0.567,-0.601 -1.273,-0.901 -2.12,-0.901 H 7.737 V 22.048 h 5.725 c 4.733,0 8.391,-0.477 10.971,-1.431 2.579,-0.954 4.399,-2.615 5.459,-4.982 1.059,-2.368 1.589,-5.707 1.589,-10.017 v -37.63 c 0,-4.382 -0.971,-7.542 -2.915,-9.487 -1.944,-1.941 -5.423,-2.914 -10.44,-2.914 -0.92,0 -1.696,0.283 -2.332,0.848 -0.637,0.566 -0.991,1.308 -1.061,2.226 0,0.918 0.283,1.68 0.849,2.279 0.564,0.6 1.272,0.938 2.119,1.006 3.181,0.143 5.247,0.655 6.201,1.537 0.954,0.883 1.432,2.526 1.432,4.929 V 5.618 c 0,2.897 -0.318,5.088 -0.954,6.572 -0.637,1.484 -1.802,2.507 -3.498,3.074 -1.696,0.565 -4.171,0.848 -7.42,0.848 H -3.922 c -3.252,0 -5.724,-0.283 -7.421,-0.848 -1.695,-0.567 -2.861,-1.59 -3.497,-3.074 -0.636,-1.484 -0.954,-3.675 -0.954,-6.572 v -47.805 c 0,-0.917 -0.302,-1.677 -0.901,-2.279 -0.601,-0.599 -1.325,-0.902 -2.173,-0.902 m -21.836,0.318 c -0.778,0 -1.467,0.283 -2.067,0.848 -0.602,0.566 -0.901,1.273 -0.901,2.121 V 7.42 c -1.767,-4.099 -3.694,-8.146 -5.777,-12.137 -2.085,-3.993 -4.153,-7.472 -6.201,-10.441 -0.496,-0.707 -1.166,-1.166 -2.014,-1.378 -0.848,-0.212 -1.661,-0.106 -2.438,0.318 -0.708,0.493 -1.131,1.148 -1.272,1.961 -0.143,0.812 0.035,1.537 0.53,2.173 1.484,2.049 3.074,4.487 4.77,7.314 1.696,2.826 3.339,5.812 4.929,8.958 1.59,3.143 3.038,6.216 4.346,9.221 1.307,3.003 2.348,5.671 3.127,8.003 v 0.848 h -13.356 c -0.707,0 -1.343,0.282 -1.908,0.848 -0.566,0.565 -0.848,1.236 -0.848,2.014 0,0.776 0.282,1.447 0.848,2.014 0.565,0.565 1.201,0.848 1.908,0.848 h 13.356 v 21.094 c 0,0.918 0.299,1.66 0.901,2.226 0.6,0.565 1.289,0.848 2.067,0.848 0.848,0 1.572,-0.283 2.173,-0.848 0.599,-0.566 0.901,-1.308 0.901,-2.226 V 27.984 h 10.494 c 0.777,0 1.448,-0.283 2.014,-0.848 0.565,-0.567 0.848,-1.238 0.848,-2.014 0,-0.778 -0.283,-1.449 -0.848,-2.014 -0.566,-0.566 -1.237,-0.848 -2.014,-0.848 H -37.63 v -9.858 c 1.06,-1.415 2.348,-3.127 3.869,-5.141 1.519,-2.014 3.037,-3.975 4.558,-5.883 1.518,-1.908 2.809,-3.429 3.869,-4.558 0.564,-0.566 0.795,-1.272 0.689,-2.12 -0.106,-0.847 -0.442,-1.555 -1.007,-2.12 -0.636,-0.495 -1.362,-0.726 -2.173,-0.688 -0.813,0.034 -1.502,0.37 -2.067,1.006 -1.06,1.201 -2.279,2.773 -3.657,4.717 -1.378,1.943 -2.74,3.904 -4.081,5.883 v -45.579 c 0,-0.848 -0.302,-1.555 -0.901,-2.121 -0.601,-0.565 -1.325,-0.848 -2.173,-0.848"
           style="fill:#231f20;fill-opacity:1;fill-rule:nonzero;stroke:none"
           transform="matrix(1.3333333,0,0,-1.3333333,294.9408,114.32107)"
           clip-path="url(#clipPath3)"
           inkscape:label="path2" />
        <path
           id="path4"
           d="M 0,0 C -0.92,0 -1.715,0.318 -2.385,0.954 -3.059,1.591 -3.393,2.403 -3.393,3.393 V 21.837 H -22.26 c -0.848,0 -1.591,0.299 -2.226,0.9 -0.637,0.6 -0.954,1.36 -0.954,2.28 0,0.918 0.317,1.677 0.954,2.279 0.635,0.6 1.378,0.9 2.226,0.9 h 18.867 v 34.556 c -2.967,-4.805 -6.608,-9.716 -10.918,-14.733 -4.31,-5.018 -8.974,-9.842 -13.992,-14.469 -5.017,-4.629 -10.14,-8.817 -15.369,-12.561 -0.849,-0.566 -1.803,-0.832 -2.863,-0.795 -1.06,0.035 -1.907,0.477 -2.543,1.325 -0.567,0.847 -0.742,1.75 -0.53,2.703 0.212,0.955 0.776,1.713 1.696,2.279 5.652,3.674 11.129,7.949 16.43,12.826 5.299,4.875 10.123,9.927 14.468,15.158 4.346,5.228 7.897,10.14 10.654,14.734 h -36.994 c -0.919,0 -1.679,0.3 -2.279,0.901 -0.601,0.599 -0.902,1.36 -0.902,2.279 0,0.848 0.301,1.59 0.902,2.226 0.6,0.636 1.36,0.954 2.279,0.954 h 39.961 v 18.762 c 0,0.989 0.334,1.802 1.008,2.438 0.67,0.636 1.465,0.954 2.385,0.954 0.917,0 1.695,-0.318 2.332,-0.954 0.635,-0.636 0.953,-1.449 0.953,-2.438 V 75.579 h 40.069 c 0.847,0 1.589,-0.318 2.226,-0.954 0.635,-0.636 0.953,-1.378 0.953,-2.226 0,-0.919 -0.318,-1.68 -0.953,-2.279 -0.637,-0.601 -1.379,-0.901 -2.226,-0.901 H 6.359 c 3.18,-5.159 7.049,-10.335 11.608,-15.529 4.557,-5.194 9.504,-10.107 14.84,-14.734 5.334,-4.629 10.652,-8.711 15.953,-12.244 0.776,-0.494 1.219,-1.201 1.324,-2.119 0.106,-0.92 -0.123,-1.768 -0.688,-2.543 -0.636,-0.779 -1.431,-1.274 -2.385,-1.485 -0.954,-0.212 -1.892,0 -2.81,0.635 C 39.043,24.874 33.936,28.956 28.885,33.444 23.831,37.931 19.114,42.683 14.733,47.7 10.352,52.717 6.535,57.84 3.285,63.071 V 28.196 h 19.504 c 0.918,0 1.678,-0.3 2.279,-0.9 0.6,-0.602 0.902,-1.361 0.902,-2.279 0,-0.92 -0.302,-1.68 -0.902,-2.28 -0.601,-0.601 -1.361,-0.9 -2.279,-0.9 H 3.285 V 3.393 C 3.285,2.403 2.967,1.591 2.332,0.954 1.695,0.318 0.917,0 0,0"
           style="fill:#231f20;fill-opacity:1;fill-rule:nonzero;stroke:none"
           transform="matrix(1.3333333,0,0,-1.3333333,472.638,174.9656)"
           clip-path="url(#clipPath5)"
           inkscape:label="path4" />
      </g>
      <g
         id="g3">
        <path
           id="path6"
           d="m 446.982,54.832 h 12.797 v -4.32 h -12.797 z"
           style="fill:#231f20;fill-opacity:1;fill-rule:nonzero;stroke:none"
           transform="matrix(1.3333333,0,0,-1.3333333,0,315.03333)"
           clip-path="url(#clipPath7)" />
        <path
           id="path8"
           d="m 0,0 v -4.539 h -24.117 l 8.476,10.008 c 0.547,0.656 1.349,1.622 2.407,2.898 6.525,7.693 9.789,13.071 9.789,16.133 0,2.078 -0.73,3.764 -2.188,5.059 -1.459,1.294 -3.354,1.941 -5.687,1.941 -2.553,0 -4.503,-0.702 -5.852,-2.105 -1.349,-1.405 -2.023,-3.437 -2.023,-6.098 v -0.492 h -4.485 c 0,0.145 -0.009,0.337 -0.027,0.574 -0.019,0.236 -0.027,0.41 -0.027,0.519 0,3.791 1.102,6.736 3.308,8.832 2.205,2.096 5.295,3.145 9.27,3.145 3.864,0 6.899,-0.976 9.105,-2.926 C 0.154,30.998 1.258,28.273 1.258,24.773 1.258,22.258 0.51,19.66 -0.984,16.98 -2.479,14.301 -5.104,10.9 -8.859,6.781 L -15.148,0 Z"
           style="fill:#231f20;fill-opacity:1;fill-rule:nonzero;stroke:none"
           transform="matrix(1.3333333,0,0,-1.3333333,474.53387,265.6948)"
           clip-path="url(#clipPath9)" />
        <path
           id="path10"
           d="M 0,0 C 0,-2.698 0.747,-4.831 2.242,-6.398 3.736,-7.967 5.76,-8.75 8.313,-8.75 c 2.478,0 4.465,0.802 5.96,2.406 1.495,1.604 2.243,3.737 2.243,6.399 0,2.734 -0.757,4.894 -2.27,6.48 C 12.732,8.121 10.664,8.914 8.039,8.914 5.633,8.914 3.691,8.084 2.215,6.426 0.738,4.767 0,2.625 0,0 m 3.227,10.938 c 0.984,0.656 1.977,1.138 2.98,1.449 1.002,0.309 2.051,0.465 3.145,0.465 3.609,0 6.525,-1.14 8.75,-3.418 2.223,-2.28 3.336,-5.26 3.336,-8.942 0,-4.047 -1.268,-7.256 -3.801,-9.625 -2.534,-2.37 -5.971,-3.555 -10.309,-3.555 -3.646,0 -6.599,1.194 -8.859,3.583 -2.261,2.387 -3.391,5.55 -3.391,9.488 0,3.755 2.516,9.187 7.547,16.297 l 0.219,0.383 9.133,12.906 4.156,-2.188 z"
           style="fill:#231f20;fill-opacity:1;fill-rule:nonzero;stroke:none"
           transform="matrix(1.3333333,0,0,-1.3333333,498.56253,256.32493)"
           clip-path="url(#clipPath11)" />
        <path
           id="path12"
           d="m 0,0 v -4.539 h -24.117 l 8.476,10.008 c 0.547,0.656 1.349,1.622 2.407,2.898 6.525,7.693 9.789,13.071 9.789,16.133 0,2.078 -0.73,3.764 -2.188,5.059 -1.459,1.294 -3.354,1.941 -5.687,1.941 -2.553,0 -4.503,-0.702 -5.852,-2.105 -1.349,-1.405 -2.023,-3.437 -2.023,-6.098 v -0.492 h -4.485 c 0,0.145 -0.009,0.337 -0.027,0.574 -0.019,0.236 -0.027,0.41 -0.027,0.519 0,3.791 1.102,6.736 3.308,8.832 2.205,2.096 5.295,3.145 9.27,3.145 3.864,0 6.899,-0.976 9.105,-2.926 C 0.154,30.998 1.258,28.273 1.258,24.773 1.258,22.258 0.51,19.66 -0.984,16.98 -2.479,14.301 -5.104,10.9 -8.859,6.781 L -15.148,0 Z"
           style="fill:#231f20;fill-opacity:1;fill-rule:nonzero;stroke:none"
           transform="matrix(1.3333333,0,0,-1.3333333,575.8672,265.6948)"
           clip-path="url(#clipPath13)" />
        <path
           id="path14"
           d="M 0,0 17.117,35 H -1.422 v 4.156 H 23.953 L 3.938,-1.969 Z"
           style="fill:#231f20;fill-opacity:1;fill-rule:nonzero;stroke:none"
           transform="matrix(1.3333333,0,0,-1.3333333,630.7396,269.97347)"
           clip-path="url(#clipPath15)" />
      </g>
      <path
         id="path16"
         d="M 113.5,88.665 H 450.823 V 91.5 H 113.5 Z"
         style="fill:#231f20;fill-opacity:1;fill-rule:nonzero;stroke:none"
         transform="matrix(1.3333333,0,0,-1.3333333,0,315.03333)"
         clip-path="url(#clipPath17)" />
      <path
         id="path18"
         d="M 561.76,235.775 H 0.5 V 0.5 h 561.26 z"
         style="fill:none;stroke:#363639;stroke-width:1;stroke-linecap:butt;stroke-linejoin:miter;stroke-miterlimit:4;stroke-dasharray:none;stroke-opacity:1"
         transform="matrix(1.3333333,0,0,-1.3333333,0,315.03333)"
         clip-path="url(#clipPath19)" />
    </g>
  </g>
</svg>
