<?xml version="1.0" encoding="UTF-8" standalone="no"?>
<!-- Created with Inkscape (http://www.inkscape.org/) -->

<svg
   version="1.1"
   id="svg1"
   width="564.48401"
   height="281.01868"
   viewBox="0 0 564.48401 281.01868"
   sodipodi:docname="12668966.svg"
   inkscape:version="1.4 (86a8ad7, 2024-10-11)"
   xmlns:inkscape="http://www.inkscape.org/namespaces/inkscape"
   xmlns:sodipodi="http://sodipodi.sourceforge.net/DTD/sodipodi-0.dtd"
   xmlns="http://www.w3.org/2000/svg"
   xmlns:svg="http://www.w3.org/2000/svg">
  <defs
     id="defs1">
    <clipPath
       clipPathUnits="userSpaceOnUse"
       id="clipPath3">
      <path
         d="M 0,210.764 H 423.363 V 0 H 0 Z"
         transform="translate(-420.02781,-210.26421)"
         id="path3" />
    </clipPath>
    <clipPath
       clipPathUnits="userSpaceOnUse"
       id="clipPath5">
      <path
         d="M 0,210.764 H 423.363 V 0 H 0 Z"
         transform="translate(-173.02491,-141.4268)"
         id="path5" />
    </clipPath>
    <clipPath
       clipPathUnits="userSpaceOnUse"
       id="clipPath7">
      <path
         d="M 0,210.764 H 423.363 V 0 H 0 Z"
         transform="translate(-260.77981,-152.9395)"
         id="path7" />
    </clipPath>
    <clipPath
       clipPathUnits="userSpaceOnUse"
       id="clipPath9">
      <path
         d="M 0,210.764 H 423.363 V 0 H 0 Z"
         transform="translate(-126.394,-50.548799)"
         id="path9" />
    </clipPath>
    <clipPath
       clipPathUnits="userSpaceOnUse"
       id="clipPath11">
      <path
         d="M 0,210.764 H 423.363 V 0 H 0 Z"
         transform="translate(-148.9204,-67.942402)"
         id="path11" />
    </clipPath>
    <clipPath
       clipPathUnits="userSpaceOnUse"
       id="clipPath13">
      <path
         d="M 0,210.764 H 423.363 V 0 H 0 Z"
         transform="translate(-179.02101,-64.481399)"
         id="path13" />
    </clipPath>
    <clipPath
       clipPathUnits="userSpaceOnUse"
       id="clipPath15">
      <path
         d="M 0,210.764 H 423.363 V 0 H 0 Z"
         transform="translate(-193.5972,-67.942402)"
         id="path15" />
    </clipPath>
    <clipPath
       clipPathUnits="userSpaceOnUse"
       id="clipPath17">
      <path
         d="M 0,210.764 H 423.363 V 0 H 0 Z"
         transform="translate(-212.4946,-50.666001)"
         id="path17" />
    </clipPath>
    <clipPath
       clipPathUnits="userSpaceOnUse"
       id="clipPath19">
      <path
         d="M 0,210.764 H 423.363 V 0 H 0 Z"
         transform="translate(-244.48,-67.942402)"
         id="path19" />
    </clipPath>
    <clipPath
       clipPathUnits="userSpaceOnUse"
       id="clipPath21">
      <path
         d="M 0,210.764 H 423.363 V 0 H 0 Z"
         transform="translate(-270.27691,-63.028304)"
         id="path21" />
    </clipPath>
    <clipPath
       clipPathUnits="userSpaceOnUse"
       id="clipPath23">
      <path
         d="M 0,210.764 H 423.363 V 0 H 0 Z"
         transform="translate(-301.84131,-50.665004)"
         id="path23" />
    </clipPath>
  </defs>
  <sodipodi:namedview
     id="namedview1"
     pagecolor="#ffffff"
     bordercolor="#000000"
     borderopacity="0.25"
     inkscape:showpageshadow="2"
     inkscape:pageopacity="0.0"
     inkscape:pagecheckerboard="0"
     inkscape:deskcolor="#d1d1d1"
     inkscape:zoom="3.1492569"
     inkscape:cx="282.44758"
     inkscape:cy="140.50934"
     inkscape:window-width="1920"
     inkscape:window-height="1009"
     inkscape:window-x="-8"
     inkscape:window-y="-8"
     inkscape:window-maximized="1"
     inkscape:current-layer="g1">
    <inkscape:page
       x="0"
       y="0"
       inkscape:label="1"
       id="page1"
       width="564.48401"
       height="281.01868"
       margin="0"
       bleed="0" />
  </sodipodi:namedview>
  <g
     id="g1"
     inkscape:groupmode="layer"
     inkscape:label="1">
    <g
       id="group-MC0">
      <path
         id="path2"
         d="M 0,0 H -419.528 V -209.764 H 2.835 L 2.835,0 Z"
         style="fill:none;stroke:#000000;stroke-width:1;stroke-linecap:butt;stroke-linejoin:miter;stroke-miterlimit:4;stroke-dasharray:none;stroke-opacity:1"
         transform="matrix(1.3333333,0,0,-1.3333333,560.03707,0.6664)"
         clip-path="url(#clipPath3)" />
      <g
         id="g3">
        <path
           id="path4"
           d="m 0,0 c 0.05,-1.126 0.077,-2.433 0.077,-3.919 0,-0.775 0.41,-1.161 1.229,-1.161 1.331,0.318 2.638,0.479 3.918,0.479 1.228,0 2.587,-0.08 4.073,-0.239 0.818,0 1.228,0.408 1.228,1.228 C 10.422,-2.639 10.345,-1.435 10.295,0 8.554,0.051 6.761,0.077 4.917,0.077 3.124,0.077 1.486,0.051 0,0 m -8.581,3.416 h 3.611 c -0.105,0.614 -0.181,1.229 -0.232,1.844 0,1.281 0.717,1.92 2.151,1.92 1.686,0 2.607,-0.742 2.76,-2.229 0.052,-0.359 0.102,-0.87 0.155,-1.535 H 10.14 c 0,2.714 0.821,4.072 2.468,4.072 1.389,0 2.084,-0.924 2.084,-2.767 C 14.64,4.311 14.589,3.876 14.539,3.416 h 7.912 c 0.767,-0.052 1.176,-0.462 1.229,-1.229 0,-0.873 -0.309,-1.666 -0.923,-2.383 -0.767,-0.667 -1.69,-0.998 -2.764,-0.998 -0.82,0 -2.639,0.307 -5.454,0.921 h -0.384 v -1.535 c 0.203,-2.152 0.306,-3.56 0.306,-4.227 0,-1.486 -0.743,-2.227 -2.227,-2.227 -1.486,0.204 -3.841,0.307 -7.066,0.307 -2.46,0 -4.891,-0.282 -7.296,-0.844 -1.691,0 -2.535,0.691 -2.535,2.074 0.205,1.381 0.307,2.714 0.307,3.994 0,0.667 -0.026,1.46 -0.077,2.381 -1.127,-0.103 -2.1,-0.256 -2.92,-0.46 -1.433,-0.461 -2.356,-0.691 -2.764,-0.691 -1.539,0.101 -2.359,0.844 -2.46,2.228 0.051,0.716 0.461,1.407 1.23,2.073 0.717,0.41 1.639,0.616 2.766,0.616 M 2.121,-11.309 c 3.84,0 7.219,-0.178 10.139,-0.534 0.767,0.152 1.408,0.229 1.921,0.229 1.434,0 2.152,-0.814 2.152,-2.439 0,-0.204 -0.231,-0.459 -0.692,-0.764 -0.36,-0.563 -1.384,-1.971 -3.072,-4.225 -1.385,-1.742 -2.869,-3.407 -4.457,-4.994 4.302,-1.896 7.888,-3.227 10.756,-3.994 2.92,-0.872 5.351,-1.333 7.298,-1.384 0.41,0 0.616,-0.205 0.616,-0.615 0,-1.384 -0.769,-2.867 -2.306,-4.455 -0.974,-0.923 -1.973,-1.384 -2.995,-1.384 -0.719,0 -1.563,0.179 -2.537,0.538 -1.28,0.513 -4.481,2.306 -9.602,5.379 -1.692,1.075 -3.253,1.995 -4.687,2.765 -0.666,-0.564 -1.384,-1.127 -2.151,-1.69 -2.766,-2.153 -5.2,-3.74 -7.298,-4.764 -1.846,-0.82 -3.203,-1.228 -4.073,-1.228 -0.87,0 -1.894,0.408 -3.071,1.228 -1.281,0.921 -1.921,1.92 -1.921,2.997 0,0.666 0.537,1.076 1.611,1.229 1.333,0.051 3.125,0.385 5.378,0.998 3.021,0.921 5.584,2.075 7.684,3.458 -1.383,0.767 -2.587,1.383 -3.61,1.843 -1.693,0.82 -3.433,1.384 -5.225,1.691 -1.179,0.256 -1.767,0.87 -1.767,1.843 0.051,1.333 0.641,2.05 1.767,2.153 0.562,0 1.278,-0.18 2.151,-0.539 3.891,-1.537 7.298,-2.971 10.218,-4.302 1.895,1.588 3.789,3.533 5.685,5.839 0.513,0.46 0.769,0.769 0.769,0.922 0,0.408 -0.232,0.614 -0.692,0.614 -0.923,0.154 -1.819,0.23 -2.689,0.23 -5.072,0 -8.4,-0.179 -9.987,-0.537 -1.026,-0.206 -1.717,-0.307 -2.074,-0.307 -1.179,0 -1.767,0.485 -1.767,1.455 0,1.014 0.537,1.752 1.613,2.21 0.921,0.356 3.226,0.534 6.915,0.534 m 0.99,30.72 c 1.81,0 2.716,-0.897 2.716,-2.69 C 5.52,15.288 5.29,13.931 5.136,12.65 H 23.42 c 0.768,0 1.175,-0.208 1.228,-0.62 0,-1.031 -0.307,-1.959 -0.921,-2.785 C 23.008,8.474 22.087,8.09 20.96,8.09 20.09,8.09 17.913,8.294 14.432,8.706 10.845,8.859 7.004,8.937 2.909,8.937 -3.699,8.937 -8.487,8.781 -11.457,8.474 -12.738,8.268 -13.685,8.141 -14.299,8.09 V 7.016 -3.356 c 0,-5.583 -0.415,-10.194 -1.243,-13.829 -0.984,-3.893 -2.48,-7.324 -4.487,-10.295 -1.28,-1.742 -2.279,-2.613 -2.996,-2.613 -1.23,0 -2.664,0.691 -4.301,2.076 -1.027,0.818 -1.537,1.688 -1.537,2.611 0,0.87 0.487,1.357 1.46,1.46 1.381,0.255 2.534,0.87 3.457,1.844 1.842,1.382 3.251,3.995 4.224,7.835 0.821,3.432 1.23,7.708 1.23,12.832 0,3.021 -0.179,7.225 -0.537,12.616 0,1.643 0.715,2.466 2.149,2.466 1.177,0 1.971,-0.359 2.381,-1.074 0.357,0.051 0.791,0.077 1.304,0.077 H 1.007 c -0.153,1.331 -0.383,2.56 -0.691,3.687 0,2.048 0.931,3.074 2.795,3.074 m -40.326,-0.324 c 0.359,0 0.999,-0.206 1.92,-0.614 2.355,-1.741 5.224,-3.687 8.605,-5.838 0.41,-0.257 0.616,-0.564 0.616,-0.923 0,-0.767 -0.54,-1.151 -1.614,-1.151 -0.258,0 -0.745,0.101 -1.46,0.307 -4.713,1.434 -7.708,2.355 -8.988,2.764 -1.436,0.871 -2.153,1.998 -2.153,3.381 0,1.382 1.024,2.074 3.074,2.074 m 7.451,-38.027 c 0.82,0 1.23,-0.436 1.23,-1.307 0,-0.564 -0.206,-1.153 -0.614,-1.767 -4.61,-6.967 -7.3,-10.449 -8.067,-10.449 -2.254,0 -3.381,0.588 -3.381,1.768 0,1.74 0.434,2.867 1.306,3.38 0,0.564 3.175,3.354 9.526,8.375 m 1.767,16.9 c 0.871,0 1.307,-0.307 1.307,-0.921 0,-1.077 -0.333,-1.716 -0.998,-1.921 l -14.059,-4.917 c -1.896,0 -2.843,0.819 -2.843,2.458 0,2.048 0.741,3.174 2.227,3.381 z"
           style="fill:#000000;fill-opacity:1;fill-rule:nonzero;stroke:none"
           transform="matrix(1.3333333,0,0,-1.3333333,230.69987,92.4496)"
           clip-path="url(#clipPath5)"
           inkscape:label="path4" />
        <path
           id="path6"
           d="m 0,0 h 19.727 v 1.281 c 0,0.402 -0.204,0.604 -0.608,0.604 C 15.041,2.121 9.068,2.239 1.211,2.239 0.455,2.239 0.076,1.945 0.076,1.359 0.076,0.932 0.051,0.479 0,0 m -0.148,-4.125 h 19.875 v 2.357 c -8.313,0 -14.911,-0.095 -19.799,-0.285 0,-0.715 -0.026,-1.405 -0.076,-2.072 M 9.75,-8.367 h 8.766 c 0.806,0 1.211,0.18 1.211,0.542 v 1.933 c -8.518,0 -15.217,-0.129 -20.106,-0.387 -0.051,-0.412 -0.1,-0.825 -0.148,-1.238 0,-0.566 0.476,-0.85 1.435,-0.85 z M 8.771,8.484 c 1.567,0 2.352,-0.69 2.352,-2.069 0,-0.149 -0.078,-0.322 -0.228,-0.518 C 10.492,5.404 10.141,5.009 9.838,4.714 h 2.045 c 2.183,0 4.797,-0.118 7.844,-0.354 0.607,0 1.419,0.118 2.435,0.354 1.365,0 2.047,-0.533 2.047,-1.593 0,-0.052 -0.051,-0.177 -0.15,-0.379 -0.202,-0.455 -0.354,-1.289 -0.452,-2.501 -0.152,-1.517 -0.228,-3.185 -0.228,-5.005 0,-1.112 0.076,-2.627 0.228,-4.548 0,-1.164 -0.584,-1.744 -1.742,-1.744 -3.791,0.302 -7.304,0.479 -10.539,0.531 0.1,-0.254 0.151,-0.533 0.151,-0.834 -0.151,-0.557 -0.278,-1.087 -0.377,-1.591 7.031,-0.051 13.109,-0.254 18.234,-0.608 l 2.412,0.304 c 1.158,0 1.738,-0.304 1.738,-0.909 0,-0.255 -0.127,-0.583 -0.377,-0.985 -0.603,-1.315 -1.058,-3.385 -1.361,-6.206 0,-1.059 -0.537,-1.587 -1.609,-1.587 -0.969,0 -1.453,0.528 -1.453,1.587 0,1.51 0.097,2.896 0.3,4.158 0,0.151 -0.326,0.328 -0.978,0.53 -3.207,0.455 -6.713,0.733 -10.518,0.834 v -0.151 c 0,-0.506 -0.119,-1.088 -0.355,-1.743 0,-0.203 0.328,-0.304 0.982,-0.304 h 6.274 c 1.463,0 2.193,-0.335 2.193,-1.004 0,-1.026 -0.504,-1.538 -1.512,-1.538 l -4.384,0.302 c -1.815,0 -3.373,-0.202 -4.682,-0.603 -1.055,0 -1.58,0.401 -1.58,1.206 0.156,0.752 0.234,1.355 0.234,1.808 0,0.503 -0.078,1.105 -0.234,1.808 0,0.099 0.025,0.175 0.076,0.226 -1.006,0.1 -2.033,0.151 -3.084,0.151 -2.404,0 -4.736,-0.075 -6.988,-0.222 -0.203,-0.346 -0.602,-0.84 -1.203,-1.48 -0.955,-1.187 -1.93,-2.076 -2.932,-2.666 -1.104,-0.644 -2.006,-0.964 -2.707,-0.964 -0.752,0 -1.479,0.196 -2.18,0.591 -0.552,0.494 -0.826,0.963 -0.826,1.409 0,0.443 0.201,0.764 0.602,0.963 1.652,0.098 2.906,0.27 3.757,0.517 0.954,0.197 2.004,0.716 3.157,1.556 -2.856,-0.099 -5.586,-0.272 -8.192,-0.519 -1.554,-0.05 -2.48,-0.346 -2.781,-0.887 l -0.152,-0.371 c 0,-2.668 -0.18,-4.274 -0.537,-4.815 -0.204,-0.593 -0.741,-0.889 -1.61,-0.889 -0.769,0 -1.152,0.199 -1.152,0.597 0,3.396 -0.303,6.295 -0.906,8.692 0,1.252 0.578,1.88 1.736,1.88 0.906,0 1.562,-0.15 1.965,-0.452 0.654,-0.354 1.209,-0.529 1.662,-0.529 4.027,0.199 9.291,0.3 15.787,0.3 -0.201,0.556 -0.428,1.086 -0.682,1.593 0,0.302 0.051,0.58 0.153,0.834 -3.332,0 -5.526,-0.052 -6.588,-0.152 -1.01,-0.05 -2.27,-0.176 -3.783,-0.378 -1.264,0 -1.893,0.48 -1.893,1.441 0.453,2.528 0.682,4.703 0.682,6.524 0,1.668 -0.229,3.642 -0.682,5.918 0,1.466 0.729,2.199 2.186,2.199 0.601,0 1.255,-0.052 1.959,-0.151 C -0.08,4.764 0.873,4.714 2.129,4.714 h 4.289 c 0.152,0.591 0.228,1.158 0.228,1.701 0,1.379 0.706,2.069 2.125,2.069 m -36.939,-3.52 10.58,-5.517 c 0.856,-0.353 1.285,-0.933 1.285,-1.738 0,-0.655 -0.531,-0.983 -1.586,-0.983 l -10.582,2.721 c -1.611,0.352 -2.42,1.561 -2.42,3.628 0,1.259 0.907,1.889 2.723,1.889 m -1.135,-12.168 11.11,-3.854 c 0.855,-0.404 1.285,-1.034 1.285,-1.89 0,-0.604 -0.531,-0.906 -1.588,-0.906 l -11.109,1.209 c -1.612,0.402 -2.416,1.638 -2.416,3.704 0,1.158 0.904,1.737 2.718,1.737 M 9.432,-17.677 c 1.361,0 2.045,-0.729 2.045,-2.186 -0.202,-0.854 -0.356,-1.657 -0.456,-2.409 h 14.135 c 0.553,-0.05 0.856,-0.347 0.907,-0.89 0,-0.693 -0.252,-1.285 -0.754,-1.779 -0.657,-0.604 -1.414,-0.906 -2.27,-0.906 -0.705,0 -2.445,0.251 -5.215,0.755 -2.771,0.151 -5.82,0.227 -9.15,0.227 H 8.523 c -0.152,0 -0.253,-0.103 -0.302,-0.31 -0.407,-0.721 -0.91,-1.47 -1.516,-2.241 0.606,0.051 1.361,0.076 2.272,0.076 2.068,0 4.238,-0.118 6.503,-0.354 0.354,0 1.034,0.175 2.041,0.529 1.665,0 2.497,-0.808 2.497,-2.424 -0.657,-1.516 -1.084,-2.983 -1.286,-4.396 -0.353,-2.074 -1.185,-3.412 -2.496,-4.018 -0.756,-0.507 -1.662,-0.81 -2.718,-0.91 5.291,-0.457 9.371,-0.683 12.242,-0.683 2.267,0 4.183,0.175 5.744,0.529 0.957,0.252 1.637,0.379 2.041,0.379 0.4,0 0.603,-0.405 0.603,-1.212 0,-1.469 -0.804,-3.167 -2.418,-5.091 -1.511,-1.825 -2.923,-2.736 -4.232,-2.736 -1.258,0 -2.57,0.176 -3.928,0.532 -17.338,3.856 -29.31,6.316 -35.91,7.382 -5.541,0.962 -9.068,1.445 -10.578,1.445 -2.018,0 -4.311,-1.598 -6.879,-4.793 -0.756,-0.814 -1.588,-1.219 -2.494,-1.219 -1.463,0 -2.191,0.584 -2.191,1.752 0,0.659 1.814,2.687 5.441,6.086 0.555,0.66 1.236,1.117 2.041,1.371 1.109,4.566 2.57,8.472 4.383,11.72 0,0.452 -0.051,0.731 -0.151,0.832 -0.203,0.05 -0.353,0.076 -0.453,0.076 -2.318,0 -4.41,-0.102 -6.273,-0.302 -0.807,-0.102 -1.639,-0.304 -2.492,-0.606 -1.26,0 -1.891,0.62 -1.891,1.865 0,1.742 1.535,2.613 4.609,2.613 2.821,0 5.62,-0.202 8.389,-0.604 0.906,0.402 1.713,0.604 2.418,0.604 1.863,0 2.797,-0.782 2.797,-2.346 0,-0.554 -0.354,-1.083 -1.059,-1.587 -1.613,-1.867 -2.847,-3.86 -3.703,-5.977 -0.806,-1.764 -1.437,-3.753 -1.888,-5.97 2.619,-0.301 7.179,-0.832 13.679,-1.587 7.557,-0.908 14.008,-1.639 19.356,-2.191 -0.354,0.201 -0.684,0.502 -0.985,0.906 -0.406,0.655 -0.607,1.26 -0.607,1.813 0,0.756 0.303,1.184 0.908,1.286 1.916,0.049 3.152,0.175 3.707,0.377 0.654,0.201 1.209,0.856 1.662,1.964 0.25,0.706 0.379,1.136 0.379,1.286 0,0.553 -0.328,0.831 -0.982,0.831 h -3.782 c -1.818,0 -3.632,-0.151 -5.449,-0.453 -1.009,-0.253 -1.638,-0.378 -1.888,-0.378 -0.204,0 -0.379,0.024 -0.53,0.075 -1.966,-1.462 -4.006,-2.594 -6.121,-3.4 -1.615,-0.656 -2.924,-0.982 -3.929,-0.982 -0.706,0 -1.387,0.277 -2.042,0.83 -0.857,0.808 -1.285,1.638 -1.285,2.494 0,0.655 0.578,1.083 1.739,1.285 3.072,0.201 5.892,0.858 8.464,1.97 2.116,1.013 3.778,2.253 4.987,3.722 -3.375,-0.052 -5.971,-0.23 -7.783,-0.532 -1.362,-0.255 -2.245,-0.38 -2.645,-0.38 -1.059,0.05 -1.639,0.582 -1.738,1.595 0.049,0.556 0.351,1.086 0.906,1.595 0.504,0.302 1.209,0.455 2.117,0.455 H 7.992 c -0.152,0.904 -0.404,1.706 -0.758,2.409 0,1.457 0.733,2.186 2.198,2.186"
           style="fill:#000000;fill-opacity:1;fill-rule:nonzero;stroke:none"
           transform="matrix(1.3333333,0,0,-1.3333333,347.7064,77.099333)"
           clip-path="url(#clipPath7)"
           inkscape:label="path6" />
      </g>
      <g
         id="g2">
        <path
           id="path8"
           d="m 0,0 h -1.36 -0.06 l 0.009,0.03 c 0.116,3.676 0.231,7.383 0.347,11.119 0.025,0.545 0.047,1.08 0.068,1.606 0.003,0.606 0.033,1.232 0.091,1.879 C -3.056,10.897 -5.187,7.16 -7.295,3.424 -7.604,2.878 -7.897,2.343 -8.18,1.817 -8.547,1.212 -8.89,0.616 -9.209,0.03 -9.236,0.011 -9.259,0 -9.279,0 h -1.422 -0.061 l 0.01,0.03 c 0.149,4.787 0.337,9.594 0.561,14.422 0.028,0.687 0.046,1.373 0.054,2.061 -0.004,0.847 0.036,1.757 0.121,2.726 0.085,0.97 -0.377,1.526 -1.383,1.666 h -0.061 l 0.028,0.092 0.426,1.394 0.037,0.121 h 0.061 7.604 0.061 L -3.279,22.391 -3.696,21.027 C -5.4,20.805 -6.107,19.916 -5.815,18.36 -6.012,15.007 -6.187,11.665 -6.339,8.332 c 1.749,3.151 3.513,6.312 5.291,9.483 0.742,1.636 0.445,2.647 -0.891,3.03 l 0.472,1.546 c 2.365,0.02 4.757,0.06 7.176,0.121 h 0.15 0.273 L 5.669,20.997 C 4.054,20.733 3.294,19.835 3.39,18.3 3.235,14.886 3.094,11.493 2.968,8.12 c 1.588,2.889 3.184,5.767 4.788,8.635 0.576,0.828 0.954,1.717 1.134,2.666 0.178,0.949 -0.278,1.455 -1.37,1.516 H 7.338 l 0.481,1.575 h 0.182 6.333 0.091 l -0.037,-0.121 -0.417,-1.364 -0.009,-0.03 C 13.815,20.915 13.691,20.876 13.591,20.876 12.07,20.33 10.991,19.31 10.353,17.815 L 0.07,0.03 C 0.037,-0.01 0.014,-0.021 0,0"
           style="fill:#000000;fill-opacity:1;fill-rule:nonzero;stroke:none"
           transform="matrix(1.3333333,0,0,-1.3333333,168.52533,213.62027)"
           clip-path="url(#clipPath9)"
           inkscape:label="path8" />
        <path
           id="path10"
           d="m 0,0 c -1.862,-3.051 -3.688,-6.08 -5.476,-9.09 h 5.302 C -0.142,-6.08 -0.084,-3.051 0,0 m -6.314,-10.545 c -0.496,-0.828 -0.995,-1.682 -1.496,-2.559 -0.501,-0.879 -0.579,-1.682 -0.236,-2.41 0.299,-0.343 0.717,-0.494 1.255,-0.454 l -0.407,-1.333 h -6.606 l 0.417,1.363 c 0.491,0.02 0.991,0.202 1.5,0.545 0.507,0.405 0.951,0.9 1.333,1.486 3.571,5.534 7.147,11.089 10.73,16.664 0.504,0.788 1.023,1.596 1.559,2.424 H 3.28 c 0.283,-5.818 0.59,-11.615 0.925,-17.392 0.029,-0.828 0.069,-1.656 0.119,-2.484 0.075,-0.809 0.532,-1.233 1.368,-1.273 l -0.407,-1.333 h -8.241 l 0.417,1.363 c 1.06,-0.162 1.829,0.303 2.304,1.395 0.104,1.332 0.142,2.645 0.113,3.938 l 0.01,0.031 c -2.081,0 -4.148,0.01 -6.202,0.029"
           style="fill:#000000;fill-opacity:1;fill-rule:nonzero;stroke:none"
           transform="matrix(1.3333333,0,0,-1.3333333,198.56053,190.4288)"
           clip-path="url(#clipPath11)"
           inkscape:label="path10" />
        <path
           id="path12"
           d="m 0,0 c -0.021,0 -0.027,0.01 -0.021,0.03 -0.008,0.303 0.007,0.616 0.045,0.939 -0.016,0.344 -0.009,0.697 0.021,1.06 0.001,1.192 -0.155,2.334 -0.468,3.424 -0.385,0.99 -1.18,1.494 -2.385,1.516 H -3.081 C -3.214,6.928 -3.335,6.897 -3.441,6.877 -3.515,6.837 -3.564,6.807 -3.591,6.787 -3.644,6.746 -3.684,6.716 -3.709,6.695 -3.795,6.615 -3.847,6.544 -3.865,6.483 -3.969,6.342 -4.042,6.201 -4.086,6.06 -4.168,5.857 -4.239,5.655 -4.301,5.453 L -8.794,-9.241 c -0.185,-0.607 -0.327,-1.202 -0.425,-1.788 l -0.01,-0.03 c -0.074,-0.243 -0.081,-0.464 -0.021,-0.667 10e-4,-0.061 0.016,-0.112 0.044,-0.151 0.021,-0.061 0.067,-0.111 0.136,-0.152 0.068,-0.04 0.136,-0.08 0.205,-0.121 0.089,-0.04 0.204,-0.061 0.345,-0.061 0.468,-0.121 0.967,-0.172 1.499,-0.151 0.202,0 0.417,0.01 0.646,0.03 h 0.061 l -0.019,-0.061 -0.427,-1.393 -0.009,-0.03 h -0.06 -11.06 -0.06 l 0.01,0.03 0.425,1.393 0.019,0.061 h 0.06 0.94 c 0.458,-0.02 0.934,0.019 1.431,0.121 0.054,-0.019 0.118,-0.01 0.191,0.031 0.127,0.02 0.257,0.08 0.389,0.182 0.06,0 0.12,0.029 0.178,0.09 0.033,0.041 0.069,0.092 0.108,0.152 0.064,0.08 0.135,0.182 0.214,0.303 0.056,0.121 0.13,0.262 0.22,0.424 0.213,0.566 0.422,1.151 0.628,1.758 l 4.502,14.724 c 0.035,0.182 0.081,0.363 0.137,0.546 0.017,0.121 0.036,0.252 0.059,0.394 -0.009,0.101 -0.019,0.202 -0.028,0.302 l 0.009,0.032 c -0.055,0.019 -0.086,0.049 -0.094,0.089 -0.074,0.021 -0.136,0.051 -0.183,0.092 -0.151,0.039 -0.306,0.061 -0.467,0.061 -1.233,0 -2.336,-0.506 -3.311,-1.516 -1.001,-1.09 -1.865,-2.232 -2.592,-3.424 -0.212,-0.363 -0.412,-0.716 -0.597,-1.06 C -15.9,0.646 -16.077,0.333 -16.23,0.03 l -0.019,-0.061 h -0.03 c -0.364,0 -0.725,0.01 -1.081,0.031 h -0.061 l 0.009,0.03 c 0.968,2.767 1.94,5.555 2.92,8.363 l 0.01,0.03 h 0.06 17.725 0.06 L 3.354,8.393 C 2.623,5.605 1.901,2.817 1.191,0.03 L 1.182,0 H 1.121 0.03 Z"
           style="fill:#000000;fill-opacity:1;fill-rule:nonzero;stroke:none"
           transform="matrix(1.3333333,0,0,-1.3333333,238.69467,195.04347)"
           clip-path="url(#clipPath13)"
           inkscape:label="path12" />
        <path
           id="path14"
           d="m 0,0 c -1.862,-3.051 -3.688,-6.08 -5.476,-9.09 h 5.303 C -0.142,-6.08 -0.084,-3.051 0,0 m -6.314,-10.545 c -0.496,-0.828 -0.994,-1.682 -1.495,-2.559 -0.501,-0.879 -0.58,-1.682 -0.236,-2.41 0.299,-0.343 0.717,-0.494 1.254,-0.454 l -0.407,-1.333 h -6.605 l 0.416,1.363 c 0.491,0.02 0.991,0.202 1.5,0.545 0.508,0.405 0.952,0.9 1.333,1.486 3.571,5.534 7.148,11.089 10.73,16.664 0.504,0.788 1.023,1.596 1.559,2.424 H 3.28 c 0.283,-5.818 0.591,-11.615 0.925,-17.392 0.029,-0.828 0.069,-1.656 0.119,-2.484 0.076,-0.809 0.532,-1.233 1.368,-1.273 l -0.407,-1.333 h -8.241 l 0.417,1.363 c 1.06,-0.162 1.829,0.303 2.305,1.395 0.104,1.332 0.141,2.645 0.113,3.938 l 0.009,0.031 c -2.08,0 -4.148,0.01 -6.202,0.029"
           style="fill:#000000;fill-opacity:1;fill-rule:nonzero;stroke:none"
           transform="matrix(1.3333333,0,0,-1.3333333,258.1296,190.4288)"
           clip-path="url(#clipPath15)"
           inkscape:label="path14" />
        <path
           id="path16"
           d="m 0,0 h -0.061 -7.666 -0.03 l 0.01,0.03 0.426,1.394 0.018,0.061 h 0.031 c 2.349,0.485 3.862,1.899 4.539,4.242 l 3.316,10.846 c 0.943,2.424 0.314,3.838 -1.885,4.242 l 0.436,1.424 0.009,0.031 h 0.06 6.849 0.029 c 1.545,-4.203 3.125,-8.383 4.74,-12.544 0.141,-0.465 0.315,-0.919 0.524,-1.364 1.08,3.535 2.17,7.07 3.271,10.605 0.037,1.313 -0.703,1.899 -2.219,1.757 l 0.028,0.091 0.435,1.424 0.008,0.031 h 0.031 7.454 0.06 l -0.01,-0.031 -0.416,-1.363 C 17.642,20.209 16.169,18.725 15.565,16.422 L 10.554,0.03 10.544,0 H 10.454 9.181 9.12 L 9.13,0.03 C 7.149,5.181 5.169,10.331 3.188,15.482 2.925,16.068 2.685,16.675 2.472,17.3 1.13,13.24 -0.109,9.19 -1.242,5.151 -2.007,3.05 -1.45,1.798 0.427,1.394 L 0.01,0.03 Z"
           style="fill:#000000;fill-opacity:1;fill-rule:nonzero;stroke:none"
           transform="matrix(1.3333333,0,0,-1.3333333,283.32613,213.464)"
           clip-path="url(#clipPath17)"
           inkscape:label="path16" />
        <path
           id="path18"
           d="m 0,0 c -1.861,-3.051 -3.688,-6.08 -5.475,-9.09 h 5.301 C -0.141,-6.08 -0.084,-3.051 0,0 m -6.314,-10.545 c -0.495,-0.828 -0.995,-1.682 -1.495,-2.559 -0.502,-0.879 -0.58,-1.682 -0.236,-2.41 0.299,-0.343 0.717,-0.494 1.254,-0.454 l -0.406,-1.333 h -6.606 l 0.416,1.363 c 0.491,0.02 0.991,0.202 1.5,0.545 0.508,0.405 0.951,0.9 1.334,1.486 3.571,5.534 7.147,11.089 10.729,16.664 0.504,0.788 1.023,1.596 1.56,2.424 h 1.545 c 0.282,-5.818 0.59,-11.615 0.924,-17.392 0.029,-0.828 0.07,-1.656 0.119,-2.484 0.076,-0.809 0.533,-1.233 1.369,-1.273 l -0.408,-1.333 h -8.24 l 0.416,1.363 c 1.06,-0.162 1.83,0.303 2.305,1.395 0.103,1.332 0.142,2.645 0.113,3.938 l 0.01,0.031 c -2.082,0 -4.149,0.01 -6.203,0.029"
           style="fill:#000000;fill-opacity:1;fill-rule:nonzero;stroke:none"
           transform="matrix(1.3333333,0,0,-1.3333333,325.97333,190.4288)"
           clip-path="url(#clipPath19)"
           inkscape:label="path18" />
        <path
           id="path20"
           d="m 0,0 h 0.395 c 0.207,0.02 0.427,0.05 0.662,0.09 0.744,0.121 1.466,0.434 2.168,0.939 0.459,0.385 0.861,0.838 1.203,1.364 0.019,0 0.049,0.031 0.088,0.091 C 4.658,2.746 4.791,3.02 4.918,3.303 5.07,3.605 5.199,3.928 5.305,4.271 5.584,5.119 5.654,5.938 5.51,6.726 5.344,7.372 4.957,7.826 4.352,8.09 4.277,8.109 4.215,8.14 4.168,8.18 3.963,8.24 3.764,8.281 3.568,8.301 3.338,8.342 3.111,8.361 2.889,8.361 2.303,8.361 1.73,8.371 1.172,8.393 0.889,8.393 0.617,8.361 0.357,8.301 0.316,8.301 0.293,8.291 0.287,8.271 0.186,8.271 0.098,8.25 0.025,8.211 -0.053,8.15 -0.113,8.09 -0.15,8.029 -0.211,7.968 -0.246,7.917 -0.258,7.877 -0.316,7.816 -0.346,7.756 -0.344,7.695 -0.477,7.393 -0.59,7.09 -0.682,6.787 L -2.758,0 Z m -5.537,-9.09 c -0.104,-0.344 -0.186,-0.677 -0.244,-1 0.002,-0.06 -0.008,-0.121 -0.026,-0.181 0.008,-0.042 0.016,-0.083 0.024,-0.122 -0.004,-0.082 0.017,-0.142 0.066,-0.181 l -0.01,-0.031 c 0.002,-0.061 0.03,-0.101 0.084,-0.122 0.069,-0.04 0.151,-0.07 0.245,-0.089 0.197,-0.082 0.431,-0.113 0.699,-0.092 0.627,0 1.275,0.01 1.949,0.031 1.166,-0.082 2.283,0.332 3.35,1.242 0.486,0.404 0.904,0.878 1.252,1.424 0.007,0.02 0.025,0.05 0.058,0.09 0.162,0.264 0.309,0.546 0.442,0.85 0.132,0.302 0.252,0.625 0.357,0.968 L 2.801,-6 c 0.072,0.303 0.135,0.606 0.187,0.909 0.02,0.263 0.03,0.526 0.03,0.788 -0.016,0.545 -0.161,1.03 -0.434,1.454 -0.309,0.384 -0.693,0.677 -1.156,0.879 -0.055,0.021 -0.11,0.04 -0.164,0.061 -0.264,0.06 -0.518,0.121 -0.762,0.181 -0.316,0.021 -0.637,0.031 -0.961,0.031 l -2.809,0.03 z m 9.076,8.18 C 3.797,-0.99 4.072,-1.051 4.363,-1.092 5.449,-1.436 6.371,-1.99 7.125,-2.758 7.506,-3.162 7.727,-3.667 7.783,-4.272 7.807,-4.395 7.82,-4.516 7.824,-4.637 7.818,-4.92 7.793,-5.202 7.746,-5.484 7.688,-5.808 7.611,-6.121 7.52,-6.424 7.094,-8.08 6.104,-9.434 4.551,-10.484 3.154,-11.353 1.732,-11.908 0.285,-12.15 c -0.482,-0.121 -0.935,-0.182 -1.359,-0.182 -0.436,-0.04 -0.864,-0.051 -1.281,-0.03 h -11.272 -0.061 l 0.01,0.03 0.426,1.394 0.02,0.061 h 0.06 c 0.492,-0.041 1.006,-0.012 1.543,0.09 0.1,0 0.207,0.02 0.32,0.06 0.127,0.021 0.256,0.081 0.389,0.182 0.047,0.021 0.096,0.051 0.149,0.092 0.033,0.039 0.089,0.09 0.167,0.151 0.051,0.101 0.114,0.202 0.184,0.303 0.057,0.121 0.131,0.263 0.221,0.425 0.213,0.564 0.422,1.15 0.629,1.757 l 4.002,13.088 c 0.185,0.606 0.332,1.223 0.443,1.848 0.031,0.102 0.041,0.202 0.031,0.304 0.024,0.141 0.016,0.282 -0.021,0.424 -0.028,0.04 -0.053,0.091 -0.074,0.151 -0.055,0.021 -0.096,0.051 -0.125,0.092 -0.094,0.019 -0.166,0.05 -0.213,0.09 -0.11,0.041 -0.211,0.07 -0.307,0.091 -0.486,0.061 -0.973,0.09 -1.457,0.09 h -0.061 l 0.02,0.061 0.436,1.425 0.007,0.03 H -6.828 3.988 C 5.086,9.896 6.135,9.796 7.139,9.574 7.355,9.492 7.588,9.422 7.832,9.361 8.063,9.261 8.291,9.149 8.518,9.028 8.723,8.907 8.91,8.766 9.084,8.604 10.027,7.594 10.209,6.271 9.629,4.635 9.592,4.514 9.547,4.402 9.496,4.302 9.404,3.999 9.293,3.706 9.166,3.424 8.707,2.514 8.063,1.727 7.232,1.061 7.152,1 7.086,0.949 7.035,0.908 6.73,0.707 6.441,0.524 6.17,0.363 5.838,0.201 5.52,0.05 5.215,-0.092 4.461,-0.375 3.713,-0.606 2.971,-0.788 3.16,-0.828 3.35,-0.869 3.539,-0.91"
           style="fill:#000000;fill-opacity:1;fill-rule:nonzero;stroke:none"
           transform="matrix(1.3333333,0,0,-1.3333333,360.3692,196.98093)"
           clip-path="url(#clipPath21)"
           inkscape:label="path20" />
        <path
           id="path22"
           d="m 0,0 h -0.029 -18.012 -0.061 l 0.01,0.03 0.426,1.394 0.02,0.06 h 0.06 c 0.492,-0.041 1.006,-0.009 1.541,0.092 0.061,0 0.135,0.01 0.223,0.029 0.152,0.041 0.306,0.112 0.459,0.213 0.06,0 0.123,0.039 0.187,0.121 0.033,0.04 0.086,0.081 0.158,0.122 0.051,0.1 0.116,0.211 0.194,0.333 0.056,0.121 0.131,0.262 0.22,0.424 0.213,0.565 0.42,1.141 0.62,1.727 l 3.992,13.059 c 0.191,0.625 0.342,1.251 0.453,1.878 0.01,0.1 0.021,0.202 0.031,0.303 0.004,0.141 -0.004,0.282 -0.021,0.424 -0.049,0.04 -0.073,0.091 -0.075,0.152 -0.054,0.02 -0.099,0.039 -0.132,0.061 -0.09,0.039 -0.168,0.08 -0.237,0.121 -0.568,0.121 -1.146,0.182 -1.732,0.182 h -0.061 l 0.02,0.06 0.435,1.424 0.01,0.03 h 0.061 17.797 0.031 l -0.01,-0.03 C 5.898,19.785 5.227,17.361 4.566,14.938 L 4.539,14.846 H 4.51 3.389 c -0.022,0 -0.026,0.02 -0.014,0.06 0.17,1.616 0.021,3.121 -0.443,4.516 -0.561,0.889 -1.45,1.322 -2.668,1.303 -0.768,0 -1.534,0.009 -2.293,0.029 -0.487,0 -0.969,-0.029 -1.453,-0.09 -0.168,-0.021 -0.315,-0.041 -0.442,-0.06 -0.088,-0.022 -0.164,-0.041 -0.23,-0.061 -0.075,-0.041 -0.133,-0.071 -0.18,-0.092 -0.047,-0.019 -0.084,-0.04 -0.109,-0.06 C -4.518,20.351 -4.57,20.311 -4.602,20.27 -4.693,20.168 -4.766,20.067 -4.816,19.967 -4.99,19.725 -5.092,19.492 -5.119,19.27 L -7.25,12.301 h 2.121 c 0.154,-0.02 0.32,-0.01 0.494,0.031 0.106,0.02 0.227,0.05 0.362,0.09 0.218,0.06 0.453,0.162 0.697,0.304 0.133,0.1 0.273,0.202 0.426,0.302 0.117,0.121 0.255,0.243 0.414,0.365 0.183,0.201 0.369,0.413 0.558,0.635 0.155,0.243 0.33,0.485 0.526,0.728 0.359,0.646 0.691,1.303 0.996,1.969 l 0.019,0.06 h 0.061 1.058 0.063 L 0.535,16.755 -2.717,6.12 -2.734,6.06 h -0.063 -1.058 -0.061 l 0.018,0.06 c 0.138,0.788 0.226,1.566 0.259,2.333 -0.025,0.121 -0.031,0.263 -0.023,0.424 -0.039,0.203 -0.084,0.414 -0.139,0.637 -0.07,0.162 -0.142,0.323 -0.215,0.484 -0.043,0.061 -0.074,0.121 -0.095,0.182 -0.03,0.041 -0.057,0.081 -0.084,0.122 -0.076,0.081 -0.157,0.151 -0.239,0.212 -0.097,0.08 -0.203,0.131 -0.316,0.151 -0.34,0.081 -0.682,0.121 -1.025,0.121 -0.647,0 -1.289,0.01 -1.93,0.03 l -2.297,-7.513 c -0.131,-0.364 -0.195,-0.707 -0.193,-1.031 -0.039,-0.06 -0.041,-0.1 -0.006,-0.121 -0.012,-0.101 0.01,-0.192 0.066,-0.272 0.002,-0.061 0.033,-0.092 0.094,-0.092 0.008,-0.04 0.039,-0.07 0.094,-0.09 0.043,-0.06 0.113,-0.092 0.215,-0.092 0.502,-0.14 1.041,-0.191 1.619,-0.151 0.849,0 1.711,0.011 2.586,0.03 1.336,-0.06 2.545,0.485 3.627,1.637 1.062,1.15 1.986,2.383 2.773,3.696 0.113,0.243 0.262,0.496 0.443,0.757 0.129,0.223 0.26,0.455 0.395,0.697 L 1.73,8.332 h 0.061 c 0.342,0 0.709,0.01 1.1,0.03 h 0.06 L 2.924,8.271 0.01,0.03 Z"
           style="fill:#000000;fill-opacity:1;fill-rule:nonzero;stroke:none"
           transform="matrix(1.3333333,0,0,-1.3333333,402.45507,213.46533)"
           clip-path="url(#clipPath23)"
           inkscape:label="path22" />
      </g>
    </g>
  </g>
</svg>
