<?xml version="1.0" encoding="UTF-8" standalone="no"?>
<!-- Created with Inkscape (http://www.inkscape.org/) -->

<svg
   version="1.1"
   id="svg1"
   width="859.28668"
   height="228.104"
   viewBox="0 0 859.28668 228.104"
   sodipodi:docname="12668965.svg"
   inkscape:version="1.4 (86a8ad7, 2024-10-11)"
   xmlns:inkscape="http://www.inkscape.org/namespaces/inkscape"
   xmlns:sodipodi="http://sodipodi.sourceforge.net/DTD/sodipodi-0.dtd"
   xmlns="http://www.w3.org/2000/svg"
   xmlns:svg="http://www.w3.org/2000/svg">
  <defs
     id="defs1">
    <clipPath
       clipPathUnits="userSpaceOnUse"
       id="clipPath3">
      <path
         d="M 0,171.078 H 644.465 V 0 H 0 Z"
         id="path3" />
    </clipPath>
    <clipPath
       clipPathUnits="userSpaceOnUse"
       id="clipPath5">
      <path
         d="M 0,171.078 H 644.465 V 0 H 0 Z"
         transform="translate(-269.9761,-105.1719)"
         id="path5" />
    </clipPath>
    <clipPath
       clipPathUnits="userSpaceOnUse"
       id="clipPath7">
      <path
         d="M 0,171.078 H 644.465 V 0 H 0 Z"
         transform="translate(-409.55081,-103.9629)"
         id="path7" />
    </clipPath>
  </defs>
  <sodipodi:namedview
     id="namedview1"
     pagecolor="#ffffff"
     bordercolor="#000000"
     borderopacity="0.25"
     inkscape:showpageshadow="2"
     inkscape:pageopacity="0.0"
     inkscape:pagecheckerboard="0"
     inkscape:deskcolor="#d1d1d1"
     inkscape:zoom="2.1203634"
     inkscape:cx="430.35076"
     inkscape:cy="113.89557"
     inkscape:window-width="1920"
     inkscape:window-height="1009"
     inkscape:window-x="-8"
     inkscape:window-y="-8"
     inkscape:window-maximized="1"
     inkscape:current-layer="g1">
    <inkscape:page
       x="0"
       y="0"
       inkscape:label="1"
       id="page1"
       width="859.28668"
       height="228.104"
       margin="0"
       bleed="0" />
  </sodipodi:namedview>
  <g
     id="g1"
     inkscape:groupmode="layer"
     inkscape:label="1">
    <g
       id="group-MC0">
      <path
         id="path2"
         d="M 643.965,0.5 H 0.5 v 170.078 h 643.465 z"
         style="fill:none;stroke:#000000;stroke-width:1;stroke-linecap:butt;stroke-linejoin:miter;stroke-miterlimit:4;stroke-dasharray:none;stroke-opacity:1"
         transform="matrix(1.3333333,0,0,-1.3333333,0,228.104)"
         clip-path="url(#clipPath3)" />
      <g
         id="g2">
        <path
           id="path4"
           d="m 0,0 v -0.348 c -0.348,-2.5 -0.639,-5.261 -0.871,-8.285 4.127,-0.058 8.662,-0.262 13.603,-0.609 0.057,2.847 0.086,5.375 0.086,7.586 0,0.871 -0.435,1.308 -1.306,1.308 C 9.301,-0.117 5.465,0 0,0 m -1.248,-12.57 c -0.117,-3.606 -0.465,-6.889 -1.047,-9.854 3.604,-0.058 7.936,-0.176 12.994,-0.349 1.278,0 1.889,1.046 1.83,3.14 v 5.754 c -1.047,0.233 -2.064,0.406 -3.05,0.524 -2.965,0.464 -6.541,0.726 -10.727,0.785 M -3.543,4.125 11.455,3.777 c 0.871,0 2.149,0.116 3.836,0.348 2.092,0 3.139,-0.785 3.139,-2.352 -0.35,-3.716 -0.67,-7.49 -0.959,-11.322 3.023,-0.117 5.9,-0.174 8.633,-0.174 1.335,0 2.732,0.116 4.185,0.348 0.232,0 0.35,-0.379 0.35,-1.137 0,-1.636 -0.438,-3.301 -1.309,-4.994 -0.988,-1.812 -1.947,-2.717 -2.877,-2.717 -1.223,0 -2.414,0.348 -3.576,1.047 -1.977,0.815 -3.867,1.485 -5.668,2.008 -0.117,-3.141 -0.203,-6.34 -0.262,-9.594 -0.058,-1.861 -0.959,-2.791 -2.703,-2.791 -4.185,0.407 -9.68,0.61 -16.48,0.61 h -1.045 c -0.117,-0.465 -0.264,-0.959 -0.438,-1.483 -2.035,-5.812 -4.476,-10.347 -7.324,-13.601 -3.779,-4.594 -7.209,-6.889 -10.289,-6.889 -1.047,0 -2.006,0.436 -2.877,1.307 -1.338,1.336 -2.006,2.673 -2.006,4.011 0,0.989 0.58,1.598 1.744,1.832 3.43,0.813 6.19,2.063 8.283,3.748 3.081,1.745 5.61,5.407 7.586,10.989 -4.535,-0.117 -8.691,-0.409 -12.468,-0.873 -1.338,0 -2.006,0.668 -2.006,2.006 0,1.511 0.58,2.441 1.744,2.791 3.254,0.464 7.963,0.697 14.127,0.697 0.695,2.965 1.189,6.222 1.482,9.773 -2.791,-0.117 -5.32,-0.351 -7.588,-0.699 -3.371,-0.758 -6.685,-1.717 -9.939,-2.881 -0.932,-0.349 -1.688,-0.523 -2.268,-0.523 -1.57,0.058 -2.412,0.726 -2.529,2.008 0,0.988 0.436,1.919 1.309,2.792 0.697,0.756 1.541,1.221 2.529,1.397 8.078,0.932 14.328,1.514 18.746,1.746 0.059,1.629 0.088,3.26 0.088,4.891 v 3.754 c -4.186,-0.118 -8.691,-0.438 -13.516,-0.961 -1.453,0 -2.179,0.726 -2.179,2.181 0,1.571 0.726,2.473 2.179,2.707 z m -22.039,7.633 c 1.336,0 2.006,-0.582 2.006,-1.744 0,-0.815 -0.233,-1.629 -0.697,-2.442 -2.327,-3.371 -4.885,-6.539 -7.676,-9.504 0.465,-0.582 0.699,-1.484 0.699,-2.703 -0.25,-4.941 -0.375,-9.447 -0.375,-13.515 l 0.375,-27.643 c 0,-3.721 -1.02,-5.58 -3.055,-5.58 -1.631,0 -2.445,1.859 -2.445,5.58 0.166,11.859 0.25,21.072 0.25,27.643 0,3.545 -0.059,7.41 -0.174,11.595 -0.873,-0.871 -1.803,-1.685 -2.791,-2.441 -2.267,-1.977 -4.156,-2.965 -5.668,-2.965 -1.338,0 -2.646,0.58 -3.924,1.744 -1.394,1.047 -2.091,2.094 -2.091,3.141 0,0.871 0.58,1.365 1.744,1.482 4.3,1.104 8.224,2.992 11.771,5.668 3.789,2.615 7.311,6.278 10.569,10.987 0.638,0.464 1.132,0.697 1.482,0.697"
           style="fill:#000000;fill-opacity:1;fill-rule:nonzero;stroke:none"
           transform="matrix(1.3333333,0,0,-1.3333333,359.96813,87.8748)"
           clip-path="url(#clipPath5)"
           inkscape:label="path4" />
        <path
           id="path6"
           d="M 0,0 C 1.742,-0.059 2.645,-0.871 2.703,-2.441 2.703,-2.732 2.527,-3.053 2.18,-3.4 1.016,-4.621 0.115,-5.609 -0.523,-6.365 c -0.641,-0.641 -1.165,-0.959 -1.571,-0.959 -0.756,0.058 -1.22,0.406 -1.394,1.047 0,0.347 0.465,2.006 1.394,4.97 C -1.803,-0.436 -1.105,0 0,0 m -3.836,-39.762 c 0.057,0 0.172,-0.058 0.348,-0.174 2.383,-1.279 4.302,-2.152 5.756,-2.617 1.045,-0.406 2.353,-0.638 3.923,-0.697 0.524,0 0.786,-0.35 0.786,-1.047 0,-0.756 -0.495,-1.482 -1.483,-2.18 -1.803,-1.105 -3.17,-1.656 -4.099,-1.656 -0.407,0 -0.756,0.174 -1.045,0.524 -0.7,0.58 -2.268,2.73 -4.709,6.453 -0.176,0.23 -0.262,0.463 -0.262,0.697 0.057,0.465 0.318,0.697 0.785,0.697 m 5.842,9.504 c 1.453,0 2.18,-0.844 2.18,-2.527 0,-1.106 -0.233,-1.776 -0.698,-2.006 -4.302,-1.453 -6.511,-2.18 -6.627,-2.18 -1.222,0 -1.832,0.348 -1.832,1.045 0,0.348 0.262,0.727 0.785,1.135 l 5.233,4.186 c 0.58,0.23 0.9,0.347 0.959,0.347 m -12.133,5.147 c 1.645,0 2.467,-1.047 2.467,-3.141 -0.334,-2.326 -0.5,-4.391 -0.5,-6.191 l 0.5,-10.202 c 0,-3.429 -0.942,-5.144 -2.82,-5.144 -1.704,0 -2.555,1.715 -2.555,5.144 0.25,4.36 0.375,7.76 0.375,10.202 0,1.8 -0.125,3.865 -0.375,6.191 0,2.094 0.969,3.141 2.908,3.141 m 4.809,7.662 c -1.047,1.105 -2.008,1.947 -2.879,2.529 -0.641,0.348 -0.959,0.9 -0.959,1.656 0,0.118 0.029,0.262 0.088,0.438 h -1.571 -0.871 c -0.234,-0.699 -0.467,-1.367 -0.697,-2.006 -0.35,-0.873 -0.699,-1.746 -1.047,-2.617 z m -15.959,-12.809 c 0.173,0 1.22,-0.697 3.14,-2.092 1.86,-1.338 2.789,-2.267 2.789,-2.791 0,-1.453 -0.814,-2.179 -2.441,-2.179 -0.176,0 -0.465,0.144 -0.871,0.435 -1.977,1.453 -3.488,2.326 -4.535,2.617 -0.815,0.289 -1.221,0.668 -1.221,1.133 0,1.918 1.045,2.877 3.139,2.877 M -21.975,0 c 1.106,-0.174 1.774,-0.727 2.006,-1.656 0.465,-2.268 0.698,-3.692 0.698,-4.272 -0.059,-0.931 -0.495,-1.396 -1.307,-1.396 -0.582,0 -1.135,0.377 -1.658,1.135 -0.641,1.044 -1.25,2.033 -1.83,2.964 -0.235,0.522 -0.35,1.045 -0.35,1.569 0,1.047 0.812,1.597 2.441,1.656 m 4.883,-40.459 c 0.641,0 0.961,-0.32 0.961,-0.959 0,-0.523 -0.234,-1.135 -0.699,-1.832 -4.418,-3.256 -6.947,-4.883 -7.586,-4.883 -1.918,0 -2.877,0.465 -2.877,1.395 0,1.453 0.377,2.384 1.133,2.791 0,0.232 3.021,1.394 9.068,3.488 m -6.672,31.469 h 9.069 c 0.523,1.976 0.785,4.156 0.785,6.539 0,1.627 0.668,2.441 2.006,2.441 1.683,0 2.527,-0.929 2.527,-2.789 -0.35,-1.222 -0.611,-2.676 -0.785,-4.359 -0.117,-0.641 -0.233,-1.252 -0.348,-1.832 H 6.232 c 0.698,0 1.075,-0.262 1.133,-0.785 0,-0.989 -0.349,-1.862 -1.047,-2.616 -0.697,-0.814 -1.627,-1.22 -2.789,-1.22 -0.758,0 -2.472,0.173 -5.144,0.523 -1.047,0.057 -2.153,0.086 -3.315,0.086 0.233,-0.232 0.436,-0.465 0.612,-0.697 1.509,-1.338 2.904,-2.588 4.185,-3.75 h 11.684 c 0.638,0 0.988,-0.348 1.047,-1.039 0,-0.866 -0.321,-1.672 -0.959,-2.422 -0.815,-0.694 -1.774,-1.039 -2.877,-1.039 -0.699,0 -2.035,0.086 -4.012,0.26 2.674,-2.209 4.506,-3.545 5.494,-4.01 1.277,-0.465 2.76,-0.815 4.445,-1.047 0.93,0 1.397,-0.379 1.397,-1.133 0,-0.988 -0.815,-1.976 -2.441,-2.965 -1.512,-1.047 -3.141,-1.57 -4.883,-1.57 -1.106,0 -2.153,0.377 -3.141,1.135 -2.267,3.254 -4.767,6.566 -7.498,9.935 -2.734,0.057 -5.611,0.086 -8.633,0.086 h -4.621 c -0.814,-1.219 -1.658,-2.32 -2.529,-3.308 -2.733,-3.082 -5.842,-5.348 -9.33,-6.801 -1.28,-0.699 -2.268,-1.047 -2.965,-1.047 -1.223,0 -2.414,0.756 -3.576,2.268 -0.698,1.046 -1.045,1.947 -1.045,2.703 0,0.638 0.812,1.015 2.441,1.132 3.196,0.118 6.131,1.165 8.807,3.141 0.697,0.524 1.307,1.074 1.83,1.654 -1.686,-0.117 -3.109,-0.261 -4.272,-0.433 -1.802,-0.465 -2.964,-0.697 -3.488,-0.697 -1.512,0.115 -2.355,0.953 -2.529,2.513 0.117,0.75 0.553,1.442 1.308,2.078 0.754,0.403 1.713,0.606 2.877,0.606 h 9.331 c 0.812,1.394 1.568,2.877 2.267,4.447 -2.732,-0.117 -4.853,-0.262 -6.365,-0.436 -1.395,-0.349 -2.297,-0.523 -2.703,-0.523 -1.512,0.115 -2.356,0.959 -2.53,2.529 0.059,0.639 0.495,1.248 1.309,1.83 0.639,0.407 1.482,0.612 2.529,0.612 m -25.021,-5.709 h 0.699 7.324 0.698 c 0.058,3.504 0.173,6.685 0.349,9.549 0,0.466 -0.728,0.701 -2.181,0.701 -2.5,0 -4.795,-0.059 -6.889,-0.176 z m -0.262,-12.496 c 0.233,0.058 0.436,0.088 0.611,0.088 h 7.674 c 0.174,0 0.319,-0.03 0.436,-0.088 0.058,3.254 0.115,6.306 0.174,9.156 -0.118,-0.059 -0.203,-0.088 -0.262,-0.088 -3.488,0 -6.162,-0.232 -8.022,-0.697 -0.117,0 -0.232,0.029 -0.349,0.088 v -2.965 c 0,-1.92 -0.088,-3.752 -0.262,-5.494 M -57.338,9.07 h 17.613 l -0.435,1.83 c 0,1.627 0.93,2.442 2.793,2.442 1.804,0 2.707,-0.93 2.707,-2.789 V 9.07 h 20.662 l 0.088,1.133 c 0,2.092 0.93,3.139 2.793,3.139 1.804,0 2.707,-0.93 2.707,-2.789 L -8.76,9.07 h 19.971 c 0.871,0 1.336,-0.349 1.394,-1.047 0,-1.046 -0.349,-2.035 -1.046,-2.964 C 10.688,4.244 9.641,3.838 8.42,3.838 6.676,3.838 2.49,4.1 -4.137,4.623 -6.055,4.68 -8.004,4.709 -9.984,4.709 l -0.438,-1.482 c -0.527,-0.989 -1.256,-1.483 -2.187,-1.483 -1.11,0 -1.664,0.697 -1.664,2.094 v 0.959 c -3.967,0.058 -8.108,0.088 -12.424,0.088 H -34.66 V 3.838 c -0.059,-1.397 -0.611,-2.094 -1.658,-2.094 -1.223,0 -1.952,0.813 -2.184,2.442 l -0.086,0.611 c -6.164,-0.117 -10.99,-0.32 -14.478,-0.611 -3.082,-0.407 -5.059,-0.61 -5.93,-0.61 -1.744,0.059 -2.703,0.871 -2.877,2.442 0.115,0.812 0.58,1.597 1.396,2.353 0.813,0.465 1.86,0.699 3.139,0.699 m 5.379,-9.035 c 0.752,0 1.332,-0.117 1.738,-0.348 l 8.606,-0.261 c 0.81,0 2.115,0.203 3.912,0.609 2.027,0 3.043,-0.697 3.043,-2.092 -0.824,-5.582 -1.235,-12.441 -1.235,-20.578 0,-5.64 0.204,-13.662 0.61,-24.068 0,-2.324 -0.928,-3.486 -2.779,-3.486 -0.813,0 -1.45,0.435 -1.913,1.306 -0.289,1.106 -0.433,2.529 -0.433,4.274 0,4.998 0.029,9.677 0.088,14.039 -3.672,0 -6.5,-0.233 -8.481,-0.698 h -0.611 c -0.234,-1.92 -0.525,-3.722 -0.875,-5.406 -0.992,-4.012 -2.186,-6.949 -3.584,-8.808 -1.338,-2.209 -2.703,-3.313 -4.098,-3.313 -1.338,0 -2.646,0.406 -3.924,1.221 -1.046,0.871 -1.57,1.859 -1.57,2.965 0,0.754 0.551,1.336 1.656,1.744 1.977,1.336 3.575,3.254 4.797,5.754 1.219,2.15 2.033,5.056 2.442,8.72 0.523,3.662 0.785,8.198 0.785,13.604 0,3.139 -0.205,7.266 -0.611,12.381 0,1.627 0.812,2.441 2.437,2.441"
           style="fill:#000000;fill-opacity:1;fill-rule:nonzero;stroke:none"
           transform="matrix(1.3333333,0,0,-1.3333333,546.06773,89.4868)"
           clip-path="url(#clipPath7)"
           inkscape:label="path6" />
      </g>
    </g>
  </g>
</svg>
