<?xml version="1.0" encoding="UTF-8" standalone="no"?>
<!-- Created with Inkscape (http://www.inkscape.org/) -->

<svg
   version="1.1"
   id="svg1"
   width="454.86401"
   height="265.89066"
   viewBox="0 0 454.86401 265.89066"
   sodipodi:docname="12770801.svg"
   inkscape:version="1.4 (86a8ad7, 2024-10-11)"
   xmlns:inkscape="http://www.inkscape.org/namespaces/inkscape"
   xmlns:sodipodi="http://sodipodi.sourceforge.net/DTD/sodipodi-0.dtd"
   xmlns="http://www.w3.org/2000/svg"
   xmlns:svg="http://www.w3.org/2000/svg">
  <defs
     id="defs1">
    <clipPath
       clipPathUnits="userSpaceOnUse"
       id="clipPath3">
      <path
         d="M 0,199.418 H 341.148 V 0 H 0 Z"
         id="path3" />
    </clipPath>
    <clipPath
       clipPathUnits="userSpaceOnUse"
       id="clipPath5">
      <path
         d="M 0,199.418 H 341.148 V 0 H 0 Z"
         transform="translate(-83.4097,-171.1011)"
         id="path5" />
    </clipPath>
    <clipPath
       clipPathUnits="userSpaceOnUse"
       id="clipPath7">
      <path
         d="M 0,199.418 H 341.148 V 0 H 0 Z"
         transform="translate(-256.50201,-133.1143)"
         id="path7" />
    </clipPath>
    <clipPath
       clipPathUnits="userSpaceOnUse"
       id="clipPath9">
      <path
         d="M 0,199.418 H 341.148 V 0 H 0 Z"
         transform="translate(-60.751001,-47.235404)"
         id="path9" />
    </clipPath>
    <clipPath
       clipPathUnits="userSpaceOnUse"
       id="clipPath11">
      <path
         d="M 0,199.418 H 341.148 V 0 H 0 Z"
         transform="translate(-98.208002,-48.620099)"
         id="path11" />
    </clipPath>
    <clipPath
       clipPathUnits="userSpaceOnUse"
       id="clipPath13">
      <path
         d="M 0,199.418 H 341.148 V 0 H 0 Z"
         transform="translate(-137.563,-25.311501)"
         id="path13" />
    </clipPath>
    <clipPath
       clipPathUnits="userSpaceOnUse"
       id="clipPath15">
      <path
         d="M 0,199.418 H 341.148 V 0 H 0 Z"
         transform="translate(-162.3628,-37.735401)"
         id="path15" />
    </clipPath>
    <clipPath
       clipPathUnits="userSpaceOnUse"
       id="clipPath17">
      <path
         d="M 0,199.418 H 341.148 V 0 H 0 Z"
         transform="translate(-190.23,-25.107403)"
         id="path17" />
    </clipPath>
    <clipPath
       clipPathUnits="userSpaceOnUse"
       id="clipPath19">
      <path
         d="M 0,199.418 H 341.148 V 0 H 0 Z"
         transform="translate(-201.30271,-32.343801)"
         id="path19" />
    </clipPath>
    <clipPath
       clipPathUnits="userSpaceOnUse"
       id="clipPath21">
      <path
         d="M 0,199.418 H 341.148 V 0 H 0 Z"
         transform="translate(-247.11381,-29.026401)"
         id="path21" />
    </clipPath>
    <clipPath
       clipPathUnits="userSpaceOnUse"
       id="clipPath23">
      <path
         d="M 0,199.418 H 341.148 V 0 H 0 Z"
         transform="translate(-263.3101,-32.343801)"
         id="path23" />
    </clipPath>
  </defs>
  <sodipodi:namedview
     id="namedview1"
     pagecolor="#ffffff"
     bordercolor="#000000"
     borderopacity="0.25"
     inkscape:showpageshadow="2"
     inkscape:pageopacity="0.0"
     inkscape:pagecheckerboard="0"
     inkscape:deskcolor="#d1d1d1"
     inkscape:zoom="3.3284359"
     inkscape:cx="227.58437"
     inkscape:cy="192.43273"
     inkscape:window-width="1920"
     inkscape:window-height="1009"
     inkscape:window-x="-8"
     inkscape:window-y="-8"
     inkscape:window-maximized="1"
     inkscape:current-layer="g1">
    <inkscape:page
       x="0"
       y="0"
       inkscape:label="1"
       id="page1"
       width="454.86401"
       height="265.89066"
       margin="0"
       bleed="0" />
  </sodipodi:namedview>
  <g
     id="g1"
     inkscape:groupmode="layer"
     inkscape:label="1">
    <g
       id="group-MC0">
      <path
         id="path2"
         d="M 340.648,198.918 H 0.5 V 0.5 h 340.148 z"
         style="fill:none;stroke:#363639;stroke-width:1;stroke-linecap:butt;stroke-linejoin:miter;stroke-miterlimit:4;stroke-dasharray:none;stroke-opacity:1"
         transform="matrix(1.3333333,0,0,-1.3333333,0,265.89067)"
         clip-path="url(#clipPath3)" />
      <g
         id="g3">
        <path
           id="path4"
           d="m 0,0 c 5.035,-1.741 8.766,-3.421 11.191,-5.036 2.548,-1.74 3.823,-4.228 3.823,-7.461 0,-1.431 -0.311,-2.704 -0.933,-3.823 -0.81,-1.431 -1.864,-2.145 -3.17,-2.145 -2.301,0 -4.477,1.927 -6.528,5.782 -1.866,3.233 -3.389,7.398 -4.571,12.496 z m -19.12,-56.265 0.467,0.468 c 5.223,1.988 10.229,4.972 15.016,8.953 4.66,4.041 10.194,10.102 16.598,18.183 -7.15,-1.802 -11.377,-3.108 -12.681,-3.915 -1.432,-0.995 -2.364,-1.492 -2.799,-1.492 -1.181,0 -3.266,1.983 -6.248,5.951 -1.556,2.046 -2.426,3.658 -2.612,4.836 l 0.654,3.264 c 1.305,-1.368 2.642,-2.238 4.01,-2.611 0.993,-0.311 2.33,-0.467 4.01,-0.467 3.294,0 9.916,0.964 19.864,2.894 l 1.772,0.374 0.187,2.145 c 0.061,0.498 0.093,0.903 0.093,1.214 0,2.863 -0.25,7.25 -0.746,13.162 -0.436,4.977 -0.904,7.872 -1.4,8.681 -0.684,1.119 -2.052,1.679 -4.104,1.679 h -1.77 l 0.093,0.372 c 2.3,2.663 4.351,3.996 6.154,3.996 2.114,0 5.347,-1.182 9.699,-3.543 2.797,-1.49 4.197,-2.982 4.197,-4.473 0,-0.25 -0.157,-0.903 -0.466,-1.958 -1.369,-3.667 -2.27,-8.855 -2.705,-15.567 6.03,7.519 9.047,12.366 9.047,14.542 0,0.932 -0.871,2.112 -2.612,3.542 l 0.093,0.28 c 1.431,0.932 2.519,1.398 3.265,1.398 1.554,0 3.73,-0.777 6.528,-2.33 3.481,-2.051 5.222,-3.886 5.222,-5.501 0,-1.243 -1.648,-2.953 -4.942,-5.126 -4.415,-2.86 -10.104,-6.402 -17.067,-10.627 6.031,0.621 11.875,1.739 17.533,3.356 1.554,0.434 2.642,1.335 3.264,2.703 3.481,-1.803 6.495,-3.885 9.046,-6.245 1.678,-1.43 2.518,-2.704 2.518,-3.822 0,-1.182 -0.405,-2.114 -1.212,-2.797 -0.436,-0.372 -0.902,-0.559 -1.4,-0.559 -0.063,0 -0.903,0.061 -2.517,0.187 -3.173,0.309 -5.596,0.466 -7.274,0.466 -5.473,0 -12.095,-0.466 -19.865,-1.398 5.783,-4.973 12.404,-9.852 19.865,-14.639 8.268,-5.285 15.79,-9.327 22.568,-12.124 l 0.187,-0.374 c -2.985,-1.305 -6.281,-2.362 -9.886,-3.171 -6.217,-1.43 -10.166,-2.143 -11.843,-2.143 -0.623,0 -1.119,0.186 -1.492,0.559 -0.686,0.745 -1.836,2.237 -3.451,4.476 -5.473,7.958 -10.788,14.611 -15.948,19.958 l 0.466,-25.833 v -2.145 c 0,-3.483 -0.623,-6.372 -1.864,-8.673 -0.684,-1.243 -1.587,-1.865 -2.705,-1.865 -1.618,0 -3.482,1.897 -5.595,5.689 -2.052,3.729 -3.078,6.092 -3.078,7.087 0,0.373 0.187,0.994 0.559,1.865 1.367,2.549 2.206,7.056 2.519,13.523 l 0.28,6.808 C 11.407,-44.265 5.843,-49.331 1.678,-52.253 c -4.167,-2.923 -8.022,-4.384 -11.564,-4.384 h -0.839 z"
           style="fill:#231f20;fill-opacity:1;fill-rule:nonzero;stroke:none"
           transform="matrix(1.3333333,0,0,-1.3333333,111.21293,37.755867)"
           clip-path="url(#clipPath5)"
           inkscape:label="path4" />
        <path
           id="path6"
           d="m 0,0 c 0,-0.063 0.069,-0.093 0.213,-0.093 0,0.061 0.058,0.154 0.175,0.28 0.409,2.311 0.847,4.655 1.316,7.031 0,0.061 0.03,0.247 0.094,0.558 H 1.52 C 0.226,7.59 -0.974,7.434 -2.081,7.311 h -0.37 c 0,-0.126 0.032,-0.22 0.096,-0.281 0,-0.377 0.093,-0.751 0.281,-1.126 C -2.262,5.092 -2.387,4.31 -2.451,3.561 -2.886,2.622 -3.135,1.716 -3.197,0.842 V 0.187 c 0.062,0 0.217,0.029 0.467,0.093 h 0.751 C -1.414,0.155 -0.754,0.061 0,0 m -7.884,-0.679 v 0.371 c 0.062,2.104 0.155,4.242 0.28,6.409 v 0.464 h -0.28 C -9.252,6.44 -10.589,6.254 -11.894,6.008 h -0.466 c 0,-0.187 0.093,-0.31 0.28,-0.372 0.372,-2.167 0.621,-4.304 0.746,-6.408 v -0.373 h 0.373 l 2.611,0.466 z m -0.745,-28.671 0.092,0.093 c 0.871,1.678 1.587,3.483 2.146,5.41 0,0.123 0.062,0.373 0.187,0.746 -0.187,-0.064 -0.373,-0.093 -0.559,-0.093 -2.425,-0.436 -4.851,-0.809 -7.275,-1.12 -0.249,-0.125 -0.468,-0.219 -0.654,-0.28 0.062,-0.25 0.218,-0.405 0.468,-0.466 0.309,-0.809 0.683,-1.523 1.119,-2.144 0.248,-0.809 0.434,-1.557 0.559,-2.239 v -0.466 h 0.466 l 3.264,0.466 z M -20.473,4.316 c 0,-0.249 0.03,-0.404 0.093,-0.466 0.373,-2.052 0.776,-4.166 1.213,-6.34 v -0.375 h 0.279 c 0.87,0.25 1.802,0.498 2.798,0.747 h 0.186 v 0.187 c -0.063,2.301 -0.372,4.569 -0.932,6.808 -0.063,0 -0.093,0.061 -0.093,0.186 C -17.115,5 -17.241,4.971 -17.302,4.971 L -20.193,4.41 c -0.125,-0.064 -0.218,-0.094 -0.28,-0.094 m -14.194,-25.425 c 0.56,-0.186 1.119,-0.343 1.678,-0.466 h 1.586 c 6.341,0.249 12.59,0.964 18.745,2.146 h 0.187 v 0.374 3.833 0.467 c -0.125,-0.063 -0.311,-0.093 -0.559,-0.093 -1.555,-0.498 -3.078,-1.057 -4.57,-1.678 -0.063,-0.063 -0.188,-0.14 -0.374,-0.233 -0.186,-0.094 -0.498,-0.139 -0.932,-0.139 H -19 c -0.311,-0.064 -0.591,-0.033 -0.838,0.092 -0.436,0 -0.871,0.094 -1.306,0.28 -0.873,0.621 -1.617,1.312 -2.239,2.071 -0.249,0.263 -0.436,0.493 -0.558,0.689 -0.623,0.566 -1.058,1.253 -1.306,2.062 -0.188,0.187 -0.313,0.467 -0.375,0.839 0.498,-0.25 1.058,-0.436 1.681,-0.559 0.434,-0.125 0.932,-0.186 1.491,-0.186 0.373,-0.125 0.777,-0.157 1.213,-0.094 2.797,0.062 5.533,0.467 8.207,1.212 h 0.372 v 0.28 c -0.249,1.119 -0.498,2.239 -0.745,3.357 -0.064,0.062 -0.094,0.155 -0.094,0.28 -0.186,-0.063 -0.311,-0.093 -0.373,-0.093 -1.181,-0.187 -2.332,-0.436 -3.45,-0.746 -0.186,-0.064 -0.311,-0.109 -0.373,-0.14 -0.063,-0.031 -0.063,-0.078 0,-0.14 -0.436,-0.559 -0.933,-1.025 -1.493,-1.398 -0.373,-0.25 -0.684,-0.373 -0.932,-0.373 h -0.28 -0.746 c -0.311,0.062 -0.561,0.155 -0.747,0.28 -0.373,0.061 -0.652,0.216 -0.839,0.466 -1.305,0.746 -2.455,1.678 -3.451,2.798 0,0.807 0.062,1.678 0.187,2.61 v 0.093 h -0.093 c -0.684,2.86 -1.555,5.69 -2.61,8.488 -0.25,0.31 -0.5,0.682 -0.748,1.119 -0.497,0.745 -1.026,1.429 -1.584,2.052 -0.312,0.186 -0.56,0.403 -0.746,0.652 l 0.093,0.094 c 0.062,0.123 0.217,0.341 0.466,0.652 0.248,0.062 0.496,0.186 0.745,0.373 0.374,0.062 0.776,0.093 1.212,0.093 1.989,-0.186 3.917,-0.529 5.783,-1.025 V 9.187 l 0.093,0.093 c 7.834,0.621 15.606,2.019 23.317,4.197 0.745,0 1.49,0.279 2.236,0.838 0.248,0.062 0.528,0.217 0.84,0.466 0.309,0.123 0.558,0.342 0.747,0.653 2.361,-1.616 4.662,-3.265 6.9,-4.942 C 11.215,9.869 11.745,9.28 12.242,8.721 12.365,8.346 12.553,8.097 12.802,7.973 12.864,7.849 12.896,7.694 12.896,7.507 12.832,7.257 12.802,7.103 12.802,7.041 12.43,6.668 12.149,6.295 11.964,5.923 11.652,5.611 11.434,5.332 11.311,5.083 10.563,4.149 9.972,3.217 9.537,2.285 8.915,1.227 8.419,0.14 8.047,-0.979 7.487,-2.411 6.803,-3.684 5.994,-4.803 5.931,-4.866 5.837,-4.989 5.714,-5.175 5.589,-5.361 5.371,-5.58 5.062,-5.828 4.75,-6.014 4.439,-6.107 4.13,-6.107 3.757,-6.295 3.353,-6.359 2.916,-6.295 H 2.823 c -0.311,0 -0.559,0.061 -0.745,0.188 -0.374,0.061 -0.717,0.123 -1.026,0.186 -1.059,0.434 -2.085,0.932 -3.078,1.492 h -0.093 c -1.182,-0.126 -2.271,-0.25 -3.265,-0.374 -0.186,-0.063 -0.311,-0.093 -0.372,-0.093 0.061,-0.25 0.122,-0.436 0.186,-0.559 0.062,-0.249 0.155,-0.436 0.28,-0.559 0.123,-0.436 0.186,-0.779 0.186,-1.027 0.124,-0.498 0.187,-0.996 0.187,-1.492 v -0.466 c 0.123,0 0.248,0.062 0.372,0.186 h 0.187 c 0.932,0 1.896,0.217 2.891,0.653 0.56,0.123 1.087,0.496 1.587,1.119 1.055,-0.685 2.205,-1.369 3.45,-2.051 0.187,-0.186 0.373,-0.405 0.56,-0.653 0.248,-0.249 0.403,-0.499 0.466,-0.747 0.123,-0.373 0.217,-0.684 0.279,-0.932 v -0.28 c -0.062,-0.373 -0.156,-0.623 -0.279,-0.745 -0.063,-0.125 -0.094,-0.25 -0.094,-0.373 -0.25,-0.063 -0.436,-0.187 -0.559,-0.373 -0.125,-0.064 -0.218,-0.093 -0.279,-0.093 -0.375,-0.188 -0.654,-0.188 -0.841,0 h -4.662 c -0.996,-0.064 -1.96,-0.157 -2.892,-0.282 h -0.373 v -0.28 c -0.125,-1.304 -0.186,-2.516 -0.186,-3.634 -0.064,-0.25 -0.094,-0.436 -0.094,-0.56 0.187,0 0.404,0.029 0.653,0.093 3.855,0.373 7.741,1.025 11.657,1.959 1.677,0.435 3.326,1.18 4.943,2.238 2.362,-1.492 4.631,-3.086 6.809,-4.784 0.248,-0.265 0.496,-0.497 0.747,-0.693 0.06,-0.506 0.247,-0.914 0.558,-1.224 0.062,-0.435 0.186,-0.84 0.373,-1.213 v -0.186 c -0.187,-0.373 -0.28,-0.684 -0.28,-0.932 -0.124,-0.126 -0.219,-0.25 -0.279,-0.373 -0.251,-0.064 -0.372,-0.218 -0.372,-0.466 -0.126,-0.125 -0.28,-0.157 -0.468,-0.093 -0.372,-0.126 -0.747,-0.157 -1.119,-0.094 -0.996,0 -1.928,0.062 -2.796,0.187 -2.426,0.496 -4.821,0.868 -7.182,1.118 H 7.673 c -0.249,-0.186 -0.467,-0.218 -0.654,-0.093 -1.864,-0.186 -3.666,-0.312 -5.408,-0.373 -0.125,-0.063 -0.187,-0.156 -0.187,-0.279 -0.063,-0.373 -0.186,-0.623 -0.372,-0.747 -0.25,-0.436 -0.498,-0.81 -0.746,-1.12 -0.499,-0.559 -0.934,-1.056 -1.306,-1.491 -0.374,-0.497 -0.746,-0.932 -1.119,-1.305 -0.064,-0.063 -0.093,-0.127 -0.093,-0.189 0,-0.186 0.061,-0.311 0.186,-0.372 h 0.187 c 1.927,0.372 3.791,0.996 5.596,1.866 0,-0.249 0.061,-0.311 0.186,-0.186 0.746,-0.373 1.492,-0.778 2.238,-1.214 0.495,-0.372 0.994,-0.777 1.492,-1.212 0.248,-0.186 0.467,-0.436 0.653,-0.746 0.248,-0.249 0.403,-0.559 0.466,-0.932 0.187,-0.311 0.28,-0.529 0.28,-0.652 v -0.468 c -0.25,-0.125 -0.373,-0.218 -0.373,-0.279 -0.064,-0.25 -0.14,-0.389 -0.233,-0.421 -0.093,-0.031 -0.204,-0.109 -0.326,-0.232 -0.311,-0.125 -0.591,-0.156 -0.839,-0.094 -0.996,-0.249 -2.023,-0.343 -3.078,-0.28 -3.296,-0.185 -6.531,-0.465 -9.7,-0.837 h -0.559 c 0.186,-0.187 0.309,-0.374 0.373,-0.56 0.062,-0.313 0.155,-0.593 0.279,-0.841 0.062,-0.497 0.155,-0.932 0.28,-1.304 0.124,-0.498 0.187,-0.996 0.187,-1.492 v -0.281 h 0.372 c 2.611,0.249 5.161,0.747 7.648,1.493 1.182,0.496 2.3,1.087 3.357,1.771 2.051,-1.119 4.041,-2.363 5.97,-3.73 0.372,-0.373 0.682,-0.716 0.931,-1.025 0.31,-0.437 0.559,-0.84 0.746,-1.213 0.062,-0.435 0.093,-0.809 0.093,-1.121 v -0.28 c 0,-0.372 -0.031,-0.651 -0.093,-0.837 -0.187,-0.25 -0.31,-0.438 -0.374,-0.56 -0.062,-0.311 -0.216,-0.436 -0.465,-0.372 -0.187,-0.127 -0.343,-0.187 -0.466,-0.187 -0.497,-0.251 -0.964,-0.28 -1.398,-0.093 -2.178,-0.125 -4.291,-0.063 -6.342,0.185 -0.373,0 -0.746,0.031 -1.119,0.095 -0.436,-0.127 -0.811,-0.127 -1.12,0 -2.426,-0.127 -4.788,-0.187 -7.088,-0.187 h -0.373 v -0.372 c 0.062,-4.852 0.186,-9.669 0.373,-14.455 v -0.933 c 0,-0.498 -0.032,-0.934 -0.093,-1.307 -0.187,-0.682 -0.311,-1.305 -0.373,-1.864 -0.373,-0.623 -0.653,-1.214 -0.839,-1.773 -0.125,-0.248 -0.28,-0.403 -0.466,-0.466 -0.187,-0.496 -0.436,-0.808 -0.746,-0.933 -0.186,-0.186 -0.436,-0.341 -0.747,-0.466 -0.25,-0.186 -0.529,-0.216 -0.84,-0.092 -0.186,-0.124 -0.372,-0.094 -0.558,0.092 -0.436,0.064 -0.746,0.219 -0.932,0.466 -0.623,0.497 -1.183,1.057 -1.68,1.678 -1.491,1.991 -2.735,4.291 -3.731,6.902 0.062,0 0.094,0.061 0.094,0.186 0.497,1.49 0.84,3.078 1.027,4.757 0.248,2.236 0.402,4.507 0.466,6.806 v 0.374 h -0.373 c -1.368,-0.186 -2.705,-0.405 -4.01,-0.653 -1.12,-0.185 -2.177,-0.497 -3.171,-0.933 -0.934,-0.435 -1.836,-0.837 -2.704,-1.21 -0.312,-0.187 -0.56,-0.312 -0.747,-0.373 h -0.373 c -0.186,-0.187 -0.374,-0.157 -0.561,0.093 -0.559,0.062 -1.088,0.247 -1.584,0.559 -0.746,0.373 -1.462,0.839 -2.146,1.398 -0.623,0.249 -1.119,0.621 -1.491,1.119 -0.56,0.31 -1.057,0.685 -1.492,1.12 -0.312,0.309 -0.531,0.682 -0.654,1.12 -0.373,0.372 -0.591,0.806 -0.653,1.303 -0.124,0.436 -0.186,0.935 -0.186,1.495 -0.125,0.372 -0.156,0.806 -0.093,1.304 0.932,-0.623 1.989,-0.995 3.171,-1.119 1.119,-0.435 2.298,-0.59 3.544,-0.466 4.476,0.122 8.952,0.621 13.43,1.491 h 0.373 v 0.186 c 0,0.685 -0.032,1.369 -0.094,2.055 -0.125,0.247 -0.217,0.588 -0.279,1.025 -0.186,0.186 -0.312,0.494 -0.373,0.932 -0.063,0.06 -0.094,0.123 -0.094,0.185 -0.186,-0.062 -0.311,-0.093 -0.374,-0.093 -2.114,-0.249 -4.071,-0.777 -5.874,-1.584 -0.187,0 -0.28,-0.032 -0.28,-0.094 -0.373,-0.186 -0.747,-0.279 -1.12,-0.279 h -0.186 -0.187 -0.279 c -0.499,0.123 -0.872,0.373 -1.119,0.746 -0.996,0.681 -1.866,1.522 -2.612,2.517 -0.436,0.311 -0.809,0.716 -1.119,1.212 -0.311,0.249 -0.559,0.56 -0.745,0.932 0,0.063 -0.032,0.125 -0.093,0.187 0,0.373 0.061,0.81 0.186,1.307 0.309,-0.25 0.589,-0.436 0.839,-0.56 0.373,-0.313 0.807,-0.56 1.305,-0.747 0.436,-0.062 0.84,-0.093 1.213,-0.093 h 0.094 0.186 c 1.18,0.187 2.331,0.374 3.451,0.561 0.248,0 0.466,0.03 0.652,0.093 -0.063,0.123 -0.125,0.28 -0.186,0.466 -0.187,0.249 -0.343,0.589 -0.466,1.025 -0.126,0.436 -0.187,0.933 -0.187,1.493 -0.125,0.497 -0.156,1.088 -0.093,1.772 v 0.559 c -0.186,-0.063 -0.343,-0.093 -0.466,-0.093 -2.238,-0.684 -4.384,-1.368 -6.435,-2.052 -0.064,-0.186 -0.125,-0.25 -0.187,-0.186 -0.372,-0.187 -0.684,-0.25 -0.934,-0.187 h -0.186 -0.186 c -0.373,-0.063 -0.653,0 -0.84,0.187 -1.056,0.622 -1.959,1.306 -2.704,2.052 -0.436,0.248 -0.809,0.589 -1.119,1.025 -0.311,0.186 -0.559,0.496 -0.746,0.932 -0.559,0.373 -0.902,0.871 -1.024,1.494 -0.064,0.061 -0.157,0.186 -0.282,0.372 -0.187,0.31 -0.25,0.683 -0.187,1.119 -0.124,0.373 -0.156,0.745 -0.093,1.12 h 0.093 c 0.436,-0.561 1.057,-0.841 1.866,-0.841 M -46.212,9.167 c 1.428,0 2.889,-0.156 4.383,-0.466 1.118,-0.374 2.205,-0.841 3.264,-1.4 0.496,-0.373 0.962,-0.684 1.398,-0.932 0.373,-0.498 0.746,-0.965 1.121,-1.398 0.122,-0.5 0.279,-0.997 0.465,-1.493 0.123,-0.624 0.217,-1.183 0.28,-1.679 -0.063,-0.685 -0.157,-1.306 -0.28,-1.865 -0.124,-0.25 -0.186,-0.466 -0.186,-0.654 -0.064,-0.186 -0.093,-0.311 -0.093,-0.372 -0.064,-0.125 -0.125,-0.218 -0.186,-0.28 -0.25,-0.311 -0.407,-0.497 -0.468,-0.559 -0.125,-0.125 -0.311,-0.187 -0.56,-0.187 -0.186,-0.186 -0.343,-0.279 -0.466,-0.279 h -0.932 -0.466 c -0.498,0 -0.902,0.093 -1.213,0.279 -0.498,0 -0.964,0.094 -1.399,0.28 -1.182,0.496 -2.239,1.149 -3.171,1.958 -2.673,2.423 -5.067,5.16 -7.181,8.208 v 0.093 c 1.864,0.434 3.762,0.683 5.69,0.746 M -56.471,-8.366 c 0.062,-0.125 0.186,-0.25 0.373,-0.373 0.186,0 0.372,-0.032 0.559,-0.094 2.797,-1.12 5.688,-1.99 8.674,-2.611 0.932,-0.186 1.833,-0.498 2.704,-0.932 0.061,-0.063 0.154,-0.093 0.279,-0.093 0.248,-0.25 0.528,-0.498 0.841,-0.746 0.123,-0.125 0.341,-0.281 0.652,-0.468 0.123,-0.125 0.248,-0.25 0.373,-0.373 0.123,-0.311 0.248,-0.529 0.373,-0.652 0.123,-0.312 0.248,-0.591 0.372,-0.839 0,-0.125 0.063,-0.186 0.188,-0.186 0,-0.312 0.061,-0.653 0.186,-1.026 v -1.12 c 0,-0.746 -0.063,-1.462 -0.186,-2.144 0,-0.373 -0.157,-0.654 -0.467,-0.841 -0.124,-0.311 -0.218,-0.529 -0.279,-0.652 -0.187,-0.187 -0.312,-0.343 -0.373,-0.466 -0.373,-0.187 -0.623,-0.344 -0.746,-0.466 -0.25,-0.064 -0.468,-0.094 -0.655,-0.094 -0.372,-0.125 -0.683,-0.186 -0.932,-0.186 -0.622,0 -1.118,0.093 -1.491,0.28 -0.623,0.061 -1.182,0.216 -1.68,0.466 0,0.123 -0.031,0.186 -0.092,0.186 -0.56,0.187 -1.026,0.496 -1.398,0.932 -0.56,0.311 -1.089,0.716 -1.587,1.214 -0.25,0.123 -0.436,0.341 -0.56,0.652 -0.684,0.621 -1.275,1.337 -1.77,2.145 -0.623,0.683 -1.089,1.461 -1.401,2.331 -0.186,0.062 -0.311,0.216 -0.372,0.466 -0.436,0.932 -0.778,1.896 -1.026,2.891 -0.311,0.87 -0.529,1.803 -0.652,2.799 z m 18.438,-22.755 v -1.027 c -0.311,-2.86 -0.839,-5.625 -1.584,-8.299 -0.996,-3.919 -2.239,-7.742 -3.73,-11.471 -0.562,-1.619 -1.121,-3.172 -1.68,-4.663 -0.125,-0.622 -0.343,-1.15 -0.653,-1.586 -0.124,-0.495 -0.342,-0.9 -0.652,-1.212 -0.064,-0.185 -0.14,-0.342 -0.233,-0.466 -0.093,-0.124 -0.203,-0.217 -0.327,-0.279 h -0.28 c -0.064,-0.062 -0.125,-0.094 -0.187,-0.094 h -0.373 c -0.125,0 -0.25,0.032 -0.372,0.094 -0.312,0 -0.53,0.031 -0.654,0.093 -0.558,0.25 -1.025,0.558 -1.398,0.932 -1.431,0.807 -2.737,1.865 -3.916,3.17 -0.996,0.868 -1.804,1.959 -2.426,3.265 -0.311,0.435 -0.529,0.933 -0.652,1.492 -0.125,0.372 -0.157,0.839 -0.093,1.398 -0.064,0.559 -0.032,1.121 0.093,1.679 0,0.435 0.155,0.933 0.466,1.491 0,-0.062 0.03,-0.124 0.093,-0.185 0,-0.065 0.03,-0.094 0.093,-0.094 0.123,-0.311 0.31,-0.529 0.56,-0.653 0.186,-0.063 0.402,-0.124 0.652,-0.186 h 0.839 0.188 c 0.31,0 0.559,0.062 0.746,0.186 0.496,0.124 0.932,0.435 1.305,0.932 0.932,0.932 1.833,2.023 2.705,3.266 3.792,6.154 7.366,12.527 10.724,19.118 0.311,-2.3 0.56,-4.6 0.746,-6.901"
           style="fill:#231f20;fill-opacity:1;fill-rule:nonzero;stroke:none"
           transform="matrix(1.3333333,0,0,-1.3333333,342.00267,88.404933)"
           clip-path="url(#clipPath7)"
           inkscape:label="path6" />
      </g>
      <g
         id="g2">
        <path
           id="path8"
           d="m 0,0 c -0.264,0.396 -0.396,0.803 -0.396,1.221 0,0.241 0.055,0.478 0.165,0.708 0.109,0.231 0.263,0.446 0.462,0.642 0.197,0.2 0.434,0.359 0.708,0.481 0.275,0.12 0.556,0.18 0.842,0.18 0.395,0 0.709,-0.083 0.94,-0.247 0.231,-0.166 0.434,-0.39 0.611,-0.676 l 7.724,-11.611 8.248,12.039 c 0.11,0.155 0.225,0.275 0.346,0.363 0.122,0.089 0.292,0.132 0.512,0.132 0.307,0 0.561,-0.098 0.758,-0.296 0.198,-0.199 0.297,-0.452 0.297,-0.76 0,-0.197 -0.054,-0.373 -0.164,-0.528 l -8.676,-12.535 v -11.511 c 0,-0.639 -0.187,-1.127 -0.561,-1.467 -0.375,-0.342 -0.86,-0.511 -1.455,-0.511 -0.572,0 -1.052,0.164 -1.438,0.493 -0.385,0.331 -0.577,0.825 -0.577,1.485 v 10.193 z"
           style="fill:#231f20;fill-opacity:1;fill-rule:nonzero;stroke:none"
           transform="matrix(1.3333333,0,0,-1.3333333,81.001333,202.91013)"
           clip-path="url(#clipPath9)"
           inkscape:label="path8" />
        <path
           id="path10"
           d="m 0,0 c -1.055,0 -2.018,-0.197 -2.886,-0.593 -0.869,-0.396 -1.627,-1.056 -2.276,-1.98 -0.649,-0.925 -1.15,-2.157 -1.501,-3.698 -0.352,-1.541 -0.527,-3.443 -0.527,-5.71 0,-4.204 0.62,-7.252 1.863,-9.144 1.243,-1.893 3.018,-2.839 5.327,-2.839 1.034,0 1.979,0.197 2.837,0.594 0.857,0.395 1.611,1.057 2.26,1.98 0.649,0.924 1.154,2.158 1.517,3.698 0.363,1.541 0.545,3.444 0.545,5.711 0,2.089 -0.16,3.894 -0.479,5.414 -0.319,1.516 -0.781,2.76 -1.386,3.729 C 4.69,-1.87 3.942,-1.154 3.052,-0.692 2.161,-0.23 1.144,0 0,0 m 0,1.848 c 2.112,0 3.898,-0.397 5.36,-1.188 1.463,-0.793 2.644,-1.838 3.547,-3.136 0.901,-1.297 1.555,-2.772 1.961,-4.421 0.408,-1.65 0.611,-3.344 0.611,-5.082 0,-1.828 -0.215,-3.582 -0.643,-5.263 -0.429,-1.683 -1.105,-3.152 -2.029,-4.406 -0.923,-1.254 -2.11,-2.255 -3.562,-3.002 -1.452,-0.748 -3.2,-1.123 -5.245,-1.123 -2.111,0 -3.897,0.38 -5.36,1.138 -1.462,0.76 -2.65,1.782 -3.562,3.07 -0.913,1.287 -1.578,2.761 -1.996,4.421 -0.418,1.662 -0.627,3.383 -0.627,5.165 0,1.804 0.209,3.537 0.627,5.198 0.418,1.66 1.088,3.129 2.012,4.405 0.923,1.274 2.111,2.298 3.563,3.067 1.451,0.772 3.232,1.157 5.343,1.157"
           style="fill:#231f20;fill-opacity:1;fill-rule:nonzero;stroke:none"
           transform="matrix(1.3333333,0,0,-1.3333333,130.944,201.06387)"
           clip-path="url(#clipPath11)"
           inkscape:label="path10" />
        <path
           id="path12"
           d="m 0,0 c 0,-0.661 -0.253,-1.231 -0.758,-1.717 -0.506,-0.483 -1.21,-0.724 -2.11,-0.724 -0.221,0 -0.457,0.017 -0.71,0.047 -0.253,0.035 -0.516,0.111 -0.791,0.233 -0.274,0.121 -0.533,0.291 -0.774,0.511 -0.242,0.219 -0.462,0.516 -0.66,0.891 l -11.638,21.374 c -0.089,0.176 -0.171,0.286 -0.248,0.329 -0.077,0.045 -0.148,0.067 -0.214,0.067 -0.132,0 -0.214,-0.038 -0.247,-0.115 -0.034,-0.077 -0.05,-0.172 -0.05,-0.281 V -1.421 c 0,-0.307 -0.11,-0.554 -0.33,-0.74 -0.22,-0.187 -0.463,-0.28 -0.727,-0.28 -0.331,0 -0.596,0.11 -0.793,0.329 -0.199,0.219 -0.298,0.45 -0.298,0.691 v 24.109 c 0,0.329 0.082,0.647 0.248,0.955 0.164,0.306 0.379,0.576 0.642,0.805 0.264,0.231 0.571,0.406 0.924,0.528 0.351,0.12 0.725,0.18 1.12,0.18 0.813,0 1.456,-0.18 1.929,-0.545 0.473,-0.363 0.808,-0.731 1.006,-1.105 L -2.84,2.264 c 0.11,-0.199 0.192,-0.325 0.247,-0.378 0.055,-0.057 0.115,-0.083 0.181,-0.083 0.11,0 0.182,0.042 0.215,0.131 0.033,0.088 0.05,0.198 0.05,0.33 V 24.1 c 0,0.287 0.098,0.534 0.296,0.744 0.199,0.207 0.452,0.312 0.76,0.312 0.353,0 0.623,-0.116 0.81,-0.345 C -0.094,24.58 0,24.345 0,24.104 Z"
           style="fill:#231f20;fill-opacity:1;fill-rule:nonzero;stroke:none"
           transform="matrix(1.3333333,0,0,-1.3333333,183.41733,232.142)"
           clip-path="url(#clipPath13)"
           inkscape:label="path12" />
        <path
           id="path14"
           d="M 0,0 C 0.286,0 0.506,-0.099 0.66,-0.296 0.814,-0.494 0.891,-0.69 0.891,-0.888 0.891,-1.13 0.803,-1.344 0.627,-1.528 0.451,-1.715 0.242,-1.809 0,-1.809 h -10.918 v -9.757 c 0,-0.287 0.104,-0.534 0.314,-0.745 0.208,-0.209 0.456,-0.313 0.742,-0.313 H 1.155 c 0.329,0 0.572,-0.099 0.725,-0.295 0.155,-0.196 0.232,-0.393 0.232,-0.59 0,-0.241 -0.083,-0.449 -0.248,-0.623 -0.165,-0.177 -0.402,-0.263 -0.709,-0.263 h -12.834 c -2.206,0 -3.308,1.024 -3.308,3.071 v 20.46 c 0,2.046 1.102,3.069 3.308,3.069 H 0.759 c 0.307,0 0.539,-0.088 0.693,-0.265 0.153,-0.175 0.231,-0.375 0.231,-0.592 0,-0.244 -0.089,-0.458 -0.264,-0.645 C 1.243,10.516 1.023,10.424 0.759,10.424 H -9.862 c -0.33,0 -0.589,-0.111 -0.776,-0.33 -0.187,-0.221 -0.28,-0.463 -0.28,-0.725 l 0,-9.369 z"
           style="fill:#231f20;fill-opacity:1;fill-rule:nonzero;stroke:none"
           transform="matrix(1.3333333,0,0,-1.3333333,216.48373,215.5768)"
           clip-path="url(#clipPath15)"
           inkscape:label="path14" />
        <path
           id="path16"
           d="m 0,0 c 0.307,0 0.538,-0.092 0.692,-0.278 0.154,-0.186 0.231,-0.388 0.231,-0.607 0,-0.24 -0.077,-0.447 -0.231,-0.624 C 0.538,-1.682 0.307,-1.771 0,-1.771 h -18.373 c -0.461,0 -0.847,0.133 -1.155,0.397 -0.308,0.264 -0.462,0.627 -0.462,1.091 0,0.153 0.027,0.329 0.083,0.526 0.054,0.199 0.148,0.387 0.28,0.562 l 14.35,21.299 c 0.043,0.11 0.093,0.209 0.148,0.297 0.055,0.088 0.082,0.176 0.082,0.265 0,0.263 -0.198,0.397 -0.594,0.397 h -12.303 c -0.286,0 -0.512,0.09 -0.677,0.277 -0.165,0.186 -0.247,0.399 -0.247,0.639 0,0.241 0.088,0.444 0.264,0.608 0.176,0.163 0.395,0.246 0.66,0.246 h 16.426 c 0.462,0 0.836,-0.138 1.122,-0.412 0.286,-0.276 0.429,-0.623 0.429,-1.041 0,-0.176 -0.038,-0.368 -0.116,-0.578 -0.077,-0.21 -0.171,-0.391 -0.28,-0.545 L -14.646,0.925 C -14.8,0.706 -14.877,0.54 -14.877,0.43 c 0,-0.176 0.055,-0.292 0.165,-0.347 C -14.602,0.027 -14.459,0 -14.284,0 Z"
           style="fill:#231f20;fill-opacity:1;fill-rule:nonzero;stroke:none"
           transform="matrix(1.3333333,0,0,-1.3333333,253.64,232.41413)"
           clip-path="url(#clipPath17)"
           inkscape:label="path16" />
        <path
           id="path18"
           d="M 0,0 H 10.623 L 6.004,13.073 C 5.873,13.491 5.756,13.771 5.658,13.915 5.559,14.058 5.432,14.13 5.278,14.13 5.102,14.13 4.965,14.03 4.866,13.832 4.767,13.635 4.663,13.37 4.553,13.04 Z m -3.067,-8.803 c -0.066,-0.219 -0.193,-0.388 -0.38,-0.511 -0.187,-0.121 -0.39,-0.181 -0.61,-0.181 -0.242,0 -0.484,0.089 -0.726,0.264 -0.241,0.176 -0.363,0.44 -0.363,0.792 0,0.087 0.033,0.197 0.099,0.331 l 8.445,24.186 c 0.241,0.748 0.626,1.276 1.155,1.584 0.528,0.309 1.088,0.462 1.681,0.462 1.386,0 2.32,-0.683 2.805,-2.046 l 8.279,-22.935 c 0.11,-0.219 0.165,-0.428 0.165,-0.626 0,-0.485 -0.182,-0.934 -0.545,-1.353 -0.362,-0.417 -0.906,-0.626 -1.633,-0.626 -0.329,0 -0.598,0.043 -0.808,0.133 -0.208,0.088 -0.379,0.196 -0.511,0.328 -0.132,0.133 -0.236,0.274 -0.313,0.429 -0.077,0.155 -0.137,0.298 -0.181,0.429 L 11.249,-1.81 H -0.626 Z"
           style="fill:#231f20;fill-opacity:1;fill-rule:nonzero;stroke:none"
           transform="matrix(1.3333333,0,0,-1.3333333,268.4036,222.7656)"
           clip-path="url(#clipPath19)"
           inkscape:label="path18" />
        <path
           id="path20"
           d="m 0,0 c 0.045,-0.153 0.101,-0.302 0.166,-0.445 0.066,-0.143 0.198,-0.215 0.396,-0.215 0.132,0 0.231,0.072 0.297,0.215 0.066,0.143 0.12,0.292 0.165,0.445 L 5.51,20.617 c 0.044,0.242 0.165,0.44 0.363,0.594 0.197,0.153 0.416,0.23 0.659,0.23 0.307,0 0.577,-0.126 0.808,-0.379 0.231,-0.253 0.313,-0.544 0.247,-0.874 L 2.342,-4.057 C 2.21,-4.718 1.919,-5.234 1.469,-5.607 1.018,-5.98 0.462,-6.167 -0.198,-6.167 c -0.197,0 -0.428,0.021 -0.692,0.065 -0.264,0.043 -0.517,0.143 -0.758,0.297 -0.243,0.153 -0.474,0.363 -0.694,0.626 -0.22,0.264 -0.385,0.638 -0.494,1.122 l -4.816,20.252 c -0.066,0.287 -0.221,0.43 -0.462,0.43 -0.11,0 -0.192,-0.044 -0.247,-0.133 -0.056,-0.086 -0.094,-0.186 -0.116,-0.297 L -13.095,-4.09 c -0.176,-0.792 -0.511,-1.336 -1.006,-1.632 -0.494,-0.297 -1.017,-0.445 -1.567,-0.445 -0.462,0 -0.857,0.071 -1.187,0.215 -0.329,0.14 -0.599,0.322 -0.809,0.542 -0.208,0.22 -0.363,0.445 -0.461,0.676 -0.099,0.232 -0.171,0.447 -0.215,0.644 l -5.244,23.123 c -0.023,0.066 -0.044,0.158 -0.066,0.28 -0.023,0.122 -0.033,0.216 -0.033,0.281 0,0.528 0.22,0.968 0.659,1.319 0.441,0.353 0.935,0.528 1.485,0.528 0.373,0 0.675,-0.06 0.907,-0.18 0.231,-0.122 0.413,-0.265 0.545,-0.43 0.131,-0.164 0.225,-0.329 0.28,-0.495 0.055,-0.165 0.093,-0.303 0.116,-0.412 l 4.387,-19.858 c 0.044,-0.176 0.099,-0.336 0.165,-0.478 0.065,-0.144 0.175,-0.214 0.329,-0.214 0.153,0 0.252,0.066 0.297,0.197 0.044,0.132 0.087,0.297 0.132,0.495 l 4.454,19.396 c 0.176,0.749 0.548,1.265 1.12,1.551 0.572,0.285 1.1,0.428 1.584,0.428 0.154,0 0.357,-0.015 0.61,-0.049 0.254,-0.034 0.511,-0.121 0.775,-0.263 0.264,-0.145 0.517,-0.342 0.758,-0.596 0.243,-0.252 0.418,-0.609 0.529,-1.071 z"
           style="fill:#231f20;fill-opacity:1;fill-rule:nonzero;stroke:none"
           transform="matrix(1.3333333,0,0,-1.3333333,329.48507,227.1888)"
           clip-path="url(#clipPath21)"
           inkscape:label="path20" />
        <path
           id="path22"
           d="M 0,0 H 10.624 L 6.005,13.073 C 5.872,13.491 5.757,13.771 5.658,13.915 5.559,14.058 5.432,14.13 5.278,14.13 5.102,14.13 4.965,14.03 4.866,13.832 4.767,13.635 4.663,13.37 4.553,13.04 Z m -3.067,-8.803 c -0.066,-0.219 -0.192,-0.388 -0.379,-0.511 -0.188,-0.121 -0.391,-0.181 -0.611,-0.181 -0.242,0 -0.484,0.089 -0.725,0.264 -0.242,0.176 -0.364,0.44 -0.364,0.792 0,0.087 0.033,0.197 0.1,0.331 l 8.444,24.186 c 0.243,0.748 0.627,1.276 1.155,1.584 0.528,0.309 1.088,0.462 1.682,0.462 1.385,0 2.32,-0.683 2.805,-2.046 l 8.279,-22.935 c 0.109,-0.219 0.164,-0.428 0.164,-0.626 0,-0.485 -0.182,-0.934 -0.543,-1.353 -0.363,-0.417 -0.908,-0.626 -1.635,-0.626 -0.328,0 -0.597,0.043 -0.808,0.133 -0.207,0.088 -0.377,0.196 -0.51,0.328 -0.131,0.133 -0.237,0.274 -0.313,0.429 -0.078,0.155 -0.138,0.298 -0.181,0.429 L 11.249,-1.81 H -0.626 Z"
           style="fill:#231f20;fill-opacity:1;fill-rule:nonzero;stroke:none"
           transform="matrix(1.3333333,0,0,-1.3333333,351.08013,222.7656)"
           clip-path="url(#clipPath23)"
           inkscape:label="path22" />
      </g>
    </g>
  </g>
</svg>
