<?xml version="1.0" encoding="UTF-8" standalone="no"?>
<!-- Created with Inkscape (http://www.inkscape.org/) -->

<svg
   version="1.1"
   id="svg1"
   width="500.25067"
   height="500.25201"
   viewBox="0 0 500.25067 500.25201"
   sodipodi:docname="12890173.svg"
   inkscape:version="1.4 (86a8ad7, 2024-10-11)"
   xmlns:inkscape="http://www.inkscape.org/namespaces/inkscape"
   xmlns:sodipodi="http://sodipodi.sourceforge.net/DTD/sodipodi-0.dtd"
   xmlns="http://www.w3.org/2000/svg"
   xmlns:svg="http://www.w3.org/2000/svg">
  <defs
     id="defs1">
    <clipPath
       clipPathUnits="userSpaceOnUse"
       id="clipPath3">
      <path
         d="M 0,375.189 H 375.188 V 0 H 0 Z"
         id="path3" />
    </clipPath>
    <clipPath
       clipPathUnits="userSpaceOnUse"
       id="clipPath5">
      <path
         d="M 0,375.189 H 375.188 V 0 H 0 Z"
         transform="translate(-95.874002,-229.61961)"
         id="path5" />
    </clipPath>
    <clipPath
       clipPathUnits="userSpaceOnUse"
       id="clipPath7">
      <path
         d="M 0,375.189 H 375.188 V 0 H 0 Z"
         transform="translate(-148.0908,-256.48881)"
         id="path7" />
    </clipPath>
    <clipPath
       clipPathUnits="userSpaceOnUse"
       id="clipPath9">
      <path
         d="M 0,375.189 H 375.188 V 0 H 0 Z"
         transform="translate(-204.19291,-248.22411)"
         id="path9" />
    </clipPath>
    <clipPath
       clipPathUnits="userSpaceOnUse"
       id="clipPath11">
      <path
         d="M 0,375.189 H 375.188 V 0 H 0 Z"
         transform="translate(-253.2241,-227.80321)"
         id="path11" />
    </clipPath>
    <clipPath
       clipPathUnits="userSpaceOnUse"
       id="clipPath13">
      <path
         d="M 0,375.189 H 375.188 V 0 H 0 Z"
         transform="translate(-306.59131,-238.2295)"
         id="path13" />
    </clipPath>
    <clipPath
       clipPathUnits="userSpaceOnUse"
       id="clipPath15">
      <path
         d="M 0,375.189 H 375.188 V 0 H 0 Z"
         transform="translate(-190.5435,-194.6382)"
         id="path15" />
    </clipPath>
    <clipPath
       clipPathUnits="userSpaceOnUse"
       id="clipPath17">
      <path
         d="M 0,375.189 H 375.188 V 0 H 0 Z"
         transform="translate(-65.458502,-114.29691)"
         id="path17" />
    </clipPath>
    <clipPath
       clipPathUnits="userSpaceOnUse"
       id="clipPath19">
      <path
         d="M 0,375.189 H 375.188 V 0 H 0 Z"
         transform="translate(-123.981,-126.2002)"
         id="path19" />
    </clipPath>
    <clipPath
       clipPathUnits="userSpaceOnUse"
       id="clipPath21">
      <path
         d="M 0,375.189 H 375.188 V 0 H 0 Z"
         transform="translate(-172.5112,-115.7617)"
         id="path21" />
    </clipPath>
    <clipPath
       clipPathUnits="userSpaceOnUse"
       id="clipPath23">
      <path
         d="M 0,375.189 H 375.188 V 0 H 0 Z"
         transform="translate(-219.08451,-129.71001)"
         id="path23" />
    </clipPath>
    <clipPath
       clipPathUnits="userSpaceOnUse"
       id="clipPath25">
      <path
         d="M 0,375.189 H 375.188 V 0 H 0 Z"
         transform="translate(-261.46141,-138.168)"
         id="path25" />
    </clipPath>
    <clipPath
       clipPathUnits="userSpaceOnUse"
       id="clipPath27">
      <path
         d="M 0,375.189 H 375.188 V 0 H 0 Z"
         transform="translate(-304.19681,-115.7617)"
         id="path27" />
    </clipPath>
    <clipPath
       clipPathUnits="userSpaceOnUse"
       id="clipPath29">
      <path
         d="M 0,375.189 H 375.188 V 0 H 0 Z"
         transform="translate(-345.91261,-138.168)"
         id="path29" />
    </clipPath>
    <clipPath
       clipPathUnits="userSpaceOnUse"
       id="clipPath31">
      <path
         d="M 0,375.189 H 375.188 V 0 H 0 Z"
         transform="translate(-71.930202,-91.846705)"
         id="path31" />
    </clipPath>
    <clipPath
       clipPathUnits="userSpaceOnUse"
       id="clipPath33">
      <path
         d="M 0,375.189 H 375.188 V 0 H 0 Z"
         transform="translate(-336.13431,-344.81981)"
         id="path33" />
    </clipPath>
  </defs>
  <sodipodi:namedview
     id="namedview1"
     pagecolor="#ffffff"
     bordercolor="#000000"
     borderopacity="0.25"
     inkscape:showpageshadow="2"
     inkscape:pageopacity="0.0"
     inkscape:pagecheckerboard="0"
     inkscape:deskcolor="#d1d1d1"
     inkscape:zoom="1.7691083"
     inkscape:cx="250.12601"
     inkscape:cy="250.12601"
     inkscape:window-width="1920"
     inkscape:window-height="1009"
     inkscape:window-x="-8"
     inkscape:window-y="-8"
     inkscape:window-maximized="1"
     inkscape:current-layer="group-MC0">
    <inkscape:page
       x="0"
       y="0"
       inkscape:label="1"
       id="page1"
       width="500.25067"
       height="500.25201"
       margin="0"
       bleed="0" />
  </sodipodi:namedview>
  <g
     id="g1"
     inkscape:groupmode="layer"
     inkscape:label="1">
    <g
       id="group-MC0">
      <path
         id="path2"
         d="M 374.68,374.681 H 0.508 V 0.508 H 374.68 Z"
         style="fill:none;stroke:#363639;stroke-width:1.015;stroke-linecap:butt;stroke-linejoin:miter;stroke-miterlimit:4;stroke-dasharray:none;stroke-opacity:1"
         transform="matrix(1.3333333,0,0,-1.3333333,0,500.252)"
         clip-path="url(#clipPath3)" />
      <g
         id="g3">
        <path
           id="path4"
           d="m 0,0 c 0,-1.433 -0.287,-2.544 -0.86,-3.332 -0.287,-0.431 -1.111,-1.272 -2.473,-2.525 -0.394,-0.394 -0.914,-0.591 -1.558,-0.591 -1.218,0 -2.15,0.913 -2.795,2.74 -0.393,1.183 -0.59,2.58 -0.59,4.192 l -0.431,4.138 v 1.612 c -0.251,2.22 -0.376,3.904 -0.376,5.051 0,0.896 0.233,2.025 0.699,3.386 0.681,1.648 1.451,2.472 2.311,2.472 0.752,0 1.378,-0.306 1.881,-0.914 1.146,-1.04 1.898,-1.702 2.256,-1.988 0.681,-0.466 1.039,-1.791 1.076,-3.977 0.035,-0.717 0.142,-1.613 0.321,-2.687 0.072,-0.86 0.108,-1.773 0.108,-2.74 0,-0.646 0.054,-1.47 0.161,-2.472 C -0.09,1.361 0,0.573 0,0 m 16.067,25.257 c 0,-0.179 -0.43,-1.111 -1.29,-2.794 -0.503,-1.183 -1.631,-2.15 -3.385,-2.902 -1.255,-0.574 -4.569,-0.86 -9.942,-0.86 h -8.007 c -0.431,-0.036 -2.633,-0.161 -6.609,-0.376 -2.401,0.178 -4.032,0.393 -4.89,0.645 -0.646,0.287 -1.344,0.788 -2.096,1.504 -1.147,1.074 -2.312,1.989 -3.494,2.741 -0.358,0.215 -0.537,0.717 -0.537,1.505 0,1.325 1.326,2.453 3.976,3.385 1.792,0.645 3.654,1.074 5.589,1.29 4.12,0.537 6.324,0.807 6.611,0.807 0.894,0 2.219,-0.072 3.975,-0.216 1.72,-0.108 3.028,-0.161 3.924,-0.161 1.611,0 3.099,-0.035 4.46,-0.107 2.758,-0.252 4.21,-0.377 4.353,-0.377 0.787,0 1.987,-0.251 3.601,-0.752 1.826,-0.68 2.919,-1.325 3.277,-1.934 0.322,-0.682 0.484,-1.148 0.484,-1.398"
           style="fill:#231f20;fill-opacity:1;fill-rule:nonzero;stroke:none"
           transform="matrix(1.3333333,0,0,-1.3333333,127.832,194.09253)"
           clip-path="url(#clipPath5)"
           inkscape:label="path4" />
        <path
           id="path6"
           d="m 0,0 c 0,-1.003 -0.072,-1.631 -0.214,-1.881 -0.18,-0.251 -0.663,-0.699 -1.452,-1.343 -0.395,-0.251 -0.967,-0.484 -1.72,-0.698 -1.576,-0.467 -2.578,-0.7 -3.009,-0.7 v -7.361 c 0.072,-1.433 0.018,-4.246 -0.161,-8.438 0,-0.251 -0.036,-0.842 -0.108,-1.773 -0.107,-0.645 -0.16,-1.218 -0.16,-1.719 0,-1.147 -0.108,-2.67 -0.323,-4.568 h 2.74 c 0.216,0 0.484,-0.108 0.807,-0.322 0.358,-0.287 0.537,-0.574 0.537,-0.86 0,-0.395 -0.34,-0.896 -1.02,-1.504 -0.681,-0.646 -1.255,-1.023 -1.721,-1.129 -0.788,-0.251 -1.593,-0.502 -2.418,-0.752 -0.394,-0.109 -1.29,-0.162 -2.687,-0.162 -0.466,0.071 -1.414,0.088 -2.847,0.054 -0.575,-0.108 -1.703,-0.161 -3.386,-0.161 -0.574,0 -1.523,0.34 -2.848,1.021 -1.29,0.608 -1.989,1.127 -2.096,1.558 -0.144,0.465 -0.215,1.092 -0.215,1.881 0,0.93 1.129,1.397 3.386,1.397 0.429,0 1.235,-0.036 2.418,-0.108 l -0.215,1.828 0.054,5.75 c 0,0.429 -0.036,1.218 -0.108,2.365 -0.037,1.36 -0.054,2.113 -0.054,2.256 -0.072,1.863 -0.108,3.619 -0.108,5.267 0,0.286 0.269,2.363 0.807,6.233 -0.968,0.43 -2.115,1.003 -3.44,1.72 -0.179,0.178 -0.824,0.554 -1.934,1.128 -0.753,0.358 -1.129,0.787 -1.129,1.29 0,2.041 2.329,3.064 6.987,3.064 0.68,0 1.522,-0.091 2.525,-0.269 1.039,-0.144 1.791,-0.234 2.258,-0.269 3.223,-0.18 6.268,-0.717 9.135,-1.612 C -0.573,0.824 0,0.429 0,0"
           style="fill:#231f20;fill-opacity:1;fill-rule:nonzero;stroke:none"
           transform="matrix(1.3333333,0,0,-1.3333333,197.4544,158.26693)"
           clip-path="url(#clipPath7)"
           inkscape:label="path6" />
        <path
           id="path8"
           d="m 0,0 c 0,-0.144 -0.09,-1.773 -0.269,-4.891 0,-0.143 0.018,-0.555 0.054,-1.235 v -1.075 c 0,-3.44 -0.09,-5.893 -0.268,-7.362 -0.288,-1.864 -0.627,-3.225 -1.021,-4.083 -0.394,-0.862 -1.147,-2.026 -2.258,-3.494 -0.322,-0.359 -0.77,-0.753 -1.343,-1.183 -0.609,-0.43 -1.092,-0.644 -1.451,-0.644 -0.824,0 -1.612,0.357 -2.364,1.075 -0.824,0.859 -1.648,1.737 -2.473,2.633 -1.612,1.683 -3.224,3.134 -4.836,4.352 -0.573,0.752 -1.719,1.952 -3.439,3.601 -1.648,1.469 -2.848,2.597 -3.6,3.386 -1.648,1.862 -2.598,3.42 -2.848,4.674 -0.18,1.111 -0.269,3.207 -0.269,6.288 0,1.003 0.43,1.505 1.289,1.505 0.537,0 1.29,-0.484 2.258,-1.451 0.572,-0.537 1.164,-1.129 1.773,-1.773 0.93,-0.86 1.88,-1.774 2.848,-2.741 0.787,-0.824 1.54,-1.811 2.257,-2.956 0.716,-1.255 1.736,-3.045 3.063,-5.373 0.394,-0.646 1.128,-1.649 2.204,-3.009 1.467,-1.9 2.346,-2.849 2.633,-2.849 0.573,0 0.966,0.895 1.182,2.687 0.071,1.289 0.144,2.561 0.215,3.815 l -0.161,8.76 c -0.466,3.653 -0.698,6.609 -0.698,8.866 0,0.573 0.107,1.165 0.322,1.773 0.357,0.896 0.787,1.344 1.289,1.344 0.322,0 0.753,-0.179 1.29,-0.537 C -4.013,9.744 -3.618,9.44 -3.438,9.19 -2.723,8.115 -1.863,6.699 -0.859,4.944 -0.286,3.296 0,1.648 0,0 m -27.943,2.58 c -0.073,-1.864 -0.324,-4.371 -0.753,-7.524 v -2.257 c 0,-0.609 -0.126,-1.737 -0.376,-3.385 -0.287,-1.613 -0.43,-2.616 -0.43,-3.01 0,-0.466 -0.019,-1.165 -0.054,-2.096 -0.036,-0.932 -0.053,-1.595 -0.053,-1.988 0,-1.469 -0.019,-2.239 -0.054,-2.311 -0.071,-0.322 -0.483,-1.326 -1.236,-3.009 -0.61,-1.326 -1.451,-1.988 -2.525,-1.988 -0.933,0 -1.506,0.321 -1.72,0.967 -0.467,1.505 -1.183,3.17 -2.149,4.998 -0.395,0.931 -0.592,2.131 -0.592,3.6 0,2.722 -0.072,4.442 -0.216,5.158 l 0.108,8.008 c 0.43,2.4 0.859,5.105 1.29,8.114 0.107,0.896 0.555,2.15 1.344,3.762 0.429,0.931 0.859,1.845 1.289,2.741 1.002,0.466 1.701,0.698 2.096,0.698 0.143,0 0.896,-0.412 2.257,-1.235 0.573,-0.323 0.949,-1.272 1.128,-2.848 0.072,-1.076 0.144,-2.115 0.216,-3.118 0,-0.179 0.106,-0.716 0.321,-1.612 0.109,-0.68 0.144,-1.236 0.109,-1.665"
           style="fill:#231f20;fill-opacity:1;fill-rule:nonzero;stroke:none"
           transform="matrix(1.3333333,0,0,-1.3333333,272.2572,169.28653)"
           clip-path="url(#clipPath9)"
           inkscape:label="path8" />
        <path
           id="path10"
           d="m 0,0 c 0,-0.215 -0.072,-0.52 -0.216,-0.914 -0.215,-0.394 -0.321,-0.77 -0.321,-1.128 -0.037,-0.359 -0.271,-0.735 -0.699,-1.128 -0.645,-0.575 -1.182,-0.86 -1.613,-0.86 -0.465,0 -1.2,0.285 -2.203,0.86 -0.931,0.537 -1.702,1.147 -2.311,1.827 l -3.009,2.471 c -0.394,0.466 -0.949,1.004 -1.666,1.613 -1.111,0.896 -1.845,1.54 -2.202,1.935 -0.647,0.895 -0.987,1.379 -1.023,1.45 -1.039,1.074 -1.557,2.257 -1.557,3.548 0,1.181 0.573,1.773 1.719,1.773 0.967,0 1.952,-0.215 2.955,-0.645 1.04,-0.43 2.312,-1.094 3.817,-1.988 0.357,-0.215 0.841,-0.449 1.45,-0.699 0.465,-0.144 1.057,-0.556 1.774,-1.237 0.751,-0.43 1.844,-1.307 3.278,-2.632 C -0.609,2.919 0,1.504 0,0 m 2.848,27.354 c 0,-1.756 -0.234,-3.1 -0.699,-4.032 C 1.575,22.176 0.608,21.209 -0.753,20.421 -2.151,19.704 -3.62,18.916 -5.159,18.056 -5.59,17.841 -6.038,17.68 -6.503,17.573 c -2.687,-0.967 -6.287,-2.15 -10.802,-3.547 -1.756,-0.323 -3.583,-0.788 -5.481,-1.397 -0.035,-0.144 -0.035,-0.52 0,-1.129 0.107,-0.608 0.162,-0.949 0.162,-1.021 0,-7.954 -1.576,-12.628 -4.73,-14.025 -1.469,-0.717 -2.275,-1.075 -2.417,-1.075 -1.254,0 -2.24,1.738 -2.957,5.212 -0.464,2.364 -0.697,4.496 -0.697,6.395 0,0.968 0.142,2.92 0.429,5.858 0.286,2.938 0.43,4.997 0.43,6.179 0,4.084 0.072,6.36 0.215,6.826 0.215,1.683 1.076,3.707 2.58,6.072 0.214,0.25 0.751,0.573 1.612,0.968 0.895,0.393 1.54,0.59 1.934,0.59 1.111,0 2.024,-1.344 2.742,-4.03 0.644,-1.935 0.966,-3.493 0.966,-4.675 0,-1.183 -0.162,-2.902 -0.483,-5.159 2.436,1.433 5.319,3.044 8.651,4.836 1.828,0.896 4.533,2.257 8.115,4.085 2.687,1.325 4.388,1.988 5.105,1.988 1.182,-0.215 1.881,-0.395 2.096,-0.537 1.254,-0.466 1.881,-1.344 1.881,-2.633"
           style="fill:#231f20;fill-opacity:1;fill-rule:nonzero;stroke:none"
           transform="matrix(1.3333333,0,0,-1.3333333,337.63213,196.5144)"
           clip-path="url(#clipPath11)"
           inkscape:label="path10" />
        <path
           id="path12"
           d="m 0,0 c 0,-2.438 -1.236,-4.855 -3.707,-7.255 -2.185,-2.257 -4.297,-3.386 -6.339,-3.386 -0.753,0 -1.559,0.09 -2.418,0.269 -1.111,0.322 -1.667,0.734 -1.667,1.236 0,0.394 0.197,0.734 0.592,1.021 0.931,0.716 1.826,1.36 2.686,1.934 1.04,0.86 1.845,1.72 2.419,2.58 0.966,1.468 1.522,2.704 1.665,3.707 0.073,0.573 0.18,1.057 0.324,1.452 0.214,1.146 0.322,3.17 0.322,6.072 0,1.325 -0.341,2.525 -1.022,3.6 -0.394,0.538 -1.021,1.218 -1.88,2.042 -0.752,0.645 -1.128,1.111 -1.128,1.398 0,0.859 0.465,1.29 1.396,1.29 0.287,0 0.61,-0.055 0.968,-0.161 2.076,-0.861 3.975,-2.311 5.693,-4.353 0.645,-0.86 1.038,-1.792 1.182,-2.794 C -0.592,6.286 -0.377,4.889 -0.269,4.459 -0.091,3.671 0,2.185 0,0 m -9.917,18.969 c 0,-1.111 -0.556,-1.809 -1.665,-2.096 -0.609,-0.179 -1.631,-0.269 -3.064,-0.269 -1.541,0 -3.421,-0.573 -5.643,-1.719 -0.967,-0.431 -2.4,-0.843 -4.298,-1.237 -1.505,-0.321 -2.473,-0.716 -2.902,-1.181 -1.433,-1.433 -2.633,-3.136 -3.601,-5.106 -0.931,-2.007 -1.397,-3.905 -1.397,-5.695 0,-0.825 0.25,-1.953 0.753,-3.386 0.393,-1.255 0.733,-2.079 1.02,-2.472 1.398,-1.792 2.634,-2.938 3.709,-3.439 0.537,-0.359 1.934,-0.861 4.191,-1.505 2.472,-0.68 4.121,-1.021 4.945,-1.021 0.106,0 0.357,0.035 0.752,0.107 0.429,0.071 0.787,0.108 1.074,0.108 1.146,0 1.72,-0.395 1.72,-1.183 0,-1.182 -1.684,-2.185 -5.051,-3.009 -2.473,-0.609 -4.641,-0.913 -6.503,-0.913 -1.541,0 -3.53,0.753 -5.965,2.257 -2.149,1.433 -3.779,2.83 -4.89,4.191 -0.861,1.182 -1.72,3.242 -2.58,6.18 -0.86,2.722 -1.29,4.801 -1.29,6.234 0,1.469 0.376,3.26 1.128,5.374 0.717,2.149 1.541,3.726 2.473,4.729 2.042,2.436 4.03,4.155 5.966,5.159 0.572,0.501 1.396,1.11 2.471,1.826 0.465,0.25 1.523,0.717 3.171,1.397 0.573,0.25 1.629,0.466 3.17,0.646 0.717,0.071 2.329,0.107 4.837,0.107 1.505,0 3.135,-0.467 4.891,-1.397 0.393,-0.216 0.894,-0.592 1.504,-1.129 0.716,-0.716 1.074,-1.236 1.074,-1.558"
           style="fill:#231f20;fill-opacity:1;fill-rule:nonzero;stroke:none"
           transform="matrix(1.3333333,0,0,-1.3333333,408.7884,182.61267)"
           clip-path="url(#clipPath13)"
           inkscape:label="path12" />
      </g>
      <path
         id="path14"
         d="m 0,0 c 0,0.967 -0.356,1.844 -1.07,2.633 -0.679,0.716 -1.59,1.075 -2.733,1.075 -1.535,0 -2.766,-0.376 -3.694,-1.129 -0.894,-0.788 -1.339,-1.917 -1.339,-3.386 0,-1.54 0.535,-3.134 1.607,-4.782 2.926,1.539 4.605,2.471 5.034,2.794 C -0.732,-1.935 0,-1.003 0,0 m 1.363,-21.232 -7.898,6.879 c -0.647,0.537 -1.273,1.11 -1.881,1.719 -2.043,-1.505 -3.064,-3.225 -3.064,-5.158 0,-1.578 0.573,-2.885 1.72,-3.923 1.182,-1.004 2.758,-1.505 4.729,-1.505 2.258,0 4.387,0.662 6.394,1.988 m 11.858,-2.926 c 0.68,-0.609 1.021,-1.309 1.021,-2.098 0,-0.718 -0.306,-1.364 -0.915,-1.938 -0.537,-0.61 -1.163,-0.916 -1.881,-0.916 -0.68,0 -1.29,0.235 -1.827,0.7 l -3.922,3.446 c -3.261,-2.548 -6.846,-3.823 -10.754,-3.823 -3.19,0 -5.915,0.969 -8.172,2.908 -2.545,1.973 -3.817,4.665 -3.817,8.074 0,3.661 1.687,6.783 5.063,9.367 -1.614,2.512 -2.419,5.043 -2.419,7.591 0,3.338 1.181,5.921 3.546,7.752 1.935,1.578 4.282,2.369 7.041,2.369 2.722,0 4.978,-0.951 6.77,-2.853 1.649,-1.831 2.473,-3.984 2.473,-6.46 0,-2.333 -0.914,-4.362 -2.742,-6.084 -1.149,-0.969 -3.173,-2.189 -6.077,-3.661 l 0.486,-0.483 8.226,-7.108 c 1.074,1.401 1.915,3.015 2.527,4.846 0.393,1.256 1.215,1.885 2.469,1.885 0.789,0 1.454,-0.234 1.991,-0.7 0.571,-0.467 0.858,-1.096 0.858,-1.885 0,-0.322 -0.055,-0.664 -0.161,-1.022 -0.859,-2.513 -2.007,-4.775 -3.44,-6.784 z"
         style="fill:#231f20;fill-opacity:1;fill-rule:nonzero;stroke:none"
         transform="matrix(1.3333333,0,0,-1.3333333,254.058,240.7344)"
         clip-path="url(#clipPath15)"
         inkscape:label="path14" />
      <g
         id="g2">
        <path
           id="path16"
           d="m 0,0 c 0,-1.433 -0.287,-2.544 -0.86,-3.332 -0.287,-0.431 -1.111,-1.272 -2.473,-2.525 -0.394,-0.394 -0.914,-0.591 -1.557,-0.591 -1.219,0 -2.151,0.914 -2.796,2.74 -0.393,1.183 -0.59,2.58 -0.59,4.192 l -0.431,4.138 v 1.612 c -0.251,2.22 -0.376,3.905 -0.376,5.051 0,0.897 0.233,2.025 0.7,3.386 0.68,1.648 1.45,2.473 2.31,2.473 0.752,0 1.378,-0.306 1.881,-0.915 1.146,-1.04 1.898,-1.702 2.256,-1.988 0.681,-0.466 1.039,-1.791 1.076,-3.976 0.035,-0.718 0.142,-1.614 0.322,-2.688 0.072,-0.86 0.107,-1.773 0.107,-2.74 0,-0.646 0.054,-1.47 0.161,-2.472 C -0.09,1.361 0,0.573 0,0 m 16.067,25.257 c 0,-0.18 -0.43,-1.111 -1.29,-2.794 C 14.275,21.28 13.146,20.313 11.392,19.562 10.137,18.987 6.823,18.701 1.45,18.701 h -8.007 c -0.43,-0.036 -2.633,-0.161 -6.609,-0.376 -2.4,0.178 -4.031,0.394 -4.89,0.645 -0.646,0.287 -1.344,0.788 -2.096,1.505 -1.147,1.074 -2.312,1.988 -3.494,2.74 -0.358,0.216 -0.537,0.717 -0.537,1.505 0,1.325 1.326,2.454 3.976,3.385 1.792,0.645 3.654,1.075 5.589,1.29 4.12,0.537 6.324,0.806 6.611,0.806 0.895,0 2.22,-0.071 3.976,-0.215 1.719,-0.107 3.028,-0.161 3.923,-0.161 1.611,0 3.099,-0.036 4.46,-0.107 2.758,-0.251 4.21,-0.376 4.353,-0.376 0.787,0 1.987,-0.251 3.601,-0.753 1.826,-0.681 2.919,-1.325 3.278,-1.934 0.322,-0.681 0.483,-1.148 0.483,-1.398"
           style="fill:#231f20;fill-opacity:1;fill-rule:nonzero;stroke:none"
           transform="matrix(1.3333333,0,0,-1.3333333,87.278,347.85613)"
           clip-path="url(#clipPath17)"
           inkscape:label="path16" />
        <path
           id="path18"
           d="m 0,0 c 0,-0.79 -0.09,-1.972 -0.269,-3.548 -0.143,-1.612 -0.215,-2.812 -0.215,-3.599 0,-1.649 -0.09,-2.868 -0.268,-3.655 -0.144,-0.861 -0.807,-1.793 -1.989,-2.795 -1.183,-0.967 -2.149,-1.45 -2.902,-1.45 -1.254,0 -1.952,1.916 -2.096,5.75 0,2.22 -0.107,4.46 -0.322,6.717 -0.608,-0.144 -1.612,-0.27 -3.009,-0.376 0.178,0 -1.863,-0.055 -6.126,-0.161 -0.502,0 -1.129,0.232 -1.881,0.698 -1.004,0.536 -1.576,0.842 -1.72,0.914 -1.361,0.43 -2.06,0.662 -2.095,0.698 -0.861,0.465 -1.291,1.003 -1.291,1.613 0,1.002 0.43,1.737 1.291,2.203 0.358,0.142 1.916,0.375 4.675,0.698 2.543,0.321 4.048,0.483 4.514,0.483 1.361,0 2.579,-0.126 3.654,-0.376 1.074,-0.251 1.594,-0.376 1.558,-0.376 0.322,0 0.609,0.842 0.86,2.526 0.108,0.573 0.162,1.414 0.162,2.525 0,1.936 0.286,3.548 0.859,4.837 0.179,0.322 0.52,0.645 1.022,0.968 0.501,0.322 0.931,0.484 1.289,0.484 0.537,0 1.236,-0.287 2.096,-0.86 0.179,-0.216 0.627,-0.699 1.343,-1.451 0.287,-0.36 0.484,-0.878 0.591,-1.559 0.107,-0.645 0.162,-2.114 0.162,-4.406 0,-0.181 -0.037,-0.753 -0.108,-1.72 -0.108,-0.86 -0.161,-1.416 -0.161,-1.666 0,-0.394 0.072,-1.003 0.215,-1.827 C -0.054,0.465 0,0.034 0,0 m -26.224,4.89 -0.161,-0.752 c -0.072,-0.503 -0.126,-0.843 -0.162,-1.022 0.036,-0.609 0.019,-1.757 -0.053,-3.439 0.072,-0.431 0.107,-1.075 0.107,-1.935 0,-0.071 -0.018,-0.823 -0.054,-2.257 -0.143,-1.075 -0.161,-1.881 -0.053,-2.419 l 0.107,-2.202 c 0.035,-1.04 -0.287,-2.15 -0.967,-3.333 -0.359,-0.537 -1.004,-1.808 -1.935,-3.814 -0.215,-0.395 -0.645,-0.824 -1.29,-1.29 -0.681,-0.502 -1.236,-0.752 -1.666,-0.752 -1.11,0 -2.203,0.805 -3.277,2.418 -1.112,1.611 -1.685,3.278 -1.72,4.998 0,0.214 0.017,0.59 0.054,1.128 v 1.182 c 0.322,4.048 0.484,6.395 0.484,7.039 v 5.053 c 0,-0.18 0.106,0.751 0.322,2.794 0.357,3.081 1.092,6.431 2.203,10.049 0.107,0.286 0.394,0.68 0.86,1.182 0.43,0.573 0.823,0.895 1.182,0.967 0.286,0.072 0.698,0.322 1.236,0.752 0.502,0.394 1.021,0.592 1.558,0.592 0.86,0 1.559,-0.592 2.096,-1.773 0.179,-0.395 0.286,-0.789 0.323,-1.183 v -1.236 c -0.037,-0.645 -0.054,-1.057 -0.054,-1.236 0.036,-1.039 0.215,-2.58 0.537,-4.621 0.215,-2.115 0.323,-3.744 0.323,-4.89"
           style="fill:#231f20;fill-opacity:1;fill-rule:nonzero;stroke:none"
           transform="matrix(1.3333333,0,0,-1.3333333,165.308,331.98507)"
           clip-path="url(#clipPath19)"
           inkscape:label="path18" />
        <path
           id="path20"
           d="m 0,0 c 0,-2.479 -0.072,-4.113 -0.215,-4.9 -0.431,-2.115 -1.344,-3.171 -2.741,-3.171 -0.824,0 -1.379,1.181 -1.666,3.548 -0.143,1.541 -0.179,3.085 -0.107,4.63 0.072,1.546 -0.305,3.414 -1.129,5.602 -1.147,2.974 -1.881,5.319 -2.203,7.039 -0.752,2.508 -1.362,4.12 -1.827,4.837 -2.042,3.26 -3.368,4.711 -3.977,4.353 -2.508,-1.649 -4.353,-2.919 -5.535,-3.816 -0.824,-0.608 -1.756,-1.559 -2.794,-2.849 -1.433,-1.576 -2.526,-3.313 -3.278,-5.211 -0.752,-1.72 -1.468,-3.476 -2.149,-5.266 0.178,-0.072 0.877,-0.287 2.095,-0.646 1.146,-0.358 1.809,-0.538 1.988,-0.538 0.717,0 2.437,-0.395 5.159,-1.185 0.465,-0.11 1.129,-0.541 1.988,-1.295 0.825,-0.72 1.237,-1.277 1.237,-1.671 0,-0.863 -0.753,-1.529 -2.257,-1.995 -1.111,-0.361 -2.078,-0.539 -2.902,-0.539 l -3.225,0.215 c -0.251,0 -2.58,0.125 -6.986,0.377 -0.143,0 -0.43,-0.466 -0.859,-1.398 -0.574,-1.147 -1.13,-2.007 -1.667,-2.58 -0.967,-0.932 -2.132,-1.397 -3.493,-1.397 -0.86,0 -1.665,1.074 -2.417,3.224 -0.717,1.938 -1.075,3.301 -1.075,4.093 0,1.546 0.77,4.416 2.31,8.612 1.254,3.582 2.239,5.984 2.956,7.2 0.466,1.112 1.415,2.903 2.848,5.374 2.687,4.192 6.323,7.129 10.909,8.814 1.612,0.537 2.812,0.807 3.601,0.807 1.253,0 2.078,-0.019 2.472,-0.055 0.286,-0.108 0.913,-0.394 1.881,-0.859 1.325,-0.646 2.669,-1.291 4.03,-1.935 1.683,-0.968 2.847,-2.202 3.493,-3.707 0.358,-0.79 1.021,-2.098 1.989,-3.924 C -2.079,17.352 -1.183,13.394 -0.86,7.912 -0.825,7.123 -0.753,6.103 -0.645,4.849 -0.215,3.197 0,1.581 0,0"
           style="fill:#231f20;fill-opacity:1;fill-rule:nonzero;stroke:none"
           transform="matrix(1.3333333,0,0,-1.3333333,230.01493,345.90307)"
           clip-path="url(#clipPath21)"
           inkscape:label="path20" />
        <path
           id="path22"
           d="m 0,0 c -0.251,-1.397 -0.412,-2.167 -0.483,-2.311 -0.18,-0.896 -0.501,-1.612 -0.967,-2.149 -0.502,-0.574 -0.896,-1.004 -1.183,-1.29 -0.753,-0.466 -1.344,-0.878 -1.773,-1.236 -1.97,-1.655 -3.601,-2.591 -4.891,-2.806 -0.645,-0.071 -1.219,-0.198 -1.72,-0.377 -1.145,-0.217 -1.917,-0.324 -2.31,-0.324 -0.896,0.071 -1.434,0.107 -1.612,0.107 -0.179,0 -0.807,-0.037 -1.881,-0.11 -0.86,-0.112 -1.559,-0.168 -2.096,-0.168 -0.502,0 -1.272,0.284 -2.311,0.853 -1.182,0.568 -1.772,1.102 -1.772,1.6 0,0.497 0.519,0.923 1.558,1.279 0.752,0.248 1.342,0.373 1.773,0.373 0.752,0 1.594,-0.116 2.526,-0.347 0.967,-0.234 1.701,-0.349 2.203,-0.349 1.11,0 2.633,0.322 4.569,0.967 1.323,0.359 2.327,1.075 3.009,2.15 0.68,0.895 1.003,1.899 0.966,3.01 l 0.215,0.858 c 0.216,0.538 0.324,0.879 0.324,1.023 l 0.106,0.913 c 0,0.286 -0.055,0.555 -0.161,0.806 -0.144,0.321 -0.932,1.074 -2.364,2.257 -1.183,0.967 -2.92,1.523 -5.212,1.667 -2.867,0.213 -4.784,0.518 -5.75,0.913 -1.399,0.537 -2.312,1.019 -2.742,1.45 -0.609,0.717 -1.182,1.432 -1.719,2.15 -0.431,0.358 -0.878,0.751 -1.343,1.182 -0.503,0.43 -0.753,0.878 -0.753,1.344 0,0.68 0.341,1.217 1.022,1.612 0.608,0.358 1.163,0.537 1.665,0.537 1.934,0 4.28,-0.34 7.04,-1.021 3.008,-0.574 5.212,-1.254 6.61,-2.042 C -5.445,10.191 -2.74,8.15 -1.343,6.396 -0.771,5.643 -0.322,4.479 0,2.902 0.179,2.006 0.179,1.039 0,0 m -26.922,8.941 c -0.467,-2.079 -0.538,-5.57 -0.216,-10.478 0.035,-0.431 0.018,-1.148 -0.053,-2.151 -0.073,-1.111 -0.107,-1.863 -0.107,-2.256 0,-0.323 -0.055,-0.895 -0.162,-1.719 -0.072,-0.718 -0.091,-1.344 -0.054,-1.881 0.073,-0.574 0.179,-1.612 0.323,-3.117 0.107,-1.039 0.162,-1.846 0.162,-2.418 0,-2.15 -0.987,-4.12 -2.956,-5.912 -0.61,-0.537 -1.218,-0.806 -1.828,-0.806 -1.218,0 -2.33,1.074 -3.332,3.225 -0.824,1.682 -1.236,3.08 -1.236,4.191 0,0.752 0.036,1.683 0.108,2.794 0.035,1.002 0.053,2.687 0.053,5.052 0,-0.322 -0.018,0.787 -0.053,3.332 -0.072,2.077 -0.019,3.958 0.161,5.642 0.143,1.754 0.287,3.457 0.43,5.106 0.073,1.038 0.466,2.202 1.182,3.493 0.25,0.465 0.591,1.253 1.021,2.364 0.394,0.752 0.627,1.2 0.699,1.343 0.286,0.501 0.609,0.824 0.967,0.968 0.573,0.357 1.146,0.537 1.719,0.537 0.824,0 1.63,-0.771 2.419,-2.311 0.644,-1.398 0.967,-2.741 0.967,-4.03 0,-0.216 -0.071,-0.538 -0.214,-0.968"
           style="fill:#231f20;fill-opacity:1;fill-rule:nonzero;stroke:none"
           transform="matrix(1.3333333,0,0,-1.3333333,292.11267,327.30533)"
           clip-path="url(#clipPath23)"
           inkscape:label="path22" />
        <path
           id="path24"
           d="m 0,0 c 0,-0.574 -0.251,-1.129 -0.752,-1.666 -0.503,-0.718 -0.807,-1.236 -0.914,-1.558 -0.358,-1.326 -1.235,-2.723 -2.633,-4.192 -1.255,-1.218 -2.544,-2.473 -3.869,-3.762 -1.039,-1.147 -2.418,-2.132 -4.138,-2.955 -1.684,-0.824 -2.705,-1.398 -3.063,-1.72 -0.789,-0.752 -1.183,-1.935 -1.183,-3.546 0,-0.431 0.073,-1.29 0.216,-2.58 0.144,-1.29 0.215,-2.276 0.215,-2.957 0,-1.719 -0.431,-2.972 -1.29,-3.761 -0.431,-0.359 -1.058,-0.699 -1.881,-1.021 -0.788,-0.393 -1.469,-0.59 -2.042,-0.59 -1.147,0 -2.061,1.217 -2.741,3.654 -0.537,1.791 -0.806,3.492 -0.806,5.104 0,1.97 0.179,3.601 0.537,4.891 -1.969,1.145 -3.546,2.615 -4.729,4.407 -0.215,0.322 -1.2,1.664 -2.954,4.03 -1.291,1.719 -2.204,3.242 -2.742,4.568 -0.574,1.361 -0.86,2.955 -0.86,4.782 0,1.72 0.377,3.297 1.129,4.729 0.215,0.466 0.448,0.914 0.699,1.344 0.178,0.394 0.609,0.591 1.289,0.591 0.86,0 2.15,-0.521 3.869,-1.559 2.472,-1.54 4.353,-3.42 5.643,-5.642 0.967,-1.756 2.185,-3.601 3.654,-5.534 0.86,-1.148 1.469,-2.312 1.828,-3.494 0.214,-0.646 0.394,-0.967 0.538,-0.967 0.428,0 1.557,0.697 3.384,2.095 0.825,0.788 1.719,1.54 2.687,2.257 1.04,0.931 2.113,1.899 3.224,2.903 1.54,1.253 2.867,2.077 3.978,2.471 0.071,0.035 0.376,0.198 0.913,0.485 0.25,0.106 0.555,0.16 0.913,0.16 C -0.627,0.967 0,0.645 0,0"
           style="fill:#231f20;fill-opacity:1;fill-rule:nonzero;stroke:none"
           transform="matrix(1.3333333,0,0,-1.3333333,348.6152,316.028)"
           clip-path="url(#clipPath25)"
           inkscape:label="path24" />
        <path
           id="path26"
           d="m 0,0 c 0,-2.479 -0.071,-4.113 -0.215,-4.9 -0.431,-2.115 -1.344,-3.171 -2.741,-3.171 -0.824,0 -1.38,1.181 -1.666,3.548 -0.143,1.541 -0.179,3.085 -0.107,4.63 0.072,1.546 -0.304,3.414 -1.128,5.602 -1.148,2.974 -1.881,5.319 -2.204,7.039 -0.752,2.508 -1.362,4.12 -1.827,4.837 -2.042,3.26 -3.368,4.711 -3.977,4.353 -2.508,-1.649 -4.353,-2.919 -5.534,-3.816 -0.825,-0.608 -1.756,-1.559 -2.795,-2.849 -1.433,-1.576 -2.526,-3.313 -3.278,-5.211 -0.753,-1.72 -1.468,-3.476 -2.149,-5.266 0.178,-0.072 0.877,-0.287 2.095,-0.646 1.146,-0.358 1.809,-0.538 1.988,-0.538 0.717,0 2.436,-0.395 5.159,-1.185 0.465,-0.11 1.129,-0.541 1.988,-1.295 0.825,-0.72 1.237,-1.277 1.237,-1.671 0,-0.863 -0.752,-1.529 -2.257,-1.995 -1.111,-0.361 -2.078,-0.539 -2.902,-0.539 l -3.225,0.215 c -0.251,0 -2.579,0.125 -6.986,0.377 -0.144,0 -0.429,-0.466 -0.859,-1.398 -0.574,-1.147 -1.13,-2.007 -1.667,-2.58 -0.968,-0.932 -2.132,-1.397 -3.493,-1.397 -0.859,0 -1.665,1.074 -2.418,3.224 -0.716,1.938 -1.074,3.301 -1.074,4.093 0,1.546 0.77,4.416 2.31,8.612 1.254,3.582 2.239,5.984 2.956,7.2 0.466,1.112 1.415,2.903 2.848,5.374 2.687,4.192 6.323,7.129 10.909,8.814 1.613,0.537 2.813,0.807 3.601,0.807 1.253,0 2.077,-0.019 2.472,-0.055 0.286,-0.108 0.914,-0.394 1.88,-0.859 1.326,-0.646 2.67,-1.291 4.031,-1.935 1.683,-0.968 2.847,-2.202 3.493,-3.707 0.358,-0.79 1.021,-2.098 1.989,-3.924 C -2.079,17.352 -1.183,13.394 -0.86,7.912 -0.825,7.123 -0.753,6.103 -0.645,4.849 -0.215,3.197 0,1.581 0,0"
           style="fill:#231f20;fill-opacity:1;fill-rule:nonzero;stroke:none"
           transform="matrix(1.3333333,0,0,-1.3333333,405.59573,345.90307)"
           clip-path="url(#clipPath27)"
           inkscape:label="path26" />
        <path
           id="path28"
           d="m 0,0 c 0,-0.574 -0.251,-1.129 -0.752,-1.666 -0.503,-0.718 -0.807,-1.236 -0.914,-1.558 -0.358,-1.326 -1.235,-2.723 -2.633,-4.192 -1.255,-1.218 -2.544,-2.473 -3.869,-3.762 -1.039,-1.147 -2.418,-2.132 -4.138,-2.955 -1.684,-0.824 -2.705,-1.398 -3.062,-1.72 -0.79,-0.752 -1.184,-1.935 -1.184,-3.546 0,-0.431 0.073,-1.29 0.216,-2.58 0.144,-1.29 0.215,-2.276 0.215,-2.957 0,-1.719 -0.431,-2.972 -1.29,-3.761 -0.431,-0.359 -1.057,-0.699 -1.881,-1.021 -0.788,-0.393 -1.469,-0.59 -2.042,-0.59 -1.147,0 -2.061,1.217 -2.741,3.654 -0.537,1.791 -0.806,3.492 -0.806,5.104 0,1.97 0.179,3.601 0.537,4.891 -1.969,1.145 -3.546,2.615 -4.728,4.407 -0.216,0.322 -1.201,1.664 -2.955,4.03 -1.291,1.719 -2.204,3.242 -2.742,4.568 -0.574,1.361 -0.86,2.955 -0.86,4.782 0,1.72 0.377,3.297 1.129,4.729 0.215,0.466 0.448,0.914 0.699,1.344 0.178,0.394 0.609,0.591 1.289,0.591 0.86,0 2.15,-0.521 3.869,-1.559 2.472,-1.54 4.353,-3.42 5.643,-5.642 0.967,-1.756 2.185,-3.601 3.654,-5.534 0.86,-1.148 1.469,-2.312 1.828,-3.494 0.214,-0.646 0.394,-0.967 0.538,-0.967 0.428,0 1.557,0.697 3.384,2.095 0.825,0.788 1.719,1.54 2.687,2.257 1.04,0.931 2.114,1.899 3.224,2.903 1.54,1.253 2.867,2.077 3.978,2.471 0.071,0.035 0.376,0.198 0.913,0.485 0.25,0.106 0.555,0.16 0.913,0.16 C -0.627,0.967 0,0.645 0,0"
           style="fill:#231f20;fill-opacity:1;fill-rule:nonzero;stroke:none"
           transform="matrix(1.3333333,0,0,-1.3333333,461.2168,316.028)"
           clip-path="url(#clipPath29)"
           inkscape:label="path28" />
      </g>
      <path
         id="path30"
         d="M 0,0 C 0.007,0.022 0.01,0.045 0.016,0.068 0.03,0.112 0.038,0.16 0.048,0.207 0.135,0.541 0.261,0.856 0.421,1.148 1.935,-0.318 1.144,-2.52 1.29,-4.475 c 0.08,-1.137 0.552,-2.261 1.186,-3.303 1.517,-2.476 3.826,-4.779 6.044,-6.631 1.556,0.582 2.863,2.149 3.423,3.7 1.623,4.525 -2.588,7.736 -6.33,9.89 C 4.057,0.074 2.286,0.77 0.92,1.273 4.034,1.106 7.06,0.598 9.896,-0.745 c 2.246,-1.058 3.59,-3.555 6.094,-4.16 1.486,-0.361 3.035,-0.504 4.55,-0.71 0.86,-0.119 1.716,-0.192 2.552,-0.467 0.206,-0.071 2.009,-0.814 2.013,-0.801 0.414,2.444 -3.184,5.524 -4.552,7.26 C 18.093,3.483 14.862,4.308 11.004,4.3 8.934,4.296 7.133,4.174 5.198,3.457 4.069,3.035 2.945,2.624 1.807,2.222 1.55,2.133 1.283,2.068 1.019,2 c 2.055,2.279 6.501,3.042 8.94,3.686 0.071,0.017 0.451,0.066 0.544,0.094 3.131,0.875 4.622,1.853 6.617,4.292 -0.312,0.14 -0.666,0.265 -0.898,0.236 -2.018,0.694 -3.96,1.77 -6.079,2.095 C 5.768,13.067 1.75,6.774 0.382,1.805 0.296,1.771 0.206,1.742 0.123,1.701 c 0,0 -0.003,0.004 -0.008,0.004 0.217,1.125 0.12,2.748 0.219,3.978 0.114,1.376 -0.324,3.001 -1.461,4.435 -1.702,2.141 -4.357,3.618 -6.621,2.278 0.669,-2.05 1.18,-5.017 3.023,-6.156 C -3.648,5.572 -1.327,3.219 -0.472,1.782 -1.684,1.909 -3.709,1.998 -4.054,1.9 -5.552,1.473 -6.58,0.579 -7.146,-0.146 c -0.161,-0.207 -0.289,-0.428 -0.403,-0.661 -1.845,-0.813 -3.587,-1.664 -4.512,-2.458 -0.728,-0.569 -2.048,-1.769 -3.476,-3.206 -0.768,-0.228 -1.469,-0.49 -2.089,-0.751 2.015,1.809 4.211,4.941 4.047,6.776 -0.036,0.354 -0.27,1.141 -0.466,1.576 -0.451,1.018 -1.003,2.163 -1.829,3.065 -0.557,0.612 -1.795,1.654 -2.649,1.027 -1.017,-0.739 -0.222,-1.704 0.106,-2.631 0.681,-1.954 0.865,-4.085 0.565,-6.136 -0.073,-0.506 -0.388,-2.421 -0.836,-3.717 -0.093,0.01 -0.186,0.01 -0.282,-0.007 0,0.007 0,0.01 -0.003,0.014 -0.171,0.431 -0.846,0.438 -0.785,0.131 0.009,-0.34 -0.148,-0.491 -0.122,-0.553 0.003,-0.011 0.003,-0.032 0.006,-0.048 -0.505,-0.41 -1.123,-1.122 -1.932,-2.282 -1.042,-1.494 -0.62,-2.991 0.064,-4.428 -1.188,-2.413 -1.815,-4.6 -2.066,-5.159 -0.637,-1.34 -1.11,-2.895 -1.794,-4.285 -0.283,-0.324 -0.393,-0.944 -0.303,-1.543 -0.267,-0.173 -0.405,-0.395 -0.44,-0.64 -0.016,-0.092 -0.019,-0.193 -0.01,-0.292 -0.032,-0.125 -0.032,-0.251 0.029,-0.367 -0.087,-0.286 -0.129,-0.565 -0.164,-0.746 -0.026,-0.137 -0.103,-0.36 -0.215,-0.643 -1.636,-3.183 -3.295,-6.008 -3.99,-6.378 -0.222,-0.265 -0.46,-0.533 -0.707,-0.793 -0.325,0.485 -0.704,0.961 -1.142,1.413 -0.063,0.065 -0.188,0.376 -0.266,0.332 -0.382,-0.225 -0.878,-1.647 -1.318,-3.392 -0.74,-0.133 -1.286,-0.286 -1.366,-1.349 -0.09,-0.747 0.131,-1.365 0.594,-1.603 l -1.687,-1.282 c -0.595,-0.746 -0.505,-2.179 -0.624,-3.244 -0.692,-0.219 -1.341,-0.486 -1.91,-0.783 0.357,-0.731 0.762,-1.469 1.187,-2.197 l -0.033,-0.124 c -0.63,-2.196 -1.466,-4.962 -2.401,-7.164 -2.256,-0.327 -4.243,-1.462 -6.246,-4.137 -1.746,-2.335 -1.878,-2.054 1.095,-3.523 -2.445,-1.608 -5.673,-3.531 -7.885,-4.495 -0.904,-0.414 -1.9,-0.688 -2.729,-1.167 -0.264,-0.157 -0.672,-0.192 -0.734,-0.553 -0.048,-0.346 0.271,-1.378 0.769,-1.877 0.334,0.254 0.704,0.392 1.012,0.672 0.339,0.312 0.769,0.474 1.18,0.71 0.904,0.522 2.123,0.763 3.083,1.238 l 4.81,2.833 c 0.695,0.408 1.533,1.06 2.363,1.767 3.307,-1.407 5.912,-1.6 8.94,0.418 0.732,0.496 1.054,1.353 1.752,1.981 1.084,0.971 3.424,2.691 5.182,3.861 -3.046,-3.375 -5.416,-8.419 -8.397,-11.471 -4.086,-4.182 1.257,-9.847 4.465,-13.304 0.007,-0.003 0.014,-0.008 0.017,-0.018 0.983,-0.967 7.108,4.135 7.506,5.089 1.81,4.328 0.103,5.649 -0.295,10.014 -0.312,3.402 -1.258,6.879 -1.637,10.275 0.004,0 0.006,0.006 0.011,0.008 0.863,-1.192 1.773,-3.056 2.208,-4.448 0.587,-1.899 1.054,-3.835 1.536,-5.766 0.723,-2.911 2.177,-5.045 4.98,-6.079 2.028,-0.748 5.272,-1.536 7.326,-0.454 -0.366,2.028 0.672,4.093 0.251,6.112 -0.283,1.367 -1.765,3.5 -2.74,4.503 -2.943,3.034 -7.351,3.853 -11.138,5.602 -0.447,0.265 -0.929,0.528 -1.409,0.702 1.486,-0.046 3.848,-0.113 5.228,-0.472 0.408,-0.113 1.132,-0.393 1.579,-0.505 2.076,-0.524 4.99,-1.066 6.056,0.01 1.183,1.192 3.01,3.441 1.649,4.925 -0.929,1.015 -2.15,1.804 -3.308,2.548 -5.111,3.312 -8.953,-2.434 -11.963,-5.77 0.062,1.805 -0.783,5.825 -2.278,8.545 3.008,2.669 6.432,5.465 8.403,6.523 2.164,1.79 9.441,5.194 12.354,4.79 -1.54,-1.108 -2.362,-2.341 -6.004,-2.939 -2.295,-0.376 -2.041,-5.77 -1.82,-7.909 0.154,-1.523 1.26,-1.504 2.748,-1.597 6.141,-0.369 6.527,3.491 6.536,8.494 0.003,0.981 0.08,2.565 -0.219,3.728 0.708,-0.958 1.811,-2.481 2.459,-3.536 0.891,-1.436 1.405,-3.22 2.09,-4.758 1.44,-3.23 2.048,-7.522 3.427,-10.546 2.328,1.702 5.192,4.356 4.144,7.405 -0.996,2.9 -2.508,5.791 -4.706,7.878 -1.579,1.494 -5.51,3.33 -7.24,4.096 6.867,0.362 11.193,-5.139 16.591,-8.468 1.965,1.329 -0.25,3.335 -0.499,4.77 -0.287,1.736 1.207,3.694 0.474,5.574 -2.456,6.276 -11.708,2.016 -16.138,-0.98 2.813,3.021 5.503,6.712 5.858,10.904 0.382,4.601 -3.817,7.002 -7.308,3.89 1.498,-1.402 2.732,-10.262 0.919,-14.727 -0.648,2.444 -2.208,5.639 -3.667,7.36 -2.981,3.529 -5.936,1.108 -9.25,-0.433 0.18,0.085 2.007,-4.381 2.251,-4.739 0.695,-1.018 2.119,-1.33 3.511,-1.413 1.429,-0.093 2.941,-0.055 4.339,-0.456 0.279,-0.077 0.572,-0.233 0.868,-0.407 -2.315,-0.042 -8.014,-1.221 -8.718,-1.75 -3.17,-0.497 -9.67,-5.449 -12.882,-8.787 -0.27,0.238 -0.55,0.431 -0.839,0.564 -0.932,0.413 -2.038,0.58 -3.18,0.561 3.231,1.338 4.089,4.142 3.064,6.889 0.37,0.451 0.775,1.025 1.206,1.721 0.392,0.582 0.742,1.141 1.029,1.674 1.188,1.824 2.98,5.379 3.539,6.627 0.003,0.002 0.003,0.005 0.007,0.005 0.151,-0.034 0.312,-0.054 0.495,-0.031 1.138,0.575 0.919,1.777 1.179,1.823 -0.135,0.343 -0.292,1.123 -0.315,1.857 -0.019,0.068 -0.01,0.207 0.02,0.383 1.009,2.447 1.838,4.659 2.314,6.144 0.081,0.167 0.171,0.341 0.257,0.51 0.007,-0.017 0.017,-0.031 0.026,-0.047 0.334,-0.681 3.627,-6.394 4.016,-6.192 2.333,1.225 4.982,1.062 6.962,3.025 1.888,1.873 2.028,6.935 -0.36,7.829 -1.987,0.738 -4.13,1.6 -5.793,2.47 0.223,0.229 0.447,0.451 0.675,0.67 1.135,-0.015 2.27,-0.052 3.595,-0.672 2.681,-1.257 10.678,-6.629 7.197,0.765 -1.208,2.564 -4.468,3.015 -7.68,2.607 1.665,1.303 3.077,2.215 3.73,2.621 0.065,0.047 0.18,0.121 0.318,0.208 -0.099,-0.626 -0.186,-1.318 -0.306,-2.089 1.202,0.27 1.955,-0.759 3.016,-1.087 0.871,-0.273 2.35,-0.467 3.259,-0.26 1.885,0.415 1.936,2.559 1.946,4.352 C -0.235,-1.302 -0.144,-0.646 0,0 -0.016,-0.086 -0.032,-0.173 -0.042,-0.263 -0.032,-0.18 -0.013,-0.086 0,0 m -6.664,-35.117 0.016,-0.008 c -0.007,-0.003 -0.013,-0.006 -0.022,-0.01 0,0.007 0.003,0.01 0.006,0.018 M -17.36,-8.319 c 0.013,0.003 0.029,0 0.046,-0.004 -0.008,-0.002 -0.014,-0.008 -0.017,-0.016 -0.01,0.008 -0.019,0.014 -0.029,0.02 m -6.323,-48.564 c -0.039,0.014 -0.077,0.033 -0.116,0.049 z m -2.8,1.219 c -0.041,-0.03 -0.08,-0.073 -0.119,-0.107 -1.543,0.031 -3.373,-0.06 -5.53,0.333 -1.216,0.215 -2.343,0.426 -3.401,0.584 0.331,0.708 0.791,1.403 1.312,2.009 1.744,-0.858 6.157,-0.484 7.738,-2.819 m -10.885,4.581 0.587,1.807 c 0.566,-0.9 1.112,-1.733 1.556,-2.434 -0.838,-0.995 -1.691,-2.021 -2.391,-2.899 -0.328,0.027 -0.647,0.04 -0.958,0.045 z"
         style="fill:#363639;fill-opacity:1;fill-rule:nonzero;stroke:none"
         transform="matrix(1.3333333,0,0,-1.3333333,95.906933,377.78973)"
         clip-path="url(#clipPath31)" />
      <path
         id="path32"
         d="m 0,0 c 0.007,0.022 0.009,0.045 0.017,0.068 0.012,0.044 0.021,0.092 0.031,0.138 0.088,0.335 0.214,0.65 0.374,0.942 1.514,-1.466 0.723,-3.668 0.867,-5.623 0.082,-1.138 0.554,-2.262 1.187,-3.304 1.517,-2.475 3.826,-4.778 6.044,-6.631 1.555,0.583 2.863,2.15 3.423,3.701 1.624,4.525 -2.589,7.736 -6.33,9.889 C 4.058,0.074 2.285,0.769 0.92,1.273 4.034,1.106 7.061,0.598 9.896,-0.746 c 2.246,-1.057 3.591,-3.554 6.094,-4.16 1.485,-0.36 3.035,-0.504 4.55,-0.71 0.861,-0.119 1.716,-0.191 2.553,-0.466 0.205,-0.071 2.008,-0.814 2.011,-0.801 0.416,2.444 -3.182,5.524 -4.552,7.259 -2.458,3.106 -5.69,3.932 -9.547,3.923 C 8.935,4.295 7.134,4.173 5.198,3.457 4.069,3.035 2.945,2.624 1.807,2.221 1.55,2.132 1.283,2.068 1.019,2 c 2.055,2.279 6.501,3.041 8.94,3.685 0.071,0.018 0.451,0.067 0.544,0.095 3.131,0.875 4.622,1.853 6.617,4.292 -0.311,0.139 -0.666,0.264 -0.898,0.236 -2.018,0.693 -3.96,1.77 -6.078,2.095 C 5.768,13.067 1.749,6.774 0.383,1.804 0.297,1.771 0.205,1.742 0.123,1.701 c 0,0 -0.004,0.004 -0.008,0.004 0.217,1.125 0.12,2.748 0.22,3.977 0.112,1.376 -0.326,3.001 -1.463,4.436 -1.702,2.141 -4.356,3.618 -6.62,2.277 0.67,-2.049 1.181,-5.017 3.022,-6.156 1.078,-0.667 3.399,-3.021 4.253,-4.457 -1.211,0.127 -3.237,0.216 -3.58,0.118 -1.499,-0.427 -2.526,-1.321 -3.093,-2.047 -0.161,-0.207 -0.289,-0.428 -0.403,-0.66 -1.846,-0.814 -3.587,-1.665 -4.513,-2.458 -0.727,-0.569 -2.047,-1.769 -3.475,-3.206 -0.769,-0.229 -1.469,-0.49 -2.089,-0.751 2.016,1.808 4.212,4.941 4.047,6.776 -0.036,0.354 -0.27,1.141 -0.466,1.575 -0.451,1.019 -1.003,2.163 -1.828,3.066 -0.558,0.611 -1.796,1.653 -2.65,1.026 -1.016,-0.738 -0.222,-1.703 0.105,-2.63 0.682,-1.954 0.865,-4.086 0.566,-6.136 -0.073,-0.506 -0.387,-2.421 -0.836,-3.717 -0.093,0.01 -0.186,0.01 -0.283,-0.007 0,0.007 0,0.01 -0.002,0.014 -0.172,0.43 -0.846,0.437 -0.785,0.131 0.009,-0.34 -0.148,-0.492 -0.121,-0.553 0.002,-0.012 0.002,-0.032 0.005,-0.048 -0.505,-0.41 -1.122,-1.122 -1.932,-2.282 -1.043,-1.494 -0.62,-2.991 0.065,-4.428 -1.19,-2.413 -1.816,-4.601 -2.068,-5.159 -0.636,-1.341 -1.109,-2.896 -1.793,-4.285 -0.284,-0.325 -0.392,-0.944 -0.303,-1.543 -0.267,-0.173 -0.405,-0.395 -0.44,-0.64 -0.016,-0.093 -0.018,-0.193 -0.009,-0.293 -0.033,-0.125 -0.033,-0.251 0.028,-0.366 -0.087,-0.286 -0.128,-0.566 -0.164,-0.746 -0.026,-0.137 -0.102,-0.361 -0.214,-0.644 -1.637,-3.182 -3.295,-6.008 -3.99,-6.377 -0.222,-0.265 -0.46,-0.534 -0.709,-0.794 -0.324,0.486 -0.702,0.961 -1.141,1.413 -0.063,0.065 -0.188,0.377 -0.266,0.333 -0.381,-0.225 -0.878,-1.647 -1.318,-3.392 -0.74,-0.133 -1.286,-0.286 -1.366,-1.35 -0.089,-0.747 0.131,-1.364 0.594,-1.602 l -1.687,-1.282 c -0.595,-0.747 -0.505,-2.179 -0.624,-3.244 -0.691,-0.219 -1.342,-0.486 -1.91,-0.784 0.356,-0.73 0.763,-1.469 1.187,-2.196 l -0.033,-0.125 c -0.63,-2.196 -1.467,-4.961 -2.401,-7.163 -2.256,-0.327 -4.243,-1.462 -6.245,-4.137 -1.747,-2.335 -1.879,-2.054 1.094,-3.523 -2.445,-1.608 -5.672,-3.531 -7.884,-4.495 -0.905,-0.415 -1.901,-0.688 -2.729,-1.168 -0.264,-0.157 -0.673,-0.191 -0.735,-0.552 -0.048,-0.346 0.27,-1.378 0.768,-1.877 0.335,0.254 0.705,0.391 1.014,0.672 0.338,0.311 0.768,0.473 1.179,0.71 0.904,0.521 2.122,0.762 3.083,1.238 l 4.81,2.833 c 0.695,0.407 1.533,1.06 2.363,1.766 3.308,-1.407 5.913,-1.599 8.94,0.419 0.732,0.496 1.055,1.353 1.751,1.981 1.086,0.971 3.425,2.691 5.184,3.861 -3.047,-3.376 -5.416,-8.42 -8.399,-11.471 -4.084,-4.182 1.257,-9.847 4.467,-13.304 0.006,-0.003 0.013,-0.008 0.016,-0.019 0.984,-0.967 7.107,4.136 7.505,5.09 1.811,4.327 0.105,5.649 -0.293,10.014 -0.313,3.401 -1.258,6.879 -1.637,10.274 0.003,0 0.006,0.007 0.01,0.009 0.864,-1.192 1.773,-3.057 2.208,-4.448 0.587,-1.899 1.054,-3.835 1.537,-5.767 0.722,-2.91 2.175,-5.044 4.979,-6.079 2.028,-0.747 5.273,-1.535 7.327,-0.453 -0.367,2.027 0.67,4.093 0.25,6.112 -0.282,1.367 -1.764,3.499 -2.74,4.502 -2.943,3.034 -7.351,3.854 -11.138,5.603 -0.447,0.264 -0.929,0.528 -1.409,0.702 1.487,-0.046 3.849,-0.113 5.229,-0.473 0.407,-0.112 1.131,-0.392 1.578,-0.504 2.076,-0.524 4.99,-1.066 6.056,0.01 1.183,1.192 3.01,3.441 1.649,4.925 -0.929,1.015 -2.149,1.804 -3.308,2.548 -5.11,3.312 -8.953,-2.434 -11.963,-5.771 0.062,1.806 -0.783,5.825 -2.279,8.545 3.01,2.669 6.433,5.466 8.405,6.524 2.163,1.79 9.441,5.194 12.354,4.79 -1.541,-1.108 -2.363,-2.341 -6.006,-2.939 -2.294,-0.377 -2.041,-5.77 -1.819,-7.909 0.154,-1.523 1.26,-1.505 2.749,-1.597 6.139,-0.369 6.526,3.49 6.536,8.493 0.002,0.982 0.08,2.566 -0.22,3.729 0.707,-0.958 1.811,-2.481 2.459,-3.536 0.892,-1.437 1.404,-3.22 2.09,-4.758 1.441,-3.23 2.049,-7.523 3.427,-10.547 2.329,1.703 5.191,4.357 4.144,7.406 -0.997,2.9 -2.508,5.79 -4.706,7.878 -1.578,1.493 -5.511,3.329 -7.24,4.095 6.867,0.362 11.193,-5.138 16.591,-8.468 1.964,1.33 -0.25,3.336 -0.498,4.771 -0.288,1.735 1.206,3.693 0.473,5.574 -2.456,6.275 -11.708,2.016 -16.137,-0.98 2.812,3.021 5.503,6.712 5.856,10.904 0.384,4.601 -3.816,7.002 -7.306,3.89 1.498,-1.402 2.731,-10.262 0.918,-14.727 -0.648,2.443 -2.208,5.639 -3.667,7.359 -2.981,3.53 -5.936,1.109 -9.25,-0.432 0.18,0.085 2.007,-4.381 2.251,-4.74 0.695,-1.017 2.119,-1.329 3.511,-1.412 1.43,-0.093 2.942,-0.055 4.339,-0.457 0.278,-0.077 0.572,-0.232 0.868,-0.407 -2.315,-0.042 -8.014,-1.22 -8.718,-1.75 -3.17,-0.496 -9.67,-5.449 -12.882,-8.786 -0.27,0.237 -0.549,0.431 -0.838,0.564 -0.933,0.413 -2.039,0.579 -3.181,0.561 3.231,1.338 4.09,4.141 3.064,6.888 0.37,0.452 0.776,1.026 1.207,1.721 0.391,0.583 0.742,1.142 1.028,1.675 1.188,1.824 2.979,5.379 3.539,6.627 0.003,0.002 0.003,0.005 0.007,0.005 0.151,-0.034 0.312,-0.054 0.494,-0.031 1.139,0.575 0.919,1.777 1.18,1.823 -0.134,0.343 -0.292,1.123 -0.315,1.856 -0.018,0.069 -0.01,0.207 0.021,0.384 1.008,2.446 1.838,4.658 2.314,6.144 0.08,0.167 0.17,0.341 0.256,0.509 0.007,-0.016 0.017,-0.031 0.026,-0.046 0.334,-0.681 3.627,-6.395 4.016,-6.193 2.333,1.226 4.982,1.063 6.963,3.026 1.888,1.873 2.027,6.934 -0.361,7.829 -1.987,0.738 -4.13,1.6 -5.793,2.47 0.223,0.229 0.448,0.451 0.675,0.669 1.135,-0.015 2.27,-0.051 3.595,-0.671 2.681,-1.257 10.679,-6.629 7.197,0.765 -1.209,2.564 -4.468,3.015 -7.679,2.607 1.664,1.302 3.076,2.214 3.729,2.621 0.065,0.047 0.18,0.121 0.318,0.208 -0.099,-0.626 -0.185,-1.318 -0.305,-2.089 1.202,0.269 1.955,-0.759 3.014,-1.087 0.872,-0.274 2.351,-0.467 3.26,-0.26 1.885,0.414 1.936,2.559 1.946,4.352 C -0.235,-1.302 -0.144,-0.646 0,0 -0.015,-0.086 -0.032,-0.173 -0.041,-0.263 -0.032,-0.18 -0.013,-0.086 0,0 m -6.664,-35.118 0.017,-0.007 c -0.007,-0.003 -0.013,-0.006 -0.023,-0.01 0,0.007 0.002,0.01 0.006,0.017 M -17.36,-8.319 c 0.013,0.003 0.03,0 0.046,-0.004 -0.008,-0.003 -0.014,-0.009 -0.016,-0.016 -0.011,0.007 -0.02,0.013 -0.03,0.02 m -6.323,-48.564 c -0.039,0.014 -0.077,0.033 -0.116,0.049 z m -2.801,1.219 c -0.039,-0.031 -0.079,-0.074 -0.118,-0.108 -1.544,0.031 -3.373,-0.059 -5.53,0.334 -1.215,0.214 -2.343,0.426 -3.401,0.584 0.331,0.708 0.792,1.402 1.312,2.009 1.745,-0.859 6.157,-0.485 7.737,-2.819 m -10.884,4.581 0.588,1.807 c 0.565,-0.9 1.111,-1.733 1.555,-2.434 -0.838,-0.996 -1.692,-2.022 -2.391,-2.9 -0.327,0.027 -0.646,0.04 -0.958,0.045 z"
         style="fill:#363639;fill-opacity:1;fill-rule:nonzero;stroke:none"
         transform="matrix(1.3333333,0,0,-1.3333333,448.17907,40.492267)"
         clip-path="url(#clipPath33)" />
    </g>
  </g>
</svg>
