<?xml version="1.0" encoding="UTF-8" standalone="no"?>
<!-- Created with Inkscape (http://www.inkscape.org/) -->

<svg
   version="1.1"
   id="svg1"
   width="764.7973"
   height="311.24933"
   viewBox="0 0 764.7973 311.24933"
   sodipodi:docname="12996646.svg"
   inkscape:version="1.4 (86a8ad7, 2024-10-11)"
   xmlns:inkscape="http://www.inkscape.org/namespaces/inkscape"
   xmlns:sodipodi="http://sodipodi.sourceforge.net/DTD/sodipodi-0.dtd"
   xmlns="http://www.w3.org/2000/svg"
   xmlns:svg="http://www.w3.org/2000/svg">
  <defs
     id="defs1">
    <clipPath
       clipPathUnits="userSpaceOnUse"
       id="clipPath3">
      <path
         d="M 0,233.437 H 573.598 V 0 H 0 Z"
         id="path3" />
    </clipPath>
    <clipPath
       clipPathUnits="userSpaceOnUse"
       id="clipPath6">
      <path
         d="M 0,233.437 H 573.598 V 0 H 0 Z"
         transform="translate(-229.3384,-146.834)"
         id="path6" />
    </clipPath>
    <clipPath
       clipPathUnits="userSpaceOnUse"
       id="clipPath8">
      <path
         d="M 0,233.437 H 573.598 V 0 H 0 Z"
         transform="translate(-352.57471,-167.2285)"
         id="path8" />
    </clipPath>
    <clipPath
       clipPathUnits="userSpaceOnUse"
       id="clipPath10">
      <path
         d="M 0,233.437 H 573.598 V 0 H 0 Z"
         transform="translate(-211.50441,-52.602499)"
         id="path10" />
    </clipPath>
    <clipPath
       clipPathUnits="userSpaceOnUse"
       id="clipPath12">
      <path
         d="M 0,233.437 H 573.598 V 0 H 0 Z"
         transform="translate(-272.44731,-48.682601)"
         id="path12" />
    </clipPath>
    <clipPath
       clipPathUnits="userSpaceOnUse"
       id="clipPath14">
      <path
         d="M 0,233.437 H 573.598 V 0 H 0 Z"
         transform="translate(-315.36671,-52.602499)"
         id="path14" />
    </clipPath>
    <clipPath
       clipPathUnits="userSpaceOnUse"
       id="clipPath16">
      <path
         d="M 0,233.437 H 573.598 V 0 H 0 Z"
         transform="translate(-360.23291,-59.280304)"
         id="path16" />
    </clipPath>
  </defs>
  <sodipodi:namedview
     id="namedview1"
     pagecolor="#ffffff"
     bordercolor="#000000"
     borderopacity="0.25"
     inkscape:showpageshadow="2"
     inkscape:pageopacity="0.0"
     inkscape:pagecheckerboard="0"
     inkscape:deskcolor="#d1d1d1"
     inkscape:zoom="2.3823306"
     inkscape:cx="383.02828"
     inkscape:cy="155.51998"
     inkscape:window-width="1920"
     inkscape:window-height="1009"
     inkscape:window-x="-8"
     inkscape:window-y="-8"
     inkscape:window-maximized="1"
     inkscape:current-layer="group-MC0">
    <inkscape:page
       x="0"
       y="0"
       inkscape:label="1"
       id="page1"
       width="764.7973"
       height="311.24933"
       margin="0"
       bleed="0" />
  </sodipodi:namedview>
  <g
     id="g1"
     inkscape:groupmode="layer"
     inkscape:label="1">
    <g
       id="group-MC0">
      <path
         id="path2"
         d="M 0.5,0.5 H 573.098 V 232.937 H 0.5 Z"
         style="fill:none;stroke:#363639;stroke-width:1;stroke-linecap:butt;stroke-linejoin:miter;stroke-miterlimit:4;stroke-dasharray:none;stroke-opacity:1"
         transform="matrix(1.3333333,0,0,-1.3333333,0,311.24933)"
         clip-path="url(#clipPath3)" />
      <path
         id="path4"
         d="M 470.953,79.518 H 102.527 v -2.261 h 368.426 z"
         style="fill:#363639;fill-opacity:1;fill-rule:nonzero;stroke:none"
         transform="matrix(1.3333333,0,0,-1.3333333,0,311.24933)" />
      <g
         id="g3">
        <path
           id="path5"
           d="M 0,0 C 0.585,-2.997 1.528,-5.829 2.832,-8.494 5.044,-5.633 7.097,-2.607 8.984,0.584 5.988,0.39 2.994,0.195 0,0 m -3.221,43.155 c -0.392,-1.822 -0.882,-3.58 -1.466,-5.273 0.13,-2.407 0.23,-4.784 0.294,-7.126 4.101,0.194 8.266,0.389 12.498,0.586 0.39,0.454 0.779,0.909 1.171,1.366 -3.451,-0.521 -5.841,0.666 -7.177,3.562 -1.336,2.897 -3.108,5.193 -5.32,6.885 m -53.898,2.343 c 3.841,0.065 7.697,-0.455 11.57,-1.561 3.873,-1.108 6.787,-3.483 8.74,-7.128 1.105,-4.427 -0.164,-7.34 -3.809,-8.739 -3.646,-1.4 -6.281,0.146 -7.908,4.638 -2.018,4.817 -4.882,9.08 -8.593,12.79 m -5.466,-24.311 c 7.746,1.626 13.863,-0.619 18.356,-6.737 1.495,-3.97 0.584,-6.883 -2.735,-8.738 -3.32,-1.855 -5.923,-0.7 -7.81,3.465 -1.888,4.49 -4.493,8.494 -7.811,12.01 m 26.655,3.906 c -3.645,-15.557 -6.152,-31.246 -7.518,-47.061 1.431,-5.21 2.732,-10.385 3.905,-15.527 12.628,4.817 23.986,11.781 34.077,20.894 -2.15,5.207 -3.972,10.514 -5.469,15.916 -7.161,-0.391 -14.32,-0.748 -21.481,-1.073 -0.847,1.236 -1.661,2.537 -2.439,3.905 7.616,0.325 15.264,0.682 22.945,1.074 -0.98,3.383 -1.729,6.835 -2.248,10.351 -5.728,-0.263 -11.424,-0.458 -17.084,-0.588 -0.784,1.367 -1.533,2.767 -2.248,4.201 6.182,0.194 12.4,0.389 18.65,0.584 -0.197,2.799 -0.521,5.598 -0.976,8.397 -5.144,-0.195 -10.252,-0.357 -15.33,-0.487 -1.042,1.236 -2.019,2.537 -2.928,3.905 5.987,0.13 12.008,0.325 18.063,0.585 -0.652,6.183 -1.173,12.4 -1.563,18.65 4.295,-1.239 8.593,-2.443 12.887,-3.613 3.451,0.976 7.081,1.008 10.888,0.097 3.808,-0.911 6.07,-3.418 6.786,-7.518 1.17,0.714 2.342,0.649 3.516,-0.195 2.212,-2.083 4.425,-4.165 6.64,-6.248 1.495,-1.822 1.103,-3.093 -1.174,-3.807 -8.787,-0.327 -17.541,-0.62 -26.264,-0.88 0.065,-2.801 0.325,-5.568 0.781,-8.3 4.361,0.13 8.755,0.293 13.18,0.487 1.171,1.629 2.407,3.322 3.71,5.079 1.236,1.56 2.67,1.659 4.298,0.292 2.082,-1.822 4.229,-3.613 6.445,-5.371 1.56,-2.147 1.006,-3.418 -1.661,-3.807 C 13.995,14.71 5.534,14.383 -2.929,14.058 -2.41,10.607 -1.758,7.224 -0.977,3.905 3.711,4.23 8.43,4.555 13.182,4.882 c 1.041,1.625 2.147,3.285 3.321,4.979 1.236,1.693 2.731,1.888 4.489,0.587 C 23.335,8.625 25.679,6.834 28.023,5.076 29.455,3.253 28.998,2.081 26.655,1.561 21.512,1.236 16.37,0.941 11.229,0.682 c 2.602,-2.475 5.239,-4.915 7.908,-7.322 1.171,-1.497 0.961,-2.59 -0.635,-3.272 -1.596,-0.684 -2.848,-1.417 -3.757,-2.196 -2.215,-2.215 -4.492,-4.297 -6.835,-6.249 0.974,-1.823 2.048,-3.53 3.221,-5.126 1.172,-1.596 2.686,-2.978 4.542,-4.149 1.854,-1.173 3.431,-0.587 4.735,1.758 2.472,5.857 4.655,11.878 6.542,18.061 -1.108,-6.575 -1.661,-13.149 -1.661,-19.722 0.325,-3.19 0.894,-6.622 1.707,-10.301 0.814,-3.679 -0.665,-6.166 -4.441,-7.469 -4.751,0.392 -8.69,2.473 -11.813,6.249 -4.428,3.841 -8.171,8.265 -11.229,13.28 -12.239,-6.967 -25.289,-11.619 -39.153,-13.964 -0.978,-2.929 -2.948,-4.881 -5.909,-5.86 -2.961,-0.975 -5.255,0.1 -6.884,3.224 -0.781,3.06 -0.845,6.185 -0.194,9.373 0.649,3.189 0.194,6.248 -1.366,9.179 -2.605,2.407 -5.598,4.131 -8.985,5.174 4.623,-0.13 8.529,1.399 11.719,4.589 2.407,4.036 4.523,8.265 6.345,12.693 3.319,8.657 6.312,17.476 8.984,26.461"
           style="fill:#231f20;fill-opacity:1;fill-rule:nonzero;stroke:none"
           transform="matrix(1.3333333,0,0,-1.3333333,305.78453,115.47067)"
           clip-path="url(#clipPath6)"
           inkscape:label="path5" />
        <path
           id="path7"
           d="M 0,0 C -0.206,-6.753 -0.583,-13.472 -1.13,-20.156 H 14.29 V 0 Z M 14.29,-25.155 H -1.54 c -1.304,-10.005 -4.694,-19.084 -10.177,-27.239 -6.854,-7.262 -15.177,-11.82 -24.976,-13.67 13.77,10.209 21.515,23.843 23.228,40.909 h -23.022 c -0.551,1.63 -1.099,3.298 -1.646,4.999 h 25.08 c -0.069,6.684 0,13.403 0.206,20.156 h -19.735 c -0.619,1.597 -1.165,3.261 -1.646,5 h 21.381 c -0.343,7.948 -0.684,15.898 -1.026,23.847 5.344,-1.51 10.686,-2.95 16.033,-4.319 2.329,-0.96 2.792,-2.244 1.386,-3.856 C 2.143,19.062 1.029,17.572 0.208,16.203 -0.067,12.433 -0.137,8.699 0,5 h 14.29 v 24.154 c 4.385,-0.962 8.768,-1.854 13.154,-2.673 2.125,-0.686 2.809,-1.816 2.057,-3.391 -0.755,-1.577 -1.404,-3.05 -1.952,-4.421 V 5 h 5.962 c 1.507,1.643 3.011,3.322 4.521,5.037 1.643,1.505 3.356,1.505 5.139,0 C 45.293,8.049 47.454,6.125 49.646,4.27 51.636,1.838 51.119,0.415 48.103,0 H 27.549 v -20.156 h 8.222 c 1.642,1.711 3.322,3.426 5.036,5.139 1.782,1.575 3.669,1.575 5.653,0 2.396,-1.919 4.83,-3.837 7.297,-5.751 1.92,-2.449 1.302,-3.911 -1.849,-4.387 H 27.549 v -34.537 c -0.755,-3.15 -2.88,-5.188 -6.376,-6.116 -3.495,-0.923 -5.792,0.328 -6.883,3.753 z"
           style="fill:#231f20;fill-opacity:1;fill-rule:nonzero;stroke:none"
           transform="matrix(1.3333333,0,0,-1.3333333,470.0996,88.278)"
           clip-path="url(#clipPath8)"
           inkscape:label="path7" />
      </g>
      <g
         id="g2">
        <path
           id="path9"
           d="M 0,0 C -1.262,-4.139 -2.481,-8.25 -3.659,-12.334 H 3.536 C 2.329,-8.25 1.15,-4.139 0,0 m -4.193,-14.308 c -0.33,-1.124 -0.653,-2.282 -0.967,-3.474 -0.316,-1.193 -0.089,-2.282 0.679,-3.269 0.547,-0.467 1.178,-0.672 1.891,-0.616 v -1.81 h -8.964 v 1.851 c 0.658,0.027 1.261,0.273 1.81,0.739 0.52,0.549 0.918,1.22 1.192,2.015 2.549,7.511 5.098,15.049 7.648,22.614 0.355,1.069 0.725,2.165 1.109,3.289 h 2.098 c 2.795,-7.894 5.618,-15.76 8.469,-23.6 0.383,-1.124 0.781,-2.248 1.193,-3.371 0.437,-1.097 1.232,-1.672 2.385,-1.727 v -1.81 H 3.166 v 1.851 c 1.507,-0.22 2.356,0.41 2.549,1.891 -0.411,1.808 -0.904,3.59 -1.48,5.345 v 0.041 c -2.824,0 -5.633,0.014 -8.428,0.041"
           style="fill:#231f20;fill-opacity:1;fill-rule:nonzero;stroke:none"
           transform="matrix(1.3333333,0,0,-1.3333333,282.00587,241.11267)"
           clip-path="url(#clipPath10)"
           inkscape:label="path9" />
        <path
           id="path11"
           d="M 0,0 H -0.082 -1.48 c -0.768,2.631 -1.933,5.07 -3.495,7.318 -1.152,1.343 -2.604,2.056 -4.358,2.138 -1.864,0.027 -3.27,-0.754 -4.215,-2.344 -0.945,-1.59 -0.829,-3.138 0.35,-4.645 1.808,-1.262 3.782,-2.166 5.921,-2.714 2.137,-0.549 4.097,-1.481 5.879,-2.796 2.384,-3.427 2.795,-7.113 1.234,-11.06 -1.399,-3.344 -3.866,-5.14 -7.401,-5.386 -2.742,0.054 -5.14,0.959 -7.196,2.714 -0.713,-0.604 -1.397,-1.206 -2.055,-1.81 -0.028,-0.027 -0.055,-0.041 -0.082,-0.041 h -1.522 -0.041 v 0.041 11.308 0.123 h 0.041 1.522 c 0.629,-2.825 1.863,-5.319 3.7,-7.484 1.453,-1.289 3.2,-2.036 5.242,-2.241 2.042,-0.205 3.57,0.692 4.585,2.693 0.575,3.125 -0.672,5.167 -3.742,6.127 -2.467,0.301 -4.783,1.144 -6.949,2.529 -2.166,1.384 -3.44,3.405 -3.824,6.064 -0.438,2.987 0.316,5.674 2.262,8.059 1.452,1.754 3.33,2.686 5.633,2.796 2.576,-0.082 4.865,-0.932 6.866,-2.549 0.521,0.63 1.027,1.273 1.521,1.931 l 0.041,0.042 H -1.48 -0.082 0 L 0,10.73 V 0.082 Z"
           style="fill:#231f20;fill-opacity:1;fill-rule:nonzero;stroke:none"
           transform="matrix(1.3333333,0,0,-1.3333333,363.26307,246.3392)"
           clip-path="url(#clipPath12)"
           inkscape:label="path11" />
        <path
           id="path13"
           d="M 0,0 C -1.262,-4.139 -2.481,-8.25 -3.659,-12.334 H 3.536 C 2.329,-8.25 1.15,-4.139 0,0 m -4.193,-14.308 c -0.33,-1.124 -0.653,-2.282 -0.967,-3.474 -0.316,-1.193 -0.089,-2.282 0.679,-3.269 0.547,-0.467 1.178,-0.672 1.891,-0.616 v -1.81 h -8.964 v 1.851 c 0.658,0.027 1.262,0.273 1.811,0.739 0.519,0.549 0.917,1.22 1.191,2.015 2.549,7.511 5.098,15.049 7.648,22.614 0.355,1.069 0.725,2.165 1.109,3.289 h 2.098 c 2.795,-7.894 5.618,-15.76 8.469,-23.6 0.383,-1.124 0.781,-2.248 1.193,-3.371 0.437,-1.097 1.232,-1.672 2.385,-1.727 v -1.81 H 3.166 v 1.851 c 1.507,-0.22 2.356,0.41 2.549,1.891 -0.411,1.808 -0.904,3.59 -1.48,5.345 v 0.041 c -2.824,0 -5.633,0.014 -8.428,0.041"
           style="fill:#231f20;fill-opacity:1;fill-rule:nonzero;stroke:none"
           transform="matrix(1.3333333,0,0,-1.3333333,420.48893,241.11267)"
           clip-path="url(#clipPath14)"
           inkscape:label="path13" />
        <path
           id="path15"
           d="m 0,0 v 0.041 h 0.082 13.321 0.082 V 0 -1.851 -1.933 c -0.027,-0.027 -0.054,-0.041 -0.082,-0.041 -0.082,0 -0.15,-0.013 -0.205,-0.041 H 13.033 12.704 C 12.622,-2.042 12.567,-2.056 12.54,-2.056 h -0.206 -0.37 -0.287 C 11.512,-2.11 11.348,-2.138 11.184,-2.138 11.019,-2.165 10.867,-2.207 10.73,-2.262 L 10.566,-2.344 C 10.457,-2.426 10.36,-2.494 10.278,-2.549 10.224,-2.632 10.169,-2.7 10.114,-2.755 V -2.837 C 10.032,-3.002 9.977,-3.166 9.949,-3.33 9.895,-3.55 9.854,-3.77 9.826,-3.988 9.799,-4.756 9.785,-5.523 9.785,-6.291 V -23.93 c -0.027,-0.849 0.014,-1.685 0.123,-2.508 0,-0.164 0.041,-0.315 0.124,-0.452 0.028,-0.219 0.096,-0.411 0.205,-0.575 0.028,-0.083 0.069,-0.151 0.123,-0.206 0.082,-0.055 0.165,-0.096 0.247,-0.123 0.082,-0.082 0.192,-0.138 0.33,-0.165 0.136,-0.027 0.287,-0.055 0.452,-0.082 0.657,-0.109 1.329,-0.15 2.014,-0.123 h 0.082 v -0.082 -1.851 -0.041 H 13.403 0.082 0 v 0.041 1.892 0.082 h 0.082 c 0.685,-0.055 1.384,-0.014 2.097,0.123 0.082,0.027 0.191,0.041 0.329,0.041 0.164,0.055 0.343,0.138 0.534,0.247 0.027,0.055 0.082,0.109 0.165,0.164 0.055,0.055 0.109,0.124 0.164,0.206 0.027,0.137 0.068,0.287 0.123,0.452 0.027,0.164 0.069,0.343 0.124,0.535 0.082,0.767 0.123,1.562 0.123,2.384 v 17.763 c -0.027,0.739 -0.054,1.479 -0.082,2.22 -0.027,0.164 -0.055,0.342 -0.082,0.534 -0.028,0.109 -0.069,0.233 -0.124,0.37 -0.027,0.109 -0.055,0.22 -0.082,0.329 -0.027,0 -0.041,0.014 -0.041,0.041 l -0.247,0.247 c -0.109,0.055 -0.219,0.123 -0.328,0.205 -0.056,0 -0.083,0.014 -0.083,0.042 -0.192,0.055 -0.37,0.082 -0.534,0.082 -0.22,0.028 -0.426,0.055 -0.617,0.082 H 1.192 0.986 c -0.082,0 -0.136,0.014 -0.164,0.041 H 0.452 0.082 0 v 0.082 0.082 z"
           style="fill:#231f20;fill-opacity:1;fill-rule:nonzero;stroke:none"
           transform="matrix(1.3333333,0,0,-1.3333333,480.31053,232.20893)"
           clip-path="url(#clipPath16)"
           inkscape:label="path15" />
      </g>
    </g>
  </g>
</svg>
