<?xml version="1.0" encoding="UTF-8" standalone="no"?>
<!-- Created with Inkscape (http://www.inkscape.org/) -->

<svg
   version="1.1"
   id="svg1"
   width="435.97867"
   height="435.96399"
   viewBox="0 0 435.97867 435.96399"
   sodipodi:docname="13033022.svg"
   inkscape:version="1.4 (86a8ad7, 2024-10-11)"
   xmlns:inkscape="http://www.inkscape.org/namespaces/inkscape"
   xmlns:sodipodi="http://sodipodi.sourceforge.net/DTD/sodipodi-0.dtd"
   xmlns="http://www.w3.org/2000/svg"
   xmlns:svg="http://www.w3.org/2000/svg">
  <defs
     id="defs1">
    <clipPath
       clipPathUnits="userSpaceOnUse"
       id="clipPath3">
      <path
         d="M 0,326.973 H 326.984 V 0 H 0 Z"
         transform="translate(-297.8374,-148.3975)"
         id="path3" />
    </clipPath>
    <clipPath
       clipPathUnits="userSpaceOnUse"
       id="clipPath5">
      <path
         d="M 0,326.973 H 326.984 V 0 H 0 Z"
         id="path5" />
    </clipPath>
    <clipPath
       clipPathUnits="userSpaceOnUse"
       id="clipPath7">
      <path
         d="M 0,326.973 H 326.984 V 0 H 0 Z"
         transform="translate(-148.47951,-179.4756)"
         id="path7" />
    </clipPath>
    <clipPath
       clipPathUnits="userSpaceOnUse"
       id="clipPath9">
      <path
         d="M 0,326.973 H 326.984 V 0 H 0 Z"
         transform="translate(-253.58941,-178.30221)"
         id="path9" />
    </clipPath>
    <clipPath
       clipPathUnits="userSpaceOnUse"
       id="clipPath11">
      <path
         d="M 0,326.973 H 326.984 V 0 H 0 Z"
         transform="translate(-121.6299,-98.960905)"
         id="path11" />
    </clipPath>
    <clipPath
       clipPathUnits="userSpaceOnUse"
       id="clipPath13">
      <path
         d="M 0,326.973 H 326.984 V 0 H 0 Z"
         transform="translate(-147.1797,-112.3818)"
         id="path13" />
    </clipPath>
    <clipPath
       clipPathUnits="userSpaceOnUse"
       id="clipPath15">
      <path
         d="M 0,326.973 H 326.984 V 0 H 0 Z"
         transform="translate(-196.8784,-114.6055)"
         id="path15" />
    </clipPath>
    <clipPath
       clipPathUnits="userSpaceOnUse"
       id="clipPath17">
      <path
         d="M 0,326.973 H 326.984 V 0 H 0 Z"
         transform="translate(-225.86671,-109.3828)"
         id="path17" />
    </clipPath>
  </defs>
  <sodipodi:namedview
     id="namedview1"
     pagecolor="#ffffff"
     bordercolor="#000000"
     borderopacity="0.25"
     inkscape:showpageshadow="2"
     inkscape:pageopacity="0.0"
     inkscape:pagecheckerboard="0"
     inkscape:deskcolor="#d1d1d1"
     inkscape:zoom="2.0299842"
     inkscape:cx="218.47461"
     inkscape:cy="217.48938"
     inkscape:window-width="1920"
     inkscape:window-height="1009"
     inkscape:window-x="-8"
     inkscape:window-y="-8"
     inkscape:window-maximized="1"
     inkscape:current-layer="g1"
     showgrid="false">
    <inkscape:page
       x="0"
       y="0"
       inkscape:label="1"
       id="page1"
       width="435.97867"
       height="435.96399"
       margin="0"
       bleed="0" />
  </sodipodi:namedview>
  <g
     id="g1"
     inkscape:groupmode="layer"
     inkscape:label="1">
    <g
       id="group-MC0">
      <path
         id="path2"
         d="m 0,0 c 2.643,0.337 12.986,-0.298 12.986,1.891 0,0.86 -17.815,1.463 -25.287,1.405 -1.248,-0.089 -2.832,-0.229 -4.365,-0.238 -2.713,0 -5.147,-0.059 -7.582,-0.129 -4.235,0 -11.481,1.346 -12.529,2.049 -1.207,0.792 -16.568,0.89 -18.537,1.078 -8.907,0.664 -41.232,-1.137 -41.29,-0.782 0.326,0.545 -7.096,2.969 -10.343,3.098 -7.917,0.307 -15.706,-0.129 -22.258,-0.909 -3.227,-0.358 -3.701,-0.625 -5.156,-0.546 -0.584,0.021 -2.227,-0.939 -6.443,-1.425 -2.921,-0.317 -6.74,-0.168 -9.403,-0.544 -5.147,-0.524 -21.615,-1.059 -27.335,-1.345 -10.907,-0.565 -16.37,-0.674 -24.892,-0.348 -6.402,0.348 -11.688,0.07 -18.219,0.198 -6.849,0.079 -11.748,-0.019 -18.618,0.051 -6.452,0.236 -12.41,0.355 -19.337,0.346 -0.921,-0.05 -1.851,-0.07 -2.504,-0.179 -0.664,-0.099 -2.445,-0.049 -3.366,-0.099 -5.621,0.178 -10.689,0.703 -16.181,0.584 -3.266,-1.752 3.285,-2.356 8.223,-3.088 4.693,-0.663 10.689,-0.682 16.886,-0.86 8.59,-0.208 14.636,-1.524 18.923,-2.821 2.949,-0.999 5.245,-2.564 12.51,-2.504 8.521,0.159 16.251,0.94 24.97,0.455 6.057,-0.386 10.936,-0.751 17.15,-0.911 0.862,-0.069 4.355,-0.247 5.544,-0.267 7.007,0.11 15.172,-0.247 20.011,0.703 7.72,0.316 11.679,-0.059 17.835,0.604 7.789,0.871 15.657,1.88 24.832,2.117 5.214,0.17 10.045,0.17 15.063,0.03 1.78,-0.049 8.114,-0.949 10.016,-1.267 3.562,-0.524 8.917,-0.168 12.499,0.249 5.601,0.771 11.351,1.286 18.22,1.681 2.445,0.04 4.681,-0.208 7.404,-0.208 6.393,0.129 11.024,0.773 16.636,1.079 20.933,0.536 18.092,1.01 18.962,0.951 2.11,0 2.951,-0.525 5.602,-0.644 C -5.819,-0.613 -2.296,-0.316 0,0"
         style="fill:#363639;fill-opacity:1;fill-rule:nonzero;stroke:none"
         transform="matrix(1.3333333,0,0,-1.3333333,397.11653,238.10067)"
         clip-path="url(#clipPath3)" />
      <path
         id="path4"
         d="M 326.484,326.473 H 0.5 V 0.5 h 325.984 z"
         style="fill:none;stroke:#363639;stroke-width:1;stroke-linecap:butt;stroke-linejoin:miter;stroke-miterlimit:4;stroke-dasharray:none;stroke-opacity:1"
         transform="matrix(1.3333333,0,0,-1.3333333,0,435.964)"
         clip-path="url(#clipPath5)" />
      <g
         id="g3">
        <path
           id="path6"
           d="m 0,0 c 0.118,-0.175 0.265,-0.323 0.44,-0.44 -2.17,-1.058 -4.461,-1.468 -6.868,-1.232 -2.171,0.763 -4.315,0.674 -6.427,-0.265 -2.583,-0.118 -5.136,-0.177 -7.662,-0.177 h -2.113 c -4.225,0.059 -8.364,-0.41 -12.415,-1.408 -1.058,-0.469 -2.143,-0.879 -3.258,-1.233 -3.347,0.764 -4.932,2.759 -4.756,5.988 -0.233,1.233 0.382,1.761 1.851,1.586 h 1.936 c 0.588,-0.118 1.204,-0.177 1.849,-0.177 2.054,0.117 4.139,0.264 6.252,0.441 1.82,0.058 3.639,0.233 5.459,0.527 0.471,1.644 0.705,3.376 0.705,5.196 -0.177,0.646 -0.499,1.204 -0.968,1.673 h -0.442 c -0.821,0.058 -1.554,0.293 -2.201,0.705 -3.404,1.172 -6.632,2.67 -9.685,4.49 -0.822,1.116 -1.146,2.407 -0.969,3.874 0.06,0.41 0.293,0.764 0.704,1.057 0.881,1.116 2.056,1.438 3.523,0.969 1.173,0.059 2.377,0.147 3.609,0.264 2.526,-0.821 5.137,-1.233 7.837,-1.233 0.822,0.059 1.703,0.146 2.643,0.265 1.877,-0.178 3.786,0.059 5.724,0.704 1.408,-0.823 2.904,-1.38 4.489,-1.674 1.763,-0.938 2.144,-2.348 1.146,-4.226 -0.235,-1.174 -0.94,-1.791 -2.113,-1.849 h -0.266 c -1.525,0.235 -3.023,0.147 -4.489,-0.263 -0.94,-0.354 -1.821,-0.676 -2.642,-0.97 -0.528,-0.997 -0.764,-2.024 -0.704,-3.082 -1.117,-0.939 -1.674,-2.114 -1.674,-3.522 V 3.786 c 2.113,-0.351 4.257,-0.351 6.429,0 1.173,0 2.376,0.088 3.61,0.265 0.762,-0.117 1.554,-0.205 2.377,-0.265 0.939,0.94 2.114,1.351 3.523,1.233 1.819,-0.117 3.58,-0.528 5.282,-1.233 C 0.618,3.141 1.557,2.525 2.555,1.938 1.557,1.468 0.706,0.822 0,0 m -15.498,32.052 c -2.64,-0.235 -5.252,-0.469 -7.835,-0.704 -2.526,-0.352 -4.991,-0.764 -7.398,-1.234 -2.23,-0.879 -4.139,-2.142 -5.723,-3.785 -1.292,-1.82 -2.319,-3.728 -3.083,-5.724 v -0.264 c -1.759,-1.703 -2.699,-3.817 -2.817,-6.34 -1.643,-2.524 -2.671,-5.284 -3.082,-8.278 -1.349,-1.877 -2.172,-3.932 -2.466,-6.163 -0.998,-3.111 -2.407,-5.988 -4.225,-8.629 -2.173,-0.764 -3.053,0.264 -2.643,3.081 1.35,5.636 3.406,11.037 6.164,16.202 2.524,5.812 5.401,11.507 8.63,17.082 -1.702,1.116 -3.287,2.379 -4.755,3.787 -0.294,0.06 -0.529,0.148 -0.705,0.265 -1.467,1.115 -2.759,2.377 -3.875,3.785 -1.467,1.175 -2.171,2.672 -2.113,4.492 0.236,0.411 0.382,0.88 0.442,1.408 -0.06,0.236 -0.119,0.5 -0.177,0.794 -3.698,-1.469 -6.721,-3.787 -9.07,-6.958 -0.763,-1.702 -1.703,-3.286 -2.818,-4.755 -1.233,-1.584 -2.113,-3.316 -2.642,-5.194 2.819,-0.998 4.551,-2.965 5.196,-5.899 -1.232,-2.584 -1.85,-5.284 -1.85,-8.102 -0.116,-2.876 -0.205,-5.724 -0.264,-8.542 0,-2.172 0.148,-4.314 0.441,-6.427 -0.177,-0.588 -0.234,-1.145 -0.177,-1.674 -1.115,-0.294 -1.996,-0.851 -2.64,-1.673 -0.235,0.412 -0.471,0.822 -0.706,1.233 h -0.703 c -1.058,1.233 -1.614,2.642 -1.673,4.227 0.233,2.7 0.615,5.4 1.144,8.101 -0.059,2.583 0.117,5.196 0.529,7.837 0,2.172 -0.558,4.227 -1.673,6.164 -1.293,-2.114 -2.495,-4.227 -3.612,-6.34 -1.232,-3.522 -2.494,-7.015 -3.786,-10.479 -1.115,-1.585 -2.699,-2.142 -4.755,-1.672 -1.642,1.348 -2.583,3.081 -2.818,5.194 0.235,2.759 1.233,5.225 2.994,7.397 1.761,2.172 3.201,4.521 4.315,7.044 5.459,8.512 9.598,17.64 12.415,27.386 -1.643,3.933 -2.61,8.042 -2.904,12.327 v 0.264 c -0.236,1.996 0.087,3.991 0.968,5.988 1.526,2.289 3.61,3.786 6.252,4.492 0.881,-0.53 1.819,-0.999 2.817,-1.41 h 0.265 v -0.264 c 1.644,-1.878 3.141,-3.845 4.49,-5.9 0.822,-4.814 1.703,-9.597 2.643,-14.353 -0.119,-0.175 -0.206,-0.323 -0.264,-0.441 0.468,-1.409 0.557,-2.846 0.264,-4.313 2.406,1.173 4.784,0.938 7.131,-0.705 1.057,-1.468 2.555,-2.172 4.491,-2.113 2.055,0 4.109,0.087 6.165,0.264 2.582,5.4 5.605,10.625 9.07,15.674 0.587,3.052 2.171,5.342 4.754,6.868 2.817,-0.822 4.168,-2.789 4.051,-5.9 -1.585,-1.819 -3.494,-3.17 -5.725,-4.05 -1.291,-2.055 -2.553,-4.051 -3.786,-5.988 -1.233,-1.879 -2.348,-3.787 -3.345,-5.724 v -0.704 c 3.404,0.469 6.751,0.322 10.038,-0.44 2.7,1.115 5.312,0.792 7.837,-0.969 0.704,-1.351 1.731,-2.289 3.081,-2.819 0.293,-1.291 0.06,-2.405 -0.705,-3.346 -2.875,-2.054 -6.134,-3.081 -9.774,-3.081"
           style="fill:#231f20;fill-opacity:1;fill-rule:nonzero;stroke:none"
           transform="matrix(1.3333333,0,0,-1.3333333,197.97267,196.6632)"
           clip-path="url(#clipPath7)"
           inkscape:label="path6" />
        <path
           id="path8"
           d="m 0,0 c -1.702,-0.47 -2.964,-1.351 -3.786,-2.643 -3.229,-0.822 -6.399,-0.732 -9.509,0.266 -1.937,0.234 -3.289,1.261 -4.053,3.081 -1.29,1.996 -2.081,4.197 -2.375,6.605 0.469,0.762 1.261,0.938 2.375,0.527 1.646,1.526 2.584,3.435 2.82,5.724 0,0.352 -0.059,0.733 -0.175,1.145 0.998,0.117 2.025,0.264 3.08,0.44 1.117,-1.116 2.467,-1.908 4.051,-2.377 v -0.441 c -0.351,-1.585 -1.233,-2.759 -2.641,-3.523 -0.939,0.705 -1.982,0.72 -3.127,0.044 -1.143,-0.674 -1.363,-1.57 -0.66,-2.685 1.409,-1.409 2.76,-2.847 4.051,-4.314 1.293,-0.706 2.7,-1.175 4.226,-1.41 3.054,0.353 5.929,1.38 8.63,3.083 C 2.379,1.937 1.409,0.762 0,0 m -25.71,37.247 v -0.705 h 2.376 c 0.237,1.233 0.412,2.495 0.528,3.786 v 0.442 c -1.467,-0.881 -2.436,-2.056 -2.904,-3.523 m 4.049,-23.687 c -0.177,-1.997 -0.235,-3.992 -0.177,-5.988 -0.117,-3.464 0.03,-6.868 0.442,-10.215 0.411,-3.052 0.499,-6.075 0.263,-9.069 -2.934,1.936 -4.225,4.726 -3.873,8.365 0.765,0.353 1.175,1.057 1.232,2.115 -0.352,2.112 -0.674,4.255 -0.968,6.426 -0.587,-0.235 -1.057,-0.557 -1.41,-0.968 -1.467,0.706 -2.581,1.82 -3.346,3.346 -1.231,1.115 -1.936,2.466 -2.112,4.05 -0.119,1.174 0.499,1.82 1.849,1.938 1.996,-0.47 3.581,-1.584 4.755,-3.347 0.469,2.642 0,5.079 -1.41,7.309 1.114,1.174 2.555,1.674 4.316,1.497 2.407,-0.47 2.963,-1.761 1.674,-3.874 -0.353,-0.646 -0.765,-1.174 -1.235,-1.585 m -7.308,-15.058 c -0.881,-1.056 -1.438,-2.23 -1.674,-3.522 -1.468,0.529 -2.757,1.321 -3.873,2.377 -1.234,0.764 -2.083,1.791 -2.554,3.082 v 0.265 c 2.936,0.352 5.928,0.734 8.981,1.145 -1.055,-0.94 -1.351,-2.055 -0.88,-3.347 m -23.158,34.87 h -1.408 c -0.412,0 -0.795,-0.058 -1.147,-0.176 -3.344,1.762 -4.784,4.462 -4.314,8.102 2.056,-0.177 4.109,-0.589 6.164,-1.233 1.35,2.229 3.258,2.876 5.724,1.936 1.761,-1.408 3.67,-2.612 5.724,-3.609 1.233,-1.468 1.937,-3.141 2.113,-5.02 -0.235,-1.527 -1.085,-2.554 -2.555,-3.082 -0.585,0.412 -1.233,0.647 -1.937,0.704 -0.175,-0.057 -0.323,-0.116 -0.439,-0.176 -1.175,-1.35 -1.821,-2.876 -1.939,-4.579 0.061,-0.293 0.148,-0.527 0.265,-0.703 3.229,-0.118 6.398,0.293 9.511,1.232 1.878,0.587 3.844,0.969 5.9,1.145 1.056,0.704 2.025,1.497 2.905,2.377 -2.405,-0.293 -4.727,-0.059 -6.956,0.704 -1.587,0.822 -2.379,2.114 -2.379,3.875 1.174,1.115 2.615,1.438 4.315,0.969 0.119,0.058 0.266,0.117 0.441,0.176 -0.821,0.939 -1.526,1.966 -2.115,3.082 -2.523,2.465 -3.96,5.488 -4.313,9.07 2.641,-0.236 5.048,-1.174 7.22,-2.819 1.468,-1.936 3.288,-3.287 5.459,-4.049 1.117,0.176 2.201,0.557 3.26,1.144 0.175,0.763 0.264,1.556 0.264,2.377 0.057,2.407 -0.412,4.725 -1.41,6.958 0.118,0.351 0.265,0.733 0.44,1.143 h 1.496 c 2.057,-0.175 3.144,-1.35 3.259,-3.521 2.524,0.88 4.99,0.615 7.395,-0.794 v -0.703 c 1.468,-0.705 2.116,-1.879 1.94,-3.523 -0.116,-0.998 -0.296,-1.967 -0.528,-2.905 -0.587,-0.294 -1.146,-0.588 -1.673,-0.881 -1.233,0.352 -2.26,0.968 -3.083,1.849 -0.411,0.705 -0.792,1.409 -1.145,2.113 -1.173,0.94 -2.142,2.055 -2.906,3.347 -1.29,-2.232 -1.818,-4.609 -1.585,-7.132 v -3.347 c 3.111,1.409 6.34,1.966 9.687,1.673 0.528,-0.177 1.086,-0.235 1.672,-0.177 0.704,-0.879 1.497,-1.672 2.379,-2.377 -0.061,-0.587 -0.208,-1.145 -0.441,-1.673 -1.408,-0.646 -2.849,-1.203 -4.317,-1.673 -0.35,0 -0.673,0.059 -0.967,0.176 -1.703,-0.058 -3.345,-0.205 -4.931,-0.441 -1.937,-0.117 -3.462,-0.821 -4.579,-2.113 4.109,0.411 8.249,0.734 12.417,0.97 2.993,0.469 5.988,0.528 8.981,0.175 C 0.266,31.375 0.822,30.818 1.409,30.29 1.351,29.997 1.293,29.761 1.232,29.585 v -1.144 c -1.758,-0.704 -3.58,-1.116 -5.457,-1.233 -1.938,-0.059 -3.845,-0.118 -5.724,-0.176 0.529,-1.937 1.38,-3.699 2.553,-5.283 3.289,-2.877 7.104,-4.286 11.449,-4.227 4.284,-0.881 8.333,-0.323 12.15,1.674 C 15.205,16.377 13.21,14.88 10.214,14.705 7.809,13.237 5.285,12.21 2.644,11.622 0,11.094 -2.376,11.563 -4.49,13.03 c -1.526,0.06 -2.787,0.691 -3.785,1.896 -0.998,1.202 -2.113,2.156 -3.348,2.861 -1.408,0.762 -2.611,1.731 -3.609,2.906 -1.352,1.878 -2.465,3.904 -3.347,6.075 -1.175,-0.412 -2.347,-0.822 -3.521,-1.232 v -1.849 c -0.763,-2.056 -2.026,-2.789 -3.788,-2.202 -4.051,-1.879 -7.16,-4.784 -9.333,-8.717 -1.525,-1.585 -2.936,-3.229 -4.226,-4.932 -0.822,-2.054 -1.702,-4.05 -2.643,-5.987 -1.643,1.526 -2.347,3.522 -2.112,5.987 0.764,1.938 2.112,3.523 4.051,4.755 1.35,1.526 2.67,3.111 3.96,4.755 0.53,1.233 1.412,2.172 2.643,2.817 0.646,0.53 1.291,1.058 1.938,1.586 -1.234,-0.118 -2.437,-0.353 -3.611,-0.705 -2.229,-0.763 -4.432,-1.526 -6.605,-2.289 -2.055,1.116 -3.726,2.672 -5.019,4.667 v 0.265 h -0.263 c -0.588,-3.348 -1.057,-6.664 -1.409,-9.951 v -2.377 c 0,-0.764 0.087,-1.469 0.264,-2.114 -0.06,-4.579 0.646,-9.011 2.112,-13.296 -0.174,-0.822 -0.323,-1.615 -0.438,-2.378 -0.588,-0.293 -1.087,-0.615 -1.499,-0.968 -1.876,1.819 -3.052,4.022 -3.522,6.604 -0.35,2.524 -0.028,4.989 0.97,7.397 -0.119,4.167 -0.44,8.365 -0.97,12.592 -3.463,-1.057 -6.484,-0.118 -9.069,2.817 -1.233,-2.29 -1.702,-4.725 -1.408,-7.308 v -0.969 c 1.173,0.235 2.378,0.47 3.61,0.705 1.878,-1.351 3.696,-1.175 5.458,0.528 -0.116,-0.882 -0.205,-1.761 -0.264,-2.642 -1.115,-1.585 -2.318,-3.023 -3.609,-4.315 -1.878,0.235 -3.523,0.968 -4.932,2.201 -0.118,0.118 -0.205,0.265 -0.263,0.44 -0.471,-0.763 -0.617,-1.555 -0.442,-2.377 0,-4.696 0.47,-9.304 1.411,-13.825 -0.295,-0.644 -0.53,-1.261 -0.706,-1.848 -3.287,0.177 -5.195,2.083 -5.723,5.723 0.586,4.051 0.909,8.159 0.969,12.327 0.117,4.227 0.41,8.483 0.88,12.769 0.352,3.699 0.852,7.426 1.497,11.184 0.058,0.352 0.293,0.585 0.706,0.704 2.581,-1.585 4.725,-3.64 6.426,-6.164 -0.469,-1.879 0.119,-3.039 1.761,-3.479 1.644,-0.439 3.024,-1.101 4.14,-1.98 v 2.376 c -0.47,2.407 -0.792,4.844 -0.969,7.309 m 16.731,25.536 c -2.115,-0.235 -3.788,-1.116 -5.018,-2.641 0.174,-0.705 0,-1.38 -0.529,-2.026 -0.531,-0.645 -0.353,-1.232 0.529,-1.761 -0.118,-1.058 -0.031,-2.084 0.263,-3.081 0.174,-1.292 -0.381,-2.084 -1.675,-2.379 -1.291,1.352 -2.024,2.936 -2.199,4.757 -0.237,1.76 -0.619,3.491 -1.147,5.194 -3.345,-1.526 -5.253,-4.051 -5.722,-7.572 -0.822,-1.762 -2.173,-2.731 -4.051,-2.907 -4.813,2.936 -9.011,6.575 -12.592,10.919 -1.996,2.172 -2.642,4.638 -1.937,7.397 1.703,1.82 3.845,2.231 6.427,1.233 3.405,-2.055 7.133,-2.554 11.183,-1.498 2.406,-0.116 4.727,0.294 6.957,1.232 0.293,1.938 0.44,3.905 0.44,5.9 0.059,0.178 0.148,0.353 0.265,0.53 0.879,-0.53 1.82,-0.999 2.818,-1.409 0.939,-0.764 1.217,-1.689 0.834,-2.774 -0.38,-1.086 -0.336,-2.068 0.136,-2.95 3.696,0.177 7.425,0.645 11.182,1.409 1.936,0.117 3.843,0.029 5.723,-0.264 1.172,3.463 2.758,6.722 4.754,9.774 2.994,-0.646 4.49,-2.466 4.49,-5.46 -1.347,-0.88 -2.464,-1.906 -3.344,-3.082 1.641,-0.058 3.316,0.176 5.018,0.705 1.88,0.118 3.612,-0.294 5.195,-1.234 0.762,-0.703 1.32,-1.555 1.673,-2.552 -1.292,-0.704 -2.406,-1.585 -3.345,-2.642 h -2.555 c -2.406,-0.527 -4.724,-1.175 -6.956,-1.937 -0.939,-0.528 -1.41,-1.321 -1.41,-2.378 -0.291,-1.937 -0.996,-2.876 -2.111,-2.817 -0.411,-0.411 -0.736,-0.823 -0.97,-1.233 -0.761,0.352 -1.409,0.851 -1.936,1.495 -0.587,1.821 -1.526,3.465 -2.817,4.933 z"
           style="fill:#231f20;fill-opacity:1;fill-rule:nonzero;stroke:none"
           transform="matrix(1.3333333,0,0,-1.3333333,338.1192,198.22773)"
           clip-path="url(#clipPath9)"
           inkscape:label="path8" />
      </g>
      <g
         id="g2">
        <path
           id="path10"
           d="M 0,0 C -0.44,-0.621 -0.97,-1.072 -1.591,-1.357 -2.6,-1.384 -3.569,-1.629 -4.5,-2.095 c -1.086,0 -2.095,-0.349 -3.025,-1.047 -1.113,-0.103 -2.095,-0.466 -2.949,-1.086 -0.31,0.387 -0.426,0.324 -0.349,-0.195 -0.905,-0.595 -1.862,-1.059 -2.87,-1.394 -1.035,-0.365 -2.043,-0.765 -3.026,-1.204 -0.336,0.052 -0.673,0.116 -1.009,0.195 -1.085,-0.259 -2.172,-0.389 -3.258,-0.389 -0.905,0.052 -1.668,0.349 -2.288,0.892 -0.026,0.337 -0.014,0.672 0.039,1.01 -0.027,0 -0.053,0.012 -0.078,0.037 -0.052,-0.025 -0.091,-0.052 -0.116,-0.077 -0.027,0 -0.039,0.005 -0.039,0.02 0,0.012 0.012,0.032 0.039,0.057 0.025,0.027 0.051,0.066 0.077,0.117 -0.026,0.621 0.117,1.228 0.426,1.823 0.776,-0.31 1.513,-0.258 2.211,0.156 0.673,-0.258 1.009,0.091 1.009,1.046 0.802,-0.621 1.371,-0.53 1.707,0.272 0.051,0 0.104,0.013 0.155,0.04 0.414,-0.105 0.944,-0.227 1.591,-0.369 0.646,-0.144 0.982,0.089 1.008,0.698 0.026,0.607 0.427,0.897 1.203,0.872 0.827,0.491 1.654,0.995 2.482,1.513 0.983,0.776 1.965,1.564 2.948,2.366 0.439,0.207 0.789,0.544 1.047,1.008 -0.232,0.233 -0.453,0.48 -0.659,0.738 -0.233,0.259 -0.517,0.389 -0.853,0.389 -0.465,0.568 -1.06,0.904 -1.784,1.006 -0.156,0.571 -0.544,0.81 -1.164,0.718 -0.621,-0.09 -1.138,0.02 -1.552,0.331 -0.801,0.309 -1.591,0.634 -2.366,0.969 -0.802,0.646 -1.694,1.021 -2.677,1.125 -0.776,0.647 -1.616,1.19 -2.521,1.63 -0.646,0.957 -1.176,1.978 -1.59,3.063 -1.061,1.061 -0.97,1.993 0.271,2.794 -0.052,0.233 -0.091,0.466 -0.117,0.699 0.337,0.179 0.699,0.348 1.087,0.502 1.189,-0.076 2.237,0.234 3.142,0.932 0.672,0.311 1.396,0.517 2.172,0.62 0.75,0.389 1.565,0.544 2.444,0.466 0.544,-0.232 1.138,-0.193 1.784,0.116 1.294,-0.026 2.586,0.078 3.879,0.312 0.88,0.36 1.811,0.542 2.793,0.542 0.491,-0.258 1.008,-0.388 1.551,-0.388 0.156,-0.439 0.485,-0.737 0.99,-0.892 0.505,-0.156 0.743,-0.53 0.718,-1.125 0.645,-0.879 1.137,-1.835 1.474,-2.872 -0.259,-0.438 -0.337,-0.89 -0.233,-1.356 -1.345,-0.49 -2.638,-0.375 -3.879,0.349 -0.44,0.233 -0.749,0.543 -0.931,0.932 l -1.164,0.542 c -0.078,-0.052 -0.155,-0.091 -0.232,-0.117 -0.285,0.026 -0.557,0.065 -0.815,0.117 -0.699,-0.026 -1.307,-0.271 -1.823,-0.736 -0.983,0.542 -1.992,0.542 -3.026,0 -1.086,-0.027 -2.146,-0.221 -3.181,-0.583 -0.905,-0.077 -1.616,-0.452 -2.133,-1.124 1.06,-0.648 2.198,-1.163 3.413,-1.552 1.009,-0.31 2.005,-0.673 2.987,-1.087 0.621,-0.181 1.203,-0.439 1.746,-0.775 0.957,-1.242 2.249,-1.668 3.879,-1.28 0.879,0.362 1.771,0.234 2.677,-0.388 0.594,-0.311 1.086,-0.764 1.473,-1.357 0.078,0.025 0.168,0.065 0.272,0.116 C -1.461,7.538 -1.397,7.46 -1.319,7.409 -0.983,6.168 -0.505,4.99 0.116,3.879 0.039,3.774 -0.014,3.686 -0.04,3.607 -0.065,3.323 -0.014,3.063 0.116,2.831 0.479,2.625 0.84,2.418 1.202,2.211 1.228,2.056 1.279,1.899 1.357,1.746 0.943,1.099 0.491,0.518 0,0"
           style="fill:#231f20;fill-opacity:1;fill-rule:nonzero;stroke:none"
           transform="matrix(1.3333333,0,0,-1.3333333,162.1732,304.01613)"
           clip-path="url(#clipPath11)"
           inkscape:label="path10" />
        <path
           id="path12"
           d="m 0,0 c -0.233,0.466 -0.595,0.763 -1.086,0.893 -0.724,-0.465 -1.331,-1.009 -1.823,-1.629 -0.88,-0.75 -1.5,-1.656 -1.862,-2.716 -0.207,-0.182 -0.401,-0.349 -0.582,-0.504 0.052,-0.13 0.103,-0.259 0.155,-0.389 -0.594,-0.723 -0.879,-1.538 -0.854,-2.442 0.31,-0.595 0.802,-0.906 1.475,-0.932 1.215,-0.207 2.444,-0.192 3.685,0.039 1.06,0.258 2.146,0.298 3.258,0.117 C 1.875,-4.978 1.086,-2.456 0,0 m 10.046,-18.503 c -0.155,-0.595 -0.516,-0.969 -1.086,-1.125 -0.775,0.105 -1.267,0.492 -1.473,1.164 -0.208,0.672 -0.491,1.267 -0.855,1.784 -0.438,-0.466 -0.781,-0.414 -1.027,0.156 -0.246,0.569 -0.407,1.022 -0.485,1.358 -0.775,0.542 -1.06,1.28 -0.853,2.211 0.154,0.931 -0.091,1.771 -0.737,2.52 -0.724,-0.309 -1.487,-0.342 -2.288,-0.096 -0.802,0.246 -1.578,0.24 -2.328,-0.019 -1.215,-0.337 -2.431,-0.531 -3.646,-0.582 -0.595,-0.025 -1.093,-0.278 -1.494,-0.756 -0.4,-0.48 -0.898,-0.59 -1.494,-0.331 -0.026,0.026 -0.051,0.052 -0.077,0.078 -0.413,-1.009 -0.646,-2.069 -0.699,-3.181 -0.129,-0.906 -0.271,-1.796 -0.425,-2.676 -0.053,-0.518 -0.221,-0.97 -0.504,-1.357 -0.725,0.309 -1.216,0.827 -1.474,1.551 -0.39,1.553 -0.544,3.142 -0.466,4.771 0.076,1.422 0.375,2.779 0.891,4.073 -0.026,1.37 0.363,2.613 1.164,3.724 0.466,1.24 0.828,2.521 1.086,3.84 0.621,1.085 1.307,2.122 2.057,3.102 0.335,1.063 0.866,2.058 1.59,2.987 0.723,1.01 1.358,2.096 1.901,3.26 C -1.746,7.667 -0.802,7.615 0.155,7.797 1.603,8.107 2.832,7.694 3.84,6.557 4.668,4.899 5.612,3.336 6.672,1.863 7.629,0.414 8.612,-1.021 9.619,-2.443 9.904,-3.582 10.292,-4.68 10.784,-5.74 10.137,-5.249 9.801,-5.43 9.775,-6.284 8.741,-6.413 8.417,-6.982 8.805,-7.99 c 0.027,-1.217 0.246,-2.367 0.66,-3.453 0.569,-1.06 1.074,-2.16 1.512,-3.297 0.026,-0.879 0.066,-1.718 0.118,-2.522 -0.544,-0.233 -0.893,-0.646 -1.049,-1.241"
           style="fill:#231f20;fill-opacity:1;fill-rule:nonzero;stroke:none"
           transform="matrix(1.3333333,0,0,-1.3333333,196.2396,286.1216)"
           clip-path="url(#clipPath13)"
           inkscape:label="path12" />
        <path
           id="path14"
           d="m 0,0 c -0.156,-0.259 -0.338,-0.464 -0.545,-0.62 h -1.744 -3.453 c -0.311,-0.077 -0.608,-0.104 -0.893,-0.077 -1.758,-0.181 -2.765,-1.139 -3.027,-2.87 -1.084,-1.294 -1.756,-2.743 -2.016,-4.345 -0.439,-1.759 -0.724,-3.529 -0.851,-5.315 v -4.306 c 0.103,-1.163 0.451,-2.237 1.045,-3.219 -0.077,-0.595 -0.27,-1.111 -0.58,-1.551 -0.338,0.258 -0.694,0.284 -1.069,0.076 -0.375,-0.207 -0.65,-0.089 -0.832,0.349 -0.984,0.776 -1.642,1.799 -1.978,3.065 -0.52,0.595 -0.571,1.32 -0.155,2.172 0.567,2.896 0.815,5.832 0.737,8.805 0,1.164 0.115,2.329 0.347,3.492 -0.025,0.259 0.026,0.518 0.157,0.777 0.05,0.258 0.117,0.528 0.193,0.815 -0.053,0.102 -0.076,0.218 -0.076,0.348 h -0.274 c -0.257,0.129 -0.502,0.271 -0.736,0.426 -0.156,-0.024 -0.297,-0.04 -0.426,-0.04 -1.681,0.596 -3.324,1.256 -4.928,1.981 -0.826,0.051 -1.628,0.259 -2.404,0.62 -1.76,0.129 -3.195,0.854 -4.306,2.172 -0.026,0.232 -0.053,0.465 -0.077,0.698 -0.336,0.258 -0.466,0.609 -0.388,1.048 0.361,0.387 0.763,0.749 1.203,1.087 1.008,0.801 2.185,1.162 3.529,1.084 1.758,0.156 3.543,0.182 5.354,0.078 1.422,0.181 2.869,0.194 4.343,0.039 1.243,-0.284 2.522,-0.375 3.84,-0.272 C -7.939,6.182 -5.857,5.896 -3.764,5.664 -2.16,5.742 -0.727,5.315 0.541,4.385 1.24,4.229 1.615,3.841 1.666,3.22 2.055,2.676 2.066,2.056 1.705,1.358 0.982,1.074 0.412,0.621 0,0"
           style="fill:#231f20;fill-opacity:1;fill-rule:nonzero;stroke:none"
           transform="matrix(1.3333333,0,0,-1.3333333,262.50453,283.15667)"
           clip-path="url(#clipPath15)"
           inkscape:label="path14" />
        <path
           id="path16"
           d="M 0,0 C -0.105,0.024 -0.195,0.064 -0.273,0.115 -0.688,1.331 -0.971,2.598 -1.125,3.917 -1.645,4.874 -2.109,4.821 -2.521,3.762 -3.453,3.038 -4.371,2.34 -5.277,1.668 -6.078,0.97 -6.842,0.245 -7.566,-0.505 c -1.395,-1.448 -2.676,-2.987 -3.838,-4.614 -1.139,-1.372 -1.825,-2.898 -2.057,-4.579 0,-0.233 0.025,-0.453 0.076,-0.658 0.621,-0.207 1.281,-0.324 1.981,-0.349 1.086,-0.105 2.158,0.011 3.218,0.349 0.543,-0.079 1.086,-0.157 1.629,-0.234 0.672,0.595 1.436,0.802 2.289,0.62 1.006,0.673 2.108,1.216 3.297,1.63 0.414,1.397 0.815,2.819 1.201,4.267 C -0.285,-2.729 -0.363,-1.37 0,0 m 2.287,-10.435 c -0.053,0.026 -0.09,0.051 -0.115,0.079 -0.287,-0.234 -0.531,-0.48 -0.738,-0.739 -0.905,-0.673 -1.823,-1.304 -2.754,-1.9 -0.44,-0.257 -0.725,-0.581 -0.854,-0.97 0.156,-0.154 0.336,-0.324 0.543,-0.504 -0.724,-0.853 -1.654,-1.294 -2.793,-1.318 -1.474,-0.337 -2.908,-0.726 -4.305,-1.165 -1.421,-0.207 -2.82,-0.142 -4.189,0.195 -0.982,0.387 -1.967,0.749 -2.947,1.086 -0.672,0.723 -1.399,1.397 -2.174,2.017 -0.906,1.008 -1.346,2.198 -1.318,3.568 0,2.69 0.515,5.301 1.55,7.836 1.061,2.432 2.354,4.758 3.879,6.982 1.088,1.499 2.174,3.012 3.26,4.539 0.076,1.318 0.672,2.172 1.783,2.56 0.75,-0.078 1.461,-0.298 2.135,-0.66 0.283,0.31 0.607,0.33 0.969,0.058 0.363,-0.272 0.736,-0.316 1.125,-0.135 0.26,-0.078 0.504,-0.026 0.736,0.154 1.525,-0.335 2.961,-0.93 4.307,-1.784 C 0.879,9.724 1.168,9.607 1.258,9.115 1.35,8.624 1.615,8.313 2.055,8.184 2.133,6.787 2.262,5.404 2.441,4.034 2.572,2.533 2.908,1.099 3.451,-0.271 3.479,-0.635 3.541,-0.97 3.645,-1.28 3.826,-1.9 3.787,-2.562 3.529,-3.26 3.605,-3.828 3.619,-4.396 3.566,-4.966 2.947,-6.232 3.076,-7.436 3.955,-8.573 3.076,-8.883 2.52,-9.504 2.287,-10.435"
           style="fill:#231f20;fill-opacity:1;fill-rule:nonzero;stroke:none"
           transform="matrix(1.3333333,0,0,-1.3333333,301.1556,290.12027)"
           clip-path="url(#clipPath17)"
           inkscape:label="path16" />
      </g>
    </g>
  </g>
</svg>
