<?xml version="1.0" encoding="UTF-8" standalone="no"?>
<!-- Created with Inkscape (http://www.inkscape.org/) -->

<svg
   version="1.1"
   id="svg1"
   width="854.50531"
   height="528.38934"
   viewBox="0 0 854.50531 528.38934"
   sodipodi:docname="13097882.svg"
   inkscape:version="1.4 (86a8ad7, 2024-10-11)"
   xmlns:inkscape="http://www.inkscape.org/namespaces/inkscape"
   xmlns:sodipodi="http://sodipodi.sourceforge.net/DTD/sodipodi-0.dtd"
   xmlns="http://www.w3.org/2000/svg"
   xmlns:svg="http://www.w3.org/2000/svg">
  <defs
     id="defs1">
    <clipPath
       clipPathUnits="userSpaceOnUse"
       id="clipPath3">
      <path
         d="M 0,396.292 H 640.879 V 0 H 0 Z"
         transform="translate(-610.38572,-266.0366)"
         id="path3" />
    </clipPath>
    <clipPath
       clipPathUnits="userSpaceOnUse"
       id="clipPath5">
      <path
         d="M 0,396.292 H 640.879 V 0 H 0 Z"
         transform="translate(-542.54201,-329.81591)"
         id="path5" />
    </clipPath>
    <clipPath
       clipPathUnits="userSpaceOnUse"
       id="clipPath7">
      <path
         d="M 0,396.292 H 640.879 V 0 H 0 Z"
         transform="translate(-412.99901,-393.37651)"
         id="path7" />
    </clipPath>
    <clipPath
       clipPathUnits="userSpaceOnUse"
       id="clipPath9">
      <path
         d="M 0,396.292 H 640.879 V 0 H 0 Z"
         transform="translate(-444.43071,-329.96731)"
         id="path9" />
    </clipPath>
    <clipPath
       clipPathUnits="userSpaceOnUse"
       id="clipPath11">
      <path
         d="M 0,396.292 H 640.879 V 0 H 0 Z"
         transform="translate(-310.99901,-393.37651)"
         id="path11" />
    </clipPath>
    <clipPath
       clipPathUnits="userSpaceOnUse"
       id="clipPath13">
      <path
         d="M 0,396.292 H 640.879 V 0 H 0 Z"
         transform="translate(-342.43071,-329.96731)"
         id="path13" />
    </clipPath>
    <clipPath
       clipPathUnits="userSpaceOnUse"
       id="clipPath15">
      <path
         d="M 0,396.292 H 640.879 V 0 H 0 Z"
         transform="translate(-104.1025,-395.17091)"
         id="path15" />
    </clipPath>
    <clipPath
       clipPathUnits="userSpaceOnUse"
       id="clipPath17">
      <path
         d="M 0,396.292 H 640.879 V 0 H 0 Z"
         transform="translate(-56.839801,-328.96481)"
         id="path17" />
    </clipPath>
    <clipPath
       clipPathUnits="userSpaceOnUse"
       id="clipPath19">
      <path
         d="M 0,396.292 H 640.879 V 0 H 0 Z"
         transform="translate(-206.56251,-396.29201)"
         id="path19" />
    </clipPath>
    <clipPath
       clipPathUnits="userSpaceOnUse"
       id="clipPath21">
      <path
         d="M 0,396.292 H 640.879 V 0 H 0 Z"
         transform="translate(-241.3711,-329.94631)"
         id="path21" />
    </clipPath>
    <clipPath
       clipPathUnits="userSpaceOnUse"
       id="clipPath23">
      <path
         d="M 0,396.292 H 640.879 V 0 H 0 Z"
         transform="translate(-609.06542,-150.39061)"
         id="path23" />
    </clipPath>
    <clipPath
       clipPathUnits="userSpaceOnUse"
       id="clipPath25">
      <path
         d="M 0,396.292 H 640.879 V 0 H 0 Z"
         transform="translate(-542.54201,-83.815902)"
         id="path25" />
    </clipPath>
    <clipPath
       clipPathUnits="userSpaceOnUse"
       id="clipPath27">
      <path
         d="M 0,396.292 H 640.879 V 0 H 0 Z"
         transform="translate(-466.80371,-150.38671)"
         id="path27" />
    </clipPath>
    <clipPath
       clipPathUnits="userSpaceOnUse"
       id="clipPath29">
      <path
         d="M 0,396.292 H 640.879 V 0 H 0 Z"
         transform="translate(-444.43071,-83.967305)"
         id="path29" />
    </clipPath>
    <clipPath
       clipPathUnits="userSpaceOnUse"
       id="clipPath31">
      <path
         d="M 0,396.292 H 640.879 V 0 H 0 Z"
         transform="translate(-364.80371,-150.38671)"
         id="path31" />
    </clipPath>
    <clipPath
       clipPathUnits="userSpaceOnUse"
       id="clipPath33">
      <path
         d="M 0,396.292 H 640.879 V 0 H 0 Z"
         transform="translate(-342.43071,-83.967305)"
         id="path33" />
    </clipPath>
    <clipPath
       clipPathUnits="userSpaceOnUse"
       id="clipPath35">
      <path
         d="M 0,396.292 H 640.879 V 0 H 0 Z"
         transform="translate(-143.5488,-152.69971)"
         id="path35" />
    </clipPath>
    <clipPath
       clipPathUnits="userSpaceOnUse"
       id="clipPath37">
      <path
         d="M 0,396.292 H 640.879 V 0 H 0 Z"
         transform="translate(-56.839801,-82.964802)"
         id="path37" />
    </clipPath>
    <clipPath
       clipPathUnits="userSpaceOnUse"
       id="clipPath39">
      <path
         d="M 0,396.292 H 640.879 V 0 H 0 Z"
         transform="translate(-263.5039,-153.1265)"
         id="path39" />
    </clipPath>
    <clipPath
       clipPathUnits="userSpaceOnUse"
       id="clipPath41">
      <path
         d="M 0,396.292 H 640.879 V 0 H 0 Z"
         transform="translate(-241.3711,-83.946305)"
         id="path41" />
    </clipPath>
    <clipPath
       clipPathUnits="userSpaceOnUse"
       id="clipPath43">
      <path
         d="M 0,396.292 H 640.879 V 0 H 0 Z"
         transform="translate(-0.12500001,-0.1260025)"
         id="path43" />
    </clipPath>
  </defs>
  <sodipodi:namedview
     id="namedview1"
     pagecolor="#ffffff"
     bordercolor="#000000"
     borderopacity="0.25"
     inkscape:showpageshadow="2"
     inkscape:pageopacity="0.0"
     inkscape:pagecheckerboard="0"
     inkscape:deskcolor="#d1d1d1"
     inkscape:zoom="1.6749013"
     inkscape:cx="374.64894"
     inkscape:cy="264.19467"
     inkscape:window-width="1920"
     inkscape:window-height="1009"
     inkscape:window-x="-8"
     inkscape:window-y="-8"
     inkscape:window-maximized="1"
     inkscape:current-layer="g1">
    <inkscape:page
       x="0"
       y="0"
       inkscape:label="1"
       id="page1"
       width="854.50531"
       height="528.38934"
       margin="0"
       bleed="0" />
  </sodipodi:namedview>
  <g
     id="g1"
     inkscape:groupmode="layer"
     inkscape:label="1">
    <g
       id="group-MC0"
       transform="translate(-6.6678696e-6,48.361059)">
      <path
         id="path4"
         d="m 0,0 c 0,2.348 -1.904,4.252 -4.252,4.252 -2.35,0 -4.252,-1.904 -4.252,-4.252 0,-2.348 1.902,-4.252 4.252,-4.252 C -1.904,-4.252 0,-2.348 0,0"
         style="fill:#ffffff;fill-opacity:1;fill-rule:nonzero;stroke:none"
         transform="matrix(1.3333333,0,0,-1.3333333,723.38933,88.6348)"
         clip-path="url(#clipPath5)" />
      <path
         id="path8"
         d="m 0,0 c 0,2.349 -1.904,4.252 -4.252,4.252 -2.348,0 -4.25,-1.903 -4.25,-4.252 0,-2.349 1.902,-4.252 4.25,-4.252 C -1.904,-4.252 0,-2.349 0,0"
         style="fill:#ffffff;fill-opacity:1;fill-rule:nonzero;stroke:none"
         transform="matrix(1.3333333,0,0,-1.3333333,592.57427,88.432933)"
         clip-path="url(#clipPath9)"
         inkscape:label="path8" />
      <path
         id="path12"
         d="m 0,0 c 0,2.349 -1.904,4.252 -4.252,4.252 -2.348,0 -4.25,-1.903 -4.25,-4.252 0,-2.349 1.902,-4.252 4.25,-4.252 C -1.904,-4.252 0,-2.349 0,0"
         style="fill:#ffffff;fill-opacity:1;fill-rule:nonzero;stroke:none"
         transform="matrix(1.3333333,0,0,-1.3333333,456.57427,88.432933)"
         clip-path="url(#clipPath13)" />
      <path
         id="path16"
         d="m 0,0 c 0,2.349 -1.905,4.252 -4.253,4.252 -2.35,0 -4.252,-1.903 -4.252,-4.252 0,-2.349 1.902,-4.252 4.252,-4.252 C -1.905,-4.252 0,-2.349 0,0"
         style="fill:#ffffff;fill-opacity:1;fill-rule:nonzero;stroke:none"
         transform="matrix(1.3333333,0,0,-1.3333333,75.7864,89.7696)"
         clip-path="url(#clipPath17)" />
      <g
         id="g3">
        <path
           id="path2"
           d="m 0,0 h -0.164 -98.01 -0.329 v 0.174 7.992 0.348 h 0.329 c 2.75,-0.233 5.5,-0.059 8.255,0.521 0.329,0 0.712,0.059 1.153,0.174 0.768,0.23 1.485,0.635 2.145,1.217 0.33,0 0.605,0.23 0.827,0.693 0.108,0.231 0.329,0.465 0.659,0.695 0.11,0.579 0.274,1.215 0.494,1.911 0.11,0.695 0.276,1.505 0.496,2.433 0.219,3.242 0.385,6.543 0.497,9.901 v 74.879 c 0,3.589 -0.221,7.181 -0.661,10.773 -0.11,0.576 -0.183,1.164 -0.332,1.736 -0.638,2.452 -1.612,3.465 -2.285,3.743 -0.551,0.23 -1.072,0.368 -1.51,0.602 -3.3,0.692 -6.546,1.042 -9.738,1.042 h -0.329 v 0.346 8.164 0.176 h 0.329 96.854 0.166 v -0.176 C -0.824,113.445 -0.441,99.548 0,85.649 v -0.52 h -0.164 -6.107 c -0.112,0 -0.165,0.115 -0.165,0.348 -1.757,9.265 -5.054,17.894 -9.888,25.886 -4.506,5.096 -10.059,7.586 -16.658,7.471 -4.18,0 -8.362,0.057 -12.543,0.173 -2.641,0 -5.227,-0.175 -7.756,-0.523 -0.881,-0.115 -1.651,-0.231 -2.311,-0.346 -0.441,-0.117 -0.824,-0.232 -1.156,-0.346 -0.33,-0.234 -0.606,-0.406 -0.824,-0.522 -0.221,-0.118 -0.387,-0.233 -0.496,-0.348 -0.33,-0.234 -0.551,-0.465 -0.661,-0.696 -0.33,-0.58 -0.55,-1.158 -0.66,-1.738 -0.55,-1.389 -0.716,-2.722 -0.496,-3.994 V 70.535 h 11.555 c 0.881,-0.116 1.76,-0.057 2.641,0.175 0.548,0.116 1.154,0.288 1.816,0.521 1.1,0.347 2.199,0.925 3.301,1.737 0.549,0.578 1.154,1.158 1.814,1.735 0.44,0.696 0.99,1.392 1.651,2.086 0.66,1.16 1.32,2.373 1.982,3.649 0.439,1.39 0.988,2.78 1.648,4.169 0.879,3.706 1.596,7.469 2.147,11.292 v 0.349 h 0.33 5.775 0.33 v -0.174 -60.98 -0.346 h -0.33 -5.775 -0.33 v 0.346 c -0.551,4.517 -1.377,8.978 -2.475,13.378 -0.33,0.695 -0.607,1.504 -0.826,2.432 -0.551,1.156 -1.156,2.375 -1.816,3.65 -0.66,0.924 -1.321,1.852 -1.981,2.776 -0.33,0.347 -0.607,0.697 -0.825,1.043 -0.222,0.231 -0.442,0.464 -0.661,0.697 -0.548,0.463 -1.1,0.867 -1.649,1.217 -0.66,0.459 -1.32,0.75 -1.98,0.869 -1.982,0.461 -3.906,0.693 -5.777,0.693 -3.52,0 -7.043,0.059 -10.565,0.173 V 18.938 c -0.111,-2.086 0.11,-4.055 0.662,-5.907 -0.111,-0.347 -0.056,-0.58 0.164,-0.695 0.11,-0.58 0.385,-1.102 0.827,-1.565 0.109,-0.347 0.33,-0.521 0.66,-0.521 0.11,-0.23 0.33,-0.406 0.66,-0.521 0.33,-0.348 0.769,-0.52 1.32,-0.52 2.971,-0.813 5.996,-1.102 9.076,-0.869 4.621,0 9.297,0.056 14.03,0.174 7.367,-0.348 13.029,2.779 16.986,9.381 3.846,6.601 8.898,21.195 8.898,21.195 l 1.155,4.345 c 0,0 0.66,2.604 0.99,3.996 v 0.346 h 0.33 c 1.872,0 3.852,0.055 5.941,0.174 h 0.331 v -0.52 C 1.43,31.678 0.715,15.926 0,0.174 Z"
           style="fill:#000000;fill-opacity:1;fill-rule:nonzero;stroke:none"
           transform="matrix(1.3333333,0,0,-1.3333333,813.8476,173.67387)"
           clip-path="url(#clipPath3)"
           inkscape:label="path2" />
        <path
           id="path6"
           d="m 0,0 v 0.176 h 0.33 53.475 0.329 V 0 -7.817 -8.166 c -0.111,-0.114 -0.222,-0.172 -0.329,-0.172 -0.33,0 -0.606,-0.058 -0.825,-0.174 h -0.66 -1.324 c -0.33,-0.117 -0.549,-0.175 -0.66,-0.175 h -0.822 -1.485 -1.158 c -0.66,-0.231 -1.318,-0.345 -1.978,-0.345 -0.661,-0.118 -1.27,-0.29 -1.817,-0.522 -0.221,-0.118 -0.442,-0.233 -0.662,-0.348 -0.439,-0.348 -0.826,-0.639 -1.152,-0.869 -0.223,-0.348 -0.442,-0.638 -0.66,-0.87 v -0.344 c -0.331,-0.698 -0.552,-1.392 -0.661,-2.085 -0.22,-0.928 -0.384,-1.854 -0.494,-2.782 -0.115,-3.242 -0.166,-6.486 -0.166,-9.728 v -74.525 c -0.113,-3.593 0.051,-7.125 0.496,-10.598 0,-0.696 0.164,-1.334 0.494,-1.912 0.108,-0.928 0.385,-1.739 0.827,-2.434 0.107,-0.347 0.273,-0.636 0.493,-0.867 0.327,-0.231 0.657,-0.404 0.989,-0.52 0.332,-0.348 0.772,-0.581 1.322,-0.695 0.549,-0.117 1.155,-0.234 1.816,-0.349 2.639,-0.463 5.335,-0.637 8.087,-0.522 h 0.329 v -0.346 -7.818 -0.174 H 53.805 0.33 0 v 0.174 7.991 0.349 h 0.33 c 2.75,-0.233 5.557,-0.06 8.416,0.52 0.332,0.117 0.772,0.175 1.322,0.175 0.661,0.23 1.373,0.577 2.145,1.041 0.111,0.231 0.33,0.463 0.66,0.696 0.22,0.23 0.441,0.519 0.662,0.868 0.11,0.579 0.274,1.214 0.494,1.911 0.11,0.693 0.276,1.447 0.494,2.26 0.331,3.242 0.497,6.599 0.497,10.074 v 75.049 c -0.112,3.127 -0.225,6.253 -0.332,9.38 -0.112,0.695 -0.222,1.449 -0.331,2.259 -0.111,0.462 -0.275,0.984 -0.492,1.565 -0.113,0.461 -0.22,0.924 -0.33,1.387 -0.113,0 -0.166,0.059 -0.166,0.176 -0.332,0.346 -0.662,0.694 -0.992,1.041 -0.439,0.232 -0.881,0.522 -1.318,0.87 -0.223,0 -0.33,0.058 -0.33,0.173 C 9.955,-9.15 9.242,-9.032 8.58,-9.032 7.703,-8.918 6.875,-8.803 6.107,-8.687 H 4.787 3.959 c -0.33,0 -0.549,0.058 -0.659,0.175 H 1.814 0.33 0 v 0.346 0.349 z"
           style="fill:#000000;fill-opacity:1;fill-rule:nonzero;stroke:none"
           transform="matrix(1.3333333,0,0,-1.3333333,550.66533,3.8873333)"
           clip-path="url(#clipPath7)"
           inkscape:label="path6" />
        <path
           id="path10"
           d="m 0,0 v 0.176 h 0.33 53.475 0.329 V 0 -7.817 -8.166 c -0.111,-0.114 -0.222,-0.172 -0.329,-0.172 -0.33,0 -0.606,-0.058 -0.825,-0.174 h -0.66 -1.324 c -0.33,-0.117 -0.549,-0.175 -0.66,-0.175 h -0.822 -1.485 -1.158 c -0.66,-0.231 -1.318,-0.345 -1.978,-0.345 -0.661,-0.118 -1.27,-0.29 -1.817,-0.522 -0.221,-0.118 -0.442,-0.233 -0.662,-0.348 -0.439,-0.348 -0.826,-0.639 -1.152,-0.869 -0.223,-0.348 -0.442,-0.638 -0.66,-0.87 v -0.344 c -0.331,-0.698 -0.552,-1.392 -0.661,-2.085 -0.22,-0.928 -0.384,-1.854 -0.494,-2.782 -0.115,-3.242 -0.166,-6.486 -0.166,-9.728 v -74.525 c -0.113,-3.593 0.051,-7.125 0.496,-10.598 0,-0.696 0.164,-1.334 0.494,-1.912 0.108,-0.928 0.385,-1.739 0.827,-2.434 0.107,-0.347 0.273,-0.636 0.493,-0.867 0.327,-0.231 0.657,-0.404 0.989,-0.52 0.332,-0.348 0.772,-0.581 1.322,-0.695 0.549,-0.117 1.155,-0.234 1.816,-0.349 2.639,-0.463 5.335,-0.637 8.087,-0.522 h 0.329 v -0.346 -7.818 -0.174 H 53.805 0.33 0 v 0.174 7.991 0.349 h 0.33 c 2.75,-0.233 5.557,-0.06 8.416,0.52 0.332,0.117 0.772,0.175 1.322,0.175 0.661,0.23 1.373,0.577 2.145,1.041 0.111,0.231 0.33,0.463 0.66,0.696 0.22,0.23 0.441,0.519 0.662,0.868 0.11,0.579 0.274,1.214 0.494,1.911 0.11,0.693 0.276,1.447 0.494,2.26 0.331,3.242 0.497,6.599 0.497,10.074 v 75.049 c -0.112,3.127 -0.225,6.253 -0.332,9.38 -0.112,0.695 -0.222,1.449 -0.331,2.259 -0.111,0.462 -0.275,0.984 -0.492,1.565 -0.113,0.461 -0.22,0.924 -0.33,1.387 -0.113,0 -0.166,0.059 -0.166,0.176 -0.332,0.346 -0.662,0.694 -0.992,1.041 -0.439,0.232 -0.881,0.522 -1.318,0.87 -0.223,0 -0.33,0.058 -0.33,0.173 C 9.955,-9.15 9.242,-9.032 8.58,-9.032 7.703,-8.918 6.875,-8.803 6.107,-8.687 H 4.787 3.959 c -0.33,0 -0.549,0.058 -0.659,0.175 H 1.814 0.33 0 v 0.346 0.349 z"
           style="fill:#000000;fill-opacity:1;fill-rule:nonzero;stroke:none"
           transform="matrix(1.3333333,0,0,-1.3333333,414.66533,3.8873333)"
           clip-path="url(#clipPath11)"
           inkscape:label="path10" />
        <path
           id="path14"
           d="m 0,0 v 0.694 h 0.332 39.114 0.658 V 0 -7.817 c -6.161,-0.698 -10.122,-3.794 -11.881,-9.295 -1.762,-5.502 -2.586,-10.916 -2.475,-16.243 v -47.43 c 0.549,-10.539 -1.156,-20.502 -5.117,-29.881 -8.803,-13.205 -21.016,-19.342 -36.641,-18.416 -8.144,-0.114 -15.898,1.217 -23.269,3.996 -8.803,3.358 -14.965,9.44 -18.487,18.242 -3.519,8.801 -4.841,17.893 -3.961,27.277 v 53.335 c 1.653,11.812 -3.025,17.777 -14.027,17.892 V -8.164 0 0.694 h 51.825 0.491 V 0 -7.817 c -10.56,-0.812 -15.458,-7.066 -14.685,-18.765 v -48.123 c -0.113,-9.033 0.963,-18.125 3.219,-27.275 2.252,-9.151 7.947,-15.289 17.082,-18.415 7.918,-2.547 15.291,-1.043 22.113,4.516 8.031,8.688 11.721,19.17 11.057,31.445 v 50.383 c 0.332,5.674 -0.604,11.322 -2.805,16.939 C 10.344,-11.496 6.162,-8.396 0,-7.817 Z"
           style="fill:#000000;fill-opacity:1;fill-rule:nonzero;stroke:none"
           transform="matrix(1.3333333,0,0,-1.3333333,138.80333,1.4948)"
           clip-path="url(#clipPath15)"
           inkscape:label="path14" />
        <path
           id="path18"
           d="m 0,0 h 0.33 56.611 0.33 v -0.349 -7.815 -0.523 h -0.33 -2.148 c -2.311,-0.114 -4.564,-0.346 -6.766,-0.694 -0.33,-0.233 -0.607,-0.348 -0.822,-0.348 -0.662,-0.347 -1.269,-0.695 -1.818,-1.043 -0.44,-0.232 -0.658,-0.521 -0.658,-0.87 -0.223,-0.231 -0.389,-0.462 -0.497,-0.692 -0.33,-0.696 -0.55,-1.332 -0.66,-1.912 -0.113,-0.926 -0.22,-1.795 -0.33,-2.607 -0.443,-3.358 -0.607,-6.718 -0.496,-10.076 v -55.245 c -0.111,-1.509 -0.164,-2.955 -0.164,-4.345 -0.111,-3.127 -0.441,-6.137 -0.992,-9.035 -0.549,-2.78 -1.211,-5.442 -1.981,-7.989 -1.982,-5.906 -5.17,-10.888 -9.57,-14.942 -0.881,-0.811 -1.762,-1.62 -2.643,-2.431 -3.63,-2.666 -7.425,-4.75 -11.386,-6.254 -0.551,-0.233 -1.102,-0.406 -1.651,-0.522 -2.529,-0.927 -5.005,-1.505 -7.427,-1.737 -2.641,-0.579 -5.282,-0.811 -7.922,-0.696 h -1.156 c -2.53,0 -5.006,0.233 -7.426,0.696 -2.201,0.349 -4.291,0.927 -6.274,1.737 -4.402,1.159 -8.217,3.414 -11.443,6.776 -3.301,2.894 -5.668,6.485 -7.096,10.77 -0.443,0.697 -0.771,1.504 -0.99,2.433 -0.551,1.737 -0.938,3.59 -1.156,5.558 -0.219,1.854 -0.328,3.825 -0.328,5.909 -0.112,3.472 0.275,6.89 1.152,10.25 0.111,0.345 0.221,0.752 0.332,1.216 0.33,1.159 0.77,2.374 1.32,3.649 0.879,2.084 2.145,3.993 3.797,5.732 0.549,0.578 1.154,1.157 1.815,1.739 1.218,1.041 2.611,1.793 4.183,2.257 0.77,0.116 1.539,0.288 2.307,0.52 0.662,0.114 1.432,0.176 2.312,0.176 h 1.815 c 0.66,-0.233 1.375,-0.408 2.146,-0.524 1.098,-0.347 2.145,-0.81 3.137,-1.388 1.209,-0.812 2.309,-1.795 3.297,-2.953 0.223,-0.463 0.553,-0.811 0.994,-1.043 0.99,-1.624 1.814,-3.361 2.477,-5.211 0.109,-1.043 0.273,-2.03 0.494,-2.954 0.111,-1.042 0.166,-2.028 0.166,-2.953 v -0.871 c -0.112,-1.042 -0.221,-2.025 -0.33,-2.954 -0.221,-1.505 -0.608,-2.895 -1.157,-4.168 -0.88,-2.086 -2.089,-3.764 -3.63,-5.039 -1.321,-1.274 -2.809,-2.143 -4.457,-2.604 -0.772,-0.348 -1.457,-0.523 -2.19,-0.627 -0.736,-0.107 -0.906,-0.18 -2.148,-0.174 -1.244,0.006 -2.565,0.098 -4.227,0.642 -1.666,0.545 -3.277,1.914 -3.617,1.72 -0.822,-0.47 -0.91,-3.138 -0.195,-5.211 0.714,-2.071 2.293,-5.673 4.619,-7.643 1.431,-1.623 3.082,-2.953 4.951,-3.996 2.642,-1.855 5.558,-3.012 8.748,-3.475 0.99,-0.232 2.035,-0.289 3.137,-0.173 7.81,-0.466 13.972,2.66 18.484,9.382 0,0.114 0.109,0.286 0.332,0.519 0.877,1.506 1.592,3.127 2.145,4.866 0.771,1.735 1.375,3.592 1.816,5.56 0.988,4.283 1.484,8.742 1.484,13.375 v 62.024 c 0,3.011 -0.222,6.08 -0.66,9.207 -0.22,0.927 -0.385,1.852 -0.494,2.779 -0.221,0.346 -0.387,0.811 -0.496,1.391 -0.221,0.345 -0.441,0.752 -0.662,1.214 -0.44,0.345 -0.822,0.752 -1.154,1.217 -0.77,0.348 -1.541,0.751 -2.311,1.216 h -0.164 c -0.994,0.116 -1.875,0.289 -2.641,0.523 -1.103,0.115 -2.201,0.173 -3.3,0.173 -2.202,0 -4.35,0.059 -6.438,0.173 H 0 v 0.523 7.815 z"
           style="fill:#000000;fill-opacity:1;fill-rule:nonzero;stroke:none"
           transform="matrix(1.3333333,0,0,-1.3333333,275.41667,0)"
           clip-path="url(#clipPath19)"
           inkscape:label="path18" />
      </g>
      <path
         id="path20"
         d="M 0,0 C 0,2.349 -1.904,4.252 -4.252,4.252 -6.6,4.252 -8.504,2.349 -8.504,0 c 0,-2.349 1.904,-4.252 4.252,-4.252 C -1.904,-4.252 0,-2.349 0,0"
         style="fill:#ffffff;fill-opacity:1;fill-rule:nonzero;stroke:none"
         transform="matrix(1.3333333,0,0,-1.3333333,321.82813,88.460933)"
         clip-path="url(#clipPath21)" />
      <path
         id="path24"
         d="m 0,0 c 0,2.348 -1.904,4.252 -4.252,4.252 -2.35,0 -4.252,-1.904 -4.252,-4.252 0,-2.348 1.902,-4.252 4.252,-4.252 C -1.904,-4.252 0,-2.348 0,0 Z"
         style="fill:none;stroke:#000000;stroke-width:0.25;stroke-linecap:butt;stroke-linejoin:miter;stroke-miterlimit:4;stroke-dasharray:none;stroke-opacity:1"
         transform="matrix(1.3333333,0,0,-1.3333333,723.38933,416.6348)"
         clip-path="url(#clipPath25)" />
      <path
         id="path28"
         d="m 0,0 c 0,2.349 -1.904,4.252 -4.252,4.252 -2.348,0 -4.25,-1.903 -4.25,-4.252 0,-2.349 1.902,-4.252 4.25,-4.252 C -1.904,-4.252 0,-2.349 0,0 Z"
         style="fill:none;stroke:#000000;stroke-width:0.25;stroke-linecap:butt;stroke-linejoin:miter;stroke-miterlimit:4;stroke-dasharray:none;stroke-opacity:1"
         transform="matrix(1.3333333,0,0,-1.3333333,592.57427,416.43293)"
         clip-path="url(#clipPath29)" />
      <path
         id="path32"
         d="m 0,0 c 0,2.349 -1.904,4.252 -4.252,4.252 -2.348,0 -4.25,-1.903 -4.25,-4.252 0,-2.349 1.902,-4.252 4.25,-4.252 C -1.904,-4.252 0,-2.349 0,0 Z"
         style="fill:none;stroke:#000000;stroke-width:0.25;stroke-linecap:butt;stroke-linejoin:miter;stroke-miterlimit:4;stroke-dasharray:none;stroke-opacity:1"
         transform="matrix(1.3333333,0,0,-1.3333333,456.57427,416.43293)"
         clip-path="url(#clipPath33)" />
      <path
         id="path36"
         d="m 0,0 c 0,2.349 -1.905,4.252 -4.253,4.252 -2.35,0 -4.252,-1.903 -4.252,-4.252 0,-2.349 1.902,-4.252 4.252,-4.252 C -1.905,-4.252 0,-2.349 0,0 Z"
         style="fill:none;stroke:#000000;stroke-width:0.25;stroke-linecap:butt;stroke-linejoin:miter;stroke-miterlimit:4;stroke-dasharray:none;stroke-opacity:1"
         transform="matrix(1.3333333,0,0,-1.3333333,75.7864,417.7696)"
         clip-path="url(#clipPath37)" />
      <g
         id="g2">
        <path
           id="path22"
           d="m 0,0 h -97.183 c -1.566,0 -2.836,-1.269 -2.836,-2.834 v -8.686 c 0,-1.565 1.27,-2.834 2.836,-2.834 h 0.329 c 2.917,0 5.942,-0.328 8.991,-0.956 0.334,-0.141 0.671,-0.283 0.671,-0.283 0,0 0.175,-0.066 0.321,-0.121 0.122,-0.144 0.476,-0.636 0.808,-1.907 0,-0.001 0.174,-0.899 0.174,-0.899 0,0 0.06,-0.333 0.091,-0.512 0.421,-3.452 0.635,-6.946 0.635,-10.385 v -74.878 c 0,0.06 -0.44,-8.72 -0.482,-9.553 -0.09,-0.447 -0.389,-1.916 -0.442,-2.173 -0.05,-0.196 -0.129,-0.5 -0.255,-0.99 -0.143,-0.158 -0.242,-0.334 -0.356,-0.504 -0.161,-0.093 -0.336,-0.162 -0.478,-0.287 -0.346,-0.306 -0.699,-0.508 -1.075,-0.623 -0.036,-0.001 -0.348,-0.059 -0.348,-0.059 -0.022,-0.004 -0.564,-0.057 -0.584,-0.061 -2.471,-0.52 -4.971,-0.679 -7.432,-0.471 -0.079,0.007 -0.158,0.01 -0.239,0.01 h -0.329 c -1.566,0 -2.836,-1.269 -2.836,-2.834 v -8.514 c 0,-1.565 1.27,-2.834 2.836,-2.834 H 1.32 c 1.566,0 2.835,1.269 2.835,2.834 v 0.109 c 0.006,0.129 2.142,47.193 2.142,47.193 0.002,0.043 0.003,0.086 0.003,0.129 v 0.52 c 0,1.566 -1.27,2.835 -2.835,2.835 h -0.33 c -0.027,0 -5.942,-0.174 -5.942,-0.174 h -0.33 c -1.565,0 -2.835,-1.269 -2.835,-2.835 l -0.903,-3.646 c 0,0 -1.065,-4.009 -1.118,-4.209 -0.344,-0.985 -5.091,-14.515 -8.636,-20.601 -3.39,-5.654 -8.106,-8.273 -14.403,-7.976 -0.057,0.003 -0.148,0.003 -0.204,0.003 l -13.959,-0.174 c -0.06,0 -0.154,-0.003 -0.213,-0.008 -2.744,-0.207 -5.475,0.054 -8.115,0.777 -0.173,0.047 -0.352,0.057 -0.53,0.071 -0.03,0.02 -0.059,0.039 -0.089,0.058 0.013,-0.013 0.024,-0.037 0.038,-0.051 -0.031,0.002 -0.06,0.011 -0.09,0.012 -0.05,0.057 -0.096,0.116 -0.15,0.169 -0.112,0.057 -0.194,0.161 -0.313,0.203 0.086,-0.03 0.194,-0.117 0.297,-0.185 -0.161,0.154 -0.277,0.34 -0.468,0.452 -0.015,0.016 -0.018,0.04 -0.032,0.056 -0.038,0.04 -0.085,0.095 -0.093,0.133 -0.021,0.114 -0.101,0.201 -0.135,0.31 -0.011,0.225 -0.033,0.452 -0.099,0.671 -0.379,1.273 -0.571,2.637 -0.571,4.067 0,0.29 0.008,0.583 0.025,0.878 0.002,0.05 0.004,0.1 0.004,0.15 v 40.204 c 3.079,-0.051 7.729,-0.127 7.729,-0.127 1.642,0 3.369,-0.208 5.136,-0.619 0.046,-0.01 0.092,-0.02 0.138,-0.028 0.247,-0.045 0.547,-0.186 0.866,-0.408 0.083,-0.055 1.146,-0.839 1.357,-0.996 0.187,-0.196 0.518,-0.546 0.518,-0.546 -0.059,0.062 -0.291,0.374 -0.344,0.44 l 1.169,-1.482 c -0.028,0.036 -0.228,0.27 -0.254,0.307 0,0 1.654,-2.318 1.851,-2.594 0.145,-0.292 1.642,-3.299 1.675,-3.367 0.24,-0.881 0.498,-1.739 0.843,-2.465 -0.081,0.17 -0.144,0.347 -0.189,0.53 1.055,-4.231 1.856,-8.57 2.389,-12.899 v -0.139 c 0,-1.565 1.27,-2.834 2.835,-2.834 h 6.436 c 1.565,0 2.835,1.269 2.835,2.834 v 61.5 c 0,1.565 -1.27,2.835 -2.835,2.835 h -6.436 c -1.565,0 -2.835,-1.27 -2.835,-2.835 v -0.118 c -0.524,-3.604 -1.21,-7.213 -2.041,-10.734 -0.564,-1.229 -1.057,-2.471 -1.465,-3.709 -0.058,-0.106 -1.739,-3.199 -1.843,-3.392 -0.478,-0.535 -0.904,-1.075 -1.278,-1.619 -0.238,-0.228 -1.167,-1.116 -1.548,-1.481 -0.813,-0.588 -1.616,-1.018 -2.385,-1.26 -0.09,-0.03 -1.551,-0.452 -1.551,-0.452 0.021,0.006 -0.157,-0.038 -0.137,-0.032 -0.525,-0.139 -1.031,-0.174 -1.546,-0.106 -0.123,0.017 -0.247,0.025 -0.371,0.025 h -8.719 v 37.124 c 0,0.163 -0.015,0.325 -0.042,0.485 -0.036,0.204 -0.054,0.411 -0.054,0.624 0,0.573 0.13,1.181 0.392,1.84 0.066,0.168 0.117,0.342 0.15,0.52 0.044,0.232 0.157,0.489 0.296,0.753 0.02,0.018 0.028,0.023 0.049,0.042 0.026,0.015 0.371,0.232 0.683,0.429 0.232,0.068 0.477,0.141 0.597,0.177 0.223,0.033 2.065,0.31 2.065,0.31 2.412,0.331 4.892,0.498 7.388,0.498 l 12.543,-0.172 c 5.757,0.1 10.44,-1.997 14.375,-6.364 4.554,-7.597 7.72,-15.898 9.387,-24.688 -0.033,0.175 -0.05,0.351 -0.05,0.529 0,-2.067 1.545,-3.183 2.999,-3.183 H 1.32 c 1.566,0 2.835,1.269 2.835,2.835 v 0.52 C 4.153,-44.615 3,-2.943 3,-2.943 3,-1.377 1.731,0 0.166,0 Z"
           style="fill:none;stroke:#000000;stroke-width:0.25;stroke-linecap:butt;stroke-linejoin:miter;stroke-miterlimit:4;stroke-dasharray:none;stroke-opacity:1"
           transform="matrix(1.3333333,0,0,-1.3333333,812.0872,327.86853)"
           clip-path="url(#clipPath23)"
           inkscape:label="path22" />
        <path
           id="path26"
           d="m 0,0 h -53.805 c -1.565,0 -2.835,-1.269 -2.835,-2.834 v -8.688 c 0,-1.565 1.27,-2.834 2.835,-2.834 h 2.95 c 0.325,-0.078 0.635,-0.175 1.009,-0.175 h 1.952 c 0.378,-0.053 2.303,-0.323 2.303,-0.323 0.13,-0.018 0.236,-0.023 0.366,-0.023 0.279,0 0.638,-0.087 0.996,-0.171 0.097,-0.049 0.201,-0.083 0.308,-0.122 0.277,-0.183 0.356,-0.235 0.623,-0.411 0.135,-0.141 0.238,-0.25 0.447,-0.468 0.077,-0.321 0.159,-0.666 0.159,-0.666 0.016,-0.067 0.076,-0.249 0.096,-0.314 0,0 0.332,-1.048 0.371,-1.17 0.048,-0.331 0.238,-1.622 0.281,-1.916 0.009,-0.299 0.326,-9.229 0.326,-9.229 l -0.002,-74.948 c 0,-3.318 -0.161,-6.573 -0.474,-9.681 -0.1,-0.462 -0.362,-1.663 -0.432,-1.984 -0.053,-0.206 -0.196,-0.759 -0.345,-1.34 -0.052,-0.069 -0.112,-0.151 -0.112,-0.151 0.049,0.067 0.072,0.082 0.103,0.115 -0.005,-0.018 -0.007,-0.025 -0.012,-0.042 -0.192,-0.159 -0.39,-0.314 -0.549,-0.487 -0.358,-0.197 -0.702,-0.374 -1.004,-0.492 -0.568,-0.046 -1.095,-0.127 -1.55,-0.287 0.122,0.043 0.246,0.078 0.373,0.103 -2.58,-0.524 -5.142,-0.683 -7.614,-0.474 -0.079,0.007 -0.159,0.01 -0.239,0.01 h -0.33 c -1.565,0 -2.835,-1.269 -2.835,-2.834 v -8.514 c 0,-1.566 1.27,-2.835 2.835,-2.835 H 0.329 c 1.565,0 2.834,1.269 2.834,2.835 v 8.338 c 0,1.565 -1.269,2.834 -2.834,2.834 H 0 c -0.04,0 -0.079,0 -0.118,-0.002 -2.536,-0.106 -5.053,0.056 -7.481,0.481 -0.002,0.001 -1.712,0.33 -1.712,0.33 -0.023,0.003 0.058,-0.037 0.14,-0.122 -0.18,0.188 -0.711,0.491 -1.006,0.655 -0.048,0.098 -0.078,0.204 -0.136,0.296 -0.214,0.337 -0.347,0.743 -0.405,1.241 -0.044,0.38 -0.164,0.747 -0.353,1.079 -0.057,0.099 -0.121,0.246 -0.121,0.507 0,0.12 -0.008,0.241 -0.024,0.36 -0.337,2.632 -0.507,5.336 -0.507,8.066 0,0.693 0.011,1.387 0.033,2.082 l 0.002,74.615 c 0,0 0.156,9.2 0.161,9.482 0.028,0.16 0.422,2.371 0.422,2.371 0.003,0.021 0.04,0.202 0.042,0.222 0.065,0.411 0.207,0.851 0.422,1.307 0.055,0.117 0.045,0.251 0.084,0.375 0,0 0.474,0.357 0.684,0.515 0.004,0.003 0.164,0.087 0.297,0.157 0.329,0.135 0.714,0.247 1.158,0.327 0.607,0.035 1.211,0.138 1.811,0.303 h 3.138 c 0,0 0.416,0.087 0.831,0.175 h 1.814 c 0.183,0 0.538,0.095 0.862,0.19 0.074,0.033 2.338,1.03 2.338,1.03 0.699,0.308 0.812,0.584 0.812,1.083 0,0.234 -0.025,0.518 -0.025,0.877 v 8.342 C 3.163,-1.269 1.894,0 0.329,0 Z"
           style="fill:none;stroke:#000000;stroke-width:0.25;stroke-linecap:butt;stroke-linejoin:miter;stroke-miterlimit:4;stroke-dasharray:none;stroke-opacity:1"
           transform="matrix(1.3333333,0,0,-1.3333333,622.40493,327.87373)"
           clip-path="url(#clipPath27)"
           inkscape:label="path26" />
        <path
           id="path30"
           d="m 0,0 h -53.805 c -1.565,0 -2.835,-1.269 -2.835,-2.834 v -8.688 c 0,-1.565 1.27,-2.834 2.835,-2.834 h 2.95 c 0.325,-0.078 0.635,-0.175 1.009,-0.175 h 1.952 c 0.378,-0.053 2.303,-0.323 2.303,-0.323 0.13,-0.018 0.236,-0.023 0.366,-0.023 0.279,0 0.638,-0.087 0.996,-0.171 0.097,-0.049 0.201,-0.083 0.308,-0.122 0.277,-0.183 0.356,-0.235 0.623,-0.411 0.135,-0.141 0.238,-0.25 0.447,-0.468 0.077,-0.321 0.159,-0.666 0.159,-0.666 0.016,-0.067 0.076,-0.249 0.096,-0.314 0,0 0.332,-1.048 0.371,-1.17 0.048,-0.331 0.238,-1.622 0.281,-1.916 0.009,-0.299 0.326,-9.229 0.326,-9.229 l -0.002,-74.948 c 0,-3.318 -0.161,-6.573 -0.474,-9.681 -0.1,-0.462 -0.362,-1.663 -0.432,-1.984 -0.053,-0.206 -0.196,-0.759 -0.345,-1.34 -0.052,-0.069 -0.112,-0.151 -0.112,-0.151 0.049,0.067 0.072,0.082 0.103,0.115 -0.005,-0.018 -0.007,-0.025 -0.012,-0.042 -0.192,-0.159 -0.39,-0.314 -0.549,-0.487 -0.358,-0.197 -0.702,-0.374 -1.004,-0.492 -0.568,-0.046 -1.095,-0.127 -1.55,-0.287 0.122,0.043 0.246,0.078 0.373,0.103 -2.58,-0.524 -5.142,-0.683 -7.614,-0.474 -0.079,0.007 -0.159,0.01 -0.239,0.01 h -0.33 c -1.565,0 -2.835,-1.269 -2.835,-2.834 v -8.514 c 0,-1.566 1.27,-2.835 2.835,-2.835 H 0.329 c 1.565,0 2.834,1.269 2.834,2.835 v 8.338 c 0,1.565 -1.269,2.834 -2.834,2.834 H 0 c -0.04,0 -0.079,0 -0.118,-0.002 -2.536,-0.106 -5.053,0.056 -7.481,0.481 -0.002,0.001 -1.712,0.33 -1.712,0.33 -0.023,0.003 0.058,-0.037 0.14,-0.122 -0.18,0.188 -0.711,0.491 -1.006,0.655 -0.048,0.098 -0.078,0.204 -0.136,0.296 -0.214,0.337 -0.347,0.743 -0.405,1.241 -0.044,0.38 -0.164,0.747 -0.353,1.079 -0.057,0.099 -0.121,0.246 -0.121,0.507 0,0.12 -0.008,0.241 -0.024,0.36 -0.337,2.632 -0.507,5.336 -0.507,8.066 0,0.693 0.011,1.387 0.033,2.082 l 0.002,74.615 c 0,0 0.156,9.2 0.161,9.482 0.028,0.16 0.422,2.371 0.422,2.371 0.003,0.021 0.04,0.202 0.042,0.222 0.065,0.411 0.207,0.851 0.422,1.307 0.055,0.117 0.045,0.251 0.084,0.375 0,0 0.474,0.357 0.684,0.515 0.004,0.003 0.164,0.087 0.297,0.157 0.329,0.135 0.714,0.247 1.158,0.327 0.607,0.035 1.211,0.138 1.811,0.303 h 3.138 c 0,0 0.416,0.087 0.831,0.175 h 1.814 c 0.183,0 0.538,0.095 0.862,0.19 0.074,0.033 2.338,1.03 2.338,1.03 0.699,0.308 0.812,0.584 0.812,1.083 0,0.234 -0.025,0.518 -0.025,0.877 v 8.342 C 3.163,-1.269 1.894,0 0.329,0 Z"
           style="fill:none;stroke:#000000;stroke-width:0.25;stroke-linecap:butt;stroke-linejoin:miter;stroke-miterlimit:4;stroke-dasharray:none;stroke-opacity:1"
           transform="matrix(1.3333333,0,0,-1.3333333,486.40493,327.87373)"
           clip-path="url(#clipPath31)"
           inkscape:label="path30" />
        <path
           id="path34"
           d="m 0,0 h -39.446 c -1.566,0 -2.835,-1.269 -2.835,-2.834 v -8.512 c 0,-1.463 1.113,-2.686 2.569,-2.822 5.121,-0.481 8.353,-2.867 10.169,-7.507 1.777,-4.535 2.674,-9.136 2.674,-13.705 0,-0.679 -0.02,-1.357 -0.06,-2.034 -0.003,-0.055 -0.005,-0.11 -0.005,-0.166 v -50.382 c 0,-0.052 0.002,-0.102 0.005,-0.154 0.049,-0.905 0.074,-1.799 0.074,-2.68 0,-10.318 -3.37,-19.015 -10.238,-26.518 -6.039,-4.859 -12.356,-6.148 -19.307,-3.911 -8.187,2.802 -13.174,8.17 -15.198,16.393 -2.191,8.888 -3.247,17.825 -3.137,26.562 l 0.001,48.159 c 0,0.063 -0.002,0.125 -0.007,0.187 -0.674,10.2 3.05,15.058 12.075,15.752 1.477,0.113 2.617,1.344 2.617,2.826 v 8.512 c 0,1.565 -1.269,2.834 -2.835,2.834 L -115.2,0 c -1.566,0 -2.835,-1.269 -2.835,-2.834 v -9.035 c 0,-1.554 1.251,-2.818 2.806,-2.834 4.404,-0.047 7.549,-1.13 9.349,-3.222 1.462,-1.698 2.196,-4.215 2.196,-7.509 0,-1.207 -0.098,-2.52 -0.296,-3.935 -0.018,-0.13 -0.028,-0.261 -0.028,-0.392 v -53.334 c -0.166,-1.856 -0.261,-3.708 -0.261,-5.55 0,-7.781 1.482,-15.42 4.425,-22.78 3.812,-9.528 10.576,-16.202 20.108,-19.838 7.666,-2.89 15.83,-4.296 24.279,-4.182 16.55,-0.931 29.673,5.686 39,19.678 0.099,0.148 0.184,0.305 0.253,0.469 3.615,8.56 5.439,17.694 5.439,27.203 0,1.254 -0.035,2.515 -0.098,3.782 v 47.429 c -0.007,0.297 -0.01,0.594 -0.01,0.892 0,4.763 0.789,9.616 2.349,14.487 1.42,4.436 4.438,6.769 9.5,7.342 1.433,0.163 2.516,1.374 2.516,2.817 v 8.512 C 3.492,-1.269 2.223,0 0.657,0 Z"
           style="fill:none;stroke:#000000;stroke-width:0.25;stroke-linecap:butt;stroke-linejoin:miter;stroke-miterlimit:4;stroke-dasharray:none;stroke-opacity:1"
           transform="matrix(1.3333333,0,0,-1.3333333,191.3984,324.78973)"
           clip-path="url(#clipPath35)"
           inkscape:label="path34" />
        <path
           id="path38"
           d="m 0,0 h -56.941 c -1.566,0 -2.835,-1.269 -2.835,-2.834 v -8.687 c 0,-1.565 1.269,-2.834 2.835,-2.834 h 0.33 c -0.026,0 -0.129,0.003 -0.156,0.003 l 6.593,-0.177 3.007,-0.158 c -0.23,0.012 -0.312,0.041 -0.532,0.108 0.81,-0.248 1.762,-0.417 2.761,-0.551 0.534,-0.281 1.045,-0.551 1.512,-0.797 0.153,-0.171 0.307,-0.336 0.471,-0.494 0.14,-0.257 0.219,-0.401 0.378,-0.691 0.108,-0.421 0.245,-0.811 0.408,-1.166 0.128,-0.718 0.46,-2.586 0.46,-2.586 -0.006,0.034 -0.045,0.229 -0.05,0.264 0.42,-3.002 0.633,-5.967 0.633,-8.815 v -62.024 c 0,-4.392 -0.475,-8.678 -1.411,-12.738 -0.406,-1.808 -0.958,-3.5 -1.645,-5.045 -0.043,-0.095 -0.08,-0.194 -0.111,-0.293 -0.465,-1.463 -1.075,-2.84 -1.798,-4.112 -0.145,-0.179 -0.298,-0.422 -0.439,-0.698 -3.934,-5.769 -9.118,-8.388 -15.854,-7.986 -0.155,0.01 -0.311,0.006 -0.467,-0.01 -0.792,-0.084 -1.508,-0.047 -2.191,0.113 -0.079,0.019 -0.159,0.034 -0.24,0.046 -2.733,0.396 -5.266,1.402 -7.528,2.99 -0.079,0.055 -0.162,0.107 -0.247,0.155 -1.582,0.883 -2.998,2.025 -4.206,3.395 -0.091,0.103 -0.189,0.2 -0.294,0.289 -1.62,1.372 -3.003,4.189 -3.761,6.379 0.085,-0.03 0.156,-0.075 0.242,-0.103 2.07,-0.678 3.737,-0.776 5.094,-0.782 l 2.245,0.153 0.323,0.05 c 1.062,0.152 2.002,0.421 2.948,0.848 -0.13,-0.059 -0.264,-0.107 -0.401,-0.146 2.063,0.578 3.933,1.67 5.569,3.225 1.851,1.553 3.325,3.58 4.366,6.046 0.638,1.478 1.095,3.12 1.35,4.86 0.011,0.079 0.344,3.063 0.344,3.063 0.011,0.104 0.016,0.196 0.016,0.301 v 0.871 l -0.182,3.255 c -0.006,0.103 -0.044,0.255 -0.062,0.357 l -0.431,2.591 c -0.029,0.166 -0.094,0.5 -0.151,0.659 -0.725,2.027 -1.641,3.956 -2.725,5.732 -0.213,0.349 -0.541,0.598 -0.879,0.826 -0.104,0.208 -0.228,0.404 -0.379,0.581 -1.149,1.346 -2.452,2.513 -3.873,3.467 -0.049,0.034 -0.102,0.065 -0.154,0.096 -1.168,0.68 -2.416,1.233 -3.71,1.641 -0.14,0.045 -0.285,0.078 -0.431,0.1 -0.588,0.089 -1.135,0.221 -1.623,0.394 -0.304,0.107 -0.623,0.162 -0.946,0.162 h -1.814 l -2.795,-0.217 c -0.136,-0.011 -0.206,-0.05 -0.339,-0.08 l -1.907,-0.431 c -0.062,-0.013 -0.321,-0.066 -0.38,-0.084 -1.947,-0.574 -3.704,-1.523 -5.223,-2.82 -0.034,-0.029 -2.029,-1.943 -2.029,-1.943 -1.881,-1.979 -3.346,-4.194 -4.353,-6.582 -0.586,-1.358 -1.073,-2.703 -1.435,-3.974 -0.003,-0.012 -0.303,-1.121 -0.303,-1.121 -0.003,-0.009 -0.043,-0.147 -0.046,-0.156 -0.838,-3.215 -1.262,-6.511 -1.262,-9.817 0,-0.413 0.007,-0.826 0.02,-1.239 v -0.039 c 0,-2.082 0.117,-4.168 0.347,-6.112 0.228,-2.063 0.647,-4.059 1.228,-5.928 0.253,-1.053 0.647,-1.997 1.134,-2.851 1.578,-4.608 4.177,-8.544 7.74,-11.695 3.556,-3.674 7.817,-6.193 12.676,-7.472 -0.119,0.031 -0.236,0.07 -0.349,0.117 2.172,-0.888 4.495,-1.531 6.901,-1.912 2.502,-0.48 5.179,-0.731 7.869,-0.731 h 1.156 c -0.041,0 -0.082,0.001 -0.124,0.002 2.873,-0.125 5.785,0.131 8.654,0.76 -0.112,-0.025 -0.225,-0.042 -0.338,-0.053 2.655,0.254 5.391,0.892 8.134,1.897 -0.04,-0.015 -0.347,-0.099 -0.389,-0.112 l 2.17,0.686 c 4.082,1.548 8.138,3.775 11.958,6.579 0.084,0.061 0.165,0.128 0.241,0.199 l 2.643,2.43 c 4.732,4.361 8.21,9.786 10.338,16.127 0.826,2.726 1.514,5.505 2.075,8.342 0.578,3.041 0.927,6.225 1.044,9.483 0.002,0.101 0.158,4.237 0.158,4.237 10e-4,0.036 0.008,0.173 0.008,0.209 v 55.245 c -0.108,3.281 0.052,6.515 0.471,9.706 -0.001,-0.007 0.266,2.101 0.315,2.487 0.047,0.234 0.155,0.615 0.427,1.187 0.13,0.147 0.212,0.33 0.314,0.499 0.26,0.149 0.896,0.514 1.184,0.678 0.174,0.055 0.347,0.145 0.521,0.226 1.985,0.301 4.025,0.522 6.086,0.625 H 0.33 c 1.566,0 2.835,1.269 2.835,2.834 v 8.687 C 3.165,-1.269 1.896,0 0.33,0 Z"
           style="fill:none;stroke:#000000;stroke-width:0.25;stroke-linecap:butt;stroke-linejoin:miter;stroke-miterlimit:4;stroke-dasharray:none;stroke-opacity:1"
           transform="matrix(1.3333333,0,0,-1.3333333,351.33853,324.22067)"
           clip-path="url(#clipPath39)"
           inkscape:label="path38" />
      </g>
      <path
         id="path40"
         d="M 0,0 C 0,2.349 -1.904,4.252 -4.252,4.252 -6.6,4.252 -8.504,2.349 -8.504,0 c 0,-2.349 1.904,-4.252 4.252,-4.252 C -1.904,-4.252 0,-2.349 0,0 Z"
         style="fill:none;stroke:#000000;stroke-width:0.25;stroke-linecap:butt;stroke-linejoin:miter;stroke-miterlimit:4;stroke-dasharray:none;stroke-opacity:1"
         transform="matrix(1.3333333,0,0,-1.3333333,321.82813,416.46093)"
         clip-path="url(#clipPath41)" />
      <path
         id="path42"
         d="M 0,0 V 170.078 H 640.629 V -0.001 Z"
         style="fill:none;stroke:#000000;stroke-width:0.25;stroke-linecap:butt;stroke-linejoin:miter;stroke-miterlimit:4;stroke-dasharray:none;stroke-opacity:1"
         transform="matrix(1.3333333,0,0,-1.3333333,0.16666667,528.22133)"
         clip-path="url(#clipPath43)" />
    </g>
  </g>
</svg>
