<?xml version="1.0" encoding="UTF-8" standalone="no"?>
<!-- Created with Inkscape (http://www.inkscape.org/) -->

<svg
   version="1.1"
   id="svg1"
   width="522.36133"
   height="1122.4827"
   viewBox="0 0 522.36133 1122.4827"
   sodipodi:docname="12193287.svg"
   inkscape:version="1.4 (86a8ad7, 2024-10-11)"
   xmlns:inkscape="http://www.inkscape.org/namespaces/inkscape"
   xmlns:sodipodi="http://sodipodi.sourceforge.net/DTD/sodipodi-0.dtd"
   xmlns="http://www.w3.org/2000/svg"
   xmlns:svg="http://www.w3.org/2000/svg">
  <defs
     id="defs1">
    <clipPath
       clipPathUnits="userSpaceOnUse"
       id="clipPath3">
      <path
         d="M 0,841.862 H 391.771 V 0 H 0 Z"
         transform="translate(-252.30181,-795.28912)"
         id="path3" />
    </clipPath>
    <clipPath
       clipPathUnits="userSpaceOnUse"
       id="clipPath5">
      <path
         d="M 0,841.862 H 391.771 V 0 H 0 Z"
         transform="translate(0,2.5000001e-5)"
         id="path5" />
    </clipPath>
    <clipPath
       clipPathUnits="userSpaceOnUse"
       id="clipPath7">
      <path
         d="M 0,841.862 H 391.771 V 0 H 0 Z"
         transform="translate(-273.35941,-644.55712)"
         id="path7" />
    </clipPath>
    <clipPath
       clipPathUnits="userSpaceOnUse"
       id="clipPath9">
      <path
         d="M 0,841.862 H 391.771 V 0 H 0 Z"
         transform="translate(-243.3457,-563.05081)"
         id="path9" />
    </clipPath>
    <clipPath
       clipPathUnits="userSpaceOnUse"
       id="clipPath11">
      <path
         d="M 0,841.862 H 391.771 V 0 H 0 Z"
         transform="translate(-303.93361,-410.13281)"
         id="path11" />
    </clipPath>
    <clipPath
       clipPathUnits="userSpaceOnUse"
       id="clipPath13">
      <path
         d="M 0,841.862 H 391.771 V 0 H 0 Z"
         transform="translate(-252.47461,-253.63091)"
         id="path13" />
    </clipPath>
    <clipPath
       clipPathUnits="userSpaceOnUse"
       id="clipPath15">
      <path
         d="M 0,841.862 H 391.771 V 0 H 0 Z"
         transform="translate(-252.65091,-161.2334)"
         id="path15" />
    </clipPath>
    <clipPath
       clipPathUnits="userSpaceOnUse"
       id="clipPath17">
      <path
         d="M 0,841.862 H 391.771 V 0 H 0 Z"
         transform="translate(-319.55271,-841.71682)"
         id="path17" />
    </clipPath>
    <clipPath
       clipPathUnits="userSpaceOnUse"
       id="clipPath19">
      <path
         d="M 0,841.862 H 391.771 V 0 H 0 Z"
         transform="translate(-334.36041,-829.42382)"
         id="path19" />
    </clipPath>
    <clipPath
       clipPathUnits="userSpaceOnUse"
       id="clipPath21">
      <path
         d="M 0,841.862 H 391.771 V 0 H 0 Z"
         transform="translate(-307.47171,-782.06792)"
         id="path21" />
    </clipPath>
    <clipPath
       clipPathUnits="userSpaceOnUse"
       id="clipPath23">
      <path
         d="M 0,841.862 H 391.771 V 0 H 0 Z"
         transform="translate(-324.35741,-796.53662)"
         id="path23" />
    </clipPath>
    <clipPath
       clipPathUnits="userSpaceOnUse"
       id="clipPath25">
      <path
         d="M 0,841.862 H 391.771 V 0 H 0 Z"
         transform="translate(-337.94041,-786.82282)"
         id="path25" />
    </clipPath>
    <clipPath
       clipPathUnits="userSpaceOnUse"
       id="clipPath27">
      <path
         d="M 0,841.862 H 391.771 V 0 H 0 Z"
         transform="translate(-357.93651,-782.78372)"
         id="path27" />
    </clipPath>
    <clipPath
       clipPathUnits="userSpaceOnUse"
       id="clipPath29">
      <path
         d="M 0,841.862 H 391.771 V 0 H 0 Z"
         transform="translate(-375.08111,-796.53662)"
         id="path29" />
    </clipPath>
    <clipPath
       clipPathUnits="userSpaceOnUse"
       id="clipPath31">
      <path
         d="M 0,841.862 H 391.771 V 0 H 0 Z"
         transform="translate(-391.77051,-782.72022)"
         id="path31" />
    </clipPath>
  </defs>
  <sodipodi:namedview
     id="namedview1"
     pagecolor="#ffffff"
     bordercolor="#000000"
     borderopacity="0.25"
     inkscape:showpageshadow="2"
     inkscape:pageopacity="0.0"
     inkscape:pagecheckerboard="0"
     inkscape:deskcolor="#d1d1d1"
     inkscape:zoom="0.78843091"
     inkscape:cx="260.64427"
     inkscape:cy="559.97297"
     inkscape:window-width="1920"
     inkscape:window-height="1009"
     inkscape:window-x="-8"
     inkscape:window-y="-8"
     inkscape:window-maximized="1"
     inkscape:current-layer="g1">
    <inkscape:page
       x="0"
       y="0"
       inkscape:label="1"
       id="page1"
       width="522.36133"
       height="1122.4827"
       margin="0"
       bleed="0" />
  </sodipodi:namedview>
  <g
     id="g1"
     inkscape:groupmode="layer"
     inkscape:label="1">
    <g
       id="group-MC0">
      <path
         id="path2"
         d="m 0,0 v 1.135 h -1.783 c -1.144,-0.017 -1.85,0.151 -2.086,0.513 -0.362,0.479 -0.53,1.194 -0.513,2.187 v 21.512 h -2.187 c -0.74,-0.731 -1.37,-1.244 -1.883,-1.505 -1.22,-0.37 -2.17,-0.563 -2.877,-0.547 h -1.673 v -1.093 h 2.464 c 1.261,-0.017 1.892,-0.597 1.909,-1.774 V 3.835 C -8.646,2.859 -8.814,2.144 -9.142,1.648 -9.529,1.286 -10.235,1.118 -11.228,1.135 h -1.774 V 0 H 0 m -21.093,7.291 h -0.858 C -22.783,5.407 -23.54,4.263 -24.204,3.835 -24.877,3.54 -25.887,3.406 -27.215,3.422 h -8.621 c 1.211,1.64 3.541,3.575 6.981,5.854 2.405,1.64 4.053,2.868 4.92,3.726 1.555,1.623 2.346,3.439 2.329,5.407 -0.084,2.136 -0.959,3.844 -2.632,5.13 -1.615,1.211 -3.473,1.825 -5.576,1.842 -2.313,-0.017 -4.247,-0.647 -5.786,-1.909 -1.489,-1.27 -2.237,-2.725 -2.22,-4.348 -0.017,-0.648 0.185,-1.245 0.614,-1.774 0.428,-0.396 1.009,-0.64 1.782,-0.724 0.421,0.084 0.917,0.295 1.506,0.614 0.437,0.429 0.664,0.925 0.681,1.506 -0.017,0.605 -0.261,1.185 -0.723,1.749 -0.421,0.513 -0.631,0.875 -0.614,1.093 -0.017,0.429 0.261,0.875 0.824,1.371 0.976,0.782 2.069,1.177 3.28,1.194 1.455,-0.017 2.565,-0.462 3.356,-1.371 0.731,-0.849 1.11,-2.035 1.127,-3.523 -0.051,-2.582 -1.043,-4.954 -2.978,-7.115 -2.716,-2.498 -4.516,-4.172 -5.365,-5.03 -1.489,-1.48 -2.776,-3.01 -3.835,-4.583 V 0 h 15.735 z m -18.51,5.778 h -23.742 v -2.22 h 23.742 z M -68.315,0 v 1.135 h -1.783 c -1.144,-0.017 -1.842,0.151 -2.086,0.513 -0.362,0.479 -0.53,1.194 -0.513,2.187 v 21.512 h -2.187 c -0.74,-0.731 -1.37,-1.244 -1.883,-1.505 -1.212,-0.37 -2.17,-0.563 -2.877,-0.547 h -1.673 v -1.093 h 2.464 c 1.261,-0.017 1.901,-0.597 1.917,-1.774 V 3.835 c -0.016,-0.976 -0.193,-1.691 -0.513,-2.187 -0.395,-0.362 -1.101,-0.53 -2.085,-0.513 h -1.783 V 0 Z m -22.136,0 v 1.135 c -1.883,0.05 -3.145,0.866 -3.801,2.456 l -9.234,21.79 -3.591,-1.707 -7.115,-18.368 c -0.446,-1.177 -1.026,-2.203 -1.741,-3.111 -0.875,-0.724 -1.716,-1.077 -2.532,-1.06 h -0.757 V 0 h 9.167 v 1.135 h -0.849 c -0.992,-0.017 -1.732,0.202 -2.195,0.647 -0.252,0.236 -0.387,0.698 -0.37,1.371 -0.017,0.32 0.034,0.648 0.135,0.951 0.1,0.521 0.63,2.077 1.606,4.692 h 11.051 L -98.592,3.7 c 0.169,-0.463 0.253,-0.791 0.27,-0.959 -0.017,-0.395 -0.152,-0.757 -0.404,-1.093 -0.429,-0.362 -1.009,-0.53 -1.783,-0.513 h -1.262 V 0 Z m -30.94,13.069 h -23.742 v -2.22 h 23.742 z M -150.642,0 v 1.135 h -1.261 c -1.665,-0.017 -2.481,0.832 -2.464,2.565 v 17.207 c -0.017,1.724 0.765,2.582 2.355,2.599 h 1.37 v 1.127 h -11.219 v -1.127 h 1.228 c 1.565,-0.017 2.347,-0.875 2.364,-2.599 V 3.7 c -0.017,-1.733 -0.799,-2.582 -2.364,-2.565 h -1.228 V 0 Z m -18.712,6.4 -0.782,0.277 c -2.582,-3.717 -5.374,-5.559 -8.351,-5.542 h -3.861 c -1.539,-0.017 -2.312,0.799 -2.295,2.456 v 17.585 c -0.017,1.539 0.682,2.313 2.085,2.33 h 1.337 v 1.127 h -11.084 v -1.127 h 1.404 c 1.472,-0.017 2.204,-0.791 2.221,-2.33 V 3.591 c -0.017,-1.657 -0.749,-2.473 -2.221,-2.456 h -1.404 V 0 h 20.798 z m -30.133,0.378 c -0.016,3.28 -1.849,5.643 -5.509,7.115 l -7.628,3.011 c -2.069,0.782 -3.095,1.934 -3.078,3.456 -0.017,1.077 0.37,2.002 1.161,2.734 0.925,0.765 2.153,1.143 3.692,1.16 1.868,-0.017 3.701,-0.563 5.508,-1.64 1.834,-1.127 3.13,-2.531 3.903,-4.205 l 0.958,0.337 -1.505,6.501 c -0.942,-0.732 -1.699,-1.111 -2.229,-1.094 -0.353,-0.017 -1.211,0.185 -2.565,0.581 -1.606,0.428 -2.901,0.63 -3.894,0.647 -2.691,-0.017 -4.659,-0.681 -5.92,-2.01 -1.144,-1.27 -1.724,-2.725 -1.708,-4.382 -0.016,-3.195 1.607,-5.407 4.853,-6.601 2.977,-1.111 5.256,-1.935 6.846,-2.465 2.531,-0.975 3.843,-2.514 3.969,-4.65 -0.159,-1.489 -0.706,-2.65 -1.648,-3.491 -1.346,-0.941 -2.683,-1.421 -3.97,-1.404 -1.875,-0.017 -4.07,0.858 -6.559,2.599 -1.8,1.236 -2.927,2.674 -3.39,4.348 l -1.127,-0.244 1.775,-7.485 c 0.723,0.782 1.589,1.177 2.599,1.194 0.311,-0.017 1.505,-0.328 3.591,-0.959 1.059,-0.378 2.363,-0.529 3.902,-0.546 2.002,0.017 3.742,0.63 5.231,1.917 1.8,1.522 2.708,3.364 2.742,5.576 m -26.071,16.728 v 1.127 h -8.074 v -1.127 h 0.723 c 1.791,-0.017 2.683,-0.976 2.7,-2.877 V 6.021 l -15.155,18.612 h -6.938 v -1.127 h 1.227 c 1.438,-0.017 2.137,-0.875 2.153,-2.599 V 4.381 c -0.016,-2.17 -0.925,-3.263 -2.733,-3.246 h -0.647 V 0 h 7.93 v 1.135 h -0.681 c -1.833,-0.017 -2.759,1.076 -2.741,3.246 v 17.241 l 17.719,-21.993 h 0.993 v 21 c -0.017,1.901 0.908,2.86 2.741,2.877 z M -101.089,9.89 h -10.227 l 4.962,12.556 z"
         style="fill:#231f20;fill-opacity:1;fill-rule:nonzero;stroke:none"
         transform="matrix(1.3333333,0,0,-1.3333333,336.4024,62.0972)"
         clip-path="url(#clipPath3)" />
      <path
         id="path4"
         d="M 371.965,765.355 H 159.366 V 0 h 212.599 z"
         style="fill:#ffffff;fill-opacity:1;fill-rule:nonzero;stroke:none"
         transform="matrix(1.3333333,0,0,-1.3333333,0,1122.4827)"
         clip-path="url(#clipPath5)" />
      <g
         id="g2">
        <path
           id="path6"
           d="m 0,0 c 1.688,2.666 3.464,5.51 5.155,8.535 1.243,3.11 2.579,6.399 3.915,9.778 3.997,0.178 8.089,0 12.268,-0.534 4.442,-1.246 8.09,-3.735 11.022,-7.469 2.222,-5.423 2.578,-10.756 1.068,-16.178 -1.157,-4.801 -3.111,-9.071 -5.867,-12.804 -4.179,-5.246 -9.335,-9.067 -15.471,-11.379 -6.314,-2.757 -12.713,-5.069 -19.026,-6.936 0.98,-1.154 2.135,-2.134 3.378,-3.024 15.38,0.536 29.428,5.161 42.142,13.871 8.003,7.2 11.469,16.269 10.312,27.203 -2.045,11.023 -8.446,18.495 -19.024,22.583 -7.026,2.221 -14.134,3.111 -21.339,2.667 -0.799,1.334 -1.689,2.58 -2.843,3.556 -1.244,0.534 -2.402,1.157 -3.556,1.78 h -2.843 c -0.092,-2.312 -0.27,-4.447 -0.536,-6.404 -4.001,-1.154 -7.821,-2.223 -11.555,-3.375 -0.182,3.997 0,7.999 0.531,12.091 7.023,0.977 13.78,3.289 20.27,6.931 3.645,2.044 4.712,5.16 3.376,9.248 -1.509,2.399 -3.732,3.465 -6.754,3.02 -2.935,0.269 -5.602,0.181 -8.181,-0.354 0.891,-1.245 1.513,-2.579 1.781,-3.91 -2.67,-1.336 -5.422,-2.313 -8.18,-2.844 0.621,3.375 1.512,6.844 2.488,10.488 1.246,3.111 1.778,6.49 1.6,10.137 -1.6,4.088 -4.358,7.2 -8.176,9.244 -3.469,1.867 -7.113,2.221 -10.847,1.245 -0.981,-0.891 -1.957,-1.69 -2.847,-2.312 1.69,-1.69 3.47,-3.466 5.155,-5.156 1.335,-1.958 2.135,-4.089 2.312,-6.4 -0.532,-6.844 -1.508,-13.426 -2.843,-19.739 -4.179,-0.8 -8.268,-0.8 -12.268,0 -3.466,1.158 -6.668,2.757 -9.603,4.802 -0.267,-0.887 -0.532,-1.688 -0.713,-2.309 0.537,-4.715 2.671,-8.357 6.405,-11.028 4.8,-2.667 10.042,-3.466 15.648,-2.308 -0.537,-5.069 -0.805,-10.046 -0.715,-14.937 -4.8,-2.045 -9.333,-4.357 -13.69,-6.936 -4.536,-2.667 -8.978,-5.157 -13.334,-7.468 -2.312,-1.245 -4.624,-2.043 -6.936,-2.312 -0.622,-1.245 -1.245,-2.398 -1.777,-3.556 0.532,-1.686 1.332,-3.199 2.309,-4.443 0.89,-2.312 2.402,-3.911 4.623,-4.801 0.445,-0.176 0.98,-0.267 1.781,-0.354 1.33,-1.689 2.665,-3.469 3.911,-5.337 1.511,-2.399 2.665,-4.887 3.556,-7.468 0.532,-3.464 2.489,-5.245 5.867,-5.155 8.713,2.132 16.357,6.49 22.94,13.158 1.953,-2.756 4.531,-4.89 7.642,-6.227 2.581,-1.684 5.424,-2.307 8.535,-1.776 2.935,-0.089 4.893,1.335 5.869,4.089 -0.091,1.689 -0.445,3.47 -1.245,5.159 -0.799,1.154 -1.336,2.399 -1.781,3.911 -0.621,1.332 -1.066,2.934 -1.243,4.623 -0.265,0.178 -0.532,0.443 -0.71,0.887 -0.268,-3.734 -2.134,-5.601 -5.514,-5.51 -1.599,0.622 -2.756,1.866 -3.378,3.557 C -4.267,-5.959 -1.958,-3.293 0,0 m -12.8,11.91 c 3.019,1.512 6.31,2.847 9.779,4.092 C -3.645,13.6 -4.624,11.465 -5.869,9.597 -7.822,6.845 -9.689,4.175 -11.557,1.599 -12.537,4.887 -12.982,8.267 -12.8,11.91 M -34.674,-1.25 c 3.647,2.313 7.47,4.625 11.559,6.936 0.177,-4.354 0.976,-8.443 2.311,-12.268 -2.311,-1.957 -4.623,-3.643 -6.935,-5.155 -2.667,-1.689 -5.333,-3.024 -7.999,-3.911 -3.824,0.532 -6.759,2.576 -8.715,6.223 3.11,2.667 6.402,5.423 9.779,8.175"
           style="fill:#231f20;fill-opacity:1;fill-rule:nonzero;stroke:none"
           transform="matrix(1.3333333,0,0,-1.3333333,364.4792,263.0732)"
           clip-path="url(#clipPath7)"
           inkscape:label="path6" />
        <path
           id="path8"
           d="m 0,0 c -0.734,-7.363 -2.287,-14.48 -4.744,-21.268 -2.454,-6.792 -4.252,-13.664 -5.397,-20.614 -0.899,-5.317 0.898,-9.078 5.397,-11.454 2.457,-1.553 5.072,-1.717 7.855,-0.327 2.534,1.8 3.68,4.42 3.436,7.852 -0.083,5.319 0.572,10.637 1.961,16.033 1.145,4.745 3.681,8.754 7.525,11.943 2.536,1.884 5.567,3.11 8.999,3.602 3.111,0.242 6.217,-0.165 9.327,-1.31 5.641,-8.671 7.769,-18.243 6.38,-28.794 -0.084,-14.561 -5.482,-26.501 -16.362,-35.828 -8.26,-6.137 -16.604,-11.778 -25.192,-16.853 1.553,-0.491 3.19,-0.898 4.907,-1.141 9.243,0.734 17.994,3.353 26.339,8.013 7.281,4.255 13.334,9.981 18.161,17.342 4.173,5.727 6.625,12.27 7.363,19.632 1.88,13.171 -0.249,25.604 -6.381,37.464 -4.092,5.975 -9.737,9.407 -16.852,10.473 C 26.75,-4.828 21.108,-5.726 15.706,-7.854 17.427,-3.846 17.1,0 14.725,3.76 11.945,6.543 8.756,8.67 5.238,10.144 1.474,10.223 -2.208,10.471 -5.725,10.958 -7.115,10.714 -8.341,10.471 -9.487,10.307 -5.397,7.605 -2.208,4.172 0,0"
           style="fill:#231f20;fill-opacity:1;fill-rule:nonzero;stroke:none"
           transform="matrix(1.3333333,0,0,-1.3333333,324.46093,371.74827)"
           clip-path="url(#clipPath9)"
           inkscape:label="path8" />
        <path
           id="path10"
           d="m 0,0 c 0.512,-1.53 1.444,-2.805 2.719,-3.735 0.594,-1.869 1.867,-2.974 3.736,-3.4 1.612,-0.424 3.481,-0.424 5.435,0 1.444,0.171 2.294,1.106 2.717,2.719 C 14.777,-2.805 14.184,-1.272 12.909,0 11.973,0.764 11.123,1.614 10.36,2.719 9.254,3.568 8.748,4.669 8.66,6.112 8.067,7.219 8.41,8.066 9.68,8.83 14.266,7.725 17.919,5.181 20.721,1.188 23.606,-1.443 26.748,-1.868 30.061,0 c 1.443,0.851 1.787,2.124 1.018,3.906 -0.932,2.123 -2.376,3.906 -4.244,5.435 -4.502,2.801 -9.258,3.907 -14.266,3.394 C 8.66,12.229 5.522,10.698 3.056,8.15 -0.85,8.917 -4.668,8.917 -8.321,8.15 -8.573,7.644 -8.747,7.301 -8.83,7.131 -5.86,4.838 -2.886,2.463 0,0 m -5.092,-16.645 c 3.312,-3.566 5.687,-7.642 7.129,-12.227 -2.544,-1.529 -5.18,-2.631 -7.81,-3.225 -3.993,-1.53 -7.98,-2.635 -11.889,-3.229 0.425,-0.255 0.934,-0.425 1.53,-0.508 3.142,-0.511 6.284,-1.273 9.509,-2.21 4.924,-0.508 9.598,-2.12 13.927,-4.924 5.605,-0.256 8.999,2.379 10.19,7.984 -0.086,9.168 -3.735,16.64 -11.039,22.588 -9.341,6.367 -19.614,8.999 -30.911,7.811 0.257,-0.425 0.763,-0.595 1.361,-0.681 6.706,-2.463 12.738,-6.199 18.003,-11.379 m -43.819,34.136 c 0.512,-2.887 0.512,-5.687 0,-8.491 -1.526,-6.281 -3.395,-12.311 -5.606,-18.002 -7.98,-2.887 -16.046,-5.012 -24.286,-6.285 -4.243,-0.932 -8.318,-0.932 -12.396,0 -0.257,-1.443 -0.508,-2.714 -0.677,-3.905 2.289,-3.82 5.349,-6.876 8.999,-9.169 2.973,-1.192 6.03,-1.019 9.171,0.507 4.669,1.869 9.425,3.993 14.097,6.454 -4.672,-9.001 -10.022,-17.494 -15.965,-25.473 -2.803,-3.992 -5.942,-7.387 -9.509,-10.191 -3.23,-4.667 -3.399,-9.341 -0.512,-14.096 0.512,-1.53 1.613,-2.462 3.229,-2.887 1.271,-0.509 2.632,-0.339 4.074,0.512 4.586,6.623 9.086,13.416 13.585,20.377 1.617,-4.162 3.737,-7.898 6.286,-11.379 0.85,-2.294 1.782,-4.498 2.717,-6.623 1.445,-2.549 3.65,-3.481 6.793,-2.887 2.209,0.425 4.499,1.105 6.792,2.205 6.199,4.162 10.871,9.767 14.097,16.984 3.141,6.797 5.353,13.927 6.795,21.569 1.527,7.304 0.425,14.183 -3.397,20.72 -4.669,4.673 -10.361,6.624 -16.983,5.777 2.972,5.6 5.265,11.63 6.793,18.17 0.762,5.861 -1.275,10.7 -6.114,14.604 -3.821,2.549 -7.896,3.823 -12.4,3.905 -1.102,-0.845 -2.038,-1.613 -2.886,-2.205 2.634,-3.224 5.096,-6.624 7.303,-10.191 m -5.606,-53.668 c 2.888,6.031 5.862,12.229 9.003,18.514 1.784,0.255 3.651,0.763 5.606,1.356 1.612,0.173 3.311,-0.082 5.094,-0.675 1.954,-2.293 2.715,-5.011 2.205,-7.985 -0.593,-7.386 -2.461,-14.264 -5.601,-20.719 -1.784,-4.924 -4.584,-8.748 -8.492,-11.378 -2.465,1.187 -4.671,2.63 -6.626,4.417 -2.631,1.95 -5.006,4.33 -6.961,6.961 2.123,2.887 3.992,6.03 5.772,9.509"
           style="fill:#231f20;fill-opacity:1;fill-rule:nonzero;stroke:none"
           transform="matrix(1.3333333,0,0,-1.3333333,405.2448,575.63893)"
           clip-path="url(#clipPath11)"
           inkscape:label="path10" />
        <path
           id="path12"
           d="m 0,0 c -7.07,-2.979 -12.867,-7.413 -17.381,-13.291 -5.624,-6.902 -6.561,-14.145 -2.897,-21.982 7.836,-12.78 19.427,-19.085 34.932,-18.914 9.713,-0.766 19.51,-0.341 29.311,1.192 3.493,0.17 6.9,0.937 10.392,2.216 4.006,1.446 5.202,4.088 3.579,8.008 -5.706,7.841 -13.375,10.139 -22.833,6.988 -13.719,-4.348 -27.009,-4.348 -40.046,0.168 -5.706,2.473 -7.242,6.304 -4.601,11.591 9.63,9.368 21.217,15.758 34.763,19.084 1.961,0.766 4.177,1.446 6.475,2.213 4.346,1.28 8.947,2.389 13.804,3.24 3.321,-0.086 5.538,1.618 6.647,4.94 -0.853,3.577 -3.155,6.223 -6.818,7.84 -3.151,2.47 -6.562,3.664 -10.224,3.749 -2.982,-2.301 -6.05,-4.176 -9.204,-5.623 C 20.703,9.629 15.678,8.179 10.735,6.989 7.414,8.264 5.368,10.823 4.772,14.486 2.897,19.513 1.532,24.795 0.682,30.161 0.424,31.783 0.171,33.486 0,35.275 c -1.45,3.238 -3.834,5.624 -7.156,7.157 -5.286,1.194 -10.482,1.277 -15.677,0.172 -1.533,-1.195 -2.984,-2.217 -4.261,-3.07 3.833,-2.897 7.582,-5.795 11.416,-8.688 1.79,-3.834 3.322,-7.67 4.602,-11.59 1.109,-4.686 2.555,-9.202 4.43,-13.462 C -5.795,2.303 -3.579,0.427 0,0"
           style="fill:#231f20;fill-opacity:1;fill-rule:nonzero;stroke:none"
           transform="matrix(1.3333333,0,0,-1.3333333,336.6328,784.30813)"
           clip-path="url(#clipPath13)"
           inkscape:label="path12" />
        <path
           id="path14"
           d="m 0,0 -1.021,-3.233 c 2.127,-6.99 6.306,-12.356 12.606,-16.019 -6.215,-3.496 -12.265,-6.904 -18.23,-10.227 1.106,-0.765 2.301,-1.361 3.577,-1.873 5.2,1.278 10.395,2.644 15.678,4.09 2.472,0.51 5.025,0.935 7.667,1.362 2.132,-0.171 4.264,-0.427 6.475,-0.852 4.263,-1.105 6.731,0.511 7.5,4.773 -0.513,2.298 -1.45,4.515 -2.897,6.475 -1.45,1.873 -3.152,3.322 -5.283,4.259 -0.937,-0.085 -1.79,0.085 -2.558,0.341 -1.871,0.426 -3.663,0.936 -5.279,1.535 C 11.331,-7.752 5.285,-4.599 0,0 m -26.072,-53.505 c 1.618,-4.173 4.599,-6.73 8.863,-7.84 2.808,-0.256 5.535,0.259 8.177,1.534 4.604,2.217 9.117,4.857 13.631,7.838 4.007,2.813 8.438,5.03 13.291,6.816 4.943,1.28 8.947,0 11.93,-3.919 4.258,-9.116 4.603,-18.401 1.021,-27.943 -7.667,-16.618 -19.765,-28.969 -36.296,-36.979 1.111,-0.852 2.303,-1.533 3.579,-2.047 13.461,3.067 25.561,9.118 36.299,18.234 5.535,4.945 9.628,10.994 12.437,18.236 2.982,9.031 3.321,18.23 0.854,27.602 -2.982,8.863 -9.203,13.806 -18.575,14.997 -12.099,0.256 -23.514,-1.962 -34.423,-6.815 -4.004,-1.877 -8.092,-3.323 -12.099,-4.259 -1.193,-0.43 -1.958,-0.086 -2.384,0.851 -0.17,1.105 -0.085,2.217 0.341,3.408 -1.535,-0.511 -2.897,-0.937 -4.089,-1.191 -2.642,-2.473 -3.493,-5.286 -2.557,-8.523"
           style="fill:#231f20;fill-opacity:1;fill-rule:nonzero;stroke:none"
           transform="matrix(1.3333333,0,0,-1.3333333,336.86787,907.5048)"
           clip-path="url(#clipPath15)"
           inkscape:label="path14" />
      </g>
      <path
         id="path16"
         d="m 0,0 4.146,-0.496 c 0.617,-0.088 0.925,-0.319 0.925,-0.693 0,-0.353 -0.44,-0.694 -1.321,-1.024 v -24.615 c 0,-0.712 -0.288,-1.314 -0.863,-1.804 -1.173,-0.668 -2.3,-1.002 -3.382,-1.002 -0.925,0 -1.42,0.334 -1.486,1.001 -0.111,0.779 -0.408,1.28 -0.892,1.503 -0.572,0.289 -1.321,0.434 -2.245,0.434 v 0.937 H 0 Z m -7.125,-3.065 4.087,-0.463 c 0.66,-0.067 0.991,-0.264 0.991,-0.594 0,-0.287 -0.484,-0.54 -1.453,-0.76 V -21.03 l -3.625,-0.529 z m -13.438,-7.131 h 7 v 7.625 h -7 z m -3.625,10.147 3.54,-1.585 h 6.911 l 1.058,1.717 3.042,-1.783 c 0.639,-0.485 0.958,-0.858 0.958,-1.121 0,-0.286 -0.44,-0.583 -1.321,-0.891 v -8.05 l -3.563,-0.561 v 1.189 h -2.806 c -0.176,-1.569 -0.374,-3.027 -0.595,-4.375 h 3.665 l 1.19,1.585 2.543,-1.651 c 0.505,-0.309 0.758,-0.539 0.758,-0.693 0,-0.375 -0.319,-0.726 -0.957,-1.056 l -0.264,-4.819 c -0.199,-3.343 -0.76,-5.455 -1.684,-6.336 -0.903,-0.769 -2.356,-1.155 -4.359,-1.155 -0.573,0 -0.859,0.344 -0.859,1.031 -0.066,1.065 -0.979,1.652 -2.74,1.763 v 0.831 h 4.887 c 0.924,1.802 1.419,5.01 1.485,9.625 h -3.83 c -0.374,-2.07 -0.869,-3.831 -1.485,-5.284 -1.102,-2.928 -3.259,-5.712 -6.473,-8.354 l -0.528,0.528 c 1.629,2.378 2.84,4.832 3.633,7.364 0.769,2.4 1.353,6.065 1.75,10.996 h -0.331 v -0.891 l -3.625,-0.562 z"
         style="fill:#231f20;fill-opacity:1;fill-rule:nonzero;stroke:none"
         transform="matrix(1.3333333,0,0,-1.3333333,426.07027,0.1936)"
         clip-path="url(#clipPath17)" />
      <path
         id="path18"
         d="m 0,0 c 2.312,-0.749 3.996,-1.729 5.053,-2.938 0.881,-1.036 1.343,-2.247 1.386,-3.633 0,-1.344 -0.693,-2.015 -2.08,-2.015 -1.056,0.044 -1.717,0.649 -1.981,1.816 -0.287,1.916 -1.267,3.996 -2.94,6.242 z m 20.364,6.626 3.269,-2.51 V 3.241 h -7.628 v -17.367 c 0,-0.748 -0.276,-1.397 -0.826,-1.948 -1.103,-0.727 -2.16,-1.09 -3.174,-1.09 -1.057,0 -1.618,0.386 -1.684,1.155 -0.154,0.904 -0.507,1.498 -1.056,1.784 -0.684,0.352 -1.576,0.529 -2.676,0.529 v 0.875 h 5.416 V 3.241 H -5.398 l -0.397,0.875 h 17.8 v 8.322 l 4.462,-0.495 c 0.66,-0.089 0.991,-0.32 0.991,-0.693 0,-0.396 -0.484,-0.782 -1.453,-1.156 V 4.116 h 2.378 z"
         style="fill:#231f20;fill-opacity:1;fill-rule:nonzero;stroke:none"
         transform="matrix(1.3333333,0,0,-1.3333333,445.81387,16.584267)"
         clip-path="url(#clipPath19)" />
      <path
         id="path20"
         d="M 0,0 -0.792,-6.896 H -12.52 v 2.278 c 0.199,1.056 0.805,2.41 1.821,4.06 0.704,1.122 1.992,2.994 3.864,5.613 1.826,2.575 2.74,5.018 2.74,7.33 0,2.728 -1.145,4.094 -3.434,4.094 -0.881,0 -1.575,-0.199 -2.08,-0.595 -0.618,-0.463 -0.925,-1.024 -0.925,-1.684 0,-0.419 0.263,-0.749 0.793,-0.991 0.88,-0.396 1.32,-1.034 1.32,-1.915 0,-1.211 -0.661,-1.816 -1.981,-1.816 -0.75,0 -1.334,0.252 -1.753,0.759 -0.42,0.506 -0.629,1.134 -0.629,1.882 0,1.762 0.606,3.126 1.82,4.095 1.123,0.885 2.587,1.327 4.393,1.327 1.849,0 3.368,-0.55 4.557,-1.649 1.166,-1.078 1.739,-2.529 1.717,-4.354 C -0.342,9.56 -1.96,7.042 -5.151,3.986 -8.476,0.819 -10.402,-1.809 -10.932,-3.896 h 6.177 c 1.893,0 3.126,1.298 3.698,3.896 z"
         style="fill:#231f20;fill-opacity:1;fill-rule:nonzero;stroke:none"
         transform="matrix(1.3333333,0,0,-1.3333333,409.96227,79.725467)"
         clip-path="url(#clipPath21)" />
      <path
         id="path22"
         d="m 0,0 c -3.17,-4.488 -4.755,-9.274 -4.755,-14.36 0,-0.837 0.044,-1.762 0.132,-2.774 0.088,-1.013 0.132,-1.751 0.132,-2.213 0,-1.74 -0.657,-2.653 -1.97,-2.741 -1.488,0.088 -2.231,1.21 -2.231,3.368 0,2.489 0.579,5.274 1.739,8.356 1.312,3.544 3.014,6.835 5.104,9.874 h -6.286 c -2.133,0 -3.409,-1.355 -3.827,-4.063 h -0.925 l 0.661,6.875 12.226,0 z"
         style="fill:#231f20;fill-opacity:1;fill-rule:nonzero;stroke:none"
         transform="matrix(1.3333333,0,0,-1.3333333,432.47653,60.433867)"
         clip-path="url(#clipPath23)" />
      <path
         id="path24"
         d="m 0,0 c 0,4.491 -0.342,7.75 -1.024,9.775 -0.618,1.299 -1.323,1.949 -2.116,1.949 -0.904,0 -1.609,-0.65 -2.115,-1.949 C -5.96,7.97 -6.313,4.711 -6.313,0 c 0,-4.271 0.353,-7.375 1.058,-9.313 0.418,-1.189 1.079,-1.816 1.984,-1.881 0.902,0.065 1.596,0.637 2.082,1.716 C -0.396,-6.946 0,-3.787 0,0 m 3.438,0.006 c 0,-4.161 -0.75,-7.408 -2.248,-9.742 -1.278,-1.652 -2.721,-2.533 -4.33,-2.642 -1.763,0.109 -3.173,0.902 -4.23,2.378 -1.587,2.18 -2.38,5.515 -2.38,10.006 0,4.513 0.661,7.859 1.983,10.039 1.079,1.827 2.621,2.741 4.627,2.741 1.873,0 3.361,-0.914 4.462,-2.741 1.41,-2.29 2.116,-5.637 2.116,-10.039"
         style="fill:#231f20;fill-opacity:1;fill-rule:nonzero;stroke:none"
         transform="matrix(1.3333333,0,0,-1.3333333,450.5872,73.3856)"
         clip-path="url(#clipPath25)" />
      <path
         id="path26"
         d="m 0,0 c 0,-0.551 -0.177,-1.024 -0.528,-1.42 -0.33,-0.375 -0.76,-0.561 -1.288,-0.561 -0.529,0 -1.013,0.318 -1.454,0.957 l -2.785,4.161 c 0.977,-4.711 1.465,-7.21 1.465,-7.496 0,-0.463 -0.134,-0.904 -0.399,-1.322 -0.422,-0.418 -0.856,-0.627 -1.299,-0.627 -1.243,0 -1.864,0.694 -1.864,2.08 0,0.374 0.484,2.83 1.453,7.365 l -2.51,-3.93 c -0.507,-0.793 -1.079,-1.188 -1.717,-1.188 -1.233,0 -1.849,0.66 -1.849,1.981 0,0.77 0.484,1.386 1.453,1.849 l 4.491,2.081 -4.326,1.981 c -1.079,0.506 -1.618,1.211 -1.618,2.113 0,0.55 0.175,1.001 0.528,1.354 0.33,0.33 0.77,0.496 1.321,0.496 0.638,0 1.21,-0.396 1.717,-1.189 l 2.51,-3.93 c -0.969,4.557 -1.453,7.089 -1.453,7.596 0,0.528 0.176,0.968 0.532,1.321 0.355,0.351 0.799,0.528 1.332,0.528 0.422,0 0.854,-0.177 1.299,-0.528 0.353,-0.353 0.531,-0.793 0.531,-1.321 0,-0.221 -0.532,-2.752 -1.597,-7.596 l 2.522,3.798 c 0.594,0.881 1.21,1.321 1.848,1.321 0.506,0 0.947,-0.221 1.322,-0.661 C -0.121,8.839 0,8.442 0,8.024 0,7.122 -0.342,6.517 -1.023,6.208 L -5.922,3.93 -1.288,1.849 C -0.43,1.431 0,0.814 0,0"
         style="fill:#231f20;fill-opacity:1;fill-rule:nonzero;stroke:none"
         transform="matrix(1.3333333,0,0,-1.3333333,477.24867,78.771067)"
         clip-path="url(#clipPath27)" />
      <path
         id="path28"
         d="m 0,0 c -3.17,-4.488 -4.755,-9.274 -4.755,-14.36 0,-0.837 0.044,-1.762 0.132,-2.774 0.088,-1.013 0.132,-1.751 0.132,-2.213 0,-1.74 -0.657,-2.653 -1.97,-2.741 -1.488,0.088 -2.231,1.21 -2.231,3.368 0,2.489 0.579,5.274 1.739,8.356 1.312,3.544 3.014,6.835 5.104,9.874 h -6.286 c -2.133,0 -3.409,-1.355 -3.827,-4.063 h -0.925 l 0.661,6.875 12.226,0 z"
         style="fill:#231f20;fill-opacity:1;fill-rule:nonzero;stroke:none"
         transform="matrix(1.3333333,0,0,-1.3333333,500.10813,60.433867)"
         clip-path="url(#clipPath29)" />
      <path
         id="path30"
         d="m 0,0 c -0.045,-2.973 -0.914,-5.24 -2.608,-6.803 -1.322,-0.902 -2.775,-1.398 -4.36,-1.486 -1.651,0.088 -2.962,0.584 -3.931,1.486 -0.971,0.903 -1.456,2.015 -1.456,3.335 0,1.013 0.264,1.75 0.793,2.213 0.397,0.44 0.882,0.66 1.457,0.66 0.593,0 1.067,-0.22 1.419,-0.66 0.176,-0.308 0.32,-0.716 0.43,-1.222 -0.133,-0.705 -0.528,-1.277 -1.188,-1.716 -0.442,-0.265 -0.661,-0.551 -0.661,-0.86 0,-0.551 0.219,-1.002 0.661,-1.353 0.681,-0.595 1.419,-0.892 2.212,-0.892 1.012,0 1.849,0.495 2.509,1.486 0.705,1.409 1.058,3.192 1.058,5.35 0,4.358 -1.046,6.538 -3.138,6.538 -1.475,0 -2.753,-0.737 -3.832,-2.212 l -0.927,0.099 0.431,12.176 h 10.239 v -2.938 h -9.114 L -10.37,5.528 c 1.541,1.366 3.027,2.048 4.459,2.048 1.915,0 3.412,-0.808 4.491,-2.425 C -0.451,3.72 0.021,2.003 0,0"
         style="fill:#231f20;fill-opacity:1;fill-rule:nonzero;stroke:none"
         transform="matrix(1.3333333,0,0,-1.3333333,522.36067,78.855733)"
         clip-path="url(#clipPath31)" />
    </g>
  </g>
</svg>
