<?xml version="1.0" encoding="UTF-8" standalone="no"?>
<!-- Created with Inkscape (http://www.inkscape.org/) -->

<svg
   version="1.1"
   id="svg1"
   width="514.55603"
   height="898.09198"
   viewBox="0 0 514.55603 898.09198"
   sodipodi:docname="12529032.svg"
   inkscape:version="1.4.2 (f4327f4, 2025-05-13)"
   xmlns:inkscape="http://www.inkscape.org/namespaces/inkscape"
   xmlns:sodipodi="http://sodipodi.sourceforge.net/DTD/sodipodi-0.dtd"
   xmlns="http://www.w3.org/2000/svg"
   xmlns:svg="http://www.w3.org/2000/svg">
  <defs
     id="defs1">
    <clipPath
       clipPathUnits="userSpaceOnUse"
       id="clipPath4">
      <path
         d="M 0,673.569 H 385.917 V 0 H 0 Z"
         transform="translate(-21.656301,-671.00682)"
         id="path4" />
    </clipPath>
    <clipPath
       clipPathUnits="userSpaceOnUse"
       id="clipPath6">
      <path
         d="M 0,673.569 H 385.917 V 0 H 0 Z"
         transform="translate(-46.524901,-647.91312)"
         id="path6" />
    </clipPath>
    <clipPath
       clipPathUnits="userSpaceOnUse"
       id="clipPath8">
      <path
         d="M 0,673.569 H 385.917 V 0 H 0 Z"
         transform="translate(-73.518602,-648.38182)"
         id="path8" />
    </clipPath>
    <clipPath
       clipPathUnits="userSpaceOnUse"
       id="clipPath10">
      <path
         d="M 0,673.569 H 385.917 V 0 H 0 Z"
         transform="translate(-94.5283,-647.60162)"
         id="path10" />
    </clipPath>
    <clipPath
       clipPathUnits="userSpaceOnUse"
       id="clipPath12">
      <path
         d="M 0,673.569 H 385.917 V 0 H 0 Z"
         id="path12" />
    </clipPath>
    <clipPath
       clipPathUnits="userSpaceOnUse"
       id="clipPath14">
      <path
         d="M 0,673.569 H 385.917 V 0 H 0 Z"
         transform="translate(-152.20311,-669.15332)"
         id="path14" />
    </clipPath>
    <clipPath
       clipPathUnits="userSpaceOnUse"
       id="clipPath16">
      <path
         d="M 0,673.569 H 385.917 V 0 H 0 Z"
         transform="translate(-173.8843,-663.37402)"
         id="path16" />
    </clipPath>
    <clipPath
       clipPathUnits="userSpaceOnUse"
       id="clipPath18">
      <path
         d="M 0,673.569 H 385.917 V 0 H 0 Z"
         transform="translate(-285.79251,-474.12011)"
         id="path18" />
    </clipPath>
    <clipPath
       clipPathUnits="userSpaceOnUse"
       id="clipPath20">
      <path
         d="M 0,673.569 H 385.917 V 0 H 0 Z"
         transform="translate(-223.94871,-143.76171)"
         id="path20" />
    </clipPath>
  </defs>
  <sodipodi:namedview
     id="namedview1"
     pagecolor="#ffffff"
     bordercolor="#000000"
     borderopacity="0.25"
     inkscape:showpageshadow="2"
     inkscape:pageopacity="0.0"
     inkscape:pagecheckerboard="0"
     inkscape:deskcolor="#d1d1d1"
     inkscape:zoom="0.98542245"
     inkscape:cx="257.75747"
     inkscape:cy="448.0312"
     inkscape:window-width="1920"
     inkscape:window-height="1017"
     inkscape:window-x="-8"
     inkscape:window-y="-8"
     inkscape:window-maximized="1"
     inkscape:current-layer="g1">
    <inkscape:page
       x="0"
       y="0"
       inkscape:label="1"
       id="page1"
       width="514.55603"
       height="898.09198"
       margin="0"
       bleed="0" />
  </sodipodi:namedview>
  <g
     id="g1"
     inkscape:groupmode="layer"
     inkscape:label="1">
    <g
       id="group-MC0">
      <path
         id="path2"
         d="M 136.484,0 H 385.917 V 600.946 H 136.484 Z"
         style="fill:#ffffff;fill-opacity:1;fill-rule:nonzero;stroke:none"
         transform="matrix(1.3333333,0,0,-1.3333333,0,898.092)" />
      <path
         id="path3"
         d="m 0,0 c -1.719,0 -2.578,-0.797 -2.578,-2.391 v -29.812 h -1.129 l -13.684,27.562 v -23.437 c 0,-1.656 0.938,-2.531 2.813,-2.625 v -1.5 h -7.078 v 1.5 c 1.687,0.094 2.609,0.969 2.765,2.625 v 25.5 c 0,1.719 -0.922,2.578 -2.765,2.578 v 1.5 h 6.527 l 11.051,-21 V -2.391 C -4.234,-0.797 -5.172,0 -6.891,0 V 1.5 H 0 Z"
         style="fill:#231f20;fill-opacity:1;fill-rule:nonzero;stroke:none"
         transform="matrix(1.3333333,0,0,-1.3333333,28.875067,3.4162667)"
         clip-path="url(#clipPath4)" />
      <path
         id="path5"
         d="M 0,0 C -0.031,-2.656 -0.906,-4.891 -2.625,-6.703 -4.438,-8.203 -6.563,-9 -9,-9.094 c -0.938,-0.031 -1.922,0.141 -2.953,0.516 -1.281,0.469 -2.344,0.703 -3.186,0.703 -0.933,0 -1.679,-0.406 -2.239,-1.219 l -1.122,9.797 1.309,0.328 c 0.683,-2.562 1.43,-4.344 2.239,-5.344 1.749,-2.093 3.733,-3.171 5.952,-3.234 1.687,-0.031 3.016,0.5 3.984,1.594 0.875,1.062 1.297,2.484 1.266,4.265 -0.063,2.719 -2.438,5.813 -7.125,9.282 -4.834,3.656 -7.25,7.094 -7.25,10.312 0,2.313 0.762,4.188 2.287,5.625 1.527,1.416 3.447,2.125 5.76,2.125 0.906,0 2.078,-0.269 3.515,-0.807 0.688,-0.254 1.25,-0.38 1.688,-0.38 0.344,0 1.094,0.39 2.25,1.172 l 1.125,-8.907 -1.125,-0.14 c -1.469,5 -4.031,7.5 -7.688,7.5 -1.125,0 -2.125,-0.406 -3,-1.219 -0.875,-0.812 -1.312,-1.891 -1.312,-3.234 0,-2.032 2.453,-4.969 7.359,-8.813 C -2.391,7.016 0.031,3.406 0,0"
         style="fill:#231f20;fill-opacity:1;fill-rule:nonzero;stroke:none"
         transform="matrix(1.3333333,0,0,-1.3333333,62.0332,34.207867)"
         clip-path="url(#clipPath6)" />
      <path
         id="path7"
         d="m 0,0 -1.5,-9.563 h -18.844 v 1.5 h 0.703 c 1.75,0 2.625,1 2.625,2.999 V 19.86 c 0,1.843 -1.109,2.765 -3.328,2.765 v 1.5 h 11.766 v -1.5 c -2.375,0 -3.563,-0.922 -3.563,-2.765 V -5.064 c 0,-1.999 0.86,-2.999 2.578,-2.999 h 1.5 c 2.657,0 4.954,2.688 6.891,8.063 z"
         style="fill:#231f20;fill-opacity:1;fill-rule:nonzero;stroke:none"
         transform="matrix(1.3333333,0,0,-1.3333333,98.0248,33.582933)"
         clip-path="url(#clipPath8)" />
      <path
         id="path9"
         d="M 0,0 C 0,3.244 -0.426,5.411 -1.276,6.503 -2.379,7.938 -4.033,8.655 -6.238,8.655 H -7.75 V -4.678 c 0,-1.778 0.692,-2.667 2.079,-2.667 h 0.992 c 1.418,0 2.552,0.515 3.403,1.544 C -0.426,-4.46 0,-2.526 0,0 m -0.75,15.956 c 0,2.551 -0.441,4.525 -1.324,5.926 -0.852,1.056 -1.719,1.586 -2.602,1.586 h -0.993 c -1.388,0 -2.081,-0.747 -2.081,-2.239 V 10.03 h 2.081 c 3.279,0 4.919,1.975 4.919,5.926 m 6,-15.836 c 0,-2.436 -0.956,-4.639 -2.867,-6.606 -1.88,-1.532 -4.23,-2.296 -7.05,-2.296 h -10.661 v 1.437 h 0.515 c 1.469,0 2.282,0.826 2.438,2.479 v 26.09 c -0.156,1.496 -0.906,2.244 -2.25,2.244 h -0.703 v 1.437 h 9.487 c 3.447,0 5.97,-0.765 7.569,-2.296 1.597,-1.562 2.397,-3.53 2.397,-5.903 0,-2.343 -0.75,-4.154 -2.25,-5.435 C 0.406,10.302 -1.203,9.662 -2.953,9.35 -1.141,9.131 0.594,8.429 2.25,7.241 c 2,-1.406 3,-3.779 3,-7.121"
         style="fill:#231f20;fill-opacity:1;fill-rule:nonzero;stroke:none"
         transform="matrix(1.3333333,0,0,-1.3333333,126.03773,34.6232)"
         clip-path="url(#clipPath10)" />
      <path
         id="path11"
         d="m 126.288,653.507 h -19.5 v 3.063 h 19.5 z"
         style="fill:#231f20;fill-opacity:1;fill-rule:nonzero;stroke:none"
         transform="matrix(1.3333333,0,0,-1.3333333,0,898.092)"
         clip-path="url(#clipPath12)" />
      <path
         id="path13"
         d="m 0,0 c -4.5,-6.379 -6.75,-13.178 -6.75,-20.396 0,-1.188 0.062,-2.5 0.187,-3.938 0.125,-1.437 0.188,-2.484 0.188,-3.141 0,-2.468 -0.938,-3.765 -2.813,-3.89 -2.125,0.125 -3.187,1.719 -3.187,4.781 0,3.531 0.828,7.484 2.484,11.859 1.875,5.032 4.297,9.704 7.266,14.016 h -8.953 c -3.031,0 -4.844,-1.922 -5.438,-5.766 h -1.312 l 0.937,9.829 17.391,0 z"
         style="fill:#231f20;fill-opacity:1;fill-rule:nonzero;stroke:none"
         transform="matrix(1.3333333,0,0,-1.3333333,202.93747,5.8876)"
         clip-path="url(#clipPath14)" />
      <path
         id="path15"
         d="M 0,0 C -0.063,2.674 -0.625,4.726 -1.688,6.156 -2.625,7.182 -3.609,7.695 -4.641,7.695 H -5.625 C -7,7.695 -7.688,6.918 -7.688,5.363 V -7.742 h 2.297 c 1.938,0 3.391,0.854 4.36,2.565 C -0.281,-3.81 0.063,-2.084 0,0 m 5.219,-0.133 c -0.125,-2.496 -1,-4.617 -2.625,-6.364 -1.969,-1.747 -4.453,-2.62 -7.453,-2.62 H -7.906 V -20.87 c 0,-1.498 0.89,-2.247 2.672,-2.247 h 0.703 v -1.438 h -10.953 v 1.438 h 0.703 c 1.343,0 2.093,0.748 2.25,2.244 v 26.23 c 0,1.559 -0.75,2.338 -2.25,2.338 h -0.703 v 1.438 h 10.625 c 2.968,0 5.453,-0.921 7.453,-2.761 1.625,-1.467 2.5,-3.635 2.625,-6.505"
         style="fill:#231f20;fill-opacity:1;fill-rule:nonzero;stroke:none"
         transform="matrix(1.3333333,0,0,-1.3333333,231.84573,13.593333)"
         clip-path="url(#clipPath16)" />
      <path
         id="path17"
         d="M 0,0 C 3.99,0.917 8.057,1.227 12.201,0.922 L 11.047,7.134 10.588,8.747 9.207,10.129 H 6.217 C 1.918,9.819 -1.996,8.516 -5.521,6.216 -8.903,3.299 -10.51,-0.31 -10.357,-4.604 Z m -4.469,-17.723 c 5.061,1.536 10.278,2.531 15.649,2.995 v 7.362 c -7.366,-1.692 -14.655,-3.532 -21.86,-5.522 v -6.216 z m 2.328,-13.118 12.661,2.994 v 4.83 c -7.211,-2.608 -14.5,-4.376 -21.861,-5.294 l -0.922,-6.443 z m -2.463,-36.136 5.985,-1.376 c 2.764,4.444 5.217,9.279 7.367,14.496 l 0.459,1.155 -0.92,0.918 H 6.676 c -9.362,-0.155 -16.342,-4.218 -20.945,-12.196 3.223,-1.079 6.445,-2.079 9.665,-2.997 m -12.195,-18.18 c 3.835,1.841 7.748,3.836 11.736,5.985 -5.216,1.072 -10.206,2.531 -14.959,4.371 -3.685,-4.144 -6.983,-8.438 -9.896,-12.887 4.449,0.155 8.819,0.996 13.119,2.531 M 5.527,35.901 c 5.983,4.146 12.659,5.83 20.026,5.068 5.06,-0.774 9.89,-2.458 14.5,-5.068 4.595,-2.148 5.9,-5.371 3.912,-9.665 -5.682,-1.994 -11.512,-1.994 -17.494,0 C 20.484,27.31 14.654,27.159 8.979,25.778 6.83,22.706 4.68,19.794 2.535,17.03 c 3.373,1.382 6.826,2.686 10.358,3.913 2.912,0 5.673,-0.845 8.283,-2.531 3.836,-1.846 7.211,-4.299 10.129,-7.366 1.381,-1.691 2.22,-3.608 2.531,-5.752 -0.77,-2.15 -1.764,-4.145 -2.99,-5.984 -0.155,-4.759 -0.006,-9.44 0.459,-14.038 v -10.819 c 0.763,-5.682 -0.157,-10.898 -2.764,-15.65 -5.68,-3.227 -10.742,-2.382 -15.189,2.531 -3.991,-1.536 -7.289,-3.835 -9.899,-6.902 5.217,2.454 10.588,2.835 16.113,1.15 4.754,-2.764 8.821,-6.372 12.198,-10.815 l 0.459,-0.923 -0.459,-1.614 -4.371,-4.371 c -1.381,-4.299 -2.997,-8.361 -4.836,-12.196 7.211,-3.226 13.732,-7.52 19.562,-12.892 5.063,-3.834 7.979,-8.748 8.748,-14.727 0.305,-5.066 -1.994,-8.134 -6.902,-9.206 -6.754,1.072 -12.125,4.675 -16.113,10.814 -5.063,4.449 -10.434,8.362 -16.11,11.738 -6.293,-4.908 -13.273,-7.67 -20.944,-8.284 -8.133,-0.309 -15.577,1.609 -22.325,5.752 -1.845,-2.607 -4.298,-3.757 -7.366,-3.448 l -1.381,0.459 -1.609,1.15 c -2.149,3.067 -3.453,6.443 -3.912,10.128 -0.618,2.609 -0.083,4.985 1.608,7.134 3.373,2.145 6.29,4.908 8.748,8.284 2.454,3.222 5.211,6.289 8.284,9.206 -7.521,-0.154 -14.041,2.299 -19.563,7.367 v 1.382 l 1.382,0.69 c 3.681,0.917 7.284,2.222 10.815,3.912 3.679,1.382 7.288,3.145 10.819,5.294 -1.845,4.14 -1.995,8.355 -0.459,12.655 0.609,6.289 1.067,12.66 1.377,19.103 -0.155,6.598 -2.454,12.583 -6.903,17.955 3.836,-0.923 7.439,-2.537 10.816,-4.835 3.835,3.989 7.063,8.515 9.669,13.576 -3.835,-2.607 -7.902,-3.221 -12.201,-1.84 -3.835,1.382 -7.211,3.454 -10.124,6.217 l 0.459,1.608 1.381,0.464 c 11.815,3.068 23.554,6.593 35.214,10.582 m -58.92,-92.515 c -0.155,-9.517 -0.155,-18.878 0,-28.078 1.381,-4.145 2.073,-8.367 2.073,-12.662 l -0.464,-1.612 -1.609,-0.918 -0.921,-0.923 c -8.439,2.3 -12.965,7.67 -13.578,16.115 1.225,7.361 1.988,14.881 2.298,22.551 -5.062,-6.598 -10.434,-12.814 -16.109,-18.639 -1.995,-2.459 -4.371,-4.299 -7.133,-5.527 -5.836,0.46 -9.748,3.527 -11.738,9.206 -2.454,3.836 -2.763,7.899 -0.922,12.198 3.221,5.215 6.901,10.201 11.046,14.958 3.68,5.062 7.593,9.975 11.738,14.732 -5.063,0.304 -9.743,1.764 -14.037,4.372 -3.834,3.068 -7.443,6.521 -10.819,10.356 8.741,1.995 17.031,5.371 24.856,10.129 7.824,5.215 14.809,11.427 20.948,18.644 0.608,5.366 0.763,10.887 0.459,16.567 0.608,5.675 -0.159,11.202 -2.304,16.574 l 1.381,0.458 c 6.289,-1.073 11.661,-3.991 16.114,-8.742 2.913,-3.073 4.52,-6.676 4.83,-10.821 0.308,-4.144 0.155,-8.206 -0.458,-12.195 4.448,-4.3 6.596,-9.361 6.443,-15.192 -1.383,-2.608 -3.15,-4.68 -5.295,-6.216 -2.149,-1.84 -3.989,-3.835 -5.52,-5.98 l -3.454,-8.748 c 5.062,2.3 10.278,4.604 15.65,6.903 -3.835,-4.449 -7.599,-8.82 -11.278,-13.119 -4.145,-3.835 -7.516,-8.056 -10.124,-12.655 -0.923,-3.99 -1.614,-7.902 -2.073,-11.736"
         style="fill:#231f20;fill-opacity:1;fill-rule:nonzero;stroke:none"
         transform="matrix(1.3333333,0,0,-1.3333333,381.05667,265.93187)"
         clip-path="url(#clipPath18)"
         inkscape:label="path17" />
      <path
         id="path19"
         d="m 0,0 c 9.207,2.047 18.259,4.611 27.162,7.691 0,8.059 0.071,16.196 0.226,24.403 L 19.33,23.299 C 12.422,15.826 5.98,8.055 0,0 M 50.404,92.332 C 48.558,86.756 47.64,81.189 47.64,75.625 c 3.068,1.025 6.212,1.975 9.438,2.855 3.217,0 6.057,-1.027 8.516,-3.078 4.597,-4.105 8.82,-8.502 12.66,-13.189 3.217,-3.662 3.217,-7.184 0,-10.551 C 76.1,50.34 73.801,49.607 71.348,49.459 65.207,47.846 59.146,46.086 53.167,44.186 59.299,37.736 66.131,31.945 73.65,26.82 80.703,21.248 87.836,15.75 95.055,10.33 c 5.215,-2.935 9.818,-6.598 13.808,-10.99 4.752,-6.451 7.213,-13.561 7.366,-21.326 -0.463,-0.59 -0.924,-1.102 -1.381,-1.541 -0.619,-0.149 -1.155,-0.217 -1.614,-0.217 -9.361,-0.295 -17.877,2.049 -25.546,7.033 -7.366,4.834 -13.428,10.846 -18.182,18.025 -3.225,4.688 -6.526,9.307 -9.897,13.852 -4.757,5.859 -9.593,11.723 -14.5,17.586 0,-7.035 0.078,-13.924 0.232,-20.664 4.45,0 8.438,-1.467 11.97,-4.397 3.371,-2.638 5.443,-6.009 6.212,-10.113 -0.31,-1.025 -0.615,-2.055 -0.923,-3.078 -0.614,-0.443 -1.073,-0.732 -1.375,-0.877 -4.914,-1.615 -9.75,-3.15 -14.502,-4.617 -0.155,-8.5 0.228,-16.928 1.15,-25.279 1.071,-9.239 -2.077,-16.637 -9.439,-22.207 -6.752,-1.463 -11.356,1.101 -13.809,7.695 -2.764,6.883 -6.676,13.187 -11.737,18.908 2.299,-1.467 4.906,-2.059 7.824,-1.764 2.763,0.297 4.836,1.618 6.217,3.959 0.154,4.836 0.233,9.819 0.233,14.95 -5.682,-1.762 -11.131,-1.541 -16.347,0.66 -5.062,2.195 -9.433,5.271 -13.114,9.23 -4.608,-4.252 -9.747,-7.621 -15.422,-10.113 -6.294,-2.051 -12.506,-2.199 -18.64,-0.438 -0.464,0.291 -0.845,0.729 -1.155,1.321 -0.154,0.437 -0.226,0.875 -0.226,1.318 4.138,8.938 9.737,17.147 16.799,24.625 6.288,7.764 12.428,15.75 18.412,23.961 -7.675,3.811 -13.891,9.231 -18.644,16.268 -0.155,0.437 -0.227,0.875 -0.227,1.316 h 1.382 c 8.433,0 16.566,1.762 24.391,5.281 7.826,2.344 15.496,5.42 23.017,9.233 -0.31,6.884 -0.382,13.845 -0.226,20.886 0.607,7.327 -1.001,14.215 -4.836,20.666 v 1.315 c 0.304,0.437 0.613,1.023 0.923,1.762 0.453,0 0.989,0.068 1.607,0.218 5.831,-0.734 10.97,-3.006 15.424,-6.816 4.907,-3.662 8.278,-8.209 10.124,-13.629"
         style="fill:#231f20;fill-opacity:1;fill-rule:nonzero;stroke:none"
         transform="matrix(1.3333333,0,0,-1.3333333,298.59827,706.40973)"
         clip-path="url(#clipPath20)"
         inkscape:label="path19" />
    </g>
  </g>
</svg>
