<?xml version="1.0" encoding="UTF-8" standalone="no"?>
<!-- Created with Inkscape (http://www.inkscape.org/) -->

<svg
   version="1.1"
   id="svg1"
   width="288.57867"
   height="507.78934"
   viewBox="0 0 288.57867 507.78934"
   sodipodi:docname="12537523.svg"
   inkscape:version="1.4.2 (f4327f4, 2025-05-13)"
   xmlns:inkscape="http://www.inkscape.org/namespaces/inkscape"
   xmlns:sodipodi="http://sodipodi.sourceforge.net/DTD/sodipodi-0.dtd"
   xmlns="http://www.w3.org/2000/svg"
   xmlns:svg="http://www.w3.org/2000/svg">
  <defs
     id="defs1">
    <clipPath
       clipPathUnits="userSpaceOnUse"
       id="clipPath3">
      <path
         d="M 0,380.842 H 216.434 V 0 H 0 Z"
         transform="translate(-210.26461,-380.34181)"
         id="path3" />
    </clipPath>
    <clipPath
       clipPathUnits="userSpaceOnUse"
       id="clipPath5">
      <path
         d="M 0,380.842 H 216.434 V 0 H 0 Z"
         transform="translate(-116.6494,-277.30321)"
         id="path5" />
    </clipPath>
    <clipPath
       clipPathUnits="userSpaceOnUse"
       id="clipPath7">
      <path
         d="M 0,380.842 H 216.434 V 0 H 0 Z"
         transform="translate(-111.877,-123.04591)"
         id="path7" />
    </clipPath>
  </defs>
  <sodipodi:namedview
     id="namedview1"
     pagecolor="#ffffff"
     bordercolor="#000000"
     borderopacity="0.25"
     inkscape:showpageshadow="2"
     inkscape:pageopacity="0.0"
     inkscape:pagecheckerboard="0"
     inkscape:deskcolor="#d1d1d1"
     inkscape:zoom="1.7428487"
     inkscape:cx="144.59086"
     inkscape:cy="253.89467"
     inkscape:window-width="1920"
     inkscape:window-height="1017"
     inkscape:window-x="-8"
     inkscape:window-y="-8"
     inkscape:window-maximized="1"
     inkscape:current-layer="g1">
    <inkscape:page
       x="0"
       y="0"
       inkscape:label="1"
       id="page1"
       width="288.57867"
       height="507.78934"
       margin="0"
       bleed="0" />
  </sodipodi:namedview>
  <g
     id="g1"
     inkscape:groupmode="layer"
     inkscape:label="1">
    <g
       id="group-MC0">
      <path
         id="path2"
         d="M 0,0 H -209.765 V -379.842 H 5.669 L 5.669,0 Z"
         style="fill:none;stroke:#2f2621;stroke-width:1;stroke-linecap:butt;stroke-linejoin:miter;stroke-miterlimit:4;stroke-dasharray:none;stroke-opacity:1"
         transform="matrix(1.3333333,0,0,-1.3333333,280.3528,0.66693333)"
         clip-path="url(#clipPath3)" />
      <path
         id="path4"
         d="M 0,0 C 0,0.313 0.024,0.76 0.078,1.337 0.13,1.913 0.272,2.478 0.511,3.028 0.744,3.579 1.149,4.076 1.726,4.521 2.301,4.965 3.085,5.189 4.08,5.189 5.179,5.189 6.001,4.979 6.551,4.561 7.1,4.142 7.52,3.657 7.807,3.107 8.096,2.556 8.265,1.979 8.317,1.375 8.368,0.773 8.396,0.313 8.396,0 V -6.999 H 26.01 c 0.312,0 0.759,-0.092 1.337,-0.278 0.576,-0.186 0.866,-0.702 0.866,-1.547 0,-0.9 -0.304,-1.443 -0.906,-1.629 -0.604,-0.186 -1.036,-0.277 -1.297,-0.277 H 8.396 v -11.195 h 8.417 c 2.832,0 4.877,-0.557 6.137,-1.672 1.257,-1.115 1.887,-2.954 1.887,-5.519 v -24.769 c 0,-2.725 -0.692,-4.6 -2.081,-5.623 -1.386,-1.022 -3.36,-1.532 -5.925,-1.532 h -4.717 c -0.421,0 -0.904,0.091 -1.455,0.275 -0.551,0.182 -0.826,0.694 -0.826,1.532 0,0.892 0.288,1.403 0.866,1.535 0.575,0.131 1.598,0.247 3.066,0.353 1.309,0.052 2.123,0.379 2.438,0.982 0.314,0.603 0.473,1.428 0.473,2.478 v 24.769 c 0,1.363 -0.212,2.279 -0.631,2.751 -0.422,0.472 -1.366,0.709 -2.84,0.709 H 8.396 v -38.293 c 0,-0.315 -0.028,-0.76 -0.079,-1.338 -0.052,-0.574 -0.21,-1.139 -0.471,-1.692 -0.263,-0.548 -0.667,-1.019 -1.216,-1.415 -0.551,-0.391 -1.373,-0.588 -2.473,-0.588 -0.994,0 -1.778,0.197 -2.353,0.588 -0.575,0.396 -0.993,0.853 -1.255,1.377 -0.264,0.525 -0.419,1.091 -0.471,1.691 C 0.024,-64.723 0,-64.264 0,-63.949 v 38.293 h -4.811 c -1.472,0 -2.419,-0.237 -2.838,-0.709 -0.421,-0.472 -0.631,-1.388 -0.631,-2.751 v -27.522 c 0,-0.368 -0.027,-0.825 -0.078,-1.376 -0.053,-0.55 -0.209,-1.114 -0.468,-1.691 -0.261,-0.575 -0.651,-1.06 -1.172,-1.454 -0.521,-0.393 -1.303,-0.59 -2.343,-0.59 -0.991,0 -1.745,0.197 -2.266,0.59 -0.521,0.394 -0.914,0.879 -1.172,1.454 -0.261,0.577 -0.417,1.154 -0.469,1.732 -0.052,0.576 -0.078,1.022 -0.078,1.335 v 27.522 c 0,2.773 0.693,4.664 2.079,5.676 1.387,1.009 3.362,1.515 5.927,1.515 H 0 v 11.195 h -17.299 c -0.368,0 -0.84,0.106 -1.415,0.317 -0.578,0.211 -0.866,0.742 -0.866,1.589 0,0.845 0.288,1.361 0.866,1.547 0.575,0.186 1.047,0.278 1.415,0.278 l 17.299,0 z m -26.821,-64.101 c 0,-0.313 -0.027,-0.747 -0.078,-1.297 -0.053,-0.551 -0.197,-1.088 -0.43,-1.613 -0.235,-0.525 -0.625,-0.982 -1.171,-1.377 -0.547,-0.392 -1.316,-0.589 -2.306,-0.589 -0.885,0 -1.601,0.146 -2.148,0.432 -0.546,0.29 -0.963,0.67 -1.25,1.141 -0.285,0.473 -0.468,1.011 -0.546,1.612 -0.078,0.604 -0.117,1.166 -0.117,1.691 v 28.857 c -0.838,-1.678 -1.769,-3.369 -2.791,-5.072 -1.022,-1.704 -2.005,-3.223 -2.948,-4.56 -0.944,-1.338 -1.822,-2.425 -2.635,-3.264 -0.813,-0.838 -1.428,-1.257 -1.847,-1.257 -0.419,0 -0.84,0.169 -1.259,0.51 -0.419,0.341 -0.629,0.8 -0.629,1.376 0,0.105 0.222,0.564 0.669,1.377 0.444,0.813 0.916,1.703 1.415,2.674 0.498,0.969 0.995,1.897 1.495,2.79 0.497,0.892 0.85,1.52 1.06,1.888 1.153,2.358 2.137,4.69 2.95,6.996 0.812,2.307 1.479,4.495 2.004,6.567 0.525,2.07 0.944,3.918 1.259,5.543 0.313,1.625 0.522,2.935 0.628,3.932 h -8.176 c -0.422,0 -0.906,0.116 -1.456,0.35 -0.551,0.233 -0.826,0.738 -0.826,1.516 0,0.775 0.288,1.282 0.866,1.516 0.575,0.233 1.047,0.35 1.416,0.35 h 8.805 V 0.334 c 0,0.262 0.025,0.681 0.079,1.257 0.051,0.575 0.195,1.125 0.43,1.65 0.233,0.526 0.61,0.997 1.131,1.416 0.521,0.419 1.303,0.631 2.345,0.631 0.987,0 1.757,-0.198 2.303,-0.591 0.547,-0.394 0.951,-0.84 1.211,-1.337 0.26,-0.5 0.416,-1.037 0.469,-1.613 0.051,-0.575 0.078,-1.048 0.078,-1.413 v -12.346 h 5.268 c 0.313,0 0.76,-0.104 1.337,-0.313 0.576,-0.207 0.866,-0.724 0.866,-1.553 0,-0.831 -0.29,-1.349 -0.866,-1.556 -0.577,-0.208 -1.024,-0.31 -1.337,-0.31 h -5.111 c 0.313,-2.516 0.825,-4.901 1.532,-7.155 0.707,-2.256 1.482,-4.288 2.32,-6.095 0.838,-1.807 1.638,-3.38 2.399,-4.717 0.76,-1.338 1.376,-2.32 1.848,-2.948 0.366,-0.525 0.55,-0.997 0.55,-1.416 0,-0.419 -0.144,-0.84 -0.432,-1.259 -0.287,-0.419 -0.746,-0.628 -1.376,-0.628 -0.473,0 -1.023,0.287 -1.652,0.865 -0.628,0.576 -1.257,1.257 -1.885,2.044 -0.631,0.785 -1.26,1.636 -1.888,2.555 -0.631,0.918 -1.154,1.743 -1.573,2.477 z"
         style="fill:#231f20;fill-opacity:1;fill-rule:nonzero;stroke:none"
         transform="matrix(1.3333333,0,0,-1.3333333,155.53253,138.05173)"
         clip-path="url(#clipPath5)"
         inkscape:label="path4" />
      <path
         id="path6"
         d="m 0,0 h 13.132 c 0.365,0 0.824,-0.109 1.375,-0.319 0.55,-0.212 0.827,-0.715 0.827,-1.507 0,-0.847 -0.277,-1.378 -0.827,-1.589 -0.551,-0.212 -1.01,-0.316 -1.375,-0.316 H 0 V -14.27 c 0,-0.47 -0.026,-1.033 -0.078,-1.69 -0.053,-0.655 -0.223,-1.257 -0.51,-1.81 -0.288,-0.547 -0.707,-1.007 -1.255,-1.375 -0.551,-0.366 -1.375,-0.55 -2.471,-0.55 -1.046,0 -1.87,0.184 -2.471,0.55 -0.601,0.368 -1.033,0.828 -1.295,1.375 -0.263,0.553 -0.42,1.155 -0.471,1.81 -0.053,0.657 -0.078,1.22 -0.078,1.69 v 10.539 h -13.21 c -0.368,0 -0.826,0.104 -1.375,0.316 -0.551,0.211 -0.826,0.742 -0.826,1.589 0,0.846 0.288,1.36 0.864,1.547 C -22.6,-0.094 -22.154,0 -21.839,0 h 13.21 v 23.875 c -2.15,-3.941 -4.391,-7.475 -6.724,-10.599 -2.332,-3.127 -4.651,-5.898 -6.958,-8.314 -2.306,-2.416 -4.507,-4.489 -6.605,-6.22 -2.097,-1.731 -3.957,-3.146 -5.582,-4.248 -1.626,-1.1 -2.961,-1.899 -4.011,-2.397 -1.049,-0.499 -1.651,-0.747 -1.806,-0.747 -0.42,0 -0.841,0.157 -1.26,0.471 -0.419,0.315 -0.628,0.761 -0.628,1.338 0,0.471 0.103,0.836 0.313,1.099 0.209,0.263 0.55,0.524 1.024,0.787 1.151,0.787 2.514,1.823 4.089,3.106 1.572,1.283 3.289,2.872 5.15,4.764 1.861,1.89 3.787,4.11 5.778,6.657 1.992,2.547 3.983,5.556 5.976,9.022 0.732,1.261 1.82,3.297 3.264,6.108 1.441,2.81 2.844,6.158 4.206,10.047 h -26.576 c -0.421,0 -0.905,0.091 -1.456,0.274 -0.549,0.183 -0.825,0.667 -0.825,1.456 0,0.889 0.288,1.426 0.864,1.61 0.575,0.182 1.049,0.275 1.417,0.275 h 30.35 v 10.771 c 0,0.47 0.025,1.02 0.078,1.651 0.051,0.63 0.208,1.22 0.471,1.771 0.262,0.549 0.68,1.019 1.254,1.412 0.576,0.394 1.387,0.591 2.433,0.591 1.097,0 1.933,-0.197 2.51,-0.591 0.575,-0.393 1.007,-0.851 1.295,-1.374 0.287,-0.527 0.457,-1.115 0.51,-1.771 C -0.026,50.169 0,49.605 0,49.135 V 38.364 h 30.744 c 0.368,0 0.839,-0.093 1.416,-0.275 0.577,-0.184 0.867,-0.721 0.867,-1.61 0,-0.839 -0.29,-1.338 -0.867,-1.496 -0.577,-0.156 -1.048,-0.234 -1.416,-0.234 H 3.775 c 1.887,-5.256 4.022,-9.983 6.408,-14.185 2.385,-4.202 4.849,-7.944 7.393,-11.227 2.541,-3.283 5.082,-6.093 7.627,-8.429 2.541,-2.336 4.886,-4.264 7.036,-5.785 0.314,-0.209 0.616,-0.46 0.904,-0.747 0.288,-0.287 0.434,-0.669 0.434,-1.139 0,-0.524 -0.184,-0.971 -0.552,-1.337 -0.369,-0.369 -0.788,-0.55 -1.257,-0.55 -0.212,0 -0.906,0.327 -2.084,0.982 -1.182,0.655 -2.662,1.625 -4.443,2.909 -1.783,1.284 -3.761,2.858 -5.936,4.722 C 17.129,1.825 14.888,3.965 12.581,6.381 10.274,8.797 8.047,11.488 5.898,14.457 3.748,17.426 1.781,20.643 0,24.112 Z"
         style="fill:#231f20;fill-opacity:1;fill-rule:nonzero;stroke:none"
         transform="matrix(1.3333333,0,0,-1.3333333,149.16933,343.72813)"
         clip-path="url(#clipPath7)"
         inkscape:label="path6" />
    </g>
  </g>
</svg>
