<?xml version="1.0" encoding="UTF-8" standalone="no"?>
<!-- Created with Inkscape (http://www.inkscape.org/) -->

<svg
   version="1.1"
   id="svg1"
   width="415.74933"
   height="464.62668"
   viewBox="0 0 415.74933 464.62668"
   sodipodi:docname="06098904.svg"
   inkscape:version="1.4.2 (f4327f4, 2025-05-13)"
   xmlns:inkscape="http://www.inkscape.org/namespaces/inkscape"
   xmlns:sodipodi="http://sodipodi.sourceforge.net/DTD/sodipodi-0.dtd"
   xmlns="http://www.w3.org/2000/svg"
   xmlns:svg="http://www.w3.org/2000/svg">
  <defs
     id="defs1">
    <clipPath
       clipPathUnits="userSpaceOnUse"
       id="clipPath4">
      <path
         d="M 0,348.47 H 311.812 V 0 H 0 Z"
         transform="translate(-215.77441,-330.15921)"
         id="path4" />
    </clipPath>
    <clipPath
       clipPathUnits="userSpaceOnUse"
       id="clipPath6">
      <path
         d="M 0,348.47 H 311.812 V 0 H 0 Z"
         transform="translate(-122.44821,-160.9424)"
         id="path6" />
    </clipPath>
  </defs>
  <sodipodi:namedview
     id="namedview1"
     pagecolor="#ffffff"
     bordercolor="#000000"
     borderopacity="0.25"
     inkscape:showpageshadow="2"
     inkscape:pageopacity="0.0"
     inkscape:pagecheckerboard="0"
     inkscape:deskcolor="#d1d1d1"
     inkscape:zoom="1.904755"
     inkscape:cx="207.37575"
     inkscape:cy="231.78834"
     inkscape:window-width="1920"
     inkscape:window-height="1017"
     inkscape:window-x="-8"
     inkscape:window-y="-8"
     inkscape:window-maximized="1"
     inkscape:current-layer="g1">
    <inkscape:page
       x="0"
       y="0"
       inkscape:label="1"
       id="page1"
       width="415.74933"
       height="464.62668"
       margin="0"
       bleed="0" />
  </sodipodi:namedview>
  <g
     id="g1"
     inkscape:groupmode="layer"
     inkscape:label="1">
    <g
       id="group-MC0">
      <path
         id="path2"
         d="M 0,0 H 311.811 V 311.811 H 0 Z"
         style="fill:#ffffff;fill-opacity:1;fill-rule:nonzero;stroke:none"
         transform="matrix(1.3333333,0,0,-1.3333333,0,464.62667)" />
      <path
         id="path3"
         d="m 0,0 v 0.813 c -1.256,0.039 -2.344,0.692 -3.258,1.953 l -5.227,7.181 3.871,5.132 c 0.913,1.248 2.06,1.866 3.431,1.875 h 0.517 v 0.817 h -6.933 v -0.817 h 0.787 c 0.806,-0.009 1.224,-0.357 1.285,-1.062 -0.01,-0.282 -0.183,-0.726 -0.519,-1.304 l -2.909,-3.976 -3.036,4.763 c -0.309,0.422 -0.456,0.752 -0.444,0.987 -0.012,0.383 0.405,0.583 1.231,0.592 h 0.84 v 0.817 h -8.365 v -0.817 c 1.505,-0.009 2.553,-0.457 3.159,-1.357 l 4.789,-7.281 -4.345,-5.354 c -1.11,-1.396 -2.494,-2.11 -4.171,-2.149 V 0 h 7.306 v 0.813 h -0.617 c -1.197,-0.008 -1.788,0.383 -1.78,1.161 -0.008,0.357 0.213,0.827 0.645,1.41 l 3.43,4.219 3.429,-4.446 C -6.61,2.775 -6.429,2.331 -6.315,1.827 -6.39,1.148 -6.92,0.805 -7.895,0.813 H -8.39 L -8.39,0 H 0 M -23.017,9.429 H -40.145 V 7.824 h 17.128 z m -24.039,-5.01 c -0.008,1.887 -0.76,3.257 -2.269,4.119 -0.801,0.469 -1.91,0.804 -3.332,0.987 1.517,0.222 2.726,0.604 3.627,1.161 0.952,0.814 1.423,1.914 1.436,3.306 -0.013,1.422 -0.671,2.531 -1.975,3.336 -1.161,0.652 -2.483,0.974 -3.976,0.983 -1.456,-0.009 -2.714,-0.405 -3.774,-1.183 -0.962,-0.727 -1.445,-1.618 -1.432,-2.64 -0.013,-0.557 0.121,-1.001 0.396,-1.357 0.309,-0.357 0.713,-0.531 1.23,-0.518 0.458,-0.013 0.806,0.109 1.062,0.37 0.334,0.356 0.508,0.713 0.517,1.087 -0.009,0.331 -0.108,0.678 -0.316,1.035 -0.261,0.37 -0.384,0.692 -0.37,0.961 -0.014,0.335 0.157,0.631 0.491,0.888 0.37,0.308 0.953,0.456 1.753,0.469 2.171,-0.013 3.245,-1.331 3.258,-3.997 -0.013,-1.122 -0.322,-2 -0.941,-2.618 -0.825,-0.613 -1.787,-0.922 -2.86,-0.909 h -1.385 V 8.933 h 1.385 c 1.248,-0.013 2.243,-0.33 3.009,-0.987 0.805,-0.774 1.201,-1.948 1.209,-3.527 -0.008,-1.27 -0.343,-2.297 -1.009,-3.062 -0.531,-0.605 -1.445,-0.927 -2.741,-0.987 -1.012,0.06 -1.766,0.321 -2.27,0.791 -0.209,0.183 -0.309,0.457 -0.296,0.787 -0.013,0.287 0.087,0.618 0.296,0.988 0.175,0.409 0.258,0.743 0.27,1.013 -0.035,0.431 -0.196,0.826 -0.469,1.161 -0.257,0.257 -0.64,0.383 -1.157,0.396 -0.557,-0.013 -0.987,-0.226 -1.309,-0.644 -0.335,-0.408 -0.505,-0.874 -0.492,-1.431 -0.013,-1.209 0.678,-2.196 2.049,-2.961 1.157,-0.666 2.391,-0.975 3.701,-0.988 1.948,0.013 3.513,0.383 4.71,1.183 1.309,0.892 1.966,2.136 1.974,3.754 M -64.31,0 v 0.813 c -1.357,0.039 -2.27,0.631 -2.739,1.779 L -73.712,18.311 -76.3,17.08 -81.437,3.827 C -81.758,2.975 -82.176,2.235 -82.693,1.579 -83.324,1.061 -83.93,0.805 -84.521,0.813 h -0.543 V 0 h 6.616 v 0.813 h -0.618 c -0.719,-0.008 -1.248,0.148 -1.58,0.47 -0.187,0.174 -0.282,0.509 -0.273,0.987 -0.009,0.235 0.025,0.47 0.1,0.692 0.073,0.369 0.457,1.492 1.161,3.379 h 7.972 l 1.505,-3.675 c 0.121,-0.335 0.182,-0.57 0.196,-0.692 -0.014,-0.282 -0.108,-0.543 -0.295,-0.791 -0.309,-0.257 -0.727,-0.378 -1.283,-0.37 h -0.915 V 0 Z m -23.381,16.954 v 0.817 h -6.589 v -0.817 h 0.886 c 0.915,-0.009 1.396,-0.331 1.457,-0.962 0.014,-0.269 -0.147,-0.665 -0.469,-1.183 l -4.072,-6.245 -4.096,6.515 c -0.334,0.531 -0.505,0.926 -0.491,1.187 -0.014,0.457 0.443,0.679 1.357,0.688 h 0.712 v 0.817 h -8.093 v -0.817 c 0.705,-0.009 1.248,-0.096 1.652,-0.27 0.422,-0.335 0.853,-0.779 1.31,-1.309 l 5.206,-8.268 V 2.47 c -0.014,-1.113 -0.591,-1.665 -1.774,-1.657 h -0.792 V 0 h 8.168 v 0.813 h -0.862 c -1.209,-0.008 -1.814,0.583 -1.8,1.779 v 5.28 l 4.763,7.207 c 0.478,0.731 1.048,1.27 1.678,1.605 0.331,0.174 0.949,0.261 1.849,0.27 M -110.586,0 v 0.813 c -1.27,0.039 -2.296,0.596 -3.062,1.657 l -6.589,8.982 3.927,3.627 c 0.701,0.657 1.392,1.1 2.071,1.357 0.813,0.335 1.666,0.509 2.566,0.518 v 0.817 h -7.503 v -0.817 h 0.617 c 0.927,-0.009 1.418,-0.309 1.457,-0.888 -0.039,-0.269 -0.309,-0.691 -0.792,-1.257 l -7.08,-6.515 v 6.985 c -0.012,1.109 0.483,1.666 1.478,1.675 h 1.015 v 0.817 h -7.995 v -0.817 h 0.983 c 1.039,-0.009 1.545,-0.566 1.557,-1.675 V 2.592 c -0.012,-1.196 -0.557,-1.787 -1.652,-1.779 h -0.888 V 0 h 8.069 v 0.813 h -0.989 c -1.061,-0.008 -1.59,0.583 -1.578,1.779 v 4.541 l 2.666,2.444 4.836,-6.515 c 0.431,-0.618 0.654,-1.114 0.666,-1.483 -0.073,-0.518 -0.556,-0.774 -1.43,-0.766 h -0.814 V 0 Z m 38.605,7.133 h -7.381 l 3.58,9.059 z"
         style="fill:#231f20;fill-opacity:1;fill-rule:nonzero;stroke:none"
         transform="matrix(1.3333333,0,0,-1.3333333,287.6992,24.4144)"
         clip-path="url(#clipPath4)" />
      <path
         id="path5"
         d="m 0,0 c 9.685,10.936 20.853,19.996 33.503,27.178 1.515,-0.264 2.075,-1.203 1.681,-2.817 C 34.787,22.746 34.393,21.412 33.997,20.358 31.097,14.033 28.067,7.808 24.905,1.68 16.537,1.416 8.235,0.855 0,0 m 95.996,-10.751 c -2.635,-1.121 -5.271,-2.109 -7.906,-2.965 -0.858,-0.264 -1.68,-0.494 -2.471,-0.692 -3.359,-1.121 -4.611,-0.133 -3.756,2.965 1.121,1.581 2.373,3.096 3.756,4.546 0.725,0.198 1.219,0.692 1.483,1.482 l 0.099,0.1 c 0.395,0.988 0.953,1.91 1.68,2.766 0.262,0.132 0.494,0.361 0.691,0.693 0.594,0.592 1.319,0.988 2.174,1.185 0.725,0.725 0.922,1.613 0.594,2.668 -0.527,0.594 -1.154,0.757 -1.877,0.494 -1.846,-1.054 -2.965,-2.603 -3.361,-4.644 -0.395,-0.989 -1.055,-1.68 -1.977,-2.076 -0.924,-0.395 -1.615,-0.988 -2.074,-1.779 -0.266,-0.593 -0.561,-1.121 -0.891,-1.581 -0.853,-0.96 -1.604,-1.968 -2.296,-3.004 -2.656,-1.132 -6.033,-2.211 -8.618,-3.03 -0.791,-0.197 -1.023,0.065 -0.693,0.791 0.988,0.922 1.615,2.075 1.879,3.459 -1.186,1.317 -2.604,1.547 -4.25,0.691 -4.481,-2.766 -9.092,-5.138 -13.836,-7.115 -0.727,-0.395 -0.955,-0.231 -0.692,0.494 2.768,3.558 6.192,6.424 10.278,8.598 0.593,0.198 1.252,0.263 1.976,0.198 1.713,-0.331 2.867,0.329 3.459,1.977 -1.054,1.185 -2.371,1.448 -3.953,0.79 -3.098,-1.121 -5.83,-2.767 -8.203,-4.942 -0.767,-0.543 -1.469,-1.127 -2.119,-1.743 -2.892,-1.165 -7.689,-2.685 -9.988,-3.375 -0.66,-0.264 -1.285,-0.429 -1.878,-0.494 -0.33,0.065 -0.395,0.262 -0.198,0.593 0.198,0.855 0.659,1.645 1.383,2.372 0.199,0.657 0.033,1.284 -0.494,1.877 -0.789,0.132 -1.549,0.164 -2.271,0.099 -1.518,0 -2.901,0.428 -4.153,1.285 -0.527,0.592 -1.086,1.152 -1.68,1.68 -0.658,0 -1.152,-0.264 -1.482,-0.791 -0.264,-0.528 -0.592,-0.956 -0.988,-1.285 -0.742,-0.664 -1.536,-1.198 -2.37,-1.63 -2.166,-0.905 -4.351,-1.739 -6.562,-2.457 -1.319,-0.395 -2.604,-0.726 -3.855,-0.988 0.132,0.46 0.329,0.954 0.593,1.482 1.911,4.084 3.986,8.136 6.226,12.156 3.163,0.131 6.39,0.198 9.686,0.198 0.197,0.79 -0.364,1.25 -1.68,1.383 -2.372,0.132 -4.744,0.164 -7.116,0.099 5.006,7.575 8.96,15.68 11.86,24.312 0,4.875 -2.406,6.522 -7.215,4.941 C 17.558,22.467 3.919,11.727 -8.005,-1.186 c -7.248,-0.66 -13.969,-2.735 -20.161,-6.226 1.449,-1.517 3.524,-2.208 6.226,-2.075 1.449,0.329 2.768,1.087 3.953,2.272 1.977,0.856 4.052,1.582 6.227,2.175 -3.953,-4.218 -7.743,-8.499 -11.365,-12.848 -2.373,-2.702 -3.494,-5.799 -3.361,-9.29 0.791,-0.725 1.713,-0.725 2.767,0 3.03,1.384 5.105,3.657 6.226,6.82 4.283,6.127 9.093,11.859 14.43,17.196 8.894,1.448 17.887,2.471 26.98,3.063 -1.912,-3.755 -3.79,-7.51 -5.634,-11.266 -2.702,-5.667 -5.04,-11.432 -7.016,-17.295 -0.791,-1.714 -1.154,-3.459 -1.088,-5.238 1.251,-1.912 2.602,-1.912 4.052,0 0.527,1.317 0.791,2.701 0.791,4.151 1.317,4.479 2.8,8.959 4.447,13.44 1.713,0.329 3.459,0.791 5.238,1.384 1.619,0.688 3.274,1.34 4.919,2.004 0.055,0.005 0.1,-0.003 0.159,0.008 0.639,0.247 1.268,0.529 1.894,0.828 0.348,0.137 0.684,0.285 1.033,0.421 0.516,0.047 0.839,0.268 0.988,0.649 0.679,0.394 1.353,0.807 2.016,1.265 0.064,0.064 0.197,0.064 0.394,0 1.25,-0.988 2.668,-1.615 4.25,-1.878 0.328,-0.066 0.362,-0.231 0.098,-0.494 -0.988,-1.055 -1.615,-2.208 -1.877,-3.459 0.065,-1.581 0.889,-2.307 2.471,-2.174 1.713,0.328 3.392,0.954 5.041,1.877 2.175,0.883 4.387,1.765 6.619,2.647 -0.548,-0.81 -1.03,-1.663 -1.431,-2.568 -0.394,-1.846 0.397,-2.603 2.373,-2.273 4.678,1.383 9.125,3.459 13.342,6.226 0.459,0.263 0.953,0.494 1.483,0.692 0.459,0.131 0.591,0 0.394,-0.395 -1.318,-0.988 -2.174,-2.209 -2.568,-3.657 0.064,-1.517 0.855,-2.307 2.371,-2.372 2.041,0.922 4.117,1.91 6.226,2.965 1.119,0.403 2.238,0.847 3.357,1.311 -0.345,-0.684 -0.658,-1.384 -0.941,-2.096 -0.463,-1.517 0.098,-2.373 1.68,-2.57 3.227,0.197 6.391,0.823 9.488,1.878 2.633,1.119 5.303,2.206 8.004,3.261 0.658,0.132 0.989,0.527 0.989,1.186 -0.395,0.527 -0.889,0.824 -1.483,0.89"
         style="fill:#231f20;fill-opacity:1;fill-rule:nonzero;stroke:none"
         transform="matrix(1.3333333,0,0,-1.3333333,163.26427,250.0368)"
         clip-path="url(#clipPath6)"
         inkscape:label="path5" />
    </g>
  </g>
</svg>
