<?xml version="1.0" encoding="UTF-8" standalone="no"?>
<!-- Created with Inkscape (http://www.inkscape.org/) -->

<svg
   version="1.1"
   id="svg1"
   width="415.74933"
   height="468.504"
   viewBox="0 0 415.74933 468.504"
   sodipodi:docname="06098130.svg"
   inkscape:version="1.4.2 (f4327f4, 2025-05-13)"
   xmlns:inkscape="http://www.inkscape.org/namespaces/inkscape"
   xmlns:sodipodi="http://sodipodi.sourceforge.net/DTD/sodipodi-0.dtd"
   xmlns="http://www.w3.org/2000/svg"
   xmlns:svg="http://www.w3.org/2000/svg">
  <defs
     id="defs1">
    <clipPath
       clipPathUnits="userSpaceOnUse"
       id="clipPath4">
      <path
         d="M 0,351.378 H 311.812 V 0 H 0 Z"
         transform="translate(-216.0088,-333.06791)"
         id="path4" />
    </clipPath>
    <clipPath
       clipPathUnits="userSpaceOnUse"
       id="clipPath6">
      <path
         d="M 0,351.378 H 311.812 V 0 H 0 Z"
         transform="translate(-227.0869,-148.28031)"
         id="path6" />
    </clipPath>
  </defs>
  <sodipodi:namedview
     id="namedview1"
     pagecolor="#ffffff"
     bordercolor="#000000"
     borderopacity="0.25"
     inkscape:showpageshadow="2"
     inkscape:pageopacity="0.0"
     inkscape:pagecheckerboard="0"
     inkscape:deskcolor="#d1d1d1"
     inkscape:zoom="1.8889914"
     inkscape:cx="207.51815"
     inkscape:cy="234.78138"
     inkscape:window-width="1920"
     inkscape:window-height="1017"
     inkscape:window-x="-8"
     inkscape:window-y="-8"
     inkscape:window-maximized="1"
     inkscape:current-layer="g1">
    <inkscape:page
       x="0"
       y="0"
       inkscape:label="1"
       id="page1"
       width="415.74933"
       height="468.504"
       margin="0"
       bleed="0" />
  </sodipodi:namedview>
  <g
     id="g1"
     inkscape:groupmode="layer"
     inkscape:label="1">
    <g
       id="group-MC0">
      <path
         id="path2"
         d="M 0,0 H 311.811 V 311.811 H 0 Z"
         style="fill:#ffffff;fill-opacity:1;fill-rule:nonzero;stroke:none"
         transform="matrix(1.3333333,0,0,-1.3333333,0,468.504)" />
      <path
         id="path3"
         d="m 0,0 v 0.812 c -1.41,0.039 -2.481,0.593 -3.234,1.656 l -4.519,6.291 c 1.829,0.039 3.223,0.472 4.22,1.284 0.817,0.718 1.271,1.777 1.385,3.187 -0.114,1.552 -0.728,2.702 -1.878,3.429 -1.197,0.726 -2.602,1.098 -4.245,1.111 h -9.945 v -0.813 h 0.865 c 1.133,-0.013 1.691,-0.705 1.704,-2.075 V 2.667 C -15.66,1.418 -16.253,0.804 -17.451,0.812 h -0.765 V 0 h 7.899 v 0.812 h -0.817 c -1.11,-0.008 -1.664,0.606 -1.651,1.855 v 6.045 h 1.725 L -5.31,0 H 0 M -22.25,9.429 H -39.38 V 7.825 h 17.13 z M -46.289,4.418 c -0.013,1.89 -0.766,3.256 -2.27,4.121 -0.8,0.471 -1.911,0.804 -3.33,0.986 1.518,0.224 2.724,0.605 3.628,1.163 0.947,0.812 1.418,1.911 1.431,3.307 -0.013,1.418 -0.666,2.53 -1.976,3.329 -1.159,0.653 -2.482,0.978 -3.973,0.986 -1.456,-0.008 -2.715,-0.406 -3.775,-1.18 -0.964,-0.731 -1.444,-1.617 -1.431,-2.642 -0.013,-0.558 0.121,-0.999 0.393,-1.358 0.307,-0.358 0.718,-0.531 1.233,-0.518 0.458,-0.013 0.804,0.112 1.063,0.371 0.333,0.355 0.506,0.714 0.52,1.086 -0.014,0.333 -0.113,0.679 -0.321,1.033 -0.258,0.372 -0.384,0.692 -0.372,0.964 -0.012,0.333 0.16,0.632 0.493,0.891 0.372,0.307 0.951,0.454 1.751,0.467 2.175,-0.013 3.247,-1.332 3.26,-4 -0.013,-1.119 -0.32,-1.997 -0.937,-2.615 -0.827,-0.614 -1.791,-0.926 -2.863,-0.913 h -1.383 V 8.932 h 1.383 c 1.245,-0.008 2.244,-0.333 3.009,-0.986 0.805,-0.778 1.198,-1.95 1.211,-3.528 -0.013,-1.271 -0.346,-2.296 -1.012,-3.061 -0.532,-0.605 -1.444,-0.925 -2.741,-0.986 -1.012,0.061 -1.765,0.32 -2.27,0.787 -0.208,0.186 -0.307,0.459 -0.293,0.791 -0.014,0.286 0.085,0.619 0.293,0.986 0.173,0.411 0.259,0.744 0.272,1.012 -0.039,0.432 -0.198,0.83 -0.471,1.163 -0.259,0.26 -0.639,0.381 -1.159,0.394 -0.553,-0.013 -0.984,-0.221 -1.304,-0.64 -0.334,-0.411 -0.506,-0.878 -0.499,-1.431 -0.007,-1.211 0.679,-2.197 2.05,-2.962 1.163,-0.67 2.395,-0.977 3.701,-0.99 1.951,0.013 3.519,0.384 4.717,1.184 1.306,0.891 1.959,2.136 1.972,3.753 M -63.541,0 v 0.812 c -1.358,0.039 -2.274,0.632 -2.741,1.777 l -6.663,15.721 -2.594,-1.232 -5.132,-13.252 c -0.32,-0.852 -0.74,-1.591 -1.258,-2.248 -0.627,-0.515 -1.233,-0.774 -1.825,-0.766 h -0.545 V 0 h 6.615 v 0.812 h -0.618 c -0.713,-0.008 -1.245,0.152 -1.578,0.472 -0.186,0.173 -0.285,0.506 -0.272,0.985 -0.013,0.234 0.026,0.472 0.099,0.692 0.074,0.372 0.458,1.492 1.159,3.381 h 7.973 l 1.504,-3.675 c 0.126,-0.333 0.186,-0.571 0.199,-0.692 C -69.231,1.69 -69.33,1.431 -69.516,1.184 -69.823,0.925 -70.243,0.804 -70.8,0.812 h -0.913 V 0 Z m -23.382,16.957 v 0.813 h -6.594 v -0.813 h 0.891 c 0.912,-0.013 1.392,-0.337 1.457,-0.964 0.013,-0.273 -0.151,-0.666 -0.471,-1.185 l -4.073,-6.243 -4.095,6.515 c -0.333,0.528 -0.506,0.926 -0.493,1.185 -0.013,0.454 0.441,0.679 1.358,0.692 h 0.713 v 0.813 h -8.094 v -0.813 c 0.705,-0.013 1.246,-0.099 1.652,-0.272 0.419,-0.333 0.852,-0.779 1.31,-1.311 l 5.206,-8.266 v -4.64 c -0.013,-1.111 -0.593,-1.664 -1.777,-1.656 h -0.787 V 0 h 8.167 v 0.812 h -0.864 c -1.207,-0.008 -1.812,0.584 -1.799,1.777 v 5.284 l 4.76,7.207 c 0.485,0.727 1.051,1.272 1.678,1.605 0.333,0.173 0.951,0.259 1.855,0.272 M -109.821,0 v 0.812 c -1.272,0.039 -2.296,0.593 -3.062,1.656 l -6.589,8.985 3.926,3.627 c 0.705,0.653 1.392,1.099 2.071,1.358 0.817,0.333 1.669,0.506 2.568,0.519 v 0.813 h -7.501 v -0.813 h 0.614 c 0.929,-0.013 1.422,-0.311 1.457,-0.891 -0.035,-0.272 -0.307,-0.692 -0.787,-1.258 l -7.087,-6.516 v 6.983 c -0.008,1.111 0.485,1.669 1.483,1.682 h 1.012 v 0.813 h -7.994 v -0.813 h 0.985 c 1.038,-0.013 1.544,-0.571 1.553,-1.682 V 2.589 c -0.009,-1.193 -0.554,-1.785 -1.652,-1.777 h -0.886 V 0 h 8.068 v 0.812 h -0.986 c -1.064,-0.008 -1.591,0.584 -1.583,1.777 v 4.545 l 2.668,2.442 4.838,-6.515 c 0.433,-0.619 0.653,-1.112 0.666,-1.483 -0.073,-0.515 -0.558,-0.774 -1.431,-0.766 h -0.817 V 0 Z M -5.31,12.932 C -5.418,11.833 -5.776,10.956 -6.395,10.29 -7.061,9.762 -8.047,9.49 -9.356,9.503 h -3.429 v 5.577 c -0.013,1.246 0.541,1.864 1.651,1.877 h 1.678 c 1.224,-0.013 2.248,-0.337 3.061,-0.964 0.619,-0.532 0.977,-1.557 1.085,-3.061 M -71.22,7.134 h -7.376 l 3.576,9.058 z"
         style="fill:#231f20;fill-opacity:1;fill-rule:nonzero;stroke:none"
         transform="matrix(1.3333333,0,0,-1.3333333,288.01173,24.413467)"
         clip-path="url(#clipPath4)" />
      <path
         id="path5"
         d="m 0,0 c -3.234,-1.376 -6.469,-2.589 -9.703,-3.639 -1.051,-0.324 -2.063,-0.606 -3.031,-0.849 -4.125,-1.376 -5.662,-0.163 -4.61,3.638 1.373,1.941 2.91,3.8 4.61,5.579 0.888,0.244 1.494,0.85 1.818,1.82 l 0.121,0.122 c 0.486,1.213 1.172,2.344 2.063,3.395 0.322,0.162 0.605,0.444 0.849,0.85 0.727,0.728 1.615,1.213 2.668,1.455 0.889,0.889 1.131,1.981 0.727,3.275 -0.647,0.728 -1.414,0.928 -2.303,0.606 -2.266,-1.294 -3.639,-3.194 -4.125,-5.7 -0.484,-1.213 -1.295,-2.062 -2.426,-2.547 -1.133,-0.485 -1.982,-1.213 -2.547,-2.184 -0.324,-0.727 -0.687,-1.376 -1.091,-1.94 -1.127,-1.268 -2.132,-2.593 -3.03,-3.969 -3.187,-1.279 -7.469,-2.578 -10.463,-3.551 -1.052,-0.324 -2.062,-0.606 -3.033,-0.849 -4.123,-1.376 -5.66,-0.163 -4.607,3.638 1.373,1.941 2.91,3.8 4.607,5.579 0.891,0.244 1.496,0.85 1.82,1.82 l 0.122,0.122 c 0.484,1.213 1.171,2.344 2.062,3.395 0.322,0.162 0.606,0.444 0.848,0.85 0.728,0.728 1.617,1.213 2.67,1.455 0.888,0.889 1.13,1.981 0.726,3.275 -0.648,0.728 -1.416,0.928 -2.305,0.606 -2.263,-1.294 -3.638,-3.194 -4.123,-5.7 -0.484,-1.213 -1.294,-2.062 -2.425,-2.547 -1.133,-0.485 -1.983,-1.213 -2.547,-2.184 -0.324,-0.727 -0.688,-1.376 -1.092,-1.94 -1.375,-1.545 -2.571,-3.173 -3.603,-4.877 -0.016,0.002 -0.03,0.008 -0.046,0.01 -3.235,-1.376 -6.469,-2.589 -9.704,-3.639 -0.808,-0.324 -1.536,-0.284 -2.182,0.121 -0.163,0.403 -0.081,0.849 0.243,1.334 1.049,1.941 2.141,3.921 3.275,5.943 -0.082,1.617 -1.013,2.547 -2.791,2.79 -6.306,-1.78 -11.764,-4.973 -16.374,-9.582 -1.133,-0.809 -1.658,-0.648 -1.577,0.485 2.748,5.741 6.065,11.199 9.946,16.374 3.315,4.446 6.55,9.015 9.705,13.706 0.322,0.564 0.847,1.092 1.576,1.577 1.049,0.728 1.941,1.656 2.668,2.789 0.564,1.05 0.806,2.184 0.728,3.397 -0.566,0.646 -1.256,1.009 -2.062,1.091 -1.619,-1.051 -2.91,-2.346 -3.881,-3.881 -3.317,-5.743 -6.834,-11.241 -10.553,-16.496 -3.274,-4.329 -6.231,-8.817 -8.883,-13.456 -2.581,-1.132 -6.237,-2.755 -8.715,-3.607 -5.337,-0.971 -10.31,-0.122 -14.919,2.547 -1.133,0.564 -1.294,1.374 -0.485,2.426 3.718,3.072 8.045,4.769 12.978,5.093 1.213,0.08 1.738,-0.445 1.576,-1.576 0,-0.485 0.122,-0.93 0.365,-1.335 0.564,-0.727 1.334,-1.011 2.304,-0.848 0.808,0.242 1.213,0.848 1.213,1.819 0.404,1.698 -0.082,3.032 -1.456,4.003 -7.519,1.131 -14.15,-0.81 -19.89,-5.822 -1.728,-1.427 -2.006,-2.959 -0.876,-4.593 -3.079,-1.335 -6.197,-2.518 -9.352,-3.542 -4.933,-1.942 -9.502,-1.456 -13.706,1.455 8.491,12.775 17.263,25.39 26.32,37.842 1.374,2.102 2.911,4.124 4.609,6.064 2.669,1.778 4.81,4.124 6.428,7.035 -0.97,1.293 -2.546,1.86 -4.73,1.699 -3.153,0.564 -5.822,-0.244 -8.005,-2.426 -1.94,-2.426 -3.518,-4.973 -4.73,-7.642 -0.971,-2.021 -2.022,-3.923 -3.154,-5.7 -13.584,-19.73 -25.552,-40.35 -35.901,-61.857 -1.052,-3.882 -0.203,-4.973 2.547,-3.276 4.203,8.895 9.176,17.385 14.918,25.471 4.852,-3.235 10.107,-3.76 15.768,-1.576 3.233,1.374 6.508,2.708 9.825,4.002 0.455,0.045 0.782,0.234 1.007,0.537 1.317,-1.163 2.767,-2.155 4.368,-2.954 0.404,-0.567 0.283,-0.97 -0.364,-1.213 -3.72,-1.536 -7.561,-2.346 -11.522,-2.426 -1.293,-0.081 -2.547,-0.121 -3.76,-0.121 -0.485,-0.405 -0.606,-0.891 -0.364,-1.455 0.324,-0.971 0.93,-1.618 1.819,-1.941 1.294,-0.082 2.587,0.039 3.881,0.364 7.357,1.456 14.595,3.597 21.711,6.428 2.67,1.068 5.411,2.171 8.193,3.295 -0.643,-1.223 -1.273,-2.453 -1.874,-3.697 -0.728,-2.265 0,-3.559 2.183,-3.881 1.859,0 3.436,0.728 4.73,2.184 4.203,3.718 8.732,7.034 13.584,9.945 0.889,0.647 1.335,0.485 1.335,-0.485 -0.81,-1.941 -1.618,-3.802 -2.426,-5.579 -0.405,-0.971 -0.324,-1.862 0.242,-2.668 1.292,-1.456 2.911,-1.82 4.853,-1.092 2.494,0.997 5.021,2.027 7.566,3.074 -0.183,-0.409 -0.357,-0.822 -0.522,-1.239 -0.567,-1.861 0.121,-2.911 2.062,-3.153 3.961,0.242 7.842,1.009 11.643,2.304 2.697,1.146 5.428,2.257 8.182,3.348 -0.408,-0.817 -0.782,-1.65 -1.118,-2.499 -0.566,-1.861 0.121,-2.911 2.063,-3.153 3.961,0.242 7.841,1.009 11.644,2.304 3.233,1.374 6.508,2.708 9.824,4.002 0.807,0.161 1.213,0.647 1.213,1.456 C 1.334,-0.445 0.729,-0.082 0,0"
         style="fill:#231f20;fill-opacity:1;fill-rule:nonzero;stroke:none"
         transform="matrix(1.3333333,0,0,-1.3333333,302.78253,270.79693)"
         clip-path="url(#clipPath6)"
         inkscape:label="path5" />
    </g>
  </g>
</svg>
