<?xml version="1.0" encoding="UTF-8" standalone="no"?>
<!-- Created with Inkscape (http://www.inkscape.org/) -->

<svg
   version="1.1"
   id="svg1"
   width="672.75598"
   height="267.76001"
   viewBox="0 0 672.75598 267.76001"
   sodipodi:docname="06096629.svg"
   inkscape:version="1.4.2 (f4327f4, 2025-05-13)"
   xmlns:inkscape="http://www.inkscape.org/namespaces/inkscape"
   xmlns:sodipodi="http://sodipodi.sourceforge.net/DTD/sodipodi-0.dtd"
   xmlns="http://www.w3.org/2000/svg"
   xmlns:svg="http://www.w3.org/2000/svg">
  <defs
     id="defs1">
    <clipPath
       clipPathUnits="userSpaceOnUse"
       id="clipPath4">
      <path
         d="M 0,200.82 H 504.567 V 0 H 0 Z"
         transform="translate(-25.252,-180.2891)"
         id="path4" />
    </clipPath>
    <clipPath
       clipPathUnits="userSpaceOnUse"
       id="clipPath6">
      <path
         d="M 0,200.82 H 504.567 V 0 H 0 Z"
         transform="translate(-39.455601,-199.3516)"
         id="path6" />
    </clipPath>
    <clipPath
       clipPathUnits="userSpaceOnUse"
       id="clipPath8">
      <path
         d="M 0,200.82 H 504.567 V 0 H 0 Z"
         transform="translate(-53.730502,-199.3516)"
         id="path8" />
    </clipPath>
    <clipPath
       clipPathUnits="userSpaceOnUse"
       id="clipPath10">
      <path
         d="M 0,200.82 H 504.567 V 0 H 0 Z"
         transform="translate(-63.705101,-195.1763)"
         id="path10" />
    </clipPath>
    <clipPath
       clipPathUnits="userSpaceOnUse"
       id="clipPath12">
      <path
         d="M 0,200.82 H 504.567 V 0 H 0 Z"
         transform="translate(-81.9751,-199.3516)"
         id="path12" />
    </clipPath>
    <clipPath
       clipPathUnits="userSpaceOnUse"
       id="clipPath14">
      <path
         d="M 0,200.82 H 504.567 V 0 H 0 Z"
         id="path14" />
    </clipPath>
    <clipPath
       clipPathUnits="userSpaceOnUse"
       id="clipPath16">
      <path
         d="M 0,200.82 H 504.567 V 0 H 0 Z"
         transform="translate(-109.1919,-185.6812)"
         id="path16" />
    </clipPath>
    <clipPath
       clipPathUnits="userSpaceOnUse"
       id="clipPath18">
      <path
         d="M 0,200.82 H 504.567 V 0 H 0 Z"
         id="path18" />
    </clipPath>
    <clipPath
       clipPathUnits="userSpaceOnUse"
       id="clipPath20">
      <path
         d="M 0,200.82 H 504.567 V 0 H 0 Z"
         transform="translate(-138.66801,-199.3516)"
         id="path20" />
    </clipPath>
    <clipPath
       clipPathUnits="userSpaceOnUse"
       id="clipPath22">
      <path
         d="M 0,200.82 H 504.567 V 0 H 0 Z"
         transform="translate(-151.7334,-185.2896)"
         id="path22" />
    </clipPath>
    <clipPath
       clipPathUnits="userSpaceOnUse"
       id="clipPath24">
      <path
         d="M 0,200.82 H 504.567 V 0 H 0 Z"
         transform="translate(-162.6973,-191.3433)"
         id="path24" />
    </clipPath>
    <clipPath
       clipPathUnits="userSpaceOnUse"
       id="clipPath26">
      <path
         d="M 0,200.82 H 504.567 V 0 H 0 Z"
         transform="translate(-208.5586,-58.951201)"
         id="path26" />
    </clipPath>
  </defs>
  <sodipodi:namedview
     id="namedview1"
     pagecolor="#ffffff"
     bordercolor="#000000"
     borderopacity="0.25"
     inkscape:showpageshadow="2"
     inkscape:pageopacity="0.0"
     inkscape:pagecheckerboard="0"
     inkscape:deskcolor="#d1d1d1"
     inkscape:zoom="2.7082628"
     inkscape:cx="336.74723"
     inkscape:cy="133.84964"
     inkscape:window-width="1920"
     inkscape:window-height="1017"
     inkscape:window-x="-8"
     inkscape:window-y="-8"
     inkscape:window-maximized="1"
     inkscape:current-layer="group-MC0">
    <inkscape:page
       x="0"
       y="0"
       inkscape:label="1"
       id="page1"
       width="672.75598"
       height="267.76001"
       margin="0"
       bleed="0" />
  </sodipodi:namedview>
  <g
     id="g1"
     inkscape:groupmode="layer"
     inkscape:label="1">
    <g
       id="group-MC0">
      <path
         id="path2"
         d="M 0,0 H 504.567 V 150.236 H 0 Z"
         style="fill:#ffffff;fill-opacity:1;fill-rule:nonzero;stroke:none"
         transform="matrix(1.3333333,0,0,-1.3333333,0,267.76)" />
      <path
         id="path3"
         d="m 0,0 h -5.62 v 0.844 c 0.794,0 1.227,0.23 1.302,0.692 0,0.166 -0.111,0.535 -0.332,1.107 L -7.724,10.283 -8.72,8.539 V 2.255 c 0,-0.885 0.507,-1.356 1.522,-1.411 V 0 h -5.809 v 0.832 c 0.941,0.055 1.412,0.526 1.412,1.413 v 15.657 c 0,0.794 -0.517,1.192 -1.551,1.192 v 0.844 h 5.948 v -0.844 c -1.015,0 -1.522,-0.397 -1.522,-1.19 v -7.752 l 4.636,7.336 c 0.221,0.351 0.333,0.683 0.333,0.997 0,0.406 -0.324,0.609 -0.969,0.609 h -0.471 v 0.844 h 4.721 v -0.844 c -1.108,0 -1.985,-0.499 -2.63,-1.497 L -6.09,12.914 -1.661,2.355 C -1.255,1.395 -0.701,0.887 0,0.832 Z"
         style="fill:#231f20;fill-opacity:1;fill-rule:nonzero;stroke:none"
         transform="matrix(1.3333333,0,0,-1.3333333,33.669333,27.374533)"
         clip-path="url(#clipPath4)" />
      <path
         id="path5"
         d="m 0,0 c -1.015,0 -1.68,-0.435 -1.993,-1.303 l -3.211,-8.454 v -6.625 c 0,-1.183 0.516,-1.774 1.55,-1.774 h 0.775 v -0.875 h -7.289 v 0.875 h 0.664 c 1.033,0 1.55,0.554 1.55,1.663 v 6.847 l -3.654,8.343 C -11.996,-0.435 -12.466,0 -13.02,0 v 0.875 h 5.705 V 0 h -0.417 c -0.665,0 -0.997,-0.258 -0.997,-0.775 0,-0.314 0.102,-0.72 0.305,-1.218 l 2.803,-6.533 2.521,6.339 c 0.129,0.627 0.24,1.098 0.332,1.412 C -2.842,-0.258 -3.211,0 -3.875,0 H -4.54 V 0.875 H 0 Z"
         style="fill:#231f20;fill-opacity:1;fill-rule:nonzero;stroke:none"
         transform="matrix(1.3333333,0,0,-1.3333333,52.607467,1.9578667)"
         clip-path="url(#clipPath6)" />
      <path
         id="path7"
         d="m 0,0 c -0.941,0 -1.532,-0.471 -1.771,-1.412 l -4.43,-17.606 h -0.526 l -4.872,17.717 C -11.839,-0.434 -12.346,0 -13.121,0 v 0.875 h 5.952 V 0 h -0.36 c -0.739,0 -1.108,-0.295 -1.108,-0.886 0,-0.387 0.037,-0.72 0.111,-0.996 l 2.99,-10.27 2.657,9.854 c 0.129,0.498 0.194,0.969 0.194,1.412 C -2.741,-0.295 -3.063,0 -3.654,0 H -4.318 V 0.875 H 0 Z"
         style="fill:#231f20;fill-opacity:1;fill-rule:nonzero;stroke:none"
         transform="matrix(1.3333333,0,0,-1.3333333,71.640667,1.9578667)"
         clip-path="url(#clipPath8)" />
      <path
         id="path9"
         d="m 0,0 c -0.074,1.403 -0.406,2.511 -0.997,3.324 -0.553,0.609 -1.255,0.914 -2.104,0.914 -0.885,0 -1.328,-0.499 -1.328,-1.496 v -6.785 h 0.471 c 1.328,0 2.315,0.239 2.961,0.72 C -0.406,-2.696 -0.074,-1.588 0,0 M 4.208,-14.88 H 0.443 l -4.069,9.993 h -0.803 v -7.751 c 0,-0.886 0.599,-1.357 1.799,-1.412 v -0.83 h -6.293 v 0.83 c 1.07,0.055 1.652,0.526 1.744,1.412 V 2.74 c 0,0.998 -0.582,1.498 -1.744,1.498 v 0.844 h 6.071 c 1.919,0 3.377,-0.51 4.374,-1.528 C 2.427,2.666 2.916,1.518 2.99,0.111 2.916,-0.981 2.583,-2.037 1.993,-3.055 1.439,-3.74 0.479,-4.313 -0.886,-4.776 L 2.63,-12.97 c 0.313,-0.665 0.839,-1.025 1.578,-1.08 z"
         style="fill:#231f20;fill-opacity:1;fill-rule:nonzero;stroke:none"
         transform="matrix(1.3333333,0,0,-1.3333333,84.940133,7.5249333)"
         clip-path="url(#clipPath10)" />
      <path
         id="path11"
         d="m 0,0 c -1.015,0 -1.68,-0.435 -1.993,-1.303 l -3.211,-8.454 v -6.625 c 0,-1.183 0.516,-1.774 1.55,-1.774 h 0.775 v -0.875 h -7.289 v 0.875 h 0.664 c 1.033,0 1.55,0.554 1.55,1.663 v 6.847 l -3.654,8.343 C -11.996,-0.435 -12.466,0 -13.02,0 v 0.875 h 5.705 V 0 h -0.417 c -0.665,0 -0.997,-0.258 -0.997,-0.775 0,-0.314 0.102,-0.72 0.305,-1.218 l 2.803,-6.533 2.521,6.339 c 0.129,0.627 0.24,1.098 0.332,1.412 C -2.842,-0.258 -3.211,0 -3.875,0 H -4.54 V 0.875 H 0 Z"
         style="fill:#231f20;fill-opacity:1;fill-rule:nonzero;stroke:none"
         transform="matrix(1.3333333,0,0,-1.3333333,109.30013,1.9578667)"
         clip-path="url(#clipPath12)" />
      <path
         id="path13"
         d="M 95.332,188.977 H 83.816 v 1.813 h 11.516 z"
         style="fill:#231f20;fill-opacity:1;fill-rule:nonzero;stroke:none"
         transform="matrix(1.3333333,0,0,-1.3333333,0,267.76)"
         clip-path="url(#clipPath14)" />
      <path
         id="path15"
         d="m 0,0 c -0.019,-1.569 -0.536,-2.888 -1.55,-3.958 -1.071,-0.886 -2.325,-1.357 -3.765,-1.412 -0.554,-0.019 -1.135,0.082 -1.744,0.304 -0.757,0.277 -1.384,0.416 -1.881,0.416 -0.55,0 -0.99,-0.241 -1.32,-0.72 l -0.661,5.786 0.771,0.193 c 0.403,-1.513 0.843,-2.565 1.32,-3.155 1.033,-1.237 2.205,-1.874 3.515,-1.911 0.996,-0.018 1.78,0.295 2.353,0.941 0.516,0.628 0.766,1.468 0.747,2.519 -0.037,1.606 -1.439,3.433 -4.207,5.482 -2.852,2.159 -4.278,4.189 -4.278,6.09 0,1.365 0.45,2.472 1.348,3.321 0.901,0.826 2.034,1.239 3.4,1.239 0.535,0 1.227,-0.156 2.077,-0.468 0.405,-0.146 0.737,-0.22 0.996,-0.22 0.203,0 0.646,0.231 1.329,0.692 L -0.886,9.883 -1.55,9.8 c -0.868,2.952 -2.381,4.429 -4.54,4.429 -0.665,0 -1.255,-0.241 -1.772,-0.72 -0.517,-0.48 -0.775,-1.117 -0.775,-1.91 0,-1.2 1.449,-2.934 4.346,-5.204 C -1.412,4.143 0.018,2.012 0,0"
         style="fill:#231f20;fill-opacity:1;fill-rule:nonzero;stroke:none"
         transform="matrix(1.3333333,0,0,-1.3333333,145.5892,20.185067)"
         clip-path="url(#clipPath16)" />
      <path
         id="path17"
         d="m 123.679,188.977 h -11.516 v 1.813 h 11.516 z"
         style="fill:#231f20;fill-opacity:1;fill-rule:nonzero;stroke:none"
         transform="matrix(1.3333333,0,0,-1.3333333,0,267.76)"
         clip-path="url(#clipPath18)" />
      <path
         id="path19"
         d="m 0,0 c -1.015,0 -1.68,-0.435 -1.993,-1.303 l -3.211,-8.454 v -6.625 c 0,-1.183 0.516,-1.774 1.551,-1.774 h 0.774 v -0.875 h -7.289 v 0.875 h 0.664 c 1.033,0 1.55,0.554 1.55,1.663 v 6.847 l -3.653,8.343 C -11.995,-0.435 -12.466,0 -13.02,0 v 0.875 h 5.705 V 0 h -0.416 c -0.665,0 -0.998,-0.258 -0.998,-0.775 0,-0.314 0.102,-0.72 0.305,-1.218 l 2.804,-6.533 2.52,6.339 c 0.129,0.627 0.24,1.098 0.332,1.412 C -2.842,-0.258 -3.211,0 -3.875,0 H -4.539 V 0.875 H 0 Z"
         style="fill:#231f20;fill-opacity:1;fill-rule:nonzero;stroke:none"
         transform="matrix(1.3333333,0,0,-1.3333333,184.89067,1.9578667)"
         clip-path="url(#clipPath20)" />
      <path
         id="path21"
         d="m 0,0 c -0.019,-1.809 -0.646,-3.221 -1.883,-4.235 -0.998,-0.813 -2.282,-1.265 -3.851,-1.357 -1.534,0.073 -2.716,0.452 -3.547,1.135 -1.108,0.886 -1.662,1.892 -1.662,3.018 0,0.774 0.222,1.393 0.667,1.854 0.37,0.424 0.851,0.637 1.444,0.637 0.424,0 0.83,-0.167 1.218,-0.499 0.203,-0.184 0.304,-0.498 0.304,-0.941 0,-0.498 -0.359,-1.015 -1.079,-1.55 -0.369,-0.259 -0.554,-0.563 -0.554,-0.914 0,-0.35 0.222,-0.701 0.666,-1.051 0.609,-0.517 1.228,-0.766 1.857,-0.748 2.162,0.037 3.234,1.689 3.215,4.955 -0.018,3.193 -1.385,4.789 -4.102,4.789 h -0.749 v 0.938 h 0.638 c 1.09,0 2.061,0.342 2.911,1.025 0.647,0.757 0.97,1.967 0.97,3.63 0,1.681 -0.398,2.854 -1.194,3.519 -0.426,0.259 -0.954,0.388 -1.583,0.388 -0.667,0 -1.204,-0.157 -1.611,-0.47 -0.408,-0.296 -0.612,-0.61 -0.612,-0.942 0,-0.203 0.231,-0.479 0.693,-0.83 0.608,-0.48 0.913,-0.969 0.913,-1.467 0,-0.444 -0.157,-0.813 -0.47,-1.108 C -7.697,9.5 -8.075,9.361 -8.537,9.361 c -0.554,0 -1.026,0.212 -1.414,0.637 -0.37,0.406 -0.554,0.978 -0.554,1.716 0,1.181 0.507,2.132 1.524,2.851 0.924,0.644 2.005,0.966 3.244,0.966 1.496,0 2.753,-0.406 3.77,-1.218 1.016,-0.813 1.524,-1.985 1.524,-3.517 0,-2.694 -1.69,-4.411 -5.07,-5.149 C -1.819,5.425 0.018,3.543 0,0"
         style="fill:#231f20;fill-opacity:1;fill-rule:nonzero;stroke:none"
         transform="matrix(1.3333333,0,0,-1.3333333,202.3112,20.7072)"
         clip-path="url(#clipPath22)" />
      <path
         id="path23"
         d="m 0,0 c -0.092,3.931 -0.388,6.505 -0.886,7.724 -0.332,0.627 -0.84,0.941 -1.522,0.941 -1.55,0 -2.325,-1.975 -2.325,-5.924 0,-3.451 0.775,-5.196 2.325,-5.232 0.609,-0.019 1.19,0.258 1.744,0.83 C -0.313,-1.163 -0.092,-0.609 0,0 m 3.088,0.453 c 0,-4.725 -0.849,-8.056 -2.547,-9.994 -1.126,-1.292 -2.445,-1.983 -3.958,-2.076 -1.477,0.074 -2.547,0.452 -3.211,1.136 -0.591,0.627 -0.887,1.319 -0.887,2.076 0,0.682 0.184,1.199 0.551,1.55 0.257,0.369 0.697,0.553 1.321,0.553 1.014,0 1.52,-0.516 1.52,-1.55 0,-0.295 -0.212,-0.637 -0.636,-1.024 -0.296,-0.277 -0.443,-0.535 -0.443,-0.775 0,-0.259 0.11,-0.498 0.332,-0.72 0.166,-0.222 0.498,-0.323 0.996,-0.304 1.255,0.036 2.243,0.793 2.962,2.27 0.443,1.199 0.739,3.275 0.886,6.228 -0.996,-0.904 -2.03,-1.384 -3.1,-1.439 -1.531,0.055 -2.709,0.701 -3.534,1.937 -0.716,1.071 -1.073,2.408 -1.073,4.014 0,1.993 0.358,3.608 1.077,4.845 0.885,1.531 2.26,2.297 4.124,2.297 1.698,0 2.981,-0.646 3.848,-1.937 C 2.497,5.786 3.088,3.424 3.088,0.453"
         style="fill:#231f20;fill-opacity:1;fill-rule:nonzero;stroke:none"
         transform="matrix(1.3333333,0,0,-1.3333333,216.92973,12.6356)"
         clip-path="url(#clipPath24)" />
      <path
         id="path25"
         d="m 0,0 c 4.75,-2.727 9.307,-5.781 13.666,-9.168 4.361,-3.389 8.02,-7.418 10.979,-12.09 2.179,-4.049 1.244,-4.672 -2.803,-1.869 C 13.121,-16.898 5.84,-9.189 0,0 m 56.955,1.266 c 5.606,-2.881 10.96,-6.27 16.06,-10.162 5.098,-3.895 8.894,-8.799 11.387,-14.715 0.856,-2.805 -0.117,-3.815 -2.92,-3.037 -3.816,1.945 -7.125,4.457 -9.927,7.533 -2.804,3.074 -5.411,6.324 -7.826,9.752 -2.413,3.425 -4.672,6.968 -6.774,10.629 m -4.556,18.57 c 5.919,-2.025 10.825,-5.488 14.717,-10.395 0.546,-0.933 0.312,-1.285 -0.701,-1.05 -4.748,1.711 -8.953,4.281 -12.614,7.709 -0.234,0.232 -0.35,0.466 -0.35,0.699 -0.155,0.857 -0.623,1.596 -1.402,2.22 -0.234,0.467 -0.116,0.739 0.35,0.817 m -175.331,-6.988 c 0,-0.78 0.391,-1.246 1.168,-1.401 1.948,-0.857 3.895,-1.634 5.84,-2.336 2.494,-1.246 4.947,-2.414 7.36,-3.504 1.791,0.077 2.726,1.01 2.802,2.803 -0.467,1.711 -1.478,3.154 -3.037,4.322 -0.232,0.467 -0.076,0.622 0.467,0.467 0.625,-0.234 1.209,-0.508 1.752,-0.818 4.984,-3.27 10.24,-5.723 15.767,-7.358 2.336,-0.39 3.272,0.506 2.805,2.686 -0.351,0.794 -0.754,1.555 -1.201,2.287 0.764,-0.312 1.525,-0.625 2.275,-0.937 2.336,-1.09 4.672,-2.102 7.008,-3.036 2.649,-1.091 4.088,-0.312 4.322,2.336 -0.466,1.557 -1.322,2.92 -2.57,4.088 -0.232,0.389 -0.154,0.543 0.235,0.467 2.96,-1.869 5.685,-4.012 8.175,-6.424 2.336,-1.793 3.7,-1.363 4.088,1.285 -0.855,3.971 -2.763,7.475 -5.722,10.512 -0.389,0.309 -0.352,0.504 0.117,0.584 0.467,-0.234 0.933,-0.391 1.4,-0.469 6.541,-4.75 12.615,-9.966 18.221,-15.65 1.324,-1.324 2.844,-2.102 4.555,-2.336 1.556,0 2.296,0.74 2.218,2.219 -1.883,2.546 -3.744,5.129 -5.592,7.745 1.1,-0.445 2.2,-0.872 3.299,-1.269 2.492,-1.246 4.946,-2.414 7.358,-3.504 1.793,0.077 2.726,1.01 2.802,2.803 -0.466,1.711 -1.476,3.154 -3.035,4.322 -0.234,0.467 -0.078,0.622 0.467,0.467 0.623,-0.234 1.207,-0.508 1.752,-0.818 4.984,-3.27 10.24,-5.723 15.768,-7.358 2.336,-0.39 3.269,0.506 2.802,2.686 -0.297,0.67 -0.636,1.312 -1,1.937 1.315,-0.54 2.621,-1.071 3.914,-1.587 3.663,-1.559 7.282,-3.27 10.864,-5.139 3.66,-5.373 7.631,-10.59 11.912,-15.65 4.283,-5.063 9.189,-9.385 14.717,-12.965 1.945,-1.244 4.047,-2.024 6.306,-2.336 1.324,0.545 1.887,1.5 1.694,2.861 -0.196,1.361 -0.565,2.588 -1.11,3.68 -3.504,5.994 -8.076,11.133 -13.722,15.416 -5.645,4.281 -11.543,8.019 -17.696,11.213 -1.791,2.879 -3.426,5.799 -4.906,8.759 -0.543,0.778 -0.973,1.711 -1.283,2.803 0.31,0.467 0.506,0.973 0.584,1.52 1.012,0.076 1.947,-0.196 2.803,-0.819 5.918,-3.037 11.757,-6.035 17.519,-8.994 1.092,-0.467 2.336,-0.699 3.736,-0.699 1.403,0 2.221,0.738 2.454,2.219 -0.008,0.196 -0.049,0.38 -0.069,0.571 2.654,-1.05 5.285,-2.121 7.883,-3.226 3.66,-1.246 7.396,-1.984 11.211,-2.218 1.869,0.234 2.532,1.244 1.986,3.037 -0.238,0.6 -0.516,1.182 -0.791,1.765 1.889,-0.752 3.778,-1.539 5.667,-2.402 2.881,-1.246 5.722,-2.568 8.526,-3.971 4.361,-7.398 9.266,-14.406 14.715,-21.023 3.504,-4.672 7.787,-8.371 12.848,-11.096 2.413,-1.478 4.672,-1.576 6.775,-0.291 2.102,1.285 2.529,3.328 1.285,6.131 -2.415,5.84 -6.153,10.746 -11.213,14.717 -6.617,5.373 -13.821,9.887 -21.608,13.549 -1.323,2.412 -2.724,4.826 -4.204,7.24 -0.155,0.935 0.137,1.324 0.876,1.168 0.74,-0.156 1.305,-0.467 1.694,-0.934 4.128,-3.894 8.917,-6.424 14.366,-7.591 1.947,-0.313 2.977,0.292 3.095,1.81 0.068,0.892 -0.082,1.686 -0.403,2.402 1.726,-0.81 3.44,-1.598 5.128,-2.337 1.947,-0.936 3.895,-1.793 5.84,-2.571 1.947,0.076 2.96,1.012 3.037,2.803 -0.468,1.637 -1.361,3.113 -2.686,4.439 -0.234,0.467 -0.118,0.661 0.35,0.584 5.139,-3.037 10.239,-6.074 15.3,-9.111 2.336,-1.012 4.245,-0.623 5.724,1.168 -0.1,1.631 -0.465,3.156 -1.063,4.589 2.238,-0.85 4.44,-1.724 6.564,-2.65 1.868,-0.623 3.699,-1.128 5.489,-1.517 13.314,-11.447 28.655,-18.416 46.017,-20.906 14.562,-2.961 28.928,-2.453 43.099,1.517 7.008,2.412 9.071,6.93 6.189,13.549 -3.892,5.682 -8.953,10.004 -15.183,12.965 -0.543,-1.947 0.079,-3.621 1.869,-5.024 4.128,-1.791 7.32,-4.554 9.577,-8.293 2.027,-4.126 0.935,-7.24 -3.27,-9.343 -13.548,-4.362 -27.369,-4.828 -41.463,-1.401 -16.428,2.647 -30.872,9.42 -43.331,20.323 -2.88,4.359 -2.025,8.134 2.569,11.329 9.656,6.073 19.856,11.096 30.601,15.067 6.619,3.192 7.475,7.513 2.569,12.964 -10.277,8.252 -22.034,12.808 -35.272,13.665 -1.478,-0.233 -2.803,-0.857 -3.971,-1.869 -1.479,-1.168 -1.907,-2.531 -1.285,-4.088 1.792,-1.09 3.544,-1.128 5.256,-0.116 1.48,1.323 3.194,2.062 5.139,2.219 10.044,-0.857 18.844,-4.555 26.396,-11.096 2.259,-4.05 1.051,-6.89 -3.62,-8.526 -9.888,-3.66 -19.349,-8.176 -28.382,-13.548 -6.384,-3.816 -8.409,-9.072 -6.074,-15.767 -0.856,0.232 -1.711,0.504 -2.57,0.816 -3.078,0.925 -6.121,2.039 -9.125,3.344 -0.461,0.554 -0.956,1.095 -1.514,1.61 -0.623,0.699 -0.895,1.593 -0.818,2.685 -0.389,1.322 -1.285,2.102 -2.686,2.336 -1.245,-0.857 -1.635,-2.064 -1.168,-3.621 0.39,-0.934 0.934,-1.676 1.635,-2.219 2.102,-2.025 3.738,-4.322 4.906,-6.89 0.233,-0.702 0,-0.936 -0.702,-0.702 -7.084,3.426 -14.015,7.202 -20.79,11.33 -1.477,0.309 -2.336,-0.195 -2.569,-1.519 0.935,-1.947 1.947,-3.816 3.037,-5.606 0.234,-0.779 -0.077,-1.013 -0.934,-0.701 -0.622,0.235 -1.286,0.467 -1.986,0.701 -2.331,0.777 -6.225,2.191 -8.849,3.319 -3.897,4.293 -8.724,7.245 -14.506,8.823 -2.179,0.388 -3.308,-0.546 -3.386,-2.804 0.078,-0.546 -0.194,-0.742 -0.818,-0.584 -2.491,0.077 -3.581,-1.091 -3.27,-3.504 0.624,-0.857 1.168,-1.752 1.634,-2.687 0.858,-1.635 1.714,-3.231 2.57,-4.787 -1.868,0.777 -3.776,1.517 -5.723,2.219 -2.569,1.009 -5.139,2.023 -7.708,3.037 -0.002,0 -0.006,-10e-4 -0.008,-10e-4 -0.912,1.438 -1.944,2.822 -3.115,4.139 -0.389,0.545 -0.741,1.168 -1.051,1.87 -0.545,0.934 -1.363,1.635 -2.453,2.102 -1.09,0.467 -1.869,1.285 -2.336,2.453 -0.467,2.412 -1.791,4.243 -3.971,5.489 -0.855,0.31 -1.596,0.117 -2.219,-0.584 -0.388,-1.246 -0.156,-2.298 0.7,-3.153 1.013,-0.234 1.869,-0.702 2.57,-1.402 0.234,-0.39 0.508,-0.663 0.818,-0.817 0.858,-1.014 1.518,-2.103 1.985,-3.271 l 0.117,-0.117 c 0.312,-0.934 0.896,-1.519 1.752,-1.751 1.634,-1.715 3.115,-3.504 4.437,-5.373 1.014,-3.66 -0.467,-4.828 -4.437,-3.504 -0.934,0.234 -1.907,0.506 -2.92,0.818 -3.086,1.001 -6.176,2.158 -9.264,3.471 -0.281,0.527 -0.599,1.039 -1.002,1.517 -0.623,0.934 -1.207,1.946 -1.752,3.038 -0.623,1.478 -1.595,2.686 -2.92,3.62 -1.011,0.622 -2.062,0.777 -3.154,0.467 -0.467,-1.48 -0.039,-2.803 1.285,-3.97 1.092,-1.092 2.143,-2.143 3.152,-3.155 1.168,-1.168 1.948,-2.453 2.336,-3.853 -0.543,-0.779 -1.361,-0.779 -2.451,0 -7.164,3.971 -14.484,7.629 -21.959,10.978 -4.125,0.777 -5.566,-0.896 -4.32,-5.023 1.791,-3.27 3.619,-6.424 5.488,-9.459 -2.101,0.934 -4.242,1.789 -6.424,2.568 -2.568,0.936 -5.138,1.909 -7.709,2.92 -0.005,0 -0.009,-10e-4 -0.015,-10e-4 -0.99,1.057 -2.11,2.033 -3.365,2.923 -2.803,2.569 -6.034,4.514 -9.694,5.839 -1.869,0.778 -3.426,0.468 -4.672,-0.934 0.7,-1.947 2.063,-2.727 4.088,-2.336 0.858,0.078 1.635,0 2.336,-0.233 4.828,-2.57 8.875,-5.957 12.147,-10.162 0.312,-0.857 0.039,-1.051 -0.819,-0.584 -5.605,2.336 -11.054,5.139 -16.351,8.41 -1.946,1.01 -3.621,0.738 -5.022,-0.818 0.313,-1.635 1.051,-2.998 2.219,-4.088 0.391,-0.858 0.117,-1.168 -0.818,-0.934 -3.192,1.01 -6.383,2.219 -9.577,3.621 -0.15,-0.017 -0.293,-0.052 -0.433,-0.094 -1.24,1.79 -2.475,3.591 -3.697,5.414 -0.467,0.701 -0.893,1.519 -1.284,2.453 -0.234,1.479 -1.168,2.336 -2.804,2.57 -1.557,0.388 -2.256,-0.078 -2.102,-1.402 0.235,-0.779 0.467,-1.48 0.701,-2.102 0.701,-0.467 1.285,-0.975 1.752,-1.519 2.336,-3.659 4.867,-7.163 7.592,-10.511 0.391,-0.779 0.232,-0.857 -0.467,-0.234 -4.906,4.75 -10.279,9.033 -16.119,12.848 -1.168,0.468 -2.373,0.972 -3.621,1.518 -1.088,0.467 -2.141,0.427 -3.152,-0.117 -0.701,-1.246 -0.584,-2.414 0.349,-3.504 2.803,-2.802 5.063,-5.917 6.776,-9.343 0.078,-0.545 -0.118,-0.584 -0.584,-0.117 -2.805,3.037 -6.229,5.178 -10.28,6.424 -1.869,0.234 -2.761,-0.545 -2.685,-2.336 0.467,-0.858 0.974,-1.676 1.517,-2.453 0.625,-1.247 0.235,-1.674 -1.168,-1.284 -1.244,0.389 -2.49,0.817 -3.736,1.284 -2.025,0.701 -4.088,1.519 -6.191,2.453 -0.065,-0.007 -0.121,-0.029 -0.184,-0.04 -0.838,0.823 -1.752,1.597 -2.76,2.311 -2.804,2.569 -6.033,4.514 -9.695,5.839 -1.869,0.778 -3.426,0.468 -4.672,-0.934 0.701,-1.947 2.065,-2.727 4.088,-2.336 0.857,0.078 1.635,0 2.336,-0.233 4.83,-2.57 8.877,-5.957 12.146,-10.162 0.313,-0.857 0.042,-1.051 -0.816,-0.584 -5.607,2.336 -11.057,5.139 -16.351,8.41 -1.946,1.01 -3.622,0.738 -5.024,-0.818 0.313,-1.635 1.053,-2.998 2.221,-4.088 0.39,-0.858 0.115,-1.168 -0.819,-0.934 -3.191,1.01 -6.382,2.219 -9.578,3.621 -0.699,-0.08 -1.283,-0.429 -1.752,-1.052"
         style="fill:#231f20;fill-opacity:1;fill-rule:nonzero;stroke:none"
         transform="matrix(1.3333333,0,0,-1.3333333,278.07813,189.1584)"
         clip-path="url(#clipPath26)"
         inkscape:label="path25" />
    </g>
  </g>
</svg>
