<?xml version="1.0" encoding="UTF-8" standalone="no"?>
<!-- Created with Inkscape (http://www.inkscape.org/) -->

<svg
   version="1.1"
   id="svg1"
   width="415.74933"
   height="464.504"
   viewBox="0 0 415.74933 464.504"
   sodipodi:docname="06098158.svg"
   inkscape:version="1.4.2 (f4327f4, 2025-05-13)"
   xmlns:inkscape="http://www.inkscape.org/namespaces/inkscape"
   xmlns:sodipodi="http://sodipodi.sourceforge.net/DTD/sodipodi-0.dtd"
   xmlns="http://www.w3.org/2000/svg"
   xmlns:svg="http://www.w3.org/2000/svg">
  <defs
     id="defs1">
    <clipPath
       clipPathUnits="userSpaceOnUse"
       id="clipPath4">
      <path
         d="M 0,348.378 H 311.812 V 0 H 0 Z"
         transform="translate(-220.00881,-330.06791)"
         id="path4" />
    </clipPath>
    <clipPath
       clipPathUnits="userSpaceOnUse"
       id="clipPath6">
      <path
         d="M 0,348.378 H 311.812 V 0 H 0 Z"
         transform="translate(-139.4478,-153.0283)"
         id="path6" />
    </clipPath>
  </defs>
  <sodipodi:namedview
     id="namedview1"
     pagecolor="#ffffff"
     bordercolor="#000000"
     borderopacity="0.25"
     inkscape:showpageshadow="2"
     inkscape:pageopacity="0.0"
     inkscape:pagecheckerboard="0"
     inkscape:deskcolor="#d1d1d1"
     inkscape:zoom="1.9052581"
     inkscape:cx="208.37072"
     inkscape:cy="232.77686"
     inkscape:window-width="1920"
     inkscape:window-height="1017"
     inkscape:window-x="-8"
     inkscape:window-y="-8"
     inkscape:window-maximized="1"
     inkscape:current-layer="g1">
    <inkscape:page
       x="0"
       y="0"
       inkscape:label="1"
       id="page1"
       width="415.74933"
       height="464.504"
       margin="0"
       bleed="0" />
  </sodipodi:namedview>
  <g
     id="g1"
     inkscape:groupmode="layer"
     inkscape:label="1">
    <g
       id="group-MC0">
      <path
         id="path2"
         d="M 0,0 H 311.811 V 311.811 H 0 Z"
         style="fill:#ffffff;fill-opacity:1;fill-rule:nonzero;stroke:none"
         transform="matrix(1.3333333,0,0,-1.3333333,0,464.504)" />
      <path
         id="path3"
         d="m 0,0 v 0.812 c -1.41,0.039 -2.481,0.593 -3.234,1.656 l -4.519,6.291 c 1.829,0.039 3.223,0.472 4.22,1.284 0.817,0.718 1.271,1.777 1.385,3.187 -0.114,1.552 -0.728,2.702 -1.878,3.429 -1.197,0.726 -2.602,1.098 -4.245,1.111 h -9.945 v -0.813 h 0.865 c 1.133,-0.013 1.691,-0.705 1.704,-2.075 V 2.667 C -15.66,1.418 -16.253,0.804 -17.451,0.812 h -0.765 V 0 h 7.899 v 0.812 h -0.817 c -1.11,-0.008 -1.664,0.606 -1.651,1.855 v 6.045 h 1.725 L -5.31,0 H 0 M -22.25,9.429 H -39.38 V 7.825 h 17.13 z M -46.289,4.418 c -0.013,1.89 -0.766,3.256 -2.27,4.121 -0.8,0.471 -1.911,0.804 -3.33,0.986 1.518,0.224 2.724,0.605 3.628,1.163 0.947,0.812 1.418,1.911 1.431,3.307 -0.013,1.418 -0.666,2.53 -1.976,3.329 -1.159,0.653 -2.482,0.978 -3.973,0.986 -1.456,-0.008 -2.715,-0.406 -3.775,-1.18 -0.964,-0.731 -1.444,-1.617 -1.431,-2.642 -0.013,-0.558 0.121,-0.999 0.393,-1.358 0.307,-0.358 0.718,-0.531 1.233,-0.518 0.458,-0.013 0.804,0.112 1.063,0.371 0.333,0.355 0.506,0.714 0.52,1.086 -0.014,0.333 -0.113,0.679 -0.321,1.033 -0.258,0.372 -0.384,0.692 -0.372,0.964 -0.012,0.333 0.16,0.632 0.493,0.891 0.372,0.307 0.951,0.454 1.751,0.467 2.175,-0.013 3.247,-1.332 3.26,-4 -0.013,-1.119 -0.32,-1.997 -0.937,-2.615 -0.827,-0.614 -1.791,-0.926 -2.863,-0.913 h -1.383 V 8.932 h 1.383 c 1.245,-0.008 2.244,-0.333 3.009,-0.986 0.805,-0.778 1.198,-1.95 1.211,-3.528 -0.013,-1.271 -0.346,-2.296 -1.012,-3.061 -0.532,-0.605 -1.444,-0.925 -2.741,-0.986 -1.012,0.061 -1.765,0.32 -2.27,0.787 -0.208,0.186 -0.307,0.459 -0.293,0.791 -0.014,0.286 0.085,0.619 0.293,0.986 0.173,0.411 0.259,0.744 0.272,1.012 -0.039,0.432 -0.198,0.83 -0.471,1.163 -0.259,0.26 -0.639,0.381 -1.159,0.394 -0.553,-0.013 -0.984,-0.221 -1.304,-0.64 -0.334,-0.411 -0.506,-0.878 -0.499,-1.431 -0.007,-1.211 0.679,-2.197 2.05,-2.962 1.163,-0.67 2.395,-0.977 3.701,-0.99 1.951,0.013 3.519,0.384 4.717,1.184 1.306,0.891 1.959,2.136 1.972,3.753 M -63.541,0 v 0.812 c -1.358,0.039 -2.274,0.632 -2.741,1.777 l -6.663,15.721 -2.594,-1.232 -5.132,-13.252 c -0.32,-0.852 -0.74,-1.591 -1.258,-2.248 -0.627,-0.515 -1.233,-0.774 -1.825,-0.766 h -0.545 V 0 h 6.615 v 0.812 h -0.618 c -0.713,-0.008 -1.245,0.152 -1.578,0.472 -0.186,0.173 -0.285,0.506 -0.272,0.985 -0.013,0.234 0.026,0.472 0.099,0.692 0.074,0.372 0.458,1.492 1.159,3.381 h 7.973 l 1.504,-3.675 c 0.126,-0.333 0.186,-0.571 0.199,-0.692 C -69.231,1.69 -69.33,1.431 -69.516,1.184 -69.823,0.925 -70.243,0.804 -70.8,0.812 h -0.913 V 0 Z m -23.382,16.957 v 0.813 h -6.594 v -0.813 h 0.891 c 0.912,-0.013 1.392,-0.337 1.457,-0.964 0.013,-0.273 -0.151,-0.666 -0.471,-1.185 l -4.073,-6.243 -4.095,6.515 c -0.333,0.528 -0.506,0.926 -0.493,1.185 -0.013,0.454 0.441,0.679 1.358,0.692 h 0.713 v 0.813 h -8.094 v -0.813 c 0.705,-0.013 1.246,-0.099 1.652,-0.272 0.419,-0.333 0.852,-0.779 1.31,-1.311 l 5.206,-8.266 v -4.64 c -0.013,-1.111 -0.593,-1.664 -1.777,-1.656 h -0.787 V 0 h 8.167 v 0.812 h -0.864 c -1.207,-0.008 -1.812,0.584 -1.799,1.777 v 5.284 l 4.76,7.207 c 0.485,0.727 1.051,1.272 1.678,1.605 0.333,0.173 0.951,0.259 1.855,0.272 M -109.821,0 v 0.812 c -1.272,0.039 -2.296,0.593 -3.062,1.656 l -6.589,8.985 3.926,3.627 c 0.705,0.653 1.392,1.099 2.071,1.358 0.817,0.333 1.669,0.506 2.568,0.519 v 0.813 h -7.501 v -0.813 h 0.614 c 0.929,-0.013 1.422,-0.311 1.457,-0.891 -0.035,-0.272 -0.307,-0.692 -0.787,-1.258 l -7.087,-6.516 v 6.983 c -0.008,1.111 0.485,1.669 1.483,1.682 h 1.012 v 0.813 h -7.994 v -0.813 h 0.985 c 1.038,-0.013 1.544,-0.571 1.553,-1.682 V 2.589 c -0.009,-1.193 -0.554,-1.785 -1.652,-1.777 h -0.886 V 0 h 8.068 v 0.812 h -0.986 c -1.064,-0.008 -1.591,0.584 -1.583,1.777 v 4.545 l 2.668,2.442 4.838,-6.515 c 0.433,-0.619 0.653,-1.112 0.666,-1.483 -0.073,-0.515 -0.558,-0.774 -1.431,-0.766 h -0.817 V 0 Z M -5.31,12.932 C -5.418,11.833 -5.776,10.956 -6.395,10.29 -7.061,9.762 -8.047,9.49 -9.356,9.503 h -3.429 v 5.577 c -0.013,1.246 0.541,1.864 1.651,1.877 h 1.678 c 1.224,-0.013 2.248,-0.337 3.061,-0.964 0.619,-0.532 0.977,-1.557 1.085,-3.061 M -71.22,7.134 h -7.376 l 3.576,9.058 z"
         style="fill:#231f20;fill-opacity:1;fill-rule:nonzero;stroke:none"
         transform="matrix(1.3333333,0,0,-1.3333333,293.34507,24.413467)"
         clip-path="url(#clipPath4)" />
      <path
         id="path5"
         d="m 0,0 c 0.299,0.18 0.629,0.314 0.988,0.404 0.36,0.09 0.719,0.135 1.078,0.135 0.36,0 0.629,-0.211 0.809,-0.629 C 2.455,-0.809 1.932,-1.318 1.303,-1.617 0.674,-1.918 0.029,-2.217 -0.629,-2.516 -2.426,-3.355 -4.253,-4.133 -6.109,-4.852 -4.373,-2.875 -2.336,-1.258 0,0 m 110.62,-5.043 c -2.457,-1.078 -4.912,-2.008 -7.368,-2.785 -0.718,-0.18 -0.929,0.058 -0.628,0.719 0.898,0.838 1.466,1.886 1.707,3.144 -1.079,1.197 -2.368,1.406 -3.864,0.629 -4.074,-2.516 -8.265,-4.672 -12.578,-6.469 -0.66,-0.359 -0.869,-0.211 -0.629,0.45 2.516,3.234 5.629,5.839 9.344,7.816 0.539,0.18 1.137,0.238 1.797,0.18 1.557,-0.301 2.605,0.298 3.144,1.797 -0.959,1.078 -2.156,1.316 -3.593,0.718 -2.817,-1.019 -5.301,-2.515 -7.457,-4.492 -0.84,-0.594 -1.596,-1.24 -2.282,-1.933 -2.498,-1.041 -6.497,-2.351 -8.634,-2.993 -0.6,-0.24 -1.168,-0.39 -1.707,-0.449 -0.301,0.059 -0.36,0.238 -0.18,0.539 0.18,0.777 0.598,1.496 1.258,2.156 0.179,0.598 0.029,1.168 -0.45,1.707 -0.718,0.12 -1.408,0.149 -2.066,0.09 -1.379,0 -2.637,0.389 -3.773,1.168 -0.481,0.539 -0.989,1.047 -1.528,1.528 -0.599,0 -1.049,-0.241 -1.347,-0.719 -0.241,-0.481 -0.539,-0.869 -0.899,-1.168 -0.962,-0.861 -2.013,-1.494 -3.145,-1.927 -0.078,0.02 -0.154,0.043 -0.236,0.052 -1.976,-0.899 -3.953,-1.678 -5.929,-2.336 -0.539,-0.18 -1.049,-0.359 -1.528,-0.539 -0.66,-0.24 -0.898,-0.061 -0.718,0.539 0.837,1.377 1.617,2.814 2.336,4.312 -0.18,1.018 -0.84,1.407 -1.977,1.168 -5.211,-3.175 -10.543,-6.08 -15.992,-8.714 -0.539,-0.18 -0.719,0 -0.539,0.539 0.898,1.976 2.156,3.742 3.773,5.3 0.539,0.418 0.957,0.989 1.258,1.707 0.359,1.198 0.059,2.125 -0.898,2.786 -1.079,-0.18 -1.768,-0.78 -2.067,-1.797 0.058,-0.826 -0.146,-1.501 -0.607,-2.036 -1.662,-0.71 -4.671,-1.631 -6.174,-2.152 -0.959,-0.359 -1.918,-0.689 -2.875,-0.988 -1.078,-0.301 -1.379,0.029 -0.899,0.988 0.418,0.598 0.809,1.227 1.168,1.887 0.059,1.377 -0.629,1.976 -2.066,1.797 -3.115,-0.959 -5.75,-2.606 -7.906,-4.942 -0.36,-0.359 -0.51,-0.33 -0.449,0.09 1.316,2.635 3.054,5.031 5.21,7.188 0.719,0.838 0.809,1.736 0.27,2.695 -0.779,0.418 -1.588,0.449 -2.426,0.09 -0.959,-0.42 -1.887,-0.809 -2.785,-1.168 -4.492,-2.936 -8.625,-6.231 -12.398,-9.883 -0.539,-0.48 -0.66,-0.42 -0.36,0.18 2.096,2.574 4.043,5.269 5.84,8.086 0.359,0.418 0.809,0.808 1.348,1.168 0.179,0.478 0.359,1.017 0.539,1.617 0.119,1.017 -0.42,1.377 -1.617,1.078 C 15.78,3.195 15.061,2.535 14.881,1.398 14.581,0.68 14.252,0.051 13.893,-0.488 12.826,-2.077 11.743,-3.633 10.661,-5.19 8.412,-6.114 5.385,-7.172 3.234,-7.906 1.557,-8.387 -0.18,-8.836 -1.977,-9.254 c -0.959,-0.42 -1.962,-0.404 -3.009,0.045 -1.049,0.449 -1.633,1.271 -1.752,2.471 2.275,0.777 4.521,1.617 6.738,2.515 1.258,0.479 2.516,1.108 3.773,1.887 0.719,0.539 1.123,1.287 1.213,2.246 0.09,0.957 -0.285,1.676 -1.123,2.156 -0.839,0.479 -1.677,0.539 -2.515,0.18 -2.516,-0.66 -4.703,-1.828 -6.559,-3.504 -1.366,-1.084 -2.596,-2.281 -3.702,-3.585 -0.028,0.008 -0.051,0.026 -0.081,0.032 -2.396,-1.019 -4.792,-1.918 -7.187,-2.695 -0.959,-0.301 -1.887,-0.539 -2.785,-0.719 4.97,12.758 12.188,24.168 21.652,34.231 1.916,1.078 3.414,2.515 4.492,4.312 C 6.698,32.174 5.62,32.834 3.944,32.295 2.386,31.455 1.038,30.438 -0.099,29.24 -10.88,18.459 -21.902,7.977 -33.162,-2.205 c -8.326,-7.906 -17.67,-14.166 -28.031,-18.777 -7.726,-1.858 -10.213,1.017 -7.457,8.625 4.192,10.242 9.822,19.675 16.891,28.3 0.478,0.659 1.107,1.137 1.886,1.438 1.198,0.418 2.126,1.197 2.786,2.336 0.598,1.078 0.748,2.275 0.449,3.594 -0.539,1.078 -1.379,1.377 -2.516,0.898 -2.217,-1.199 -4.043,-2.785 -5.48,-4.762 -7.847,-9.703 -14.106,-20.304 -18.778,-31.804 -2.276,-10.602 1.946,-14.375 12.668,-11.321 10.541,4.432 20.215,10.391 29.02,17.879 5.989,4.731 11.769,9.733 17.34,15.004 0.838,0.418 1.107,0.18 0.808,-0.719 -5.331,-9.465 -9.644,-19.316 -12.937,-29.558 -0.899,-1.199 -1.558,-2.457 -1.977,-3.774 0.119,-1.558 0.838,-2.695 2.157,-3.414 1.916,0.418 2.724,1.766 2.425,4.043 0.958,4.551 2.276,9.043 3.953,13.477 1.377,0.238 2.755,0.597 4.133,1.078 1.811,0.769 3.656,1.506 5.503,2.242 -0.142,-0.624 -0.197,-1.265 -0.148,-1.924 0.09,-1.199 0.733,-2.037 1.932,-2.515 1.317,-0.18 2.664,-0.225 4.043,-0.135 1.377,0.09 2.724,0.328 4.043,0.719 1.317,0.388 2.664,0.793 4.043,1.212 1.668,0.791 3.401,1.494 5.166,2.156 -1.275,-1.798 -2.555,-3.585 -3.851,-5.339 -0.059,-1.139 0.509,-1.707 1.707,-1.707 1.317,0.18 2.485,0.777 3.504,1.797 4.312,4.371 8.984,8.385 14.015,12.039 0.36,0.058 0.719,0.179 1.078,0.359 0.36,-0.06 0.389,-0.211 0.09,-0.449 -2.277,-2.336 -3.744,-5.031 -4.402,-8.086 0.299,-2.037 1.348,-2.367 3.144,-0.988 1.916,1.855 4.012,3.504 6.289,4.941 0.299,0.059 0.36,-0.06 0.18,-0.359 -0.959,-0.899 -1.617,-1.947 -1.976,-3.145 0.179,-2.037 1.287,-2.636 3.324,-1.797 1.797,0.719 3.594,1.496 5.39,2.336 1.039,0.432 2.11,0.865 3.178,1.297 -0.898,-1.484 -1.407,-3.126 -1.517,-4.926 1.136,-1.379 2.605,-1.677 4.402,-0.898 3.893,2.336 7.816,4.672 11.769,7.008 0.36,0.058 0.45,-0.09 0.27,-0.449 -1.02,-1.02 -1.707,-2.157 -2.066,-3.415 0.058,-1.378 0.837,-2.097 2.336,-2.156 1.496,0.598 2.994,1.258 4.492,1.977 1.711,0.748 3.45,1.553 5.21,2.397 0.103,-0.003 0.206,-0.006 0.327,0.017 1.855,0.719 3.652,1.676 5.39,2.875 0.059,0.058 0.18,0.058 0.36,0 1.137,-0.899 2.426,-1.469 3.863,-1.707 0.299,-0.061 0.328,-0.211 0.09,-0.449 -0.898,-0.959 -1.469,-2.008 -1.707,-3.145 0.059,-1.437 0.809,-2.098 2.246,-1.976 1.557,0.298 3.084,0.867 4.582,1.707 1.856,0.752 3.745,1.504 5.645,2.257 -0.383,-0.61 -0.724,-1.248 -1.018,-1.914 -0.359,-1.677 0.359,-2.367 2.156,-2.066 4.252,1.258 8.295,3.144 12.129,5.66 0.418,0.238 0.867,0.449 1.348,0.629 0.418,0.119 0.539,0 0.359,-0.359 -1.199,-0.899 -1.976,-2.008 -2.336,-3.325 0.059,-1.379 0.778,-2.097 2.157,-2.156 1.855,0.838 3.742,1.736 5.66,2.695 1.496,0.539 2.994,1.137 4.492,1.797 0.598,0.119 0.898,0.479 0.898,1.078 -0.359,0.479 -0.808,0.748 -1.347,0.809"
         style="fill:#231f20;fill-opacity:1;fill-rule:nonzero;stroke:none"
         transform="matrix(1.3333333,0,0,-1.3333333,185.9304,260.46627)"
         clip-path="url(#clipPath6)"
         inkscape:label="path5" />
    </g>
  </g>
</svg>
