<?xml version="1.0" encoding="UTF-8" standalone="no"?>
<!-- Created with Inkscape (http://www.inkscape.org/) -->

<svg
   version="1.1"
   id="svg1"
   width="415.74933"
   height="468.504"
   viewBox="0 0 415.74933 468.504"
   sodipodi:docname="06099103.svg"
   inkscape:version="1.4.2 (f4327f4, 2025-05-13)"
   xmlns:inkscape="http://www.inkscape.org/namespaces/inkscape"
   xmlns:sodipodi="http://sodipodi.sourceforge.net/DTD/sodipodi-0.dtd"
   xmlns="http://www.w3.org/2000/svg"
   xmlns:svg="http://www.w3.org/2000/svg">
  <defs
     id="defs1">
    <clipPath
       clipPathUnits="userSpaceOnUse"
       id="clipPath4">
      <path
         d="M 0,351.378 H 311.812 V 0 H 0 Z"
         transform="translate(-215.00881,-333.06791)"
         id="path4" />
    </clipPath>
    <clipPath
       clipPathUnits="userSpaceOnUse"
       id="clipPath6">
      <path
         d="M 0,351.378 H 311.812 V 0 H 0 Z"
         transform="translate(-199.0674,-147.9424)"
         id="path6" />
    </clipPath>
  </defs>
  <sodipodi:namedview
     id="namedview1"
     pagecolor="#ffffff"
     bordercolor="#000000"
     borderopacity="0.25"
     inkscape:showpageshadow="2"
     inkscape:pageopacity="0.0"
     inkscape:pagecheckerboard="0"
     inkscape:deskcolor="#d1d1d1"
     inkscape:zoom="1.8889914"
     inkscape:cx="207.51815"
     inkscape:cy="191.37197"
     inkscape:window-width="1920"
     inkscape:window-height="1017"
     inkscape:window-x="-8"
     inkscape:window-y="-8"
     inkscape:window-maximized="1"
     inkscape:current-layer="g1">
    <inkscape:page
       x="0"
       y="0"
       inkscape:label="1"
       id="page1"
       width="415.74933"
       height="468.504"
       margin="0"
       bleed="0" />
  </sodipodi:namedview>
  <g
     id="g1"
     inkscape:groupmode="layer"
     inkscape:label="1">
    <g
       id="group-MC0">
      <path
         id="path2"
         d="M 0,0 H 311.811 V 311.811 H 0 Z"
         style="fill:#ffffff;fill-opacity:1;fill-rule:nonzero;stroke:none"
         transform="matrix(1.3333333,0,0,-1.3333333,0,468.504)" />
      <path
         id="path3"
         d="m 0,0 v 0.812 c -1.41,0.039 -2.481,0.593 -3.234,1.656 l -4.519,6.291 c 1.829,0.039 3.223,0.472 4.22,1.284 0.817,0.718 1.271,1.777 1.385,3.187 -0.114,1.552 -0.728,2.702 -1.878,3.429 -1.197,0.726 -2.602,1.098 -4.245,1.111 h -9.945 v -0.813 h 0.865 c 1.133,-0.013 1.691,-0.705 1.704,-2.075 V 2.667 C -15.66,1.418 -16.253,0.804 -17.451,0.812 h -0.765 V 0 h 7.899 v 0.812 h -0.817 c -1.11,-0.008 -1.664,0.606 -1.651,1.855 v 6.045 h 1.725 L -5.31,0 H 0 M -22.25,9.429 H -39.38 V 7.825 h 17.13 z M -46.289,4.418 c -0.013,1.89 -0.766,3.256 -2.27,4.121 -0.8,0.471 -1.911,0.804 -3.33,0.986 1.518,0.224 2.724,0.605 3.628,1.163 0.947,0.812 1.418,1.911 1.431,3.307 -0.013,1.418 -0.666,2.53 -1.976,3.329 -1.159,0.653 -2.482,0.978 -3.973,0.986 -1.456,-0.008 -2.715,-0.406 -3.775,-1.18 -0.964,-0.731 -1.444,-1.617 -1.431,-2.642 -0.013,-0.558 0.121,-0.999 0.393,-1.358 0.307,-0.358 0.718,-0.531 1.233,-0.518 0.458,-0.013 0.804,0.112 1.063,0.371 0.333,0.355 0.506,0.714 0.52,1.086 -0.014,0.333 -0.113,0.679 -0.321,1.033 -0.258,0.372 -0.384,0.692 -0.372,0.964 -0.012,0.333 0.16,0.632 0.493,0.891 0.372,0.307 0.951,0.454 1.751,0.467 2.175,-0.013 3.247,-1.332 3.26,-4 -0.013,-1.119 -0.32,-1.997 -0.937,-2.615 -0.827,-0.614 -1.791,-0.926 -2.863,-0.913 h -1.383 V 8.932 h 1.383 c 1.245,-0.008 2.244,-0.333 3.009,-0.986 0.805,-0.778 1.198,-1.95 1.211,-3.528 -0.013,-1.271 -0.346,-2.296 -1.012,-3.061 -0.532,-0.605 -1.444,-0.925 -2.741,-0.986 -1.012,0.061 -1.765,0.32 -2.27,0.787 -0.208,0.186 -0.307,0.459 -0.293,0.791 -0.014,0.286 0.085,0.619 0.293,0.986 0.173,0.411 0.259,0.744 0.272,1.012 -0.039,0.432 -0.198,0.83 -0.471,1.163 -0.259,0.26 -0.639,0.381 -1.159,0.394 -0.553,-0.013 -0.984,-0.221 -1.304,-0.64 -0.334,-0.411 -0.507,-0.878 -0.499,-1.431 -0.008,-1.211 0.679,-2.197 2.05,-2.962 1.163,-0.67 2.395,-0.977 3.701,-0.99 1.951,0.013 3.519,0.384 4.717,1.184 1.306,0.891 1.959,2.136 1.972,3.753 M -63.541,0 v 0.812 c -1.358,0.039 -2.274,0.632 -2.741,1.777 l -6.663,15.721 -2.594,-1.232 -5.132,-13.252 c -0.32,-0.852 -0.74,-1.591 -1.258,-2.248 -0.627,-0.515 -1.233,-0.774 -1.825,-0.766 h -0.545 V 0 h 6.615 v 0.812 h -0.618 c -0.713,-0.008 -1.245,0.152 -1.578,0.472 -0.186,0.173 -0.285,0.506 -0.272,0.985 -0.013,0.234 0.026,0.472 0.099,0.692 0.074,0.372 0.458,1.492 1.159,3.381 h 7.973 l 1.504,-3.675 c 0.126,-0.333 0.186,-0.571 0.199,-0.692 C -69.231,1.69 -69.33,1.431 -69.516,1.184 -69.823,0.925 -70.243,0.804 -70.8,0.812 h -0.913 V 0 Z m -23.382,16.957 v 0.813 h -6.594 v -0.813 h 0.891 c 0.912,-0.013 1.392,-0.337 1.457,-0.964 0.013,-0.273 -0.151,-0.666 -0.471,-1.185 l -4.073,-6.243 -4.095,6.515 c -0.333,0.528 -0.506,0.926 -0.493,1.185 -0.013,0.454 0.441,0.679 1.358,0.692 h 0.713 v 0.813 h -8.094 v -0.813 c 0.705,-0.013 1.246,-0.099 1.652,-0.272 0.419,-0.333 0.852,-0.779 1.31,-1.311 l 5.206,-8.266 v -4.64 c -0.013,-1.111 -0.593,-1.664 -1.777,-1.656 h -0.787 V 0 h 8.167 v 0.812 h -0.864 c -1.207,-0.008 -1.812,0.584 -1.799,1.777 v 5.284 l 4.76,7.207 c 0.485,0.727 1.051,1.272 1.678,1.605 0.333,0.173 0.951,0.259 1.855,0.272 M -109.821,0 v 0.812 c -1.272,0.039 -2.296,0.593 -3.062,1.656 l -6.589,8.985 3.926,3.627 c 0.705,0.653 1.392,1.099 2.071,1.358 0.817,0.333 1.669,0.506 2.568,0.519 v 0.813 h -7.501 v -0.813 h 0.614 c 0.929,-0.013 1.422,-0.311 1.457,-0.891 -0.035,-0.272 -0.307,-0.692 -0.787,-1.258 l -7.087,-6.516 v 6.983 c -0.008,1.111 0.485,1.669 1.483,1.682 h 1.012 v 0.813 h -7.994 v -0.813 h 0.985 c 1.038,-0.013 1.544,-0.571 1.553,-1.682 V 2.589 c -0.009,-1.193 -0.554,-1.785 -1.652,-1.777 h -0.886 V 0 h 8.068 v 0.812 h -0.986 c -1.064,-0.008 -1.591,0.584 -1.583,1.777 v 4.545 l 2.668,2.442 4.838,-6.515 c 0.433,-0.619 0.653,-1.112 0.666,-1.483 -0.073,-0.515 -0.558,-0.774 -1.431,-0.766 h -0.817 V 0 Z M -5.31,12.932 C -5.418,11.833 -5.776,10.956 -6.395,10.29 -7.061,9.762 -8.047,9.49 -9.356,9.503 h -3.429 v 5.577 c -0.013,1.246 0.541,1.864 1.651,1.877 h 1.678 c 1.224,-0.013 2.248,-0.337 3.061,-0.964 0.619,-0.532 0.977,-1.557 1.085,-3.061 M -71.22,7.134 h -7.376 l 3.576,9.058 z"
         style="fill:#231f20;fill-opacity:1;fill-rule:nonzero;stroke:none"
         transform="matrix(1.3333333,0,0,-1.3333333,286.6784,24.413467)"
         clip-path="url(#clipPath4)" />
      <path
         id="path5"
         d="m 0,0 c -0.553,-0.552 -1.137,-0.759 -1.758,-0.62 -0.138,0.274 -0.172,0.551 -0.103,0.827 0.275,1.927 1.343,3.133 3.203,3.616 0.275,0.068 0.517,0.103 0.724,0.103 0.205,0 0.448,-0.035 0.723,-0.103 C 2.996,3.34 3.029,2.927 2.893,2.583 2.893,2.237 2.926,1.963 2.996,1.757 1.756,1.48 0.756,0.895 0,0 m -33.406,-0.386 c -0.276,-1.102 -0.93,-1.792 -1.963,-2.066 -0.553,-0.14 -1,-0.069 -1.344,0.206 -0.553,0.687 -0.826,1.48 -0.826,2.377 -0.07,1.514 0.447,2.685 1.549,3.513 0.345,0.206 0.689,0.343 1.033,0.413 0.139,-0.07 0.311,-0.104 0.518,-0.104 1.169,-1.239 1.513,-2.686 1.033,-4.339 m -22.598,-12.69 c -1.723,-2.205 -3.996,-3.513 -6.82,-3.926 -0.826,0 -1.55,0.171 -2.169,0.517 -0.139,0.207 -0.207,0.447 -0.207,0.723 0.413,1.308 1.119,2.41 2.118,3.306 0.998,0.894 2.015,1.721 3.048,2.479 2.341,1.654 4.787,2.998 7.336,4.031 -0.62,-2.619 -1.723,-4.995 -3.306,-7.13 m 114.4,15.73 C 57.844,3.343 57.189,3.481 56.434,3.068 56.156,2.929 55.951,2.826 55.813,2.758 54.09,1.379 52.197,0.553 50.131,0.278 c -1.998,-0.413 -3.582,0.138 -4.752,1.654 -0.277,5.716 1.273,11.089 4.648,16.118 0.276,0.55 0.207,1.1 -0.207,1.652 0.414,0.069 0.895,0.172 1.448,0.311 0.826,0.274 1.203,0.86 1.136,1.756 -0.277,0.827 -0.826,1.17 -1.654,1.033 -1.379,-0.345 -2.721,-0.619 -4.029,-0.826 -0.897,-0.277 -1.276,-0.827 -1.137,-1.654 0.139,-0.759 0.621,-1.136 1.447,-1.136 h 0.207 l 0.104,0.103 C 44.104,14.32 42.49,9.058 42.454,3.508 42.229,3.494 41.996,3.441 41.74,3.302 41.465,3.162 41.258,3.06 41.121,2.991 39.398,1.612 37.469,0.786 35.336,0.512 33.613,-0.108 32.34,0.27 31.512,1.648 c -0.139,0.137 -0.205,0.344 -0.205,0.621 -0.071,1.307 -0.621,2.376 -1.655,3.202 -1.24,0.481 -2.445,0.481 -3.615,0 C 23.625,4.368 21.42,3.06 19.424,1.545 c 0,1.033 -0.07,2.066 -0.207,3.1 -0.412,0.756 -1.033,1.067 -1.86,0.929 C 16.531,5.161 16.221,4.541 16.428,3.715 16.46,3.338 16.459,2.971 16.477,2.598 16.46,2.591 16.444,2.591 16.428,2.583 16.221,2.376 16.047,2.237 15.91,2.17 14.188,0.93 12.295,0.138 10.229,-0.207 8.436,-0.413 6.748,0 5.166,1.033 5.371,1.24 5.543,1.515 5.682,1.859 5.957,3.237 5.682,4.511 4.855,5.683 3.684,6.783 2.34,7.094 0.826,6.612 -0.414,6.267 -1.551,5.647 -2.584,4.753 -3.084,4.309 -3.477,3.808 -3.809,3.274 -3.95,3.235 -4.094,3.193 -4.241,3.113 -6.239,1.804 -8.374,0.84 -10.647,0.22 c -1.172,-0.346 -2.239,-0.206 -3.202,0.413 -0.828,0.62 -1.275,1.48 -1.343,2.583 -0.278,3.581 -0.104,7.197 0.515,10.848 12.123,2.274 24.385,3.685 36.783,4.237 0.827,0.068 1.274,0.551 1.342,1.446 -0.068,0.895 -0.551,1.378 -1.445,1.447 -12.191,-0.552 -24.246,-1.929 -36.162,-4.132 0.551,2.959 1.48,5.853 2.789,8.678 0.344,0.757 0.172,1.377 -0.516,1.86 -0.76,0.413 -1.379,0.274 -1.861,-0.413 -1.723,-3.376 -2.857,-6.923 -3.408,-10.642 -4.547,-0.966 -9.024,-1.999 -13.432,-3.1 -0.894,-0.276 -1.24,-0.827 -1.033,-1.653 0.207,-0.759 0.689,-1.137 1.445,-1.137 h 0.311 c 3.996,1.033 8.058,1.963 12.191,2.79 -0.482,-3.513 -0.619,-7.026 -0.412,-10.539 0.011,-0.156 0.033,-0.306 0.053,-0.459 -2.44,0.111 -4.878,0.398 -7.316,0.886 -2.685,0.62 -5.269,1.618 -7.748,2.997 0,0.067 -0.037,0.103 -0.103,0.103 -1.447,0.62 -2.826,0.516 -4.133,-0.31 -1.325,-0.928 -2.22,-2.085 -2.695,-3.466 -0.092,-0.011 -0.174,-0.006 -0.272,-0.028 -0.621,-0.207 -1.172,-0.449 -1.654,-0.724 -2.618,-1.033 -5.201,-2.066 -7.749,-3.099 -0.207,1.033 -0.586,2.066 -1.136,3.099 -0.346,0.482 -0.759,0.791 -1.24,0.931 -1.31,0.067 -2.446,-0.276 -3.41,-1.033 -1.033,-0.69 -2.102,-1.206 -3.203,-1.55 -0.689,-0.346 -1.378,-0.346 -2.066,0 -0.689,1.17 -0.93,2.443 -0.723,3.822 0,1.033 -0.449,1.618 -1.344,1.757 -0.896,-0.069 -1.412,-0.553 -1.55,-1.446 -0.078,-0.456 -0.106,-0.899 -0.111,-1.334 -0.258,-0.13 -0.456,-0.229 -0.587,-0.294 -1.723,-1.379 -3.616,-2.205 -5.683,-2.48 -1.998,-0.413 -3.582,0.138 -4.752,1.654 -0.277,5.716 1.273,11.089 4.649,16.118 0.275,0.55 0.207,1.1 -0.207,1.652 0.414,0.069 0.895,0.172 1.447,0.311 0.826,0.274 1.204,0.86 1.136,1.756 -0.276,0.827 -0.826,1.17 -1.653,1.033 -1.379,-0.345 -2.722,-0.619 -4.03,-0.826 -0.896,-0.277 -1.275,-0.827 -1.136,-1.654 0.137,-0.759 0.62,-1.136 1.447,-1.136 h 0.206 l 0.104,0.103 c -3.583,-5.502 -5.179,-11.363 -4.84,-17.576 -8.126,-5.221 -16.447,-5.332 -24.962,-0.303 -6.613,3.927 -12.709,8.54 -18.288,13.846 7.576,7.3 15.773,13.879 24.59,19.733 6.061,4.133 12.776,5.751 20.148,4.857 8.265,-1.516 13.396,-6.235 15.395,-14.156 0.137,-0.895 0.653,-1.308 1.549,-1.239 0.757,0.137 1.171,0.653 1.24,1.55 -2.205,9.366 -8.128,14.912 -17.771,16.635 -8.059,1.033 -15.464,-0.724 -22.214,-5.27 -9.299,-6.268 -17.944,-13.295 -25.933,-21.077 h -0.103 c -3.859,-3.583 -7.612,-7.199 -11.263,-10.849 5.373,14.602 11.227,29.067 17.565,43.395 0.137,0.826 -0.139,1.48 -0.827,1.963 -0.896,0.137 -1.515,-0.139 -1.859,-0.827 -8.612,-18.804 -15.878,-38.057 -21.801,-57.756 -0.069,-0.896 0.31,-1.446 1.137,-1.653 0.067,-0.139 0.171,-0.172 0.309,-0.103 0.688,0 1.171,0.377 1.447,1.136 0.413,2.617 1.101,5.234 2.067,7.852 4.613,4.615 9.332,9.23 14.154,13.845 5.854,-5.579 12.26,-10.401 19.218,-14.465 4.546,-2.618 9.47,-3.961 14.774,-4.029 4.691,0 8.908,1.393 12.66,4.16 1.4,-1.288 3.184,-1.887 5.364,-1.779 0.413,0 0.86,0.034 1.343,0.103 2.32,0.449 4.515,1.373 6.595,2.73 0.325,-0.71 0.764,-1.389 1.336,-2.033 1.377,-0.965 2.893,-1.136 4.547,-0.516 1.446,0.481 2.789,1.1 4.029,1.859 0.207,0.207 0.517,0.378 0.93,0.517 0.274,-0.759 0.413,-1.585 0.413,-2.48 -3.238,-1.446 -6.268,-3.065 -9.092,-4.855 -1.446,-1.103 -2.79,-2.291 -4.029,-3.566 -1.241,-1.274 -2.033,-2.773 -2.377,-4.494 0,-1.102 0.344,-2.066 1.033,-2.892 1.171,-0.966 2.411,-1.447 3.72,-1.447 h 0.723 c 3.65,0.481 6.646,2.169 8.989,5.063 2.273,3.1 3.581,6.577 3.926,10.436 2.893,1.239 5.786,2.479 8.679,3.718 0.212,0.047 0.416,0.114 0.621,0.178 0.134,-1.456 0.744,-2.727 1.83,-3.813 0.826,-0.689 1.791,-1.033 2.892,-1.033 h 0.518 c 2.271,0.482 3.752,1.825 4.441,4.03 0.344,1.101 0.448,2.204 0.311,3.306 2.066,-0.895 4.236,-1.482 6.51,-1.757 2.203,-0.344 4.441,-0.516 6.714,-0.516 0.035,0 0.059,0.012 0.092,0.012 0.387,-0.62 0.879,-1.181 1.488,-1.679 0.964,-0.689 2.031,-0.999 3.203,-0.93 0.826,0 1.654,0.104 2.48,0.311 1.818,0.442 3.564,1.14 5.242,2.074 0.052,-0.392 0.128,-0.763 0.238,-1.107 0.207,-0.655 0.722,-1.154 1.548,-1.498 0.344,-0.138 0.829,-0.207 1.448,-0.207 1.377,0 2.547,0.482 3.513,1.448 0.413,0.413 0.893,0.687 1.446,0.826 0.965,-0.759 2.066,-1.31 3.306,-1.654 1.241,-0.345 2.481,-0.448 3.719,-0.309 2.188,0.401 4.146,1.188 5.902,2.313 -0.006,-0.083 -0.003,-0.169 -0.011,-0.252 -0.071,-0.276 -0.104,-0.482 -0.104,-0.62 0,-0.62 0.276,-1.068 0.826,-1.342 0.207,-0.14 0.448,-0.207 0.725,-0.207 0.344,-0.07 0.619,0.067 0.826,0.413 2.41,2.204 5.166,4.029 8.266,5.476 0.273,0.068 0.584,0.068 0.929,0 0.344,-0.207 0.551,-0.516 0.62,-0.931 0.068,-0.413 0.136,-0.791 0.207,-1.135 1.447,-2.825 3.787,-3.893 7.025,-3.203 2.409,0.466 4.684,1.433 6.833,2.877 0.004,-0.039 0.003,-0.077 0.007,-0.115 1.516,-2.205 3.683,-3.238 6.51,-3.099 0.414,0 0.859,0.034 1.343,0.103 2.479,0.481 4.821,1.481 7.026,2.996 0.137,0.138 0.31,0.275 0.515,0.413 0.622,0.482 0.758,1.137 0.414,1.963"
         style="fill:#231f20;fill-opacity:1;fill-rule:nonzero;stroke:none"
         transform="matrix(1.3333333,0,0,-1.3333333,265.4232,271.24747)"
         clip-path="url(#clipPath6)"
         inkscape:label="path5" />
    </g>
  </g>
</svg>
