<?xml version="1.0" encoding="UTF-8" standalone="no"?>
<!-- Created with Inkscape (http://www.inkscape.org/) -->

<svg
   version="1.1"
   id="svg1"
   width="415.74799"
   height="461.96133"
   viewBox="0 0 415.74799 461.96133"
   sodipodi:docname="06100418.svg"
   inkscape:version="1.4.2 (f4327f4, 2025-05-13)"
   xmlns:inkscape="http://www.inkscape.org/namespaces/inkscape"
   xmlns:sodipodi="http://sodipodi.sourceforge.net/DTD/sodipodi-0.dtd"
   xmlns="http://www.w3.org/2000/svg"
   xmlns:svg="http://www.w3.org/2000/svg">
  <defs
     id="defs1">
    <clipPath
       clipPathUnits="userSpaceOnUse"
       id="clipPath4">
      <path
         d="M 0,346.471 H 311.811 V 0 H 0 Z"
         transform="translate(-210.8281,-142.79491)"
         id="path4" />
    </clipPath>
    <clipPath
       clipPathUnits="userSpaceOnUse"
       id="clipPath6">
      <path
         d="M 0,346.471 H 311.811 V 0 H 0 Z"
         transform="translate(-180.7734,-328.16021)"
         id="path6" />
    </clipPath>
  </defs>
  <sodipodi:namedview
     id="namedview1"
     pagecolor="#ffffff"
     bordercolor="#000000"
     borderopacity="0.25"
     inkscape:showpageshadow="2"
     inkscape:pageopacity="0.0"
     inkscape:pagecheckerboard="0"
     inkscape:deskcolor="#d1d1d1"
     inkscape:zoom="1.9157447"
     inkscape:cx="208.2741"
     inkscape:cy="230.45868"
     inkscape:window-width="1920"
     inkscape:window-height="1017"
     inkscape:window-x="-8"
     inkscape:window-y="-8"
     inkscape:window-maximized="1"
     inkscape:current-layer="group-MC0">
    <inkscape:page
       x="0"
       y="0"
       inkscape:label="1"
       id="page1"
       width="415.74799"
       height="461.96133"
       margin="0"
       bleed="0" />
  </sodipodi:namedview>
  <g
     id="g1"
     inkscape:groupmode="layer"
     inkscape:label="1">
    <g
       id="group-MC0">
      <path
         id="path2"
         d="M 0,0 H 311.81 V 311.81 H 0 Z"
         style="fill:#ffffff;fill-opacity:1;fill-rule:nonzero;stroke:none"
         transform="matrix(1.3333333,0,0,-1.3333333,0,461.96133)" />
      <path
         id="path3"
         d="m 0,0 c -0.72,-0.72 -1.482,-0.989 -2.291,-0.809 -0.181,0.359 -0.225,0.718 -0.135,1.079 0.358,2.514 1.752,4.086 4.178,4.716 0.358,0.089 0.674,0.135 0.943,0.135 0.27,0 0.584,-0.046 0.944,-0.135 C 3.908,4.356 3.953,3.817 3.773,3.369 3.773,2.919 3.818,2.561 3.908,2.291 2.291,1.931 0.988,1.167 0,0 m -36.667,1.329 c -0.36,-0.091 -0.674,0 -0.944,0.27 0,0.628 0.179,1.213 0.539,1.752 1.167,1.436 2.649,2.425 4.447,2.964 0.358,0 0.719,-0.045 1.079,-0.134 0.358,-0.361 0.808,-0.495 1.347,-0.405 -1.707,-2.067 -3.864,-3.549 -6.468,-4.447 m -26.665,5.416 c 1.436,1.078 3.054,1.526 4.852,1.348 0.449,-0.181 0.809,-0.405 1.078,-0.674 0.27,-0.45 0.223,-0.899 -0.135,-1.348 -0.899,-0.989 -2.044,-1.64 -3.436,-1.954 -1.394,-0.315 -2.763,-0.471 -4.11,-0.471 0.179,1.167 0.762,2.2 1.751,3.099 M 23.988,2.83 C 23.268,3.639 22.416,3.817 21.428,3.369 21.158,3.1 20.933,2.919 20.754,2.83 18.507,1.213 16.037,0.179 13.342,-0.27 11.004,-0.539 8.804,0 6.738,1.348 7.008,1.617 7.231,1.976 7.412,2.426 7.77,4.222 7.412,5.884 6.334,7.412 4.805,8.849 3.053,9.253 1.078,8.625 -0.539,8.175 -2.021,7.366 -3.369,6.199 -4.088,5.56 -4.666,4.846 -5.119,4.064 -5.254,4.019 -5.393,3.961 -5.537,3.89 -5.718,3.709 -5.941,3.529 -6.21,3.351 -8.548,1.643 -11.108,0.564 -13.892,0.116 c -2.068,-0.36 -3.504,0.448 -4.313,2.426 -0.899,2.335 -1.303,4.806 -1.212,7.412 0.179,4.043 0.539,7.995 1.078,11.859 0.088,1.079 -0.451,1.752 -1.618,2.022 -1.078,0.269 -1.751,-0.181 -2.021,-1.348 -1.168,-5.39 -3.369,-10.242 -6.604,-14.554 -0.09,0.448 -0.315,0.808 -0.673,1.078 -1.169,0.897 -2.473,1.213 -3.909,0.943 -2.876,-0.63 -5.211,-2.112 -7.007,-4.447 -0.25,-0.357 -0.45,-0.718 -0.622,-1.081 -0.1,-0.032 -0.199,-0.064 -0.302,-0.107 -2.696,-1.617 -5.526,-3.01 -8.49,-4.177 -2.068,-0.72 -4.157,-1.259 -6.267,-1.618 -2.112,-0.36 -4.201,-0.315 -6.267,0.135 -0.808,0.27 -1.482,0.674 -2.021,1.213 1.887,0 3.706,0.314 5.458,0.943 1.752,0.628 3.211,1.706 4.38,3.235 1.166,1.706 1.257,3.413 0.269,5.121 -0.808,1.436 -2.068,2.291 -3.773,2.56 -2.965,0.54 -5.616,-0.134 -7.951,-2.021 -1.755,-1.691 -2.748,-3.606 -3.017,-5.734 -0.184,-0.051 -0.371,-0.121 -0.564,-0.226 -0.181,-0.091 -0.315,-0.181 -0.404,-0.27 -2.516,-1.797 -5.256,-2.92 -8.221,-3.369 -3.504,0.089 -6.603,1.302 -9.299,3.639 1.528,1.617 3.235,3.1 5.121,4.447 0.898,0.539 1.078,1.348 0.539,2.426 -0.719,0.987 -1.572,1.167 -2.56,0.539 -2.965,-2.067 -5.615,-4.403 -7.951,-7.008 2.605,9.792 5.66,19.541 9.164,29.244 0.269,1.079 -0.09,1.887 -1.078,2.426 -1.168,0.27 -1.933,-0.091 -2.291,-1.078 -3.757,-10.164 -6.93,-20.452 -9.538,-30.857 -6.372,-0.468 -12.481,-1.759 -18.328,-3.885 1.436,21.382 6.153,42.047 14.15,61.992 v 0.27 c 4.043,0.358 8.131,0.673 12.264,0.943 1.166,0 1.796,0.628 1.887,1.887 -0.27,1.078 -0.944,1.661 -2.022,1.752 -9.345,0.448 -18.058,-1.483 -26.144,-5.795 -3.146,-1.798 -4.629,-4.448 -4.448,-7.951 0.18,-2.965 1.571,-5.033 4.178,-6.2 0.179,-0.18 0.404,-0.225 0.674,-0.134 0.809,0 1.348,0.448 1.617,1.347 0.358,1.078 0,1.841 -1.078,2.291 -1.078,0.628 -1.664,1.617 -1.752,2.965 0,1.887 0.897,3.369 2.695,4.447 2.426,1.348 4.987,2.47 7.682,3.37 -8.446,-20.215 -12.984,-41.195 -13.611,-62.936 -3.595,-2.156 -6.964,-4.493 -10.108,-7.008 -0.899,-0.808 -0.989,-1.663 -0.269,-2.56 0.269,-0.539 0.718,-0.809 1.347,-0.809 0.449,-0.091 0.853,0.044 1.213,0.404 8.257,7.396 17.957,11.283 29.096,11.683 -0.232,-0.983 -0.469,-1.965 -0.691,-2.95 -0.181,-0.99 0.18,-1.663 1.078,-2.022 0.18,-0.091 0.405,-0.135 0.674,-0.135 0.628,-0.09 1.123,0.179 1.482,0.809 1.348,1.796 2.785,3.593 4.313,5.391 3.323,-2.786 7.143,-4.404 11.455,-4.852 h 1.213 c 3.163,0.665 6.129,1.916 8.907,3.739 0.869,-2.41 2.55,-4.006 5.05,-4.787 1.527,-0.36 3.054,-0.539 4.582,-0.539 3.593,0.089 7.053,0.763 10.377,2.022 2.561,0.968 5.014,2.074 7.362,3.31 0.012,-0.034 0.019,-0.067 0.031,-0.101 0.988,-1.618 2.426,-2.382 4.313,-2.291 2.156,0.358 4.042,1.189 5.66,2.493 1.617,1.302 3.099,2.717 4.447,4.245 1.348,1.526 2.47,3.188 3.369,4.986 0,-2.786 0.539,-5.525 1.617,-8.22 1.258,-3.056 3.593,-4.628 7.008,-4.717 0.358,-0.091 0.809,-0.091 1.348,0 2.551,0.414 4.943,1.308 7.177,2.676 0.065,-0.384 0.137,-0.762 0.246,-1.108 0.27,-0.854 0.943,-1.506 2.022,-1.954 0.448,-0.181 1.078,-0.27 1.886,-0.27 1.797,0 3.323,0.628 4.582,1.887 0.539,0.539 1.167,0.898 1.887,1.078 1.257,-0.989 2.695,-1.708 4.313,-2.156 1.617,-0.45 3.234,-0.585 4.851,-0.404 3.414,0.628 6.422,1.93 9.029,3.908 0.18,0 0.358,0.089 0.539,0.27 0.988,0.627 1.213,1.482 0.674,2.56"
         style="fill:#000000;fill-opacity:1;fill-rule:nonzero;stroke:none"
         transform="matrix(1.3333333,0,0,-1.3333333,281.10413,271.56813)"
         clip-path="url(#clipPath4)"
         inkscape:label="path3" />
      <path
         id="path5"
         d="m 0,0 v 0.813 c -1.256,0.039 -2.344,0.692 -3.258,1.953 l -5.227,7.181 3.871,5.132 c 0.913,1.247 2.06,1.866 3.431,1.875 h 0.517 v 0.817 h -6.933 v -0.817 h 0.787 c 0.806,-0.009 1.224,-0.357 1.285,-1.062 -0.01,-0.283 -0.183,-0.726 -0.519,-1.304 l -2.909,-3.977 -3.036,4.764 c -0.309,0.422 -0.456,0.752 -0.444,0.986 -0.012,0.383 0.405,0.584 1.231,0.593 h 0.84 v 0.817 h -8.365 v -0.817 c 1.505,-0.009 2.553,-0.457 3.159,-1.357 l 4.789,-7.281 -4.345,-5.354 c -1.11,-1.396 -2.494,-2.11 -4.171,-2.149 V 0 h 7.306 v 0.813 h -0.617 c -1.197,-0.008 -1.788,0.382 -1.78,1.161 -0.008,0.357 0.213,0.827 0.645,1.41 l 3.43,4.22 3.429,-4.448 C -6.61,2.775 -6.429,2.331 -6.315,1.826 -6.39,1.148 -6.92,0.805 -7.895,0.813 H -8.39 L -8.39,0 H 0 M -23.017,9.429 H -40.145 V 7.825 h 17.128 z m -24.039,-5.01 c -0.008,1.887 -0.76,3.257 -2.269,4.119 -0.801,0.469 -1.91,0.804 -3.332,0.987 1.517,0.222 2.726,0.604 3.627,1.161 0.952,0.814 1.423,1.914 1.436,3.306 -0.013,1.422 -0.671,2.531 -1.975,3.336 -1.161,0.652 -2.483,0.974 -3.976,0.983 -1.456,-0.009 -2.714,-0.405 -3.774,-1.183 -0.962,-0.728 -1.445,-1.618 -1.432,-2.64 -0.013,-0.557 0.121,-1.002 0.396,-1.357 0.309,-0.358 0.713,-0.531 1.23,-0.518 0.458,-0.013 0.806,0.109 1.062,0.369 0.334,0.357 0.508,0.713 0.517,1.088 -0.009,0.33 -0.108,0.678 -0.316,1.035 -0.261,0.37 -0.384,0.692 -0.37,0.961 -0.014,0.334 0.157,0.631 0.491,0.888 0.37,0.308 0.953,0.456 1.753,0.469 2.171,-0.013 3.245,-1.331 3.258,-3.997 -0.013,-1.122 -0.322,-2 -0.941,-2.618 -0.825,-0.613 -1.787,-0.922 -2.86,-0.91 h -1.385 V 8.933 h 1.385 c 1.248,-0.013 2.243,-0.329 3.009,-0.988 0.805,-0.773 1.201,-1.947 1.209,-3.526 -0.008,-1.271 -0.343,-2.297 -1.009,-3.062 -0.531,-0.605 -1.445,-0.927 -2.741,-0.988 -1.012,0.061 -1.766,0.322 -2.27,0.791 -0.209,0.184 -0.309,0.457 -0.296,0.787 -0.013,0.287 0.087,0.619 0.296,0.989 0.175,0.409 0.258,0.743 0.27,1.013 -0.035,0.431 -0.196,0.826 -0.469,1.16 -0.257,0.258 -0.64,0.383 -1.157,0.397 -0.557,-0.014 -0.987,-0.227 -1.309,-0.645 -0.335,-0.407 -0.505,-0.873 -0.492,-1.43 -0.013,-1.209 0.678,-2.197 2.049,-2.961 1.157,-0.666 2.391,-0.976 3.701,-0.988 1.948,0.012 3.513,0.383 4.71,1.183 1.309,0.892 1.966,2.136 1.974,3.754 M -64.31,0 v 0.813 c -1.357,0.039 -2.27,0.63 -2.739,1.779 L -73.712,18.311 -76.3,17.08 -81.437,3.826 C -81.758,2.975 -82.176,2.234 -82.693,1.579 -83.324,1.061 -83.93,0.805 -84.521,0.813 h -0.543 V 0 h 6.616 v 0.813 h -0.618 c -0.719,-0.008 -1.248,0.148 -1.58,0.47 -0.187,0.174 -0.282,0.509 -0.273,0.987 -0.009,0.235 0.025,0.47 0.1,0.692 0.073,0.369 0.457,1.492 1.161,3.379 h 7.972 l 1.505,-3.675 c 0.121,-0.335 0.182,-0.57 0.196,-0.692 -0.014,-0.283 -0.108,-0.543 -0.295,-0.791 -0.309,-0.257 -0.727,-0.378 -1.283,-0.37 h -0.915 V 0 Z m -23.381,16.954 v 0.817 h -6.589 v -0.817 h 0.886 c 0.915,-0.009 1.396,-0.331 1.457,-0.962 0.014,-0.269 -0.147,-0.666 -0.469,-1.183 l -4.072,-6.245 -4.096,6.515 c -0.334,0.53 -0.505,0.926 -0.491,1.187 -0.014,0.457 0.443,0.679 1.357,0.688 h 0.712 v 0.817 h -8.093 v -0.817 c 0.705,-0.009 1.248,-0.097 1.652,-0.27 0.422,-0.335 0.853,-0.78 1.31,-1.309 l 5.206,-8.268 V 2.47 c -0.014,-1.113 -0.591,-1.665 -1.774,-1.657 h -0.792 V 0 h 8.168 v 0.813 h -0.862 c -1.209,-0.008 -1.814,0.583 -1.8,1.779 v 5.28 l 4.763,7.207 c 0.478,0.732 1.048,1.27 1.678,1.605 0.331,0.173 0.949,0.261 1.849,0.27 M -110.586,0 v 0.813 c -1.27,0.039 -2.296,0.595 -3.062,1.657 l -6.589,8.981 3.927,3.628 c 0.701,0.657 1.392,1.1 2.071,1.357 0.813,0.335 1.666,0.509 2.566,0.518 v 0.817 h -7.503 v -0.817 h 0.617 c 0.927,-0.009 1.418,-0.309 1.457,-0.888 -0.039,-0.269 -0.309,-0.691 -0.792,-1.257 l -7.08,-6.515 v 6.985 c -0.012,1.109 0.483,1.666 1.478,1.675 h 1.015 v 0.817 h -7.995 v -0.817 h 0.983 c 1.039,-0.009 1.545,-0.566 1.557,-1.675 V 2.592 c -0.012,-1.196 -0.557,-1.787 -1.652,-1.779 h -0.888 V 0 h 8.069 v 0.813 h -0.989 c -1.061,-0.008 -1.59,0.583 -1.578,1.779 v 4.541 l 2.666,2.443 4.836,-6.513 c 0.431,-0.62 0.654,-1.116 0.666,-1.484 -0.073,-0.518 -0.556,-0.774 -1.43,-0.766 h -0.814 V 0 Z m 38.605,7.133 h -7.381 l 3.58,9.058 z"
         style="fill:#000000;fill-opacity:1;fill-rule:nonzero;stroke:none"
         transform="matrix(1.3333333,0,0,-1.3333333,241.0312,24.4144)"
         clip-path="url(#clipPath6)" />
    </g>
  </g>
</svg>
