<?xml version="1.0" encoding="UTF-8" standalone="no"?>
<!-- Created with Inkscape (http://www.inkscape.org/) -->

<svg
   version="1.1"
   id="svg1"
   width="560.70398"
   height="504.01068"
   viewBox="0 0 560.70398 504.01068"
   sodipodi:docname="12806352.svg"
   inkscape:version="1.4.2 (f4327f4, 2025-05-13)"
   xmlns:inkscape="http://www.inkscape.org/namespaces/inkscape"
   xmlns:sodipodi="http://sodipodi.sourceforge.net/DTD/sodipodi-0.dtd"
   xmlns="http://www.w3.org/2000/svg"
   xmlns:svg="http://www.w3.org/2000/svg">
  <defs
     id="defs1">
    <clipPath
       clipPathUnits="userSpaceOnUse"
       id="clipPath3">
      <path
         d="M 0,378.008 H 420.528 V 0 H 0 Z"
         id="path3" />
    </clipPath>
    <clipPath
       clipPathUnits="userSpaceOnUse"
       id="clipPath5">
      <path
         d="M 0,378.008 H 420.528 V 0 H 0 Z"
         transform="translate(-284.0566,-174.8174)"
         id="path5" />
    </clipPath>
  </defs>
  <sodipodi:namedview
     id="namedview1"
     pagecolor="#ffffff"
     bordercolor="#000000"
     borderopacity="0.25"
     inkscape:showpageshadow="2"
     inkscape:pageopacity="0.0"
     inkscape:pagecheckerboard="0"
     inkscape:deskcolor="#d1d1d1"
     inkscape:zoom="1.7559152"
     inkscape:cx="280.76527"
     inkscape:cy="252.00534"
     inkscape:window-width="1920"
     inkscape:window-height="1017"
     inkscape:window-x="-8"
     inkscape:window-y="-8"
     inkscape:window-maximized="1"
     inkscape:current-layer="group-MC0">
    <inkscape:page
       x="0"
       y="0"
       inkscape:label="1"
       id="page1"
       width="560.70398"
       height="504.01068"
       margin="0"
       bleed="0" />
  </sodipodi:namedview>
  <g
     id="g1"
     inkscape:groupmode="layer"
     inkscape:label="1">
    <g
       id="group-MC0">
      <path
         id="path2"
         d="M 420.028,0.5 H 0.5 v 377.008 h 419.528 z"
         style="fill:none;stroke:#000000;stroke-width:1;stroke-linecap:butt;stroke-linejoin:miter;stroke-miterlimit:4;stroke-dasharray:none;stroke-opacity:1"
         transform="matrix(1.3333333,0,0,-1.3333333,0,504.01067)"
         clip-path="url(#clipPath3)" />
      <path
         id="path4"
         d="m 0,0 c -0.659,-0.657 -1.357,-0.902 -2.098,-0.737 -0.165,0.327 -0.203,0.654 -0.121,0.985 0.326,2.303 1.601,3.744 3.823,4.319 0.329,0.078 0.618,0.121 0.865,0.121 0.245,0 0.532,-0.043 0.863,-0.121 C 3.576,3.992 3.621,3.495 3.456,3.085 3.456,2.674 3.493,2.343 3.576,2.097 2.094,1.768 0.904,1.069 0,0 m -105.973,0 c -0.659,-0.657 -1.357,-0.902 -2.099,-0.737 -0.165,0.327 -0.205,0.654 -0.122,0.985 0.329,2.303 1.602,3.744 3.825,4.319 0.328,0.078 0.616,0.121 0.865,0.121 0.244,0 0.531,-0.043 0.862,-0.121 0.246,-0.575 0.288,-1.072 0.122,-1.482 0,-0.411 0.041,-0.742 0.124,-0.988 -1.483,-0.329 -2.675,-1.028 -3.577,-2.097 m -33.505,-13.015 c -2.878,-1.723 -5.942,-3.126 -9.191,-4.193 -3.249,-1.071 -6.476,-1.276 -9.682,-0.617 -1.072,0.413 -1.648,1.15 -1.728,2.222 0,2.714 1.026,4.91 3.084,6.597 2.056,1.688 4.276,3.065 6.661,4.136 7.484,2.714 15.213,4.275 23.195,4.69 -2.551,-5.678 -6.664,-9.955 -12.339,-12.835 M 39.391,2.881 C 38.729,3.703 37.948,3.869 37.046,3.374 36.714,3.21 36.471,3.085 36.309,3.004 34.249,1.356 31.988,0.372 29.521,0.044 c -2.386,-0.496 -4.278,0.165 -5.674,1.974 -0.331,6.827 1.524,13.241 5.552,19.243 0.327,0.658 0.245,1.318 -0.249,1.975 0.494,0.08 1.07,0.206 1.728,0.371 0.985,0.328 1.436,1.026 1.356,2.098 -0.33,0.986 -0.985,1.396 -1.971,1.234 -1.649,-0.414 -3.252,-0.745 -4.815,-0.989 -1.069,-0.33 -1.521,-0.986 -1.357,-1.972 0.166,-0.907 0.742,-1.357 1.728,-1.357 h 0.248 l 0.123,0.122 C 22.207,16.626 20.258,10.143 20.335,3.289 20.103,3.261 19.864,3.196 19.615,3.085 19.37,2.839 19.165,2.674 18.999,2.591 16.942,1.109 14.681,0.167 12.213,-0.246 10.075,-0.492 8.061,0 6.169,1.236 6.412,1.479 6.62,1.809 6.786,2.22 7.113,3.866 6.786,5.389 5.801,6.785 4.401,8.104 2.797,8.473 0.986,7.897 -0.497,7.483 -1.853,6.743 -3.083,5.673 -3.81,5.03 -4.385,4.306 -4.813,3.504 -5.046,3.454 -5.276,3.359 -5.501,3.21 c -3.288,-3.54 -7.237,-5.718 -11.843,-6.538 -0.983,-0.165 -1.808,0.122 -2.467,0.862 -0.659,1.64 -0.697,3.37 -0.123,5.183 0.08,0.491 -0.003,0.98 -0.248,1.479 -0.331,0.327 -0.742,0.533 -1.232,0.616 -2.057,0.083 -3.865,0.741 -5.428,1.973 -0.496,0.329 -0.99,0.451 -1.48,0.373 -0.495,-0.165 -0.823,-0.453 -0.99,-0.863 -0.74,-1.236 -1.643,-2.224 -2.713,-2.964 -0.014,-0.016 -0.027,-0.029 -0.041,-0.045 -2.072,-1.518 -4.365,-2.322 -6.887,-2.398 -4.195,0 -7.278,1.887 -9.252,5.674 -0.331,0.577 -0.822,0.902 -1.481,0.988 -0.659,-0.166 -1.113,-0.495 -1.357,-0.988 -1.316,-2.469 -3.122,-4.318 -5.427,-5.552 -0.577,-0.244 -1.111,-0.204 -1.604,0.125 -0.331,2.383 0.206,4.685 1.604,6.91 0.411,0.903 0.203,1.643 -0.617,2.221 -0.987,0.408 -1.728,0.198 -2.222,-0.619 -1.545,-2.109 -2.322,-4.149 -2.344,-6.134 -0.094,-0.039 -0.186,-0.079 -0.281,-0.131 -0.165,-0.082 -0.291,-0.165 -0.372,-0.246 -2.301,-1.648 -4.809,-2.675 -7.523,-3.085 -3.209,0.082 -6.047,1.194 -8.512,3.331 1.396,1.477 2.962,2.834 4.689,4.07 0.819,0.491 0.985,1.233 0.492,2.224 -0.657,0.902 -1.438,1.067 -2.344,0.496 -2.715,-1.899 -5.14,-4.037 -7.278,-6.42 2.384,8.962 5.179,17.886 8.388,26.77 0.247,0.986 -0.083,1.724 -0.985,2.22 -1.072,0.246 -1.771,-0.082 -2.098,-0.986 -3.488,-9.439 -6.43,-18.991 -8.836,-28.653 -0.016,-0.01 -0.03,-0.011 -0.046,-0.018 -0.245,-0.246 -0.45,-0.411 -0.615,-0.494 -2.058,-1.482 -4.318,-2.424 -6.787,-2.837 -2.138,-0.246 -4.152,0.246 -6.045,1.482 0.244,0.243 0.453,0.573 0.618,0.984 0.329,1.646 0,3.169 -0.985,4.565 -1.399,1.319 -3.005,1.688 -4.814,1.112 -1.483,-0.414 -2.839,-1.154 -4.07,-2.224 -0.807,-0.715 -1.422,-1.529 -1.863,-2.439 h -3.514 c -3.127,0.081 -6.25,0.081 -9.373,0 -1.152,3.499 -3.352,5.896 -6.601,7.184 -3.248,1.294 -6.522,2.127 -9.811,2.503 -3.289,0.372 -6.66,0.6 -10.115,0.686 h -0.493 c -5.18,0.167 -10.324,0.352 -15.422,0.557 -5.099,0.205 -10.075,1.005 -14.926,2.405 -1.318,0.659 -2.058,1.645 -2.221,2.962 0.08,3.372 1.479,6.127 4.192,8.265 14.145,11.432 30.35,17.726 48.611,18.877 9.621,0.903 15.747,-3.044 18.381,-11.846 0.164,-1.068 0.779,-1.561 1.852,-1.479 1.065,0.167 1.641,0.742 1.727,1.727 -0.742,4.03 -2.676,7.403 -5.801,10.116 -4.771,3.947 -10.24,5.552 -16.407,4.814 -19,-1.151 -35.861,-7.692 -50.583,-19.618 -3.701,-2.962 -5.552,-6.703 -5.552,-11.226 0.245,-2.469 1.563,-4.319 3.952,-5.554 5.181,-1.671 10.465,-2.632 15.851,-2.887 5.388,-0.25 10.834,-0.415 16.346,-0.5 h 0.37 c 2.88,0 5.675,-0.165 8.388,-0.495 2.713,-0.331 5.47,-0.888 8.266,-1.669 2.795,-0.78 4.976,-2.408 6.542,-4.874 -8.474,-0.333 -16.618,-1.977 -24.429,-4.941 -3.127,-1.401 -5.923,-3.229 -8.391,-5.494 -2.468,-2.264 -3.577,-5.162 -3.329,-8.692 0.328,-2.306 1.518,-3.994 3.577,-5.06 1.479,-0.496 2.958,-0.741 4.439,-0.741 6.334,0.495 12.257,2.47 17.769,5.924 3.124,1.804 6.022,3.966 8.697,6.475 2.673,2.507 4.459,5.572 5.366,9.191 3.044,0.081 6.085,0.081 9.128,0 h 2.845 c 0.053,-0.628 0.143,-1.225 0.312,-1.756 0.244,-0.779 0.863,-1.378 1.849,-1.785 0.411,-0.165 0.987,-0.25 1.727,-0.25 1.645,0 3.044,0.575 4.197,1.727 0.491,0.491 1.067,0.819 1.726,0.986 1.152,-0.907 2.465,-1.566 3.947,-1.976 1.48,-0.408 2.959,-0.531 4.44,-0.366 2.174,0.401 4.163,1.105 5.981,2.102 -0.102,-0.436 -0.209,-0.876 -0.308,-1.313 -0.165,-0.904 0.166,-1.522 0.986,-1.853 0.165,-0.081 0.371,-0.123 0.618,-0.123 0.576,-0.081 1.027,0.167 1.357,0.743 1.231,1.644 2.548,3.289 3.947,4.933 3.045,-2.551 6.538,-4.029 10.485,-4.439 h 1.111 c 2.965,0.621 5.746,1.808 8.342,3.546 0.282,-0.604 0.634,-1.207 1.07,-1.798 1.314,-0.73 2.715,-0.892 4.196,-0.482 2.548,0.887 4.563,2.513 6.044,4.875 2.466,-3.331 5.798,-5.037 9.994,-5.118 h 0.737 c 3.066,0.153 5.906,1.091 8.525,2.796 0.123,0.056 0.25,0.117 0.379,0.199 0.905,0.657 1.728,1.523 2.469,2.593 1.152,-0.658 2.427,-1.111 3.822,-1.356 -0.412,-2.386 0,-4.524 1.235,-6.417 1.234,-1.482 2.877,-2.182 4.936,-2.095 h 0.121 c 4.48,0.679 8.448,2.492 11.92,5.416 0.04,-0.181 0.067,-0.376 0.119,-0.545 0.245,-0.779 0.865,-1.378 1.851,-1.785 0.411,-0.165 0.986,-0.25 1.726,-0.25 1.646,0 3.045,0.575 4.197,1.727 0.493,0.491 1.069,0.819 1.727,0.986 1.151,-0.907 2.466,-1.566 3.948,-1.976 1.478,-0.408 2.96,-0.531 4.44,-0.366 3.041,0.561 5.73,1.708 8.071,3.437 1.8,-2.501 4.339,-3.679 7.633,-3.519 0.492,0 1.029,0.041 1.606,0.125 2.956,0.575 5.752,1.765 8.386,3.577 0.164,0.165 0.369,0.328 0.615,0.491 0.741,0.578 0.907,1.358 0.496,2.346"
         style="fill:#000000;fill-opacity:1;fill-rule:nonzero;stroke:none"
         transform="matrix(1.3333333,0,0,-1.3333333,378.74213,270.9208)"
         clip-path="url(#clipPath5)"
         inkscape:label="path4" />
    </g>
  </g>
</svg>
