<?xml version="1.0" encoding="UTF-8" standalone="no"?>
<!-- Created with Inkscape (http://www.inkscape.org/) -->

<svg
   version="1.1"
   id="svg1"
   width="549.36401"
   height="228.104"
   viewBox="0 0 549.36401 228.104"
   sodipodi:docname="13025500.svg"
   inkscape:version="1.4.2 (f4327f4, 2025-05-13)"
   xmlns:inkscape="http://www.inkscape.org/namespaces/inkscape"
   xmlns:sodipodi="http://sodipodi.sourceforge.net/DTD/sodipodi-0.dtd"
   xmlns="http://www.w3.org/2000/svg"
   xmlns:svg="http://www.w3.org/2000/svg">
  <defs
     id="defs1">
    <clipPath
       clipPathUnits="userSpaceOnUse"
       id="clipPath3">
      <path
         d="M 0,171.078 H 412.023 V 0 H 0 Z"
         id="path3" />
    </clipPath>
    <clipPath
       clipPathUnits="userSpaceOnUse"
       id="clipPath5">
      <path
         d="M 0,171.078 H 412.023 V 0 H 0 Z"
         transform="translate(-290.5195,-96.993203)"
         id="path5" />
    </clipPath>
    <clipPath
       clipPathUnits="userSpaceOnUse"
       id="clipPath7">
      <path
         d="M 0,171.078 H 412.023 V 0 H 0 Z"
         transform="translate(-355.82231,-38.727503)"
         id="path7" />
    </clipPath>
    <clipPath
       clipPathUnits="userSpaceOnUse"
       id="clipPath9">
      <path
         d="M 0,171.078 H 412.023 V 0 H 0 Z"
         transform="translate(-77.310099,-68.848599)"
         id="path9" />
    </clipPath>
    <clipPath
       clipPathUnits="userSpaceOnUse"
       id="clipPath11">
      <path
         d="M 0,171.078 H 412.023 V 0 H 0 Z"
         transform="translate(-158.4043,-44.100601)"
         id="path11" />
    </clipPath>
  </defs>
  <sodipodi:namedview
     id="namedview1"
     pagecolor="#ffffff"
     bordercolor="#000000"
     borderopacity="0.25"
     inkscape:showpageshadow="2"
     inkscape:pageopacity="0.0"
     inkscape:pagecheckerboard="0"
     inkscape:deskcolor="#d1d1d1"
     inkscape:zoom="3.3165623"
     inkscape:cx="564.13835"
     inkscape:cy="114.12419"
     inkscape:window-width="1920"
     inkscape:window-height="1017"
     inkscape:window-x="-8"
     inkscape:window-y="-8"
     inkscape:window-maximized="1"
     inkscape:current-layer="group-MC0">
    <inkscape:page
       x="0"
       y="0"
       inkscape:label="1"
       id="page1"
       width="549.36401"
       height="228.104"
       margin="0"
       bleed="0" />
  </sodipodi:namedview>
  <g
     id="g1"
     inkscape:groupmode="layer"
     inkscape:label="1">
    <g
       id="group-MC0">
      <path
         id="path2"
         d="M 411.523,0.5 H 0.5 v 170.078 h 411.023 z"
         style="fill:none;stroke:#2f2621;stroke-width:1;stroke-linecap:butt;stroke-linejoin:miter;stroke-miterlimit:4;stroke-dasharray:none;stroke-opacity:1"
         transform="matrix(1.3333333,0,0,-1.3333333,0,228.104)"
         clip-path="url(#clipPath3)" />
      <path
         id="path4"
         d="m 0,0 c 0,-1.718 0.024,-2.839 0.073,-3.363 l 0.361,-4.796 c 0.045,-0.571 0.071,-1.622 0.071,-3.148 0,-0.525 -0.026,-1.312 -0.071,-2.363 1.475,0.812 2.526,1.384 3.146,1.719 0.473,0.238 0.89,0.537 1.252,0.895 0.362,0.357 0.547,0.607 0.547,0.751 0,0.047 -0.616,0.643 -1.844,1.789 -0.571,0.572 -0.853,1.144 -0.853,1.717 0,0.192 0.315,0.86 0.956,2.005 0.341,0.571 0.515,1.167 0.515,1.789 0,0.476 -0.072,0.761 -0.215,0.858 l -0.858,0.5 -2.361,1.575 C 0.669,-0.024 0.43,0 0,0 m -4.819,13.239 c 0.715,0.334 1.671,0.762 2.861,1.288 -0.237,0.619 -0.38,1.049 -0.43,1.288 -0.093,0.524 -0.187,0.788 -0.285,0.788 0,0.094 -0.169,0.237 -0.501,0.429 -0.24,-0.382 -0.429,-0.836 -0.573,-1.36 -0.24,-0.716 -0.598,-1.527 -1.072,-2.433 M -5.463,9.588 C -2.842,7.823 -1.36,6.44 -1.028,5.438 -0.789,4.867 -0.622,4.389 -0.527,4.007 L -0.099,1.79 C 1.098,1.692 1.886,1.645 2.265,1.645 3.074,1.596 3.54,1.561 3.663,1.538 3.779,1.513 4.271,1.288 5.129,0.858 5.89,0.524 6.631,0.238 7.346,0 6.01,1.622 5.175,2.695 4.841,3.22 L 2.552,6.511 c -1.766,2.386 -2.911,3.985 -3.438,4.796 -1.19,-0.429 -2.717,-1.003 -4.577,-1.719 m 0.43,-11.163 c -0.335,-0.621 -0.645,-1.24 -0.931,-1.86 -0.909,-2.051 -1.481,-3.316 -1.716,-3.794 -0.05,-0.096 -0.288,-0.453 -0.717,-1.072 -0.43,-0.621 -1.026,-1.551 -1.789,-2.792 0.81,-0.906 1.836,-1.36 3.079,-1.36 0.52,0 0.929,0.072 1.215,0.215 0.475,0.239 0.761,0.906 0.859,2.004 0.046,0.716 0.093,1.432 0.142,2.147 0.095,1.05 0.143,1.837 0.143,2.362 0,0.143 -0.026,0.643 -0.071,1.502 -0.097,1.05 -0.168,1.933 -0.214,2.648 m -7.446,1.218 c 0.623,-0.383 1.431,-0.765 2.436,-1.146 l 2.793,-1.502 c 0.143,0 0.547,0.524 1.215,1.573 0.189,0.286 0.523,0.692 1.002,1.217 -0.05,0.572 -0.072,0.953 -0.072,1.145 l 0.142,4.795 c 0,1.336 -0.215,2.218 -0.642,2.648 -0.098,0.094 -0.338,0.19 -0.716,0.286 -1.242,-2.244 -2.1,-3.698 -2.577,-4.366 -0.478,-0.812 -1.669,-2.362 -3.581,-4.65 m -5.864,8.586 c 2.288,0.667 3.67,1.121 4.149,1.359 l 2.932,1.146 c 0.669,0.238 1.196,0.477 1.576,0.716 0.525,0.619 0.98,1.621 1.359,3.005 -0.858,-0.334 -3.053,-1.575 -6.583,-3.721 -0.286,-0.192 -1.241,-0.739 -2.861,-1.646 -0.287,-0.096 -0.481,-0.382 -0.572,-0.859 m -2.744,-2.361 h -0.284 c -0.099,-0.764 -0.146,-1.884 -0.146,-3.364 0,-0.763 0.095,-2.028 0.288,-3.793 1,0.095 1.715,0.311 2.145,0.645 0.907,0.62 2.146,1.884 3.722,3.792 0.478,0.62 1.503,1.79 3.078,3.506 -0.43,-0.191 -0.765,-0.334 -1.001,-0.428 -1.195,-0.525 -1.958,-0.858 -2.292,-1.002 -0.669,-0.238 -1.049,-0.357 -1.146,-0.357 -1.476,-0.67 -2.407,-1.003 -2.791,-1.003 -0.762,0 -1.287,0.668 -1.573,2.004 m -8.92,6.153 c 0,-1.86 -0.145,-3.769 -0.431,-5.724 1.81,2.338 2.719,3.792 2.719,4.366 0,0.237 -0.214,0.452 -0.642,0.644 -0.956,0.381 -1.504,0.619 -1.646,0.714 m -0.858,-9.588 c 0.094,-0.049 0.166,-0.071 0.213,-0.071 0.047,0 0.095,0.118 0.144,0.357 0,0.047 0.097,0.119 0.285,0.215 0.193,0.095 0.408,0.237 0.645,0.429 1.051,0.907 1.742,1.504 2.077,1.79 0.38,0.237 0.81,0.619 1.287,1.144 l 0.286,3.435 C -27.646,8.014 -29.195,6.44 -30.579,5.009 Z m 4.618,-1.36 -0.072,-0.072 c -0.143,-0.048 -0.741,-0.714 -1.788,-2.003 -0.097,-0.191 -0.694,-0.693 -1.788,-1.503 -0.717,-0.525 -1.195,-0.93 -1.432,-1.216 -0.335,-0.335 -0.811,-0.669 -1.432,-1.003 -0.191,-0.621 -0.405,-1.264 -0.645,-1.931 2.29,-2.099 4.056,-3.15 5.297,-3.15 1.146,0 1.814,0.048 2.013,0.143 0.055,0.048 0.081,0.144 0.081,0.287 0,0.095 -0.026,0.406 -0.081,0.931 -0.057,0.143 -0.081,0.261 -0.081,0.357 0,0.094 0.052,0.762 0.162,2.004 0.047,0.238 0.074,0.43 0.074,0.573 0,0.524 -0.027,1.24 -0.074,2.147 -0.11,1.001 -0.188,2.479 -0.234,4.436 M 7.846,42.012 C 8.608,41.82 9.063,41.726 9.205,41.726 l 2.79,-0.072 1.788,-0.143 c 0.527,0.048 0.839,0.072 0.933,0.072 0.19,0 0.477,-0.191 0.858,-0.57 0.048,-0.047 0.264,-0.213 0.645,-0.497 0.715,-0.522 1.074,-1.044 1.074,-1.564 0,-0.665 -0.359,-1.306 -1.074,-1.922 -0.668,-0.616 -1.384,-0.924 -2.149,-0.924 -0.143,0 -0.429,0.047 -0.858,0.143 -1.431,0.476 -2.481,0.738 -3.149,0.786 C 7.774,37.273 6.15,37.488 5.197,37.679 4.244,37.059 3.602,36.629 3.267,36.392 1.738,35.341 0.93,34.791 0.833,34.744 c -2.491,-1.195 -4.196,-2.03 -5.106,-2.507 1.295,-0.287 2.136,-0.668 2.523,-1.146 0.72,-0.812 1.08,-1.935 1.08,-3.367 0,-0.622 -0.168,-1.553 -0.5,-2.795 2.62,2.006 3.932,3.582 3.932,4.729 0,0.763 -0.548,1.336 -1.644,1.719 0.095,0.335 0.201,0.56 0.321,0.681 0.119,0.119 0.369,0.201 0.752,0.25 0.237,0.095 0.716,0.118 1.436,0.071 1.918,-0.859 3.499,-1.455 4.746,-1.791 0.525,-0.142 0.863,-0.309 1.005,-0.5 0.385,-0.477 0.578,-0.932 0.578,-1.361 0,-0.478 -0.221,-0.861 -0.663,-1.147 C 9.052,27.437 7.098,26.625 3.425,25.144 1.039,24.38 -0.561,23.878 -1.37,23.641 c -0.241,-0.719 -0.429,-1.529 -0.572,-2.436 1.047,0.524 1.716,0.929 2.002,1.216 0.955,0.716 1.551,1.098 1.79,1.146 0.19,0.096 0.786,0.144 1.79,0.144 2.861,0 4.294,-0.645 4.294,-1.935 0,-0.955 -1.241,-1.72 -3.723,-2.292 -0.955,-0.238 -2.6,-0.764 -4.938,-1.577 0.144,-0.619 0.358,-1.169 0.644,-1.647 0.187,-0.239 0.429,-0.549 0.715,-0.932 1.671,0.479 3.221,1.195 4.653,2.15 0.334,0.095 0.62,0.144 0.861,0.144 0.046,0 0.619,-0.072 1.716,-0.215 3.593,-0.24 5.385,-1.051 5.385,-2.436 0,-0.621 -0.261,-1.098 -0.787,-1.433 C 12.128,13.299 11.556,13.18 10.743,13.18 L 8.291,13.036 C 6.43,12.94 5.262,12.869 4.784,12.821 4.355,12.725 3.853,12.583 3.281,12.392 5.333,9.955 9.562,7.162 15.969,4.009 c 1.287,-0.669 2.337,-1.29 3.148,-1.862 1.431,-1.098 2.289,-1.863 2.575,-2.293 0.527,-0.669 0.788,-1.361 0.788,-2.078 0,-0.763 -0.238,-1.362 -0.715,-1.791 -0.241,-0.238 -0.573,-0.357 -1.003,-0.357 -0.764,0 -2.196,0.262 -4.293,0.788 -2.242,0.572 -4.657,1.409 -7.247,2.507 0.38,-0.861 0.572,-1.506 0.572,-1.935 0,-1.003 -0.484,-1.576 -1.446,-1.719 C 6.759,-4.97 5.694,-5.233 5.169,-5.52 4.928,-5.663 4.806,-5.925 4.806,-6.308 c 0,-0.334 0.19,-0.621 0.573,-0.859 0.19,-0.096 0.853,-0.215 1.998,-0.357 l 3.066,-1.148 c 0.808,-0.334 1.355,-0.596 1.642,-0.788 0.761,-0.669 1.142,-1.362 1.142,-2.077 0,-0.86 -0.787,-1.482 -2.36,-1.861 -0.287,-0.098 -1.977,-0.17 -5.075,-0.217 -1.477,-0.047 -3.265,-0.262 -5.362,-0.644 -0.047,-1.528 -0.19,-2.649 -0.43,-3.364 -0.522,-1.336 -1.192,-2.004 -2,-2.004 -0.285,0 -0.598,0.096 -0.929,0.285 -0.335,0.192 -2.003,1.791 -5.005,4.795 -1.287,1.291 -2.195,2.246 -2.714,2.867 -0.429,-0.383 -1.242,-1.267 -2.431,-2.652 l -0.717,-0.715 c -0.142,-0.334 -0.287,-0.525 -0.43,-0.574 -0.094,-0.047 -0.187,-0.07 -0.285,-0.07 -0.667,0 -1.311,0.525 -1.929,1.576 -0.81,1.288 -1.215,2.386 -1.215,3.294 0,0.334 0.071,0.573 0.214,0.717 0.094,0.095 0.62,0.477 1.573,1.146 0.475,0.335 0.904,0.859 1.285,1.576 0.479,0.956 0.836,1.767 1.074,2.436 0.142,0.335 0.213,0.741 0.213,1.218 0,0.144 -0.024,0.358 -0.071,0.645 -1.144,0.047 -2.074,0.189 -2.787,0.43 -0.907,-0.143 -1.501,-0.287 -1.786,-0.43 -0.715,-0.24 -1.241,-0.358 -1.574,-0.358 -0.096,0 -0.382,0.167 -0.857,0.503 -0.334,0.237 -0.645,0.356 -0.93,0.356 0,-1.05 0.094,-2.293 0.285,-3.726 0.047,-0.429 0.073,-1.48 0.073,-3.152 0,-2.15 -0.026,-3.511 -0.073,-4.083 -0.142,-1.193 -0.526,-2.982 -1.144,-5.369 -0.096,0.049 -0.168,0.07 -0.215,0.07 -0.143,0 -0.311,-0.117 -0.501,-0.355 l -0.143,0.427 c -0.192,-0.046 -0.286,-0.093 -0.286,-0.142 l 0.073,-0.07 c -1.29,0.191 -2.722,1.263 -4.295,3.218 -0.576,0.764 -1.169,1.457 -1.79,2.076 -0.095,0.096 -0.525,0.741 -1.288,1.937 -0.527,0.715 -1.6,2.029 -3.219,3.94 -2.149,-3.201 -3.7,-5.159 -4.652,-5.877 -0.62,-0.476 -1.362,-0.955 -2.22,-1.432 -0.381,-0.237 -0.644,-0.358 -0.786,-0.358 -0.335,0 -0.634,0.132 -0.895,0.394 -0.264,0.264 -0.394,0.561 -0.394,0.895 0,0.38 0.143,0.952 0.43,1.716 0.189,0.478 0.332,1.24 0.429,2.29 0.335,-0.715 0.501,-1.337 0.501,-1.859 v -0.575 h 0.214 c 0.192,0 0.311,0.263 0.358,0.789 0.049,0.286 0.334,0.834 0.859,1.646 0.382,0.668 0.692,1.456 0.929,2.364 l 0.575,2.361 1.001,3.652 0.359,2.721 0.786,4.367 0.357,5.298 0.288,3.723 c -0.05,1.194 -0.096,1.98 -0.141,2.364 -0.099,0.38 -0.24,0.595 -0.433,0.643 l -0.359,0.072 c -0.665,0.238 -0.978,0.979 -0.928,2.22 0.237,-0.049 0.43,-0.071 0.571,-0.071 0.144,0 0.837,0.047 2.077,0.143 0.144,0.047 0.834,-0.478 2.076,-1.575 0.715,-0.574 1.524,-1.552 2.431,-2.936 0.573,-0.048 0.931,-0.073 1.074,-0.073 h 1.715 c 0.481,-0.049 1.148,-0.334 2.006,-0.858 0.049,2.004 0.071,3.317 0.071,3.938 0.049,0.524 0.072,0.905 0.072,1.146 0,0.38 -0.072,0.954 -0.214,1.717 -0.908,-0.048 -1.694,-0.071 -2.364,-0.071 -0.474,0 -1.118,0.071 -1.93,0.215 -2.002,0.428 -3.46,0.715 -4.364,0.859 0.522,0.62 1.073,1.145 1.645,1.575 1.477,0.954 3.768,2.029 6.869,3.221 0.381,0.764 0.81,1.146 1.29,1.146 0.378,0 0.737,-0.095 1.073,-0.286 l 2.147,-1.217 c 1.338,-0.191 2.13,-0.382 2.37,-0.574 0.956,-0.62 1.696,-1.36 2.224,-2.218 0.192,-0.384 0.289,-0.693 0.289,-0.931 0,-0.239 -0.072,-0.478 -0.215,-0.716 -0.05,-0.049 -0.624,-0.764 -1.725,-2.148 -0.288,-0.286 -0.575,-0.954 -0.861,-2.004 l -0.647,-2.149 c -0.576,-1.766 -0.863,-2.72 -0.863,-2.863 -0.045,-0.144 -0.072,-0.31 -0.072,-0.502 0,-0.143 0.027,-0.357 0.072,-0.644 0.721,0.621 1.579,1.646 2.585,3.078 -0.428,-1.098 -0.909,-2.171 -1.436,-3.221 -0.481,-0.907 -0.957,-2.005 -1.436,-3.295 2.347,1.099 4.164,2.077 5.456,2.937 1.2,0.81 2.132,1.431 2.806,1.861 1.053,0.621 1.602,1.002 1.65,1.146 0.095,0.094 0.215,0.286 0.359,0.572 -1.534,-0.143 -2.537,-0.263 -3.016,-0.358 -0.719,-0.143 -1.269,-0.214 -1.652,-0.214 -0.623,0 -1.367,0.405 -2.226,1.217 1.386,0.144 2.106,0.238 2.155,0.286 0.958,0.143 2.464,0.668 4.524,1.575 -1.632,1.24 -2.514,2.124 -2.658,2.649 l -0.934,3.366 c -0.096,0.429 -0.405,1.216 -0.932,2.362 h 1.22 c 0.862,0 1.459,-0.12 1.796,-0.357 l 2.515,-1.361 h 0.071 c 0.193,0 0.669,0.238 1.437,0.716 0.573,0.334 1.195,0.955 1.868,1.862 L -6.651,26.119 C -6.745,25.735 -6.913,25.282 -7.153,24.758 -7.919,23.374 -8.35,22.394 -8.445,21.821 l -0.287,-2.218 c 0,-0.239 -0.168,-0.74 -0.504,-1.503 0.718,0.429 1.507,0.834 2.372,1.217 0.476,2.815 0.717,5.297 0.717,7.446 0,0.714 -0.072,1.239 -0.214,1.573 -0.287,0.622 -0.765,0.979 -1.432,1.075 l -1.072,0.215 c -0.098,0 -0.313,0.119 -0.645,0.358 -1.289,-0.43 -3.295,-1.337 -6.013,-2.722 1.67,1.289 2.793,2.125 3.365,2.507 2.432,1.766 4.065,3.054 4.902,3.866 0.835,0.811 1.71,1.932 2.62,3.366 -2.726,-0.049 -4.159,0.023 -4.301,0.215 l -2.578,0.5 c -0.237,0.048 -0.476,0.072 -0.714,0.072 -0.81,0 -1.72,-0.382 -2.721,-1.146 -0.332,-1.145 -0.452,-1.718 -0.358,-1.718 l -0.357,-2.578 -0.359,-1.575 v -0.572 h -0.358 c -0.669,0 -1.097,0.048 -1.287,0.143 -0.191,0.095 -0.477,0.358 -0.858,0.787 -0.526,0.668 -0.911,1.146 -1.146,1.432 -0.239,0.429 -0.5,0.788 -0.786,1.074 -0.858,-0.478 -1.434,-0.811 -1.719,-1.002 -1.43,-0.907 -2.479,-1.504 -3.149,-1.79 -2.479,-1.146 -4.032,-1.718 -4.651,-1.718 -0.19,0 -0.91,0.309 -2.146,0.93 -1.433,0.621 -2.338,1.074 -2.72,1.361 -1.575,1.145 -2.792,2.481 -3.651,4.009 -0.429,0.811 -0.643,1.503 -0.643,2.077 0,0.237 0.046,0.572 0.144,1.003 0.763,-0.478 1.764,-0.956 3.004,-1.432 0.812,-0.384 1.339,-0.598 1.576,-0.646 0.62,-0.238 1.287,-0.357 2.005,-0.357 1.143,0 2.885,0.19 5.222,0.572 1,0.144 2.171,0.382 3.507,0.717 -0.285,0.668 -0.513,1.121 -0.679,1.36 -0.166,0.238 -0.54,0.668 -1.112,1.289 -1.047,1.144 -2.025,2.194 -2.932,3.148 -0.479,0.43 -1.121,0.883 -1.932,1.361 0.762,0.762 1.312,1.119 1.646,1.072 l 1.287,-0.071 h 2.9 c 0.023,0 0.299,-0.096 0.822,-0.286 0.191,-0.096 0.979,-0.429 2.363,-1.001 2.098,-1.289 3.457,-2.148 4.078,-2.577 0.716,-0.478 1.215,-0.931 1.503,-1.361 0.191,-0.334 0.382,-0.644 0.571,-0.93 0.429,0.094 0.67,0.142 0.716,0.142 h 3.292 c 0.335,0.049 1.552,0.311 3.65,0.788 0.762,0.191 2.369,0.454 4.819,0.789 0.432,1.192 0.648,2.003 0.648,2.433 0,0.43 -0.168,0.835 -0.506,1.216 -0.577,0.572 -0.96,0.858 -1.151,0.858 -0.098,0 -0.218,-0.024 -0.361,-0.071 -0.049,0.572 0.24,1.097 0.864,1.575 0.626,0.429 1.395,0.644 2.308,0.644 0.763,0 1.385,-0.071 1.861,-0.215 L 3.91,46.521 C 5.771,45.947 6.795,45.589 6.988,45.447 7.652,44.969 7.99,44.35 7.99,43.587 7.99,43.204 7.939,42.678 7.846,42.012"
         style="fill:#231f20;fill-opacity:1;fill-rule:nonzero;stroke:none"
         transform="matrix(1.3333333,0,0,-1.3333333,387.35933,98.779733)"
         clip-path="url(#clipPath5)"
         inkscape:label="path4" />
      <path
         id="path6"
         d="M 0,0 C 2.022,-0.053 3.943,-0.338 5.763,-0.857 7.216,-1.324 8.202,-1.871 8.725,-2.49 9.137,-2.959 9.396,-3.453 9.501,-3.971 9.552,-4.23 9.629,-4.699 9.734,-5.373 h 0.545 0.544 c 0.313,0.102 0.754,0.727 1.324,1.869 0.313,0.57 0.483,0.897 0.507,0.975 0.026,0.076 0.22,0.789 0.584,2.14 0.728,2.647 1.17,4.334 1.326,5.063 0.155,1.09 0.284,1.947 0.39,2.57 l 0.467,2.881 0.078,2.18 c 0.413,3.531 0.621,7.062 0.621,10.593 0,3.166 -0.362,5.139 -1.088,5.918 -0.468,0.518 -0.963,0.858 -1.483,1.012 -0.102,0 -0.675,0.051 -1.712,0.156 -1.973,0.207 -3.141,0.313 -3.503,0.313 -1.141,0 -3.376,-0.234 -6.697,-0.701 -2.961,-0.467 -5.144,-0.78 -6.544,-0.934 0.885,-0.469 1.637,-0.965 2.26,-1.482 2.179,-1.764 3.501,-3.244 3.969,-4.44 C 1.635,21.963 1.87,20.742 2.025,19.082 2.439,18.82 2.805,18.639 3.115,18.535 3.219,18.482 4.283,18.303 6.308,17.99 7.971,17.73 9.084,17.109 9.657,16.123 9.864,15.809 9.969,15.521 9.969,15.266 9.969,14.797 9.424,14.123 8.334,13.24 8.023,12.928 6.828,11.994 4.751,10.436 2.984,9.139 1.817,8.203 1.244,7.635 0.881,5.348 0.466,2.803 0,0 m -12.851,-2.756 h 0.545 c 0.623,0 0.988,0.014 1.089,0.039 0.103,0.026 0.7,0.168 1.793,0.43 1.143,0.31 2.181,0.545 3.115,0.701 -0.052,0.52 -0.078,0.83 -0.078,0.934 0,0.986 -0.051,1.922 -0.155,2.804 -0.78,-0.726 -1.635,-1.427 -2.569,-2.103 -1.351,-1.037 -2.597,-1.973 -3.74,-2.805 m 29.673,-13.125 c -0.933,-0.779 -1.713,-1.168 -2.335,-1.168 -0.572,0 -1.118,0.283 -1.638,0.856 -0.364,0.416 -0.623,0.83 -0.779,1.248 l -0.779,2.336 C 10.459,-10.533 9.084,-8.768 7.164,-7.314 6.799,-7.42 6.516,-7.471 6.308,-7.471 L 5.685,-7.393 H 5.452 4.128 3.817 c -1.922,0 -3.482,-0.027 -4.673,-0.078 -0.73,-0.052 -2.262,-0.207 -4.596,-0.467 -0.986,-0.103 -2.623,-0.154 -4.905,-0.154 -1.714,0 -3.064,0.233 -4.051,0.699 -0.365,0.157 -1.298,0.727 -2.805,1.715 -0.311,0.205 -0.803,0.492 -1.477,0.856 0.208,-1.039 0.335,-1.688 0.387,-1.948 l 1.402,-4.128 c 0.104,-0.26 0.156,-0.52 0.156,-0.778 0,-0.521 -0.209,-0.933 -0.623,-1.246 -0.312,-0.31 -0.7,-0.467 -1.168,-0.467 -0.83,0 -1.896,0.701 -3.191,2.102 -0.885,0.933 -1.614,1.947 -2.184,3.037 -0.831,1.713 -1.712,3.998 -2.646,6.855 -0.675,2.178 -1.089,3.762 -1.247,4.749 l -1.247,6.154 c -0.88,4.099 -1.401,6.646 -1.556,7.633 -0.103,1.14 -0.209,3.816 -0.313,8.021 0,0.881 -0.102,1.897 -0.309,3.037 1.659,-1.195 2.957,-2.26 3.893,-3.195 0.468,-0.52 1.764,-2.152 3.893,-4.904 1.297,-1.766 2.13,-3.196 2.493,-4.286 0.155,-0.673 0.234,-1.4 0.234,-2.179 0,-0.207 -0.053,-1.297 -0.156,-3.272 -0.053,-0.83 -0.078,-1.687 -0.078,-2.568 0,-1.869 0.181,-3.766 0.545,-5.686 0.259,-1.404 0.803,-3.634 1.635,-6.697 0.624,0.258 1.012,0.414 1.168,0.467 1.352,0.467 2.519,1.037 3.505,1.713 1.971,1.349 3.765,2.908 5.374,4.672 0.674,0.779 1.401,1.556 2.181,2.338 0.104,1.453 0.155,2.543 0.155,3.271 0,0.674 -0.025,1.635 -0.078,2.881 -1.298,-0.053 -2.284,-0.078 -2.959,-0.078 -1.195,0 -2.805,0.131 -4.827,0.39 -1.298,0.207 -2.7,0.336 -4.208,0.389 0.728,1.088 1.169,1.635 1.324,1.635 0.417,0.26 1.897,0.933 4.439,2.025 2.077,0.571 3.455,0.987 4.131,1.246 0.831,0.258 1.555,0.493 2.178,0.7 0.208,1.818 0.312,3.142 0.312,3.974 0,1.867 -0.624,3.373 -1.868,4.516 -0.209,0.207 -0.936,0.57 -2.181,1.09 -0.831,0.312 -1.69,0.728 -2.572,1.246 -0.777,-0.053 -2.023,-0.285 -3.736,-0.701 -1.297,-0.311 -2.338,-0.52 -3.117,-0.623 -0.675,-0.104 -2.182,-0.182 -4.516,-0.233 1.868,2.18 3.374,3.66 4.516,4.438 1.714,1.193 3.971,2.05 6.776,2.57 1.349,0.258 2.596,0.441 3.74,0.545 4.412,0.779 7.318,1.17 8.72,1.17 1.82,0 3.711,-0.026 5.687,-0.078 0.831,-0.053 3.035,-0.287 6.618,-0.702 h 0.545 c 0.987,0.207 1.819,0.311 2.495,0.311 0.983,0 2.179,-0.414 3.581,-1.246 1.817,-1.143 3.944,-2.932 6.385,-5.373 0.832,-0.883 1.482,-1.662 1.95,-2.336 0.362,-0.52 0.544,-1.117 0.544,-1.791 0,-0.623 -0.234,-1.326 -0.702,-2.106 C 26.168,20.645 25.83,20.035 25.777,19.906 25.725,19.775 25.621,19.242 25.466,18.309 25.413,17.736 25.101,15.451 24.531,11.455 23.909,6.729 23.519,3.875 23.363,2.887 23.262,2.16 22.896,0.369 22.272,-2.486 c -0.518,-2.389 -0.881,-3.971 -1.088,-4.75 -0.157,-0.52 -0.545,-1.637 -1.167,-3.35 -0.47,-1.506 -0.885,-2.623 -1.248,-3.348 -0.726,-1.402 -1.246,-2.103 -1.558,-2.103 -0.052,0 -0.181,0.051 -0.389,0.156"
         style="fill:#231f20;fill-opacity:1;fill-rule:nonzero;stroke:none"
         transform="matrix(1.3333333,0,0,-1.3333333,474.42973,176.46733)"
         clip-path="url(#clipPath7)"
         inkscape:label="path6" />
      <path
         id="path8"
         d="M 0,0 V -0.258 C -0.061,-0.545 -0.116,-0.803 -0.172,-1.031 -0.804,-2.35 -1.491,-3.582 -2.237,-4.729 -3.842,-7.192 -5.819,-9.17 -8.17,-10.66 c -2.234,-1.375 -4.616,-2.006 -7.136,-1.892 -1.262,-0.114 -2.465,0.029 -3.613,0.431 -0.686,0.113 -1.289,0.371 -1.804,0.773 -0.804,0.343 -1.461,0.83 -1.977,1.462 -0.746,0.688 -1.261,1.518 -1.547,2.492 -0.172,0.516 -0.233,1.089 -0.172,1.72 -0.061,0.86 0.086,1.72 0.43,2.58 0.055,0.401 0.227,0.801 0.516,1.203 1.317,2.293 3.211,4.071 5.672,5.332 0.116,0 0.258,0.057 0.429,0.172 1.204,0.629 2.496,1.174 3.874,1.633 1.485,0.457 3.008,0.859 4.555,1.203 C -4.53,7.08 -0.061,7.366 4.469,7.31 5.5,7.252 6.563,7.224 7.649,7.224 c 1.492,-0.058 3.011,-0.058 4.558,0 3.323,-0.058 6.675,0.142 10.058,0.601 0.404,0 0.803,0.029 1.206,0.086 l 0.086,0.086 c 0,-0.058 0.027,-0.086 0.086,-0.086 0.172,-0.057 0.371,-0.086 0.602,-0.086 0,-0.057 0.027,-0.086 0.086,-0.086 0.057,-0.058 0.086,-0.115 0.086,-0.172 0.057,-0.171 0.113,-0.315 0.171,-0.429 V 7.052 C 24.588,6.881 24.56,6.766 24.502,6.707 24.444,6.535 24.417,6.391 24.417,6.277 24.131,6.047 23.901,5.818 23.729,5.59 22.982,5.074 22.21,4.645 21.405,4.301 19.226,3.268 16.992,2.838 14.702,3.01 11.777,3.066 8.883,3.297 6.016,3.699 2.691,4.1 -0.604,4.357 -3.87,4.473 -6.452,4.414 -9.002,4.156 -11.521,3.699 c -3.96,-0.746 -7.253,-2.523 -9.89,-5.332 -0.116,-0.058 -0.144,-0.115 -0.086,-0.172 -0.23,-0.23 -0.401,-0.459 -0.515,-0.687 -0.516,-0.918 -0.718,-1.864 -0.602,-2.837 -0.116,-0.86 0.086,-1.576 0.602,-2.15 0.343,-0.459 0.773,-0.833 1.289,-1.118 1.203,-0.802 2.523,-1.117 3.956,-0.945 1.145,-0.115 2.292,0 3.441,0.344 1.601,0.401 3.121,1.088 4.555,2.062 0.914,0.574 1.834,1.233 2.75,1.979 1.547,1.261 2.897,2.778 4.042,4.555 0.285,0.344 0.574,0.745 0.859,1.206 0.058,0.056 0.172,0.113 0.344,0.171 h 0.086 c 0.058,0 0.144,0.028 0.26,0.086 0.056,-0.058 0.111,-0.115 0.172,-0.172 h 0.086 C -0.116,0.631 -0.061,0.604 0,0.604 V 0.346 0.088 Z m -15.134,-22.268 c -0.344,-0.286 -0.66,-0.545 -0.946,-0.773 -0.113,-0.173 -0.257,-0.259 -0.429,-0.259 -0.114,-0.115 -0.199,-0.143 -0.258,-0.086 -0.114,-0.057 -0.2,-0.029 -0.258,0.086 -0.114,0 -0.2,0.029 -0.258,0.087 v 0.258 0.086 c -0.057,0.172 -0.03,0.372 0.086,0.601 0.058,0.172 0.172,0.344 0.344,0.516 0.801,0.917 1.692,1.805 2.664,2.666 1.203,0.916 2.496,1.748 3.871,2.494 1.429,0.688 2.922,1.317 4.468,1.891 2.406,4.471 5.39,8.568 8.944,12.295 1.145,1.375 2.492,2.635 4.039,3.783 0.059,0.057 0.172,0.143 0.344,0.258 0.46,0.457 1.062,0.801 1.805,1.031 0.233,0.057 0.518,0.086 0.862,0.086 h 0.086 0.172 c 0,-0.059 0.058,-0.086 0.172,-0.086 C 10.515,2.551 10.546,2.494 10.66,2.494 10.718,2.379 10.773,2.264 10.832,2.15 10.718,2.092 10.632,2.035 10.574,1.979 10.402,1.748 10.23,1.549 10.058,1.377 9.54,0.975 9.082,0.545 8.68,0.088 6.961,-1.861 5.473,-3.954 4.211,-6.189 2.606,-8.653 1.204,-11.205 0,-13.842 c 3.094,0.459 6.047,1.49 8.852,3.096 0.461,0.285 0.977,0.516 1.55,0.687 l 0.086,0.086 c 0,-0.058 0.058,-0.086 0.172,-0.086 0.058,-0.058 0.144,-0.086 0.257,-0.086 0,-0.058 0.059,-0.085 0.172,-0.085 h 0.086 c 0,-0.116 0.059,-0.202 0.172,-0.258 0,-0.116 0.059,-0.231 0.172,-0.344 -0.113,-0.115 -0.242,-0.259 -0.387,-0.43 -0.144,-0.172 -0.328,-0.402 -0.558,-0.687 -2.121,-2.524 -3.926,-5.188 -5.418,-7.996 -0.116,-0.346 -0.229,-0.661 -0.343,-0.948 0,-0.114 -0.031,-0.171 -0.086,-0.171 -0.23,-0.516 -0.488,-0.975 -0.773,-1.375 -0.172,-0.115 -0.317,-0.23 -0.43,-0.344 -0.688,-0.403 -1.375,-0.718 -2.063,-0.946 -0.288,-0.172 -0.576,-0.288 -0.859,-0.344 -0.233,-0.172 -0.43,-0.231 -0.602,-0.172 -0.116,-0.115 -0.202,-0.115 -0.258,0 H -0.43 c -0.061,0 -0.086,0.027 -0.086,0.086 -0.061,0 -0.116,0.056 -0.174,0.172 -0.059,0 -0.086,0.027 -0.086,0.086 v 0.172 c -0.114,0.056 -0.144,0.142 -0.086,0.257 v 0.172 0.259 c 0.058,0.172 0.113,0.372 0.172,0.602 0.574,1.087 1.231,2.177 1.98,3.267 1.258,1.66 2.578,3.295 3.952,4.901 -0.687,-0.344 -1.374,-0.575 -2.062,-0.688 -1.375,-0.402 -2.753,-0.66 -4.128,-0.773 -3.211,-5.963 -7.566,-10.835 -13.069,-14.618 -1.316,-0.859 -2.667,-1.576 -4.042,-2.148 -4.355,-1.893 -8.855,-2.811 -13.498,-2.752 -2.806,-0.059 -5.531,0.371 -8.165,1.289 -1.378,0.459 -2.608,1.147 -3.698,2.065 -3.039,2.292 -4.503,5.329 -4.386,9.113 -0.059,1.89 0.313,3.724 1.118,5.502 1.03,2.121 2.521,3.926 4.471,5.418 1.433,1.031 3.01,1.861 4.73,2.493 0.859,0.228 1.774,0.43 2.75,0.601 0.917,0.172 1.89,0.258 2.922,0.258 1.779,-0.057 3.554,-0.372 5.334,-0.945 1.142,-0.402 2.234,-0.976 3.266,-1.72 0.285,-0.344 0.629,-0.66 1.031,-0.945 0.859,-0.918 1.516,-1.979 1.976,-3.182 0.231,-0.859 0.344,-1.691 0.344,-2.494 0,-1.433 -0.312,-2.779 -0.945,-4.041 -0.918,-1.663 -2.121,-3.009 -3.61,-4.04 -1.031,-0.861 -2.151,-1.462 -3.354,-1.806 -0.918,-0.344 -1.833,-0.574 -2.75,-0.688 -0.746,-0.171 -1.492,-0.2 -2.238,-0.086 -1.835,-0.114 -3.553,0.172 -5.156,0.86 -0.46,0.114 -0.859,0.285 -1.203,0.516 -0.344,0.113 -0.632,0.314 -0.86,0.603 -0.288,0.113 -0.429,0.314 -0.429,0.601 -0.117,0.057 -0.148,0.143 -0.086,0.258 v 0.086 l 0.086,0.086 c 0.055,0 0.086,0.056 0.086,0.172 l 0.086,0.086 0.172,0.086 c 0.055,-0.059 0.141,-0.03 0.257,0.085 h 0.172 0.086 c 0.228,-0.171 0.485,-0.287 0.774,-0.343 1.832,-0.976 3.811,-1.463 5.929,-1.463 h 0.258 c 0.688,0 1.406,0.057 2.152,0.172 0.801,0.115 1.605,0.316 2.406,0.602 1.031,0.402 2.035,0.974 3.011,1.72 0.571,0.516 1.172,1.088 1.805,1.72 0.86,1.203 1.288,2.578 1.288,4.127 v 0.945 c -0.116,0.859 -0.428,1.691 -0.945,2.494 -0.46,0.688 -1.031,1.26 -1.719,1.719 -0.748,0.459 -1.522,0.832 -2.32,1.119 -1.264,0.285 -2.523,0.457 -3.787,0.516 -1.031,-0.116 -2.004,-0.231 -2.923,-0.344 -2.865,-0.403 -5.416,-1.49 -7.651,-3.268 -2.924,-2.064 -4.441,-4.845 -4.558,-8.341 -0.055,-2.178 0.633,-4.069 2.066,-5.672 1.145,-1.262 2.519,-2.237 4.128,-2.924 2.462,-1.033 5.071,-1.492 7.821,-1.377 2.578,-0.059 5.131,0.258 7.654,0.947 0.172,0.057 0.371,0.143 0.602,0.258 2.121,0.629 4.097,1.603 5.93,2.923 4.358,3.324 7.826,7.478 10.405,12.466 -1.321,-0.575 -2.551,-1.176 -3.696,-1.805 -1.491,-1.09 -2.898,-2.236 -4.214,-3.44"
         style="fill:#231f20;fill-opacity:1;fill-rule:nonzero;stroke:none"
         transform="matrix(1.3333333,0,0,-1.3333333,103.08013,136.30587)"
         clip-path="url(#clipPath9)"
         inkscape:label="path8" />
      <path
         id="path10"
         d="m 0,0 c -1.035,-1.777 -2.238,-3.412 -3.613,-4.9 -0.917,-1.09 -1.921,-2.008 -3.008,-2.752 -0.69,-0.516 -1.405,-0.803 -2.151,-0.86 h -0.172 c -0.23,0 -0.402,0.114 -0.515,0.344 -0.059,0.113 -0.114,0.229 -0.172,0.344 -0.114,0.113 -0.145,0.285 -0.086,0.515 v 0.086 c 0,1.317 0.315,2.578 0.945,3.784 1.203,3.037 3.097,5.616 5.675,7.737 0.746,0.687 1.633,1.118 2.667,1.29 h 0.172 C -0.086,5.588 0.086,5.53 0.257,5.416 0.485,5.302 0.687,5.187 0.859,5.073 0.915,4.901 1,4.757 1.117,4.642 1.172,4.471 1.23,4.298 1.289,4.126 1.117,2.636 0.687,1.261 0,0 m -59.64,-23.503 c -1.032,-1.547 -2.379,-2.637 -4.04,-3.268 -0.172,-0.113 -0.342,-0.142 -0.514,-0.085 -0.403,-0.057 -0.75,0.058 -1.035,0.343 v 0.086 c -0.114,0.059 -0.172,0.172 -0.172,0.344 -0.114,0.229 -0.144,0.487 -0.085,0.773 0.057,0.917 0.342,1.807 0.858,2.665 0.688,1.09 1.52,2.124 2.496,3.096 2.578,2.406 5.445,4.528 8.597,6.363 -1.719,-3.669 -3.754,-7.107 -6.105,-10.317 m 70.345,22.042 c -0.059,0.057 -0.086,0.143 -0.086,0.258 -0.058,0 -0.086,0.027 -0.086,0.086 -0.058,0 -0.086,0.027 -0.086,0.086 -0.114,0.056 -0.23,0.086 -0.343,0.086 -0.059,0 -0.114,0.027 -0.173,0.086 v -0.086 c -0.113,0 -0.199,-0.03 -0.258,-0.086 C 9.213,-1.318 8.87,-1.662 8.643,-2.064 V -2.15 C 8.068,-2.725 7.525,-3.268 7.009,-3.783 5.404,-5.561 3.627,-7.109 1.679,-8.426 1.562,-8.484 1.476,-8.541 1.421,-8.6 H 0.733 c -0.117,0 -0.171,0.057 -0.171,0.174 v 0.774 c 0.054,0.285 0.171,0.572 0.343,0.859 0.457,1.031 1.031,2.033 1.719,3.01 2.12,3.324 4.27,6.705 6.449,10.145 C 9.127,6.419 9.186,6.505 9.245,6.62 9.127,6.733 9.042,6.878 8.987,7.049 8.815,6.991 8.698,6.963 8.643,6.963 7.323,6.905 6.034,6.849 4.772,6.792 H 4.601 L 4.515,6.62 C 3.999,5.874 3.511,5.157 3.053,4.471 2.995,4.7 2.94,4.929 2.881,5.159 2.709,5.616 2.452,6.018 2.108,6.362 1.82,6.591 1.507,6.792 1.163,6.963 0.647,7.135 0.131,7.249 -0.384,7.307 -2.278,7.135 -4.024,6.591 -5.63,5.674 -7.75,4.471 -9.645,3.037 -11.304,1.375 c -0.746,-0.746 -1.406,-1.49 -1.977,-2.234 -0.045,-0.077 -0.098,-0.138 -0.148,-0.206 -0.331,-0.201 -0.609,-0.4 -0.807,-0.599 -0.058,-0.231 -0.175,-0.374 -0.347,-0.432 -0.457,-0.631 -0.945,-1.175 -1.46,-1.633 -1.376,-1.432 -2.781,-2.78 -4.212,-4.04 -0.573,-0.459 -1.147,-0.745 -1.722,-0.86 -0.23,-0.059 -0.43,-0.086 -0.602,-0.086 h -0.086 c -0.113,0.057 -0.199,0.113 -0.256,0.172 -0.231,0.058 -0.317,0.23 -0.258,0.517 v 0.172 c 0.057,0.113 0.113,0.285 0.172,0.515 0.113,0.343 0.257,0.715 0.428,1.117 0.63,1.147 1.349,2.292 2.152,3.439 2.809,4.586 5.672,9.199 8.597,13.843 h 6.792 c 0,0.056 0.028,0.142 0.086,0.257 0.114,0.23 0.286,0.488 0.516,0.775 0.114,0.229 0.258,0.458 0.43,0.687 h -6.792 c 1.089,1.778 2.207,3.553 3.354,5.33 0,0.059 0.055,0.145 0.173,0.26 -0.173,0.113 -0.29,0.258 -0.345,0.43 h -0.172 c -1.319,-0.172 -2.608,-0.287 -3.87,-0.344 h -0.172 c -0.058,-0.115 -0.116,-0.172 -0.171,-0.172 -1.204,-1.892 -2.352,-3.726 -3.441,-5.504 h -2.836 c -0.058,-0.057 -0.086,-0.115 -0.086,-0.172 -0.172,-0.286 -0.344,-0.573 -0.515,-0.859 -0.172,-0.23 -0.317,-0.46 -0.43,-0.688 h 2.836 c -0.746,-1.089 -1.462,-2.15 -2.149,-3.182 -1.492,-2.005 -3.097,-3.868 -4.815,-5.587 -0.918,-0.918 -1.778,-1.865 -2.578,-2.838 -0.138,-0.138 -0.248,-0.289 -0.344,-0.446 -0.083,-0.009 -0.162,-0.024 -0.209,-0.07 -0.114,-0.058 -0.2,-0.115 -0.258,-0.171 -0.917,-0.804 -1.718,-1.664 -2.406,-2.58 -1.32,-1.434 -2.695,-2.751 -4.128,-3.955 -0.746,-0.631 -1.578,-0.975 -2.492,-1.033 h -0.086 c -0.117,0.058 -0.203,0.114 -0.258,0.173 -0.23,0.115 -0.289,0.286 -0.172,0.517 v 0.258 c 0.114,0.343 0.258,0.714 0.43,1.117 0.688,1.317 1.46,2.606 2.32,3.868 1.949,3.039 3.898,6.105 5.847,9.2 0.055,0.058 0.114,0.143 0.172,0.258 -0.172,0.114 -0.289,0.258 -0.343,0.431 -0.118,-0.059 -0.204,-0.086 -0.259,-0.086 -1.433,-0.116 -2.839,-0.173 -4.214,-0.173 -0.058,-0.058 -0.113,-0.086 -0.171,-0.086 l -0.086,-0.086 c -1.891,-1.948 -3.727,-3.927 -5.504,-5.933 -0.687,-0.746 -1.289,-1.519 -1.804,-2.32 -0.034,-0.051 -0.047,-0.08 -0.076,-0.127 -0.738,-0.772 -1.478,-1.543 -2.215,-2.281 -1.55,-1.606 -3.183,-3.068 -4.902,-4.385 1.09,2.12 2.207,4.269 3.355,6.447 1.317,2.752 2.664,5.533 4.039,8.341 0.058,0.229 0.144,0.458 0.258,0.689 -0.23,-0.059 -0.458,-0.086 -0.688,-0.086 -1.374,-0.059 -2.753,-0.116 -4.128,-0.173 -0.113,-0.058 -0.199,-0.086 -0.258,-0.086 l -0.086,-0.086 c -1.948,-2.235 -3.867,-4.443 -5.757,-6.62 -0.261,-0.297 -0.489,-0.595 -0.702,-0.892 -0.068,-0.013 -0.141,-0.02 -0.179,-0.059 -0.23,-0.116 -0.406,-0.258 -0.519,-0.43 -0.286,-0.231 -0.488,-0.459 -0.602,-0.69 -0.515,-0.63 -1.031,-1.203 -1.546,-1.718 -1.605,-1.778 -3.383,-3.326 -5.332,-4.643 -0.113,-0.116 -0.199,-0.144 -0.258,-0.088 -0.172,-0.056 -0.285,-0.085 -0.343,-0.085 h -0.344 c -0.058,0 -0.086,0.029 -0.086,0.085 h -0.086 c -0.058,0 -0.086,0.03 -0.086,0.088 v 0.774 c 0.058,0.057 0.114,0.171 0.172,0.343 0.285,0.802 0.715,1.604 1.289,2.408 0,0.057 0.028,0.114 0.086,0.172 l 7.05,11.091 c 0.058,0.057 0.113,0.143 0.172,0.258 -0.114,0.113 -0.23,0.258 -0.344,0.43 l -0.172,-0.086 c -1.316,-0.058 -2.636,-0.115 -3.953,-0.172 h -0.258 c -0.058,-0.115 -0.116,-0.201 -0.171,-0.258 -2.293,-4.013 -4.96,-7.739 -7.996,-11.177 -1.378,-1.835 -3.097,-3.124 -5.159,-3.871 -0.231,-0.056 -0.43,-0.085 -0.602,-0.085 h -0.258 c -0.058,0 -0.086,0.029 -0.086,0.085 -0.116,0.059 -0.172,0.174 -0.172,0.346 v 0.344 c 0,0.057 0.028,0.172 0.086,0.343 0.629,1.432 1.403,2.808 2.321,4.127 0.055,0.172 0.172,0.371 0.344,0.602 1.89,2.98 3.812,6.019 5.76,9.114 0.056,0.057 0.114,0.143 0.172,0.258 -0.116,0.113 -0.202,0.258 -0.258,0.43 -0.116,-0.058 -0.202,-0.086 -0.257,-0.086 -1.433,-0.115 -2.839,-0.172 -4.214,-0.172 h -0.086 c -0.059,-0.059 -0.114,-0.115 -0.172,-0.172 -1.949,-2.007 -3.812,-4.013 -5.589,-6.019 -0.687,-0.746 -1.289,-1.46 -1.805,-2.148 -0.113,-0.174 -0.145,-0.318 -0.086,-0.432 l -0.086,-0.086 v -0.086 c 0,-0.058 0.027,-0.115 0.086,-0.171 v -0.172 c 0,-0.059 0.027,-0.086 0.086,-0.086 0,-0.059 0.027,-0.086 0.086,-0.086 0.114,-0.059 0.258,-0.086 0.43,-0.086 h 0.085 c 0.059,0 0.114,0.027 0.173,0.086 0.172,0.057 0.301,0.142 0.387,0.258 0.085,0.113 0.187,0.228 0.3,0.343 0.516,0.403 1.004,0.889 1.461,1.463 0,0.057 0.058,0.114 0.172,0.172 -0.917,-1.32 -1.605,-2.724 -2.062,-4.213 -0.172,-0.287 -0.258,-0.545 -0.258,-0.775 -0.114,-0.231 -0.145,-0.459 -0.086,-0.688 v -0.859 c 0.058,-0.344 0.144,-0.63 0.258,-0.859 0.172,-0.69 0.515,-1.263 1.031,-1.72 0.402,-0.345 0.89,-0.573 1.464,-0.688 0.285,-0.115 0.601,-0.171 0.945,-0.171 0.172,0.056 0.371,0.086 0.602,0.086 0.172,0.056 0.399,0.142 0.687,0.257 0.801,0.286 1.547,0.715 2.235,1.289 1.203,0.918 2.351,1.949 3.44,3.095 -0.058,-0.115 -0.03,-0.201 0.086,-0.258 -0.116,-0.859 0,-1.661 0.344,-2.406 0.113,-0.402 0.313,-0.747 0.601,-1.032 0.286,-0.402 0.688,-0.659 1.204,-0.774 0.285,-0.171 0.601,-0.257 0.945,-0.257 0.113,0.056 0.258,0.086 0.429,0.086 0.114,0 0.258,0.056 0.43,0.171 2.465,1.433 4.671,3.238 6.62,5.417 0.585,0.585 1.174,1.226 1.761,1.912 0.168,0.166 0.36,0.334 0.584,0.5 0.056,0 0.114,0.057 0.172,0.172 0.571,0.575 1.173,1.205 1.805,1.893 0.687,0.744 1.375,1.547 2.063,2.408 l -5.847,-12.64 c -4.355,-2.407 -8.397,-5.188 -12.12,-8.34 -2.121,-1.719 -3.356,-3.838 -3.7,-6.361 -0.058,-0.516 0.028,-1.004 0.258,-1.463 0.114,-0.4 0.317,-0.744 0.602,-1.031 0.285,-0.344 0.66,-0.572 1.117,-0.687 0.458,-0.115 0.945,-0.173 1.461,-0.173 0.23,0 0.488,0.029 0.776,0.088 0.228,0 0.486,0.056 0.774,0.171 h 0.086 c 2.234,0.918 4.126,2.349 5.675,4.297 3.266,3.784 6.016,7.969 8.254,12.555 2.636,1.604 5.07,3.493 7.308,5.672 1.03,0.919 2.034,1.949 3.007,3.096 0,0.172 0.086,0.372 0.258,0.601 0,0.057 0.028,0.143 0.042,0.212 0.321,0.311 0.639,0.621 0.977,0.932 -0.714,-1.256 -1.325,-2.552 -1.823,-3.894 -0.058,-0.288 -0.113,-0.546 -0.171,-0.775 -0.058,-0.23 -0.086,-0.429 -0.086,-0.601 v -0.086 c -0.058,-0.343 -0.028,-0.63 0.086,-0.86 0,-0.573 0.144,-1.089 0.43,-1.547 0.457,-0.918 1.203,-1.462 2.237,-1.634 0.227,-0.115 0.516,-0.172 0.86,-0.172 0.227,0 0.457,0.057 0.687,0.172 0.227,0 0.457,0.058 0.687,0.172 0.516,0.23 1.032,0.517 1.548,0.86 1.605,1.146 3.124,2.494 4.557,4.041 0.743,0.745 1.489,1.547 2.235,2.407 0.082,0.083 0.166,0.207 0.25,0.351 0.047,0.031 0.078,0.044 0.131,0.079 0.57,0.515 1.144,1.089 1.718,1.72 0.058,0.114 0.144,0.258 0.258,0.43 -0.86,-1.434 -1.577,-2.924 -2.148,-4.471 -0.059,-0.288 -0.117,-0.546 -0.172,-0.775 -0.059,-0.23 -0.086,-0.429 -0.086,-0.601 v -0.086 c -0.059,-0.343 -0.031,-0.631 0.086,-0.86 0,-0.286 0.055,-0.544 0.172,-0.772 0.172,-0.689 0.514,-1.263 1.03,-1.721 0.403,-0.402 0.888,-0.63 1.462,-0.688 0.229,-0.114 0.516,-0.172 0.858,-0.172 0.172,0.058 0.403,0.115 0.688,0.172 0.231,0 0.461,0.058 0.691,0.173 0.515,0.229 1.031,0.515 1.547,0.859 1.605,1.203 3.121,2.55 4.554,4.041 0.713,0.711 1.398,1.479 2.056,2.294 -0.081,-0.403 -0.084,-0.788 0.019,-1.145 -0.116,-1.262 0.029,-2.438 0.43,-3.525 0.056,-0.344 0.199,-0.661 0.43,-0.946 0.172,-0.402 0.43,-0.747 0.774,-1.033 0.573,-0.573 1.261,-0.888 2.062,-0.944 0.285,0.056 0.602,0.113 0.946,0.171 0.285,0 0.573,0.086 0.859,0.257 h 0.089 c 0.629,0.229 1.258,0.544 1.89,0.947 1.09,0.801 2.091,1.747 3.008,2.837 -0.058,-0.344 -0.058,-0.661 0,-0.946 v -0.601 c 0,-0.287 0.058,-0.516 0.172,-0.688 0.058,-0.516 0.285,-0.947 0.688,-1.291 0.343,-0.287 0.746,-0.458 1.206,-0.515 0.172,-0.115 0.371,-0.171 0.601,-0.171 1.087,0.113 2.118,0.485 3.095,1.117 1.66,1.202 3.21,2.579 4.643,4.126 0.86,0.859 1.689,1.807 2.492,2.838 0.059,0.113 0.145,0.258 0.258,0.429 0,0.057 0.027,0.172 0.086,0.346 v 0.086 c -0.059,0 -0.086,0.027 -0.086,0.086 M -26.826,14.24 c 0.402,-0.458 0.918,-0.659 1.547,-0.601 0.458,-0.058 0.918,0.087 1.375,0.429 0.172,0.115 0.347,0.286 0.519,0.516 0.227,0.23 0.43,0.518 0.601,0.861 0.115,0.344 0.201,0.715 0.258,1.118 v 0.085 c 0,0.516 -0.172,1.002 -0.515,1.463 -0.117,0.114 -0.23,0.229 -0.344,0.344 -0.402,0.172 -0.777,0.285 -1.121,0.344 -0.401,0 -0.773,-0.086 -1.117,-0.258 -0.343,-0.172 -0.574,-0.373 -0.687,-0.603 -0.402,-0.344 -0.688,-0.688 -0.86,-1.032 V 16.82 c -0.172,-0.402 -0.258,-0.773 -0.258,-1.117 -0.057,-0.632 0.142,-1.119 0.602,-1.463 m -13.555,0 c 0.344,-0.514 0.832,-0.716 1.462,-0.601 0.457,-0.058 0.917,0.087 1.377,0.429 0.172,0.115 0.372,0.286 0.603,0.516 0.171,0.23 0.343,0.518 0.514,0.861 0.172,0.344 0.286,0.715 0.344,1.118 v 0.085 c -0.116,0.516 -0.315,1.032 -0.601,1.549 -0.23,0.114 -0.429,0.258 -0.602,0.43 -0.288,0.113 -0.546,0.172 -0.777,0.172 -0.229,0 -0.429,-0.029 -0.601,-0.086 -0.515,-0.115 -0.918,-0.346 -1.203,-0.69 -0.402,-0.343 -0.66,-0.746 -0.774,-1.203 h -0.086 c -0.171,-0.402 -0.229,-0.773 -0.171,-1.117 -0.117,-0.574 0.055,-1.06 0.515,-1.463"
         style="fill:#231f20;fill-opacity:1;fill-rule:nonzero;stroke:none"
         transform="matrix(1.3333333,0,0,-1.3333333,211.20573,169.3032)"
         clip-path="url(#clipPath11)"
         inkscape:label="path10" />
    </g>
  </g>
</svg>
